<svg viewBox="0 0 400 300" fill="none" xmlns="http://www.w3.org/2000/svg"><path d="M244.676 51.882H96v167.905h148.676V51.882Z" fill="#D6DAE1"/><path d="M225.927 70.015H114.293v134.207h111.634V70.015Z" fill="#EFF2F4"/><path d="M173.478 71.86 139.432 33h66.996l-32.95 38.86Z" fill="#B3BEC9"/><path d="m216.538 217.301 42.043 49.879" stroke="#231815" stroke-width="2.14" stroke-miterlimit="10"/><path d="M244.328 133.776c8.434 0 15.272-6.837 15.272-15.272 0-8.434-6.838-15.271-15.272-15.271-8.434 0-15.271 6.837-15.271 15.271 0 8.435 6.837 15.272 15.271 15.272Z" fill="#005DFF"/><path d="M222.611 104.677s31.185-42.552 69.003.241c0 0-36.374 39.716-69.003-.241Z" stroke="#231815" stroke-width="2.14" stroke-miterlimit="10"/><path d="M269.094 46.8s39.636 9.575 33.832 45.948c-5.803 36.374-13.693 54.962-13.693 54.962l14.308 14.121" stroke="#231815" stroke-width="2.14" stroke-miterlimit="10"/><path d="M214.293 92.4h-84.942v2.007h84.942V92.4ZM214.293 105.96h-84.942v2.006h84.942v-2.006ZM214.293 119.547h-84.942v2.006h84.942v-2.006ZM214.293 133.107h-84.942v2.006h84.942v-2.006ZM160.241 146.667h-30.89v2.032h30.89v-2.032Z" fill="#fff"/><path d="M188.538 122.302a54.96 54.96 0 0 0-10.576 108.874 54.96 54.96 0 1 0 10.576-108.874Zm0 97.62a42.791 42.791 0 0 1-30.259-73.051 42.793 42.793 0 1 1 30.259 73.051Z" fill="#FF3640"/><path d="m235.287 130.004-31.559 38.326" stroke="#231815" stroke-width="2.14" stroke-miterlimit="10"/><path d="m201.481 157.365 2.113-.134.642 10.484 10.404-1.391.294 2.113-12.677 1.685-.776-12.757Z" fill="#231815"/></svg>