<svg viewBox="0 0 400 300" fill="none" xmlns="http://www.w3.org/2000/svg"><path d="M249.734 56.004 106.112 85.355l32.923 161.099 143.621-29.35-32.922-161.1Z" fill="#D6DAE1"/><path d="m209.084 54.662-81.708 123.12 109.773 72.85 81.708-123.121-109.773-72.85Z" fill="#EFF2F4"/><path d="M200.428 18s-41.08 69.564-76.571 67.692c-35.49-1.872-1.444-48.783 20.861-30.088 22.306 18.695-5.964 74.298-40.117 83.953" stroke="#231815" stroke-width="2.166" stroke-miterlimit="10"/><path d="M95.402 143.622s-.642 3.851-8.21 3.049c-7.57-.803-13.213 2.674-15.192 9.147.053 0 18.347 13.907 23.402-12.196Z" fill="#005DFF"/><path d="m205.275 104.678-5.604-3.548-10.316 16.292 5.604 3.548 10.316-16.292ZM227.123 103.449l-5.603-3.548-16.797 26.529 5.604 3.548 16.796-26.529ZM247.331 106.068l-5.604-3.548-21.318 33.669 5.604 3.548 21.318-33.669ZM259.106 189.704l-83.151-51.913 1.418-2.219 83.15 51.912-1.417 2.22ZM251.752 201.98l-83.178-51.939 1.418-2.22 83.177 51.939-1.417 2.22ZM203.825 191.977l-44.102-28.537 1.417-2.22 44.103 28.537-1.418 2.22Z" fill="#fff"/><path d="m236.457 149.666-20.65 8.915L264.6 271.606l20.651-8.914-48.794-113.026ZM210.887 136.615l11.928-5.403-10.003-8.077-1.283.348-.642 13.132Z" fill="#FF3640"/><path d="m210.243 154.106.776-32.682 27.253 21.53M236.693 180.37l44.424 102.621" stroke="#231815" stroke-width="2.781" stroke-miterlimit="10"/><path d="M294.036 165.098a11.818 11.818 0 0 0 10.698-7.141 17.519 17.519 0 0 1 22.921-8.665s-1.953 31.8-33.619 15.806Z" fill="#005DFF"/><path d="M269.002 151.967c7.134 0 12.918-5.784 12.918-12.918 0-7.134-5.784-12.918-12.918-12.918-7.134 0-12.918 5.784-12.918 12.918 0 7.134 5.784 12.918 12.918 12.918Z" fill="#fff"/></svg>