<svg viewBox="0 0 400 300" fill="none" xmlns="http://www.w3.org/2000/svg"><path d="M243.676 51.882H95v167.906h148.676V51.882Z" fill="#D6DAE1"/><path d="M224.955 70.016H113.321v134.207h111.634V70.016Z" fill="#F4F5F9"/><path d="M172.506 71.887 138.46 33h66.996l-32.95 38.887Z" fill="#B3BEC9"/><path d="m215.566 217.301 42.017 49.88" stroke="#231815" stroke-width="2.14" stroke-miterlimit="10"/><path d="M213.321 92.428h-84.942v2.006h84.942v-2.006ZM213.321 105.988h-84.942v2.005h84.942v-2.005ZM213.321 119.548h-84.942v2.005h84.942v-2.005ZM213.321 133.107h-84.942v2.006h84.942v-2.006ZM159.27 146.667h-30.891v2.032h30.891v-2.032Z" fill="#fff"/><path d="M187.674 122.329a54.961 54.961 0 1 0-.056 109.925 54.961 54.961 0 0 0 .056-109.925Zm0 97.647a42.797 42.797 0 0 1-39.535-26.417 42.783 42.783 0 0 1-2.435-24.724 42.793 42.793 0 1 1 41.97 51.141Z" fill="#FF3640"/><path d="M219.767 65.175s38.887 30.676 85.985-.455M240.761 76.087l-11.474 23.937M266.197 78.922v25.675M289.171 74.482l16.796 19.497" stroke="#231815" stroke-width="2.14" stroke-miterlimit="10"/></svg>