<svg viewBox="0 0 400 300" fill="none" xmlns="http://www.w3.org/2000/svg"><path d="M80 46v105.135h32.656v28.082l30.676-26.13h75.101V46H80Z" fill="#D5DAE2"/><path d="M320.198 120.271v105.135h-32.655v28.083l-30.677-26.13h-75.1V120.271h138.432Z" fill="#EFF2F4"/><path d="M222.764 180.715a8.505 8.505 0 1 0 0-17.01 8.505 8.505 0 0 0 0 17.01ZM253.28 180.715a8.505 8.505 0 1 0 0-17.01 8.505 8.505 0 0 0 0 17.01ZM282.138 180.715a8.505 8.505 0 1 0 0-17.01 8.505 8.505 0 0 0 0 17.01Z" fill="#FF3640"/><path d="M103.828 78.254h76.598M103.828 92.643h76.598M103.828 107.059h35.143" stroke="#fff" stroke-width="2.568" stroke-miterlimit="10"/><path d="M251.678 57.233s-43.033 72.88-80.262 70.821c-37.229-2.06-1.498-51.11 21.851-31.506 23.348 19.604-6.232 77.802-42.151 87.938" stroke="#231815" stroke-width="2.273" stroke-miterlimit="10"/><path d="M141.592 188.845s-.642 4.065-8.585 3.21c-7.943-.856-13.827 2.674-15.913 9.601 0 0 19.336 14.549 24.498-12.811Z" fill="#005DFF"/></svg>