<svg viewBox="0 0 400 300" fill="none" xmlns="http://www.w3.org/2000/svg"><path d="M263.81 230.382H99.06V101.123l58.171-54.534H263.81v183.793Z" fill="#D6DAE1"/><path d="M236.236 109.147H124.468v2.621h111.768v-2.621ZM236.236 126.985H124.468v2.621h111.768v-2.621ZM236.236 144.824H124.468v2.621h111.768v-2.621ZM236.236 162.984H124.468v2.621h111.768v-2.621ZM165.094 180.529h-40.626v2.648h40.626v-2.648Z" fill="#fff"/><path d="M261.778 209.333c25.199 0 45.627-20.428 45.627-45.627s-20.428-45.627-45.627-45.627c-25.2 0-45.628 20.428-45.628 45.627s20.428 45.627 45.628 45.627Z" fill="#FF3640"/><path d="M262.767 94.115a26.744 26.744 0 1 0-.001 53.49 26.744 26.744 0 0 0 .001-53.49Zm0 44.772a18.003 18.003 0 0 1-16.649-11.093 18.006 18.006 0 0 1 3.885-19.625 18.003 18.003 0 0 1 19.619-3.914 18.004 18.004 0 0 1 11.117 16.632 17.971 17.971 0 0 1-17.972 18Z" fill="#FF3640"/><path d="M130.325 258.785c10.251 0 18.561-8.31 18.561-18.561s-8.31-18.561-18.561-18.561-18.561 8.31-18.561 18.561 8.31 18.561 18.561 18.561ZM146.318 230.783l55.951-35.651M172.717 213.72l-8.906-13.961M186.999 204.038l-12.41-19.47" stroke="#231815" stroke-width="2.166" stroke-miterlimit="10"/><path d="m257.739 163.6-1.096-.562M268.463 162.69c-.348.214-.696.428-1.07.616" stroke="#fff" stroke-width="2.407" stroke-miterlimit="10"/><path d="M256.642 163.038a11.044 11.044 0 0 1-5.058-12.265 11.046 11.046 0 1 1 16.879 11.917" stroke="#fff" stroke-width="2.407" stroke-miterlimit="10"/><path d="m256.642 162.984-9.334 21.958h31.077l-10.243-22.733" stroke="#fff" stroke-width="2.407" stroke-miterlimit="10"/><path d="m154.903 68.253-36.32 35.865 40.893.696v-40.92l-4.573 4.359Z" fill="#005DFF"/><path d="M145.597 41v51.056H92" stroke="#231815" stroke-width="2.166" stroke-miterlimit="10"/></svg>