<svg viewBox="0 0 400 300" fill="none" xmlns="http://www.w3.org/2000/svg"><path d="M105.832 252.483s.588 4.306 8.986 3.69c8.398-.615 14.523 3.29 16.475 10.698 0-.026-20.781 14.683-25.461-14.388Z" fill="#005DFF"/><path d="M157.265 218.516c39.911 0 72.266-32.354 72.266-72.265s-32.355-72.265-72.266-72.265C117.354 73.986 85 106.34 85 146.25s32.354 72.265 72.265 72.265Z" fill="#D6DAE1"/><path d="M122.389 153.311c5.259 0 9.522-4.263 9.522-9.521 0-5.259-4.263-9.521-9.522-9.521a9.521 9.521 0 0 0 0 19.042ZM179.356 132.45a9.52 9.52 0 0 0 9.521-9.521 9.521 9.521 0 1 0-9.521 9.521ZM132.766 176.526l60.337-22.092s2.3 25.756-20.728 34.314c-23.027 8.559-39.609-12.222-39.609-12.222Z" fill="#EFF2F4"/><path d="M239.426 173.531c39.911 0 72.266-32.355 72.266-72.266 0-39.91-32.355-72.265-72.266-72.265-39.911 0-72.265 32.354-72.265 72.265s32.354 72.266 72.265 72.266Z" fill="#EFF2F4"/><path d="M211.743 89.444a9.521 9.521 0 1 0 0-19.043 9.521 9.521 0 0 0 0 19.043ZM270.744 103.592a9.521 9.521 0 1 0 0-19.042 9.521 9.521 0 0 0 0 19.042ZM202.276 112.926l62.477 15.004s-12.33 22.733-36.213 16.983c-23.883-5.75-26.264-31.987-26.264-31.987Z" fill="#fff"/><path d="M313.991 153.071c-.856-9.629-8.559-25.836-27.441-25.836-16.047 0-26.504 13.586-29.179 17.518-2.674-3.932-13.025-17.518-29.152-17.518-18.882 0-26.745 16.234-27.467 25.889-.722 9.655 2.059 17.304 21.396 36.962 19.337 19.658 35.223 36.534 35.223 36.534s16.047-16.957 35.357-36.588 22.118-27.333 21.263-36.961Z" fill="#FF3640"/><path d="M99.79 238.227s-14.176-87.189 62.128-87.349c27.2 0-7.007 48.301-25.755 26.023-18.749-22.279-1.712-55.684 18.026-65.713" stroke="#231815" stroke-width="2.166" stroke-miterlimit="10"/><path d="m259.191 153.873-13.051 15.084 13.987 12.196-12.195 14.389 12.035 12.222" stroke="#fff" stroke-width="2.407" stroke-miterlimit="10"/></svg>