<svg viewBox="0 0 400 300" fill="none" xmlns="http://www.w3.org/2000/svg"><path d="M166.24 78.66a19.809 19.809 0 0 1-2.11-5.8c-.33-2-.4-4.61-1-6-.6-1.39-2.35-2.38-1.7-4.39.57-1.76 3.51-1.07 3.77-.23-1.2-1.24 1.41-4.68 5.41-3.24-1-1.52 3.15-4.24 5.75-1.81-.42-1.74 4.11-3.4 5.8-.41-.38-1.2 3.49-2.89 5.3.07a10.117 10.117 0 0 1 1.54 3.71c.63 3.07 3 6.88 3.29 12.3" stroke="#0C296E" stroke-width=".8" stroke-linecap="round" stroke-linejoin="round"/><path d="M165.17 62.28a22.352 22.352 0 0 0 1.65 3.91c1.73 2.87 7.44.67 5.82-2.78-1-2.13-2-4.41-2-4.41" stroke="#0C296E" stroke-width=".8" stroke-linecap="round" stroke-linejoin="round"/><path d="M172.93 64.51c1.57 3.69 7.81 1.33 5.85-3a20.059 20.059 0 0 0-2.42-4.32" stroke="#0C296E" stroke-width=".8" stroke-linecap="round" stroke-linejoin="round"/><path d="M179 64c.8 1.92 6.05.56 4.92-2.59l-1.81-4.64" stroke="#0C296E" stroke-width=".8" stroke-linecap="round" stroke-linejoin="round"/><path d="M184.13 62.43c.82 1.37 5.16.71 4.8-2.31l-4.8 2.31Z" fill="#fff"/><path d="M184.13 62.43c.82 1.37 5.16.71 4.8-2.31" stroke="#0C296E" stroke-width=".8" stroke-miterlimit="10"/><path d="M174.5 74a6.481 6.481 0 0 0-4.89-6.46" fill="#fff"/><path d="M174.5 74a6.481 6.481 0 0 0-4.89-6.46" stroke="#0C296E" stroke-width=".8" stroke-miterlimit="10"/><path d="M163.45 67.5c1.15 1.42 1.79 1 2.69 2.27l-2.69-2.27Z" fill="#fff"/><path d="M163.45 67.5c1.15 1.42 1.79 1 2.69 2.27" stroke="#0C296E" stroke-width=".8" stroke-miterlimit="10"/><path d="M165 78.74c.18-.07.9-.34 1.16.27 4.21 1.86 17.76.71 26.5-6.33-.29-.59.75-1.22 1-.85 1.13 4 1.55 5.56 2.06 7.61-4.6 5-17.85 9.37-29.14 7-.47-2.44-.88-4.37-1.58-7.7Z" fill="#00D6B9"/><path d="M166.89 86.27s17.64 2.93 28.41-6.41l6.62 28.61c2.29 9-3.72 19.67-12.9 21l-28.89 2.85-9.72-25.55 19.74-1.35-3.26-19.14" fill="#fff"/><path d="M166.89 86.27s17.64 2.93 28.41-6.41l6.62 28.61c2.29 9-3.72 19.67-12.9 21l-28.89 2.85-9.72-25.55 19.74-1.35-3.26-19.14" stroke="#0C296E" stroke-width=".8" stroke-miterlimit="10"/><path d="M201.65 115.59c-15 7.81-28.85-.61-31.5-10.18-.64 11.88 11.58 24.59 28.31 17.61a16.246 16.246 0 0 0 2.2-3.8c.477-1.165.809-2.384.99-3.63Z" fill="#00D6B9"/><path d="m347.22 202.01-5.52 5.1-26.34-25.26 5.53-5.09 26.33 25.25Z" fill="#E3E4E5"/><path d="M321 177.05H187.97v82.99H321v-82.99Z" fill="#E3E4E5"/><path d="M321 177.05v83H187.97" stroke="#0C296E" stroke-width=".8" stroke-miterlimit="10"/><path d="M251.86 197.36h-18.55v18.55h18.55v-18.55ZM251.86 221.17h-18.55v18.55h18.55v-18.55ZM275.29 221.17h-18.55v18.55h18.55v-18.55ZM266.43 216.09a9.46 9.46 0 0 0 9.46-9.46 9.46 9.46 0 1 0-9.46 9.46Z" fill="#fff"/><path d="m94.67 180.65 6.33-51.93A29.27 29.27 0 0 1 131.51 103l12.85 1.9a17.198 17.198 0 0 1 15.48 16.69l1.33 59.46-66.5-.4Z" fill="#fff" stroke="#0C296E" stroke-width=".8" stroke-miterlimit="10"/><path d="m119 175.84 2.83-47.35c.89-12.31 3.12-24.26 12.92-24.51l-5.54-.59c-6.16.16-11.87 8.22-13.27 24.62l-2.73 47.82" fill="#00D6B9"/><path d="M162.37 175.83H93.88v5.14h68.49v-5.14Z" fill="#00D6B9" stroke="#0C296E" stroke-width=".8" stroke-linecap="round" stroke-linejoin="round"/><path d="M140.712 103.533c11.504-.877 20.118-10.914 19.241-22.418-.877-11.504-10.914-20.118-22.417-19.241-11.504.877-20.119 10.914-19.242 22.417.877 11.504 10.914 20.119 22.418 19.242Z" fill="#fff"/><path d="M153.49 97.85c-10-3.39-14.36-12.42-14.36-12.42s-1.52-16.7 7.94-22.06c5 1.14 15.27 7.32 14.11 18.42-1.16 11.1-7.69 16.06-7.69 16.06Z" fill="#fff" stroke="#0C296E" stroke-width=".8" stroke-miterlimit="10"/><path d="M140.712 103.533c11.504-.877 20.118-10.914 19.241-22.418-.877-11.504-10.914-20.118-22.417-19.241-11.504.877-20.119 10.914-19.242 22.417.877 11.504 10.914 20.119 22.418 19.242Z" stroke="#0C296E" stroke-width=".8" stroke-miterlimit="10"/><path d="M140.08 83.13c1.08-10.23 8-17.54 10.94-19.43a34.988 34.988 0 0 0-5.19-2.32c-7.88 4.48-9.83 15.8-9.77 20.9l4.02.85Z" fill="#00D6B9"/><path d="M139.29 89.32a6.62 6.62 0 1 0-1.008-13.201 6.62 6.62 0 0 0 1.008 13.201Z" fill="#fff" stroke="#0C296E" stroke-width=".8" stroke-miterlimit="10"/><path d="M139.106 86.917a4.21 4.21 0 1 0-.639-8.395 4.21 4.21 0 0 0 .639 8.395Z" fill="#00D6B9"/><path d="M153.472 82.683a1.72 1.72 0 1 0-.262-3.43 1.72 1.72 0 0 0 .262 3.43Z" fill="#0C296E"/><path d="m52.76 99.97 14.52-19.43 11.21 22.03-25.73-2.6ZM104 236.31c0-13.42-10-7.25-22.43-7.25s-22.43-6.17-22.43 7.25 10 24.3 22.43 24.3S104 249.73 104 236.31Z" fill="#fff" stroke="#0C296E" stroke-width=".8" stroke-miterlimit="10"/><path d="M120.46 223.32H80.72v37.3h39.74v-37.3Z" fill="#fff" stroke="#0C296E" stroke-width=".8" stroke-miterlimit="10"/><path d="M120.46 222.35H59.12v10.75h61.34v-10.75Z" fill="#0C296E"/><path d="M218.83 220.35A39.879 39.879 0 0 1 179 260.23h-58.7s-.18-37.24-.18-38.4c-39.22-2.92-33.6-33.83-25.5-41.35l66.36.46 17.63.27c1 0 2 0 3 .09a40.086 40.086 0 0 1 24.31 10.06 38.627 38.627 0 0 1 12.91 28.99Z" fill="#0C296E"/><path d="M131.15 222.35h-10.69v38.27h10.69v-38.27Z" fill="#0C296E"/><path d="m113 181-.83 2.78a8.162 8.162 0 0 0 3.054 9.62 8.178 8.178 0 0 0 3.346 1.32l10.86 1.69 4.44 10.94h44.79a14.068 14.068 0 0 1 11.48 5.37c9 11.11.65 27.76-13.66 27.76h-45.33M131.14 222.35v38.26M120.46 222.35h45.1" stroke="#F7F7F7" stroke-width=".8" stroke-miterlimit="10"/><path d="M205.9 192.33a39.912 39.912 0 0 0-24.31-10.15l1.55-22.89s8.07 3.83 11.27 5c5.38 2.05 12.35 7.86 11.49 28.04Z" fill="#fff" stroke="#0C296E" stroke-width=".8" stroke-miterlimit="10"/><path d="m125 125.25 2.5 34.69a20.557 20.557 0 0 0 16.63 18.5l37.35 4.23s5.88-8.35 4.56-22.58c-11.51-4-12.1-4.58-25.37-9.17l-.81-26.17" fill="#fff"/><path d="m125 125.25 2.5 34.69a20.557 20.557 0 0 0 16.63 18.5l37.35 4.23s5.88-8.35 4.56-22.58c-11.51-4-12.1-4.58-25.37-9.17l-.81-26.17" stroke="#0C296E" stroke-width=".8" stroke-miterlimit="10"/><path d="M132 170.28c25.66 4.94 28.45-15.37 28.23-19.07 3.12 12-5 26.79-22.8 24.13 0 0-3.73-2.29-5.43-5.06ZM180.88 157.12c-.06.17-.26.83.3 1 1.94 3.88 2.28 16.59-3.5 25.19 3 .34 4.57.44 6.51.73 3.44-3.75 6.79-15.32 3.29-24.4-2.61-.97-4.27-1.84-6.6-2.52Z" fill="#00D6B9"/><path d="M181.17 158.16c1.21 3.59 2.86 14.81-2.56 23.94" stroke="#0C296E" stroke-width=".8" stroke-linecap="round" stroke-linejoin="round"/><path d="M352.64 236.57a8.3 8.3 0 1 0 0-16.6 8.3 8.3 0 0 0 0 16.6Z" fill="#FFC60A"/><path d="M281.02 63.37h-42.97v50.79h42.97V63.37Z" fill="#00D6B9"/><path d="M259.68 37.79c-8.83 0-20.43 14.11-21.26 25.67h42.52c-.85-11.57-12.78-25.67-21.26-25.67ZM259.7 88.47c6.313 0 11.43-5.117 11.43-11.43 0-6.312-5.117-11.43-11.43-11.43s-11.43 5.118-11.43 11.43c0 6.313 5.117 11.43 11.43 11.43Z" fill="#fff" stroke="#0C296E" stroke-width=".8" stroke-miterlimit="10"/><path d="M266.15 165.43a4.349 4.349 0 0 1 4.32-4.38l13.63-.1a11.663 11.663 0 0 0 10.726-7.279 11.65 11.65 0 0 0 .854-4.471 11.654 11.654 0 0 0-3.475-8.225 11.655 11.655 0 0 0-8.275-3.355l-13.65.1a4.352 4.352 0 0 1-4.06-5.987 4.36 4.36 0 0 1 2.338-2.37 4.336 4.336 0 0 1 1.662-.343l7.14-.05a3.567 3.567 0 0 0 2.509-1.064 3.567 3.567 0 0 0 1.021-2.526l-.12-15.38-42.63.32v5.4a3.554 3.554 0 0 0 3.59 3.53l10.92-.08a4.349 4.349 0 0 1 4.38 4.32 4.348 4.348 0 0 1-4.32 4.38l-12.18.09a8.59 8.59 0 0 0-6.063 2.561 8.605 8.605 0 0 0-1.799 9.386 8.597 8.597 0 0 0 7.982 5.253l12.18-.09a4.349 4.349 0 0 1 4.38 4.32 4.348 4.348 0 0 1-4.32 4.38l-27 .2a11.62 11.62 0 0 0-8.204 3.466 11.646 11.646 0 0 0-2.429 12.701 11.626 11.626 0 0 0 10.803 7.103l67.45-.51a3.567 3.567 0 0 0 2.509-1.064 3.567 3.567 0 0 0 1.021-2.526 3.567 3.567 0 0 0-1.064-2.509 3.566 3.566 0 0 0-2.526-1.021l-23 .17a4.35 4.35 0 0 1-4.3-4.35Z" fill="#0C296E"/><path d="M281 110.15v-33c0 4.68 4.8 8.47 6.55 9.94a17 17 0 0 1 6 13v15.25H281v-5.22" fill="#fff"/><path d="M281 110.15v-33c0 4.68 4.8 8.47 6.55 9.94a17 17 0 0 1 6 13v15.25H281v-5.22" stroke="#0C296E" stroke-width=".8" stroke-miterlimit="10"/><path d="M238.37 110.15v-33c0 4.68-4.8 8.47-6.55 9.94a16.988 16.988 0 0 0-4.435 5.838 16.983 16.983 0 0 0-1.565 7.162v15.25h12.6v-5.22" fill="#fff"/><path d="M238.37 110.15v-33c0 4.68-4.8 8.47-6.55 9.94a16.988 16.988 0 0 0-4.435 5.838 16.983 16.983 0 0 0-1.565 7.162v15.25h12.6v-5.22" stroke="#0C296E" stroke-width=".8" stroke-miterlimit="10"/><path d="M262.14 93.35h-4.92v22.02h4.92V93.35Z" fill="#fff" stroke="#0C296E" stroke-width=".8" stroke-miterlimit="10"/><path d="m268.01 77.76-8.21-8.44-8.45 8.44h4.38v5.48h7.9v-5.48h4.38Z" fill="#FFC60A"/><path d="m313.67 152.27 11.1-4.31 3.97 10.29 9.99-4.19 3.26 9.69" stroke="#FFC60A" stroke-width="5" stroke-miterlimit="10"/><path d="M221.2 136.94a39.735 39.735 0 0 0-15.82 14.49l-6.54-7.14a39.735 39.735 0 0 1 15.82-14.49l6.54 7.14Z" fill="#FFC60A"/><path d="M41 181.78s0 11.7 30.21 11.13c.1-1.26-.17-9.61-.18-13.55-9-.11-22.44-1.28-26.69-11.08-1-2.2-2.77-5.81-2.77-5.81L41 181.78Z" fill="#3370FF"/><path d="M83.85 140.36c-15.29.24-27.4 4.26-34.52 8.42-5.18 3-8.51 8.89-8.72 13.36L41 182c0-12.52 6.08-19.31 43.06-24.81-.06-7.99-.06-9.11-.21-16.83Z" fill="#00D6B9"/><path d="M357 118.16s.6 8.75-13.22 9.88c-.34-4.47.16-26.29.16-26.29l9.32 1.47 3.74 14.94Z" fill="#3370FF"/><path d="M319.91 79.84c17.39.39 26.62 3.74 31.82 8.47a15.87 15.87 0 0 1 5.07 11.47c.12 6.36-.07 12.72.23 19.08-2.55-11.8-13-18.75-37.56-19.5.18-7.36.34-12.08.44-19.52Z" fill="#fff" stroke="#0C296E" stroke-width=".8" stroke-miterlimit="10"/><path d="M325.87 86.7s17.79-.33 25.49 9.38l-25.49-9.38Z" fill="#fff"/><path d="M325.87 86.7s17.79-.33 25.49 9.38" stroke="#0C296E" stroke-width=".8" stroke-linecap="round" stroke-linejoin="round"/><path d="M325.87 93.32S336.16 93 343 97.68l-17.13-4.36Z" fill="#fff"/><path d="M325.87 93.32S336.16 93 343 97.68" stroke="#0C296E" stroke-width=".8" stroke-linecap="round" stroke-linejoin="round"/></svg>