<svg viewBox="0 0 400 300" fill="none" xmlns="http://www.w3.org/2000/svg"><path d="M129.44 193.71H50.15v69.49h79.29v-69.49Z" fill="#fff" stroke="#0C296E" stroke-width=".8" stroke-linecap="round" stroke-linejoin="round"/><path d="M50.71 262.71s11-19 26.85-18.19c18.25.91 21.58-3.26 27-10.59 5.42-7.33 17.81-23.67 39.77-11.23v40l-93.62.01ZM285 124.86l-4.27.89-1 .2-52.19 10.8-.51.11-3.87.81h-.23v75.09H285v-87.9Z" fill="#00D6B9"/><path d="M280.86 128.24c.2 4-17.32 14.81-34.08 14.81-16.76 0-22.69-2.93-22.69-10.08 0-21.09 15.08-31.22 31.84-31.22a28.307 28.307 0 0 1 26.91 18c1.25 3.07-2.15 5.02-1.98 8.49Z" fill="#fff" stroke="#0C296E" stroke-width=".8" stroke-miterlimit="10"/><path d="m174.56 184-11.76 39.95-3.66 12.43h-52.45l4.14-12.43 9-26.93L82 194.18c-41.75-8-18.69-54.26-18.69-54.26l63.82 8.74 28.87 5.23a23.774 23.774 0 0 1 19.317 20.241 23.77 23.77 0 0 1-.757 9.869Z" fill="#0C296E"/><path d="m119.81 197.02 3.24-10.83" stroke="#fff" stroke-width=".8" stroke-miterlimit="10"/><path d="M182 253.79v.68h-78.43l5.43-18.09h55.6a17.41 17.41 0 0 1 17.4 17.41Z" fill="#fff" stroke="#0C296E" stroke-width=".8" stroke-miterlimit="10"/><path d="M182.01 254.47h-78.44v9.31h78.44v-9.31Z" fill="#0C296E"/><path d="m87.77 143.69-1.47 3.93a9.166 9.166 0 0 0 .667 7.84 9.15 9.15 0 0 0 6.503 4.43l12.18 1.89L109 174l30.68 3.05a11.015 11.015 0 0 1 8.239 4.634A11.012 11.012 0 0 1 149.52 191l-9.11 32.91" stroke="#F7F7F7" stroke-width=".8" stroke-miterlimit="10"/><path d="M285 124.86c-.34 6.68-11.72 15.87-27.29 19.56-16.83 4-32.84.46-34.54-6.71a7.767 7.767 0 0 1-.23-1.84c.043-.811.13-1.619.26-2.42.14-1.19 1-1 1-1 .04.176.09.35.15.52a7.734 7.734 0 0 0 3.17 3.79c5.46 3.72 16.72 4.93 28.83 2.05 10.66-2.52 19.25-7.75 23.36-12.85 2.09-2.58 3-5.12 2.52-7.27a.352.352 0 0 1 .12-.1 1.002 1.002 0 0 1 1.44.52c.4 1.51.65 2.47 1.05 4.19.131.509.185 1.035.16 1.56Z" fill="#00D6B9"/><path d="M285 124.86c-.34 6.68-11.72 15.87-27.29 19.56-16.83 4-32.84.46-34.54-6.71a7.76 7.76 0 0 1-.23-1.84" stroke="#0C296E" stroke-width=".8" stroke-linecap="round" stroke-linejoin="round"/><path d="M241.2 116.95h-.2a2.58 2.58 0 0 0-2.58 2.58v5.45a2.58 2.58 0 0 0 2.58 2.58h.2a2.58 2.58 0 0 0 2.58-2.58v-5.45a2.58 2.58 0 0 0-2.58-2.58Z" fill="#0C296E"/><path d="M315.6 188.68H192.14v74.71H315.6v-74.71Z" fill="#E3E4E5"/><path d="m192.14 188.68-12.41 25.5h82.02l8.29-25.5h-77.9ZM270.04 188.68l8.86 26.64h45.73l-9.03-26.64h-45.56Z" fill="#F0F1F2"/><path d="M179.73 214.18h82.02l8.29-25.5" stroke="#0C296E" stroke-width=".8" stroke-miterlimit="10"/><path d="M324.63 215.32H278.9l-8.86-26.64V263" stroke="#0C296E" stroke-width=".8" stroke-linecap="round" stroke-linejoin="round"/><path d="M253.05 182.7c9.157 0 16.58-7.423 16.58-16.58 0-9.157-7.423-16.58-16.58-16.58-9.157 0-16.58 7.423-16.58 16.58 0 9.157 7.423 16.58 16.58 16.58Z" fill="#fff" stroke="#0C296E" stroke-width=".8" stroke-miterlimit="10"/><path d="M264.19 167.57c0 7.82-6 12-13.57 14.16-11.45 3.25-14.16 1.35-14.16-14.16a14.16 14.16 0 0 1 14.16-14.16c7.83 0 13.57 6.34 13.57 14.16Z" fill="#00D6B9" stroke="#0C296E" stroke-width=".8" stroke-miterlimit="10"/><path d="M247.82 169.85c-.15 10.29-4.15 13.3-5.78 14.59l-.12.1c-1.54 1.25-5.26 1.19-9.88 3.64a27.345 27.345 0 0 1-9.1 2.79c-4.05.35-7.94-.87-8.3-6.59-.76-11.74 8.14-12.33 8.14-12.33a4.991 4.991 0 0 1-3.83-3.8c-.06-.27-.1-.53-.13-.78-.61-4.45 2.13-5.91 4-6.07h.16a7.397 7.397 0 0 0 3.68-1.32 8.22 8.22 0 0 1 6-1.22c1.74.29 1.64-1.05 4.74-1.65a6.018 6.018 0 0 1 2.45 0 4.23 4.23 0 0 1 2.12 1.11s6.03.99 5.85 11.53Z" fill="#fff" stroke="#0C296E" stroke-width=".8" stroke-miterlimit="10"/><path d="M233.58 158.82s2.78 1 2.88 5.33c.1 4.33-2.08 5.46-3.68 6.2-2.44 1.13-7.23 2.52-10.19 1.71" stroke="#0C296E" stroke-width=".8" stroke-linejoin="round"/><path d="M218.81 164.3a18.583 18.583 0 0 1-8.12-7.86c-1.74-3.78-2.26-10.4.81-15.23a9.005 9.005 0 0 1 5.94-4.3c1.77-2.51 5.49-2.54 5.49-1.07" stroke="#0C296E" stroke-width=".8" stroke-miterlimit="10"/><path d="M217.45 136.9a5.248 5.248 0 0 0-.94 3.15 6.567 6.567 0 0 0 2.43 5.2s-3 4 .11 10.37" stroke="#0C296E" stroke-width=".8" stroke-linejoin="round"/><path d="M218.88 164.33h-.07" stroke="#040000" stroke-width=".8" stroke-linejoin="round"/><path d="M138.05 99.68 130.36 143l-53.89-7.75-11.11-1.6 13-39a26.83 26.83 0 0 1 29.71-18c.64.11 1.29.23 1.94.39l.49.12 17 5.28a15.284 15.284 0 0 1 10.55 17.24Z" fill="#fff" stroke="#0C296E" stroke-width=".8" stroke-miterlimit="10"/><path d="M83.81 136.32 96.36 97c3.42-10.1 9.86-21 20.4-19.44l-7.25-1C102.89 75.51 95 81.75 90 96.32l-12.4 39.11 6.21.89Z" fill="#00D6B9"/><path d="m100.59 117.87 15.56 10.15.43.21" stroke="#0C296E" stroke-width=".8" stroke-miterlimit="10"/><path d="M242.04 181.25h-.12" stroke="#040000" stroke-width=".8" stroke-linejoin="round"/><path d="M105.64 80.47s13.35-9.33 33.91-2.9" stroke="#040000" stroke-width=".8" stroke-miterlimit="10"/><path d="m164.75 223.95-3.34 12.43h-55.76l3.32-12.43h55.78Z" fill="#0C296E"/><path d="M128.21 81c9.809 0 17.76-7.951 17.76-17.76 0-9.808-7.951-17.76-17.76-17.76-9.808 0-17.76 7.952-17.76 17.76 0 9.809 7.952 17.76 17.76 17.76Z" stroke="#0C296E" stroke-width=".8" stroke-miterlimit="10"/><path d="M129 63.67c1.58-8.61 7.93-14.36 10.53-15.76a29.726 29.726 0 0 0-4.25-2.3c-7 3.28-9.36 12.76-9.64 17.09l3.36.97Z" fill="#00D6B9"/><path d="M127.92 68.87a5.63 5.63 0 1 0 0-11.26 5.63 5.63 0 0 0 0 11.26Z" fill="#fff" stroke="#0C296E" stroke-width=".8" stroke-miterlimit="10"/><path d="M127.92 66.82a3.58 3.58 0 1 0 0-7.16 3.58 3.58 0 0 0 0 7.16Z" fill="#00D6B9"/><path d="M140.37 64.15a1.46 1.46 0 1 0 0-2.92 1.46 1.46 0 0 0 0 2.92Z" fill="#0C296E"/><path d="M129.84 68.52s3.21 6.4 9.56 8.5" stroke="#0C296E" stroke-width=".8" stroke-miterlimit="10"/><path d="M107.51 72.61a35.925 35.925 0 0 1-2.73-6.44 20.583 20.583 0 0 1-.31-9.91 9.2 9.2 0 0 0-.07-4.9c-.84-3.55 3.51-3.5 4.49-.69a43.708 43.708 0 0 0 1-6.27c.22-5.06 6.16-5 6.66-2.33.26-3.11 6.34-4.62 7.32 1.39 0 0 .16-2.74 2.75-2.58a3.89 3.89 0 0 1 3.73 3.8c.31-1.1 3.53-1.37 4.55 2 .433 1.824.714 3.68.84 5.55a37.654 37.654 0 0 1-1 18" fill="#fff"/><path d="M107.51 72.61a35.925 35.925 0 0 1-2.73-6.44 20.583 20.583 0 0 1-.31-9.91 9.2 9.2 0 0 0-.07-4.9c-.84-3.55 3.51-3.5 4.49-.69a43.708 43.708 0 0 0 1-6.27c.22-5.06 6.16-5 6.66-2.33.26-3.11 6.34-4.62 7.32 1.39 0 0 .16-2.74 2.75-2.58a3.89 3.89 0 0 1 3.73 3.8c.31-1.1 3.53-1.37 4.55 2 .433 1.824.714 3.68.84 5.55a37.654 37.654 0 0 1-1 18" stroke="#0C296E" stroke-width=".8" stroke-miterlimit="10"/><path d="M108.89 50.68s-.73 3.51-1.19 5.42c-.46 1.91-.89 6 .54 7.66" fill="#fff"/><path d="M108.89 50.68s-.73 3.51-1.19 5.42c-.46 1.91-.89 6 .54 7.66" stroke="#0C296E" stroke-width=".8" stroke-miterlimit="10"/><path d="M116.57 42.08c.64 2.85.37 7-.16 11.07l.16-11.07Z" fill="#fff"/><path d="M116.57 42.08c.64 2.85.37 7-.16 11.07" stroke="#0C296E" stroke-width=".8" stroke-miterlimit="10"/><path d="M123.9 43.19a34.266 34.266 0 0 1-.29 8.87l.29-8.87Z" fill="#fff"/><path d="M123.9 43.19a34.266 34.266 0 0 1-.29 8.87" stroke="#0C296E" stroke-width=".8" stroke-miterlimit="10"/><path d="M130.38 44.69c.373 2.652.403 5.341.09 8l-.09-8Z" fill="#fff"/><path d="M130.38 44.69c.373 2.652.403 5.341.09 8" stroke="#0C296E" stroke-width=".8" stroke-miterlimit="10"/><path d="M128 131.16a16.875 16.875 0 0 1-12.385-3.691 16.894 16.894 0 0 1-6.145-11.369l-.51-5a16.881 16.881 0 0 0 18.52 15.05 16.872 16.872 0 0 0 15.06-18.38l.5 4.81a16.885 16.885 0 0 1-8.738 16.628A16.88 16.88 0 0 1 128 131.16Z" fill="#00D6B9"/><path d="M142.77 108.62v-.14l-3.9-37.24a37.38 37.38 0 0 0-33.6 2.56c.18 1.93 3.92 38.15 3.92 38.15A16.882 16.882 0 0 0 127.75 127a16.869 16.869 0 0 0 15.02-18.38Z" fill="#fff"/><path d="M105.75 81.95s14.05-8.55 33.83-2.89c-.43-4.71-.69-7.66-.69-7.66A38.402 38.402 0 0 0 105 74.13c.17 1.93.75 7.82.75 7.82Z" fill="#00D6B9"/><path d="M142.77 108.62v-.14l-3.9-37.24a37.38 37.38 0 0 0-33.6 2.56c.18 1.93 3.92 38.15 3.92 38.15A16.882 16.882 0 0 0 127.75 127a16.869 16.869 0 0 0 15.02-18.38Z" stroke="#0C296E" stroke-width=".8" stroke-miterlimit="10"/><path d="M318.09 134.74a20.857 20.857 0 0 1-1.018-26.178 20.86 20.86 0 1 1 16.708 33.318h-21.84l6.15-7.14Z" fill="#E3E4E5"/><path d="M327.42 117.84c.09-4.06 2.51-6.43 6.48-6.43 3.74 0 6.13 1.78 6.13 5 0 4.5-4.53 4.94-4.53 8.56h-3.39c0-4.59 3.77-4.76 3.77-7.83 0-1.4-.91-2-2.4-2-1.49 0-2.51.91-2.6 2.75l-3.46-.05Zm8.62 12a2.25 2.25 0 1 1-4.499 0 2.25 2.25 0 0 1 4.499 0Z" fill="#fff"/><path d="m130.5 143.05-.14-.02" stroke="#0C296E" stroke-width=".8" stroke-miterlimit="10"/><path d="m130.36 143.03-1.06 5.93-66.02-9.05 2.08-6.24 11.11 1.6 53.89 7.76Z" fill="#00D6B9" stroke="#0C296E" stroke-width=".8" stroke-linecap="round" stroke-linejoin="round"/><path d="m280.01 100.11 13.94-16.31M286.75 106.62l12.78-5.98M272.17 95.07l5-14.56" stroke="#00D6B9" stroke-width="2" stroke-miterlimit="10"/><path d="M173.79 131.22a8.17 8.17 0 1 0 0-16.34 8.17 8.17 0 0 0 0 16.34Z" fill="#00D6B9"/><path d="m332.19 179.9 18.53-5.54-3.39 20.3-15.14-14.76Z" fill="#fff" stroke="#0C296E" stroke-width=".8" stroke-linecap="round" stroke-linejoin="round"/><path d="m161.41 236.38-5.21 18.09M142.54 107.82v-.14" stroke="#0C296E" stroke-width=".8" stroke-miterlimit="10"/><path d="M110.83 223.95h51.97" stroke="#F7F7F7" stroke-width=".8" stroke-miterlimit="10"/><path d="M241 73.87A15.863 15.863 0 0 0 225.15 58h-.51a15.844 15.844 0 0 0-15.35-11.93A15.84 15.84 0 0 0 193.94 58h-.51a15.864 15.864 0 0 0-11.218 27.083 15.863 15.863 0 0 0 11.218 4.647h32.93v-.06A15.849 15.849 0 0 0 241 73.87Z" fill="#FFC60A"/><path d="m218.21 76-8.82-9.02-9.02 9.02h5.48v15.61h6.88V76h5.48Z" fill="#fff"/><path d="M343.08 222s-20.7.53-31.77 2.56c-10.23 1.87-19 3.34-27.56 19.56-4.29 8.11-15.45 15.23-69.77 19.32 14.47.12 43.47.07 59.43 0 3.61 0 6.23-.42 10.08-9.93 6.56-16.2 15.29-18.19 59.41-19.64.18-5.21.18-11.87.18-11.87Z" fill="#3370FF"/></svg>