<svg viewBox="0 0 400 300" fill="none" xmlns="http://www.w3.org/2000/svg"><path d="M207.059 88.156c20.111 0 36.031 5.848 47.763 17.545 11.898 11.529 17.848 27.403 17.848 47.621 0 19.717-6.285 35.09-18.854 46.118-12.569 11.028-28.741 16.542-48.516 16.542-19.441 0-34.942-5.598-46.506-16.793-11.396-11.195-17.094-26.902-17.094-47.12 0-19.884 6.033-35.507 18.1-46.87 12.066-11.362 27.819-17.043 47.259-17.043Z" fill="#CCC"/><mask id="a" style="mask-type:alpha" maskUnits="userSpaceOnUse" x="141" y="88" width="132" height="128"><path d="M207.058 88.156c20.111 0 36.031 5.848 47.763 17.545 11.898 11.529 17.848 27.403 17.848 47.621 0 19.717-6.285 35.09-18.854 46.118-12.569 11.028-28.741 16.542-48.516 16.542-19.441 0-34.942-5.598-46.506-16.793-11.396-11.195-17.094-26.902-17.094-47.12 0-19.884 6.033-35.507 18.1-46.87 12.066-11.362 27.819-17.043 47.259-17.043Z" fill="#A8FFFC"/></mask><g mask="url(#a)"><g opacity=".3" fill="#fff" clip-path="url(#b)"><path d="M155.32 112.676h19.422l-1.784 5.556-5.038-.002.01 19.379-.002 1.161h-6.286v-20.538h-5.581l-.737.011-.004-5.567ZM207.081 112.677H226.952l-1.783 5.556-5.488-.002.012 19.377-.002 1.174h-6.289v-20.551h-5.58l-.737.011-.004-5.565ZM175.927 121.547v-.568h6.226l.002.568.01 15.587-.02 1.636h-6.181v-.888l-.037-16.335ZM185.148 113.835v-1.231h6.157v1.068l.006 11.086 6.22-6.05 7.425.002-7.797 7.566 8.733 12.495h-6.852l-5.829-8.665-1.848 1.793.004 6.884-6.195-.012v-.558l-.024-24.378ZM249.048 113.835v-1.231h6.156v1.068l.006 11.086 6.221-6.05 7.424.002-7.796 7.566 8.732 12.495h-6.852l-5.829-8.665-1.845 1.793.001 6.884-6.195-.012v-.558l-.023-24.378ZM245.527 123.923a10.73 10.73 0 0 0-2.274-3.369 10.503 10.503 0 0 0-3.865-2.443 7.423 7.423 0 0 0-.225-.077c-.056-.019-.114-.039-.173-.056-.06-.02-.118-.037-.178-.055l-.205-.06-.078-.019c-.3-.08-.603-.145-.911-.198l-.031-.006-.326-.05a10.657 10.657 0 0 0-1.252-.101c-.091-.002-.182-.006-.273-.006-.086 0-.171.002-.254.004a11.072 11.072 0 0 0-1.807.188l-.201.039c-.061.014-.123.025-.183.039a10.792 10.792 0 0 0-2.971 1.155 10.239 10.239 0 0 0-2.148 1.644 10.55 10.55 0 0 0-1.654 2.138 10.703 10.703 0 0 0-1.45 5.418c0 .993.128 1.946.384 2.859.254.913.613 1.762 1.072 2.551a10.527 10.527 0 0 0 3.805 3.798 10.566 10.566 0 0 0 3.455 1.258c.06.012.12.021.18.031.103.015.205.031.308.045l.157.021a10.8 10.8 0 0 0 1.119.074c.068.001.133.003.201.003l.198-.003a10.829 10.829 0 0 0 1.582-.142c.068-.012.136-.023.203-.037.088-.015.175-.033.262-.05l.163-.035a10.594 10.594 0 0 0 2.964-1.165 10.51 10.51 0 0 0 3.801-3.798 10.73 10.73 0 0 0 1.07-2.551c.254-.913.38-1.864.38-2.859-.008-1.5-.287-2.896-.845-4.185Zm-4.823 5.577a5.122 5.122 0 0 1-2.365 3.084 5.161 5.161 0 0 1-1.233.516 5.121 5.121 0 0 1-1.176.174l.066.002c-.045.002-.088.004-.132.004l-.072-.002-.06.002a5.532 5.532 0 0 1-1.392-.18 5.118 5.118 0 0 1-3.611-3.6 5.127 5.127 0 0 1-.186-1.388 5.166 5.166 0 0 1 1.506-3.669 5 5 0 0 1 1.043-.799 5.182 5.182 0 0 1 1.24-.512c.183-.048.369-.085.557-.114a5.3 5.3 0 0 1 .833-.066l.072.002.06-.002c.05 0 .101.002.151.004l-.054.002a5.124 5.124 0 0 1 3.423 1.485 5.136 5.136 0 0 1 1.103 1.636c.272.626.407 1.304.407 2.033.004.483-.058.944-.18 1.388ZM182.176 115.808a3.13 3.13 0 1 1-6.261 0 3.131 3.131 0 0 1 6.261 0Z"/></g><path d="M167.861 218.786a11.3 11.3 0 0 0 15.64-3.44l24.061-37.695c3.354-5.271 1.859-12.297-3.427-15.701a11.3 11.3 0 0 0-15.64 3.44l-24.061 37.696c-3.354 5.27-1.823 12.297 3.427 15.7Z" fill="#A4B1FB"/><path d="M181.201 177.114c-1.648-5.952-9.721 1.571-11.525 4.715-8.208 20.081 11.138 35.548 12.361 35.548 0 0 22.003-27.765 22.003-28.813 0-1.048-20.781-4.017-22.839-11.45Z" fill="#8092F9"/><path d="M175.26 220.505c6.198-.805 10.573-6.515 9.771-12.736l-5.724-44.393c-.802-6.222-6.489-10.613-12.687-9.808-6.198.805-10.572 6.514-9.77 12.736l5.723 44.393c.802 6.221 6.49 10.613 12.687 9.808Z" fill="#FE7893"/><path d="M171.541 161.035c1.713.073 3.172-1.281 3.244-3.001l.547-13.688a3.137 3.137 0 0 0-2.989-3.257c-1.714-.073-3.172 1.281-3.245 3.001l-.547 13.688c-.109 1.72 1.24 3.184 2.99 3.257ZM176.427 170.331a3.153 3.153 0 0 0 3.682-2.489l2.552-13.431c.328-1.72-.802-3.367-2.479-3.697a3.152 3.152 0 0 0-3.682 2.489l-2.552 13.431c-.328 1.721.765 3.367 2.479 3.697Z" fill="#FE7893"/><path d="M166.29 161.473c1.714-.256 2.88-1.866 2.625-3.586l-2.005-13.541a3.135 3.135 0 0 0-3.572-2.636c-1.714.257-2.88 1.867-2.625 3.587l2.005 13.541a3.133 3.133 0 0 0 3.572 2.635ZM160.568 169.415c1.713-.292 2.88-1.903 2.588-3.623l-2.187-13.505c-.292-1.72-1.896-2.891-3.609-2.598-1.714.293-2.88 1.903-2.589 3.623l2.188 13.505c.255 1.683 1.895 2.855 3.609 2.598Z" fill="#FE7893"/><path d="m171.396 163.597.838-.183c-.365-1.647-.182-3.001.547-4.026 1.13-1.61 3.244-1.903 3.281-1.903l-.11-.842c-.109 0-2.515.329-3.864 2.269-.875 1.208-1.093 2.782-.692 4.685ZM161.481 157.482c2.989-4.099 8.713-2.159 8.749-2.159l.292-.806c-.073-.036-6.38-2.159-9.734 2.453l.693.512Z" fill="#000"/><path d="M260.276 222.957c-5.505 2.964-12.359.841-15.312-4.685l-20.963-39.489c-2.953-5.526-.838-12.406 4.667-15.371 5.505-2.964 12.359-.841 15.312 4.685l20.962 39.489c2.953 5.526.875 12.406-4.666 15.371Z" fill="#212BF3"/><path d="M186.854 214.356c12.249 3.843 45.862 5.746 55.669 2.233.401-6.661 1.312-30.523 1.822-44.174.183-5.38-3.9-9.918-9.26-10.247-14.035-.842-36.456-2.379-36.456-2.379-5.286-.219-9.734 3.916-9.953 9.186 0 .037-1.349 33.963-1.822 45.381Z" fill="#A4B1FB"/><path d="M207.007 166.213c-7.779-8.731 16.415-5.414 16.415-5.414l18.161 15.819-.519 1.57c-29.167 2.693-26.278-3.244-34.057-11.975Z" fill="#8092F9"/><path d="M214.534 166.59c2.662.087 4.905-2.018 4.991-4.727l1.216-15.413-9.701-.319-1.216 15.412c-.086 2.746 2.048 4.997 4.71 5.047Z" fill="#FE7893"/><path d="M209.176 157.784c-1.53 3.581-1.628 5.587-.811 6.996 1.428 2.46 3.892 2.909 5.54 2.984 2.156.098 3.174-.754 5.599-3.478.475-.535.972-1.203 1.022-1.978.025-.407-.078-.777-.182-1.133-.491-1.701-.577-3.927-.492-5.617.113-2.249.593-4.232.661-6.236.035-1.059.053-2.142-.196-3.099-.908-3.474-6.846-5.527-8.971-1.57-.393.731-.493 1.616-.582 2.457l-.284 2.716c-.277 2.674.044 6.115-1.304 7.958Z" fill="#FE7893"/><path d="M247.649 139.706c1.47-3.742-.393-7.981-4.159-9.468-3.767-1.486-8.011.341-9.481 4.083-1.469 3.742.393 7.981 4.16 9.467 3.766 1.487 8.011-.341 9.48-4.082Z" fill="#882744"/><path d="M234.532 141.349c1.214-.183 1.957-1.952 1.66-3.95-.297-1.999-1.523-3.471-2.737-3.289-1.215.183-1.958 1.952-1.661 3.951.298 1.998 1.523 3.471 2.738 3.288Z" fill="#F8A82E"/><path d="M211.638 126.405c1.198-3.838-.963-7.931-4.827-9.143-3.863-1.212-7.966.917-9.164 4.754-1.198 3.838.963 7.931 4.826 9.143 3.864 1.212 7.967-.917 9.165-4.754Z" fill="#882744"/><path d="M210.954 130.772c1.483-1.369 2.01-3.214 1.179-4.121-.832-.907-2.708-.532-4.19.837-1.483 1.369-2.01 3.214-1.178 4.121.831.907 2.707.532 4.189-.837Z" fill="#F8A82E"/><path d="M232.491 144.458c2.498-7.173-1.165-14.979-8.181-17.434-7.016-2.456-14.729 1.368-17.227 8.541-2.498 7.174 1.164 14.979 8.181 17.435 7.016 2.455 14.729-1.369 17.227-8.542Z" fill="#FE7893"/><path d="M216.104 151.134c-1.199-.343-2.054-1.031-2.529-2.033-1.104-2.248.107-5.323.168-5.461a.754.754 0 0 1 .988-.406.752.752 0 0 1 .413.984c-.012.042-1.029 2.594-.198 4.231.294.617.829 1.014 1.594 1.233.765.219 1.387.152 1.935-.202 1.193-.814 1.665-2.944 1.746-3.698a.732.732 0 0 1 .813-.656.77.77 0 0 1 .683.817c-.014.129-.371 3.426-2.389 4.781-.957.614-2.025.753-3.224.41Z" fill="#010101"/><path d="M232.014 147.216a3.173 3.173 0 0 0 3.967-2.106 3.182 3.182 0 0 0-2.097-3.978 3.173 3.173 0 0 0-3.967 2.105 3.185 3.185 0 0 0 2.097 3.979ZM205.515 137.619a3.173 3.173 0 0 0 3.967-2.106 3.182 3.182 0 0 0-2.097-3.978 3.174 3.174 0 0 0-3.967 2.106 3.184 3.184 0 0 0 2.097 3.978Z" fill="#FE7893"/><path d="M232.555 142.686c2.179-1.229 1.967-5.766-.474-10.134-2.44-4.369-6.186-6.915-8.365-5.687-2.179 1.229-1.967 5.766.474 10.134 2.44 4.369 6.186 6.915 8.365 5.687Z" fill="#882744"/><path d="M217.859 134.747c4.638-1.868 7.646-5.267 6.719-7.591-.926-2.325-5.437-2.696-10.075-.828-4.638 1.867-7.646 5.266-6.72 7.591.927 2.325 5.438 2.695 10.076.828Z" fill="#882744"/><path d="M215.515 153.777c1.327.405 2.858.596 4.608.503l-.055-.843c-5.49.334-8.92-2.965-8.947-3.009l-.6.604c.124.107 1.914 1.831 4.994 2.745Z" fill="#000"/><path d="m242.912 182.29-.453 26.052.875.016.453-26.053-.875-.015Z" fill="#413C3A"/><path d="m192.202 173.523-5.18 36.558.867.124 5.179-36.558-.866-.124ZM227.253 181.176l1.16 8.21.87-.091-1.16-8.21-.87.091Z" fill="#000"/><path d="M258.647 223.719c-5.927 1.996-12.349-1.201-14.34-7.166l-19.668-52.087s12.171-7.448 18.132-9.429c-1.22 2.619-.556 4.223.523 6.46l22.494 47.892a11.276 11.276 0 0 1-7.141 14.33Z" fill="#FE7893"/><path d="m225.743 166.563-.095-.15c-2.048-3.242-3.57-5.651-3.398-8.232.175-2.621 1.264-3.983 2.445-4.891 0 0 3.534-1.265.482-3.369-1.279-.883-1.246-3.038-.363-4.318a3.47 3.47 0 0 1 4.823-.887l.295.204c-.645-1.171-.655-2.631.092-3.714a3.47 3.47 0 0 1 4.823-.886 8.964 8.964 0 0 1 1.508 1.319c-.782-1.121-.759-1.985.046-3.153a3.47 3.47 0 0 1 4.823-.886c.689.475 1.175 1.245 1.395 1.978l.099.068s3.951 6.065 1.128 12.688c-2.725 6.691-5.815 12.311-15.484 21.912l-2.619-7.683Z" fill="#FE7893"/><path d="M225.176 149.923c-1.279-.882-1.246-3.038-.363-4.318a3.471 3.471 0 0 1 4.823-.887l.394.272m-.099-.068c-.645-1.171-.655-2.63.092-3.713a3.47 3.47 0 0 1 4.823-.887" stroke="#000" stroke-width=".699"/><path d="M227.196 144.049c.068-.099.136-.197.235-.13.098.068 2.352.168 4.146 1.987 1.303 1.479 1.933 3.512 1.823 6.197-.365 4.108-1.625 6.146-1.625 6.146-.068.099-.302.228-.401.16-.098-.068-.227-.302-.159-.4 0 0 1.162-2.106 1.489-5.949.141-2.519-.459-4.386-1.663-5.797-1.598-1.683-3.685-1.814-3.685-1.814-.167.031-.295-.203-.326-.37.197.136.099.068.166-.03ZM234.724 140.087c.068-.098.234-.129.4-.16 0 0 4.866 2.627 3.786 9.876-.824 5.826-1.534 6.644-1.768 6.773-.166.031-.333.062-.363-.105-.03-.166-.061-.332.105-.363 0 0 .642-.72 1.429-6.281 1.072-6.817-3.233-9.204-3.498-9.241-.197-.136-.227-.302-.091-.499-.068.099 0 0 0 0Z" fill="#000"/></g><path fill-rule="evenodd" clip-rule="evenodd" d="M113.934 90.95H63.991c1.863 12.864-4.854 42.783-46.625 59.547v42.783H74.12v20.781h66.008V193.28h13.446v-45.402h-13.271v-38.942H122.51c-1.444 6.472-4.248 13.303-9.02 19.514-5.3 6.898-12.872 12.829-23.305 16.665v4.967H61.197v-8.731c24.525 0 38.2-8.318 45.647-18.008 3.553-4.625 5.798-9.704 7.09-14.608V90.95Z" fill="#E5E5E5"/><mask id="c" style="mask-type:alpha" maskUnits="userSpaceOnUse" x="17" y="90" width="137" height="125"><path fill-rule="evenodd" clip-rule="evenodd" d="M113.934 90.95H63.991c1.863 12.864-4.854 42.783-46.625 59.547v42.783H74.12v20.781h66.008V193.28h13.446v-45.402h-13.271v-38.942H122.51c-1.444 6.472-4.248 13.303-9.02 19.514-5.3 6.898-12.872 12.829-23.305 16.665v4.967H61.197v-8.731c24.525 0 38.2-8.318 45.647-18.008 3.553-4.625 5.798-9.704 7.09-14.608V90.95Z" fill="#FEF0D5"/></mask><g mask="url(#c)"><path opacity=".8" d="M15.768 215.03c-5.005-18.444 6.916-59.678 13.954-63.334 27.652-13.481 36.764 25.73 39.445 42.517 2.68 16.788-17.763 35.254-24.019 46.445-6.255 11.192-23.124-2.574-29.38-25.628Z" fill="#CCC"/><path d="M16.623 179.813c7.68 10.564 13.333 14.822 21.32 25.169 2.177 2.822-.77-2.069-1.031-2.52-2.838-4.893-5.734-9.461-8.675-14.29-2.955-4.849-5.543-6.751-8.315-12.851-1.133-2.495-3.363-6.212-4.281-8.485-.163-.402.684.544.982.861 3.663 3.887 6.495 8.451 9.516 12.822 3.552 5.137 11.216 12.42 15.326 17.136" stroke="#fff" stroke-width=".349" stroke-linecap="round" stroke-linejoin="round"/><path opacity=".4" d="m29.9 171.309 1.038-.214 26.234-5.406-.899 8.329-7.075 1.456 5.613 27.253.333 1.633-8.828 1.82-.115-.562-5.819-28.324-7.837 1.615-1.03.229-1.615-7.829Z" fill="#fff"/><path opacity=".7" d="M61.374 110.858c0-1.157.938-2.096 2.095-2.096h88.012c1.157 0 2.095.939 2.095 2.096v81.725a.697.697 0 0 1-.698.698H62.073a.698.698 0 0 1-.699-.698v-81.725Z" fill="#B2B2B2"/><path d="M61.374 110.858c0-1.157.938-2.096 2.095-2.096h80.678c1.157 0 2.095.939 2.095 2.096v7.334H61.374v-7.334Z" fill="#fff" fill-opacity=".5"/><path d="M65.914 125.526c0-.579.47-1.048 1.048-1.048h67.405a1.048 1.048 0 1 1 0 2.095H66.962a1.048 1.048 0 0 1-1.048-1.047ZM65.914 132.161c0-.579.47-1.048 1.048-1.048h47.847a1.048 1.048 0 1 1 0 2.096H66.962a1.048 1.048 0 0 1-1.048-1.048Z" fill="#CCC"/><path d="m66.397 112.073 2.783 2.783M69.18 112.073l-2.782 2.783" stroke="#000" stroke-width=".965" stroke-linecap="round"/><rect x="72.331" y="112.148" width="2.652" height="2.652" rx=".241" stroke="#000" stroke-width=".965" stroke-linecap="round"/><path d="M78.148 113.311h2.783" stroke="#000" stroke-width=".965" stroke-linecap="round"/><path d="M161.887 113.609c.182-2.296.015-4.492-2.27-5.786-2.489-1.408-5.572-.587-8.046.425-5.782 2.366-4.519 11.51-6.078 16.553-1.415 4.58-3.273 9.396-5.185 13.843-4.348 10.104-10.67 19.248-17.325 27.947-4.558 5.961-24.919 25.092-12.581 31.993 3.271 1.83 7.553 1.827 10.82-.007 2.367-1.331 4.114-3.467 5.801-5.552 8.082-9.99 18.097-18.517 23.913-30.172 7.222-14.481 9.643-30.188 10.658-46.205.063-.988.213-2.024.293-3.039Z" fill="#7DB5FF"/><path d="M118.232 141.491c-2.397-5.789-10.086-8.381-15.878-7.548-6.564.944-11.246 5.182-15.758 9.692-3.887 3.886-9.362 8.898-15.11 9.167.17-.007 2.635 5.721 3.112 6.512 1.061 1.765 1.148 1.67 3.189.959 1.653-.578 3.216-1.386 4.873-1.956l-4.04 5.888c-.084.124-.172.253-.186.403-.022.228.133.43.281.602 3.036 3.524 7.28 6.206 12.054 6.024 1.526-.058 3.036-.344 4.563-.388 2.694-.075 5.067.699 7.461 1.852 2.433 1.172 4.219 1.303 7.018.935 8.523-1.119 4.466-8.231 7.791-14.532 1.262-2.393 1.408-7.156 1.631-9.874.201-2.5-.005-5.325-1.001-7.736Z" fill="#010101"/><path d="M123.201 198.866c.146 3.494 0 5.589 0 9.606 0 2.095-.623 6.523-.78 8.207-.289 3.041-2.986 2.391-3.286 5.428l-.02.165c-.123.878-.567 1.473-1.175 1.898-.955.67-2.31.922-3.473 1.218-.269.068-.54.134-.819.197-10.81 2.524-22.207.823-33.15-1.233-2.92-.551-7.51-1.279-8.679-4.444-.501-1.345-.419-2.831-.315-4.26.129-1.728.614-3.294 1.084-4.864.484-1.607.957-3.221 1.017-5.02.136-3.932.274-7.888 1.122-11.745.093-.415.22-.823.403-1.216.467-1.01 1.257-1.837 2.006-2.687a15.7 15.7 0 0 0 .323-.369c1.407-1.653 2.41-2.897 3.349-4.844.697-1.456 1.393-3.578 2.001-5.071.265-3.485-.258-6.279-.607-7.851 4.359-1.048 11.308-1.982 15.06-1.936 3.957.049 7.934.515 11.77 1.515 2.75.716 7.167.421 9.608 0-.698 4.787.986 10.876 1.767 14.068.538 2.202 1.299 3.984 2.014 6.495.577 2.03.844 3.566.926 4.824 0 0-.013 1.043-.146 1.919Z" fill="#5D74F8"/><path d="M76.715 208.036a3.608 3.608 0 0 0-.798-.085 4.197 4.197 0 0 0-4.191 4.191 4.201 4.201 0 0 0 2.993 4.02c.37.114.77.171 1.198.171a4.198 4.198 0 0 0 4.19-4.191 4.189 4.189 0 0 0-3.392-4.106Zm-.741 7.441h-.057a3.34 3.34 0 0 1-3.336-3.335 3.322 3.322 0 0 1 3.336-3.336c.57 0 1.111.143 1.568.399 1.055.57 1.767 1.654 1.767 2.937a3.347 3.347 0 0 1-3.278 3.335ZM86.626 194.083a4.063 4.063 0 0 0-.93-.103c-2.695 0-4.89 2.273-4.89 5.064 0 2.274 1.463 4.237 3.492 4.857a4.57 4.57 0 0 0 1.397.207c2.694 0 4.89-2.274 4.89-5.064 0-2.446-1.697-4.513-3.959-4.961Zm-.864 8.992h-.067c-2.129 0-3.891-1.792-3.891-4.031s1.73-4.031 3.891-4.031c.665 0 1.297.172 1.83.483a4.03 4.03 0 0 1 2.062 3.548c0 2.205-1.73 3.996-3.825 4.031ZM108.629 201.766a4.056 4.056 0 0 0-.931-.103c-2.694 0-4.889 2.273-4.889 5.064 0 2.273 1.463 4.237 3.492 4.857.433.138.898.207 1.397.207 2.694 0 4.89-2.274 4.89-5.064 0-2.446-1.697-4.513-3.959-4.961Zm-.864 8.991h-.067c-2.129 0-3.892-1.791-3.892-4.03 0-2.24 1.73-4.031 3.892-4.031.665 0 1.297.172 1.83.482a4.031 4.031 0 0 1 2.062 3.549c0 2.205-1.73 3.996-3.825 4.03Z" fill="#fff" fill-opacity=".1"/><path d="M86.519 171.104c-17.987 1.222-24.68 15.308-27.591 23.049 8.032.35 25.11-.244 29.162-5.413 5.064-6.461-1.571-17.113-1.571-17.636Z" fill="#5D74F8"/><path d="m73.936 197.838.906-5.076" stroke="#000" stroke-width=".699" stroke-linecap="round"/><path d="M83.549 183.129c-3.772-5.728-13.912-2.736-18.336-.35 2.678-3.55 8.879-10.57 19.907-12.049 16.939-2.272 26.543-.771 33.878.103 1.222 6.635-9.186 15.429-14.494 17.384-6.636 2.445-16.24 2.071-20.955-5.088Z" fill="#3955F6" style="mix-blend-mode:darken"/><path d="M76.084 178.706a3.894 3.894 0 0 0-.865-.093 4.548 4.548 0 0 0-4.54 4.54 4.55 4.55 0 0 0 3.243 4.355c.401.124.834.186 1.297.186a4.548 4.548 0 0 0 4.54-4.541 4.537 4.537 0 0 0-3.675-4.447Zm-.803 8.061h-.062a3.618 3.618 0 0 1-3.614-3.614 3.598 3.598 0 0 1 3.614-3.613 3.47 3.47 0 0 1 1.699.432c1.142.618 1.915 1.791 1.915 3.181a3.626 3.626 0 0 1-3.552 3.614ZM103.042 186.046c-.3-.067-.599-.1-.932-.1a4.897 4.897 0 0 0-4.89 4.889 4.899 4.899 0 0 0 3.493 4.69c.433.133.898.2 1.397.2a4.898 4.898 0 0 0 4.89-4.89 4.887 4.887 0 0 0-3.958-4.789Zm-.865 8.681h-.067a3.897 3.897 0 0 1-3.891-3.892 3.875 3.875 0 0 1 3.891-3.891c.665 0 1.297.166 1.83.465 1.23.666 2.062 1.93 2.062 3.426a3.905 3.905 0 0 1-3.825 3.892Z" fill="#fff" fill-opacity=".1"/><path d="M109.921 173.722c.885 3.841.349 5.813-1.234 6.985-2.762 2.046-6.263 1.893-8.529 1.571-2.964-.421-4.064-1.491-6.451-4.715-.468-.633-.92-1.4-.73-2.165.102-.4.367-.735.626-1.056 1.236-1.534 2.096-3.674 2.545-5.335.597-2.21.607-4.25 1.184-6.211.306-1.037.642-2.093 1.302-2.962 2.394-3.155 11.154-3.728 12.722.622.291.803.131 1.687-.029 2.524-.175.901-.347 1.803-.521 2.704-.516 2.663-2.102 5.926-.885 8.038ZM114.417 154.204c-.112 1.646 1.178 3.07 2.881 3.18 1.701.109 3.172-1.139 3.281-2.785.112-1.645-1.177-3.07-2.881-3.179-1.701-.109-3.17 1.138-3.281 2.784ZM88.905 152.282c-.111 1.646 1.178 3.071 2.882 3.18 1.7.109 3.172-1.136 3.28-2.784.112-1.646-1.177-3.07-2.88-3.18-1.7-.109-3.17 1.139-3.282 2.784Z" fill="#7DB5FF"/><path d="M97.097 163.244a7.26 7.26 0 0 0 2.518 1.403c3.349 1.075 5.585.549 8.685-1.049-2.315.27-4.694.28-6.9-.505a17.9 17.9 0 0 1-3.964-1.968 78.837 78.837 0 0 1-.34 2.119Z" fill="#1C1C1C"/><path d="M95.387 159.39c-.996-1.653-1.665-3.544-2.067-5.462-1.175-5.539 1.117-10.192 6.696-13.202 1.357-.733 2.782-1.4 4.321-1.752 5.648-1.287 10.296 1.871 11.898 6.405.875 2.471.797 4.872.233 7.236-.01 1.697-.652 4.061-1.372 5.641-1.624 3.578-5.116 6.272-9.599 6.466-4.951.216-8.159-2.097-10.11-5.332Z" fill="#7DB5FF"/><path d="M104.688 161.227c-1.246-.055-2.236-.527-2.929-1.392-1.592-1.932-1.124-5.205-1.096-5.353a.753.753 0 0 1 .867-.624c.406.06.691.437.629.862-.002.042-.403 2.762.783 4.163.428.532 1.04.794 1.835.83.794.035 1.384-.174 1.835-.645.973-1.069.941-3.252.845-4.005a.734.734 0 0 1 .639-.827.77.77 0 0 1 .854.637c.016.129.429 3.42-1.221 5.207-.789.82-1.796 1.203-3.041 1.147Z" fill="#010101"/><path d="M118.104 150.651c-.077.718-.484 1.466-.925 2.192-.342.565-.708 1.114-.953 1.628-.143.301-.361.634-.722.67-.453.044-.753-.403-.86-.796-.502-1.862.23-3.881.17-5.789-.034-1.044-.279-2.146-1.038-2.891-.782-.769-2.724-1.072-3.679-1.63-2.603-1.522-1.743-5.588-4.01-3.842-1.255.602-2.092 2.62-3.661 3.667-1.395.874-3.277.934-4.653 1.181-.657.117-1.35.078-1.973.311-1.163.432-1.764 1.675-2.052 2.85-.187.75.39 6.221-.446 6.34-.114.014-.226-.039-.323-.095-.14-.08-.27-.16-.394-.248-2.067-1.415-1.864-3.473-1.68-5.662.194-2.289.192-4.496 1.149-6.68.766-1.75 2.174-3.185 3.916-4.292 3.041-1.934 7.1-2.869 10.522-2.737 1.27.048 2.576.638 3.805 1.172a25.6 25.6 0 0 0 1.177.488c2.775 1.039 5.554 4.267 6.143 6.91.143.636.177 1.289.211 1.937.087 1.716.461 3.614.276 5.316Z" fill="#010101"/><path d="M107.73 139.213a.297.297 0 0 1-.15-.322 5.062 5.062 0 0 0-.533-3.513.28.28 0 0 1 .114-.39.297.297 0 0 1 .399.123 5.639 5.639 0 0 1 .594 3.923.285.285 0 0 1-.351.211c-.025-.01-.051-.019-.073-.032Z" fill="#231F20"/><path d="M147.321 95.259c.373-2.789.928-5.653 2.527-7.966.286-.413.691-.847 1.193-.799.727.068.952 1.007.983 1.736.139 3.252.112 6.51-.079 9.757a22.3 22.3 0 0 1 3.293-10.294c.356-.575.766-1.155 1.369-1.459.603-.303 1.452-.223 1.815.348.235.366.221.835.196 1.269a63.248 63.248 0 0 1-1.364 9.823 48.554 48.554 0 0 1 3.773-8.668c.543-.973 1.742-2.05 2.571-1.31.223.199.339.492.422.779 1.006 3.495-1.847 6.932-2.053 10.563a15.826 15.826 0 0 1 4.137-6.226c.334-.308.71-.616 1.161-.682.831-.121 1.57.665 1.718 1.493.148.828-.133 1.665-.407 2.456l-4.837 13.906c-.87 2.5-1.786 5.08-3.604 7.002-2.91 3.083-11.069 4.704-12.955-.257-1.025-2.697-.436-6.864-.47-9.702-.043-3.929.09-7.869.611-11.77Z" fill="#7DB5FF"/><path d="M147.255 103.862c.993-1.349 4.684-7.653 6.69-7.11 2.516.683-.79 5.945-1.369 7.091-1.124 2.223-1.076 12.427-4.665 12.102-4.89-.444-2.152-10.051-.656-12.083Z" fill="#7DB5FF"/><path d="M147.385 115.757c-.148 0-.298-.01-.448-.029a.33.33 0 0 1-.284-.372.33.33 0 0 1 .371-.284c1.713.226 3.228-1.184 3.911-2.592.586-1.206.814-2.587 1.035-3.922.068-.413.138-.838.218-1.255a23.926 23.926 0 0 1 2.389-6.76l.102-.189c.308-.57.596-1.11.681-1.697.08-.544-.078-1.26-.606-1.544-.848-.459-1.907.457-2.462 1.044a40.497 40.497 0 0 0-5.275 6.944.33.33 0 1 1-.565-.342 41.268 41.268 0 0 1 5.363-7.056c1.182-1.25 2.338-1.665 3.252-1.172.812.439 1.059 1.432.945 2.22-.102.704-.434 1.321-.754 1.916l-.102.187a23.305 23.305 0 0 0-2.321 6.575c-.078.408-.148.83-.216 1.238-.228 1.381-.465 2.811-1.093 4.104-.724 1.491-2.297 2.986-4.141 2.986ZM154.954 117.792h-4.617a.33.33 0 0 1 0-.66h4.617a.33.33 0 0 1 0 .66Z" fill="#231F20"/></g><path d="M160.436 106.427c2.285 1.294 4.356 4.334 4.174 6.63-.08 1.014-.23 2.051-.293 3.039-1.016 16.017-5.34 30.88-12.561 45.361l-27.887 4.232c6.655-8.7 12.911-18.337 17.258-28.441 1.912-4.447 3.771-9.263 5.186-13.843 1.558-5.043.296-14.187 6.078-16.553 2.474-1.012 5.556-1.833 8.045-.425Z" fill="#7DB5FF"/><path d="M153.58 110.996c-1.253.057-2.32-.995-2.373-2.333l-.4-10.64c-.053-1.336.933-2.474 2.187-2.531 1.253-.057 2.32.996 2.373 2.333l.4 10.639c.08 1.337-.907 2.475-2.187 2.532ZM149.751 117.975c-1.305.254-2.553-.621-2.803-1.919l-1.942-10.358c-.25-1.327.61-2.597 1.886-2.851 1.305-.254 2.553.621 2.803 1.919l1.942 10.359c.25 1.326-.582 2.596-1.886 2.85Z" fill="#7DB5FF"/><path d="M157.549 111.264a2.416 2.416 0 0 1-2.04-2.751l1.558-10.39c.198-1.319 1.445-2.217 2.776-2.02a2.416 2.416 0 0 1 2.039 2.75l-1.558 10.39c-.198 1.319-1.444 2.218-2.775 2.021ZM161.584 117.295a2.413 2.413 0 0 1-1.747-2.924l2.437-10.219c.32-1.301 1.601-2.106 2.88-1.784a2.416 2.416 0 0 1 1.747 2.924l-2.437 10.22c-.29 1.275-1.599 2.078-2.88 1.783Z" fill="#7DB5FF"/><path d="m153.589 113.047-.605-.147c.263-1.317.132-2.399-.394-3.219-.816-1.287-2.341-1.521-2.367-1.521l.079-.673c.079 0 1.814.263 2.787 1.814.631.966.789 2.224.5 3.746ZM161.369 108.072c-2.333-3.099-6.799-1.632-6.828-1.632l-.227-.609c.056-.028 4.978-1.632 7.595 1.854l-.54.387Z" fill="#000"/><path d="M118.3 171.104c1.38-.414 9.404-10.232 15.995-20.402a.35.35 0 0 1 .551-.047l14.367 15.55c.102.11.123.27.05.401-.806 1.434-5.557 9.699-11.754 16.373-6.811 7.334-13.97 13.795-13.97 13.795l-4.89-12.747-.349-12.923Z" fill="#5D74F8"/><path d="M130.283 169.287a4.07 4.07 0 0 0-.932-.103c-2.694 0-4.889 2.274-4.889 5.064 0 2.274 1.463 4.237 3.492 4.857.433.138.899.207 1.397.207 2.695 0 4.89-2.274 4.89-5.064 0-2.446-1.696-4.513-3.958-4.961Zm-.865 8.992h-.067c-2.128 0-3.891-1.792-3.891-4.031s1.729-4.031 3.891-4.031c.666 0 1.298.173 1.83.483a4.029 4.029 0 0 1 2.062 3.548c0 2.205-1.73 3.996-3.825 4.031Z" fill="#fff" fill-opacity=".1"/><path d="m123.54 196.6-.35-6.811" stroke="#000" stroke-width=".699" stroke-linecap="round"/><rect x="201.422" y="141.592" width="6.985" height="22.352" rx=".349" fill="#fff" stroke="#D1D7DD" stroke-width=".699"/><path d="M207.844 102.721a7.638 7.638 0 0 1-10.58-2.224c-2.31-3.542-1.313-8.287 2.22-10.598a7.638 7.638 0 0 1 10.581 2.224c2.307 3.539 1.315 8.285-2.221 10.598Z" fill="#FE2C55"/><path d="M166.35 117.389a7.638 7.638 0 0 1-10.58-2.224 7.662 7.662 0 0 1 2.22-10.598 7.638 7.638 0 0 1 10.581 2.224c2.307 3.538 1.315 8.285-2.221 10.598Z" fill="#25F4EE"/><path d="M72.547 97.257h5.302l-.487 1.516h-1.375l.002 5.29v.317h-1.717v-5.607H72.75l-.201.004-.001-1.52ZM86.677 97.257H92.1l-.486 1.516h-1.499l.004 5.29v.32h-1.718v-5.61H86.88l-.201.003-.001-1.52ZM78.174 99.677v-.155h1.7v.155l.003 4.255-.006.447h-1.687v-.243l-.01-4.459ZM80.69 97.573v-.336H82.37v.291l.002 3.027 1.698-1.652h2.027l-2.129 2.066 2.384 3.411h-1.87l-1.592-2.365-.504.489.001 1.879-1.691-.003v-.152l-.007-6.655ZM98.133 97.573v-.336h1.681v.291l.001 3.027 1.698-1.652h2.027l-2.128 2.066 2.384 3.411h-1.871l-1.591-2.365-.504.489v1.879l-1.69-.003v-.152l-.007-6.655ZM97.173 100.328a2.87 2.87 0 0 0-1.64-1.574l-.036-.013-.061-.02a1.128 1.128 0 0 0-.096-.031l-.056-.016c-.007-.003-.015-.004-.022-.006a2.806 2.806 0 0 0-.54-.09 2.748 2.748 0 0 0-.147-.007l-.075-.001h-.07a2.997 2.997 0 0 0-.493.051c-.018.005-.037.008-.055.012l-.05.01a2.942 2.942 0 0 0-.811.315 2.874 2.874 0 0 0-1.433 2.511 2.94 2.94 0 0 0 .397 1.477 2.88 2.88 0 0 0 1.04 1.038 2.867 2.867 0 0 0 .942.343l.05.009.084.012.042.006a2.98 2.98 0 0 0 .306.02l.055.001.054-.001a2.429 2.429 0 0 0 .33-.024c.035-.004.068-.009.102-.015l.055-.01.072-.014.044-.009.116-.029a2.877 2.877 0 0 0 2.127-2.803 2.882 2.882 0 0 0-.231-1.142Zm-1.317 1.522a1.433 1.433 0 0 1-.36.623 1.41 1.41 0 0 1-.943.408h.018l-.036.001H94.499a1.61 1.61 0 0 1-.38-.049 1.401 1.401 0 0 1-1.037-1.362 1.414 1.414 0 0 1 .412-1.001 1.399 1.399 0 0 1 1.003-.407h.035l.041.001h-.014a1.4 1.4 0 0 1 1.347 1.407 1.38 1.38 0 0 1-.05.379ZM79.877 98.112a.855.855 0 1 1-1.709 0 .855.855 0 0 1 1.71 0ZM107.061 99.984a1.079 1.079 0 1 1-2.158 0 1.079 1.079 0 0 1 2.158 0ZM107.062 103.295a1.08 1.08 0 1 1-2.158.002 1.08 1.08 0 0 1 2.158-.002ZM42.264 163.418l.966-.668.927 1.339 1.554-1.076-.927-1.339 3.107-2.151-.867-1.253-6.483-1.872-1.155.799 2.954 4.267-1.082.749 1.006 1.205Zm3.005-3.982-1.375.952-1.234-1.782 2.61.83Z" fill="#fff"/><path d="M171.795 105.18c3.381-1.609 6.609-2.984 10.889-3.088 1.648-.039 1.936.724 1.774 1.28-.214.938-1.916 2.055-3.664 2.553-1.033.294-.857-.6-.844-1.029.34-1.492 4.13-6.77 17.964-7.275" stroke="#FE2C55" stroke-width=".699" stroke-linecap="round" stroke-linejoin="round"/><path d="M214.53 182.454c1.528 0 2.811.493 3.848 1.48 1.037.973 1.555 2.375 1.555 4.205 0 1.804-.531 3.232-1.595 4.283-1.05 1.038-2.326 1.557-3.828 1.557-1.476 0-2.745-.506-3.808-1.518-1.064-1.012-1.596-2.44-1.596-4.283 0-1.791.526-3.193 1.576-4.205 1.05-1.013 2.332-1.519 3.848-1.519Zm0 9.131c.691 0 1.296-.292 1.814-.876.532-.597.798-1.428.798-2.492 0-1.09-.259-1.921-.778-2.492-.518-.584-1.136-.876-1.854-.876-.678 0-1.276.285-1.795.856-.518.558-.777 1.363-.777 2.414 0 1.117.252 1.973.757 2.57.506.597 1.117.896 1.835.896Z" fill="#fff"/><path fill-rule="evenodd" clip-rule="evenodd" d="M249.083 129.005V89.902h127.446v33.954l-11.537 11.537c11.446 8.327 17.169 19.643 17.169 33.948 0 14.347-6.394 25.533-19.181 33.557-12.786 8.024-29.239 12.036-49.357 12.036-19.777 0-35.547-4.073-47.311-12.219-11.593-8.145-17.39-19.574-17.39-34.285V138.66h54.39V144.775h.001a7.564 7.564 0 0 0 15.123 0h.002v-15.77h-69.355Z" fill="#E5E5E5"/><mask id="d" style="mask-type:alpha" maskUnits="userSpaceOnUse" x="248" y="89" width="135" height="126"><path fill-rule="evenodd" clip-rule="evenodd" d="M249.082 129.005V89.902h127.446v33.954l-11.537 11.537c11.446 8.327 17.169 19.643 17.169 33.948 0 14.347-6.394 25.533-19.181 33.557-12.786 8.024-29.239 12.036-49.357 12.036-19.777 0-35.547-4.073-47.311-12.219-11.593-8.145-17.39-19.574-17.39-34.285V138.66h54.39V144.775h.001a7.564 7.564 0 0 0 15.123 0h.002v-15.77h-69.355Z" fill="#A4B1FB"/></mask><g mask="url(#d)"><path opacity=".8" d="M363.433 129.848c13.171-1.29 36.003 17.969 36.316 25.408.667 29.058-26.896 30.336-38.348 29.714-11.452-.622-17.354-23.721-22.687-31.842-5.333-8.122 8.256-21.668 24.719-23.28Z" fill="#C1C1C1"/><path d="m255.51 114.833-2.534 7.854 1.437 3.188 15.626.631 3.48-2.208-1.676-3.719-16.333-5.746Z" fill="#010101"/><path d="m254.412 125.875 2.534-7.854 16.572 6.277-2.534 7.854-16.572-6.277Z" fill="#5D74F8"/><path d="M259.546 123.225c3.185 1.17 6.386 2.297 9.559 3.499" stroke="#FFE452" stroke-width="1.397" stroke-linecap="round" stroke-linejoin="round"/><path d="m265.239 118.431 2.335-6.167" stroke="#010101" stroke-width="2.096" stroke-linecap="round" stroke-linejoin="round"/><circle cx="267.677" cy="112.152" r="3.711" transform="rotate(20.745 267.677 112.152)" fill="#FFE35D"/><path d="M294.27 215.348c-3.279-6.807-8.307-11.78-9.564-12.768-1.142-.899-2.252-1.583-3.057-.901-.689.584-.542 1.639.325 2.683.62.747 1.454 1.564 1.936.865.503-.73.534-1.864.607-2.81.111-1.432.129-2.912-.096-4.467a20.933 20.933 0 0 0-1.03-4.05c-.274-.764-.599-1.596-1.122-2.365" stroke="#fff" stroke-width="1.397" stroke-linecap="round" stroke-linejoin="round"/><path d="M286.639 107.384h4.692l-.431 1.342-1.217-.001.002 4.682v.28h-1.519v-4.961h-1.348l-.178.003-.001-1.345ZM299.145 107.384h4.8l-.431 1.342-1.325-.001.002 4.681v.284h-1.519v-4.965h-1.349l-.178.003v-1.344ZM291.618 109.525v-.137h1.504l.001.137.002 3.766-.005.395h-1.493v-.214l-.009-3.947ZM293.844 107.663v-.298h1.487v.259l.001 2.678 1.503-1.462 1.794.001-1.884 1.827 2.11 3.019H297.2l-1.409-2.093-.446.433.001 1.663-1.497-.003v-.135l-.005-5.889ZM309.283 107.663v-.298h1.488v.259l.001 2.678 1.503-1.462 1.793.001-1.883 1.827 2.11 3.019h-1.656l-1.408-2.093-.446.433.001 1.663-1.497-.003v-.135l-.006-5.889ZM308.431 110.101a2.538 2.538 0 0 0-1.452-1.392l-.031-.012a.888.888 0 0 0-.096-.032l-.043-.014-.05-.014-.019-.005a2.259 2.259 0 0 0-.22-.047l-.007-.002a2.443 2.443 0 0 0-.382-.036l-.066-.002-.061.001a2.354 2.354 0 0 0-.436.046l-.049.009-.044.009a2.644 2.644 0 0 0-.718.279 2.481 2.481 0 0 0-.918.914 2.555 2.555 0 0 0-.351 1.309 2.607 2.607 0 0 0 .352 1.307 2.515 2.515 0 0 0 .919.917 2.568 2.568 0 0 0 .725.283l.038.007.072.014.043.008.075.011.038.005a4.376 4.376 0 0 0 .27.018h.096a2.537 2.537 0 0 0 .495-.056l.039-.008.103-.025a2.54 2.54 0 0 0 1.132-.656c.156-.155.289-.327.4-.518a2.587 2.587 0 0 0 .35-1.307 2.546 2.546 0 0 0-.204-1.011Zm-1.165 1.347a1.261 1.261 0 0 1-.32.551 1.228 1.228 0 0 1-.834.361h.016l-.032.001h-.032a1.383 1.383 0 0 1-.336-.043 1.242 1.242 0 0 1-.873-1.541 1.251 1.251 0 0 1 .32-.551 1.221 1.221 0 0 1 .686-.344 1.32 1.32 0 0 1 .201-.016l.017.001.015-.001.036.001-.013.001a1.223 1.223 0 0 1 .827.358 1.235 1.235 0 0 1 .365.887c.001.116-.014.228-.043.335ZM293.128 108.14a.756.756 0 1 1-1.512 0 .756.756 0 0 1 1.512 0ZM317.182 109.795a.956.956 0 1 1-1.911-.001.956.956 0 0 1 1.911.001ZM317.182 112.724a.955.955 0 1 1-1.91 0 .955.955 0 0 1 1.91 0Z" fill="#fff"/><path d="m282.27 187.382 3.741-12.264-25.985-16.457 22.244 28.721Z" fill="#2450F5"/><path d="m254.297 154.986 8.602 31.831c.11.399.369.694.764.881.205.088.431.128.665.105.153-.016.318-.07.49-.158l8.3-4.446a1.17 1.17 0 0 1 1.38.208l5.067 5.094c.285.3.645.424 1.072.38a1.2 1.2 0 0 0 .456-.131c.254-.127.45-.307.587-.559.137-.249.196-.512.167-.796l-.654-6.509a2.4 2.4 0 0 0-.677-1.441l-19.7-19.902 23.992 17.035c.182.127.42.144.613.039l7.588-4.072c.496-.248.739-.66.717-1.246-.028-.564-.293-.959-.795-1.18l-36.789-16.724a1.255 1.255 0 0 0-.688-.121 1.306 1.306 0 0 0-.733.313c-.431.379-.565.85-.424 1.399Z" fill="#386CF4"/><path d="m280.497 179.497-7.354 3.732a.902.902 0 0 0-.044.022l.044-.022a1.169 1.169 0 0 1 1.336.23l5.067 5.094c.285.299.645.423 1.073.38.179-.018.329-.063.455-.132.254-.126.45-.306.587-.558.138-.249.196-.512.167-.796l-.654-6.509a2.394 2.394 0 0 0-.677-1.441Z" fill="#0E3AC4"/><path fill="#E0E0E0" d="M248.947 89.902h85.217v10.478h-85.217zM334.164 89.902h85.217v10.478h-85.217z"/><mask id="e" style="mask-type:alpha" maskUnits="userSpaceOnUse" x="248" y="89" width="86" height="12"><path fill="#C4C4C4" d="M248.92 89.902h84.985v10.478H248.92z"/></mask><g mask="url(#e)" fill="#CCC"><path d="m269.258 81.482-15.97 33.01-7.86-3.803 15.97-33.01zM286.142 81.482l-15.97 33.01-7.86-3.803 15.97-33.01zM303.021 81.482l-15.97 33.01-7.86-3.803 15.97-33.01zM319.9 81.482l-15.97 33.01-7.86-3.803 15.97-33.01zM336.78 81.482l-15.97 33.01-7.86-3.803 15.97-33.01z"/></g><mask id="f" style="mask-type:alpha" maskUnits="userSpaceOnUse" x="334" y="89" width="86" height="12"><path fill="#C4C4C4" d="M334.141 89.902h84.985v10.478h-84.985z"/></mask><g mask="url(#f)" fill="#CCC"><path d="m354.48 81.482-15.972 33.01-7.86-3.803 15.972-33.01zM371.358 81.482l-15.97 33.01-7.86-3.803 15.97-33.01zM388.24 81.482l-15.97 33.01-7.86-3.803 15.97-33.01zM405.12 81.482l-15.972 33.01-7.86-3.803 15.972-33.01z"/></g><path d="M338.66 141.336c-1.189-.657-1.721-1.8-1.971-3.258-.282 1.382-.736 2.584-1.955 3.21 1.368.761 1.719 2.118 1.955 3.438.159-1.343.853-2.632 1.971-3.39ZM327.363 157.032c-.688-.381-.996-1.042-1.14-1.885-.163.799-.426 1.496-1.131 1.857.792.441.995 1.226 1.131 1.989.091-.777.493-1.522 1.14-1.961ZM333.65 132.634c-1.217-.265-2.158-.829-2.476-2.099l-.316-1.259c-.143.975-.172 2.319-1.15 2.847a4.056 4.056 0 0 1-1.451.458c.824.277 1.706.788 2.148 1.562.416.726.253 1.648.625 2.345.16-.762.081-1.487.441-2.223.522-1.07 1.187-1.354 2.294-1.606l-.115-.025Z" fill="#EDFF7A"/><path d="M307.441 174.879c-3.839 1.923-7.006 5.601-10.233 8.49-3.243 2.904-6.722 6.272-6.991 10.621-.071 1.169.12 2.393.781 3.358.455.663 1.102 1.166 1.752 1.638 2.18 1.579 4.631 2.964 7.314 3.153 3.238.229 6.318-1.301 9.143-2.902 2.956-1.675 5.924-3.531 8.196-6.099 2.57-2.904 2.508-5.683 2.152-9.45-.2-2.118-.564-4.307-1.779-6.051-2.187-3.142-6.708-3.969-10.335-2.758Z" fill="#FE7893"/><path d="M353.08 181.879a4.528 4.528 0 0 1-.983.703c-.921.474-2.151.505-2.918-.187-.409-.369-.639-.89-.833-1.402-2.075-5.48-1.775-15.673 2.896-19.911 1.666-1.513 4.922-2.501 6.934-.939 1.668 1.294 1.555 4.005 1.503 5.949-.138 5.175-2.335 10.21-5.378 14.355-.371.504-.764 1.007-1.221 1.432Z" fill="#EA7799"/><path d="M334.247 169.124c-.426 2.774-1.346 5.6-2.432 8.213-1.524 3.673-3.878 7.247-6.385 10.694-1.033 1.422-2.093 2.827-3.133 4.208a245.425 245.425 0 0 0-1.888 2.526c-.039.052-.78-.361-1.952-1.071-.378-.229-.802-.49-1.262-.776a278.704 278.704 0 0 1-6.382-4.11c-1.243-.823-2.587-1.616-3.956-2.413-3.068-1.788-6.259-3.603-8.7-5.863 3.103-7.023 6.066-15.057 11.51-20.602a31.423 31.423 0 0 1 5.789-4.643h.001a31.317 31.317 0 0 1 4.814-2.461h.001a30.097 30.097 0 0 1 6.966-1.906h.004a27.985 27.985 0 0 1 1.735-.199c.058-.005 1.862 5.841 2.116 6.384.193.41.417.781.656 1.133.272.403.563.783.846 1.17.528.724 1.026 1.472 1.323 2.446.689 2.253.713 4.741.329 7.27Z" fill="#0CE5DE"/><path d="M365.491 169.125c-.802 5.037-1.771 10.151-2.086 15.272-.062 1-.117 2-.162 2.999v.002a194.653 194.653 0 0 0-.204 7.94 194.87 194.87 0 0 0 .191 9.997l.01.215c.045 1.052.085 2.123-.068 3.156a7.3 7.3 0 0 1-.179.868 5.268 5.268 0 0 1-.23.689c-1.484 3.585-7.697 3.418-11.21 3.95a16.32 16.32 0 0 0-.414.068 52.484 52.484 0 0 1-4.599.62c-3.38.315-6.777.349-10.19.314-6.409-.067-12.66 1.019-18.99 0 0 0 1.12-9.665 1.208-12.095l.006-.189a94.364 94.364 0 0 0-.195-10.402c-.016-.22-.04-.439-.069-.655a13.43 13.43 0 0 0-.518-2.27c-.587-1.856-1.522-3.594-2.446-5.351-1.006-1.904-2.002-3.835-2.54-5.961-.489-1.93-.577-3.553-.392-4.986.24-1.849.94-3.376 1.835-4.838l.001-.002c.928-1.52 2.066-2.966 3.11-4.622a22.07 22.07 0 0 0 1.418-2.585c.182-.398.353-.808.513-1.238.901-2.44 1.061-4.806 3.13-6.548a11.332 11.332 0 0 1 1.619-1.122c.321-.187.651-.359.986-.52a21.169 21.169 0 0 1 1.632-.698c.194-.076.387-.149.582-.218l.002-.001h.002c.268-.097.537-.19.806-.282.23-.08.463-.156.694-.233 7.194-2.373 16.168-2.03 23.677.68a31.427 31.427 0 0 1 5.232 2.419c.112.066.224.132.334.199l.007.004c.237.141.467.286.698.433 1.319.851 2.447 1.733 3.388 2.668a13.08 13.08 0 0 1 2.009 2.525c1.033 1.713 1.58 3.622 1.67 5.828.05 1.225-.041 2.544-.268 3.97Z" fill="#0CE5DE"/><path d="M319.12 169.529v24.008" stroke="#000" stroke-width=".699" stroke-linecap="round"/><path d="M327.406 154.097c.567 1.893 1.591 3.81 3.388 4.678.745.36 1.574.513 2.396.615 3.63.454 7.413-.018 10.693-1.617 2.169-1.056 4.909-2.95 5.989-5.198.166-.344.288-.651.374-.938-2.034-1.149-4.149-2.13-6.358-2.835-4.798-.788-9.532-.585-14.908 1.466-1.81.689-2.117 2.01-1.574 3.829Z" fill="#FE7893"/><path d="M330.911 144.147c.151 1.299.476 2.616.751 3.886.451 2.08-.011 4.066 1.364 5.648.167.191.362.377.586.556 2.325 1.845 5.718 2.053 8.462.911 1.02-.423 1.983-1.029 2.689-1.871 2.429-2.895-.263-5.334-.959-8.287a26.715 26.715 0 0 1-.546-3.272c-.183-1.661-.246-3.337-.295-5.011l-.018-.547c-.984-1.36-2.716-1.486-4.401-1.341-1.688.144-3.253.961-4.579 1.999-1.082.849-2.058 1.88-2.601 3.136-.573 1.326-.621 2.751-.453 4.193Z" fill="#FE7893"/><path d="M330.816 143.997c3.487 1.571 10.483-2.62 12.204-5.588-.181-2.032.341-1.197.301-3.245-.594-.437-1.313-.658-2.022-.585-1.283.136-2.375 1.117-3.338 2.107-2.321 2.394-5.355 4.379-7.145 7.311Z" fill="#111"/><path d="M328.065 143.086c2.091.98 4.554 1.147 6.753.276 4.981-1.972 7.441-7.04 7.917-12.061.097-1.025.109-2.04.042-3.014-.243-3.551-2.298-6.935-5.354-8.82-2.213-1.364-5.036-1.912-7.644-1.483a9.76 9.76 0 0 0-2.455.735 8.325 8.325 0 0 0-3.177 2.495c-1.462 1.9-1.986 4.3-2.039 6.767-.084 4.005.24 9.242 2.753 12.539a8.604 8.604 0 0 0 3.204 2.566Z" fill="#FE7893"/><path d="M332.439 140.579c1.251-.235 2.183-.854 2.759-1.828 1.332-2.18.39-5.42.34-5.566a.768.768 0 0 0-.965-.506.768.768 0 0 0-.512.962c.008.043.803 2.733-.194 4.318-.356.6-.937.953-1.735 1.103-.797.15-1.423.024-1.947-.388-1.136-.94-1.416-3.15-1.428-3.924a.747.747 0 0 0-.764-.744.786.786 0 0 0-.771.766c.002.133.057 3.517 1.98 5.085.915.716 1.987.958 3.237.722Z" fill="#111"/><path d="M292.29 143.866c-1.237.222-2.44.492-3.551.739-.311.069-.651.163-.827.451-.165.27-.135.627-.099.953 1.423 13.278-1.629 26.395-.457 39.702.342 3.879 1.104 7.853 3.142 11.083 2.037 3.23 5.59 5.561 9.085 4.991 4.13-.673 6.958-5.141 7.628-9.667.669-4.525-.319-9.157-1.089-13.696-1.029-6.054-1.679-12.181-1.831-18.318-.097-3.893.006-7.801-.46-11.671-.127-1.056-.319-2.162-.943-2.988-.576-.763-1.443-1.181-2.301-1.471-2.523-.853-5.5-.607-8.297-.108Z" fill="#FE7893"/><path d="M301.029 129.631c-.432-3.509-2.339-3.066-5.084-3.583-3.696-.695-4.815-1.865-8.566-2.148-1.322-.1-2.536 3.506-3.638 4.243-1.773 1.186-1.805 2.244-1.569 4.366.545 4.908 1.506 7.578 3.37 12.149.316.778.661 1.562 1.223 2.186.601.666 1.411 1.104 2.234 1.46 4.24 1.83 9.565 1.578 13.053-1.452 2.488-2.159 2.031-4.586 2.095-7.559.073-3.44-2.698-6.247-3.118-9.662Z" fill="#FE7893"/><path d="M296.021 123.926c-.916-.531-1.889-1.046-2.945-1.106-1.056-.06-2.219.466-2.575 1.465-.431 1.211.436 2.474 1.301 3.425 1.121 1.229 2.355 2.393 3.836 3.147 1.782.905 4.188 1.804 6.107.812 1.791-.928.448-2.663-.558-3.903-1.374-1.694-3.31-2.764-5.166-3.84Z" fill="#FE7893"/><path d="M291.618 121.397c-.915-.531-1.888-1.047-2.944-1.106-1.057-.06-2.219.466-2.575 1.464-.432 1.212.436 2.475 1.301 3.426 1.121 1.229 2.353 2.393 3.836 3.147 1.782.905 4.188 1.804 6.106.812 1.792-.928.448-2.663-.558-3.903-1.374-1.694-3.309-2.764-5.166-3.84Z" fill="#FE7893"/><path d="M286.954 123.577c-.915-.531-1.888-1.046-2.944-1.106-1.057-.06-2.22.466-2.575 1.465-.432 1.212.436 2.475 1.301 3.425 1.121 1.23 2.354 2.394 3.835 3.147 1.783.906 4.189 1.805 6.107.812 1.792-.928.448-2.662-.558-3.903-1.374-1.693-3.309-2.763-5.166-3.84Z" fill="#FE7893"/><path d="M279.55 125.261c-.278-.217-.587-.446-.939-.435-.232.008-.449.122-.633.265-1.002.789-1.021 2.329-.605 3.535.952 2.759 3.817 4.729 6.728 4.627.472-.017.962-.09 1.347-.364 3.138-2.229-4.488-6.52-5.898-7.628ZM301.431 140.522c-1.088-1.249-2.602-2.034-4.09-2.76-2.609-1.274-4.433-4.231-7.361-4.515-.314-.03-.64-.035-.932.082-.486.193-.79.679-.999 1.161-.979 2.263-.395 4.154.753 6.152 1.082 1.884 2.425 3.72 4.337 4.748 1.881 1.012 4.102 1.131 6.238 1.145 3.712.023 4.219-3.527 2.054-6.013Z" fill="#FE7893"/><path d="M298.609 148.003c-.595 0-1.19-.077-1.766-.232-2.363-.635-4.209-2.506-5.692-4.01l-1.936-1.964a.375.375 0 0 1 .003-.528.372.372 0 0 1 .527.003l1.936 1.962c1.494 1.515 3.187 3.232 5.356 3.815a6.129 6.129 0 0 0 3.794-.21.374.374 0 0 1 .271.696 6.826 6.826 0 0 1-2.493.468ZM290.301 137.583a.372.372 0 0 1-.21-.065c-.467-.322-1.111-.836-1.306-1.6a1.647 1.647 0 0 1 .256-1.33c.225-.315.544-.502.898-.528 1.006-.076 1.867.64 2.34 1.335a.374.374 0 0 1-.016.443c-.576.725-1.133 1.259-1.752 1.681a.383.383 0 0 1-.21.064Zm-.216-2.781a.923.923 0 0 0-.091.004c-.167.012-.282.126-.349.219a.911.911 0 0 0-.139.709c.109.426.467.769.795 1.018a7.104 7.104 0 0 0 1.195-1.155c-.347-.421-.856-.795-1.411-.795Z" fill="#151516"/><path d="M290.303 148.469a5.782 5.782 0 0 1-2.205-.427.373.373 0 0 1 .284-.69c1.859.768 4.165.325 5.609-1.076a.373.373 0 1 1 .519.537c-1.108 1.074-2.662 1.656-4.207 1.656Z" fill="#151516"/><path d="M341.362 128.724c-.607-.812-1.258-.862-2.532-1.149-4.053-.913-7.687-2.862-10.317-6.164-.475-.596-.854-1.378-.676-2.12-.504 2.099-3.749 9.353-6.527 8.368-.602-2.901.988-5.923 2.962-7.954 3.442-3.54 8.567-4.879 13.222-3.014 3.491 1.4 6.258 4.5 7.258 8.133.999 3.634.209 7.716-2.074 10.712.76-.998-.362-5.037-.861-6.045a4.806 4.806 0 0 0-.455-.767Z" fill="#111"/><path d="M321.882 122.524a2.54 2.54 0 0 0 3.055-1.892 2.54 2.54 0 0 0-1.884-3.061 2.542 2.542 0 0 0-3.056 1.891 2.544 2.544 0 0 0 1.885 3.062ZM341.888 129.974c2.912.689 5.833-1.119 6.524-4.04.691-2.92-1.111-5.847-4.024-6.536-2.912-.69-5.834 1.119-6.524 4.039a5.429 5.429 0 0 0 4.024 6.537Z" fill="#000340"/><path d="M325.627 122.636c2.913.69 5.834-1.119 6.524-4.039.691-2.921-1.111-5.847-4.023-6.537a5.426 5.426 0 0 0-6.525 4.04c-.69 2.92 1.111 5.847 4.024 6.536ZM344.44 121.242a2.54 2.54 0 0 0 3.056-1.892 2.542 2.542 0 0 0-1.884-3.061 2.54 2.54 0 0 0-3.056 1.892 2.542 2.542 0 0 0 1.884 3.061Z" fill="#000340"/><path d="M334.028 127.824c4.664 1.2 9.419-1.619 10.62-6.295 1.201-4.677-1.607-9.44-6.271-10.64-4.664-1.199-9.419 1.619-10.62 6.296-1.201 4.676 1.606 9.44 6.271 10.639Z" fill="#000340"/><path d="M342.07 125.913a3.426 3.426 0 0 0 4.168-2.471 3.429 3.429 0 0 0-2.461-4.176 3.426 3.426 0 0 0-4.169 2.471 3.43 3.43 0 0 0 2.462 4.176Z" fill="#000340"/><path d="M344.489 128.913a1.978 1.978 0 0 0 2.407-1.427 1.977 1.977 0 1 0-3.828-.984 1.979 1.979 0 0 0 1.421 2.411ZM321.431 127.154a3.636 3.636 0 0 0 4.424-2.622 3.638 3.638 0 0 0-2.612-4.432 3.635 3.635 0 0 0-4.424 2.622 3.638 3.638 0 0 0 2.612 4.432Z" fill="#000340"/><path d="M320.885 130.338a2.42 2.42 0 0 0 2.945-1.746 2.423 2.423 0 0 0-1.739-2.951 2.42 2.42 0 0 0-2.945 1.746 2.423 2.423 0 0 0 1.739 2.951Z" fill="#000340"/><path d="M338.337 132.824c.573 7.56 13.262.941 7.045-3.85-3.216-2.478-7.324.174-7.045 3.85ZM349.718 226.477c-1.421 3.082-1.889 5.936-.081 7.619 2.997 2.8 5.599 5.471 10.179 3.947a23.291 23.291 0 0 0 4.1-1.837c7.669-4.309 14.137-12.775 19.237-19.162a130 130 0 0 0 7.766-10.828c2.241-3.498 4.94-6.497 4.742-10.806-.654-14.372-13.582-24.199-23.761-32.799-3.87-3.267-10.773-8.975-16.229-7.465-8.211 2.271-9.521 13.028-4.934 19.063 2.449 3.216 5.314 5.679 8.538 8.126 2.721 2.065 9.151 5.455 12.2 9.431 1.2 1.564 1.878 3.222 1.593 4.925a5.188 5.188 0 0 1-.652 1.776c-2.358 4.082-5.482 7.673-8.586 11.233-2.631 3.017-5.262 6.034-7.896 9.051-1.151 1.321-2.407 2.537-3.545 3.829-1.053 1.185-1.994 2.438-2.671 3.897Z" fill="#FE7893"/><path d="M373.065 196.684c2.465-1.155 4.907-3.04 6.419-4.383-2.646-.418-5.375-.827-8.012-.542 1.201 1.565 1.878 3.222 1.593 4.925Z" fill="#111"/><path d="M380.3 167.744c.026 1.93-6.822 18.905-9.786 24.148-.088.154-1.025-.359-2.32-1.174-1.433-.902-3.304-2.172-4.953-3.32-1.882-1.312-3.474-2.464-3.793-2.723-3.13-2.575-6.163-6.106-8.696-9.257-2.793-3.484-4.681-7.873-4.198-12.269.48-4.392 3.756-8.629 8.221-9.42a9.886 9.886 0 0 1 3.211-.03c3.42.504 6.665 2.58 9.586 4.58.857.586 1.713 1.175 2.571 1.761 2.08 1.424 4.169 2.835 6.301 4.186.47.299.999.545 1.508.798 1.217.61 2.329 1.254 2.348 2.72Z" fill="#0CE5DE"/><path d="M362.688 186.52a.382.382 0 0 1-.23-.078c-2.713-2.118-5.04-4.87-6.729-7.956-1.688-3.087-2.742-6.519-3.048-9.925a.374.374 0 0 1 .338-.405.375.375 0 0 1 .405.339c.602 6.701 4.15 13.19 9.493 17.359a.373.373 0 0 1-.229.666Z" fill="#151516"/></g><path d="M277.367 112.205c-.203-.031-2.751-.398-3.999-.578M272.618 105.619c-.121.167-1.619 2.26-2.353 3.286" stroke="#000" stroke-width=".699" stroke-linecap="round"/><path d="M298.634 147.984a6.804 6.804 0 0 1-1.767-.232c-2.363-.635-4.209-2.506-5.692-4.01l-1.936-1.964a.373.373 0 1 1 .531-.525l1.935 1.962c1.495 1.515 3.187 3.232 5.356 3.815a6.131 6.131 0 0 0 3.795-.21.373.373 0 0 1 .271.696 6.833 6.833 0 0 1-2.493.468Z" fill="#151516"/><path d="M338.032 188.043c-1.952 0-3.752-.356-5.4-1.069l.887-4.029c1.415.585 2.731.877 3.949.877 1.469 0 2.203-.557 2.203-1.672 0-.786-.376-1.343-1.128-1.672-.752-.329-2.006-.494-3.761-.494v-3.399c1.594 0 2.785-.164 3.573-.493.806-.329 1.209-.795 1.209-1.398 0-.823-.69-1.234-2.069-1.234-1.307 0-2.66.311-4.057.932l-1.047-3.728a13.676 13.676 0 0 1 6.206-1.48c1.647 0 2.982.402 4.003 1.206 1.038.804 1.558 1.901 1.558 3.289 0 .896-.233 1.709-.699 2.44a5.006 5.006 0 0 1-1.827 1.755c1.021.475 1.827 1.123 2.418 1.946.609.822.914 1.736.914 2.741 0 1.115-.296 2.083-.887 2.906-.573.822-1.388 1.462-2.445 1.919-1.038.438-2.238.657-3.6.657Z" fill="#63FDF7"/><defs><clipPath id="b"><path fill="#fff" transform="translate(155.319 112.603)" d="M0 0h126.429v26.377H0z"/></clipPath></defs></svg>