<svg viewBox="0 0 400 300" fill="none" xmlns="http://www.w3.org/2000/svg"><path d="M117.626 79.28a4.41 4.41 0 0 1 3.118-5.4l71.914-19.269a4.41 4.41 0 0 1 5.4 3.118l19.269 71.913a4.41 4.41 0 0 1-3.118 5.4l-71.913 19.27a4.41 4.41 0 0 1-5.4-3.118l-19.27-71.914ZM204.185 201.719a4.408 4.408 0 0 1 3.378-5.24l50.173-10.84a4.407 4.407 0 0 1 5.24 3.378l10.84 50.172a4.408 4.408 0 0 1-3.378 5.241l-50.172 10.84a4.409 4.409 0 0 1-5.241-3.378l-10.84-50.173Z" fill="#E5E5E5"/><path d="M143.417 100.72a2.376 2.376 0 0 0 1.389-.868c.331-.41.358-.922.178-1.444-.543-1.481-5.125-14.712-11.175-23.574.546-2.536.477-5.189-.215-7.79-4.098-12.606-19.76-23.421-20.356-23.88-1-.65-2.451-.554-3.217.26a1.658 1.658 0 0 0-.47 1.087l-.013.256c.076.517.363.96.861 1.327 0 0 14.958 10.437 18.706 21.829.175.607.252 1.124.324 1.726-4.439-4.077-8.467-4.116-10.814-2.7-2.347 1.417-3.237 4.619-1.981 8.274.624 1.913 1.665 3.762 2.921 5.451 3.085 4.264 6.181 4.34 8.179 3.674 1.998-.665 3.333-2.477 4.246-4.139 3.395 6.246 6.267 12.635 8.511 19.162.179.522.574.884 1.076 1.167.609.203 1.228.235 1.85.182Zm-19.934-22.064c-3.471-4.796-3.096-8.024-2.03-8.653.533-.314 2.375.038 4.841 2.303.981.992 1.86 1.978 2.632 3.044-.662 2.786-1.911 4.943-2.964 5.316-.318.154-1.317-.496-2.479-2.01ZM90.83 136.991a4.34 4.34 0 0 1 3.078-5.308l69.378-18.448a.992.992 0 0 1 1.168 1.347l-6.853 16.149a.992.992 0 0 0 .407 1.241l14.804 8.775-8.02 9.653a.993.993 0 0 0 .15 1.415l12.062 9.488-7.97 15.385a.993.993 0 0 0 .624 1.415l16.901 4.539-17.338 14.366a.992.992 0 0 0 .297 1.698l16.41 5.902-6.782 21.017a.993.993 0 0 0 .526 1.205l15.686 7.3c.841.391.733 1.62-.164 1.858l-68.693 18.267a4.34 4.34 0 0 1-5.308-3.078L90.83 136.991Z" fill="#386CF4"/><mask id="a" style="mask-type:alpha" maskUnits="userSpaceOnUse" x="90" y="116" width="93" height="139"><path d="M90.828 136.991a4.339 4.339 0 0 1 3.078-5.308l55.666-14.802a.992.992 0 0 1 1.202 1.257l-4.992 15.824a.992.992 0 0 0 .357 1.097l12.724 9.396-6.23 9.218a.992.992 0 0 0 .138 1.274l10.503 10.006-5.937 14.944a.992.992 0 0 0 .578 1.297l14.246 5.275-13.735 13.437a.993.993 0 0 0 .268 1.606l13.95 6.627-4.676 20.559a.994.994 0 0 0 .46 1.073l13.456 8.011c.755.449.597 1.586-.252 1.812l-55.133 14.66a4.338 4.338 0 0 1-5.308-3.078L90.828 136.991Z" fill="#386CF4"/></mask><g mask="url(#a)"><rect x="106.277" y="145.907" width="29.285" height="10.367" rx="1.085" transform="rotate(-15.694 106.277 145.907)" fill="#0E3AC4"/></g><path d="M281.565 206.836a4.337 4.337 0 0 1-5.024 3.521l-57.091-10.044a.99.99 0 0 1-.802-.788l-3.372-17.313a.99.99 0 0 1 .304-.921l13.18-12.073-11.836-19.055a.991.991 0 0 1 .238-1.309l17.224-13.269a.993.993 0 0 0 .338-1.092l-5.918-18.256 11.216-12.879a.994.994 0 0 0 .047-1.245l-9.466-12.696 10.553-5.711a.993.993 0 0 0 .189-1.613l-17.238-15.408 19.836-11.107a.994.994 0 0 1 .657-.111l57.414 10.1a4.338 4.338 0 0 1 3.521 5.025l-23.97 136.244Z" fill="#386CF4"/><mask id="b" style="mask-type:alpha" maskUnits="userSpaceOnUse" x="214" y="54" width="83" height="155"><path d="M272.383 204.964a4.34 4.34 0 0 1-5.025 3.521l-49.064-8.632a.995.995 0 0 1-.81-.831l-2.571-17.189a.991.991 0 0 1 .264-.833l11.828-12.348-9.968-18.779a.992.992 0 0 1 .219-1.208l15.448-13.671a.992.992 0 0 0 .301-.997l-4.794-18.122 10.142-13.133a.995.995 0 0 0 .049-1.144l-8.029-12.478 9.42-5.96a.992.992 0 0 0 .177-1.535l-14.781-15.007 17.546-11.464a.993.993 0 0 1 .715-.147l49.381 8.688a4.34 4.34 0 0 1 3.522 5.025l-23.97 136.244Z" fill="#386CF4"/></mask><g mask="url(#b)"><rect x="230.605" y="75.194" width="53.292" height="11.821" rx="1.085" transform="rotate(12.334 230.605 75.194)" fill="#0E3AC4"/></g><path d="M271.423 120.192a7.593 7.593 0 1 0-.93-15.155 7.593 7.593 0 0 0 .93 15.155Z" fill="#0E3AC4"/><path d="M199.566 220.72c39.297 0 71.152-31.856 71.152-71.152 0-39.297-31.855-71.153-71.152-71.153-39.296 0-71.152 31.856-71.152 71.153 0 39.296 31.856 71.152 71.152 71.152Z" fill="#FE5274"/><path fill-rule="evenodd" clip-rule="evenodd" d="M222.395 187.654c-.979.692-2.328.453-3.072-.485-12.158-15.333-33.972-19.088-50.557-8.703-1.015.636-2.367.409-3.058-.57l-10.011-14.174c-.691-.979-.457-2.338.545-2.994 26.39-17.27 61.719-11.188 80.815 13.911.725.954.491 2.313-.487 3.004l-14.175 10.011Z" fill="#fff"/></svg>