<svg viewBox="0 0 400 300" fill="none" xmlns="http://www.w3.org/2000/svg"><mask id="a" style="mask-type:alpha" maskUnits="userSpaceOnUse" x="50" y="42" width="301" height="217"><path d="M351 42H50v216.6h301V42Z" fill="#fff"/></mask><g mask="url(#a)"><path fill-rule="evenodd" clip-rule="evenodd" d="M185.905 243.105s32-45.4 32-46.4c0-.7-2.4-53.1-25.2-72.3-3.3-2.8-12.4-5.1-18.9-5.8-6.6-.7-58.1-5-76.7 10.3-9.1 7.5-10 13.8-14.5 25.3-15.7 40.3-26.9 63.6-4.5 76.4 2.4 1.4 7.4 2.7 10.6 2.3 5.2-.7 11.8-3.4 15.5-5.1-.7 4.3-1.6 15.3-1.6 15.3h83.3Z" fill="#006EFF"/><path d="m108.2 187 13.4-31.9M102.6 242.7l1.6-14.6" stroke="#071F4D"/><path fill-rule="evenodd" clip-rule="evenodd" d="M233.5 171.7h-64.7l17.3 71.7h47l.4-71.7Z" fill="#071F4D"/><path d="M146.5 208.5c-15.3 7-24.1 11-31.9 14.6" stroke="#071F4D"/><path fill-rule="evenodd" clip-rule="evenodd" d="M181.5 193.698c-.2-2-1.1-4.1-3.2-4.7 2.7-.6 4-3.6 3.5-5.5-.7-2.5-2.5-4-4.5-4.2 4-1.7 2.3-9.5-2.2-9.2-1.7.1-16.2 1.9-17.7 2-1.8-7.6-2.6-11.7-7-10.8-4.4.8-2.6 8.7-3.1 10.3-1.2 4-10 7.1-10 7.1l10 27.4s10.2-4.5 30.6-7.5c3.2-.5 3.8-2.9 3.6-4.9Z" fill="#C7DEFF"/><path d="M162.1 201.5c-2 .5-4.1 1-6.1 1.5-2.3.7-4.6 1.4-6.5 2.1M142.5 176.203c3.1-1.7 5-3.8 5-6.1-.1-4.1-.6-8.7 4.1-9.1 4-.3 5.5 9 5.8 11M162.5 191l14.7-2.1M161.3 181.1l15.2-1.8" stroke="#071F4D"/><path d="M199.6 130.7V84.3h5.2" fill="#fff"/><path d="M199.6 130.7V84.3h5.2" stroke="#071F4D"/><path d="M207.7 130.3v-46h86.5l11.6 11.6v48.3" fill="#fff"/><path d="M207.7 130.3v-46h86.5l11.6 11.6v48.3" stroke="#071F4D"/><path fill-rule="evenodd" clip-rule="evenodd" d="M225.2 114.3h62.9V91.7h-62.9v22.6Z" fill="#C7DEFF"/><path d="M283.6 87.6v23.6h-63V87.6" stroke="#071F4D"/><path fill-rule="evenodd" clip-rule="evenodd" d="M220.6 156.9h62.9v-37.1h-62.9v37.1Z" fill="#fff"/><path fill-rule="evenodd" clip-rule="evenodd" d="M225.2 161.6h62.9v-37.1h-62.9v37.1Z" fill="#C7DEFF"/><path d="M220.6 130.6v-10.8h63v23.3M275.5 87.6v16.5h-46.9V87.6" stroke="#071F4D"/><path fill-rule="evenodd" clip-rule="evenodd" d="M224.8 150.5h54.7v-26.4h-54.7v26.4Z" fill="#071F4D"/><path fill-rule="evenodd" clip-rule="evenodd" d="M229.4 133h-43.6v110.4h131.8v-95.9l-77.2.8-11-15.3Z" fill="#00E4E5"/><path d="M97.8 191.2s24.2-8.4 39.2-13.6c0 0 8.5 24.1 8.5 24.5" stroke="#071F4D"/><path fill-rule="evenodd" clip-rule="evenodd" d="M137.5 101.2c-.2 12.9-.1 20.9-.1 24.2 0 11.8 34.6 11.4 34.6 0 0-.8-.5-6.2-.2-12.1 4-.9 5.2-1.8 7-4 5.6-6.7 1.9-43.6 1.9-43.6s-14.8 6.5-32 .7c4.2 7.5 2.7 12.9 2.8 16.2.1 3.2-5.7 7-5.7 7.3 0 .1-2.3-4.3-8.3-4.9-3.7-.4-7.3 2.6-7.3 8s5.8 7.3 7.3 8.2Z" fill="#C7DEFF"/><path d="M142.397 101c-4.4 1.8-13.8-2.4-12.1-10.1 1.8-8.1 9.8-6.6 13.3-3.6M181.4 73.2c.7 8.5 1.5 21.8.4 28-1.5 8-4.8 13.4-16.4 11.1 0 0-5.2-1.4-7.9-3.2" stroke="#071F4D"/><path d="M145.801 89.703s7.2-1.5 5.9-13.9c-.6-5.1-3.2-10-3.2-10s9 5.6 23.8 2.8c15.5-2.9 18-13.8 12.4-23.1 0 0-2.6 4.2-6.7 4.6-.3-3.7-2.2-5.9-2.2-5.9s-2 1.8-5.7 2.1c-3.8.4-10.1-2.9-15.5-3.5-7.1-1.1-14.3 4.6-15.1 10.2-7.1-2.2-17.2 7.2-15.6 18.9.9 7 3.1 11.8 4.6 14.7M136.597 89.9c-1.9 1.2-2.5 3.8-1.2 5.7M137.2 123.9l.1-18.9M171.6 116.9l.1 6.8" stroke="#071F4D"/><path d="M171.2 50s1.2.8 6.8-.1M177.5 57.7s-14.4 7.1-29.1-4M142.7 54.9c-.9-.7-1.9-1.3-3.2-1.9M143.8 62.5s2 1.7 4.9 3.3" stroke="#071F4D"/><path fill-rule="evenodd" clip-rule="evenodd" d="m236.9 188.4-8.4 8.4 20.2 20.1 29.8-29.8-8.4-8.4-21.4 21.5-11.8-11.8Z" fill="#fff"/><path d="M322.6 243.4h16.2v11.3M62.2 254.7v-11.3h28.3M50.5 258.1h300M227.7 243.4h78M209.1 243.4h8.5" stroke="#071F4D"/><path d="M210.1 143.9h14.4l7.5 11.5h13.8" stroke="#fff"/></g></svg>