<svg viewBox="0 0 400 300" fill="none" xmlns="http://www.w3.org/2000/svg"><mask id="a" style="mask-type:alpha" maskUnits="userSpaceOnUse" x="75" y="37" width="250" height="227"><path d="M324.7 37H75v226.3h249.7V37Z" fill="#fff"/></mask><g mask="url(#a)"><path fill-rule="evenodd" clip-rule="evenodd" d="M256 154.8h34.9v-19.2H256v19.2ZM259.598 81.3c0-.3-5.3-3.8-5.2-6.8.1-3.1-1.3-8.1 2.6-15-16 5.5-29.7-.5-29.7-.5s-3.4 34.1 1.8 40.3c1.7 2 2.8 2.8 6.5 3.7.3 5.4-.2 9.4-.2 10.2 0 1 32 1 32 1s.1-10.5-.1-22.4c1.4-.9 6.7-2.6 6.7-7.6s-3.3-7.7-6.7-7.4c-5.5.5-7.7 4.6-7.7 4.5Z" fill="#C7DEFF"/><path d="M94 199.1V210M303.5 246.2v16.6H94v-9.5M303.5 159.8v-29.3M94 157.2v1-27.7M311.6 159.5v-46.7h-4.9M306.7 127.8h4.9" stroke="#071F4D"/><path fill-rule="evenodd" clip-rule="evenodd" d="M94 127.8h209.5v-15H94v15Z" fill="#006EFF"/><path fill-rule="evenodd" clip-rule="evenodd" d="M104.5 117.9c-1.22 0-2.2.98-2.2 2.2 0 1.22.98 2.2 2.2 2.2 1.22 0 2.2-.98 2.2-2.2 0-1.22-.98-2.2-2.2-2.2ZM114 117.9c-1.22 0-2.2.98-2.2 2.2 0 1.22.98 2.2 2.2 2.2 1.22 0 2.2-.98 2.2-2.2 0-1.22-.98-2.2-2.2-2.2Z" fill="#fff"/><path fill-rule="evenodd" clip-rule="evenodd" d="M122.2 197.8h62.1v-55.7h-62.1v55.7Z" fill="#00E4E5"/><path d="M184.2 167.2v30.6h-21.4" stroke="#071F4D"/><path d="M127.4 152.4V147h4.9" stroke="#fff"/><path d="M322.2 224.7v16.6H204.3V164h117.9v18.4" fill="#fff"/><path d="M322.2 224.7v16.6H204.3V164h117.9v18.4" stroke="#071F4D"/><path fill-rule="evenodd" clip-rule="evenodd" d="M209.8 236.7h106.1c-10.9-10.8-12.7-30.9-35.6-30.9-24.3 0-27.8-20.2-44.1-19-21.3 1.6-26.4-8.5-26.4-8.5v58.4Z" fill="#006EFF"/><path d="M215.5 178.1c3.8 2.6 10.8 5.3 22.6 4.4 16.3-1.2 19.8 19 44.1 19 19.8 0 23.8 14.9 31.6 25.9" stroke="#071F4D"/><path fill-rule="evenodd" clip-rule="evenodd" d="M209.8 236.802h96c-12.2-10.5-9.4-21.6-32.3-21.6-24.3 0-21.8-15.5-38.1-15.1-16.3.4-25.6 12.3-25.6 12.3v24.4Z" fill="#C7DEFF"/><path d="M316.3 226.6v10.2M316.3 181.4v-11.7H209.5" stroke="#071F4D"/><path fill-rule="evenodd" clip-rule="evenodd" d="M94.2 252.3H152v-33.2H94.2v33.2Z" fill="#C7DEFF"/><path fill-rule="evenodd" clip-rule="evenodd" d="M81.7 248h70.4v-33.2H81.7V248Z" fill="#006EFF"/><path d="M112.6 248H81.7v-33.2H89" stroke="#071F4D"/><path d="M111.9 225.5H136M111.9 231.7h30.9M111.9 237.4H131" stroke="#fff"/><path fill-rule="evenodd" clip-rule="evenodd" d="M90.1 239.5h16.3v-16.1H90.1v16.1Z" fill="#fff"/><path fill-rule="evenodd" clip-rule="evenodd" d="M315.3 187c-3.1 0-5.6 2.5-5.6 5.6 0 3.1 2.5 5.6 5.6 5.6h9.3l.1-11.2h-9.4ZM311.6 209.4c-3.1 0-5.6-2.5-5.6-5.6 0-3.1 2.5-5.6 5.6-5.6h13.1v11.2h-13.1ZM324.6 209.6H318c-3.1 0-5.6 2.4-5.6 5.5s2.5 5.6 5.6 5.6h6.7l-.1-11.1Z" fill="#C7DEFF"/><path d="M315.3 187c-3.1 0-5.6 2.5-5.6 5.6M306 203.9c0 3.1 2.5 5.6 5.6 5.6h10.2M311.6 198.2h7.3M312.5 215.1c0 3.1 2.5 5.6 5.6 5.6" stroke="#071F4D"/><path fill-rule="evenodd" clip-rule="evenodd" d="M188.6 76.7v-1c0-8.3-6.7-14.9-14.9-14.9h-37.4c-8.3 0-14.9 6.7-14.9 14.9v1c0 8.3 6.7 14.9 14.9 14.9h37.4c8.2 0 14.8-6.7 14.9-14.9Z" fill="#071F4D"/><path fill-rule="evenodd" clip-rule="evenodd" d="M183.4 65.8h-36.3c-8.5 0-15.4 6.9-15.4 15.4s6.9 15.4 15.4 15.4H197.9l-3.2-4.9c2.5-2.8 4.1-6.5 4.1-10.5 0-8.5-6.9-15.4-15.4-15.4Z" fill="#fff"/><path d="M138.6 94c2.4 1.6 5.4 2.6 8.5 2.6H197.9l-3.2-4.9c2.6-2.7 4.2-6.4 4.2-10.5 0-6.8-4.4-12.6-10.5-14.6" stroke="#071F4D"/><path d="M176 81.6c-5.8 5.8-15.1 5.8-20.9 0" stroke="#071F4D"/><path fill-rule="evenodd" clip-rule="evenodd" d="m142.3 162.8-6 5.9 14.3 14.3 21.1-21.2-5.9-5.9-15.2 15.2-8.3-8.3Z" fill="#fff"/><path d="M262.7 91.597c4.1 1.7 12.8-2.2 11.2-9.3-1.7-7.4-9.1-6.1-12.3-3.3M226.602 65.9c-.7 7.8-1.4 20.2-.4 25.8 1.4 7.4 4.4 12.4 15.2 10.3 0 0 4.8-1.3 7.3-2.9" stroke="#071F4D"/><path d="M259.497 81.1s-6.7-1.4-5.4-12.9c.5-4.7 3-9.2 3-9.2s-8.3 5.2-22 2.6c-14.3-2.7-16.6-12.7-11.5-21.4 0 0 2.4 3.9 6.2 4.2.2-3.5 2-5.5 2-5.5s1.8 1.6 5.3 1.9c3.6.3 9.3-2.7 14.4-3.3 6.7-.8 13.3 4.5 14.1 9.6 6.6-2 15.9 6.6 14.4 17.5-.9 6.5-2.9 10.9-4.2 13.6M268.1 81.3c1.8 1.1 2.3 3.5 1.1 5.3M267.4 95.2l.2 17.5M235.6 112.6l.1-6.3M75.5 262.8H322" stroke="#071F4D"/><path d="M127.4 155.9v2.3" stroke="#fff"/><path d="M264.5 140.8h30.3M277.1 149.5h17.7M252.6 140.8h5.7M236 44.4s-1.1.7-6.3-.1M230.3 51.6s13.3 6.6 26.9-3.7M262.4 48.9c.8-.6 1.8-1.2 3-1.7M261.4 56s-1.8 1.6-4.6 3.1" stroke="#071F4D"/><path fill-rule="evenodd" clip-rule="evenodd" d="M99.8 172.2h-9.3l-.1-11.2h9.4c3.1 0 5.6 2.5 5.6 5.6 0 3.1-2.5 5.6-5.6 5.6ZM103.5 183.4H90.4v-11.2h13.1c3.1 0 5.6 2.5 5.6 5.6 0 3.1-2.5 5.6-5.6 5.6ZM97 183.5c3.1 0 5.6 2.4 5.6 5.5s-2.5 5.6-5.6 5.6h-6.6v-11.1H97Z" fill="#C7DEFF"/><path d="M99.8 161c3.1 0 5.6 2.5 5.6 5.6M109.1 177.8c0 3.1-2.5 5.6-5.6 5.6H93.3M96.2 172.2h7.3M102.6 189c0 3.1-2.5 5.6-5.6 5.6" stroke="#071F4D"/></g></svg>