<svg viewBox="0 0 400 300" fill="none" xmlns="http://www.w3.org/2000/svg"><mask id="a" style="mask-type:alpha" maskUnits="userSpaceOnUse" x="65" y="34" width="271" height="233"><path d="M335.9 34H65v232.6h270.9V34Z" fill="#fff"/></mask><g mask="url(#a)"><path fill-rule="evenodd" clip-rule="evenodd" d="M216.5 177.8h-37.8v45.1l12.6 10.4h25.2v-55.5Z" fill="#C7DEFF"/><path d="M178.7 174.6v75M216.5 189.2v60.9M140.9 263.1V253h54M198.3 263.1V253h52.5v10.1M286.5 266.1H106.6M88.1 266.1h10.2" stroke="#071F4D"/><path fill-rule="evenodd" clip-rule="evenodd" d="M241.8 84.3h-9.3l-21.2 48.3 21.2 13.5h9.3V84.3Z" fill="#C7DEFF"/><path d="M239 84.2c28.2 0 51 22.8 51 51v42.3H145.5M205.6 84.2h-41.5" stroke="#071F4D"/><path fill-rule="evenodd" clip-rule="evenodd" d="M109.701 228c-25.8 0-34.3-17.3-18.9-38.6l8.5-11.8h93.4l-8.5 11.7c-15.3 21.4-48.7 38.7-74.5 38.7Z" fill="#fff"/><path fill-rule="evenodd" clip-rule="evenodd" d="M108.498 222.6c-23.1 0-30.6-15.4-16.9-34.5l7.6-10.5h87.9c-14.3 26.3-53.8 45.4-78.6 45Z" fill="#00E4E5"/><path fill-rule="evenodd" clip-rule="evenodd" d="M146 84.2c25.8 0 46.7 20.9 46.7 46.7v46.7H99.3v-46.7c0-25.8 20.9-46.7 46.7-46.7Z" fill="#C7DEFF"/><path d="M104.9 108.7c7.9-14.6 23.3-24.5 41.1-24.5m0 0c25.8 0 46.7 20.9 46.7 46.7v46.6M99.3 135.3v-4.4c0-4.3.6-8.5 1.7-12.5M99.3 161.3v16.3" stroke="#071F4D"/><path fill-rule="evenodd" clip-rule="evenodd" d="M187.9 133v38.2h-84V133c0-23.2 18.8-42 42-42s42 18.8 42 42Z" fill="#006EFF"/><path fill-rule="evenodd" clip-rule="evenodd" d="M159.5 122v49.2H188V133c0-13.4-6.2-25.3-15.9-33-7.6 4.4-12.6 12.6-12.6 22Z" fill="#071F4D"/><path d="m188.701 183.1-4.5 6.3c-15.4 21.3-48.7 38.6-74.5 38.6m0 0c-25.8 0-34.3-17.3-18.9-38.7l8.5-11.8h34.3" stroke="#071F4D"/><path fill-rule="evenodd" clip-rule="evenodd" d="M211.1 132.6h14.7V40.9h-14.7v91.7Z" fill="#C7DEFF"/><path d="M225.8 132.6h-14.7V40.9h14.7" stroke="#071F4D"/><path fill-rule="evenodd" clip-rule="evenodd" d="m247 54.3 10-13.4h-23.7v26.8H257l-10-13.4Z" fill="#00E4E5"/><path fill-rule="evenodd" clip-rule="evenodd" d="M225.4 132.6h9.4V40.9h-9.4v91.7Z" fill="#fff"/><path d="M234.7 73.6v59h-9.3M225.4 40.9h6.6M145.298 147.9s-43.13 8.73-53.29-9.07m0 0c-5.14-1.23-10.59-3.7-16.01-7.73-17.3-12.8-11.6-40.4 6.1-51.9m38.2 46.4c.7-13.6-29.4-19.5-30.4 3.5-.18 3.9.6 7.1 2.11 9.73 15.26 3.67 27.77-3.58 28.29-13.23Z" stroke="#071F4D"/><path fill-rule="evenodd" clip-rule="evenodd" d="m93.4 55.8 18.1-2.4-13.3 7 17.5 13.9 27.7-39.8-58.3 13.7 8.3 7.6Z" fill="#C7DEFF"/><path fill-rule="evenodd" clip-rule="evenodd" d="m88 75 12.6-6.4-6.7-5.8L88 75Z" fill="#006EFF"/><path d="m87.5 57 .2 18.3 6.2-13 18.9 16.2 30.9-44-69.8 9.8L87.5 57ZM93.3 55.1l50.4-20.6M93.8 62.4l17.7-8.5M87.7 75.3l9.8-5.2M233.3 198.5s22.76 28.09 47.37 17.09m0 0c2.17.07 4.61-.17 7.33-.79 22.2-5.1 39.2-23 47.4-42.1m-52.9 42c13.4-7 4.4-25.6-9.1-20.1-10 4.04-8.3 20.47 7.27 20.99.61-.27 1.22-.57 1.83-.89ZM191.6 202.8v36.3M191.6 245.9v7M292.6 266.1h5.4" stroke="#071F4D"/></g></svg>