<svg viewBox="0 0 400 300" fill="none" xmlns="http://www.w3.org/2000/svg"><mask id="a" style="mask-type:alpha" maskUnits="userSpaceOnUse" x="67" y="62" width="265" height="176"><path d="M331.85 62.5H67.5v175.1h264.35V62.5Z" fill="#fff"/></mask><g mask="url(#a)"><path fill-rule="evenodd" clip-rule="evenodd" d="M235.9 237.6h42.5v-74.7h-42.5v74.7Z" fill="#C7DEFF"/><path d="M235.4 162.9h42.8v68.5M224.8 162.9h4.7M161.7 169.5v61.9M181.9 162.9h37.6" stroke="#071F4D"/><path fill-rule="evenodd" clip-rule="evenodd" d="M184.3 145h19.4V88.7h-19.4V145Z" fill="#071F4D"/><path d="M203.7 142.3v15.3" stroke="#071F4D"/><path fill-rule="evenodd" clip-rule="evenodd" d="M87.3 163.2h74.5V88.7H87.3v74.5Z" fill="#006EFF"/><path fill-rule="evenodd" clip-rule="evenodd" d="M191.4 137h74.5V62.5h-74.5V137Z" fill="#00E4E5"/><path d="M235.2 62.5h72.7V137h-94.4" stroke="#071F4D"/><path d="M213.8 99.2h28.9M228.2 84.7v29" stroke="#fff" stroke-width="6"/><path fill-rule="evenodd" clip-rule="evenodd" d="M242.901 95.6c4.6 2.4 15 8.7 17.9 10.4 4.3 2.5 3.9 6.7 3.9 6.7l4.1-15.3-22.9-6.8-8.9-6.5s-.9 8 5.9 11.5Z" fill="#071F4D"/><path fill-rule="evenodd" clip-rule="evenodd" d="M328.903 116.004c8-12.7-3.1-17-5.5-16 8.8-6.5 6.6-14.1 6.6-14.1s-1.9-6.9-8.5-5.6c8.3-5.3 1.9-19.3-8.2-15.9 0 0-36.2 14-40.9 15.7-3 1.1-6.1.5-8.7-.2-2.7-.8-12.9-4.5-12.9-4.5-5.3-1.8-11.1 1.1-12.8 6.4-1.7 5.1.8 10.3 6.2 12.5l17.5 6.6c2.2.8 3.6 2.8 3.6 5.1v47.4l51.9.6v-28.3l11.7-9.7Z" fill="#fff"/><path fill-rule="evenodd" clip-rule="evenodd" d="m317.3 126-3.8 1.8 3.7 12.3.1-14.1ZM320.098 80.796s-15.1 9.5-16 10.2c-.9.7 1.7 4.6 8.7.3 7.4-4.5 14.3-10.1 14.3-10.1-4.3-3.2-7-.4-7-.4ZM323.398 99.898s-15.1 10.4-16 11.1c-.9.7 1.3 5.4 8.1.8 7.4-5 13.3-10.8 13.3-10.8-3.6-2.4-5.4-1.1-5.4-1.1Z" fill="#C7DEFF"/><path d="M322.4 79.6c8 .8 10.9 10.2 4.3 17-7.2 7.4-19 14.4-19 14.4M317.3 149.2v4.5M323.9 99.6c8 .8 10.9 10.2 4.3 17-3.2 3.3-7.3 6.5-10.9 9v19" stroke="#071F4D"/><path d="M313.7 127.8c1.2-.7 2.4-1.4 3.7-2.3M281 83.5s-10.7-2-15.7-3.3M182.4 88.7h-75.7M87.3 231.4v-78.6M67.5 237.4h234.3" stroke="#071F4D"/></g></svg>