<svg viewBox="0 0 400 300" fill="none" xmlns="http://www.w3.org/2000/svg"><mask id="a" style="mask-type:alpha" maskUnits="userSpaceOnUse" x="51" y="47" width="299" height="206"><path d="M349.5 47H51v205.6h298.5V47Z" fill="#fff"/></mask><g mask="url(#a)"><path d="M275.2 252.1h55.4v-97.6h-55.4v97.6Z" stroke="#071F4D"/><path fill-rule="evenodd" clip-rule="evenodd" d="M171.7 252.1h108.5v-97.6H171.7v97.6Z" fill="#C7DEFF"/><path fill-rule="evenodd" clip-rule="evenodd" d="M171.7 252.1h97.6V163h-97.6v89.1Z" fill="#071F4D"/><path d="M171.7 252.1h97.6V163h-97.6v89.1Z" stroke="#071F4D"/><path fill-rule="evenodd" clip-rule="evenodd" d="M182.6 252.1h87.3v-69.4h-87.3v69.4Z" fill="#006EFF"/><path fill-rule="evenodd" clip-rule="evenodd" d="M65 252.1h125.8v-97.6H65v97.6Z" fill="#fff"/><path d="M187.2 252.1H65v-97.6h119.3" stroke="#071F4D"/><path fill-rule="evenodd" clip-rule="evenodd" d="M98.5 219.5h63.2v-10.9H98.5v10.9Z" fill="#C7DEFF"/><path fill-rule="evenodd" clip-rule="evenodd" d="M87.8 208.6h63.7v-10.5H87.8v10.5Z" fill="#00E4E5"/><path d="M119.3 198.1H87.8v10.5h59.4" stroke="#071F4D"/><path fill-rule="evenodd" clip-rule="evenodd" d="M150.6 208.6h11v-10.5h-11v10.5Z" fill="#006EFF"/><path fill-rule="evenodd" clip-rule="evenodd" d="M190.9 252.1H201v-97.6h-10.1v97.6Z" fill="#00E4E5"/><path d="M51.5 252.1h285.9M343 252.1h6M223.3 193.8H262M208.9 193.8h7.4" stroke="#071F4D"/><path fill-rule="evenodd" clip-rule="evenodd" d="M267 154.4h6.3V81.7L162.6 51v7.8l104.4 28v67.6Z" fill="#C7DEFF"/><path d="M267 123.2v17.1M276.4 147.5V79.6L162.6 47.5v11.8" stroke="#071F4D"/><path d="M212.4 72.1 267 86.8v27.8" stroke="#071F4D"/><path fill-rule="evenodd" clip-rule="evenodd" d="M152.5 83h20.3V55.3h-20.3V83Z" fill="#071F4D"/><path fill-rule="evenodd" clip-rule="evenodd" d="M162.4 91c-8.12 0-14.7 6.58-14.7 14.7s6.58 14.7 14.7 14.7 14.7-6.58 14.7-14.7S170.52 91 162.4 91Z" fill="#00E4E5"/><path d="M162.4 124.9v6M143 124.5l4.2-4.3M178.4 120.2l4.3 4.3" stroke="#071F4D"/><path fill-rule="evenodd" clip-rule="evenodd" d="M200.5 105c0-20.9-17-37.9-37.9-37.9s-37.9 17-37.9 37.9v.2h75.8v-.2Z" fill="#006EFF"/><path d="M137 105.2h63.1s.6-12-5.5-20.6M201.1 205.7v46.4M124.1 198.1h6.4M280.2 159.2v92.9H191v-97.6h56.4M267 154.5h13.2" stroke="#071F4D"/></g></svg>