<svg viewBox="0 0 400 300" fill="none" xmlns="http://www.w3.org/2000/svg"><mask id="a" style="mask-type:alpha" maskUnits="userSpaceOnUse" x="80" y="39" width="241" height="222"><path d="M320.8 39H80v221.3h240.8V39Z" fill="#fff"/></mask><g mask="url(#a)"><path d="M134.3 114.9h-4.9V105h4.9" stroke="#071F4D"/><path d="M128.9 110.1H90.2c-5.3 0-9.7 4.3-9.7 9.7V249c0 5.9 4.8 10.6 10.6 10.6h20.5c5.7 0 10.3-4.6 10.3-10.3v-35.2c0-4.4 3.6-8.1 8.1-8.1h41.3" stroke="#071F4D"/><path fill-rule="evenodd" clip-rule="evenodd" d="M133.3 122.4h134.2v-25H133.3v25Z" fill="#006EFF"/><path fill-rule="evenodd" clip-rule="evenodd" d="M273 122.4h17.2v-21H273v21Z" fill="#C7DEFF"/><path d="M166.6 39.5h-6.1v56M171.4 39.5v46.2" stroke="#071F4D"/><path fill-rule="evenodd" clip-rule="evenodd" d="M144.4 112.5h5.3v-5.3h-5.3v5.3ZM155.4 112.5h11.8v-5.3h-11.8v5.3Z" fill="#fff"/><path d="M272.8 97.4h17.5v19.2" stroke="#071F4D"/><path fill-rule="evenodd" clip-rule="evenodd" d="M126.3 165.7h194.3v-14.6H126.3v14.6ZM168.9 244.2h83.6V234h-83.6v10.2Z" fill="#C7DEFF"/><path d="M278.7 122.1h41.6v28.7h-46.8M232.6 122.1H104.5v28.7h163.7" stroke="#071F4D"/><path fill-rule="evenodd" clip-rule="evenodd" d="M273.7 259.7h41.4v-41.4h-41.4v41.4Z" fill="#006EFF"/><path fill-rule="evenodd" clip-rule="evenodd" d="M284.3 248.5h5.7v-18.9h-5.7v18.9Z" fill="#071F4D"/><path fill-rule="evenodd" clip-rule="evenodd" d="M284.3 248.5h1.7v-18.9h-1.7v18.9Z" fill="#fff"/><path fill-rule="evenodd" clip-rule="evenodd" d="M298.2 248.5h5.7v-18.9h-5.7v18.9Z" fill="#071F4D"/><path d="M317.1 218.3h3.2v36.1" stroke="#071F4D"/><path fill-rule="evenodd" clip-rule="evenodd" d="M298.2 248.5h1.7v-18.9h-1.7v18.9Z" fill="#fff"/><path fill-rule="evenodd" clip-rule="evenodd" d="M178 219h17.3v-29.2H178V219Z" fill="#006EFF"/><path fill-rule="evenodd" clip-rule="evenodd" d="M188 219h26.4v-29.2H188V219Z" fill="#00E4E5"/><path d="M198.4 197.5h24.8M198.4 211.4h24.8M171.4 92.1V97M266.6 259.8H143.9M132.2 259.8h6.7M237.6 218.9h15V234h-20.4M173.4 218.9H158V234h71.8v-15.1h-13.6M268.2 147.1v-17.6M238.8 97.4V39.5h5.7M249.8 39.5v51.2" stroke="#071F4D"/><path fill-rule="evenodd" clip-rule="evenodd" d="M105 150.6h158.2v-5H105v5Z" fill="#071F4D"/></g></svg>