<svg viewBox="0 0 400 300" fill="none" xmlns="http://www.w3.org/2000/svg"><path opacity=".3" d="M15.741 122.63v134.259H384.26V122.63M15.741 104.111c0-8.182 6.633-14.815 14.815-14.815h338.889c8.182 0 14.815 6.633 14.815 14.815v18.519H15.741v-18.519Z" stroke="#E01E67" stroke-width=".926"/><circle opacity=".3" cx="35.648" cy="106.426" r="4.167" stroke="#E01E67" stroke-width=".954"/><circle opacity=".3" cx="52.315" cy="106.426" r="4.167" stroke="#E01E67" stroke-width=".954"/><circle opacity=".3" cx="68.981" cy="106.426" r="4.167" stroke="#E01E67" stroke-width=".954"/><g clip-path="url(#a)"><path d="M332.233 138.741h5.265M334.865 136.109v5.352" stroke="#F0C2DE" stroke-width=".926" stroke-miterlimit="10" stroke-linecap="round" stroke-linejoin="round"/><path d="M343.644 81.22c1.403 2.544 3.509 4.65 5.966 5.966-2.545 1.404-4.65 3.51-5.966 5.966-1.404-2.544-3.511-4.65-5.967-5.966 2.456-1.404 4.563-3.422 5.967-5.966Z" fill="#FC466F"/><path d="M32.409 202.259c2.396 4.344 5.99 7.938 10.184 10.185-4.344 2.397-7.938 5.992-10.184 10.186-2.397-4.344-5.993-7.939-10.186-10.186 4.193-2.396 7.79-5.841 10.186-10.185Z" fill="#66DED2"/><path d="M109.264 115.828s-1.058 35.238 27.335 54.064c33.591 22.302 63.525 3.187 66.605-12.936 3.176-16.992-9.24-25.102-25.025-26.26-19.538-1.449-18.961-22.881-18.961-22.881l-49.954 8.013Z" fill="#EA5732"/><path d="m260.426 155.851-3.246-19.39-58.171 8.247-79.929-1.141c-19.039-.439-36.675 8.423-40.886 28.34L58.365 265.26h87.563l12.722-81.07 49.485 1.316 52.291-29.655Z" fill="#FFEF5E"/><path d="m336.233 266.313-16.759-97.828c-2.983-17.811-19.916-29.919-37.727-27.023 0 0-22.9.526-23.601.702l-16.846 2.281c-6.493 1.14-12.547 3.948-17.548 8.247l-32.814 28.077c-3.598 2.193-7.809 3.333-12.021 3.333H158.65l-3.685 23.339 20.531 7.896c10.879 4.124 23.075 2.544 32.463-4.211l20.18-14.389 11.582 69.576h96.512Z" fill="#FC466F"/><path d="m282.099 138.741-9.827 80.895h-.088l-30.796-75.192 40.711-5.703Z" fill="#fff"/><path d="m272.184 219.636-32.902-36.587 3.334-7.458-6.844-3.772 2.309-26.155M272.096 219.636l3.861 26.848" stroke="#000" stroke-width=".926" stroke-miterlimit="10" stroke-linecap="round" stroke-linejoin="round"/><path d="m252.706 142.953 9.212 3.51-7.195 10.791-11.406-13.073 9.389-1.228Z" fill="#fff"/><path d="m285.871 143.392 8.949 22.461-5.703 5.439 5.352 5.528-22.198 42.816" stroke="#000" stroke-width=".926" stroke-miterlimit="10" stroke-linecap="round" stroke-linejoin="round"/><path d="m272.359 219.548 3.159-26.496-9.651-35.534 2.281-5.703-6.229-5.352-4.476 6.843 3.774 4.826.35 36.499 10.704 25.005.088-.088Z" fill="#66DED2"/><path d="m269.815 140.496-7.985 5.967 10.003 8.423 10.265-16.145-12.283 1.755Z" fill="#fff"/><path d="m274.893 175.525-8.339 1.184.246 1.738 8.34-1.185-.247-1.737Z" fill="#FDCF00"/><path d="m253.216 142.735 8.703 3.727 7.896-5.966-16.599 2.239Z" fill="#316CF4"/><path d="m192.955 247.537 23.164 23.953c-1.229 2.456-3.685 4.123-6.405 4.474l-2.018.263v.088c-.965 2.808-3.334 4.826-6.142 5.352l-1.404.263-.087.176c.263 2.72-5.44 5.615-10.441 2.895l-24.655-15.091c-.701-.439-14.565-7.282-14.565-7.282l16.32-29.743 4.826 1.842c1.491.527 3.158.79 4.737.526l9.213-1.228c2.281-.351 4.563.351 6.405 1.755l3.597 2.896-3.509.087c-2.896.088.964 8.774.964 8.774Z" fill="#FFB455"/><path d="m211.907 232.621-6.58 4.124c-1.842 1.141-3.948 1.755-6.142 1.843l-7.019.175c-2.281.088-4.387.702-6.317 1.843-.877.526-.877 1.667-.087 2.281l2.456 1.667c3.159 2.106 6.053 4.562 8.686 7.282l19.215 19.829 15.354-9.388-19.566-29.656Z" fill="#7DB5FF"/><path d="M101.619 142.164c3.246 0 6.054 2.368 6.054 2.368-1.754.263-3.86 1.053-4.124 1.492l-1.93 3.948c-.877 1.667-2.895 2.369-4.563 1.579-1.666-.877-2.368-2.895-1.579-4.562-.087 0 .264-4.825 6.142-4.825ZM83.809 163.133l-1.667-1.316c-.44.614-.878 1.228-1.316 1.842-.79 1.053-1.755 1.93-2.281 3.071-.088.263-.176.439-.352.614l2.106 1.755c2.896 1.667 4.65-1.228 4.65-1.228 1.053-1.755.44-3.773-1.14-4.738ZM93.196 153.569l-2.896-1.667c-.35.702-.965 1.229-1.842 1.58-1.316.526-2.369 1.93-3.158 3.421.175.176.35.351.613.439l3.861 2.194c1.667.965 3.773.351 4.65-1.229.965-1.667.44-3.772-1.228-4.738Z" fill="#000"/><path d="m88.459 158.746-3.158-1.843c-.527.79-.966 1.667-1.405 2.282l-2.369 3.421 3.51 2.018c1.667.965 3.773.351 4.65-1.228.966-1.667.439-3.685-1.228-4.65Z" fill="#000"/><path d="M76.088 162.782c.965-1.667 3.07-2.194 4.65-1.229l2.105 1.755c1.667.965 2.194 3.071 1.229 4.65 0 0-1.843 2.896-4.65 1.229l-2.106-1.755c-1.58-.965-2.193-3.071-1.228-4.65ZM83.72 152.867l.176-.351c.877-1.579 2.895-2.018 4.387-1.14l4.211 2.456c1.58.878 2.019 2.896 1.142 4.387l-.176.351c-.877 1.579-2.895 2.018-4.387 1.141l-4.211-2.457c-1.492-.878-2.019-2.808-1.141-4.387Z" fill="#7DB5FF"/><path d="m78.983 158.043.176-.35c.877-1.58 2.895-2.018 4.387-1.141l4.211 2.457c1.58.877 2.018 2.895 1.14 4.387l-.175.35c-.877 1.58-2.895 2.019-4.387 1.141l-4.211-2.457c-1.492-.877-2.018-2.807-1.14-4.387ZM101.268 142.075c3.246 0 6.317 2.457 6.317 2.457-1.755.263-5.001 1.053-5.264 1.492l-1.931 3.948c-.877 1.667-2.894 2.369-4.561 1.579-1.667-.877-2.37-2.895-1.58-4.562 0 0 1.228-4.914 7.019-4.914ZM292.138 100.636c-1.75-.583-3.306-.291-4.667.486-1.847-12.735-12.736-22.554-26.055-22.651-13.222-.098-24.304 9.527-26.443 22.165-1.361-.777-2.917-1.07-4.667-.583-2.139.68-3.792 2.431-4.18 4.667-.681 3.791 2.236 7.097 5.833 7.194a6.27 6.27 0 0 0 2.333-.486c.584-.195 1.167.097 1.264.583 3.111 11.083 13.222 19.347 25.277 19.444 12.055.097 22.361-7.875 25.666-18.958.195-.583.777-.875 1.361-.583.68.291 1.458.486 2.333.486 3.695 0 6.611-3.208 6.028-7.097-.389-2.139-1.945-3.986-4.083-4.667Z" fill="#7DB5FF"/><path d="M268.752 110.943a7.623 7.623 0 1 1-15.167 1.534" stroke="#000" stroke-width="1.852" stroke-linecap="round"/><path d="M234.39 100.928c.583.389 1.069.778 1.458 1.069.875.778 2.139.39 2.528-.68 1.264-3.889 3.792-10.208 7.292-10.402 2.625-.098 4.179 1.555 15.457 1.652l.098-14.194c.194 0-20.417-1.166-26.833 22.555Z" fill="#292929"/><path d="M287.957 101.415c-.584.389-1.07.68-1.557 1.069-.874.777-2.041.292-2.527-.778-3.305-7.875-21.096 3.5-29.943-7.291-1.264-1.556-3.014-2.723-5.056-3.112h-.194l12.735-12.93s20.611-.777 26.542 23.042Z" fill="#292929"/><path d="M105.1 113.499c1.673-.787 3.346-.689 4.724-.098.296-12.993 10.04-24.213 23.328-25.985 13.287-1.772 25.59 6.594 29.33 19.095 1.28-.886 2.855-1.477 4.627-1.083 2.264.394 4.133 1.969 4.822 4.134 1.181 3.74-1.378 7.481-5.019 7.973-.788.098-1.674-.001-2.363-.197a.983.983 0 0 0-1.279.787c-1.772 11.516-10.926 21.063-23.032 22.638-12.107 1.575-23.426-5.216-28.15-15.945-.197-.59-.886-.787-1.378-.393-.689.393-1.477.688-2.264.787a6.085 6.085 0 0 1-6.89-6.398c0-2.362 1.477-4.429 3.544-5.315Z" fill="#FFB455"/><path d="m146.917 118-19.14 5.419c.912 2.709 5.469 9.031 12.76 7.225 6.437-1.595 7.291-8.128 6.38-12.644Z" fill="#fff"/><path d="M163.073 106.708c-.591.394-.984.886-1.378 1.279-.787.886-2.165.591-2.657-.393-1.674-3.74-3.642-2.658-7.185-2.264-5.611.59-18.308-3.052-20.277-8.859l1.674-9.153c0 .098 20.571-3.642 29.823 19.39Z" fill="#EA5732"/><path d="M109.332 113.794c.689.295 1.181.591 1.673.886.985.59 2.067 0 2.461-1.082 1.477-5.02 18.504-1.477 20.473-16.832.59-4.92 11.516 2.756 13.484 2.166l.196-.098-14.37-11.418s-20.866 1.673-23.917 26.378Z" fill="#EA5732"/><path d="m85.3 195.42 8.072 38.079a25.835 25.835 0 0 0 9.038 14.74l21.057 17.109h19.916l2.545-8.862-60.627-61.066Z" fill="#000" stroke="#000" stroke-width=".926" stroke-miterlimit="10" stroke-linecap="round" stroke-linejoin="round"/><path d="m83.897 190.42 10.88 38.517c1.228 5.703 4.825 10.967 10.352 14.038l42.729 23.952 18.688-34.042-34.393-20.268-15.003-53.345" fill="#FFEF5E"/><path stroke="#000" stroke-width=".926" stroke-linecap="round" d="m117.577 159.65 15.364 52.814"/><path d="m221.207 226.48-9.3 6.141 22.461 33.692 10.528-6.668 10.003-19.039-33.692-14.126Z" fill="#fff" stroke="#000" stroke-width=".926" stroke-miterlimit="10" stroke-linecap="round" stroke-linejoin="round"/><path d="M123.643 143.655v38.605l8.51 30.357 11.056 6.493 8.774-74.928-28.34-.527Z" fill="#FFB455"/><path d="M123.643 164.8s10.616 8.423 25.356 2.369l-5.703 51.941-11.054-6.493-8.599-30.357V164.8Z" fill="#000"/><path d="M110.757 129.065a3.418 3.418 0 1 0 0-6.835 3.418 3.418 0 0 0 0 6.835ZM165.235 122.23a3.417 3.417 0 1 0 0-6.834 3.417 3.417 0 0 0 0 6.834Z" fill="#E01E67"/><path d="m170.582 184.19-12.08-.445-1.953 13.67s1.224-13.576 14.033-13.225Z" fill="#000"/><path d="m245.335 262.277-1.404-2.018-4.65 2.983.526 3.071h17.197l30.095-27.55a13.563 13.563 0 0 0 3.333-4.387l16.319-35.446-20.355 33.779-41.061 29.568Z" fill="#000" stroke="#000" stroke-width=".926" stroke-miterlimit="10" stroke-linecap="round" stroke-linejoin="round"/><path d="m148.332 230.214 1.242 2.527c.113.33.451.55.789.55l2.823.44c.903.11 1.241 1.208.564 1.757l-2.032 1.979c-.226.219-.338.549-.338.878l.452 2.747c.113.879-.791 1.539-1.581 1.099l-2.484-1.318a1.602 1.602 0 0 0-1.015 0l-2.484 1.318c-.79.44-1.694-.22-1.581-1.099l.452-2.747c.113-.329 0-.659-.338-.878l-2.033-1.979c-.677-.549-.226-1.647.564-1.757l2.823-.44c.338 0 .677-.22.79-.55l1.242-2.527c.565-.769 1.693-.769 2.145 0Z" fill="#3AA38B"/><path d="m273.5 248.063 2.018 18.25" stroke="#000" stroke-width=".926" stroke-miterlimit="10" stroke-linecap="round" stroke-linejoin="round"/><path d="M299.909 145.848c-.614 1.492-2.194 2.282-3.685 1.755l-11.582-4.036c-2.808-1.053-6.405.527-8.335 1.316-8.862 3.773-18.209-2.636-18.209-2.636l-.977-5.859 19.624-2.384c1.931-.264 3.949-.351 5.879 0 1.316.175 2.721.526 4.037.965l12.809 4.475c2.193.789 8.423 3.597 12.459 8.861 2.457 3.159 0 4.124 0 4.124-5.01-5.788-11.143-8.248-11.845-8.248.439.79-.175 1.667-.175 1.667Z" fill="#FFB455"/><path d="m284.202 136.461 13.951 5.439c1.579.614 2.281 2.369 1.755 3.861" fill="#FFB455"/><path d="m284.202 136.461 13.951 5.439c1.579.614 2.281 2.369 1.755 3.861" stroke="#000" stroke-width=".926" stroke-miterlimit="10" stroke-linecap="round" stroke-linejoin="round"/><path d="m289.292 148.656-33.253 51.853-34.832 25.971 14.921 21.71 11.717-3.418-8.788 7.323 6.278 10.182 40.974-29.568 22.899-37.903" fill="#FC466F"/><path d="m232.711 218.409 23.922-17.576 31.735-50.775" stroke="#000" stroke-width=".926" stroke-linecap="round"/><path d="m236.649 172.345-.175.79 5.527 3.772.614-1.316-5.966-3.246ZM240.334 184.19l-.526.965 14.476 16.671 1.141-.878-15.091-16.758Z" fill="#000" stroke="#000" stroke-width=".926" stroke-miterlimit="10" stroke-linecap="round" stroke-linejoin="round"/><path d="M233.199 256.978a2.93 2.93 0 1 0 0-5.859 2.93 2.93 0 0 0 0 5.859Z" fill="#66DED2"/><path d="m214.539 236.569 15.242 26.755 1.691-1.135-16.933-25.62Z" fill="#000"/><path d="m228.226 196.824-1.053-6.404" stroke="#000" stroke-width=".926" stroke-miterlimit="10" stroke-linecap="round" stroke-linejoin="round"/><path d="m151.368 260.522 16.933-26.935-1.754-.702-15.179 27.637Z" fill="#000" stroke="#000" stroke-width=".926" stroke-miterlimit="10" stroke-linecap="round" stroke-linejoin="round"/><path d="M367.129 200.407c3.836 0 6.945-3.316 6.945-7.407s-3.109-7.407-6.945-7.407c-3.835 0-6.943 3.316-6.943 7.407s3.108 7.407 6.943 7.407Z" fill="#7DB5FF"/><path d="M297.803 231.656h21.408" stroke="#000" stroke-width=".926" stroke-miterlimit="10" stroke-linecap="round" stroke-linejoin="round"/></g><path d="m246.296 238.37 30.17-24.495 24.331-36.743c3.731-9.308 11.776-29.395 12.166-31.354" stroke="#fff" stroke-width=".463"/><path d="m239.814 247.63 37.987-30.9 23.933-36.153c.278-.42.51-.862.698-1.329 3.863-9.587 12.002-28.778 12.382-30.692" stroke="#fff" stroke-width=".463"/><path stroke="#000" stroke-width=".926" stroke-linecap="round" d="M.463 257.352h399.074"/><defs><clipPath id="a"><path fill="#fff" transform="translate(22.223 78.185)" d="M0 0h351.852v178.704H0z"/></clipPath></defs></svg>