<svg viewBox="0 0 400 300" fill="none" xmlns="http://www.w3.org/2000/svg"><g clip-path="url(#a)"><mask id="b" style="mask-type:alpha" maskUnits="userSpaceOnUse" x="-12" y="75" width="423" height="154"><path fill="#E01E67" d="M-11.036 76h421.422v153H-11.036z"/></mask><g mask="url(#b)"><mask id="c" style="mask-type:alpha" maskUnits="userSpaceOnUse" x="-12" y="76" width="423" height="154"><path fill="#fff" d="M-11.037 76.001h421.422v153H-11.037z"/></mask><g mask="url(#c)"><path d="m366.665 177.106-54.471 6.092 3.636 32.508 54.47-6.091-3.635-32.509Z" fill="#fff"/><path d="m372.051 211.107-54.475 6.1-.207-1.94 52.931-5.652-3.761-30.8 1.884-.22 3.628 32.512Z" fill="#000"/><path d="M337.971 202.656 336.67 191l11.043 4.678-9.742 6.978Z" fill="#E01E67"/><path d="m317.344 182.617-5.154.576 3.636 32.509 5.153-.577-3.635-32.508ZM366.667 177.092l-5.153.576 3.635 32.509 5.153-.576-3.635-32.509Z" fill="#FFB7ED"/><path d="m315.99 184.64-2.013.225.225 2.013 2.013-.225-.225-2.013ZM316.588 190.014l-2.014.225.225 2.013 2.014-.225-.225-2.013ZM317.183 195.371l-2.013.225.225 2.013 2.013-.225-.225-2.013ZM317.778 200.728l-2.013.225.225 2.014 2.013-.225-.225-2.014ZM318.393 206.084l-2.013.225.225 2.013 2.013-.225-.225-2.013ZM318.987 211.441l-2.013.226.225 2.013 2.013-.225-.225-2.014ZM365.313 179.133l-2.013.226.225 2.013 2.013-.225-.225-2.014ZM365.907 184.488l-2.013.226.225 2.013 2.013-.225-.225-2.014ZM366.503 189.846l-2.013.225.225 2.013 2.014-.225-.226-2.013ZM367.1 195.204l-2.013.225.225 2.013 2.013-.225-.225-2.013ZM367.717 200.577l-2.014.225.225 2.014 2.014-.225-.225-2.014ZM368.31 205.935l-2.013.225.225 2.013 2.013-.225-.225-2.013Z" fill="#fff"/><path d="M356.979 169.231a13.299 13.299 0 0 0 5.805 4.776 13.299 13.299 0 0 0-4.776 5.805 13.313 13.313 0 0 0-5.805-4.776 13.293 13.293 0 0 0 4.776-5.805ZM323.565 212.536a7.275 7.275 0 0 0 3.146 2.588 7.276 7.276 0 0 0-2.589 3.146 7.281 7.281 0 0 0-3.146-2.588 7.173 7.173 0 0 0 2.589-3.146Z" fill="#FFCA36"/><path d="M43.088 106.408a3.125 3.125 0 1 0 0-6.25 3.125 3.125 0 0 0 0 6.25Z" fill="#7453E9"/><path d="M119.919 136.595c7.096 0 12.85-5.753 12.85-12.85 0-7.097-5.754-12.85-12.85-12.85-7.097 0-12.851 5.753-12.851 12.85 0 7.097 5.754 12.85 12.851 12.85Z" fill="#EFC953"/><path d="M371.84 130.438a3.06 3.06 0 1 0 .001-6.12 3.06 3.06 0 0 0-.001 6.12Z" fill="#E01E67"/><path d="M84.459 229.634a1.594 1.594 0 1 0 0-3.187 1.594 1.594 0 0 0 0 3.187Z" fill="#000" stroke="#000" stroke-width=".506" stroke-miterlimit="10"/><path d="M56.119 167.739a19.474 19.474 0 0 0 12.027-.463l-2.189-6.027-.618-1.726-2.55-1.004s-2.498 1.725-3.966 1.391a11.41 11.41 0 0 1-7.288-5.332c-.36-.592-.644-1.236-.902-1.905l-2.55-1.005-5.202 3.812 11.306 31.008c1.134 3.529-.695 7.34-4.198 8.628a7.256 7.256 0 0 1-3.296.361c-2.704-.361-5.125-2.344-5.82-5.254-.645-2.627.411-5.409 2.523-7.083a6.552 6.552 0 0 1 3.864-1.416l-2.215-6.078-.67-1.829-2.55-1.004s-11.332 13.16-8.473 21.015c1.751 4.817 5.718 8.216 10.328 9.452 3.425.928 7.185.67 10.688-1.081 6.953-3.451 10.018-11.77 7.34-19.059l-5.589-15.401Z" fill="#E01E67"/><path d="M51.526 165.509a19.475 19.475 0 0 0 12.028-.464l-2.19-6.026-.618-1.726a11.235 11.235 0 0 1-6.49.387 11.412 11.412 0 0 1-7.288-5.331c-.36-.593-.644-1.237-.902-1.906l-7.726 2.833 11.306 31.008c1.133 3.529-.695 7.34-4.198 8.628a7.255 7.255 0 0 1-3.297.36c-2.704-.36-5.125-2.343-5.82-5.253-.644-2.627.412-5.409 2.524-7.083a6.551 6.551 0 0 1 3.863-1.416l-2.215-6.079-.67-1.828a18.92 18.92 0 0 0-1.982.567c-7.856 2.858-11.925 11.589-9.04 19.444 1.751 4.816 5.717 8.216 10.327 9.452 3.426.927 7.186.67 10.688-1.082 6.954-3.451 10.019-11.769 7.34-19.058l-5.64-15.427Z" fill="#5CE0D2"/><path d="M53.57 166.735a19.482 19.482 0 0 0 12.027-.464l-2.19-6.027-.618-1.725a11.235 11.235 0 0 1-6.49.386 11.405 11.405 0 0 1-7.288-5.331c-.361-.592-.644-1.236-.902-1.906l-7.726 2.833 11.306 31.009c1.133 3.528-.695 7.34-4.198 8.628a7.255 7.255 0 0 1-3.297.36c-2.704-.361-5.125-2.344-5.82-5.254-.644-2.627.412-5.408 2.524-7.082a6.56 6.56 0 0 1 3.863-1.417l-2.215-6.078-.67-1.829c-.669.155-1.313.335-1.982.567-7.856 2.859-11.925 11.59-9.04 19.445 1.751 4.816 5.717 8.216 10.327 9.452a14.97 14.97 0 0 0 10.688-1.082c6.954-3.451 10.019-11.77 7.34-19.058l-5.64-15.427Z" fill="#fff"/><path d="M234.8 113.388c-1.584-.8-3.241-.595-4.54-.038-.336-12.394-9.654-23.042-22.31-24.634-12.657-1.591-24.432 6.404-27.879 18.317-1.178-.886-2.705-1.415-4.469-1.045-2.17.456-3.977 1.968-4.556 3.931-1.08 3.626 1.345 7.083 4.828 7.484.736.129 1.577.094 2.227-.184.543-.114 1.171.179 1.15.75 1.735 10.966 10.44 20.044 22.061 21.428 11.65 1.52 22.296-5.105 26.821-15.261.186-.464.835-.743 1.328-.421.656.429 1.392.557 2.127.686 3.484.402 6.719-2.402 6.521-6.043-.02-2.12-1.289-4.119-3.309-4.97Z" fill="#E01E67"/><path d="M242.262 258.207H144.26V190.5c0-19.66 15.926-35.586 35.586-35.586h26.857c19.66 0 35.586 15.926 35.586 35.586v67.707h-.027Z" fill="#FFCD6C"/><path d="M236.272 231.162v-17.779M147.67 231.162v-17.779" stroke="#000" stroke-width=".426" stroke-miterlimit="10" stroke-linecap="round" stroke-linejoin="round"/><path d="M118.1 195.523s17.725-35.371 51.78-46.141c12.113-3.841 33.921-5.345 51.969 1.853 39.078 15.631 55.138 56.884 57.18 63.625.51 1.665-6.151 43.348-6.151 43.348" fill="#FFCD6C"/><path d="m204.339 224.05 65.212-18.506-11.57-40.771-65.212 18.506 11.57 40.771Z" fill="#fff"/><path d="m261.894 178.71 4.351 15.309-37.573-20.949 15.309-4.351 17.913 9.991ZM203.643 180.161l15.308-4.351 46.839 26.132-3.088 5.532-6.715 1.907-52.344-29.22ZM197.25 199.229l-4.324-15.308 45.979 25.648-3.088 5.533-6.714 1.907-31.853-17.78Z" fill="#DBDBDB"/><path d="m260.893 175.248-65.211 18.506 8.586 30.255 65.211-18.506-8.586-30.255Z" fill="#fff"/><path d="m242.181 180.59-13.509-7.52 15.309-4.351 13.509 7.52-15.309 4.351Z" fill="#DBDBDB"/><path d="m236.184 130.264-50.759 44.929 7.245 8.185 50.759-44.929-7.245-8.185Z" fill="#fff"/><path d="m207.321 170.357.94-15.443-11.925 10.555-.94 15.416 11.925-10.528ZM227.411 152.551l.94-15.416-11.925 10.555-.94 15.416 11.925-10.555ZM236.863 144.171l6.607-5.828-5.828-6.606-.779 12.434Z" fill="#DBDBDB"/><path d="m207.349 218.727 57.125-16.222" stroke="#000" stroke-width=".426" stroke-miterlimit="10" stroke-linecap="round" stroke-linejoin="round"/><path d="m258.301 180.855-57.151 16.218 5.118 18.034 57.151-16.218-5.118-18.034Z" fill="#55C5FF"/><path d="M215.431 162.166c-.833-.94-2.229-1.128-3.25-.43l-2.605 1.719-10.34-.698 5.237-4.486-10.313 3.304a15.032 15.032 0 0 0-6.016 3.545l-9.293 9.051-11.978 9.454 15.228 20.546 12.569-12.194c2.391-2.309 4.351-5.022 5.855-7.976l1.853-3.707c1.961-3.948 4.674-7.439 7.977-10.366l4.834-4.271a2.445 2.445 0 0 0 .242-3.491Z" fill="#E01E67"/><path d="m209.576 163.455-6.258 3.357a22.055 22.055 0 0 0-4.029 2.793l-5.156 4.593" stroke="#000" stroke-width="1.514" stroke-linecap="round" stroke-linejoin="round"/><path d="m189.38 168.719 5.747-4.512a6.68 6.68 0 0 1 4.566-1.424l9.884.672" stroke="#000" stroke-width="1.514" stroke-linecap="round" stroke-linejoin="round"/><path d="m216.048 164.959.564.107c1.316.242 2.149 1.558 1.853 2.847a2.374 2.374 0 0 1-2.121 1.8l-6.204.456 5.908-5.21ZM250.56 224.314l-7.628-6.017a24.122 24.122 0 0 0-12.838-5.129 35.764 35.764 0 0 1-5.291-.886l-10.071-2.471a2.37 2.37 0 0 0-2.713 1.262 2.407 2.407 0 0 0 .887 3.142l8.272 5.076-20.895 5.936c-2.928 1.101-1.451 4.431.241 4.351 4.593-.215 18.371-.135 18.371-.135a9.544 9.544 0 0 1 6.123 2.015l11.012 8.648 14.53-15.792Z" fill="#E01E67"/><path d="m135.854 200.572 35.801-20.707 17.887 29.328s-36.096 24.118-48.262 31.235c-10.69 6.258-36.15 3.545-31.638-23.339 1.02-6.016 4.27-13.67 8.46-21.567" fill="#FFCD6C"/><path d="m171.868 179.703 6.231 9.535 8.863 10.259-2.095 2.042-13.214-21.674.215-.162ZM216.318 165.013l-3.921 4.995-2.283.161 5.936-5.21.268.054ZM192.71 166.113l4.297-3.33a7.494 7.494 0 0 1 2.713-1.316l1.289-.322-1.665 1.504-1.692.322a3.29 3.29 0 0 0-1.37.591l-3.572 2.551Z" fill="#000"/><path d="M275.824 206.66c24.494 53.822-4.915 72.514-28.119 53.097l-21.218-18.478 17.699-21.808 19.176 14.556" fill="#FFCD6C"/><path d="m187.391 210.616-43.16 34.495v-6.456l43.16-28.039ZM267.508 206.105l.752 2.283-28.281 8.003-3.303-1.692 30.832-8.594ZM216.667 90.438l-1.155-1.458c-1.541-1.942-4.268-2.786-6.596-1.731l-.921.335c-1.164.528-2.577.541-3.776.226l-3.026-.922c-1.799-.473-3.728-.21-5.156 1.082l-1.942 1.541c-.836.742-2.029 1.134-3.142 1.226l-.842.035c-2.499.242-4.549 1.947-5.043 4.316-.393 1.5-1.386 2.841-2.793 3.561-2 1.27-1.515 3.576-1.673 4.176-.279 2.041-2.099 2.14-1.501 4.989.521.457 1.013.778 1.398 1.264.742.836 2.098.551 2.47-.377 1.651-3.604 4.696-9.342 8.151-9.076 2.584.165 3.825 2.029 14.71 3.285 10.779 1.419 12.586-.093 14.956.401 3.405.701 5.015 7.02 5.677 10.846.228 1.086 1.455 1.536 2.348 1.065.514-.249 1.406-.72 2.056-.998-.234-1.792.151-1.306.116-2.148.151-1.307-1.027-2.193-.491-3.013.857-1.313.951-2.891-.12-3.941l-.52-.457c-.685-.564-1.02-1.486-.92-2.357.015-1.277-.648-2.413-1.905-2.999l-.3-.078c-.956-.508-1.726-1.48-1.818-2.593l-.235-1.792c-.206-1.656-1.604-2.92-3.317-2.986l-2.257.05c-.899-.237-1.855-.744-2.433-1.472Z" fill="#000"/></g></g></g><defs><clipPath id="a"><path fill="#fff" d="M0 0h400v300H0z"/></clipPath></defs></svg>