<svg viewBox="0 0 400 300" fill="none" xmlns="http://www.w3.org/2000/svg"><path opacity=".3" d="M312.037 257.06V90.727c0-6.32-5.124-11.445-11.445-11.445H113.296c-6.321 0-11.444 5.124-11.444 11.445V257.06h210.185Z" stroke="#E01E67" stroke-width=".954"/><path opacity=".3" d="m164.796 79.282 3.599 12.974a5.722 5.722 0 0 0 5.514 4.193h65.701a5.722 5.722 0 0 0 5.514-4.193l3.599-12.974" stroke="#E01E67" stroke-width=".954"/><g clip-path="url(#a)"><path d="M311.013 178.786c-1.176-.268-26.031 5.99-37.707 9.06 5.589 8.073 15.978 26.125 19.428 30.001 4.101-1.172 20.535-9.371 24.92-11.88 0-6.226-6.641-17.185-6.641-27.181Z" fill="#E01E67"/><path d="M306.21 200.721c-2.385-4.292-1.113-8.265.477-10.014l15.736 13.352c-2.067.795-11.54 5.532-13.829 6.676-3.815 0-5.245-8.583-2.384-10.014Z" fill="#000"/><path d="M100.684 229.81c.615-1.038 21.935-9.061 36.718-15.26 2.861 9.537 7.118 22.641 7.556 27.811-3.672 2.169-38.483 12.699-43.321 14.153-.476-6.2-1.43-15.737-.953-26.704Z" fill="#E01E67"/><path d="m306.747 178.345-17.487 4.681c-3.992.709-9.69 1.482-11.185-3.286-1.754-5.595 9.784-10.491 16.01-11.582 7.832-1.371 23.493-4.95 30.248 1.091 8.445 7.55 10.488 19.551 8.93 28.059-.974 5.321-2.472 8.817-8.93 10.73-5.165 1.53-9.195 1.558-10.565 1.381-2.076-.269-4.319-.36-5.16-4.481-.739-3.617 2.806-5.473 5.351-6.145-2.362.342-6.041-.214-7.337-4.52-1.127-3.741 2.01-5.706 4.999-6.576-3.108.306-6.895-.294-7.807-3.955-.652-2.618.869-4.331 2.933-5.397Z" fill="#E93277"/><path d="M322.899 197.383c-3.656 0-16.69.477-14.783 8.584M322.423 186.415c-5.881-.317-18.12.477-15.736 9.538" stroke="#000" stroke-width=".954" stroke-linecap="round"/><path d="M319.224 175.971c-5.881-.318-17.262.858-15.736 8.107.066 1.574 2.706 4.054 8.921 3.291" stroke="#000" stroke-width=".954" stroke-linecap="round"/><path d="m99.682 221.546 16.013-8.444c3.411-2.192 8.118-5.496 5.976-10.011-2.513-5.296-14.307-1.052-19.617 2.378-6.68 4.314-20.602 12.326-21.457 21.348-1.067 11.277 5.585 21.471 12.508 26.657 4.33 3.243 7.804 4.791 13.842 1.808 4.83-2.386 7.807-5.103 8.691-6.163 1.341-1.608 2.926-3.198.744-6.794-1.915-3.156-5.777-2.11-8.102-.874 1.966-1.354 4.288-4.261 2.314-8.302-1.715-3.511-5.351-2.822-8.136-1.429 2.489-1.888 4.861-4.9 3.043-8.207-1.3-2.364-3.58-2.588-5.819-1.967Z" fill="#E93277"/><path d="M100.763 246.488c2.683-2.483 12.028-10.571 16.135-3.326.795 1.112 1.526 4.005-1.907 6.676M93.662 238.116c4.1-4.229 12.745-11.167 17.036-4.015" stroke="#000" stroke-width=".954" stroke-linecap="round"/><path d="M88.914 228.278c4.1-4.228 13.251-11.096 17.055-4.74 1.021 1.2.769 4.813-4.31 8.475" stroke="#000" stroke-width=".954" stroke-linecap="round"/><path d="M235.037 148.811c7.514 7.514 9.392 43.988 8.87 54.076l-22.436 13.756-42.265-3.653h-38.383l40.471-46.438c14.783-9.045 46.229-25.255 53.743-17.741Z" fill="#000"/><path fill-rule="evenodd" clip-rule="evenodd" d="M236.545 157.764c-.983 15.858-14.598 28.426-31.25 28.426-10.48 0-19.757-4.978-25.44-12.621a12.99 12.99 0 0 1-5.345 1.142c-7.204 0-13.044-5.84-13.044-13.045 0-7.204 5.84-13.044 13.044-13.044.132 0 .264.002.395.006 3.378-13.188 15.703-22.965 30.39-22.965 8.376 0 15.984 3.18 21.602 8.359a12.985 12.985 0 0 1 7.097-2.098c7.204 0 13.044 5.841 13.044 13.045 0 6.331-4.51 11.609-10.493 12.795Z" fill="#E01E67"/><path d="m222.218 157.979-23.781-2.676c-.218 3.432 1.98 12.546 10.921 13.853 7.895 1.154 11.819-5.733 12.86-11.177Z" fill="#fff"/><path d="M222.514 110.199c-6.679-11.688-22.959-1.739-30.264 4.696-.695-1.565-3.13-4.279-7.305-2.609-5.217 2.087-3.13 12.523 0 17.219-4.348 2.846-12.418 10.691-9.913 19.306l12.001 4.696c6.261-9.032 6.087-19.765 5.217-24.002.696.522 2.922 1.669 6.262 2.087 4.174.522 32.35-6.783 24.002-21.393Z" fill="#000"/><path d="M174.474 169.197c2.098 0 3.799 3.888 3.799 8.684 0 4.796-1.701 8.684-3.799 8.684s-3.799-3.888-3.799-8.684c0-1.302.125-2.537.35-3.645M239.062 159.428c0 4.196 1.458 7.598 3.256 7.598 1.799 0 3.257-3.402 3.257-7.598 0-4.197-1.458-7.599-3.257-7.599" stroke="#5CE0D2" stroke-width="1.085"/><path d="M228.482 194.999c-3.433-.382-21.458 2.861-48.639 6.676.953 4.61 5.15 14.782 14.306 18.597 11.444 4.769 17.166 1.908 21.458 1.431 4.292-.477 17.167-10.968 17.644-11.445.477-.477-.477-14.782-4.769-15.259Z" fill="#E01E67"/><path d="M220.845 212.166c-14.96 4.306-29.128-2.715-40.767-10.491-15.494 3.338-26.462 6.199-42.675 12.875l7.622 28.135c30.105 4.354 26.647 30.604 24.966 42.917h10.087c17.846-11.665 101.7-14.775 113.727-14.775-7.759-20.608-13.829-30.05-20.618-41.604 8.171-4.182 12.988-7.043 20.618-11.335-2.975-6.61-14.73-22.742-19.075-30.519-8.583.954-27.173 3.815-46.724 7.63 1.811 3.381 4.182 13.902-7.161 17.167Z" fill="#7453E9"/><mask id="b" style="mask-type:alpha" maskUnits="userSpaceOnUse" x="137" y="187" width="157" height="99"><path d="M220.844 212.166c-14.96 4.306-29.128-2.714-40.767-10.491-15.494 3.338-26.461 6.199-42.675 12.875l7.622 28.135c30.105 4.355 26.647 30.605 24.966 42.917h10.087c17.846-11.664 101.7-14.775 113.727-14.775-7.759-20.608-13.829-30.05-20.618-41.604 8.171-4.182 12.988-7.043 20.618-11.335-2.975-6.61-14.73-22.742-19.075-30.519-8.583.954-27.173 3.815-46.724 7.63 1.811 3.382 4.182 13.902-7.161 17.167Z" fill="#7453E9"/></mask><g mask="url(#b)"><path opacity=".6" d="m154.569 288.244 134.474-94.199-40.284 14.111 1.859 27.723 8.056 13.553 3.098 17.25c-1.652 10.473-6.94 29.448-14.872 21.562-7.932-7.886-63.62-67.356-90.472-96.106l47.715 86.865 91.097-67.092-157.361 26.005 51.392 36.775-2.479-75.776 38.42 83.784 56.201-10.926-34.513-86.311-30.34 6.676 42.114 99.186-59.757-97.279" stroke="#fff" stroke-width=".381"/></g><path stroke="#000" stroke-width=".954" stroke-linecap="round" d="m162.801 242.033 8.282 24.845"/></g><path d="m300.579 117.56-3.069 25.961a2.056 2.056 0 0 0 1.805 2.289l12.991 1.536c.547.064 1.048.35 1.387.78l6.148 7.796 7.795-6.148c.431-.339.984-.5 1.531-.435l12.991 1.536a2.056 2.056 0 0 0 2.289-1.805l3.069-25.961a2.056 2.056 0 0 0-1.805-2.289l-42.843-5.065a2.069 2.069 0 0 0-2.289 1.805Z" fill="#5783FC"/><path d="m324.232 127.117-1.065.84-.84-1.066a5.839 5.839 0 0 0-8.208-.97 5.839 5.839 0 0 0-.97 8.208l.84 1.065 7.238 9.178 9.178-7.237 1.065-.84a5.838 5.838 0 0 0 .97-8.208 5.838 5.838 0 0 0-8.208-.97Z" fill="#fff"/><circle opacity=".3" cx="223.926" cy="87.866" r="2.861" stroke="#E01E67" stroke-width=".954"/><path opacity=".3" stroke="#E01E67" stroke-width=".954" stroke-linecap="round" d="M187.208 88.342h24.797"/><path d="M233.568 233.792c1.887 1.071 1.941 3.772.098 4.918l-26.827 16.676c-1.906 1.185-4.372-.186-4.372-2.43v-31.902c0-2.193 2.366-3.571 4.274-2.488l26.827 15.226Z" fill="#000"/><path d="M231.079 232.26c1.908 1.101 1.908 3.854 0 4.956l-24.319 14.041c-1.908 1.101-4.292-.276-4.292-2.478v-28.082c0-2.203 2.384-3.579 4.292-2.478l24.319 14.041Z" fill="#fff"/><path d="M100.833 186.005c-22.77 2.303-84.815-10.116-70.222-59.543 10.987-37.214 61.145 29.771 106.527-11.164M313.099 250.474c36.718-3.338 50.07-17.644 52.931-30.042 3.675-15.925.891-39.215-35.764-48.186" stroke="#F6BCD1" stroke-width=".954" stroke-linecap="round" stroke-dasharray="3.81 7.63"/><path d="M158.738 89.341a.822.822 0 0 1 .243.89l-6.048 19.815a.85.85 0 0 1-.923.591.885.885 0 0 1-.307-.11l-5.652-3.228-3.707 3.473a.781.781 0 0 1-.687.216.741.741 0 0 1-.286-.092.828.828 0 0 1-.361-.363.84.84 0 0 1-.09-.502l.607-4.601 13.238-12.467-15.708 10.344-4.928-2.823c-.309-.164-.454-.43-.43-.796.029-.354.202-.596.526-.725l23.616-9.77a.834.834 0 0 1 .897.148Z" fill="#EA5732"/><path d="m64.142 154.873-41.713 13.51 10.897 33.648 41.714-13.51-10.898-33.648Z" fill="#5CE0D2"/><path d="m73.017 182.262-41.713 13.51 2.038 6.292 41.713-13.509-2.038-6.293Z" fill="#221916"/><path d="m35.442 197.826 35.155-11.381" stroke="#FFEDED" stroke-width=".954" stroke-miterlimit="10" stroke-linecap="round" stroke-linejoin="round"/><path d="M38.948 198.048a1.405 1.405 0 1 0-2.261-1.669 1.405 1.405 0 0 0 2.261 1.669Z" fill="#5CE0D2"/><path d="m47.184 182.59-3.208-10.28 9.873 2.395-6.665 7.885Z" fill="#fff" stroke="#000" stroke-width=".954" stroke-miterlimit="10"/><path stroke="#000" stroke-width=".926" stroke-linecap="round" d="M.463 256.597h399.074"/><defs><clipPath id="a"><path fill="#fff" transform="translate(59.26 105.208)" d="M0 0h281.481v151.852H0z"/></clipPath></defs></svg>