<svg viewBox="0 0 400 300" fill="none" xmlns="http://www.w3.org/2000/svg"><g clip-path="url(#a)"><path opacity=".3" d="M14.815 102.852c0-8.182 6.632-14.815 14.814-14.815H370.37c8.182 0 14.815 6.633 14.815 14.815v154.629H14.815V102.852Z" stroke="#E01E67" stroke-width=".926"/><path opacity=".3" d="m24.954 97.296 166.776 98.148 183.316-98.148" stroke="#E01E67" stroke-width=".926"/><path d="m326.808 167.879 13.43 121.211-36.42 5.121-7.967-61.458-10.926 88.66H171.112l18.325-68.402h-10.016c-15.023 0-26.29-13.771-23.331-28.567l5.576-26.973h34.485l7.967-23.104c3.642-13.771 19.348-28.795 37.558-30.274l29.25-2.049 21.283-1.479a32.582 32.582 0 0 1 22.08 6.601c7.512 5.691 12.177 14.454 12.746 23.901" fill="#FC466F"/><path d="M303.241 141.74c4.321.463 13.518 7.686 15.74 31.019 2.223 23.333 5.556 66.821 6.945 85.648" stroke="#fff" stroke-width=".463"/><path d="M328.241 258.407c-1.389-18.827-4.722-62.315-6.944-85.648-1.476-15.496-6.028-23.682-10.186-27.568" stroke="#fff" stroke-width=".463"/><path d="m197.859 219.893-9.901 37.786" stroke="#211E42" stroke-width=".877" stroke-miterlimit="10" stroke-linecap="round" stroke-linejoin="round"/><path d="M293.899 110.639c-1.495-.935-3.152-.88-4.488-.448.785-12.288-7.471-23.662-19.847-26.377-12.375-2.716-24.744 4.13-29.228 15.603-1.085-.982-2.548-1.643-4.326-1.436-2.188.255-4.111 1.588-4.861 3.477-1.395 3.489.692 7.127 4.101 7.839.716.193 1.552.234 2.219.018.547-.064 1.143.283 1.07.846.728 11.003 8.519 20.768 19.889 23.185 11.387 2.554 22.515-3.04 27.906-12.677.226-.442.894-.659 1.352-.297.611.484 1.327.677 2.042.871 3.41.711 6.863-1.77 6.996-5.389.171-2.099-.904-4.191-2.825-5.215Z" fill="#7DB5FF"/><path d="M270.309 113.659a8.168 8.168 0 0 1-15.892-3.781" stroke="#000" stroke-width="1.984" stroke-linecap="round"/><path d="m278.377 85.697-1.011-1.546c-1.349-2.06-3.97-3.141-6.368-2.307l-.942.248c-1.198.417-2.597.303-3.754-.117l-2.911-1.185c-1.736-.63-3.668-.543-5.197.606l-2.06 1.349c-.894.658-2.109.939-3.219.93l-.836-.042c-2.493.013-4.675 1.515-5.377 3.814-.524 1.447-1.628 2.685-3.084 3.27-2.092 1.076-1.821 3.401-2.031 3.98-.46 1.994-2.27 1.927-1.935 4.8.474.498.932.861 1.269 1.376.658.894 2.026.734 2.477-.15 1.958-3.416 5.488-8.817 8.881-8.243 2.541.397 3.6 2.353 14.255 4.576 10.534 2.376 12.457 1.043 14.757 1.746 3.304 1 4.327 7.396 4.637 11.241.127 1.094 1.301 1.65 2.227 1.265.531-.201 1.455-.585 2.123-.802-.07-1.794.268-1.278.309-2.115.267-1.278-.819-2.261-.215-3.025.967-1.221 1.202-2.773.238-3.908l-.474-.499c-.627-.62-.875-1.562-.697-2.414.13-1.263-.424-2.445-1.614-3.138l-.289-.105c-.9-.589-1.574-1.619-1.565-2.729l-.071-1.793c-.054-1.657-1.323-3.034-3.012-3.253l-2.236-.155c-.869-.315-1.769-.903-2.275-1.675Z" fill="#4E0299"/><path d="m241.677 144.208-42.224 177.32" stroke="#211E42" stroke-width=".877" stroke-miterlimit="10" stroke-linecap="round" stroke-linejoin="round"/><path d="M242.132 321.527h-42.224l16.161-69.197h36.989l-10.926 69.197Z" fill="#000"/><path d="M188.978 126.074h12.449a3.506 3.506 0 0 1 3.507 3.538l-.407 45.786c-.113 1.479-1.778 2.271-3.371 2.271H176.8c-1.48 0-2.732-1.138-2.959-2.618v-45.47a3.507 3.507 0 0 1 3.507-3.507h11.63Z" fill="#7453E9"/><path stroke="#fff" stroke-width=".877" d="M186.116 129.806h6.137"/><path d="m196.151 197.586 4.326-19.804h-24.469v2.049-2.049l7.624-8.877c.569-.683 1.366-1.025 2.276-1.025h7.171c1.821 0 3.415-1.479 3.415-3.414 0-1.821-1.48-3.414-3.415-3.414h-.683 1.025c1.821 0 3.414-1.48 3.414-3.415 0-1.821-1.48-3.414-3.414-3.414h-.911.683a3.545 3.545 0 0 0 3.528-3.528 3.545 3.545 0 0 0-3.528-3.528h-7.854c-1.935 0-3.982.114-5.917.455l-6.374.797 12.178-7.967c1.707-1.138 2.276-3.414 1.138-5.122-1.024-1.593-3.073-2.276-4.78-1.479-3.415 1.479-10.926 6.487-15.706 9.788-2.846 1.934-4.438 5.235-4.097 8.535l1.934 27.771a33.899 33.899 0 0 1-.341 8.308c-.342 1.935-.911 5.236-1.707 8.991" fill="#7DB5FF"/><path d="M193.387 154.223h-5.919c-1.593 0-3.3.114-4.893.456l-7.967 1.138M175.632 162.759l6.943-1.365a17.34 17.34 0 0 1 3.414-.342h8.309" stroke="#211E42" stroke-width=".877" stroke-miterlimit="10" stroke-linecap="round" stroke-linejoin="round"/><path d="m196.151 197.585-8.422 38.014" stroke="#211E42" stroke-width=".877" stroke-miterlimit="10" stroke-linecap="round"/><path d="M161.667 197.585h34.484" stroke="#211E42" stroke-width=".877" stroke-miterlimit="10"/><path d="M205.043 158.84c-2.276 0-3.983-1.934-3.756-4.096l.683-7.057c.228-1.935 1.821-3.414 3.755-3.414 2.277 0 3.985 1.935 3.757 4.097l-.683 7.056c-.228 1.935-1.821 3.414-3.756 3.414Z" fill="#7DB5FF"/><path d="m291.754 203.162-3.415 94.351 7.626-64.646-4.211-29.705ZM199.369 181.213l-3.43 17.146 7.716-21.861-27.648 1.285v1.024l23.362 2.406ZM185.908 141.134l-12.944 7.522h-.569l13.257-8.594s3.001-2.571-.421-5.913c-.455-.683 1.479 0 1.707.341 2.732 4.325.45 5.734-1.03 6.644ZM201.97 148.256l-.911 7.967c-.228 1.707.57 3.415 2.049 4.439l1.366.334v-2.192s-2.091-.408-2.63-2.192c-.54-1.784.126-8.356.126-8.356ZM182.039 171.067s-7.057 6.032-1.025 6.146l-5.007.455 6.032-6.601Z" fill="#000"/><path d="m290.843 194.171 5.008 38.696" stroke="#211E42" stroke-width=".877" stroke-miterlimit="10" stroke-linecap="round"/><path d="M253.057 252.33h-36.989l25.608-108.122 30.388-2.048-19.007 110.17Z" fill="#F7F7FF"/><path d="m239.173 155.361 2.503-11.153 30.388-2.048-1.935 11.381c-21.169 13.657-30.956 1.82-30.956 1.82Z" fill="#7DB5FF"/><path d="M268.81 142.206s-20.077 1.547-24.743 4.392c-3.414 2.049-5.008 8.85-5.691 11.468l3.001-14.145 27.433-1.715ZM99.1 134.305s-4.316 9.095-13.76 13.293c-6.18 2.798-19.356 12.36-18.657 27.168.7 15.042-15.973 8.745-15.973 23.67 0 19.706 37.195 14.575 49.672-5.713 9.328-15.042 10.144-26.819 10.144-26.819S94.552 149.463 99.1 134.305Z" fill="#000"/><path d="M65.98 180.629c2.096-3.695 11.004-14.04 14.148-8.867 2.86 4.705-9.432 7.636-14.148 8.867Z" stroke="#fff" stroke-width="2.098"/><path d="M117.756 167.071c11.914 0 21.572-9.658 21.572-21.572 0-11.913-9.658-21.571-21.572-21.571-11.913 0-21.57 9.658-21.57 21.571 0 11.914 9.657 21.572 21.57 21.572Z" fill="#E01E67"/><path d="M118.805 124.043c-4.081-.583-21.804 2.915-22.62 19.939-.816 17.024 14.458 21.921 14.458 21.921l.349-8.978c0-.817-.582-1.516-1.398-1.516-2.215 0-4.431-1.516-4.897-4.081-.35-1.632.349-3.498 1.631-4.547a5.379 5.379 0 0 1 3.849-1.166c.583.116 11.194 2.448 12.826-5.015a6.205 6.205 0 0 1 5.597-4.897c1.632-.116 3.148-1.049 4.081-2.565l1.166-2.099c-5.247-5.13-10.961-6.413-15.042-6.996Z" fill="#000"/><path d="M51.392 249.56 37.58 271.808h77.18l4.324-19.19-67.692-3.058Z" fill="#55C5FF"/><path d="m99.366 204.221 10.228 47.975 4.006.106-14.234-48.081Z" fill="#000"/><path d="m263.65 193.995-11.704 57.992h-71.804v1.476a4.5 4.5 0 0 0 4.534 4.534h66.11c3.48 0 6.432-2.425 7.17-5.905l10.228-51.138c.843-3.163-1.265-6.326-4.534-6.959Z" fill="#66DED2"/><path d="M197.002 215.398s1.688-.105 3.375.211l-3.375-.211Z" fill="#fff"/><path d="M197.002 215.398s1.688-.105 3.375.211" stroke="#211E42" stroke-width="2.213" stroke-miterlimit="10" stroke-linecap="round" stroke-linejoin="round"/><path d="M175.253 217.089s21.817-11.572 40.599-8.063c1.612.285 2.656 1.897 2.277 3.51-.38 1.423-1.803 2.371-3.226 2.087-7.209-1.139-10.718 0-10.718 0 4.837.853 12.711 5.976 11.572 15.556-.189 1.328-1.233 2.656-2.466 2.656 0 0-.475 3.226-3.131 3.32 0 0-.948 5.785-5.407 6.733-.948.19-1.991-.189-2.655-.948-.949-1.708.517-3.969.517-3.969 2.087-4.553-.612-5.136-1.94-5.8-.474-.189-.949 0-1.139.475-.379 1.233-1.232 3.01-2.56 4.907-1.328 1.898-3.133 3.134-5.64 4.387l-5.838 2.753-10.245-27.604Z" fill="#E01E67"/><path d="m185.279 244.655-10.026-27.153-35.188 10.232-11.281-38.59c-2.214-8.33-7.17-12.653-10.228-14.34-11.176-6.221-26.465-2.214-34.9 11.809l-32.264 63.052 59.362 2.636 1.687 5.588c2.531 8.119 12.126 11.915 21.088 8.541H171.17v-14.656l14.109-7.119Z" fill="#FFCD6C" stroke="#FFCD6C" stroke-width="2.213" stroke-miterlimit="10" stroke-linecap="round" stroke-linejoin="round"/><path d="M213.29 232.835c.569-13.47-12.9-14.608-12.9-14.608" stroke="#211E42" stroke-width="1.052" stroke-miterlimit="10" stroke-linecap="round"/><path d="M199.821 223.159c1.897 0 11.668 2.277 10.34 13.09" stroke="#211E42" stroke-width="1.052" stroke-miterlimit="10" stroke-linecap="round"/><path d="M201.622 213.903c1.422.094 2.845.474 2.845.474l-2.845-.474Z" fill="#fff"/><path d="M201.622 213.903c1.422.094 2.845.474 2.845.474" stroke="#211E42" stroke-width="1.991" stroke-miterlimit="10" stroke-linecap="round" stroke-linejoin="round"/><path d="M201.553 213.672s4.079-1.233 10.055.095c0 0-5.028-.569-6.925.379l-3.13-.474Z" fill="#000" stroke="#211E42" stroke-width="1.052" stroke-miterlimit="10" stroke-linecap="round" stroke-linejoin="round"/><path d="m176.094 218.036 11.017 25.992-1.708.758-9.309-26.75ZM99.366 214.027l7.17 37.536 4.112.317-11.282-37.853ZM158.307 256.835s-18.346 6.115-15.288 9.7l-8.226-.211 23.514-9.489Z" fill="#000"/><path d="m171.17 251.774-37.641 14.656" stroke="#211E42" stroke-width="2.213" stroke-miterlimit="10" stroke-linecap="round" stroke-linejoin="round"/><path d="m110.648 251.88-12.652-42.703" stroke="#211E42" stroke-width="1.052" stroke-miterlimit="10" stroke-linecap="round" stroke-linejoin="round"/><path d="M208.686 76.369h-39.865c-6.944 0-12.516 5.658-12.516 12.516s5.658 12.517 12.516 12.517h12.089l5.15 5.15a3.507 3.507 0 0 0 4.959 0l5.151-5.15h12.602c6.944 0 12.516-5.659 12.516-12.517s-5.744-12.516-12.602-12.516Z" fill="#66DED2"/><path d="M173.366 90.943a2.143 2.143 0 1 0 0-4.286 2.143 2.143 0 0 0 0 4.286ZM188.711 90.943a2.143 2.143 0 1 0 0-4.286 2.143 2.143 0 0 0 0 4.286ZM204.142 90.943a2.144 2.144 0 1 0 0-4.287 2.144 2.144 0 0 0 0 4.287Z" fill="#fff"/><path d="M15.166 227.852a4.167 4.167 0 1 0 0-8.334 4.167 4.167 0 0 0 0 8.334Z" fill="#5783FC"/><path d="M39.64 136.284h7.582M43.432 132.493v7.709" stroke="#F0C2DE" stroke-width="1.334" stroke-miterlimit="10" stroke-linecap="round" stroke-linejoin="round"/><path d="m361.349 134.228 2.339 1.567a.845.845 0 0 0 .958.081l2.664-1.03c.837-.356 1.68.426 1.368 1.24l-.77 2.729c-.086.303-.019.645.146.93l1.765 2.153c.537.705.084 1.728-.82 1.742l-2.81.101a1.605 1.605 0 0 0-.879.507l-1.492 2.384c-.465.776-1.577.656-1.919-.161l-.982-2.605c-.067-.342-.329-.571-.732-.592l-2.75-.697c-.861-.137-1.019-1.314-.39-1.804l2.224-1.792a.847.847 0 0 0 .41-.871l-.187-2.81c.104-.948 1.081-1.513 1.857-1.072Z" fill="#E01E67"/><path stroke="#000" stroke-width=".926" stroke-linecap="round" d="M.463 257.018h399.074"/></g><defs><clipPath id="a"><path fill="#fff" transform="translate(0 76)" d="M0 0h400v181.481H0z"/></clipPath></defs></svg>