<svg viewBox="0 0 400 300" fill="none" xmlns="http://www.w3.org/2000/svg"><path d="m110.896 222.662 44.596-40.773h-46.371v39.991c0 .921 1.095 1.404 1.775.782Z" fill="#000"/><path d="M109.121 67.95A7.95 7.95 0 0 1 117.07 60h137.788a7.95 7.95 0 0 1 7.949 7.95v116.589a7.95 7.95 0 0 1-7.949 7.949H109.121V67.949Z" fill="#DFE8FE"/><path stroke="#011650" stroke-width="2.65" stroke-miterlimit="10" stroke-linecap="round" d="M131.643 91.092h24.581M131.643 111.67h108.64M131.814 129.654h53.108"/><path d="m173.394 225.196 19.299-80.559a2.648 2.648 0 0 1 3.109-1.978c25.146 5.18 69.697 14.54 91.647 18.753 1.651.317 2.58 2.062 1.974 3.629-11.163 28.852-13.709 60.758-13.111 74.377.076 1.736-1.428 3.175-3.148 2.93l-97.567-13.911a2.65 2.65 0 0 1-2.203-3.241Z" fill="#FF0258"/><path d="M193.158 201.011c6.111-.138 19.664-3.063 21.121-11.45 1.457-8.387-1.555-11.071-4.932-11.657-3.376-.587-8.083 1.476-9.297 8.464-1.825 10.507 2.393 16.257 14.211 18.31 9.454 1.642 20.83-.859 18.097-4.056-1.716-2.008-5.911 1.747 3.492 4.926 13.142 4.444 16.409-4.349 23.162-3.176 5.402.939 7.631 6.126 8.071 8.603" stroke="#fff" stroke-width="2.65" stroke-miterlimit="10" stroke-linecap="round"/><path opacity=".8" d="m240.897 168.212-18.532-28.974 48.198 11.571-29.666 17.403Z" fill="#fff"/></svg>