<svg viewBox="0 0 400 300" fill="none" xmlns="http://www.w3.org/2000/svg"><path d="M102.171 254.111s80.056-42.343 45.624-76.701c-21.494-21.451-39.434-53.255-41.247-82.822C104.855 66.95 129.787 44.901 159.055 45c22.437.077 39.942 10.981 54.223 26.212 11.918 12.704 32.687 54.036 56.248 47.974 5.076-1.305 8.682-5.312 12.712-8.474 18.448-14.507 26.74 9.991 26.949 23.05.24 14.96-3.064 30.06-6.667 44.56-2.138 8.609-18.745 75.789-24.738 75.789H102.171Z" fill="#E9F3FD"/><path d="M249.596 71.16h15.772" stroke="#000" stroke-width=".511" stroke-linecap="round" stroke-linejoin="round"/><path d="m294.597 253.365-73.623.238a10.266 10.266 0 0 1-7.236-2.981 10.263 10.263 0 0 1-3.028-7.216l-.538-166.089a10.259 10.259 0 0 1 10.197-10.27l73.623-.238a10.261 10.261 0 0 1 10.264 10.197l.531 166.096a10.26 10.26 0 0 1-10.19 10.263Z" stroke="#000" stroke-width=".255" stroke-miterlimit="10"/><path d="m284.101 71.388-4.504.015c-.386 3.524-3.32 6.295-6.847 6.305l-31.85.105c-3.534 0-6.476-2.74-6.895-6.262h-4.507c-8.558.028-15.534 7.237-15.506 16.022l.482 145.465c.029 8.784 7.054 15.948 15.609 15.92l54.596-.177c8.555-.028 15.531-7.237 15.503-16.022l-.47-145.474c-.03-8.785-7.053-15.948-15.611-15.92" fill="#C7E5FA"/><path d="m220.731 82.606 9.419-.03M220.629 84.864l7.14-.023M220.637 87.349l5.72-.018" stroke="#000" stroke-width=".511" stroke-linecap="round" stroke-linejoin="round"/><g clip-path="url(#a)"><path fill-rule="evenodd" clip-rule="evenodd" d="M101.966 235.591c-8.182 4.934 6.502 18.724 6.502 18.724l-13.055 8.851c-2.623-1.24-4.426-2.659-5.654-4.095l-5.273 5.939c-4.61-.204-9.466-1.731-11.693-6.093-.706-1.381-.765-3.181-.823-4.953-.075-2.313-.149-4.579-1.657-5.803-1.226-.994-3.003-1.423-4.517-1.678-.79-.14-5.325-.924-5.928-.14 3.06-3.994-2.351-1.459-2.351-1.459-1.802-.612-2.57-4.116-3.16-6.801-.234-1.068-.44-2.006-.671-2.581-.51-1.269-5.194-9.852-6.683-9.308 6.438-2.347 13.366-.728 18.854 3.138 2.34 1.65 3.859 3.915 5.164 6.423.135.26.382.876.69 1.64.828 2.065 2.09 5.207 2.732 5.291.81.105 7.776 4.002 13.276 7.135.363-1.947-1.808-4.786-1.808-4.786-6.962-6.292-1.088-12.296-1.088-12.296 2.523-2.585 1.044-7.161-.828-9.577-.705-.91-1.841-1.595-2.99-2.286-1.898-1.144-3.83-2.308-3.905-4.547-.041-1.242.625-2.31 1.298-3.39.359-.575.719-1.153.975-1.761 1.198-2.83-.181-5.897-2.298-7.868-.439-.408-.917-.794-1.396-1.181-1.355-1.093-2.714-2.191-3.2-3.804-.66-2.183.625-4.63 2.553-5.874 1.928-1.243 4.323-1.501 6.622-1.407 4.096.166 8.25 1.428 11.315 4.153 4.377 3.902 5.874 10.204 5.618 16.063v.004c-.191 4.375-.328 7.502 2.901 10.721.38.38.781.753 1.183 1.126 1.998 1.857 4.03 3.744 3.636 6.791-.301 2.4-2.349 4.484-4.341 5.689Z" fill="#C7E5FA"/><mask id="b" style="mask-type:alpha" maskUnits="userSpaceOnUse" x="47" y="191" width="62" height="75"><path fill-rule="evenodd" clip-rule="evenodd" d="M101.966 235.591c-8.182 4.934 6.502 18.724 6.502 18.724l-13.055 8.851c-2.623-1.24-4.426-2.659-5.654-4.095l-5.273 5.939c-4.61-.204-9.466-1.731-11.693-6.093-.706-1.381-.765-3.181-.823-4.953-.075-2.313-.149-4.579-1.657-5.803-1.226-.994-3.003-1.423-4.517-1.678-.79-.14-5.325-.924-5.928-.14 3.06-3.994-2.351-1.459-2.351-1.459-1.802-.612-2.57-4.116-3.16-6.801-.234-1.068-.44-2.006-.671-2.581-.51-1.269-5.194-9.852-6.683-9.308 6.438-2.347 13.366-.728 18.854 3.138 2.34 1.65 3.859 3.915 5.164 6.423.135.26.382.876.69 1.64.828 2.065 2.09 5.207 2.732 5.291.81.105 7.776 4.002 13.276 7.135.363-1.947-1.808-4.786-1.808-4.786-6.962-6.292-1.088-12.296-1.088-12.296 2.523-2.585 1.044-7.161-.828-9.577-.705-.91-1.841-1.595-2.99-2.286-1.898-1.144-3.83-2.308-3.905-4.547-.041-1.242.625-2.31 1.298-3.39.359-.575.719-1.153.975-1.761 1.198-2.83-.181-5.897-2.298-7.868-.439-.408-.917-.794-1.396-1.181-1.355-1.093-2.714-2.191-3.2-3.804-.66-2.183.625-4.63 2.553-5.874 1.928-1.243 4.323-1.501 6.622-1.407 4.096.166 8.25 1.428 11.315 4.153 4.377 3.902 5.874 10.204 5.618 16.063v.004c-.191 4.375-.328 7.502 2.901 10.721.38.38.781.753 1.183 1.126 1.998 1.857 4.03 3.744 3.636 6.791-.301 2.4-2.349 4.484-4.341 5.689Z" fill="#C7E5FA"/></mask><g mask="url(#b)" stroke="#fff" stroke-width=".192" stroke-miterlimit="10"><path d="M74.057 188.514c.896 3.475 3.222 5.684 6.042 7.707 1.787 1.277 3.968 2.395 5.276 4.203 1.884 2.613.605 5.026.88 8.001.154 1.657.749 3.335 1.96 4.479 4.885 4.622 7.63 8.333 6.894 15.432-1.039 10.011-1.647 21.451 7.843 28.009M47 226.193c6.361 1.318 12.077 5.154 15.555 10.66 1.57 2.482 2.06 5.562 4.515 7.362 2.505 1.836 5.812 2.183 8.641 3.299 5.2 2.043 8.74 7.276 10.527 12.409"/></g></g><path d="m229.628 200.383-.015.557s.048.942-.889.965l-.766.021" stroke="#fff" stroke-width=".128" stroke-miterlimit="10"/><path d="m199.213 127.355 1.33-3.843c.927-2.679.961-5.795 3.719-7.393 2.068-1.198 4.16.232 6.08 1.06l4.022 1.736s1.486 5.09-6.065 2.554l-2.219 2.127-1.3 6.469-5.567-2.71ZM157.12 111.029c-2.492 1.093-4.341.181-5.028-1.496-.643-1.558.255-3.78 2.426-3.645a5.69 5.69 0 0 1 2.462.81c.336.432.623.901.855 1.397.463 1.021.687 2.319-.715 2.934Z" fill="#F4CFD7"/><path d="M157.889 113.483c4.666 2.068 7.983-.475 8.683-4.431.309-1.752.483-3.68-.23-5.363-.646-1.532-1.805-2.809-3.432-3.383-3.409-1.193-7.298.791-8.683 4.431 0 0 0 .022-.012.033a6.853 6.853 0 0 0 3.672 8.705" fill="#F4CFD7"/><path d="M156.288 108.94a2.586 2.586 0 0 0-2.732-1.591c-.322.038-.304.524.02.483a2.086 2.086 0 0 1 2.229 1.249c.115.291.6.15.483-.141ZM156.071 106.984a.891.891 0 0 0 .567.219c.57-.066 1.129-.697 1.532-1.021a12.631 12.631 0 0 1 2.636-1.698c1.254-.577 7.385-.092 7.784-2.153.579-3.01-4.058-1.445-5.685-2.012-3.407-1.193-8.611.334-9.122 5.597-.028.108.853.396.942.429.336.119.665.255.986.409.122.072.24.15.353.235" fill="#000"/><path d="M154.807 103.094c1.637-.559 1.558-.766 3.414-.845.667-3.746-4.908-10.03-12.426-8.021-3.407.91-4.633 4.229-4.755 4.44-3.047-1.49-7.263-2.017-10.09-.806-4.127 1.77-3.547 6.211-.089 8.744 3.782 2.773 9.737 3.45 14.495 2.5 7.541-1.504 6.956-8.108 7.635-8.095.874.018 1.52 1.391 1.816 2.083Z" fill="#000"/><path d="m156.032 116.264 4.176 1.159 1.657-5.459-4.175-1.16-1.658 5.46Z" fill="#F4CFD7"/><path d="M160.607 101.867c-.413-.93-.911-1.82-1.487-2.659-2.16-3.195-6.747-7.883-14.249-5.815" stroke="#000" stroke-width=".255" stroke-miterlimit="10"/><path d="M163.31 107.628a.46.46 0 0 1-.623-.108.426.426 0 0 1-.107-.313.422.422 0 0 1 .156-.292.464.464 0 0 1 .625.107.416.416 0 0 1-.051.606ZM165.038 110.521a9.287 9.287 0 0 0 .562-2.781c.015-.278-.427-.355-.442-.077a9.01 9.01 0 0 1-.539 2.677c-.094.255.324.436.419.181Z" fill="#030047"/><path d="M114.065 107.352c-.457-1.451-1.276-2.766-1.67-4.247-.584-2.209.399-3.037 2.511-3.764 1.246-.43 4.134-.835 4.675.86.572 1.788.095 4.416.103 6.277" fill="#F4CFD7"/><path d="M337.73 232.374a1.494 1.494 0 0 1-1.784 1.462 1.49 1.49 0 0 1-1.085-2.035c.113-.272.305-.505.55-.669a1.503 1.503 0 0 1 1.4-.136 1.49 1.49 0 0 1 .919 1.378ZM346.983 232.374a1.494 1.494 0 0 1-1.784 1.462 1.49 1.49 0 0 1-.534-2.704 1.498 1.498 0 0 1 1.883.187 1.502 1.502 0 0 1 .435 1.055ZM337.73 241.522a1.493 1.493 0 0 1-2.546 1.057 1.496 1.496 0 0 1-.323-1.627 1.487 1.487 0 0 1 1.38-.919 1.491 1.491 0 0 1 1.489 1.489ZM347.109 241.522c0 .294-.087.582-.25.827a1.494 1.494 0 0 1-1.529.633 1.493 1.493 0 0 1-1.17-1.17 1.49 1.49 0 1 1 2.949-.29ZM337.73 250.671a1.492 1.492 0 1 1-2.983-.001 1.492 1.492 0 0 1 2.983.001ZM347.109 250.671a1.485 1.485 0 0 1-.92 1.374 1.487 1.487 0 0 1-2.029-1.087 1.485 1.485 0 0 1 1.461-1.778 1.49 1.49 0 0 1 1.376.921c.075.181.113.374.112.57Z" fill="#fff"/><path d="M64.766 254.466 369 253.565" stroke="#000" stroke-width=".255" stroke-miterlimit="10"/><path d="M169.44 246.225c1.022 4.193 6.219 3.391 5.904 7.886l-16.537-1.354 1.695-8.289 8.938 1.757Z" fill="#000"/><path d="M170.262 251.649a18.15 18.15 0 0 1 2.505-1.93c.2-.128.335.184.136.311a17.57 17.57 0 0 0-2.426 1.877c-.174.164-.391-.097-.215-.255M169.604 250.766l2.198-1.553c.195-.138.343.169.151.304l-2.201 1.555c-.192.138-.34-.168-.148-.306Z" fill="#fff"/><path d="M134.288 246.986c1.302 4.119 6.443 2.988 6.441 7.495l-16.6-.298 1.132-8.377 9.027 1.18Z" fill="#000"/><path d="M135.497 252.347a17.919 17.919 0 0 1 2.367-2.087c.189-.14.345.164.156.304a17.042 17.042 0 0 0-2.299 2.028c-.163.171-.398-.072-.235-.256M134.778 251.509l2.087-1.693c.183-.148.352.148.171.296l-2.087 1.69c-.184.151-.352-.148-.171-.293Z" fill="#fff"/><path d="m121.546 106.118 3.348 25.89c1.787-4.638 5.03-11.139 8.71-14.518 1.836-1.685 4.086-3.22 6.561-3.7 6.244-1.203 11.88 1.826 17.769 3.159 4.433 1.006 9.022-.968 13.442.166 9.015 2.316 13.244 13.328 14.894 21.226l2.106 10.118 9.053-22.217 8.844 3.493c.396.202-.199 3.831-.256 4.216a105.906 105.906 0 0 1-3.123 16.63c-1.302 4.799-2.628 10.136-5.692 14.224-1.504 2.015-3.757 3.226-6.287 3.624-3.2.511-6.717-.077-9.355-1.941-2.962-2.094-4.402-5.541-6.108-8.537-1.006-1.765-3.7-9.632-5.133-12.881l-3.639 13.499-35.338-5.618s1.483-5.437 5.281-13.573c-1.933 1.532-.58 0-3.19 2.255-2.081 1.8-4.77 3.358-7.712 3.419-3.233.064-7.613-1.182-9.944-3.217-3.031-2.646-3.831-5.948-4.209-9.633-.403-3.81.108-7.916.991-11.642.256-1.083-2.528-13.65-1.831-13.65l10.818-.792Z" fill="#0CC3CD"/><mask id="c" style="mask-type:alpha" maskUnits="userSpaceOnUse" x="110" y="106" width="97" height="63"><path d="m121.546 106.118 3.348 25.89c1.787-4.638 5.03-11.139 8.71-14.518 1.836-1.685 4.086-3.22 6.561-3.7 6.244-1.203 11.88 1.826 17.769 3.159 4.433 1.006 9.022-.968 13.442.166 9.015 2.316 13.244 13.328 14.894 21.226l2.106 10.118 9.053-22.217 8.844 3.493c.396.202-.199 3.831-.256 4.216a105.906 105.906 0 0 1-3.123 16.63c-1.302 4.799-2.628 10.136-5.692 14.224-1.504 2.015-3.757 3.226-6.287 3.624-3.2.511-6.717-.077-9.355-1.941-2.962-2.094-4.402-5.541-6.108-8.537-1.006-1.765-3.7-9.632-5.133-12.881l-3.639 13.499-35.338-5.618s1.483-5.437 5.281-13.573c-1.933 1.532-.58 0-3.19 2.255-2.081 1.8-4.77 3.358-7.712 3.419-3.233.064-7.613-1.182-9.944-3.217-3.031-2.646-3.831-5.948-4.209-9.633-.403-3.81.108-7.916.991-11.642.256-1.083-2.528-13.65-1.831-13.65l10.818-.792Z" fill="#0CC3CD"/></mask><g mask="url(#c)" fill="#21DFE3"><path d="M200.729 127.342a1.603 1.603 0 0 0 .663 1.663c.176.119.373.201.581.242a1.668 1.668 0 0 0 1.992-1.19 1.591 1.591 0 0 0-.219-1.215 1.592 1.592 0 0 0-1.025-.69 1.667 1.667 0 0 0-1.992 1.19ZM187.517 124.423a1.591 1.591 0 0 0 .662 1.664c.176.118.374.2.582.241a1.66 1.66 0 0 0 1.989-1.192 1.586 1.586 0 0 0-1.244-1.903 1.66 1.66 0 0 0-1.989 1.19ZM174.294 121.504a1.591 1.591 0 0 0 .22 1.214 1.585 1.585 0 0 0 1.023.689 1.66 1.66 0 0 0 2-1.2 1.591 1.591 0 0 0-.662-1.664 1.585 1.585 0 0 0-.582-.241 1.66 1.66 0 0 0-1.989 1.192M161.088 118.583a1.597 1.597 0 0 0 .662 1.664c.176.118.374.2.582.241a1.661 1.661 0 0 0 1.992-1.19 1.586 1.586 0 0 0-.663-1.663 1.592 1.592 0 0 0-.581-.242 1.67 1.67 0 0 0-1.992 1.19ZM147.875 115.664a1.591 1.591 0 0 0 .662 1.664c.176.119.374.201.582.241a1.66 1.66 0 0 0 1.989-1.19 1.573 1.573 0 0 0-.219-1.215 1.588 1.588 0 0 0-1.024-.69 1.666 1.666 0 0 0-1.99 1.19ZM134.66 112.758a1.59 1.59 0 0 0 1.243 1.905 1.662 1.662 0 0 0 1.992-1.19 1.591 1.591 0 0 0-.219-1.215 1.588 1.588 0 0 0-1.025-.69 1.664 1.664 0 0 0-1.991 1.19ZM121.447 109.826a1.573 1.573 0 0 0 .219 1.216 1.585 1.585 0 0 0 1.024.689 1.659 1.659 0 0 0 1.99-1.19 1.586 1.586 0 0 0-1.244-1.905 1.666 1.666 0 0 0-1.989 1.19ZM108.234 106.907a1.591 1.591 0 0 0 .662 1.664c.176.118.374.2.582.241a1.664 1.664 0 0 0 1.989-1.19 1.591 1.591 0 0 0-.219-1.215 1.588 1.588 0 0 0-1.025-.69 1.66 1.66 0 0 0-1.989 1.19ZM198.117 138.173a1.586 1.586 0 0 0 1.243 1.902 1.666 1.666 0 0 0 1.992-1.19 1.586 1.586 0 0 0-1.243-1.902 1.66 1.66 0 0 0-1.992 1.19ZM184.904 135.254a1.586 1.586 0 0 0 1.244 1.902 1.656 1.656 0 0 0 1.989-1.19 1.59 1.59 0 0 0-.662-1.662 1.578 1.578 0 0 0-.581-.24 1.659 1.659 0 0 0-1.99 1.19ZM171.688 132.332a1.59 1.59 0 0 0 1.244 1.905 1.66 1.66 0 0 0 1.992-1.19 1.586 1.586 0 0 0-1.244-1.902 1.67 1.67 0 0 0-1.992 1.19M158.475 129.413a1.591 1.591 0 0 0 .662 1.664c.176.119.374.201.582.241a1.66 1.66 0 0 0 1.989-1.19 1.595 1.595 0 0 0-.662-1.663 1.582 1.582 0 0 0-.581-.242 1.665 1.665 0 0 0-1.99 1.19ZM145.263 126.495a1.586 1.586 0 0 0 1.244 1.905 1.662 1.662 0 0 0 1.989-1.19 1.573 1.573 0 0 0-.219-1.216 1.588 1.588 0 0 0-1.024-.69 1.659 1.659 0 0 0-1.99 1.191ZM132.048 123.576a1.573 1.573 0 0 0 .219 1.215 1.588 1.588 0 0 0 1.024.69 1.669 1.669 0 0 0 1.992-1.19 1.59 1.59 0 0 0-1.244-1.905 1.662 1.662 0 0 0-1.991 1.19ZM118.835 120.657a1.586 1.586 0 0 0 1.244 1.905 1.664 1.664 0 0 0 1.989-1.19c.047-.207.051-.422.013-.63a1.576 1.576 0 0 0-1.257-1.275 1.655 1.655 0 0 0-1.989 1.19ZM195.505 149.003a1.59 1.59 0 0 0 .662 1.662c.176.118.373.2.581.24a1.66 1.66 0 0 0 1.99-1.19 1.586 1.586 0 0 0-.663-1.663 1.575 1.575 0 0 0-.581-.242 1.664 1.664 0 0 0-1.989 1.193ZM182.289 146.081a1.591 1.591 0 0 0 1.247 1.905 1.662 1.662 0 0 0 1.989-1.19 1.586 1.586 0 0 0-1.244-1.905 1.67 1.67 0 0 0-1.992 1.19ZM169.076 143.163a1.586 1.586 0 0 0 1.244 1.905 1.67 1.67 0 0 0 1.992-1.19 1.59 1.59 0 0 0-1.244-1.906 1.669 1.669 0 0 0-1.992 1.191ZM155.863 140.244a1.591 1.591 0 0 0 .219 1.215 1.592 1.592 0 0 0 1.025.69 1.666 1.666 0 0 0 1.989-1.19 1.591 1.591 0 0 0-.219-1.216 1.588 1.588 0 0 0-1.025-.689 1.659 1.659 0 0 0-1.989 1.19ZM142.648 137.325a1.586 1.586 0 0 0 .663 1.662c.175.119.373.201.581.243a1.67 1.67 0 0 0 1.992-1.19 1.59 1.59 0 0 0-1.244-1.905 1.663 1.663 0 0 0-1.992 1.19ZM129.435 134.406a1.573 1.573 0 0 0 .22 1.215 1.585 1.585 0 0 0 1.023.69 1.664 1.664 0 0 0 1.99-1.19 1.591 1.591 0 0 0-.662-1.664 1.568 1.568 0 0 0-.582-.241 1.66 1.66 0 0 0-1.989 1.19ZM116.219 131.487a1.584 1.584 0 0 0 1.246 1.905 1.665 1.665 0 0 0 1.99-1.19 1.591 1.591 0 0 0-.662-1.664 1.602 1.602 0 0 0-.582-.241 1.667 1.667 0 0 0-1.992 1.19ZM206.105 162.752a1.59 1.59 0 0 0 1.244 1.903 1.662 1.662 0 0 0 1.992-1.19 1.59 1.59 0 0 0-1.244-1.906 1.669 1.669 0 0 0-1.992 1.193ZM192.893 159.831a1.573 1.573 0 0 0 .219 1.215 1.588 1.588 0 0 0 1.024.69 1.666 1.666 0 0 0 1.99-1.19 1.59 1.59 0 0 0-1.244-1.905 1.657 1.657 0 0 0-1.236.191c-.372.222-.642.58-.753.999ZM179.676 156.912a1.586 1.586 0 0 0 .663 1.663c.175.119.373.201.581.242a1.663 1.663 0 0 0 1.992-1.19 1.59 1.59 0 0 0-1.244-1.905 1.665 1.665 0 0 0-1.992 1.19ZM166.464 153.993a1.591 1.591 0 0 0 .219 1.215 1.588 1.588 0 0 0 1.024.69 1.658 1.658 0 0 0 1.99-1.19 1.591 1.591 0 0 0-.662-1.664 1.568 1.568 0 0 0-.582-.241 1.657 1.657 0 0 0-1.236.191c-.372.222-.642.58-.753.999ZM153.248 151.064a1.586 1.586 0 0 0 .663 1.662c.175.119.373.201.581.243a1.666 1.666 0 0 0 1.992-1.19 1.591 1.591 0 0 0-.662-1.664 1.568 1.568 0 0 0-.582-.241 1.662 1.662 0 0 0-1.992 1.19ZM140.036 148.155a1.573 1.573 0 0 0 .22 1.215 1.588 1.588 0 0 0 1.023.69 1.668 1.668 0 0 0 1.992-1.19 1.586 1.586 0 0 0-.221-1.214 1.611 1.611 0 0 0-.441-.449 1.604 1.604 0 0 0-.582-.242 1.664 1.664 0 0 0-1.991 1.19ZM126.822 145.236a1.59 1.59 0 0 0 1.244 1.905 1.666 1.666 0 0 0 1.989-1.19 1.573 1.573 0 0 0-.219-1.215 1.588 1.588 0 0 0-1.024-.69 1.66 1.66 0 0 0-1.99 1.19ZM113.607 142.317a1.584 1.584 0 0 0 1.243 1.903 1.666 1.666 0 0 0 1.992-1.19 1.59 1.59 0 0 0-1.244-1.905 1.663 1.663 0 0 0-1.991 1.192ZM177.169 166.989a1.591 1.591 0 0 0 .219 1.215 1.588 1.588 0 0 0 1.025.69 1.664 1.664 0 0 0 1.991-1.19 1.59 1.59 0 0 0-1.243-1.905 1.664 1.664 0 0 0-1.992 1.19ZM163.956 164.07a1.591 1.591 0 0 0 .219 1.215 1.588 1.588 0 0 0 1.024.69 1.664 1.664 0 0 0 1.99-1.19 1.591 1.591 0 0 0-.662-1.664 1.568 1.568 0 0 0-.582-.241 1.66 1.66 0 0 0-1.989 1.19ZM150.741 161.151a1.586 1.586 0 0 0 .221 1.214 1.598 1.598 0 0 0 1.023.691 1.666 1.666 0 0 0 1.991-1.19 1.573 1.573 0 0 0-.219-1.215 1.575 1.575 0 0 0-1.024-.69 1.666 1.666 0 0 0-1.992 1.19ZM137.519 158.232a1.59 1.59 0 0 0 1.244 1.905 1.661 1.661 0 0 0 1.989-1.19 1.573 1.573 0 0 0-.219-1.215 1.575 1.575 0 0 0-1.024-.69 1.661 1.661 0 0 0-1.99 1.19ZM124.314 155.313a1.59 1.59 0 0 0 1.244 1.905 1.664 1.664 0 0 0 1.989-1.192 1.573 1.573 0 0 0-.22-1.214 1.572 1.572 0 0 0-1.023-.689 1.66 1.66 0 0 0-1.99 1.19ZM111.099 152.394a1.59 1.59 0 0 0 1.244 1.903 1.666 1.666 0 0 0 1.992-1.19 1.586 1.586 0 0 0-1.244-1.903 1.664 1.664 0 0 0-1.992 1.19Z"/></g><path d="m154.855 117.235 5.851 1.624.94-3.095-5.851-1.627-.94 3.098Z" fill="#0CC3CD"/><path d="M142.239 212.878c.853-4.928 2.579-9.614 3.846-14.438a381.068 381.068 0 0 0 4.995-21.196c.493 2.398 3.994 7.523 5.363 9.354 3.897 5.225 7.181 8.356 8.111 15.067.914 6.607-1.308 12.465-2.092 18.854-.825 6.704-.861 13.369-1.507 20.088a207.84 207.84 0 0 1-.454 3.871l8.938 1.757s19.497-44.767 13.739-60.743c0 0-4.758-15.833-16.49-26.916l-35.338-5.618s-9.704 29.097-7.206 94.337l10.927.391" fill="#2E55E4"/><path d="M127.994 162.225s10.654-1.276 14.137-7.569" stroke="#fff" stroke-width=".255" stroke-miterlimit="10"/><path d="M135.063 160.346c-3.031 15.427-2.339 30.985-2.627 46.585a367.423 367.423 0 0 0-.046 3.785c-.011 1.261-.016 2.553-.026 3.83-.01 1.277-.018 2.574-.036 3.859-.018 1.285-.04 2.584-.079 3.877a147.676 147.676 0 0 1-.161 3.876 112.408 112.408 0 0 1-.273 3.859 96.177 96.177 0 0 1-.421 3.83 68.691 68.691 0 0 1-.6 3.785 66.565 66.565 0 0 1-.815 3.723c-.151.593-.304 1.259-.465 1.849-.15.547-.255 1.022-.444 1.566" stroke="#fff" stroke-width=".255" stroke-miterlimit="10"/><path d="m152.817 170.045-5.958 25.443M171.92 139.751l-5.24 19.285M138.896 133.54l-7.878 19.735" stroke="#000" stroke-width=".255" stroke-miterlimit="10"/><path d="M181.487 166.449s5.337-4.941 14.114 0c0 0-6.333 4.648-14.114 0Z" fill="#2E55E4"/><path d="M207.405 121.578s4.596-1.021 3.159-2.77c0 0-1.007-1.533-5.675 1.598" fill="#F4CFD7"/><path d="M207.405 121.578s4.596-1.021 3.159-2.77c0 0-1.007-1.533-5.675 1.598" stroke="#000" stroke-width=".255" stroke-miterlimit="10"/><path d="M113.921 139.75s4.042 6.298 14.3 4.983c0 0-6.555-5.966-14.3-4.983Z" fill="#2E55E4"/><path d="M181.487 170.045s9.594 5.388 17.727 0M108.407 141.145s7.059 7.324 16.395 6.787" stroke="#000" stroke-width=".255" stroke-miterlimit="10"/><path d="m124.034 244.381 11.41.771M160.953 240.597l9.987 2.012M129.743 102.287s.536 2.278 6.029 2.738" stroke="#fff" stroke-width=".255" stroke-miterlimit="10"/><g opacity=".44" fill="#6EA3E6"><path opacity=".44" d="M124.347 108.1H92.74l-3.677 22.023c-.48 4.788 3.368 4.311 3.368 4.311h27.657c-3.698-1.438 4.259-26.342 4.259-26.342M121.39 161.409h-.365c.121.014.244.014.365 0Z"/><path opacity=".44" d="M120.087 134.442H94.33l-4.19 21.778s-1.788 5.618 3.35 5.148l27.534.028c-.751-.079-2.298-.7-1.192-4.699l3.233-17.957s1.225-3.831-2.978-4.311"/><path opacity=".44" d="M123.065 165.73s1.225-3.831-2.978-4.311l-25.757.013-4.19 21.778s-1.788 5.618 3.35 5.148h.766l-4.116 21.39s-1.788 5.618 3.35 5.151l27.534.028c-.751-.079-2.298-.7-1.192-4.699l3.233-17.96s1.225-3.831-2.978-4.311h-.026c-.564-.534-.942-1.711-.229-4.267l3.233-17.96ZM121.39 214.927h-.365c.121.014.244.014.365 0Z"/></g><path d="M119.621 103.036H88.014l-3.678 22.03c-.477 4.791 3.371 4.311 3.371 4.311h27.654c-3.695-1.435 4.26-26.341 4.26-26.341ZM116.664 156.347h-.365c.121.013.244.013.365 0Z" fill="#E8F3FD"/><path d="m115.361 129.377-25.756.013-4.18 21.778s-1.788 5.618 3.352 5.148l27.532.028c-.751-.076-2.298-.697-1.19-4.696l3.223-17.95s1.225-3.831-2.981-4.311" fill="#E8F3FD"/><path d="M118.342 160.665s1.225-3.83-2.981-4.308H89.605l-4.18 21.791s-1.788 5.618 3.352 5.148h.766l-4.119 21.395s-1.787 5.618 3.353 5.148l27.532.029c-.751-.077-2.298-.7-1.19-4.699l3.233-17.958s1.226-3.831-2.98-4.311h-.023c-.565-.536-.945-1.711-.23-4.269l3.223-17.966Z" fill="#E8F3FD"/><path d="M116.664 209.862h-.365c.121.015.244.015.365 0Z" fill="#E8F3FD"/><g clip-path="url(#d)"><path fill-rule="evenodd" clip-rule="evenodd" d="M304.539 193.81c4.679 4.51-1.741 6.591-1.741 6.591l1.9 12.677c7.811-1.737 7.117-7.467 7.117-7.467-.174-1.389 1.91-3.126 1.91-3.126 5.557-3.133 2.572-7.985 2.572-7.985-1.285-2.092.365-4.906 1.989-6.224.61-.495 1.468-.777 2.334-1.062 1.437-.473 2.897-.953 3.284-2.429.215-.815-.065-1.62-.348-2.436-.152-.436-.304-.875-.382-1.32-.358-2.058 1.006-3.879 2.707-4.868.352-.204.726-.388 1.101-.573 1.061-.521 2.124-1.044 2.696-2.042.774-1.35.286-3.164-.802-4.28s-2.643-1.649-4.175-1.93c-2.74-.506-5.687-.296-8.126 1.049-3.488 1.928-5.429 5.879-6.142 9.802-.531 2.931-.911 5.028-3.537 6.675-.304.191-.621.374-.939.558-1.613.932-3.249 1.878-3.445 3.965-.156 1.637.886 3.325 2.027 4.425Zm9.977 19.557c-1.001.291-13.816 10.505-13.816 10.505l3.979 10.496c3.42-.664 11.681-5.493 12.868-9.012.376-1.112.22-2.467.066-3.802-.2-1.742-.397-3.449.598-4.533.807-.884 2.094-1.394 3.2-1.762.575-.194 3.889-1.277 4.428-.766-2.74-2.656 1.601-1.356 1.601-1.356 1.288-.659 1.475-3.376 1.619-5.455.056-.823.106-1.547.215-2.002.243-1.009 2.801-7.963 3.976-7.72-5.092-1.047-10.105.937-13.79 4.446-1.571 1.494-2.457 3.361-3.156 5.386-.066.199-.172.647-.305 1.208-.388 1.637-1.002 4.23-1.483 4.367Z" fill="#C7E5FA"/><mask id="e" style="mask-type:alpha" maskUnits="userSpaceOnUse" x="300" y="167" width="34" height="68"><path fill-rule="evenodd" clip-rule="evenodd" d="M304.539 193.81c4.679 4.51-1.741 6.591-1.741 6.591l1.9 12.677c7.811-1.737 7.117-7.467 7.117-7.467-.174-1.389 1.91-3.126 1.91-3.126 5.557-3.133 2.572-7.985 2.572-7.985-1.285-2.092.365-4.906 1.989-6.224.61-.495 1.468-.777 2.334-1.062 1.437-.473 2.897-.953 3.284-2.429.215-.815-.065-1.62-.348-2.436-.152-.436-.304-.875-.382-1.32-.358-2.058 1.006-3.879 2.707-4.868.352-.204.726-.388 1.101-.573 1.061-.521 2.124-1.044 2.696-2.042.774-1.35.286-3.164-.802-4.28s-2.643-1.649-4.175-1.93c-2.74-.506-5.687-.296-8.126 1.049-3.488 1.928-5.429 5.879-6.142 9.802-.531 2.931-.911 5.028-3.537 6.675-.304.191-.621.374-.939.558-1.613.932-3.249 1.878-3.445 3.965-.156 1.637.886 3.325 2.027 4.425Zm9.977 19.557c-1.001.291-13.816 10.505-13.816 10.505l3.979 10.496c3.42-.664 11.681-5.493 12.868-9.012.376-1.112.22-2.467.066-3.802-.2-1.742-.397-3.449.598-4.533.807-.884 2.094-1.394 3.2-1.762.575-.194 3.889-1.277 4.428-.766-2.74-2.656 1.601-1.356 1.601-1.356 1.288-.659 1.475-3.376 1.619-5.455.056-.823.106-1.547.215-2.002.243-1.009 2.801-7.963 3.976-7.72-5.092-1.047-10.105.937-13.79 4.446-1.571 1.494-2.457 3.361-3.156 5.386-.066.199-.172.647-.305 1.208-.388 1.637-1.002 4.23-1.483 4.367Z" fill="#C7E5FA"/></mask><g mask="url(#e)" stroke="#fff" stroke-width=".192" stroke-miterlimit="10"><path d="M331.855 167.083c-1.116 2.171-2.99 3.284-5.164 4.201-1.368.577-2.993.988-4.129 1.992-1.642 1.445-1.159 3.238-1.788 5.169-.349 1.077-.995 2.096-1.971 2.673-3.933 2.329-6.313 4.377-6.895 9.194-.817 6.79-2.14 14.472-9.416 17.383M333.253 197.96a18.386 18.386 0 0 0-10.471 9.704c-.901 2.043-.929 4.4-2.569 6.022-1.639 1.622-4.114 2.283-6.111 3.432-3.669 2.115-8.915 8.992-9.683 13.024"/></g></g><path d="M95.806 224.286a1.89 1.89 0 0 1-1.667 1.266 1.888 1.888 0 0 1-1.981-2.135 1.883 1.883 0 0 1 2.479-1.529 1.88 1.88 0 0 1 1.17 2.398ZM82.483 194.328a.94.94 0 0 1-1.738.107.941.941 0 0 1 1.153-1.304.938.938 0 0 1 .585 1.197ZM74.324 208.639a1.717 1.717 0 0 1-2.491.926 1.713 1.713 0 0 1-.837-1.716 1.716 1.716 0 0 1 1.266-1.43 1.721 1.721 0 0 1 2.062 2.22ZM85.196 213.252l-3.644-.256 1.601 3.282 2.043-3.026ZM112.995 222.159l-.256 3.642 3.282-1.602-3.026-2.04Z" fill="#2E55E4"/><path d="M84.233 110.227c.23-1.394.458-2.788.684-4.183.118-.725.212-1.453.327-2.178.103-.644.146-1.428.468-2.005.526-.95 1.695-1.118 2.684-1.098.692.013 1.386 0 2.078 0h6.339" stroke="#000" stroke-width=".255" stroke-miterlimit="10"/><path d="M179.427 187.546s3.514 2.643 2.058 12.036" stroke="#fff" stroke-width=".255" stroke-miterlimit="10"/><path d="M175.346 116.499s6.459 2.472 7.7 8.683" stroke="#000" stroke-width=".255" stroke-miterlimit="10"/><path d="M143.647 115.659s-5.873-1.18-7.74 2.773" stroke="#fff" stroke-width=".255" stroke-miterlimit="10"/><path d="M118.204 102.288s-3.399-1.788-3.552.066c0 0 .432 1.714 5.108 2.217" fill="#F4CFD7"/><path d="M118.204 102.288s-3.399-1.788-3.552.066c0 0 .432 1.714 5.108 2.217" stroke="#000" stroke-width=".255" stroke-miterlimit="10"/><path d="m118.888 102.252-.166 2.043s.853.202 1.088.1c0 0 .056-1.775.051-2.028-.005-.253-.973-.118-.973-.118" fill="#F4CFD7"/><path d="M259.907 144.044h4.153" stroke="#fff" stroke-width=".255" stroke-miterlimit="10"/><path d="M139.738 57.715c3.627 4.06 7.835 7.848 12.687 10.379 4.451 2.32 9.615 3.519 14.556 2.61 2.151-.399 4.597-1.686 4.635-3.872.028-2.091-2.183-3.445-4.172-4.086a25.03 25.03 0 0 0-11.255-.983c-3.759.534-7.87 2.457-8.779 6.129-.703 2.857.801 5.83 2.781 8.008a19.058 19.058 0 0 0 11.979 6.078c10.35 1.09 8.254-10.179-2.232-8.805-1.943.255-3.935.587-5.618 1.604-1.683 1.016-2.988 2.873-2.809 4.824.107 1.088.654 2.083 1.277 2.982a17.224 17.224 0 0 0 8.481 6.438c1.864.646 4.553.567 5.107-1.333.317-1.098-.363-2.283-1.297-2.94-2.439-1.715-6.438.067-6.796 3.027-.487 4.055 4.296 5.125 7.332 5.128" stroke="#000" stroke-width=".255" stroke-miterlimit="10"/><path d="M90.605 106.123h22.536M90.127 108.335h22.539M89.651 110.544h24.21M89.174 112.755h17.197M88.696 114.967h14.048M88.222 117.178h17.667M90.96 135.616h22.536M90.481 137.828h22.54M90.006 140.039h24.21M89.53 142.251h17.196M89.052 144.46H103.1M88.577 146.671h17.667M91.674 161.036h22.537M91.197 163.247h22.537M90.719 165.459h24.212M90.244 167.67h17.196M89.767 169.88h14.048M89.292 172.091h17.664M91.314 186.895h22.536M90.836 189.104h22.539M90.362 191.315h24.209M89.884 193.527h17.197M89.407 195.738h14.048M88.93 197.95h17.667" stroke="#6BC0E8" stroke-width=".255" stroke-miterlimit="10"/><path d="M203.542 135.798s-2.061 14.872-5.363 18.859" stroke="#fff" stroke-width=".255" stroke-miterlimit="10"/><path d="M239.702 146.932h41.263l-3.284 13.207 2.189.562 3.94-16.006h-4.487v-4.814h-2.189v-6.155h-30.098l-1.751-4.813h-14.01v43.875h24.189v-2.237h-21.671l5.909-23.619Zm4.05-15.787 1.752 4.813h29.332v3.805h-38.964v13.096l-2.409 9.74v-31.454h10.289Z" fill="#2E55E4" stroke="#241614" stroke-width=".255" stroke-miterlimit="10"/><path d="m269.365 175.474 6.238-6.379h-3.284l.547-10.97-3.501 1.792-3.394-1.792.546 10.97h-3.281l6.129 6.379Z" fill="#0CC3CD" stroke="#241614" stroke-width=".192" stroke-miterlimit="10"/><path d="M278.667 177.936h-18.496v-1.79h-2.191v4.03h22.876v-4.03h-2.189v1.79Z" fill="#FA6765" stroke="#241614" stroke-width=".255" stroke-miterlimit="10"/><path d="M259.53 144.758h-16.572M260.579 144.758h2.115" stroke="#fff" stroke-width=".255" stroke-miterlimit="10" stroke-linecap="round"/><defs><clipPath id="a"><path fill="#fff" transform="translate(47 191.167)" d="M0 0h61v63H0z"/></clipPath><clipPath id="d"><path fill="#fff" transform="translate(305 167.167)" d="M0 0h28v67H0z"/></clipPath></defs></svg>