<svg viewBox="0 0 400 300" fill="none" xmlns="http://www.w3.org/2000/svg"><path d="M110.061 258.568s68.343-36.002 38.952-65.205c-18.351-18.242-33.661-45.284-35.215-70.423-1.445-23.499 19.846-42.244 44.825-42.158 19.141.063 34.11 9.34 46.291 22.284 10.172 10.802 27.895 45.946 48.017 40.79 4.334-1.112 7.421-4.519 10.852-7.208 15.749-12.332 22.822 8.495 23.008 19.601.204 12.708-2.621 25.556-5.696 37.881-1.823 7.317-15.999 64.435-21.116 64.435l-149.918.003Z" fill="#ECF4FD"/><path d="M142.465 110.272a1.401 1.401 0 0 1-.867 1.298 1.41 1.41 0 0 1-1.531-.304 1.403 1.403 0 0 1 .213-2.162 1.406 1.406 0 0 1 1.773.175c.263.264.411.621.412.993ZM151.327 110.272a1.41 1.41 0 0 1-.868 1.298 1.407 1.407 0 0 1-1.915-1.024 1.4 1.4 0 0 1 1.378-1.679 1.409 1.409 0 0 1 1.405 1.405ZM160.188 110.272a1.401 1.401 0 0 1-.867 1.298 1.41 1.41 0 0 1-1.531-.304 1.41 1.41 0 0 1-.305-1.531 1.408 1.408 0 0 1 1.298-.868 1.41 1.41 0 0 1 1.405 1.405ZM169.05 110.272a1.408 1.408 0 0 1-.867 1.298 1.41 1.41 0 0 1-1.531-.304 1.41 1.41 0 0 1-.305-1.531 1.408 1.408 0 0 1 1.298-.868 1.41 1.41 0 0 1 1.405 1.405ZM177.915 110.272c0 .279-.082.551-.236.783a1.413 1.413 0 0 1-1.445.6 1.411 1.411 0 0 1-1.107-1.105 1.405 1.405 0 0 1 .598-1.445 1.408 1.408 0 0 1 2.19 1.167ZM186.776 110.272a1.407 1.407 0 1 1-2.813.006 1.407 1.407 0 0 1 2.813-.006ZM142.465 118.905a1.401 1.401 0 0 1-.867 1.298 1.405 1.405 0 1 1 .867-1.298ZM151.327 118.905a1.41 1.41 0 0 1-.868 1.298 1.408 1.408 0 0 1-1.915-1.024 1.405 1.405 0 0 1 1.378-1.678 1.405 1.405 0 0 1 1.405 1.404ZM160.188 118.905a1.401 1.401 0 0 1-.867 1.298 1.405 1.405 0 1 1 .867-1.298ZM169.05 118.905a1.408 1.408 0 0 1-.867 1.298 1.405 1.405 0 1 1 .867-1.298ZM177.915 118.905a1.413 1.413 0 0 1-.862 1.308 1.41 1.41 0 0 1-1.925-1.02 1.409 1.409 0 0 1 1.379-1.685 1.409 1.409 0 0 1 1.408 1.405M186.776 118.905a1.407 1.407 0 1 1-2.813.006 1.407 1.407 0 0 1 2.813-.006ZM142.465 127.539a1.406 1.406 0 1 1-2.813 0 1.406 1.406 0 0 1 2.813 0ZM151.327 127.539a1.406 1.406 0 1 1-2.703-.538 1.401 1.401 0 0 1 2.291-.456c.264.264.412.621.412.994ZM160.188 127.539a1.406 1.406 0 0 1-2.398.993 1.407 1.407 0 0 1-.305-1.531 1.406 1.406 0 0 1 2.703.538ZM169.05 127.539a1.405 1.405 0 1 1-2.81.001 1.405 1.405 0 0 1 2.81-.001ZM177.915 127.539a1.414 1.414 0 0 1-.868 1.302 1.406 1.406 0 0 1-1.84-1.838 1.41 1.41 0 0 1 1.3-.869 1.406 1.406 0 0 1 1.408 1.405ZM186.776 127.539a1.406 1.406 0 0 1-2.401.998 1.408 1.408 0 0 1 1.988-1.992c.264.264.412.621.413.994ZM142.465 136.174a1.401 1.401 0 0 1-.867 1.298 1.402 1.402 0 0 1-1.531-.304 1.403 1.403 0 0 1 .213-2.162 1.406 1.406 0 0 1 2.185 1.168ZM151.327 136.174a1.41 1.41 0 0 1-.868 1.298 1.408 1.408 0 0 1-1.915-1.024 1.405 1.405 0 1 1 2.783-.274ZM160.188 136.174a1.401 1.401 0 0 1-.867 1.298 1.402 1.402 0 0 1-1.531-.304 1.41 1.41 0 0 1-.305-1.531 1.414 1.414 0 0 1 1.298-.868 1.405 1.405 0 0 1 1.405 1.405ZM169.05 136.174a1.408 1.408 0 0 1-.867 1.298 1.402 1.402 0 0 1-1.531-.304 1.41 1.41 0 0 1-.305-1.531 1.414 1.414 0 0 1 1.298-.868 1.405 1.405 0 0 1 1.405 1.405ZM177.915 136.174a1.407 1.407 0 1 1-2.812.005 1.407 1.407 0 0 1 2.812-.005ZM186.776 136.174a1.407 1.407 0 1 1-2.813.006 1.407 1.407 0 0 1 2.813-.006ZM142.465 144.808a1.405 1.405 0 1 1-2.811-.005 1.405 1.405 0 0 1 2.811.005ZM151.327 144.808a1.412 1.412 0 0 1-.869 1.296 1.41 1.41 0 0 1-1.531-.306 1.407 1.407 0 0 1 1.533-2.291 1.41 1.41 0 0 1 .867 1.301ZM160.188 144.808a1.4 1.4 0 0 1-1.68 1.375 1.41 1.41 0 0 1-1.103-1.105 1.399 1.399 0 0 1 .081-.811 1.4 1.4 0 0 1 2.292-.455 1.406 1.406 0 0 1 .41.996ZM169.05 144.808a1.4 1.4 0 0 1-1.68 1.375 1.41 1.41 0 0 1-1.103-1.105 1.399 1.399 0 0 1 .081-.811 1.4 1.4 0 0 1 2.292-.455 1.406 1.406 0 0 1 .41.996ZM177.915 144.808c0 .278-.083.55-.238.781a1.404 1.404 0 0 1-2.165.214 1.405 1.405 0 0 1-.305-1.534 1.41 1.41 0 0 1 1.3-.869 1.407 1.407 0 0 1 1.408 1.408ZM186.776 144.808a1.401 1.401 0 0 1-.869 1.3 1.414 1.414 0 0 1-1.533-.305 1.406 1.406 0 0 1 .213-2.166 1.41 1.41 0 0 1 1.777.175c.264.264.412.622.412.996ZM142.465 153.441a1.399 1.399 0 0 1-.869 1.296 1.407 1.407 0 0 1-1.914-1.026 1.408 1.408 0 0 1 .598-1.441 1.406 1.406 0 0 1 2.185 1.171ZM151.327 153.441a1.415 1.415 0 0 1-.238.78 1.41 1.41 0 0 1-2.162.21 1.407 1.407 0 0 1 .995-2.398 1.404 1.404 0 0 1 1.298.869c.071.171.107.354.107.539ZM160.188 153.441a1.399 1.399 0 0 1-.869 1.296 1.407 1.407 0 0 1-1.914-1.026 1.4 1.4 0 0 1 .598-1.441 1.408 1.408 0 0 1 1.775.176 1.402 1.402 0 0 1 .41.995ZM169.05 153.441a1.399 1.399 0 0 1-.869 1.296 1.407 1.407 0 0 1-1.914-1.026 1.4 1.4 0 0 1 .598-1.441 1.408 1.408 0 0 1 1.775.176 1.402 1.402 0 0 1 .41.995ZM177.915 153.441a1.408 1.408 0 1 1-2.816-.003 1.408 1.408 0 0 1 2.816.003ZM186.776 153.441a1.407 1.407 0 1 1-2.814.001 1.407 1.407 0 0 1 2.814-.001Z" fill="#fff"/><path d="M200.661 34c3.085 3.453 6.661 6.67 10.787 8.822 3.782 1.965 8.171 2.994 12.369 2.21 1.827-.336 3.915-1.431 3.93-3.29.024-1.776-1.857-2.928-3.547-3.48a21.31 21.31 0 0 0-9.579-.838c-3.193.457-6.69 2.09-7.461 5.224-.597 2.43.682 4.954 2.362 6.806a16.212 16.212 0 0 0 10.183 5.158c8.801.926 7.017-8.656-1.896-7.486-1.653.218-3.345.49-4.772 1.363-1.427.872-2.54 2.441-2.378 4.101.089.926.556 1.771 1.084 2.535a14.647 14.647 0 0 0 7.194 5.472c1.586.548 3.873.492 4.335-1.135.267-.933-.31-1.94-1.103-2.497-2.073-1.46-5.472.056-5.777 2.571-.415 3.439 3.65 4.357 6.234 4.36" stroke="#000" stroke-width=".246" stroke-miterlimit="10"/><path d="M292.102 153.613a2.275 2.275 0 0 1-1.402 2.097 2.272 2.272 0 0 1-2.964-2.968 2.28 2.28 0 0 1 .837-1.018 2.276 2.276 0 0 1 2.866.284 2.283 2.283 0 0 1 .663 1.605Z" fill="#fff"/><path d="m189.446 223.071 9.25-6.575 4.02 7.801-10.131 5.742-3.139-6.968Z" fill="#EFD1D8"/><path d="m189.446 223.071-6.136 3.616 2.623 3.249 1.084-.319-.536 1.552 7.16 8.862 1.758-1.42-2.296-6.305.918-1.078-4.575-8.157Z" fill="#3458DF"/><path d="m191.03 232.301 2.677-.147-1.515 2.901 2.63.557-1.206 2.036 1.464.084" stroke="#000" stroke-width=".246" stroke-miterlimit="10"/><path d="m217.881 251.656-.079-11.35 8.695 1.184-1.108 11.593-7.508-1.427Z" fill="#EFD1D8"/><path d="m217.88 251.656-.56 7.1 4.166-.284.361-1.071.963 1.328 11.367-.778-.155-2.255-6.482-1.736-.356-1.371-9.304-.933Z" fill="#3458DF"/><path d="m226.349 255.654 1.412-2.277 1.508 2.906 1.965-1.835.978 2.157.908-1.152" stroke="#000" stroke-width=".246" stroke-miterlimit="10"/><path d="M156.718 167.9h103.199" stroke="#010541" stroke-width=".246" stroke-miterlimit="10"/><path d="M201.358 148.433s6.447 40.771 8.535 45.008c0 0-.162 45.644 4.323 54.064l16.08-2.134s1.812-65.117-2.805-79.439c0 0 6.28 19.964 7.206 20.561l18.465-9.732s-6.739-26.481-13.41-31.312l-38.394 2.984Z" fill="#58C1CC"/><path d="M234.926 185.297s-37.974 28.156-41.049 30.367l9.107 14.263c14.184-7.229 28.589-15.056 41.211-24.807 10.07-7.769 13.47-16.196 9.196-28.354l-18.465 8.531Z" fill="#58C1CC"/><path d="M215.26 86.315c-2.732 1.447-4.859.492-5.758-1.432-.827-1.79.04-4.46 2.484-4.44.99.034 1.958.305 2.822.79.41.49.764 1.022 1.056 1.59.589 1.161.931 2.68-.604 3.492Z" fill="#EFD1D8"/><path d="M216.289 89.152c5.386 2.13 8.945-1.076 9.468-5.77.231-2.08.295-4.354-.619-6.28-.83-1.766-2.21-3.193-4.087-3.755-3.915-1.181-8.157 1.405-9.468 5.77v.041a8.208 8.208 0 0 0 4.718 9.994" fill="#EFD1D8"/><path d="M214.184 83.915a2.907 2.907 0 0 0-3.193-1.694c-.359.069-.305.633.054.567a2.33 2.33 0 0 1 2.594 1.324c.15.334.683.137.535-.197" fill="#000"/><path d="m215.877 86.013-1.494 6.524 4.774 1.094 1.494-6.524-4.774-1.094Z" fill="#EFD1D8"/><path d="M221.989 81.919a.534.534 0 0 1-.921-.377.53.53 0 0 1 .352-.49.532.532 0 0 1 .584.152.508.508 0 0 1-.015.715ZM224.128 85.207c.31-1.076.46-2.193.445-3.313 0-.327-.506-.388-.491-.061a11.05 11.05 0 0 1-.428 3.193c-.088.307.393.49.492.186" fill="#010344"/><path d="M225.182 79.556c-1.844-.246-8.036-3.547-9.203.177-.297.948-.275 2.171-1.279 2.134a1.167 1.167 0 0 1-1.01-1.117 6.653 6.653 0 0 0-2.473-.216c0-6.492 3.207-8.152 4.883-7.646 0 0 5.511-6.205 7.648-1.897 0 0 6.857-3.05 7.889 3.49 1.031 6.541-6.455 5.075-6.455 5.075Z" fill="#000"/><path d="M230.126 99.824c-.454 3.318-6.982 5.158-14.586 4.126-7.605-1.031-13.399-4.57-12.944-7.889.454-3.318 6.985-5.158 14.587-4.129 7.601 1.03 13.398 4.574 12.943 7.892Z" fill="#EFD1D8"/><path d="M214.675 88.66s4.738 2.1 6.801.853" stroke="#000" stroke-width=".246" stroke-miterlimit="10"/><path d="m224.885 95.781-17.863-2.38.007.06 17.876 2.46-.02-.14Z" fill="#fff"/><path d="m263.387 120.615 8.693-6.141 3.971 5.691-6.752 5.942" fill="#F2D3DC"/><g clip-path="url(#a)"><path fill-rule="evenodd" clip-rule="evenodd" d="M109.732 242.6c-6.99 4.227 5.559 15.997 5.559 15.997l-11.119 7.574c-2.258-1.067-3.805-2.289-4.854-3.524l-4.524 5.094c-3.937-.175-8.088-1.479-9.991-5.207-.598-1.177-.648-2.711-.697-4.222-.065-1.979-.13-3.919-1.42-4.967-1.047-.849-2.567-1.208-3.861-1.434-.673-.12-4.552-.788-5.062-.12 2.61-3.412-2.012-1.246-2.012-1.246-1.542-.521-2.2-3.516-2.703-5.809-.201-.914-.378-1.717-.576-2.207-.435-1.076-4.436-8.417-5.708-7.953 5.502-2.007 11.419-.624 16.11 2.682 2.006 1.407 3.306 3.343 4.42 5.487.116.221.327.746.588 1.396.708 1.764 1.789 4.453 2.338 4.523.692.088 6.67 3.435 11.373 6.116.324-1.667-1.544-4.104-1.544-4.104-5.939-5.379-.928-10.508-.928-10.508 2.157-2.205.897-6.118-.707-8.181-.604-.777-1.574-1.361-2.555-1.952-1.623-.979-3.276-1.974-3.34-3.888-.035-1.06.534-1.974 1.11-2.896.306-.491.614-.984.833-1.503 1.022-2.42-.155-5.038-1.965-6.723-.374-.347-.78-.675-1.188-1.004-1.157-.934-2.317-1.87-2.742-3.257-.575-1.874.536-3.962 2.171-5.025 1.636-1.064 3.684-1.285 5.65-1.204 3.497.143 7.053 1.218 9.667 3.549 3.74 3.333 5.017 8.717 4.799 13.723v.008c-.162 3.739-.278 6.411 2.481 9.16.319.318.655.63.993.943 1.717 1.592 3.462 3.208 3.123 5.821-.265 2.051-2.014 3.829-3.719 4.861Z" fill="#CDE5F9"/><mask id="b" style="mask-type:alpha" maskUnits="userSpaceOnUse" x="62" y="204" width="54" height="64"><path fill-rule="evenodd" clip-rule="evenodd" d="M109.732 242.6c-6.99 4.227 5.559 15.997 5.559 15.997l-11.119 7.574c-2.258-1.067-3.805-2.289-4.854-3.524l-4.524 5.094c-3.937-.175-8.088-1.479-9.991-5.207-.598-1.177-.648-2.711-.697-4.222-.065-1.979-.13-3.919-1.42-4.967-1.047-.849-2.567-1.208-3.861-1.434-.673-.12-4.552-.788-5.062-.12 2.61-3.412-2.012-1.246-2.012-1.246-1.542-.521-2.2-3.516-2.703-5.809-.201-.914-.378-1.717-.576-2.207-.435-1.076-4.436-8.417-5.708-7.953 5.502-2.007 11.419-.624 16.11 2.682 2.006 1.407 3.306 3.343 4.42 5.487.116.221.327.746.588 1.396.708 1.764 1.789 4.453 2.338 4.523.692.088 6.67 3.435 11.373 6.116.324-1.667-1.544-4.104-1.544-4.104-5.939-5.379-.928-10.508-.928-10.508 2.157-2.205.897-6.118-.707-8.181-.604-.777-1.574-1.361-2.555-1.952-1.623-.979-3.276-1.974-3.34-3.888-.035-1.06.534-1.974 1.11-2.896.306-.491.614-.984.833-1.503 1.022-2.42-.155-5.038-1.965-6.723-.374-.347-.78-.675-1.188-1.004-1.157-.934-2.317-1.87-2.742-3.257-.575-1.874.536-3.962 2.171-5.025 1.636-1.064 3.684-1.285 5.65-1.204 3.497.143 7.053 1.218 9.667 3.549 3.74 3.333 5.017 8.717 4.799 13.723v.008c-.162 3.739-.278 6.411 2.481 9.16.319.318.655.63.993.943 1.717 1.592 3.462 3.208 3.123 5.821-.265 2.051-2.014 3.829-3.719 4.861Z" fill="#CDE5F9"/></mask><g mask="url(#b)" stroke="#fff" stroke-width=".184" stroke-miterlimit="10"><path d="M85.885 202.376c.767 2.97 2.756 4.856 5.158 6.585 1.516 1.088 3.392 2.046 4.507 3.591 1.612 2.233.519 4.293.754 6.835.133 1.417.641 2.849 1.673 3.827 4.175 3.949 6.521 7.123 5.895 13.187-.887 8.552-1.408 18.337 6.7 23.93M62.769 234.569a20.744 20.744 0 0 1 13.29 9.107c1.341 2.122 1.761 4.755 3.859 6.292 2.139 1.57 4.966 1.867 7.383 2.82 4.443 1.751 7.466 6.216 8.992 10.601"/></g></g><g clip-path="url(#c)"><path fill-rule="evenodd" clip-rule="evenodd" d="M290.21 246.626c5.799 3.497-4.61 13.263-4.61 13.263l9.225 6.287c7.545-3.569 5.514-9.235 5.514-9.235-.491-1.373 1.228-3.62 1.228-3.62 4.93-4.46.772-8.717.772-8.717-1.789-1.83-.75-5.072.587-6.786.503-.645 1.309-1.131 2.123-1.621 1.349-.812 2.719-1.637 2.772-3.225.03-.887-.449-1.654-.93-2.426-.251-.401-.502-.803-.682-1.224-.847-2.006.128-4.18 1.631-5.578.312-.29.651-.564.991-.838.956-.771 1.914-1.545 2.266-2.696.476-1.56-.437-3.294-1.803-4.175-1.365-.882-3.07-1.064-4.693-.998-2.904.121-5.851 1.015-8.022 2.948-3.102 2.765-4.163 7.231-3.981 11.384v.001c.137 3.111.235 5.329-2.056 7.613-.266.265-.546.525-.827.785-1.424 1.32-2.869 2.659-2.59 4.827.221 1.7 1.673 3.176 3.085 4.031Zm24.957 1.105c-1.171.496-15.12 14.778-15.12 14.778l11.699 7.563c4.047-1.322 7.989-3.888 8.893-8.309.287-1.403-.106-3.018-.492-4.609-.504-2.075-.998-4.108.04-5.57.845-1.186 2.321-1.999 3.604-2.61l.006-.003c.685-.326 4.495-2.133 5.23-1.584-3.706-2.798 1.732-1.879 1.732-1.879 1.455-.99 1.274-4.299 1.135-6.833-.055-1.007-.104-1.891-.04-2.458.14-1.256 2.186-10.046 3.642-9.933-6.304-.496-12.062 2.655-15.991 7.452-1.675 2.043-2.466 4.433-3.007 6.987-.056.266-.125.88-.209 1.64-.228 2.042-.572 5.137-1.122 5.368Z" fill="#CDE5F9"/><mask id="d" style="mask-type:alpha" maskUnits="userSpaceOnUse" x="285" y="215" width="51" height="56"><path fill-rule="evenodd" clip-rule="evenodd" d="M290.21 246.626c5.799 3.497-4.61 13.263-4.61 13.263l9.225 6.287c7.545-3.569 5.514-9.235 5.514-9.235-.491-1.373 1.228-3.62 1.228-3.62 4.93-4.46.772-8.717.772-8.717-1.789-1.83-.75-5.072.587-6.786.503-.645 1.309-1.131 2.123-1.621 1.349-.812 2.719-1.637 2.772-3.225.03-.887-.449-1.654-.93-2.426-.251-.401-.502-.803-.682-1.224-.847-2.006.128-4.18 1.631-5.578.312-.29.651-.564.991-.838.956-.771 1.914-1.545 2.266-2.696.476-1.56-.437-3.294-1.803-4.175-1.365-.882-3.07-1.064-4.693-.998-2.904.121-5.851 1.015-8.022 2.948-3.102 2.765-4.163 7.231-3.981 11.384v.001c.137 3.111.235 5.329-2.056 7.613-.266.265-.546.525-.827.785-1.424 1.32-2.869 2.659-2.59 4.827.221 1.7 1.673 3.176 3.085 4.031Zm24.957 1.105c-1.171.496-15.12 14.778-15.12 14.778l11.699 7.563c4.047-1.322 7.989-3.888 8.893-8.309.287-1.403-.106-3.018-.492-4.609-.504-2.075-.998-4.108.04-5.57.845-1.186 2.321-1.999 3.604-2.61l.006-.003c.685-.326 4.495-2.133 5.23-1.584-3.706-2.798 1.732-1.879 1.732-1.879 1.455-.99 1.274-4.299 1.135-6.833-.055-1.007-.104-1.891-.04-2.458.14-1.256 2.186-10.046 3.642-9.933-6.304-.496-12.062 2.655-15.991 7.452-1.675 2.043-2.466 4.433-3.007 6.987-.056.266-.125.88-.209 1.64-.228 2.042-.572 5.137-1.122 5.368Z" fill="#CDE5F9"/></mask><g mask="url(#d)" stroke="#fff" stroke-width=".184" stroke-miterlimit="10"><path d="M315.005 202.376c-.767 2.97-2.756 4.856-5.158 6.585-1.518 1.088-3.392 2.046-4.51 3.591-1.608 2.233-.516 4.293-.751 6.835-.133 1.417-.641 2.849-1.675 3.827-4.176 3.949-6.519 7.123-5.895 13.187.887 8.552 1.405 18.337-6.703 23.93M335.496 226.284a22.387 22.387 0 0 0-6.947 5.53 22.382 22.382 0 0 0-4.253 7.794c-.783 2.597-.459 5.458-2.21 7.664-1.774 2.252-4.63 3.379-6.877 5.071-4.117 3.107-5.976 8.629-6.295 13.637"/></g></g><path d="M77.641 258.568H337" stroke="#000" stroke-width=".246" stroke-miterlimit="10"/><path d="M175.588 158.454s-1.574 2.935-2.222 3.893c-1.55 2.291-5.463 3.301-5.463 3.301a1.178 1.178 0 0 0-.599 1.09c0 .641.408 1.159.909 1.159h8.105c1.83 0 3.593-.884 4.934-2.473l3.579-4.237 2.807-2.733h-12.05Z" fill="#F2D3DC"/><path d="m184.435 158.495-1.8 7.123c-.27 1.068.351 2.164 1.228 2.164.531 0 1.007-.415 1.201-1.046l2.562-8.282-3.191.041Z" fill="#F2D3DC"/><path d="M284.112 124.928h-12.779l-1.638-19.236h16.058l-1.641 19.236Z" fill="#F3F3F3"/><path d="m222.712 94.02-15.042-2.07 6.656 51.396 18.758-2.124-10.372-47.202Z" fill="#fff"/><path d="m206.815 140.065 38.186-5.721s10.035 14.398-38.186 13.637" fill="#fff"/><path d="m185.666 104.129-13.698 54.325h16.783l6.725-26.674 3.156 25.544h19.649l-9.501-65.198-4.696-.67c-7.52-1.034-15.736 2.878-18.418 12.673Z" fill="#3B5BD6"/><path d="m210.089 89.66-1.311 2.466 6.317 5.372 2.294-3.933-7.3-3.905ZM217.389 93.566l2.797 3.583 2.562-3.085-2.466-2.898-2.893 2.4Z" fill="#fff"/><path d="m215.79 96.186 2.459 2.997 1.289-2.916-2.149-2.701-1.599 2.62Z" fill="#58C1CC"/><path d="m216.805 95.847.683 30.847 4.362 6.41 2.731-6.41-6.076-30.778" fill="#58C1CC"/><path d="M265.912 128.43a1.161 1.161 0 1 0 0-2.323 1.161 1.161 0 0 0 0 2.323ZM179.03 156.066a1.161 1.161 0 1 0 0-2.323 1.161 1.161 0 0 0 0 2.323Z" fill="#76BEC9"/><path d="m236.466 112.217 4.845 22.15" stroke="#000" stroke-width=".246" stroke-miterlimit="10"/><path d="m269.761 106.271 16.038-.958-.214 2.255-15.824-1.297Z" fill="#000"/><path d="M286.899 103.397h-18.352v2.95h18.352v-2.95Z" fill="#D7D7D7"/><path d="M285.934 104.719H269.51l.985-3.606h14.457l.982 3.606Z" fill="#D7D7D7"/><path d="M178.698 162.037s-1.378 2.152-3.164 2.758c-1.238.378-2.507.65-3.792.813-.444.062-.778.541-.778 1.111 0 .619.39 1.117.874 1.117h2.269" stroke="#010541" stroke-width=".246" stroke-miterlimit="10"/><path d="M270.475 115.941c.983-.801 2.226-1.754 3.483-1.874a1.132 1.132 0 0 1 1.211 1.461c-.187.749-.882 1.356-1.4 1.81-1.147 1.002-1.678 1.675-2.903 2.538" fill="#F2D3DC"/><path d="M270.475 115.941c.983-.801 2.226-1.754 3.483-1.874a1.132 1.132 0 0 1 1.211 1.461c-.187.749-.882 1.356-1.4 1.81-1.147 1.002-1.678 1.675-2.903 2.538" stroke="#000" stroke-width=".246" stroke-miterlimit="10"/><path d="M218.283 157.326s-4.735-57.664-9.461-65.283c0 0-16.723-7.72-22.878 13.838 0 0-10.711 34.972-12.45 52.573h15.257s5.752-18.787 6.725-26.674c0 0 1.341 22.466 3.156 25.544l-3.765-32.828" fill="#3458DF"/><path d="m208.778 92.126-4.217 10.058 4.165 3.547-3.458 5.673 11.33 28.486-7.82-47.764Z" fill="#233CB7"/><path d="M222.729 94.04c3.834.046 7.761 1.242 11.072 3.134 4.959 2.832 8.183 7.709 11.069 12.482 2.653 4.386 5.404 8.684 8.223 12.958l13.981-5.649 4.597 10.301s-12.28 13.737-15.76 14.737c0 0-11.962 5.089-17.021-7.646l7.122 19.374-13.999 1.164-9.284-60.855Z" fill="#3458DF"/><path d="m222.729 94.037 6.864 42.793 2.66-25.05-4.067-6.393 1.245-2.572-6.702-8.778ZM208.781 92.126s3.748 3.309 7.82 47.764c-.002 0-9.132-45.3-7.82-47.764Z" fill="#233CB7"/><path d="M195.127 126.762s1.247 24.203 3.37 29.474M245.838 153.303l-8.707-24.251" stroke="#000" stroke-width=".246" stroke-miterlimit="10"/><path d="M175.812 156.066h10.131M246.405 138.385s8.13 3.554 13.509-2.134" stroke="#fff" stroke-width=".246" stroke-miterlimit="10"/><path d="M226.796 162.403s3.684 14.604 3.102 26.855" stroke="#010541" stroke-width=".246" stroke-miterlimit="10"/><path d="M252.366 183.553s1.022 9.505-4.936 12.749" stroke="#fff" stroke-width=".246" stroke-miterlimit="10"/><path d="m234.697 185.232-37.886 28.047M259.916 181.386s1.594 10.775-4.949 16.108M197.728 82.523s-7.103-.197-14.305 7.123" stroke="#010541" stroke-width=".246" stroke-miterlimit="10"/><path d="M306.735 159.097h-17.809c-.558 0-1.012-.245-1.012-.518v-.14c0-.285.454-.518 1.012-.518h17.809c.558 0 1.012.245 1.012.518v.14c0 .285-.454.518-1.012.518Z" fill="#fff"/><path opacity=".44" d="M149.932 107.453h-53.77a4.804 4.804 0 0 0-4.804 4.806v27.084a4.805 4.805 0 0 0 4.805 4.804h52.688a4.804 4.804 0 0 0 4.804-4.804v-28.177a3.715 3.715 0 0 0-3.711-3.713" fill="#79A4E2"/><path d="M144.742 139.959H90.666a4.103 4.103 0 0 1-4.105-4.104v-28.491a4.103 4.103 0 0 1 4.105-4.102h54.076a4.116 4.116 0 0 1 2.905 1.202 4.094 4.094 0 0 1 1.204 2.905v28.491a4.107 4.107 0 0 1-4.107 4.104" fill="#CDE5F9"/><path d="M119.845 133.895a1.683 1.683 0 1 1-3.366-.001 1.683 1.683 0 0 1 3.366.001Z" fill="#467EF6"/><path d="M123.293 121.956H93.147c-.344 0-.627-.211-.627-.469v-.126c0-.257.283-.469.627-.469h30.146c.344 0 .626.212.626.469v.126c0 .258-.282.469-.626.469ZM129.126 119.532h-35.98c-.343 0-.626-.212-.626-.467v-.128c0-.258.283-.466.627-.466h35.979c.344 0 .627.208.627.466v.128c0 .246-.283.467-.627.467ZM128.915 124.77H92.69c-.093 0-.17-.056-.17-.125v-.034c0-.069.077-.125.17-.125h36.225c.091 0 .167.056.167.125v.034c0 .069-.076.125-.167.125ZM128.915 126.703H92.69c-.093 0-.17-.056-.17-.125v-.034c0-.069.077-.125.17-.125h36.225c.091 0 .167.056.167.125v.034c0 .069-.076.125-.167.125Z" fill="#fff"/><path d="M155.944 122.631h-17.505a2.3 2.3 0 0 1-2.294-2.291v-17.508a2.3 2.3 0 0 1 2.294-2.291h17.505a2.299 2.299 0 0 1 2.294 2.291v17.508a2.3 2.3 0 0 1-2.294 2.291Z" fill="#CCDDF8"/><path d="M153.147 120.011H135.64a2.3 2.3 0 0 1-2.292-2.292v-17.507a2.3 2.3 0 0 1 2.292-2.292h17.507a2.298 2.298 0 0 1 2.291 2.292v17.507a2.3 2.3 0 0 1-2.291 2.292Z" fill="#EA706A"/><path d="m138.524 102.227-.849.847 12.584 12.619.849-.846-12.584-12.62Z" fill="#fff"/><path d="m150.59 102.542-13.194 11.98.806.887 13.194-11.98-.806-.887Z" fill="#fff"/><path d="M105.607 133.91a1.68 1.68 0 0 1-1.039 1.554 1.684 1.684 0 0 1-2.294-1.226 1.68 1.68 0 0 1 2.84-1.518c.315.315.493.743.493 1.19ZM112.724 133.91a1.679 1.679 0 0 1-1.038 1.554 1.685 1.685 0 0 1-1.834-.365 1.683 1.683 0 0 1 1.19-2.872 1.68 1.68 0 0 1 1.682 1.683Z" fill="#467EF6"/><path d="M102.058 129.12h-9.412a.124.124 0 0 1-.089-.038.128.128 0 0 1-.037-.09v-.031c0-.034.014-.066.037-.089a.123.123 0 0 1 .089-.037h9.412c.033 0 .065.013.088.037a.122.122 0 0 1 .037.089v.031a.126.126 0 0 1-.037.09.123.123 0 0 1-.088.038Z" fill="#fff"/><defs><clipPath id="a"><path fill="#fff" transform="translate(63 204.186)" d="M0 0h52.29v54.382H0z"/></clipPath><clipPath id="c"><path fill="#fff" transform="translate(285.756 214.644)" d="M0 0h50.199v43.924H0z"/></clipPath></defs></svg>