<svg viewBox="0 0 400 300" fill="none" xmlns="http://www.w3.org/2000/svg"><path d="M88.833 206.894c-6.79-.011-3.997-20.698-3.432-24.374 2.042-13.35 9.408-23.102 19.478-31.944 13.387-11.755 26.701-21.539 36.953-36.321 9.932-14.32 18.494-30.784 34.606-39.14 43.705-22.659 83.039 36.144 116.151 55.8 15.12 8.973 23.485 22.952 25.695 40.377.777 6.132-1.222 35.602-11.271 35.602H88.833Z" fill="#E9F3FD"/><path opacity=".44" d="M283.866 206.721H141.512a6.967 6.967 0 0 1-6.945-6.945v-88.651a6.971 6.971 0 0 1 2.04-4.905 6.971 6.971 0 0 1 4.905-2.04h142.349a6.971 6.971 0 0 1 4.905 2.04 6.971 6.971 0 0 1 2.04 4.905v88.651a6.968 6.968 0 0 1-6.945 6.945" fill="#C7D4EE"/><path d="M275.334 209.404H132.983a6.97 6.97 0 0 1-6.945-6.945v-88.651a6.97 6.97 0 0 1 6.945-6.945h142.351a6.97 6.97 0 0 1 6.945 6.945v88.651a6.97 6.97 0 0 1-6.945 6.945Z" fill="#fff"/><path d="M229.532 125.15h-84.01v56.429h84.01V125.15Z" fill="#C8DAF9"/><path d="M206.74 188.63h-66.637v-70.371h100.835v41.831h.576v-42.391H139.527v71.493h67.213v-.562Z" fill="#000"/><path d="M192.937 173.058h-39.246a.789.789 0 0 1-.784-.786v-39.243a.786.786 0 0 1 .784-.786h39.246a.785.785 0 0 1 .783.786v39.243a.785.785 0 0 1-.783.786Zm-38.46-1.57h37.674v-37.673h-37.674v37.673Z" fill="#fff"/><path d="M192.936 171.126v1.153h-1.067l-17.66-17.596-1.121-1.111-19.393-19.324v-1.208h1.002c6.5 6.468 12.999 12.943 19.498 19.426.378.369.753.737 1.122 1.115a7877.465 7877.465 0 0 1 17.621 17.557" fill="#fff"/><path d="M192.937 133.642v2.236a19578.3 19578.3 0 0 0-17.621 17.694c-.377.371-.745.74-1.107 1.109a24256.811 24256.811 0 0 0-17.533 17.598h-2.222l18.635-18.707 1.107-1.106 18.741-18.824Z" fill="#fff"/><path d="m110.314 151.394 2.676 10.656-8.449.88-1.614-11.158 7.387-.378Z" fill="#F4CFD7"/><path d="m110.315 151.394-1.099-6.806-3.854 1.224-.094 1.09-1.21-1.03-10.513 3.337.661 2.088 6.496.146.65 1.207 8.963-1.256Z" fill="#2E55E6"/><path d="m101.433 149.575-.806 2.464-2.084-2.385-1.429 2.176-1.413-1.805-.59 1.291" stroke="#000" stroke-width=".23" stroke-miterlimit="10"/><path d="m130.893 150.594.011 10.988-8.41-1.196 1.138-11.216 7.261 1.424Z" fill="#F4CFD7"/><path d="m130.893 150.594.581-6.871-4.034.254-.357 1.035-.924-1.293-11.009.689.139 2.185 6.264 1.717.337 1.33 9.003.954Z" fill="#2E55E6"/><path d="m122.718 146.676-1.381 2.197-1.443-2.822-1.915 1.766-.931-2.093-.888 1.109" stroke="#000" stroke-width=".23" stroke-miterlimit="10"/><g clip-path="url(#a)"><path fill-rule="evenodd" clip-rule="evenodd" d="M323.157 194.961c4.626 4.46-8.606 12.315-8.606 12.315l8.781 6.74c7.729-1.71 7.037-7.376 7.037-7.376-.173-1.373 1.888-3.088 1.888-3.088 5.486-3.091 2.535-7.897 2.535-7.897-1.261-2.067.371-4.843 1.966-6.152.602-.493 1.45-.774 2.307-1.057 1.416-.469 2.855-.944 3.237-2.4.213-.811-.066-1.615-.349-2.428-.147-.425-.296-.853-.375-1.285-.362-2.031.996-3.836 2.678-4.813.348-.202.719-.384 1.089-.566 1.048-.514 2.098-1.03 2.664-2.018.765-1.337.281-3.128-.793-4.232s-2.612-1.629-4.128-1.908c-2.709-.5-5.622-.293-8.033 1.037-3.448 1.897-5.366 5.804-6.069 9.681-.528 2.911-.901 4.969-3.499 6.599-.301.189-.615.37-.93.552-1.594.921-3.213 1.855-3.405 3.917-.152 1.613.878 3.294 2.005 4.379Zm26.453-.17c-6.046.687-18.144 14.638-18.144 14.638l8.434 6.122c3.392-.657 11.547-5.432 12.72-8.91.371-1.1.217-2.44.065-3.759-.198-1.722-.393-3.409.59-4.482.8-.871 2.072-1.376 3.165-1.74.571-.189 3.847-1.267 4.379-.753-2.706-2.623 1.581-1.34 1.581-1.34 1.273-.66 1.459-3.346 1.601-5.4.057-.812.106-1.526.213-1.975.231-.998 2.766-7.865 3.918-7.634-5.027-1.033-9.982.938-13.626 4.395-1.551 1.48-2.43 3.324-3.121 5.327-.071.206-.185.693-.325 1.298-.383 1.645-.968 4.157-1.45 4.213Z" fill="#C7E5FA"/><mask id="b" style="mask-type:alpha" maskUnits="userSpaceOnUse" x="314" y="168" width="55" height="48"><path fill-rule="evenodd" clip-rule="evenodd" d="M323.157 194.961c4.626 4.46-8.606 12.315-8.606 12.315l8.781 6.74c7.729-1.71 7.037-7.376 7.037-7.376-.173-1.373 1.888-3.088 1.888-3.088 5.486-3.091 2.535-7.897 2.535-7.897-1.261-2.067.371-4.843 1.966-6.152.602-.493 1.45-.774 2.307-1.057 1.416-.469 2.855-.944 3.237-2.4.213-.811-.066-1.615-.349-2.428-.147-.425-.296-.853-.375-1.285-.362-2.031.996-3.836 2.678-4.813.348-.202.719-.384 1.089-.566 1.048-.514 2.098-1.03 2.664-2.018.765-1.337.281-3.128-.793-4.232s-2.612-1.629-4.128-1.908c-2.709-.5-5.622-.293-8.033 1.037-3.448 1.897-5.366 5.804-6.069 9.681-.528 2.911-.901 4.969-3.499 6.599-.301.189-.615.37-.93.552-1.594.921-3.213 1.855-3.405 3.917-.152 1.613.878 3.294 2.005 4.379Zm26.453-.17c-6.046.687-18.144 14.638-18.144 14.638l8.434 6.122c3.392-.657 11.547-5.432 12.72-8.91.371-1.1.217-2.44.065-3.759-.198-1.722-.393-3.409.59-4.482.8-.871 2.072-1.376 3.165-1.74.571-.189 3.847-1.267 4.379-.753-2.706-2.623 1.581-1.34 1.581-1.34 1.273-.66 1.459-3.346 1.601-5.4.057-.812.106-1.526.213-1.975.231-.998 2.766-7.865 3.918-7.634-5.027-1.033-9.982.938-13.626 4.395-1.551 1.48-2.43 3.324-3.121 5.327-.071.206-.185.693-.325 1.298-.383 1.645-.968 4.157-1.45 4.213Z" fill="#C7E5FA"/></mask><g mask="url(#b)" stroke="#fff" stroke-width=".173" stroke-miterlimit="10"><path d="M350.163 168.531c-1.104 2.144-2.959 3.245-5.105 4.149-1.353.571-2.957.977-4.082 1.968-1.625 1.432-1.153 3.204-1.768 5.112-.348 1.063-.989 2.075-1.95 2.642-3.891 2.305-6.242 4.326-6.816 9.088-.809 6.712-4.121 16.411-11.312 19.288M368.132 179.558a18.183 18.183 0 0 0-10.355 9.604c-.89 2.015-.922 4.35-2.536 5.952-1.655 1.636-4.068 2.258-6.041 3.395-3.628 2.09-8.812 8.887-9.572 12.886"/></g></g><path d="M276.33 94.44H131.992a5.97 5.97 0 0 0-5.951 5.949v11.026h156.238v-11.026a5.967 5.967 0 0 0-5.949-5.95Z" fill="#2E55E6"/><path d="M132.716 136.122H112.47a4.063 4.063 0 0 1-4.052-4.05V111.36a4.064 4.064 0 0 1 4.052-4.052h20.244a4.065 4.065 0 0 1 4.052 4.052v20.712a4.06 4.06 0 0 1-4.052 4.05" fill="#FA6765"/><path d="M128.257 122.417v5.011a1.677 1.677 0 0 1-1.674 1.673h-10.019a1.673 1.673 0 0 1-1.671-1.673v-10.02a1.675 1.675 0 0 1 1.671-1.673h4.964v-.669h-4.964a2.346 2.346 0 0 0-2.342 2.342v10.02a2.341 2.341 0 0 0 2.342 2.341h10.019a2.34 2.34 0 0 0 2.342-2.341v-5.011h-.668Z" fill="#fff"/><path d="M130.391 114.361a2.182 2.182 0 0 0-3.077-.124l-1.832 1.687-.024.021-6.204 5.718 2.955 3.206 6.204-5.718.023-.021 1.831-1.69a2.182 2.182 0 0 0 .124-3.079ZM125.147 116.228l1.876 1.874" stroke="#fff" stroke-width=".461" stroke-miterlimit="10"/><path d="m117.564 126.501 1.961-.512-1.309-1.406-.652 1.918Z" fill="#fff" stroke="#fff" stroke-width=".691" stroke-miterlimit="10"/><path opacity=".39" d="M298.375 175.57h-99.734a6.383 6.383 0 0 1-6.366-6.366v-35.329a6.384 6.384 0 0 1 6.366-6.364h99.734a6.384 6.384 0 0 1 6.366 6.364v35.329a6.387 6.387 0 0 1-6.366 6.366Z" fill="#6EA3E6"/><path d="M292.546 169.739H192.81a6.385 6.385 0 0 1-6.352-6.366v-35.328a6.382 6.382 0 0 1 6.363-6.366h99.736a6.384 6.384 0 0 1 6.366 6.366v35.328a6.386 6.386 0 0 1-6.366 6.366" fill="#F2F6FC"/><path d="M233.65 150.189h30.524" stroke="#0CC3CD" stroke-width=".461" stroke-miterlimit="10"/><g clip-path="url(#c)"><path fill-rule="evenodd" clip-rule="evenodd" d="M74.34 186.378c-6.772 4.096 8.547 22.743 8.547 22.743l-13.927.094c-.47-.222-.907-.451-1.316-.685l-9.902 2.061c-3.817-.17-7.837-1.434-9.68-5.045-.585-1.143-.633-2.634-.681-4.101-.063-1.914-.124-3.788-1.371-4.801-1.014-.816-2.487-1.152-3.741-1.383-.652-.115-4.407-.765-4.905-.115 2.53-3.305-1.948-1.208-1.948-1.208-1.494-.506-2.131-3.407-2.62-5.63-.194-.883-.364-1.659-.556-2.135-.424-1.051-4.3-8.155-5.532-7.708 5.32-1.938 11.062-.599 15.605 2.612 1.936 1.364 3.194 3.24 4.275 5.315.112.215.318.727.572 1.36.686 1.709 1.73 4.308 2.261 4.377.62.076 7.104 4.791 12.827 9.029-.143-1.609.259-2.73.259-2.73.58-1.602-1.425-4.225-1.425-4.225-5.755-5.211-.899-10.181-.899-10.181 2.075-2.136.876-5.923-.691-7.924-.59-.752-1.53-1.318-2.478-1.889-1.576-.949-3.177-1.914-3.238-3.769-.035-1.03.518-1.917 1.076-2.812.296-.473.592-.949.805-1.45.99-2.344-.15-4.882-1.904-6.514-.362-.337-.756-.655-1.15-.974-1.12-.905-2.243-1.812-2.654-3.154-.555-1.814.515-3.838 2.107-4.868 1.593-1.03 3.584-1.244 5.479-1.166 3.39.138 6.832 1.182 9.367 3.439 3.623 3.229 4.861 8.454 4.65 13.295-.16 3.625-.273 6.216 2.4 8.88.31.309.637.612.965.915 1.664 1.542 3.353 3.108 3.026 5.638-.258 1.987-1.953 3.711-3.603 4.709Z" fill="#C7E5FA"/><mask id="d" style="mask-type:alpha" maskUnits="userSpaceOnUse" x="26" y="149" width="57" height="62"><path fill-rule="evenodd" clip-rule="evenodd" d="M74.34 186.378c-6.772 4.096 8.547 22.743 8.547 22.743l-13.927.094c-.47-.222-.907-.451-1.316-.685l-9.902 2.061c-3.817-.17-7.837-1.434-9.68-5.045-.585-1.143-.633-2.634-.681-4.101-.063-1.914-.124-3.788-1.371-4.801-1.014-.816-2.487-1.152-3.741-1.383-.652-.115-4.407-.765-4.905-.115 2.53-3.305-1.948-1.208-1.948-1.208-1.494-.506-2.131-3.407-2.62-5.63-.194-.883-.364-1.659-.556-2.135-.424-1.051-4.3-8.155-5.532-7.708 5.32-1.938 11.062-.599 15.605 2.612 1.936 1.364 3.194 3.24 4.275 5.315.112.215.318.727.572 1.36.686 1.709 1.73 4.308 2.261 4.377.62.076 7.104 4.791 12.827 9.029-.143-1.609.259-2.73.259-2.73.58-1.602-1.425-4.225-1.425-4.225-5.755-5.211-.899-10.181-.899-10.181 2.075-2.136.876-5.923-.691-7.924-.59-.752-1.53-1.318-2.478-1.889-1.576-.949-3.177-1.914-3.238-3.769-.035-1.03.518-1.917 1.076-2.812.296-.473.592-.949.805-1.45.99-2.344-.15-4.882-1.904-6.514-.362-.337-.756-.655-1.15-.974-1.12-.905-2.243-1.812-2.654-3.154-.555-1.814.515-3.838 2.107-4.868 1.593-1.03 3.584-1.244 5.479-1.166 3.39.138 6.832 1.182 9.367 3.439 3.623 3.229 4.861 8.454 4.65 13.295-.16 3.625-.273 6.216 2.4 8.88.31.309.637.612.965.915 1.664 1.542 3.353 3.108 3.026 5.638-.258 1.987-1.953 3.711-3.603 4.709Z" fill="#C7E5FA"/></mask><g mask="url(#d)" stroke="#fff" stroke-width=".173" stroke-miterlimit="10"><path d="M49.103 147.28c.742 2.876 2.67 4.704 5.002 6.38 1.468 1.056 3.287 1.982 4.365 3.48 1.56 2.16.503 4.149.73 6.62.128 1.383.62 2.766 1.614 3.709 4.043 3.826 6.316 6.898 5.707 12.773-.841 8.287-.841 20.915 6.996 26.343M26.709 178.465a20.085 20.085 0 0 1 12.872 8.823c1.3 2.056 1.708 4.61 3.739 6.095 2.074 1.521 4.81 1.809 7.145 2.733 4.306 1.697 7.235 6.021 8.713 10.271"/></g></g><path d="M37.807 206.735h335.03" stroke="#000" stroke-width=".23" stroke-miterlimit="10"/><path d="M143.948 104.017a2.366 2.366 0 0 1-1.455 2.182 2.36 2.36 0 1 1 1.455-2.182ZM189.129 197.764l8.162 28.413a6750.638 6750.638 0 0 0-56.473.237c-5.652.049-11.838.816-17.22-1.325-9.93-3.955-12.986-11.474-15.277-21.247-2.058-8.74-3.699-17.579-5.262-26.419-.532-3.012-2.641-13.543-3.135-16.56l13.078-2.142 19.046 51.849c5.071-2.362 9.879-5.266 14.906-7.719 6.848-3.342 14.262-5.368 21.747-6.684 6.695-1.183 13.509-.945 20.439 1.613" fill="#2E55E4"/><path d="M121.048 157.161h11.649l3.941 56.768-19.566-11.357 3.976-45.411Z" fill="#2E55E4"/><mask id="e" style="mask-type:alpha" maskUnits="userSpaceOnUse" x="99" y="157" width="99" height="70"><path d="m189.129 197.764 8.162 28.413a6750.638 6750.638 0 0 0-56.473.237c-5.652.049-11.838.816-17.22-1.325-9.93-3.955-12.986-11.474-15.277-21.247-2.058-8.74-3.699-17.579-5.262-26.419-.532-3.012-2.641-13.543-3.135-16.56l13.078-2.142 19.046 51.849c5.071-2.362 9.879-5.266 14.906-7.719 6.848-3.342 14.262-5.368 21.747-6.684 6.695-1.183 13.509-.945 20.439 1.613" fill="#2E55E4"/><path d="M121.048 157.161h11.649l3.941 56.768-19.566-11.357 3.976-45.411Z" fill="#2E55E4"/></mask><g mask="url(#e)" stroke="#fff" stroke-width=".115" stroke-miterlimit="10"><path d="m187.529 128.26 35.229 100.915M182.751 129.928l35.229 100.916M177.974 131.595l35.228 100.916M173.198 133.264l35.228 100.915M168.42 134.93l35.228 100.916M163.644 136.599l35.229 100.916M158.866 138.265l35.228 100.916M154.09 139.934l35.229 100.916M149.312 141.6l35.228 100.916M144.534 143.269l35.228 100.916M139.758 144.935l35.228 100.916M134.98 146.604l35.228 100.916M130.205 148.271l35.228 100.916M125.426 149.94l35.228 100.915M120.651 151.606l35.228 100.916M115.872 153.275 151.1 254.191M111.094 154.941l35.228 100.916M106.319 156.61l35.228 100.916M101.54 158.277l35.228 100.915M96.765 159.945l35.228 100.916M91.986 161.612l35.228 100.916M87.21 163.28l35.229 100.916"/></g><path d="m341.451 195.143-2.185-1.161-20.429 5.421-10.586 26.112-7.003.655-16.06 2.839h24.582v-.295l18.024-6.437 13.657-27.134Z" fill="#EAF2FB"/><path d="m329.982 223.637-20.431 5.421 11.472-28.295 20.428-5.421-11.469 28.295Z" fill="#C7E5FA"/><path d="M329.41 211.331c0 1.175-.984 2.406-2.199 2.75-1.214.343-2.196-.337-2.196-1.512 0-1.176.984-2.407 2.196-2.75 1.213-.344 2.199.334 2.199 1.512Z" fill="#fff"/><path opacity=".31" d="M361.605 153.416c-9.289 4.805-24.026 4.478-40.38-4.043a52.582 52.582 0 0 0-16.484-5.281v16.826a52.5 52.5 0 0 1 16.484 5.283c16.365 8.528 31.091 8.849 40.38 4.041l-10.4-6.556 10.4-10.27Z" fill="#6EA3E6"/><path d="m318.881 199.412-10.667 26.802h-7.468" stroke="#000" stroke-width=".138" stroke-linecap="round" stroke-linejoin="round"/><path d="M245.889 135.871h-15.323a.84.84 0 0 1-.885-.779v-1.969a.84.84 0 0 1 .885-.779h15.323a.84.84 0 0 1 .883.779v1.969a.838.838 0 0 1-.883.779ZM259.394 135.871h-9.593a.842.842 0 0 1-.885-.779v-1.969a.835.835 0 0 1 .885-.779h9.593a.837.837 0 0 1 .882.779v1.969a.837.837 0 0 1-.882.779ZM285.601 135.871h-18.575c-.941 0-1.711-.351-1.711-.78v-1.968c0-.429.77-.779 1.711-.779h18.575c.943 0 1.71.35 1.71.779v1.968c0 .429-.767.78-1.71.78ZM236.473 137.839h-5.681a.88.88 0 0 0-.928.882.883.883 0 0 0 .928.881h5.681a.895.895 0 0 0 .654-.241.888.888 0 0 0 0-1.28.872.872 0 0 0-.654-.242ZM249.059 137.839h-9.45a.88.88 0 0 0-.928.882.888.888 0 0 0 .275.64.89.89 0 0 0 .653.241h9.45a.893.893 0 0 0 .653-.241.883.883 0 0 0-.653-1.522Z" fill="#2E55E6"/><path d="M229.888 143.366h20.249M229.888 147.536h36.835M229.888 152.849h45.446M269.71 147.536h19.039M252.866 143.366h41.138" stroke="#0CC3CD" stroke-width=".461" stroke-miterlimit="10"/><path d="M280.646 159.807h-5.604v5.37h5.604v-5.37ZM269.817 159.807h-5.604v5.37h5.604v-5.37ZM290.439 159.807h-5.603v5.37h5.603v-5.37Z" fill="#FA6765" stroke="#241614" stroke-width=".23" stroke-miterlimit="10"/><path d="M234.33 181.439c-2.892 1.53-5.149.521-6.101-1.519-.88-1.897.042-4.73 2.63-4.709a6.583 6.583 0 0 1 2.997.841 9.064 9.064 0 0 1 1.118 1.683c.624 1.233.986 2.839-.641 3.704" fill="#F4CFD7"/><path d="M235.423 184.444c5.709 2.257 9.482-1.152 10.035-6.115.245-2.205.314-4.609-.654-6.656-.883-1.874-2.356-3.386-4.336-3.983-4.149-1.252-8.643 1.489-10.035 6.115a.353.353 0 0 0 0 .046c-1.36 4.61 1.129 9.058 5.001 10.603" fill="#F4CFD7"/><path d="M233.19 178.892a3.082 3.082 0 0 0-3.375-1.796c-.378.072-.322.673.06.602a2.468 2.468 0 0 1 2.748 1.403c.159.353.726.146.567-.209Z" fill="#000"/><path d="m234.989 181.113-1.584 6.918 5.059 1.159 1.585-6.918-5.06-1.159Z" fill="#F4CFD7"/><path d="M241.464 176.776a.562.562 0 0 1-.625.134.565.565 0 1 1 .641-.892.536.536 0 0 1-.016.758ZM243.732 180.263c.324-1.139.479-2.319.461-3.503 0-.348-.537-.413-.532-.065a11.685 11.685 0 0 1-.461 3.372c-.095.323.417.521.512.196" fill="#030047"/><path d="M244.851 174.273c-1.957-.27-8.529-3.762-9.757.187-.314 1.005-.291 2.304-1.358 2.263a1.235 1.235 0 0 1-1.067-1.185 7.038 7.038 0 0 0-2.623-.23c0-6.883 3.4-8.641 5.175-8.107 0 0 5.843-6.576 8.111-2.009 0 0 7.267-3.227 8.36 3.701 1.092 6.929-6.841 5.38-6.841 5.38Z" fill="#000"/><path d="M233.708 183.924s5.023 2.226 7.208.903" stroke="#000" stroke-width=".23" stroke-miterlimit="10"/><path d="M299.031 228.615s.316-2.701-4.176-4.119c0 0-5.096-1.975-7.304 4.119h11.48Z" fill="#003FC6"/><path d="M291.792 222.164a4.702 4.702 0 0 0-2.87.39c-.53.272-1.012.63-1.427 1.058-.262.265-.396.624-.691.852-.334.219-.71.367-1.104.434-.922.23-2.36.207-3.321.196a8.182 8.182 0 0 1-2.192-.346l-4.149-1.028-8.282-2.054c-2.443-.608-4.891-1.191-7.336-1.791l-4.815-1.184-1.805-.445c-.06-.014-.691-.111-.705-.173l-3.868-12.391-14.576 4.637s-1.872 18.707 15.918 18.306c5.58-.125 11.144.302 16.719.401 1.277.023 2.553.034 3.826.032 5.426 0 10.728-.062 16.135-.152 1.44-.023 2.892-.014 4.335-.042.355.005.71-.009 1.063-.041.399-.048.657-.396.417-.77a1.209 1.209 0 0 0-.74-.532c-.327-.102-.666-.12-.993-.201-.514-.127-1.116-.346-1.383-.836-.077-.143-.12-.3-.127-.461a1.3 1.3 0 0 1 .309-1.008c.417-.389 1.081-.23 1.59-.18.807.095 4.476 1.383 4.944.533.713-1.339-4.091-3.073-4.872-3.204Z" fill="#F4CFD7"/><path d="m255.56 223.455 15.393.175-23.008-36.233-5.965-.231s-.367 2.125 1.434 4.361c-.113.171 13.691 34.77 13.691 34.77" fill="#F4CFD7"/><path d="M192.275 226.799c24.022-.396 41.903-1.512 41.903-1.512 10.87-.795 23.741-10.437 23.741-10.437-3.919-6.836-7.291-15.477-12.82-21.122-6.597-6.732-15.319-10.335-24.377-8.835-13.758 2.278-19.329 6.888-31.596 12.871" fill="#12C1CB"/><path d="m229.834 215.42 10.559 15.401 20.011-13.829s-9.817-21.09-17.713-25.428" fill="#12C1CB"/><path d="m240.381 230.821-13-20.928" stroke="#000" stroke-width=".23" stroke-miterlimit="10"/><path d="M224.864 188.222s10.114.419 15.109 7.12" stroke="#fff" stroke-width=".23" stroke-miterlimit="10"/><path d="M241.98 187.171s-.201-4.728-.032-5.594l3.623-3.84 2.374 9.659" fill="#F4CFD7"/><path d="m269.695 221.648-11.283-3.501M118.501 173.726l13.535 36.844s14.482-7.804 19.981-9.927" stroke="#000" stroke-width=".23" stroke-miterlimit="10"/><path d="M360.448 146.233c-10.052 4.806-26.002 4.479-43.699-4.042a60.28 60.28 0 0 0-17.837-5.281v16.826a60.28 60.28 0 0 1 17.837 5.28c17.697 8.529 33.652 8.849 43.699 4.043l-11.252-6.555 11.252-10.271Z" fill="#FA6765"/><path d="M214.577 135.301h2.391l-4.391-4.898v2.886a1.987 1.987 0 0 0 .582 1.421 2.001 2.001 0 0 0 1.418.591Z" fill="#57E6EA"/><path d="M218.395 148.066V136.88l-.399-.445h-3.418a3.14 3.14 0 0 1-3.135-3.137v-3.807h-9.353a2.006 2.006 0 0 0-2.001 2.003v16.572l9.153 5.594 9.153-5.594Zm-14.459-6.433h10.603a.579.579 0 0 1 .401.166.575.575 0 0 1 .123.618.588.588 0 0 1-.123.184.579.579 0 0 1-.401.166h-10.603a.579.579 0 0 1-.401-.166.579.579 0 0 1-.123-.618.571.571 0 0 1 .524-.35Zm-.567 4.133a.567.567 0 0 1 .567-.567h5.341a.566.566 0 1 1 0 1.134h-5.345a.57.57 0 0 1-.563-.567ZM224.371 142.347l-4.841-2.996v8.016l5.348-3.268v-.853a1.055 1.055 0 0 0-.507-.899Z" fill="#57E6EA"/><path d="M209.242 154.893a.57.57 0 0 1-.295-.083l-15.344-9.374v13.569a3.035 3.035 0 0 0 3.033 3.033h25.202a3.04 3.04 0 0 0 2.144-.889 3.04 3.04 0 0 0 .889-2.144v-13.569l-15.339 9.374a.57.57 0 0 1-.29.083Z" fill="#57E6EA"/><path d="m198.955 139.411-4.841 2.936a1.075 1.075 0 0 0-.502.899v.86l5.347 3.268-.004-7.963Z" fill="#57E6EA"/><defs><clipPath id="a"><path fill="#fff" transform="translate(315.033 168.169)" d="M0 0h53.522v38.536H0z"/></clipPath><clipPath id="c"><path fill="#fff" transform="translate(27.084 149.971)" d="M0 0h55.663v56.733H0z"/></clipPath></defs></svg>