<svg viewBox="0 0 400 300" fill="none" xmlns="http://www.w3.org/2000/svg"><path fill-rule="evenodd" clip-rule="evenodd" d="M358.514 185.123s5.661-1.835 1.536-5.824c-1.005-.97-1.924-2.458-1.789-3.902.175-1.838 1.617-2.672 3.038-3.494.28-.162.559-.324.828-.492 2.317-1.456 2.652-3.3 3.12-5.887.629-3.458 2.34-6.942 5.416-8.643 2.15-1.187 4.749-1.371 7.164-.925 1.354.243 2.725.728 3.683 1.699.959.97 1.39 2.584.706 3.775-.505.881-1.442 1.341-2.376 1.8-.33.163-.66.325-.97.505-1.5.872-2.713 2.48-2.39 4.293.07.389.203.774.336 1.156.251.722.5 1.436.309 2.156-.34 1.3-1.626 1.724-2.89 2.141-.762.252-1.517.501-2.053.939-1.421 1.162-2.887 3.639-1.754 5.486 0 0 2.63 4.288-2.269 7.037 0 0-1.837 1.531-1.684 2.756 0 0 .614 5.055-6.277 6.584l-1.684-11.16Zm-39.931 7.119c3.584 4.644 4.572 9.888 2.207 11.713-2.364 1.825-7.187-.46-10.771-5.104-3.583-4.643-4.572-9.887-2.207-11.712 2.365-1.826 7.187.459 10.771 5.103Zm-8.612 21.682c1.352 5.17 11.293 6.323 12.23 6.323l2.962-.531c-3.685-15.084-19.215-12.478-19.215-12.478l2.368 4.853 2.495.1c2.557.871-.84 1.733-.84 1.733Zm58.876-17.38c-.884.25-12.181 9.262-12.181 9.262l7.726 6.479c3.026-.587 6.085-2.072 7.131-5.173.332-.979.194-2.172.059-3.348-.176-1.536-.35-3.043.528-4.004.711-.777 1.852-1.228 2.822-1.551.505-.17 3.417-1.133 3.902-.672-2.412-2.342 1.413-1.196 1.413-1.196 1.135-.581 1.301-2.979 1.428-4.813.05-.725.094-1.362.19-1.763.214-.891 2.47-7.02 3.506-6.809-4.486-.932-8.905.827-12.154 3.921-1.386 1.32-2.169 2.965-2.786 4.751-.064.186-.169.622-.298 1.161-.346 1.446-.871 3.637-1.286 3.755Z" fill="#CDE5F9"/><mask id="a" style="mask-type:alpha" maskUnits="userSpaceOnUse" x="305" y="155" width="81" height="66"><path fill-rule="evenodd" clip-rule="evenodd" d="M358.514 185.123s5.661-1.835 1.536-5.824c-1.005-.97-1.924-2.458-1.789-3.902.175-1.838 1.617-2.672 3.038-3.494.28-.162.559-.324.828-.492 2.317-1.456 2.652-3.3 3.12-5.887.629-3.458 2.34-6.942 5.416-8.643 2.15-1.187 4.749-1.371 7.164-.925 1.354.243 2.725.728 3.683 1.699.959.97 1.39 2.584.706 3.775-.505.881-1.442 1.341-2.376 1.8-.33.163-.66.325-.97.505-1.5.872-2.713 2.48-2.39 4.293.07.389.203.774.336 1.156.251.722.5 1.436.309 2.156-.34 1.3-1.626 1.724-2.89 2.141-.762.252-1.517.501-2.053.939-1.421 1.162-2.887 3.639-1.754 5.486 0 0 2.63 4.288-2.269 7.037 0 0-1.837 1.531-1.684 2.756 0 0 .614 5.055-6.277 6.584l-1.684-11.16Zm-39.931 7.119c3.584 4.644 4.572 9.888 2.207 11.713-2.364 1.825-7.187-.46-10.771-5.104-3.583-4.643-4.572-9.887-2.207-11.712 2.365-1.826 7.187.459 10.771 5.103Zm-8.612 21.682c1.352 5.17 11.293 6.323 12.23 6.323l2.962-.531c-3.685-15.084-19.215-12.478-19.215-12.478l2.368 4.853 2.495.1c2.557.871-.84 1.733-.84 1.733Zm58.876-17.38c-.884.25-12.181 9.262-12.181 9.262l7.726 6.479c3.026-.587 6.085-2.072 7.131-5.173.332-.979.194-2.172.059-3.348-.176-1.536-.35-3.043.528-4.004.711-.777 1.852-1.228 2.822-1.551.505-.17 3.417-1.133 3.902-.672-2.412-2.342 1.413-1.196 1.413-1.196 1.135-.581 1.301-2.979 1.428-4.813.05-.725.094-1.362.19-1.763.214-.891 2.47-7.02 3.506-6.809-4.486-.932-8.905.827-12.154 3.921-1.386 1.32-2.169 2.965-2.786 4.751-.064.186-.169.622-.298 1.161-.346 1.446-.871 3.637-1.286 3.755Z" fill="#CDE5F9"/></mask><g mask="url(#a)" stroke="#fff" stroke-width=".182" stroke-miterlimit="10"><path d="M305.948 207.246s14.353 7.357 18.657 13.372M306.748 186.453s8.978 13.651 15.51 18.199M313.751 196.008l3.865-9.092M384.138 155.73c-.97 1.915-2.637 2.895-4.552 3.703-1.213.51-2.638.874-3.64 1.757-1.456 1.276-1.021 2.856-1.577 4.56-.311.948-.881 1.849-1.74 2.358-3.467 2.053-5.566 3.858-6.066 8.105-.728 5.988-1.886 12.763-8.301 15.328M385.368 182.956a16.24 16.24 0 0 0-5.485 3.35 16.245 16.245 0 0 0-3.753 5.218c-.796 1.796-.817 3.883-2.264 5.309-1.446 1.427-3.627 2.014-5.389 3.029-3.237 1.863-5.064 5.663-5.744 9.221"/></g><path d="m198.168 135.85-29.288-16.911a4.256 4.256 0 0 0-5.809 1.558 4.241 4.241 0 0 0-.57 2.126v9.264l-22.426-12.948a4.257 4.257 0 0 0-5.81 1.558 4.252 4.252 0 0 0-.57 2.126v33.818a4.26 4.26 0 0 0 2.125 3.687 4.249 4.249 0 0 0 4.255.002l22.426-12.948v9.259a4.25 4.25 0 0 0 2.124 3.687 4.251 4.251 0 0 0 4.255.002l29.288-16.911a4.249 4.249 0 0 0 0-7.369Z" fill="#CDE5F9"/><path d="M163.733 64c-41.714 0-75.53 33.816-75.53 75.531 0 41.714 33.816 75.533 75.53 75.533 41.715 0 75.533-33.824 75.533-75.533 0-41.71-33.818-75.531-75.533-75.531Zm0 130.344c-30.271 0-54.81-24.542-54.81-54.813s24.539-54.81 54.81-54.81 54.811 24.539 54.811 54.81-24.54 54.813-54.811 54.813Z" fill="#CDE5F9"/><path opacity=".48" d="m236.971 152.105 2.303-12.562a1.33 1.33 0 0 0-.187-1.006 1.32 1.32 0 0 0-.85-.569l-3.778-.609.842-4.591-6.862-8.592-1.247-1.565-3.014-.486-15.947-2.584a1.62 1.62 0 0 0-1.793 1.352l-6.152 33.549a1.541 1.541 0 0 0 1.214 1.837l27.148 4.392a1.617 1.617 0 0 0 1.793-1.349l1.213-6.671 3.778.612a1.39 1.39 0 0 0 1.539-1.158Z" fill="#A5C3EF"/><path d="m210.153 117.243-7.302-1.184s-1.266-.257-1.49 1.434l-1.033 6.382M219.007 157.511l7.299 1.184s1.269.258 1.49-1.436l1.036-6.382" stroke="#221715" stroke-width=".243" stroke-miterlimit="10"/><path d="M237.432 129.332a1.662 1.662 0 1 0 0-3.324 1.662 1.662 0 0 0 0 3.324ZM193.834 132.348a.833.833 0 1 0-.001-1.665.833.833 0 0 0 .001 1.665ZM193.116 145.425a1.514 1.514 0 1 0 0-3.028 1.514 1.514 0 0 0 0 3.028ZM186.725 144.855l-3.212-.224 1.412 2.893 1.8-2.669ZM234.146 156.325l-.226 3.213 2.895-1.413-2.669-1.8ZM223.103 120.978l-3.001-.52-15.894-2.746a1.52 1.52 0 0 0-1.755 1.237l-5.447 31.506a1.52 1.52 0 0 0 1.237 1.755l27.051 4.678a1.53 1.53 0 0 0 1.133-.257c.328-.232.552-.585.622-.981l4.309-24.935-6.983-8.238-1.272-1.499Z" fill="#3458DD"/><path d="m286.54 92.224 9.835 2.168" stroke="#000" stroke-width=".395" stroke-linecap="round" stroke-linejoin="round"/><path d="m287.958 221.794-45.466-10.023c-4.802-1.057-7.878-5.918-6.834-10.78l23.32-108.852c1.044-4.871 5.826-7.99 10.628-6.933l45.468 10.022c4.801 1.06 7.876 5.919 6.833 10.781l-23.32 108.852c-1.044 4.871-5.82 7.99-10.629 6.933Z" stroke="#000" stroke-width=".197" stroke-miterlimit="10"/><path d="m309.679 97.257-3.013-.665c-.789 2.332-3.141 3.774-5.506 3.251l-21.308-4.696c-2.368-.52-3.924-2.825-3.678-5.275l-3.014-.665c-5.722-1.26-11.443 2.583-12.728 8.54L239.3 196.449c-1.276 5.958 2.368 11.865 8.089 13.128l36.5 8.047c5.721 1.263 11.443-2.58 12.727-8.541l21.148-98.698c1.276-5.958-2.368-11.867-8.089-13.127" fill="#CDE5F9"/><mask id="b" style="mask-type:alpha" maskUnits="userSpaceOnUse" x="239" y="88" width="80" height="130"><path d="m309.679 97.257-3.013-.665c-.789 2.332-3.141 3.774-5.506 3.251l-21.308-4.696c-2.368-.52-3.924-2.825-3.678-5.275l-3.014-.665c-5.722-1.26-11.443 2.583-12.728 8.54L239.3 196.449c-1.276 5.958 2.368 11.865 8.089 13.128l36.5 8.047c5.721 1.263 11.443-2.58 12.727-8.541l21.148-98.698c1.276-5.958-2.368-11.867-8.089-13.127" fill="#CDE5F9"/></mask><g mask="url(#b)"><path d="M308.845 146.535a52.09 52.09 0 0 0-12.894-6.136c-7.374-2.365-17.031-3.601-26.497.632a34.72 34.72 0 0 0-9.657 6.526l-3.345 2.364-18.381-4.423-1.217 3.295s10.375 8.255 16.788 9.975c1.627.438 3.442.951 5.189.717 3.251-.43 5.516-.442 8.226-2.104.932-.572 4.623-4.136 5.683-5.727l2.558 9.768 19.315-1.248 1.039-8.306c.749.031 1.89.829 2.586 1.138.837.37 1.671.747 2.518 1.1 2.036.852 4.136 1.749 6.294 2.28.431.112 3.163.798 3.37.409l1.946-5.596.538-2.319-4.059-2.345Z" fill="#58C1CC"/><mask id="c" style="mask-type:alpha" maskUnits="userSpaceOnUse" x="236" y="138" width="77" height="24"><path d="M308.845 146.535a52.09 52.09 0 0 0-12.894-6.136c-7.374-2.365-17.031-3.601-26.497.632a34.72 34.72 0 0 0-9.657 6.526l-3.345 2.364-18.381-4.423-1.217 3.295s10.375 8.255 16.788 9.975c1.627.438 3.442.951 5.189.717 3.251-.43 5.516-.442 8.226-2.104.932-.572 4.623-4.136 5.683-5.727l2.558 9.768 19.315-1.248 1.039-8.306c.749.031 1.89.829 2.586 1.138.837.37 1.671.747 2.518 1.1 2.036.852 4.136 1.749 6.294 2.28.431.112 3.163.798 3.37.409l1.946-5.596.538-2.319-4.059-2.345Z" fill="#58C1CC"/></mask><g mask="url(#c)" fill="#69DDE2"><path d="M241.809 141.696a.863.863 0 1 0 0-1.727.863.863 0 0 0 0 1.727ZM248.864 141.696a.863.863 0 1 0 0-1.727.863.863 0 0 0 0 1.727ZM255.917 141.696a.864.864 0 1 0 0-1.728.864.864 0 0 0 0 1.728ZM262.973 141.696a.864.864 0 1 0 0-1.728.864.864 0 0 0 0 1.728ZM270.026 141.696a.863.863 0 1 0 0-1.727.863.863 0 0 0 0 1.727ZM277.081 141.696a.864.864 0 1 0 0-1.728.864.864 0 0 0 0 1.728ZM284.135 141.696a.863.863 0 1 0 0-1.727.863.863 0 0 0 0 1.727ZM291.191 141.696a.864.864 0 1 0 0-1.728.864.864 0 0 0 0 1.728ZM298.244 141.696a.863.863 0 1 0 0-1.727.863.863 0 0 0 0 1.727ZM305.299 141.696a.863.863 0 1 0 0-1.727.863.863 0 0 0 0 1.727ZM312.354 141.696a.864.864 0 1 0 0-1.728.864.864 0 0 0 0 1.728ZM241.809 147.739a.863.863 0 1 0 0-1.727.863.863 0 0 0 0 1.727ZM248.864 147.739a.863.863 0 1 0 0-1.727.863.863 0 0 0 0 1.727ZM255.917 147.739a.864.864 0 1 0 0-1.728.864.864 0 0 0 0 1.728ZM262.973 147.739a.864.864 0 1 0 0-1.728.864.864 0 0 0 0 1.728ZM270.026 147.739a.863.863 0 1 0 0-1.727.863.863 0 0 0 0 1.727ZM277.081 147.739a.864.864 0 1 0 0-1.728.864.864 0 0 0 0 1.728ZM284.135 147.739a.863.863 0 1 0 0-1.727.863.863 0 0 0 0 1.727ZM291.191 147.739a.864.864 0 1 0 0-1.728.864.864 0 0 0 0 1.728ZM298.244 147.739a.863.863 0 1 0 0-1.727.863.863 0 0 0 0 1.727ZM305.299 147.739a.863.863 0 1 0 0-1.727.863.863 0 0 0 0 1.727ZM312.354 147.739a.864.864 0 1 0 0-1.728.864.864 0 0 0 0 1.728ZM241.809 153.78a.863.863 0 1 0 0-1.727.863.863 0 0 0 0 1.727ZM248.864 153.78a.863.863 0 1 0 0-1.727.863.863 0 0 0 0 1.727ZM255.917 153.78a.864.864 0 1 0 0-1.728.864.864 0 0 0 0 1.728ZM262.973 153.78a.864.864 0 1 0 0-1.728.864.864 0 0 0 0 1.728ZM270.026 153.78a.863.863 0 1 0 0-1.727.863.863 0 0 0 0 1.727ZM277.081 153.78a.864.864 0 1 0 0-1.728.864.864 0 0 0 0 1.728ZM284.135 153.78a.863.863 0 1 0 0-1.727.863.863 0 0 0 0 1.727ZM291.191 153.78a.864.864 0 1 0 0-1.728.864.864 0 0 0 0 1.728ZM298.244 153.78a.863.863 0 1 0 0-1.727.863.863 0 0 0 0 1.727ZM305.299 153.78a.863.863 0 1 0 0-1.727.863.863 0 0 0 0 1.727ZM312.354 153.78a.864.864 0 1 0 0-1.728.864.864 0 0 0 0 1.728ZM241.809 159.824a.863.863 0 1 0 0-1.727.863.863 0 0 0 0 1.727ZM248.864 159.824a.863.863 0 1 0 0-1.727.863.863 0 0 0 0 1.727ZM255.917 159.824a.864.864 0 1 0 0-1.728.864.864 0 0 0 0 1.728ZM262.973 159.824a.864.864 0 1 0 0-1.728.864.864 0 0 0 0 1.728ZM270.026 159.824a.863.863 0 1 0 0-1.727.863.863 0 0 0 0 1.727ZM277.081 159.824a.864.864 0 1 0 0-1.728.864.864 0 0 0 0 1.728ZM284.135 159.824a.863.863 0 1 0 0-1.727.863.863 0 0 0 0 1.727ZM291.191 159.824a.864.864 0 1 0 0-1.728.864.864 0 0 0 0 1.728ZM298.244 159.824a.863.863 0 1 0 0-1.727.863.863 0 0 0 0 1.727ZM305.299 159.824a.863.863 0 1 0 0-1.727.863.863 0 0 0 0 1.727ZM312.354 159.824a.864.864 0 1 0 0-1.728.864.864 0 0 0 0 1.728Z"/></g><path d="m313.845 197.145-1.569 3.27-.187.396-1.805 3.796s-25.926-13.233-27.979-26.801c-1.81-11.898-.47-20.834-.47-20.834l10.442 1.664c4.752 2.226 5.762 8.611 4.601 15.218-.832 4.728-.465 9.331 1.073 11.374 3.542 4.725 15.894 11.917 15.894 11.917Z" fill="#0A42BF"/></g><path d="M253.951 214.538c-1.318 1.932-3.685.545-4.418 2.881l8.272 2.433.813-4.518-4.667-.796Z" fill="#000"/><path d="M275.739 159.588c-2.516 12.101-16.267 35.54-22.257 55.057l6.52 1.9c3.319-8.384 6.606-15.047 12.102-21.203.644-.73 1.301-1.438 1.963-2.153 8.788-9.462 18.782-18.395 20.624-33.107l-18.952-.494Z" fill="#3458DD"/><path d="M252.477 217.129a9.457 9.457 0 0 0-.834-1.46c-.071-.102-.197.032-.127.134.31.445.58.916.806 1.409.053.122.209.032.155-.083ZM252.971 216.806a176.24 176.24 0 0 0-.762-1.202c-.065-.107-.197.022-.131.126l.759 1.202c.075.105.2-.022.134-.126Z" fill="#fff"/><path d="M282.319 135.27c1.385.974 2.604.599 3.221-.384.572-.915.283-2.433-1.043-2.579a3.392 3.392 0 0 0-1.587.243 4.703 4.703 0 0 0-.681.789c-.399.586-.686 1.386.09 1.931Z" fill="#EFD1D8"/><path d="M281.567 136.74c-3.065.791-4.781-1.19-4.744-3.771.014-1.146.136-2.385.761-3.367a3.693 3.693 0 0 1 2.475-1.759c2.204-.378 4.328 1.313 4.744 3.771v.024a4.493 4.493 0 0 1-3.236 5.102Z" fill="#EFD1D8"/><path d="M283.066 134.042a1.588 1.588 0 0 1 1.842-.704c.19.061.124.365-.068.305a1.27 1.27 0 0 0-1.496.542c-.103.17-.38.027-.278-.143ZM283.429 132.828a.546.546 0 0 1-.372.075c-.336-.105-.601-.567-.813-.822a7.711 7.711 0 0 0-1.399-1.368c-.693-.506-4.464-.88-4.464-2.231 0-1.97 2.627-.462 3.678-.64 2.205-.377 5.178 1.171 4.866 4.56 0 .073-.564.156-.622.168a5.476 5.476 0 0 0-.645.148 2.407 2.407 0 0 0-.229.11Z" fill="#000"/><path d="M284.645 130.507c-.927-.538-.854-.655-1.971-.918.034-2.445 4.136-5.802 8.465-3.693 1.946.956 2.316 3.185 2.362 3.343 2.022-.606 4.637-.47 6.209.613 2.294 1.579 1.426 4.326-.973 5.545-2.613 1.336-6.299 1.1-9.073-.032-4.394-1.793-3.27-5.909-3.683-5.975-.523-.088-1.076.713-1.336 1.117Z" fill="#000"/><path d="m282.003 135.064-2.665.269.368 3.643 2.665-.269-.368-3.643Z" fill="#EFD1D8"/><path d="M281.276 129.081c.359-.541.766-1.048 1.216-1.516 1.682-1.783 5.007-4.24 9.311-2.095" stroke="#000" stroke-width=".243" stroke-miterlimit="10"/><path d="M279.355 132.426c.119-.107.137-.281.04-.389-.097-.107-.272-.108-.39-.002-.119.107-.137.281-.04.389.097.108.272.109.39.002ZM277.583 134.068a6.264 6.264 0 0 1-.017-1.824c.024-.178.301-.175.277 0a6.065 6.065 0 0 0 .015 1.754c.026.173-.248.241-.275.07Z" fill="#010344"/><path d="M238.779 146.216s-7.435-5.931-8.617-2.216c0 0-1.925 2.722 7.498 4.8l1.119-2.584Z" fill="#EFD1D8"/><path d="M295.951 140.399a52.09 52.09 0 0 1 12.894 6.136l-1.795 9.851c-2.158-.531-4.258-1.428-6.294-2.28-.847-.353-1.681-.73-2.518-1.1-.696-.309-1.837-1.107-2.586-1.138l-1.039 8.306-19.315 1.248-2.558-9.768c-1.06 1.591-4.751 5.155-5.683 5.727-2.71 1.662-4.975 1.674-8.226 2.104-1.747.234-3.562-.279-5.189-.717-6.413-1.72-16.788-9.975-16.788-9.975l1.217-3.295 18.381 4.423 3.345-2.364a34.72 34.72 0 0 1 9.657-6.526c9.466-4.233 19.123-2.997 26.497-.632Z" fill="#58C1CC"/><mask id="d" style="mask-type:alpha" maskUnits="userSpaceOnUse" x="236" y="138" width="77" height="24"><path d="M308.845 146.535a52.09 52.09 0 0 0-12.894-6.136c-7.374-2.365-17.031-3.601-26.497.632a34.72 34.72 0 0 0-9.657 6.526l-3.345 2.364-18.381-4.423-1.217 3.295s10.375 8.255 16.788 9.975c1.627.438 3.442.951 5.189.717 3.251-.43 5.516-.442 8.226-2.104.932-.572 4.623-4.136 5.683-5.727l2.558 9.768 19.315-1.248 1.039-8.306c.749.031 1.89.829 2.586 1.138.837.37 1.671.747 2.518 1.1 2.036.852 4.136 1.749 6.294 2.28.431.112 3.163.798 3.37.409l1.946-5.596.538-2.319-4.059-2.345Z" fill="#58C1CC"/></mask><g mask="url(#d)" fill="#69DDE2"><path d="M241.809 141.696a.863.863 0 1 0 0-1.727.863.863 0 0 0 0 1.727ZM248.864 141.696a.863.863 0 1 0 0-1.727.863.863 0 0 0 0 1.727ZM255.917 141.696a.864.864 0 1 0 0-1.728.864.864 0 0 0 0 1.728ZM262.973 141.696a.864.864 0 1 0 0-1.728.864.864 0 0 0 0 1.728ZM270.026 141.696a.863.863 0 1 0 0-1.727.863.863 0 0 0 0 1.727ZM277.081 141.696a.864.864 0 1 0 0-1.728.864.864 0 0 0 0 1.728ZM284.135 141.696a.863.863 0 1 0 0-1.727.863.863 0 0 0 0 1.727ZM291.191 141.696a.864.864 0 1 0 0-1.728.864.864 0 0 0 0 1.728ZM298.244 141.696a.863.863 0 1 0 0-1.727.863.863 0 0 0 0 1.727ZM305.299 141.696a.863.863 0 1 0 0-1.727.863.863 0 0 0 0 1.727ZM312.354 141.696a.864.864 0 1 0 0-1.728.864.864 0 0 0 0 1.728ZM241.809 147.739a.863.863 0 1 0 0-1.727.863.863 0 0 0 0 1.727ZM248.864 147.739a.863.863 0 1 0 0-1.727.863.863 0 0 0 0 1.727ZM255.917 147.739a.864.864 0 1 0 0-1.728.864.864 0 0 0 0 1.728ZM262.973 147.739a.864.864 0 1 0 0-1.728.864.864 0 0 0 0 1.728ZM270.026 147.739a.863.863 0 1 0 0-1.727.863.863 0 0 0 0 1.727ZM277.081 147.739a.864.864 0 1 0 0-1.728.864.864 0 0 0 0 1.728ZM284.135 147.739a.863.863 0 1 0 0-1.727.863.863 0 0 0 0 1.727ZM291.191 147.739a.864.864 0 1 0 0-1.728.864.864 0 0 0 0 1.728ZM298.244 147.739a.863.863 0 1 0 0-1.727.863.863 0 0 0 0 1.727ZM305.299 147.739a.863.863 0 1 0 0-1.727.863.863 0 0 0 0 1.727ZM312.354 147.739a.864.864 0 1 0 0-1.728.864.864 0 0 0 0 1.728ZM241.809 153.78a.863.863 0 1 0 0-1.727.863.863 0 0 0 0 1.727ZM248.864 153.78a.863.863 0 1 0 0-1.727.863.863 0 0 0 0 1.727ZM255.917 153.78a.864.864 0 1 0 0-1.728.864.864 0 0 0 0 1.728ZM262.973 153.78a.864.864 0 1 0 0-1.728.864.864 0 0 0 0 1.728ZM270.026 153.78a.863.863 0 1 0 0-1.727.863.863 0 0 0 0 1.727ZM277.081 153.78a.864.864 0 1 0 0-1.728.864.864 0 0 0 0 1.728ZM284.135 153.78a.863.863 0 1 0 0-1.727.863.863 0 0 0 0 1.727ZM291.191 153.78a.864.864 0 1 0 0-1.728.864.864 0 0 0 0 1.728ZM298.244 153.78a.863.863 0 1 0 0-1.727.863.863 0 0 0 0 1.727ZM305.299 153.78a.863.863 0 1 0 0-1.727.863.863 0 0 0 0 1.727ZM241.809 159.824a.863.863 0 1 0 0-1.727.863.863 0 0 0 0 1.727ZM248.864 159.824a.863.863 0 1 0 0-1.727.863.863 0 0 0 0 1.727ZM255.917 159.824a.864.864 0 1 0 0-1.728.864.864 0 0 0 0 1.728ZM262.973 159.824a.864.864 0 1 0 0-1.728.864.864 0 0 0 0 1.728ZM270.026 159.824a.863.863 0 1 0 0-1.727.863.863 0 0 0 0 1.727ZM277.081 159.824a.864.864 0 1 0 0-1.728.864.864 0 0 0 0 1.728ZM284.135 159.824a.863.863 0 1 0 0-1.727.863.863 0 0 0 0 1.727ZM291.191 159.824a.864.864 0 1 0 0-1.728.864.864 0 0 0 0 1.728ZM298.244 159.824a.863.863 0 1 0 0-1.727.863.863 0 0 0 0 1.727ZM305.299 159.824a.863.863 0 1 0 0-1.727.863.863 0 0 0 0 1.727ZM312.354 159.824a.864.864 0 1 0 0-1.728.864.864 0 0 0 0 1.728Z"/></g><path d="M236.22 145.233s-1.577-1.878-.411-2.189c0 0 .919-.353 1.841 2.464" fill="#EFD1D8"/><path d="M236.22 145.233s-1.577-1.878-.411-2.189c0 0 .919-.353 1.841 2.464" stroke="#000" stroke-width=".243" stroke-miterlimit="10"/><path d="m282.453 136.98-3.154.318.176 1.743 3.154-.319-.176-1.742Z" fill="#58C1CC"/><path d="m260.712 214.779-6.698-1.9" stroke="#000" stroke-width=".243" stroke-miterlimit="10"/><path d="m277.67 165.108 7.435-1.024M281.378 164.597c-1.334 8.759-7.105 17.381-11.825 24.573-2.566 3.914-4.81 8.07-6.968 12.221-1.992 3.834-4.218 7.885-5.194 12.128" stroke="#fff" stroke-width=".243" stroke-miterlimit="10"/><path d="M290.991 172.12s-2.803 6.301-7.083 10.386" stroke="#000" stroke-width=".243" stroke-miterlimit="10"/><path d="M253.642 158.777s3.55-4.162 7.822-.026c-.005 0-2.761 1.688-7.822.026Z" fill="#3458DD"/><path d="m272.025 148.637 3.268 12.795M296.277 147.603l-1.445 12.503" stroke="#000" stroke-width=".243" stroke-miterlimit="10"/><path d="M299.352 131.983a3.643 3.643 0 0 1-3.192 2.467" stroke="#fff" stroke-width=".243" stroke-miterlimit="10"/><path d="M256.408 161.718s6.189 2.536 10.6-1.069" stroke="#221715" stroke-width=".197" stroke-miterlimit="10"/><path d="m265.667 95.388 6.299 1.39M265.264 96.903l4.776 1.054M264.903 98.59l3.825.843" stroke="#000" stroke-width=".395" stroke-linecap="round" stroke-linejoin="round"/><path d="m234.222 135.656-21.844-3.777a1.456 1.456 0 0 0-1.683 1.186l-1.988 11.494a1.456 1.456 0 0 0 1.187 1.683l21.845 3.777a1.455 1.455 0 0 0 1.682-1.187l1.988-11.493a1.456 1.456 0 0 0-1.187-1.683Z" fill="#EA706A"/><path d="m232.341 136.874-18.412-3.183a1.214 1.214 0 0 0-1.402.989l-1.459 8.438c-.114.66.329 1.288.989 1.402l18.411 3.184a1.214 1.214 0 0 0 1.402-.989l1.459-8.438a1.214 1.214 0 0 0-.988-1.403Z" fill="#fff" stroke="#221715" stroke-width=".243" stroke-miterlimit="10"/><path d="m215.399 135.927.787.136 1.142 5.339 2.865-4.646.791.137-3.548 5.692-.614-.106-1.423-6.552Zm-.256-.044.694.12-.533 3.754-.413 2.389-.807-.14 1.059-6.123Zm5.399.934.694.12-1.058 6.123-.808-.14.413-2.389.759-3.714Zm3.735 4.478-1.636-.283.114-.66 1.636.283c.317.055.582.049.796-.018a.961.961 0 0 0 .501-.347c.124-.163.205-.36.245-.59.037-.21.024-.416-.036-.617a1.048 1.048 0 0 0-.352-.52c-.176-.148-.423-.25-.74-.305l-1.446-.25-.944 5.458-.812-.14 1.059-6.123 2.258.391c.463.08.84.227 1.132.442.292.215.496.479.613.79.117.309.144.645.081 1.006-.068.393-.208.714-.422.962a1.61 1.61 0 0 1-.837.51c-.344.087-.748.091-1.21.011Zm4.289-.332.555.096c.272.047.504.041.696-.018a.945.945 0 0 0 .464-.306c.117-.144.193-.316.228-.515.04-.235.035-.44-.016-.613a.798.798 0 0 0-.29-.423 1.322 1.322 0 0 0-.576-.225 1.26 1.26 0 0 0-.603.03.98.98 0 0 0-.454.294 1.097 1.097 0 0 0-.235.531l-.778-.134c.054-.312.182-.581.383-.809.201-.228.456-.393.765-.496.313-.102.657-.12 1.032-.055.37.064.683.186.937.365.256.177.438.408.548.693.11.282.132.613.066.994a1.335 1.335 0 0 1-.195.478c-.1.161-.239.305-.417.43-.174.126-.39.217-.645.274a2.356 2.356 0 0 1-.882-.005l-.665-.115.082-.471Zm-.111.639.081-.467.664.115c.39.067.704.169.943.306.24.137.419.295.538.474.122.18.196.368.223.563.03.193.03.38-.002.562a1.872 1.872 0 0 1-.279.736c-.133.205-.302.37-.505.493a1.778 1.778 0 0 1-.674.243 2.45 2.45 0 0 1-.79-.015 2.498 2.498 0 0 1-.734-.244 1.99 1.99 0 0 1-.561-.435 1.554 1.554 0 0 1-.328-.607 1.702 1.702 0 0 1-.026-.753l.778.134c-.037.213-.023.408.042.583.068.177.181.325.339.445.162.117.362.196.6.238.238.041.45.035.635-.016a.89.89 0 0 0 .465-.31c.125-.151.209-.355.253-.61.044-.255.027-.473-.052-.654a.951.951 0 0 0-.39-.445 1.813 1.813 0 0 0-.665-.24l-.555-.096Z" fill="#000"/><path d="m222.449 122.164 6.784 7.881M229.624 130.477l.737.847" stroke="#fff" stroke-width=".121" stroke-miterlimit="10"/><g opacity=".59" fill="#A5C3EF"><path opacity=".59" d="M126.456 117.723h-1.024a.883.883 0 0 1-.667-.234.888.888 0 0 1-.291-.644c0-.498.398-.845.951-.847h1.051c.313 0 .4-.146.259-.432-.376-.764-.757-1.524-1.135-2.286-.058-.114-.107-.242-.257-.242-.151 0-.226.123-.284.242l-3.237 6.465c-.231.463-.624.662-1.046.538a.874.874 0 0 1-.505-1.286c.544-1.099 1.099-2.184 1.65-3.288.864-1.71 1.725-3.422 2.582-5.137.18-.359.417-.614.837-.611.42.002.655.264.832.619 1.382 2.782 2.771 5.555 4.167 8.318a.994.994 0 0 1 .121.801.852.852 0 0 1-1.235.503.858.858 0 0 1-.345-.368 62.068 62.068 0 0 1-.909-1.827.419.419 0 0 0-.454-.289c-.359.02-.711.005-1.061.005Z"/><path opacity=".59" d="M135.51 106.503h-3.021a.913.913 0 0 1-.829-.444c-.454-.692-.925-1.369-1.379-2.06a1.992 1.992 0 0 0-1.786-.954h-6.309a1.982 1.982 0 0 0-1.783.956c-.451.692-.922 1.371-1.371 2.065a.915.915 0 0 1-.852.454h-2.994c-1.199 0-1.941.755-1.941 1.956v12.727c0 1.563.992 2.555 2.557 2.555h19.121c1.456 0 2.483-1.017 2.483-2.468v-12.889a1.804 1.804 0 0 0-1.896-1.898Zm-5.061 13.193a.85.85 0 0 1-1.237.502.847.847 0 0 1-.345-.366 77.565 77.565 0 0 1-.908-1.827.418.418 0 0 0-.454-.289c-.347.019-.698 0-1.05 0h-1.024a.906.906 0 0 1-.668-.234.9.9 0 0 1-.291-.644c0-.498.398-.845.951-.847h1.051c.313 0 .4-.146.26-.432-.376-.765-.757-1.524-1.136-2.286-.058-.114-.107-.243-.257-.243-.151 0-.226.127-.284.243l-3.237 6.464c-.231.464-.624.663-1.046.539a.874.874 0 0 1-.505-1.286c.544-1.099 1.1-2.184 1.653-3.288.862-1.71 1.722-3.422 2.579-5.137.18-.359.418-.614.837-.611.42.002.656.264.833.618 1.383 2.788 2.772 5.563 4.169 8.326a1.015 1.015 0 0 1 .109.801v-.003Z"/></g><path d="m73.604 207.27.44-7.166 5.435 1.124-1.2 7.267-4.675-1.225Z" fill="#EFD1D8"/><path d="m73.605 207.27-.66 4.455h2.64l.274-.66.55.881h7.208v-1.429l-4.016-1.376-.165-.881-5.831-.99Z" fill="#3458DF"/><path d="m78.776 210.157.99-1.373.825 1.898 1.32-1.073.522 1.403.623-.687" stroke="#000" stroke-width=".243" stroke-miterlimit="10"/><path d="m22.298 191.844 5.853-4.159 2.54 4.933-6.406 3.633-1.987-4.407Z" fill="#EFD1D8"/><path d="m22.297 191.844-3.88 2.286 1.66 2.056.686-.202-.34.98 4.529 5.608 1.111-.9-1.451-3.987.58-.682-2.895-5.159Z" fill="#3458DF"/><path d="m23.302 197.682 1.692-.094-.959 1.834 1.665.354-.762 1.286.924.054" stroke="#000" stroke-width=".243" stroke-miterlimit="10"/><path d="M74.055 114.397c-1.487.788-2.647.269-3.137-.782-.454-.97.022-2.426 1.351-2.426a3.39 3.39 0 0 1 1.541.432c.224.266.418.557.578.866.32.638.504 1.466-.333 1.91Z" fill="#EFD1D8"/><path d="M74.619 115.945c2.938 1.162 4.88-.587 5.163-3.155.127-1.133.16-2.375-.337-3.424a3.685 3.685 0 0 0-2.23-2.05c-2.135-.643-4.448.767-5.163 3.154a.13.13 0 0 1 0 .025 4.476 4.476 0 0 0 2.567 5.45Z" fill="#EFD1D8"/><path d="M73.471 113.089a1.588 1.588 0 0 0-1.737-.925c-.194.037-.165.347.031.309a1.268 1.268 0 0 1 1.412.728c.083.177.381.07.294-.112Z" fill="#000"/><path d="m73.579 117.794 2.604.596.815-3.56-2.604-.596-.815 3.56Z" fill="#EFD1D8"/><path d="M77.726 111.995c.11-.095.114-.269.01-.39-.105-.121-.279-.141-.388-.046-.11.095-.114.269-.01.39.106.12.279.141.388.046ZM78.897 113.795c.169-.587.25-1.195.242-1.805 0-.178-.276-.212-.274-.032a5.933 5.933 0 0 1-.242 1.735c-.042.165.223.267.274.102Z" fill="#010344"/><path d="M79.469 110.711c-1.007-.138-4.382-1.941-5.02.097-.16.517-.149 1.184-.697 1.165a.64.64 0 0 1-.55-.612 3.635 3.635 0 0 0-1.35-.116c0-3.541 1.75-4.448 2.67-4.171 0 0 3.006-3.383 4.173-1.034 0 0 3.74-1.665 4.302 1.905.563 3.569-3.528 2.766-3.528 2.766Z" fill="#000"/><path d="M82.157 121.763c.247-1.81-2.914-3.736-7.06-4.303-4.148-.566-7.71.441-7.957 2.251-.247 1.81 2.914 3.736 7.06 4.303 4.147.567 7.71-.441 7.957-2.251ZM91.553 134.214l5.152-.594s6.28-10.434 8.122-14.317l2.157-2.698c1.325 0 2.647-.09 3.97-.054.536.017 1.257-.058 1.713.258.361.242.776.74.621 1.213-.257.784-1.565 1.065-2.232 1.235-.391.099-.784.182-1.18.243-.155.026-1.405.136-1.427.213l-2.327 7.991c-1.388 4.77-1.769 9.694-5.338 13.467-3.484 3.688-8.301 5.455-13.074 3.023-9.23-4.69 3.844-9.98 3.844-9.98Z" fill="#EFD1D8"/><path d="M62.51 131.633s-12.545 16.415 9.672 44.704l.034 30.443h6.886s13.55-29.053-.206-59.872L62.51 131.633Z" fill="#1AB7B7"/><path d="m22.793 189.117 4.436 8.789c.386.764 14.559-5.132 15.503-5.535 8.86-3.81 18.199-8.677 24.442-16.234 3.465-4.188 5.404-9.366 6.523-14.632a76.48 76.48 0 0 0 1.213-8.024c.168-1.616-.031-5.411 2.376-4.742l-18.2-5.066s-3.683 16.522-4.724 26.223l-31.569 19.221Z" fill="#58C1CC"/><mask id="e" style="mask-type:alpha" maskUnits="userSpaceOnUse" x="22" y="131" width="64" height="76"><path d="M62.51 131.633s-12.545 16.415 9.672 44.704l.034 30.443h6.886s13.55-29.053-.206-59.872L62.51 131.633Z" fill="#1AB7B7"/><path d="m22.793 189.117 4.436 8.789c.386.764 14.559-5.132 15.503-5.535 8.86-3.81 18.199-8.677 24.442-16.234 3.465-4.188 5.404-9.366 6.523-14.632a76.48 76.48 0 0 0 1.213-8.024c.168-1.616-.031-5.411 2.376-4.742l-18.2-5.066s-3.683 16.522-4.724 26.223l-31.569 19.221Z" fill="#58C1CC"/></mask><g mask="url(#e)" stroke="#fff" stroke-width=".121" stroke-miterlimit="10"><path d="m55.842 119.08 66.645 44.842M53.72 122.234l66.646 44.843M51.596 125.389l66.647 44.842M49.475 128.544l66.645 44.842M47.352 131.698l66.644 44.843M45.228 134.852l66.645 44.843M43.105 138.007l66.648 44.845M40.982 141.164l66.648 44.842M38.862 144.318l66.645 44.843M36.738 147.473l66.645 44.842M34.616 150.627l66.644 44.843M32.492 153.782l66.647 44.842M30.369 156.936l66.647 44.843M28.248 160.091l66.644 44.845M26.124 163.248l66.645 44.842M24.002 166.402l66.644 44.843M21.879 169.557l66.647 44.842M19.755 172.711l66.647 44.843M17.634 175.866l66.644 44.842M15.512 179.02l66.644 44.843M13.388 182.175l66.645 44.844M11.265 185.329l66.647 44.845"/></g><path d="M72.544 165.907s-1.524 8.083-10.111 15.103" stroke="#000" stroke-width=".243" stroke-miterlimit="10"/><path d="M74.686 122.314a3.304 3.304 0 0 0 1.699-.388c1.334-.786 1.477-2.708 1.37-4.011 0 0 8.736 2.444 13.96 12.489.816 1.57 1.835 1.738 4.708 2.111.398.051.243 2.048.167 3.398-.114 2.159-1.74 9.201-2.035 10.305 0 0-6.962.682-10.054-3.839l-2.373 7.227a17.777 17.777 0 0 1-7.114 2.006 18.713 18.713 0 0 1-3.305-.073c-2.723-.298-5.523-.939-8.052-2.183-2.006-.983-4.721-1.966-6.308-3.577l.982-7.054c-5.617-.844-9.604-5.836-9.604-5.836 5.03-17.638 22.69-15.564 22.69-15.564l-.031.105c-.388 1.3-.64 2.739.539 3.989.674.73 1.81.895 2.761.895Z" fill="#3458DF"/><path d="m86.713 136.262-4.634 13.523M73.738 115.678s2.584 1.145 3.71.463" stroke="#000" stroke-width=".243" stroke-miterlimit="10"/><path opacity=".44" d="M72.232 139.531H35.106a3.321 3.321 0 0 0-3.32 3.319v18.709a3.319 3.319 0 0 0 3.32 3.319h36.37a3.32 3.32 0 0 0 3.32-3.319v-19.463a2.564 2.564 0 0 0-2.564-2.565Z" fill="#79A4E2"/><path d="M68.225 136.639H31.72a3.259 3.259 0 0 0-3.259 3.258v18.828c0 1.8 1.46 3.259 3.26 3.259h36.504c1.8 0 3.259-1.459 3.259-3.259v-18.828a3.259 3.259 0 0 0-3.259-3.258Z" fill="#EBF4FD"/><path d="M23.608 139.941v6.814l-5.078-3.783 5.078-3.031Z" fill="#3458DF"/><path d="m39.458 131.686 6.256-8.515s3.285 3.332 1.834 6.891c-1.834 4.507-8.09 1.624-8.09 1.624ZM29.792 127.313a1.325 1.325 0 1 0 0-2.65 1.325 1.325 0 0 0 0 2.65Z" fill="#CBE1F8"/><path d="M36.92 132.86h-7.55a1.82 1.82 0 0 0-1.82 1.82v7.551a1.82 1.82 0 0 0 1.82 1.82h7.55a1.82 1.82 0 0 0 1.82-1.82v-7.551a1.82 1.82 0 0 0-1.82-1.82Z" fill="#CCDDF8"/><path d="M35.501 131.533H27.95a1.82 1.82 0 0 0-1.82 1.82v7.551a1.82 1.82 0 0 0 1.82 1.82H35.5a1.82 1.82 0 0 0 1.82-1.82v-7.551a1.82 1.82 0 0 0-1.82-1.82Z" fill="#EA706A"/><path d="M32.032 133.491h-2.57a.76.76 0 0 0-.58.215.757.757 0 0 0-.22.579v5.139a.747.747 0 0 0 .483.749.74.74 0 0 0 .312.047h5.14a.755.755 0 0 0 .747-.486.752.752 0 0 0 .046-.313v-5.127a.754.754 0 0 0-.803-.803h-2.555Z" stroke="#fff" stroke-width=".243" stroke-miterlimit="10"/><path d="M33.568 136.857a1.545 1.545 0 0 0-2.632-1.096 1.54 1.54 0 0 0 .227 2.374c.253.17.551.262.856.263a1.547 1.547 0 0 0 1.549-1.541Z" stroke="#fff" stroke-width=".243" stroke-miterlimit="10"/><path d="M34.198 135.09a.407.407 0 0 1-.408-.417.416.416 0 0 1 .26-.378.416.416 0 0 1 .559.307.412.412 0 0 1-.411.488Z" fill="#fff"/><path d="M42.402 144.784a1.948 1.948 0 1 0 0-3.896 1.948 1.948 0 0 0 0 3.896Z" fill="#3458DF"/><path d="M41.616 158.259a1.163 1.163 0 1 0-.001-2.326 1.163 1.163 0 0 0 0 2.326ZM46.379 158.259a1.163 1.163 0 1 0-.002-2.326 1.163 1.163 0 0 0 .002 2.326ZM50.873 158.259a1.163 1.163 0 1 0 0-2.326 1.163 1.163 0 0 0 0 2.326Z" fill="#EFD853"/><path d="M51.566 141.715h-4.739a.465.465 0 0 0-.466.465v.081c0 .257.209.465.466.465h4.74a.465.465 0 0 0 .465-.465v-.081a.465.465 0 0 0-.466-.465ZM58.49 141.715h-4.74a.465.465 0 0 0-.465.465v.081c0 .257.208.465.466.465h4.739a.465.465 0 0 0 .465-.465v-.081a.465.465 0 0 0-.465-.465ZM53.687 144.054h-6.988a.337.337 0 0 0-.338.337v.058c0 .187.151.338.338.338h6.988a.337.337 0 0 0 .337-.338v-.058a.337.337 0 0 0-.337-.337ZM53.192 147.267h-12.06a.09.09 0 0 0-.09.089v.017c0 .05.04.09.09.09h12.06c.05 0 .09-.04.09-.09v-.017a.09.09 0 0 0-.09-.089ZM64.786 147.267h-7.41a.09.09 0 0 0-.09.089v.017c0 .05.04.09.09.09h7.41c.05 0 .09-.04.09-.09v-.017a.09.09 0 0 0-.09-.089ZM58.302 148.805h-17.17a.09.09 0 0 0-.09.09v.017c0 .049.04.089.09.089h17.17c.05 0 .09-.04.09-.089v-.017a.09.09 0 0 0-.09-.09ZM58.106 151.654h-17.17a.09.09 0 0 0-.09.089v.017c0 .05.04.09.09.09h17.17c.05 0 .09-.04.09-.09v-.017a.09.09 0 0 0-.09-.089ZM45.335 150.261H41.18a.09.09 0 0 0-.09.09v.017c0 .049.04.089.09.089h4.156c.05 0 .09-.04.09-.089v-.017a.09.09 0 0 0-.09-.09ZM69.147 150.261H47.641a.09.09 0 0 0-.09.09v.017c0 .049.04.089.09.089h21.506c.05 0 .09-.04.09-.089v-.017a.09.09 0 0 0-.09-.09Z" fill="#3458DF"/><path d="M56.573 157.647c-11.52-12.729-7.246-24.646-7.246-24.646l11.475 1.262-3.2 7 1.155 16.35.553 2.543 1.698 1.699c.173.177.04.716-.077.878-.566.787-1.51.507-2.216.09a7.81 7.81 0 0 1-1.063-.784c-.26-.22-.866-.577-.888-.936l-.191-3.456Z" fill="#EFD1D8"/><path d="M48.718 132.894s5.188 7.222 10.8 6.816l7.28-7.447-10.165-6.267-5.925 1.914-1.99 4.984Z" fill="#3458DF"/><path d="M66.058 129.621s-5.909 6.321-6.552 10.089c0 0-4.705.714-10.8-6.816" stroke="#000" stroke-width=".243" stroke-miterlimit="10"/><path d="M59.342 160.299s1.965 1.456 2.203.28c0 0 .298-.937-2.565-1.684" fill="#EFD1D8"/><path d="M59.342 160.299s1.965 1.456 2.203.28c0 0 .298-.937-2.565-1.684" stroke="#000" stroke-width=".243" stroke-miterlimit="10"/><path d="M90.438 145.061s2.756.682 3.78.262M61.554 119.876s-5.518 2.465-6.744 4.787" stroke="#fff" stroke-width=".243" stroke-miterlimit="10"/><path d="M26.646 155.126v4.853s-.485 3.882 3.62 3.97h8.25M93.502 149.002s5.678 1.468 8.979-3.679" stroke="#000" stroke-width=".243" stroke-miterlimit="10"/><path d="M122.492 122.033h-9.519c-1.565 0-2.56-.995-2.56-2.555v-12.732c0-1.201.747-1.941 1.941-1.956h2.995c.17.01.34-.027.49-.107a.931.931 0 0 0 .361-.349c.447-.694.92-1.371 1.369-2.065a1.983 1.983 0 0 1 1.786-.956h6.309a1.994 1.994 0 0 1 1.788.956c.454.689.925 1.366 1.376 2.058a.906.906 0 0 0 .832.444h3.021a1.8 1.8 0 0 1 1.891 1.9v12.887c0 1.456-1.029 2.468-2.485 2.47l-9.595.005Zm1.138-6.04c.35 0 .702.015 1.051 0a.422.422 0 0 1 .454.287c.294.615.597 1.224.907 1.829a.846.846 0 0 0 .838.474.846.846 0 0 0 .742-.612.992.992 0 0 0-.119-.801c-1.388-2.771-2.774-5.542-4.159-8.313-.175-.354-.412-.619-.832-.621-.42-.003-.658.243-.835.611-.854 1.716-1.72 3.427-2.582 5.14-.551 1.094-1.106 2.184-1.652 3.288a.874.874 0 0 0 .504 1.283c.425.124.816-.075 1.049-.536 1.08-2.155 2.159-4.309 3.234-6.464.061-.122.117-.257.284-.243.168.015.202.131.257.243.379.762.762 1.521 1.138 2.283.141.286.054.43-.259.432-.313.002-.701 0-1.051 0a.875.875 0 0 0-.66.219.895.895 0 0 0-.294.63.918.918 0 0 0 .298.646.893.893 0 0 0 .673.23c.333-.005.672-.007 1.014-.007v.002Zm8.357-8.638a.865.865 0 0 0-1.485-.593.866.866 0 0 0 .643 1.464.867.867 0 0 0 .842-.873v.002Z" fill="#3458DF"/><path d="M131.045 101.32h.862c.694.027 1.099.648.9 1.395a.458.458 0 0 1-.473.328c-.405 0-.808.012-1.213 0a1.393 1.393 0 0 1-1.318-1.318c-.015-.269.102-.395.379-.4.276-.005.577-.005.863-.005Z" fill="#EA706A"/><path d="M123.629 115.991h-1.024a.899.899 0 0 1-.888-.522.903.903 0 0 1-.082-.354.86.86 0 0 1 .082-.345.868.868 0 0 1 .871-.504h1.051c.349 0 .4-.146.26-.432-.376-.762-.76-1.522-1.138-2.283-.056-.115-.107-.243-.258-.243-.15 0-.223.126-.283.243l-3.235 6.464c-.243.461-.624.66-1.048.536a.874.874 0 0 1-.505-1.284c.546-1.099 1.102-2.183 1.652-3.288.862-1.713 1.728-3.423 2.582-5.139.177-.357.418-.614.835-.611.417.002.658.267.832.621 1.383 2.774 2.77 5.545 4.159 8.313a1.004 1.004 0 0 1 .119.801.85.85 0 0 1-1.579.138 79.682 79.682 0 0 1-.908-1.829.419.419 0 0 0-.454-.287c-.339.02-.691.005-1.041.005ZM131.987 107.352a.863.863 0 1 1-.551-.794.862.862 0 0 1 .479.463c.046.104.07.217.072.331Z" fill="#FCFCFC"/><path d="M311.397 170.651h29.119a2.026 2.026 0 0 0 2.026-2.026v-5.841a2.026 2.026 0 0 0-2.026-2.026h-29.119a2.026 2.026 0 0 0-2.026 2.026v5.841c0 1.119.907 2.026 2.026 2.026Z" fill="#D1DEFC"/><path d="m333.651 181.345-13.7-.022s-5.176 0-3.882 6.309l7.013 36.228h31.445M324.851 224.103l-9.762 19.827M352.155 224.103l12.878 20.142H282.55" stroke="#010344" stroke-width=".243" stroke-miterlimit="10"/><path d="M309.327 168.559h29.119a2.026 2.026 0 0 0 2.026-2.026v-5.841a2.026 2.026 0 0 0-2.026-2.026h-29.119a2.026 2.026 0 0 0-2.026 2.026v5.841c0 1.119.907 2.026 2.026 2.026Z" fill="#EA706A"/><path d="M323.175 160.367h-.177a.31.31 0 0 0-.31.311v5.38c0 .171.139.31.31.31h.177a.31.31 0 0 0 .311-.31v-5.38a.31.31 0 0 0-.311-.311ZM324.816 160.367h-.177a.31.31 0 0 0-.311.311v5.38c0 .171.139.31.311.31h.177a.31.31 0 0 0 .31-.31v-5.38a.31.31 0 0 0-.31-.311ZM332.067 165.325a.245.245 0 0 1-.199-.26v-3.397a.243.243 0 0 1 .199-.26c.06.01.114.043.151.091a.234.234 0 0 1 .05.169v3.397a.234.234 0 0 1-.05.169.246.246 0 0 1-.151.091Z" fill="#fff"/><path d="m328.182 165.363-.056-3.981a.252.252 0 0 1 .03-.123.25.25 0 0 1 .209-.125c.043 0 .085.011.123.032l3.477 1.941a.235.235 0 0 1 .088.089.237.237 0 0 1 0 .242.242.242 0 0 1-.088.089l-3.422 2.038a.245.245 0 0 1-.237 0 .237.237 0 0 1-.088-.084.247.247 0 0 1-.036-.118ZM315.756 165.325a.243.243 0 0 0 .198-.26v-3.397a.241.241 0 0 0-.198-.26.244.244 0 0 0-.199.26v3.397a.245.245 0 0 0 .199.26Z" fill="#fff"/><path d="m319.641 165.363.055-3.981a.241.241 0 0 0-.361-.216l-3.477 1.941a.238.238 0 0 0-.121.21.245.245 0 0 0 .121.21l3.421 2.038a.245.245 0 0 0 .326-.084.247.247 0 0 0 .036-.118Z" fill="#fff"/><path d="M365.298 236.755c2.873-.757 5.766-1.456 8.687-1.997a49.768 49.768 0 0 1 5.445-.806c1.801-.133 3.512.163 5.298.189 1.71.027 4.149-.104 5.202-1.698 0-.003-19.837-3.824-24.632 4.312Z" fill="#1C49C6"/><path d="m372.878 231.569.74 10.128h2.444l2.468-10.739" fill="#EFD1D8"/><path d="m376.03 231.564 1.76 9.536 2.431-.257 1.368-10.458" fill="#EFD1D8"/><path d="m378.964 229.839-1.774 8.355" stroke="#000" stroke-width=".243" stroke-miterlimit="10"/><path d="M317.952 170.367h-1.463c-.67 0-1.214.543-1.214 1.213v1.51c0 .67.544 1.213 1.214 1.213h1.463c.67 0 1.213-.543 1.213-1.213v-1.51c0-.67-.543-1.213-1.213-1.213Z" fill="#EFD1D8"/><path d="M317.425 171.255v-2.996s.529-.554.953.048v2.948" fill="#EFD1D8"/><path d="M317.425 171.255v-2.996s.529-.554.953.048v2.948" stroke="#000" stroke-width=".243" stroke-miterlimit="10"/><path d="M318.385 173.339h-2.405v3.245h2.405v-3.245Z" fill="#EFD1D8"/><path d="M362.341 178.872c-1.298-1.354-3.094-2.072-4.899-2.441-1-.204-2.044-.204-3.024-.485-1.538-.444-2.31-1.577-3.111-2.888-1.077-1.766-4.071-.461-2.977 1.33l.182.296a1.437 1.437 0 0 0-.243.141c-.446.189-.842.592-1.162 1.274-.057.12-.105.244-.143.371-.871.048-2.351-1.366-2.291-.243.432 7.712 9.973 15.579 16.95 11.199 3.072-1.924 3.12-6.042.718-8.554Z" fill="#000"/><path d="M347.196 176.742c-1.477.941-2.722.499-3.317-.549-.551-.97-.182-2.521 1.199-2.621a3.545 3.545 0 0 1 1.633.318c.253.258.477.543.667.85.379.631.648 1.473-.182 2.002Z" fill="#EFD1D8"/><path d="M347.907 178.297c3.14.958 5.003-1.014 5.095-3.688.037-1.187-.031-2.475-.635-3.521a3.828 3.828 0 0 0-2.48-1.941c-2.267-.486-4.543 1.164-5.096 3.69v.025a4.648 4.648 0 0 0 3.116 5.435Z" fill="#EFD1D8"/><path d="M346.478 175.434a1.644 1.644 0 0 0-1.875-.813c-.199.056-.144.373.058.318a1.325 1.325 0 0 1 1.524.631c.099.182.393.046.293-.136Z" fill="#000"/><path d="m346.991 180.289 2.747.401.548-3.755-2.747-.401-.548 3.755Z" fill="#EFD1D8"/><path d="M350.803 173.958c.105-.107.094-.289-.024-.405-.119-.117-.301-.124-.406-.017-.105.107-.094.289.025.405.118.117.3.124.405.017ZM352.156 175.713c.125-.621.16-1.257.102-1.888-.017-.184-.303-.196-.286-.012.057.607.024 1.22-.097 1.817-.037.175.25.272.281.083ZM347.935 169.125a3.71 3.71 0 0 1 2.865.34c1.197.703 2.534 1.667 2.815 2.489.282.823-.485 1.5-1.026 1.213-1.599-1.058-3.359-2.436-4.654-4.042Z" fill="#000"/><path d="M345.685 174.145c.439 1.194 6.668-2.841 6.551-3.103a3.828 3.828 0 0 0-1.511-1.895c-1.959-1.214-5.271-.801-6.096 2.72-.536 2.074.779 2.021 1.056 2.278Z" fill="#000"/><path d="M345.971 173.264h-.818c-.928 0-1.679.752-1.679 1.68v.817c0 .928.751 1.68 1.679 1.68h.818a1.68 1.68 0 0 0 1.679-1.68v-.817a1.68 1.68 0 0 0-1.679-1.68Z" fill="#1C49C6"/><path d="M345.789 175.344a.243.243 0 0 1-.243-.243v-4.78a1.05 1.05 0 0 1 1.046-1.046h5.047a1.049 1.049 0 0 1 1.046 1.046.25.25 0 0 1-.25.25.252.252 0 0 1-.25-.25.542.542 0 0 0-.546-.546h-5.056a.546.546 0 0 0-.546.546v4.783a.246.246 0 0 1-.154.223.234.234 0 0 1-.094.017Z" fill="#1C49C6"/><path d="M345.572 176.844a1.408 1.408 0 1 0 .001-2.815 1.408 1.408 0 0 0-.001 2.815Z" stroke="#fff" stroke-width=".243" stroke-miterlimit="10"/><path d="m365.756 198.217 5.344.701-.641 2.475-11.638 1.407 6.935-4.583ZM371.1 198.918l2.048-3.812s.971-.41.9.817l-.57 3.686-1.228 1.136-1.788.648" fill="#EFD1D8"/><path d="m370.583 200.701-1.339-2.106a1.059 1.059 0 0 1-.056-1.031l2.507-5.069a.446.446 0 0 1 .774-.042l1.346 2.116a1.028 1.028 0 0 1 .054 1.01l-2.512 5.074a.442.442 0 0 1-.774.048Z" fill="#000"/><path d="m370.586 199.833-.913-1.585a.991.991 0 0 1 0-.929l2.002-4.05a.337.337 0 0 1 .275-.205.336.336 0 0 1 .308.149l.917 1.594a.972.972 0 0 1 0 .908l-2.007 4.059a.325.325 0 0 1-.273.209.326.326 0 0 1-.309-.15Z" fill="#58C1CC"/><path d="M333.28 208.741c-.714.109-.046 5.983.048 6.459.573 2.875 2.281 5.508 4.798 7.037 3.025 1.851 6.723 1.567 10.128 1.635 2.946.059 5.89-.022 8.832-.242.796-.061 10.435-.728 10.522-1.192l-2.31 14.317c.56-.286.898-.825 1.31-1.274a7.439 7.439 0 0 1 1.456-1.167c2.485-1.65 5.88-2.723 8.876-2.495 2.463.19 4.853.922 7.324.993 2.814.082 5.406.041 5.678-.367a60.4 60.4 0 0 0-2.801-13.482c-1.004-3.021-2.307-6.192-4.513-8.551-3.283-3.513-8.869-3.838-13.346-4.103-5.673-.335-11.366-.888-17.046-.485-11.085.769-8.158.769-11.085.769 11.056-.779-7.847 2.143-7.871 2.148Z" fill="#3458DD"/><path d="M364.046 196.231c-.376-4.183-1.213-13.134-10.766-16.405a7.474 7.474 0 0 0-1.973-.498c-10-1.381-14.297 1.272-18.328 4.574-8.57 7.023-12.132.629-13.29-8.558l-4.761.315c-.242 7.658-1.213 28.058 12.179 27.156a17.601 17.601 0 0 0 5.188-1.192c-.485 4.113-.15 7.144-.243 8.767 8.219-2.215 15.53-4.938 24.613-4.579.048-1.286-.122-2.426-.243-3.882 0 .061 2.405 1.298 2.725 1.361 1.267.243 2.492.568 3.781.534.66-.017 1.32-.063 1.977-.129.541-.053 1.25-.029 1.718-.349 0 0-1.774-3.273 0-5.064-1.562-.221-2.577-2.051-2.577-2.051Z" fill="#58C1CC"/><mask id="f" style="mask-type:alpha" maskUnits="userSpaceOnUse" x="314" y="175" width="53" height="36"><path d="M364.046 196.231c-.376-4.183-1.213-13.134-10.766-16.405a7.474 7.474 0 0 0-1.973-.498c-10-1.381-14.297 1.272-18.328 4.574-8.57 7.023-12.132.629-13.29-8.558l-4.761.315c-.242 7.658-1.213 28.058 12.179 27.156a17.601 17.601 0 0 0 5.188-1.192c-.485 4.113-.15 7.144-.243 8.767 8.219-2.215 15.53-4.938 24.613-4.579.048-1.286-.122-2.426-.243-3.882 0 .061 2.405 1.298 2.725 1.361 1.267.243 2.492.568 3.781.534.66-.017 1.32-.063 1.977-.129.541-.053 1.25-.029 1.718-.349 0 0-1.774-3.273 0-5.064-1.562-.221-2.577-2.051-2.577-2.051Z" fill="#58C1CC"/></mask><g opacity=".94" fill="#fff" mask="url(#f)"><path opacity=".94" d="M361.518 181.346h-1.856v-.226h1.856v.226Zm-3.715 0h-1.859v-.226h1.859v.226Zm-3.715 0h-1.859v-.226h1.859v.226Zm-3.717 0h-1.857v-.226h1.857v.226Zm-3.715 0h-1.859v-.226h1.859v.226Zm-3.715 0h-1.859v-.226h1.859v.226Zm-3.718 0h-1.856v-.226h1.856v.226Zm-3.715 0h-1.856v-.226h1.856v.226Zm-3.715 0h-1.859v-.226h1.859v.226Zm-3.715 0h-1.859v-.226h1.859v.226Zm-3.717 0h-1.857v-.226h1.857v.226Zm-3.715 0h-1.859v-.226h1.859v.226Zm-3.715 0h-1.859v-.226h1.868l-.009.226Zm-3.718 0h-1.854v-.226h1.857l-.003.226ZM364.28 181.12h-.903v.226h.903v-.226ZM361.589 186.318h-1.796v-.224h1.796v.224Zm-3.592 0h-1.795v-.224h1.795v.224Zm-3.591 0h-1.796v-.224h1.796v.224Zm-3.591 0h-1.796v-.224h1.796v.224Zm-3.592 0h-1.793v-.224h1.793v.224Zm-3.588 0h-1.796v-.224h1.796v.224Zm-3.592 0h-1.795v-.224h1.795v.224Zm-3.591 0h-1.798v-.224h1.796l.002.224Zm-3.591 0h-1.796v-.224h1.796v.224Zm-3.591 0h-1.796v-.224h1.796v.224Zm-3.592 0h-1.795v-.224h1.795v.224Zm-3.589 0h-1.795v-.224h1.795v.224Zm-3.591 0h-1.8v-.224h1.795l.005.224Zm-3.591 0h-1.796v-.224h1.796v.224Zm-3.591 0h-1.796v-.224h1.796v.224Zm-3.592 0h-1.795v-.224h1.795v.224ZM364.28 186.092h-.903v.226h.903v-.226ZM361.589 191.586h-1.796v-.226h1.796v.226Zm-3.592 0h-1.795v-.226h1.795v.226Zm-3.591 0h-1.796v-.226h1.796v.226Zm-3.591 0h-1.796v-.226h1.796v.226Zm-3.592 0h-1.793v-.226h1.793v.226Zm-3.588 0h-1.796v-.226h1.796v.226Zm-3.592 0h-1.795v-.226h1.795v.226Zm-3.591 0h-1.798v-.226h1.796l.002.226Zm-3.591 0h-1.796v-.226h1.796v.226Zm-3.591 0h-1.796v-.226h1.796v.226Zm-3.592 0h-1.795v-.226h1.795v.226Zm-3.589 0h-1.795v-.226h1.795v.226Zm-3.591 0h-1.8v-.226h1.795l.005.226Zm-3.591 0h-1.796v-.226h1.796v.226Zm-3.591 0h-1.796v-.226h1.796v.226Zm-3.592 0h-1.795v-.226h1.795v.226ZM364.28 191.36h-.903v.226h.903v-.226ZM361.589 196.854h-1.796v-.224h1.796v.224Zm-3.592 0h-1.795v-.224h1.795v.224Zm-3.591 0h-1.796v-.224h1.796v.224Zm-3.591 0h-1.796v-.224h1.796v.224Zm-3.592 0h-1.793v-.224h1.793v.224Zm-3.588 0h-1.796v-.224h1.796v.224Zm-3.592 0h-1.795v-.224h1.795v.224Zm-3.591 0h-1.798v-.224h1.796l.002.224Zm-3.591 0h-1.796v-.224h1.796v.224Zm-3.591 0h-1.796v-.224h1.796v.224Zm-3.592 0h-1.795v-.224h1.795v.224Zm-3.589 0h-1.795v-.224h1.795v.224Zm-3.591 0h-1.8v-.224h1.795l.005.224Zm-3.591 0h-1.796v-.224h1.796v.224Zm-3.591 0h-1.796v-.224h1.796v.224Zm-3.592 0h-1.795v-.224h1.795v.224ZM364.28 196.63h-.903v.226h.903v-.226ZM361.589 202.124h-1.796v-.226h1.796v.226Zm-3.592 0h-1.795v-.226h1.795v.226Zm-3.591 0h-1.796v-.226h1.796v.226Zm-3.591 0h-1.796v-.226h1.796v.226Zm-3.592 0h-1.793v-.226h1.793v.226Zm-3.588 0h-1.796v-.226h1.796v.226Zm-3.592 0h-1.795v-.226h1.795v.226Zm-3.591 0h-1.798v-.226h1.796l.002.226Zm-3.591 0h-1.796v-.226h1.796v.226Zm-3.591 0h-1.796v-.226h1.796v.226Zm-3.592 0h-1.795v-.226h1.795v.226Zm-3.589 0h-1.795v-.226h1.795v.226Zm-3.591 0h-1.8v-.226h1.795l.005.226Zm-3.591 0h-1.796v-.226h1.796v.226Zm-3.591 0h-1.796v-.226h1.796v.226Zm-3.592 0h-1.795v-.226h1.795v.226ZM364.28 201.898h-.903v.226h.903v-.226ZM361.589 207.392h-1.796v-.226h1.796v.226Zm-3.592 0h-1.795v-.226h1.795v.226Zm-3.591 0h-1.796v-.226h1.796v.226Zm-3.591 0h-1.796v-.226h1.796v.226Zm-3.592 0h-1.793v-.226h1.793v.226Zm-3.588 0h-1.796v-.226h1.796v.226Zm-3.592 0h-1.795v-.226h1.795v.226Zm-3.591 0h-1.798v-.226h1.796l.002.226Zm-3.591 0h-1.796v-.226h1.796v.226Zm-3.591 0h-1.796v-.226h1.796v.226Zm-3.592 0h-1.795v-.226h1.795v.226Zm-3.589 0h-1.795v-.226h1.795v.226Zm-3.591 0h-1.8v-.226h1.795l.005.226Zm-3.591 0h-1.796v-.226h1.796v.226Zm-3.591 0h-1.796v-.226h1.796v.226Zm-3.592 0h-1.795v-.226h1.795v.226ZM364.28 207.166h-.903v.226h.903v-.226Z"/></g><path d="m372.832 241.697-.257 3.283h10.473s-1.311-2.615-5.86-2.518l-.299-.988-4.057.223Z" fill="#000"/><path d="m377.013 239.946.044 3.28h10.169s-1.307-2.615-5.857-2.516l-.299-.99-4.057.226Z" fill="#000"/><path d="m369.453 212.975-4.155 23.78" stroke="#fff" stroke-width=".243" stroke-miterlimit="10"/><path d="M321.256 203.87s4.278 3.271 9.321.777" stroke="#000" stroke-width=".243" stroke-miterlimit="10"/><path d="M352.652 180.771c.064-.856-1.835-1.695-4.241-1.874-2.405-.178-4.407.372-4.47 1.228-.064.857 1.835 1.696 4.24 1.875 2.406.178 4.408-.372 4.471-1.229Z" fill="#EFD1D8"/><path d="M366.628 203.353a13.557 13.557 0 0 1-3.926.486c-2.427 0-3.266-.323-5.499-1.393-2.29-1.099-3.528-4.729-3.135-6.877M333.683 191.189s-2.104 11.116-1.635 19.189" stroke="#000" stroke-width=".243" stroke-miterlimit="10"/><path d="M337.233 217.037s1.811 4.105 6.931 4.181M383.048 213.846s-1.655-4.254-4.239-4.254" stroke="#fff" stroke-width=".243" stroke-miterlimit="10"/><path d="M358.712 222.817h-42.404v2.642h42.404v-2.642Z" fill="#CDE5F9" stroke="#010344" stroke-width=".243" stroke-miterlimit="10"/><path d="M346.798 177.875s1.481 1.087 3.786.587" stroke="#000" stroke-width=".243" stroke-miterlimit="10"/><path d="M232.582 228.875c.1-.352.167-.714.199-1.079a11.024 11.024 0 0 1 2.643-5.339 11.172 11.172 0 0 1 18.165 2.075c1.749 3.285 1.863 6.663.322 10.063a10.847 10.847 0 0 1-4.787 5.125 10.961 10.961 0 0 1-6.863 1.259 10.836 10.836 0 0 1-5.581-2.448 11.035 11.035 0 0 1-3.816-6.198 13.302 13.302 0 0 1-.214-1.288c0-.049.017-.112-.056-.131l-.012-2.039Zm8.867-5.629a2.33 2.33 0 0 0 3.964 1.696 2.326 2.326 0 0 0 .529-2.54 2.328 2.328 0 0 0-3.791-.786 2.34 2.34 0 0 0-.702 1.63Zm2.329 15.595a2.328 2.328 0 0 0 2.16-1.443 2.336 2.336 0 0 0-3.06-3.044 2.334 2.334 0 0 0-1.432 2.167 2.346 2.346 0 0 0 2.332 2.32Zm-5.7-14.578a2.318 2.318 0 0 0-1.649.662 2.318 2.318 0 0 0-.036 3.284 2.322 2.322 0 1 0 1.685-3.946Zm9.097 2.344a2.327 2.327 0 1 0 2.376-2.347 2.342 2.342 0 0 0-2.193 1.449 2.333 2.333 0 0 0-.176.907l-.007-.009Zm-9.097 8.915a2.327 2.327 0 0 0 2.302-2.343 2.325 2.325 0 0 0-3.23-2.117 2.312 2.312 0 0 0-1.246 1.268 2.332 2.332 0 0 0 .526 2.526 2.319 2.319 0 0 0 1.648.666Zm11.405 0a2.325 2.325 0 1 0-.747-4.516 2.32 2.32 0 0 0-1.416 2.967 2.323 2.323 0 0 0 2.163 1.549Zm-7.496-5.62a1.798 1.798 0 1 0 .516-1.276c-.336.34-.524.798-.523 1.276h.007Z" fill="#EA706A"/><path d="M257.58 233.197s-1.3 8.122-8.903 9.636" stroke="#221715" stroke-width=".243" stroke-miterlimit="10"/><path d="M335.686 156.815h4.61s2.56 0 2.427 2.669v3.623" stroke="#000" stroke-width=".243" stroke-miterlimit="10"/><path d="M109.034 118.619s4.61.713-.827 1.732l.827-1.732Z" fill="#EFD1D8"/><path d="M109.034 118.619s4.61.713-.827 1.732M92.194 196.95h-6.1v4.341M86.094 203.145v9.022h-2.601M81.505 212.402H66.15v15.214H48.07v17.146M11 244.762l81.272-.434" stroke="#000" stroke-width=".243" stroke-miterlimit="10"/><path d="M177.788 222.492c-.007.208.001.416.024.623.133 1.349.9 4.572 5.064 6.552l-10.415-.84.486-8.085 4.659.051.174 1.924" fill="#fff"/><path d="m172.462 228.825-.196 1.645 13.746.798s.602-1.514-1.097-1.819l-12.453-.624Z" fill="#060000"/><path d="M178.142 224.617s.82 2.655 2.78 3.851" stroke="#060000" stroke-width=".243" stroke-miterlimit="10"/><path d="m176.738 230.126-4.436-.318-.101 1.407 4.436.318.101-1.407Z" fill="#060000"/><path d="M161.499 232.214a4.172 4.172 0 0 0-.199.593c-.352 1.307-.782 4.593 2.404 7.929l-9.436-4.484 3.319-7.386 4.336 1.698-.524 1.876" fill="#fff"/><path d="m154.267 236.252-.767 1.456 12.567 5.63s1.1-1.214-.38-2.092l-11.42-4.994Z" fill="#060000"/><path d="M161.066 234.333s-.177 2.773 1.23 4.588" stroke="#060000" stroke-width=".243" stroke-miterlimit="10"/><path d="m157.807 238.984-4.035-1.873-.593 1.279 4.034 1.873.594-1.279Z" fill="#060000"/><path d="M142.442 188.328c2.718-.599 7.639-1.036 10.282-1.664 12.829-3.264 24.75-4.853 27.662 6.678 3.424 13.668-.509 30.297-.509 30.297l-9.614-.33s-2.211-21.268-2.529-25.721l-13.399 7.154c-4.659 2.484-9.551 1.778-14.967 1.511-1.764-.077-3.227-2.019-4.965-2.283 1.328-3.016 8.039-15.642 8.039-15.642Z" fill="#1AB7B7"/><path d="M155.548 194.557c3.509.76 7.088 1.456 10.517 2.541 6.77 2.126 11.293 5.562 10.021 12.936-2.293 13.285-12.504 26.289-12.504 26.289l-8.684-4.04s6.428-19.456 7.913-23.479l-15.132 1.024c-5.259.354-10.66-.1-15.53-2.446-1.585-.755-3.577-2.281-4.853-3.667.148-1.213 13.96-12.662 13.962-12.662" fill="#58C1CC"/><path d="M115.61 169.322c-.677 1.543-1.91 1.856-2.946 1.337-.97-.486-1.494-1.92-.444-2.74a3.373 3.373 0 0 1 1.476-.616c.341.069.673.176.99.32.645.298 1.303.83.924 1.699Z" fill="#EFD1D8"/><path d="M117.01 170.185c3.023-.915 3.46-3.489 2.094-5.673-.607-.971-1.349-1.961-2.393-2.475a3.694 3.694 0 0 0-3.018-.209c-2.075.82-3.012 3.363-2.094 5.673v.022a4.471 4.471 0 0 0 5.411 2.662Z" fill="#EFD1D8"/><path d="M114.336 168.659a1.586 1.586 0 0 0-1.941.354c-.131.151.085.376.216.223a1.273 1.273 0 0 1 1.555-.31c.184.092.347-.175.17-.267Z" fill="#000"/><path d="m117.346 172.282 2.411-1.149-1.571-3.297-2.412 1.15 1.572 3.296Z" fill="#EFD1D8"/><path d="M116.995 165.161c.026-.143-.079-.282-.236-.311-.157-.03-.306.061-.332.204-.027.142.078.282.235.311.157.03.306-.062.333-.204ZM119.027 165.844a6.38 6.38 0 0 0-.93-1.565c-.114-.139-.349 0-.242.145.371.455.672.962.893 1.505.073.16.344.075.279-.085Z" fill="#000"/><path d="M116.154 170.522s2.737-.708 3.196-1.941" stroke="#000" stroke-width=".243" stroke-miterlimit="10"/><path d="M117.151 161.498c-.796.784-4.61 2.524-3.273 4.436.339.485.728.687.335 1.15-.454.413-1.1-.345-1.1-.345-.592.1-1.152.341-1.633.702-1.769-1.662-1.664-3.448-.813-4.06 0 0 5.096-6.746 7.28-4.814 1.873 1.679-.796 2.931-.796 2.931Z" fill="#000"/><path d="M171.069 176.159c-.167-.64-.502-1.31-1-1.645l-2.717-.607-2.582.728-16.386.342-4.64-2.409c-1.584-1.437-12.756-10.58-28.492 1.354 0 0-15.996 11.354-5.047 26.663-.064-.083-.044-.158.041-.228.317.473.709.891 1.162 1.237 2.383 1.818 5.872 1.264 7.797-1.233.111-.145.213-.296.31-.446l.017.022.216-.287h1.065l6.489 1.238 17.859-13.159-3.004-3.092.165-1.108c4.176.788 12.815 1.516 22.324-6.256l2.968-.706c.471 0 .873.318 1.279.517a3.964 3.964 0 0 0 1.56.419c.437.025.762-.152.728-.621a3.926 3.926 0 0 0-.112-.723Z" fill="#EFD1D8"/><path d="m148.383 174.931 15.529-1.118.741 4.433s-14.164 8.512-22.325 5.241l2.839 4.196-17.859 16.029-6.488-4.105c.109.068-4.368 3.411-4.756 3.603-3.271 1.592-6.234.631-7.816-2.71-2.293-4.853-3.055-11.063-1.59-16.258 2.155-7.641 10.381-12.73 17.539-15.173a22.054 22.054 0 0 1 9.037-1.213c1.804.157 3.574.59 5.246 1.286.947.398 1.858.877 2.722 1.431" fill="#3458DF"/><path d="M130.592 184.948c.324.083.638.2.936.35.172.087.333.191.483.311a.317.317 0 0 1 .103.093.326.326 0 0 1 .054.266.334.334 0 0 1-.057.126 1.412 1.412 0 0 1-.369.32 5.978 5.978 0 0 1-1.082.534c-.313.129-1.041 1.024-1.284 1.284l-1.429 2.547L126 189l1.326-2.6 2.324-1.532a2.96 2.96 0 0 1 .942.08Z" fill="#EFD1D8"/><path d="m116.406 172.733 4.04.973 1.791-3.914 1.966 11.349-7.797-8.408Z" fill="#F7F9F8"/><path d="m124.198 181.187-.692-4.001-1.815-1.881.335-1.051-1.58-.504-.505 1.582.935.298.614 2.652 2.708 2.905Z" fill="#112133"/><path d="m115.059 173.849-.323 2.368 1.948.068-.512 2.711 10.437 6.275 1.276-12.327-2.688-1.15.893-1.447-2.192-1.067" stroke="#000" stroke-width=".243" stroke-miterlimit="10"/><path d="M120.812 199.65s6.494-5.95 7.765-8.022l-2.902-2.938" stroke="#fff" stroke-width=".243" stroke-miterlimit="10"/><path d="m145.162 187.729-7.967-11.96" stroke="#000" stroke-width=".243" stroke-miterlimit="10"/><path d="m116.406 172.747 4.04.971 1.791-3.914a40.47 40.47 0 0 0-5.831 2.943Z" fill="#112133"/><path d="M174.912 215.311s5.688-13.309-6.187-17.376M137.742 204.05a4.03 4.03 0 0 0 1.182-2.848 4.031 4.031 0 0 0-1.182-2.847 3.833 3.833 0 0 0-.57-.486l-5.595 5.598a4.019 4.019 0 0 0 2.945 1.744 4.019 4.019 0 0 0 3.22-1.161Z" stroke="#000" stroke-width=".243" stroke-miterlimit="10"/><path d="M143.749 182.269s2.643 1.476 6.309.486M110.073 181.138s-2.264 1.427-2.322 7.098M125.676 188.69l-.985-.961-7.976 5.462" stroke="#fff" stroke-width=".243" stroke-miterlimit="10"/><g opacity=".48" fill="#A5C3EF"><path opacity=".48" d="M178.541 166.808c-.163-.287-.163-.287-.485-.216-.323.07-.663.148-.995.213-.109.02-.143.061-.153.177-.172 1.866-1.104 3.218-2.808 3.997a4.54 4.54 0 0 1-3.812 0l-.191-.083.046.214 1.965 9.024c.18.82.612 1.214 1.444 1.311.024 0 .049 0 .058.031l13.793-3.004c.073-.085.187-.099.276-.158a1.494 1.494 0 0 0 .624-1.613c-.581-2.673-1.162-5.342-1.745-8.008l-.286-1.315-.177.199c-2.114 2.346-5.991 1.953-7.554-.769Z"/><path opacity=".48" d="M186.506 163.042a4.125 4.125 0 1 0 .242 1.414 1.069 1.069 0 0 1 0-.429l-.204-.937c-.021-.014-.029-.036-.038-.048ZM173.092 170.697a4.133 4.133 0 0 0 3.183-3.315 4.135 4.135 0 0 0-6.439-4.119 4.135 4.135 0 0 0-1.028 5.76 4.14 4.14 0 0 0 4.284 1.674Z"/></g><path d="m185.007 177.237-13.792 3.004c0-.029-.037-.027-.061-.029-.832-.1-1.264-.486-1.441-1.313l-1.966-9.024-.048-.214.191.083a4.548 4.548 0 0 0 3.813 0c1.698-.777 2.635-2.131 2.807-3.997 0-.114.046-.155.155-.177.33-.066.66-.143.993-.214.332-.07.318-.07.485.216 1.563 2.723 5.44 3.116 7.559.765l.177-.197.286 1.313 1.745 8.007a1.493 1.493 0 0 1-.624 1.612c-.094.065-.206.08-.279.165Zm-8.289-5.154-2.579.563a.593.593 0 0 0-.405.256.604.604 0 0 0-.081.472c.078.369.158.728.243 1.101a.587.587 0 0 0 .728.474c1.718-.373 3.437-.747 5.156-1.124a.584.584 0 0 0 .393-.262.588.588 0 0 0 .073-.466c-.072-.347-.15-.696-.225-1.046a.603.603 0 0 0-.526-.546.603.603 0 0 0-.27.029l-2.507.549Z" fill="#3458DD"/><path d="M184.354 162.782a1.06 1.06 0 0 0-.015.427 4.146 4.146 0 1 1-.242-1.415c0 .024.014.046.046.049l.211.939Zm-4.169-1.085c-.087-.391-.167-.784-.257-1.174a.305.305 0 0 0-.157-.227.296.296 0 0 0-.416.164.314.314 0 0 0 0 .218c.168.757.33 1.514.5 2.271a.329.329 0 0 1-.048.274c-.284.432-.561.869-.84 1.303-.148.243-.303.464-.447.702a.286.286 0 0 0 .19.453c.17.034.262-.065.344-.191.374-.588.755-1.17 1.124-1.757.08-.129.131-.17.274-.068.301.213.619.403.929.602.311.199.59.381.886.568a.284.284 0 0 0 .345 0 .293.293 0 0 0 .116-.292.382.382 0 0 0-.209-.242c-.643-.413-1.283-.828-1.941-1.235a.339.339 0 0 1-.165-.243c-.063-.381-.148-.752-.228-1.126ZM168.921 161.379a4.145 4.145 0 0 1 4.288 1.675 4.139 4.139 0 0 1-1.743 6.162 4.135 4.135 0 0 1-5.699-2.918 4.144 4.144 0 0 1 3.154-4.919Zm.874 2.589c-.085-.386-.17-.769-.243-1.155a.333.333 0 0 0-.069-.168.332.332 0 0 0-.149-.104c-.243-.073-.42.126-.362.393.165.765.33 1.527.5 2.291a.303.303 0 0 1-.044.257c-.218.328-.429.66-.64.993-.211.332-.435.672-.648 1.009a.28.28 0 0 0 0 .33.291.291 0 0 0 .284.138c.131-.012.199-.106.264-.208.379-.59.76-1.18 1.133-1.772.071-.114.117-.138.243-.058.461.308.932.604 1.398.903.148.097.296.199.451.289a.3.3 0 0 0 .419-.105.299.299 0 0 0 .037-.155.358.358 0 0 0-.208-.284c-.639-.408-1.272-.82-1.913-1.225a.375.375 0 0 1-.191-.267 18.21 18.21 0 0 1-.27-1.102h.008Z" fill="#EA706A"/><path d="m169.953 174.385.318 1.456.242 1.092c.131.605.294 1.512.898 1.832.272.146.551.063.835 0l1.007-.206 1.47-.303M184.487 174.048l.151.748s.349 1.245-.898 1.56l-1.012.257" stroke="#fff" stroke-width=".121" stroke-miterlimit="10"/><path d="M167.727 174.64s3.776 2.74-1.526 1.165l1.526-1.165Z" fill="#EFD1D8"/><path d="M167.727 174.64s3.776 2.74-1.526 1.165" stroke="#000" stroke-width=".243" stroke-miterlimit="10"/><path d="M128.544 188.447s1.733-1.728 2.14-.594c0 0 .43.883-2.293 2.038" fill="#EFD1D8"/><path d="M128.544 188.447s1.733-1.728 2.14-.594c0 0 .43.883-2.293 2.038" stroke="#000" stroke-width=".243" stroke-miterlimit="10"/><path opacity=".44" d="M355.121 109.054h-41.676a3.722 3.722 0 0 0-3.724 3.724v20.995a3.724 3.724 0 0 0 3.724 3.724h40.829a3.725 3.725 0 0 0 3.725-3.724v-21.839a2.891 2.891 0 0 0-.842-2.037 2.889 2.889 0 0 0-2.036-.843Z" fill="#79A4E2"/><path d="M351.022 105.809h-41.763a3.259 3.259 0 0 0-3.259 3.259v21.926c0 1.8 1.459 3.259 3.259 3.259h41.763c1.8 0 3.259-1.459 3.259-3.259v-21.926c0-1.8-1.459-3.259-3.259-3.259Z" fill="#EBF4FD"/><path d="M312.472 113.431a2.189 2.189 0 1 0 0-4.378 2.189 2.189 0 0 0 0 4.378Z" fill="#3458DF"/><path d="M319.461 130.853a1.303 1.303 0 1 0 0-2.606 1.303 1.303 0 0 0 0 2.606ZM324.978 130.853a1.303 1.303 0 1 0 .001-2.605 1.303 1.303 0 0 0-.001 2.605ZM330.497 130.853a1.303 1.303 0 1 0 .001-2.605 1.303 1.303 0 0 0-.001 2.605Z" fill="#EFD853"/><path d="M319.903 115.404h-8.77a.512.512 0 0 0-.512.512v.111c0 .283.229.512.512.512h8.77a.512.512 0 0 0 .512-.512v-.111a.512.512 0 0 0-.512-.512ZM328.403 119.473h-17.411a.37.37 0 0 0-.371.371v.08c0 .205.166.372.371.372h17.411a.372.372 0 0 0 .371-.372v-.08a.37.37 0 0 0-.371-.371ZM331.773 117.595h-20.781a.37.37 0 0 0-.371.371v.08a.37.37 0 0 0 .371.371h20.781a.37.37 0 0 0 .371-.371v-.08a.37.37 0 0 0-.371-.371ZM331.659 122.256h-20.938a.1.1 0 0 0-.1.1v.022a.1.1 0 0 0 .1.099h20.938a.1.1 0 0 0 .1-.099v-.022a.1.1 0 0 0-.1-.1ZM331.659 123.756h-20.938a.1.1 0 0 0-.1.099v.022a.1.1 0 0 0 .1.099h20.938a.1.1 0 0 0 .1-.099v-.022a.1.1 0 0 0-.1-.099ZM318.012 125.617h-7.291a.1.1 0 0 0-.1.099v.022a.1.1 0 0 0 .1.1h7.291a.1.1 0 0 0 .1-.1v-.022a.1.1 0 0 0-.1-.099Z" fill="#3458DF"/><path opacity=".55" d="M360.112 103.895h-18.083a1.82 1.82 0 0 0-1.82 1.819v18.083a1.82 1.82 0 0 0 1.82 1.82h18.083a1.82 1.82 0 0 0 1.82-1.82v-18.083a1.82 1.82 0 0 0-1.82-1.819Z" fill="#CCDDF8"/><path d="M357.361 101.318h-18.083a1.82 1.82 0 0 0-1.82 1.819v18.083a1.82 1.82 0 0 0 1.82 1.82h18.083a1.82 1.82 0 0 0 1.82-1.82v-18.083a1.82 1.82 0 0 0-1.82-1.819Z" fill="#EA706A"/><path d="M354.715 104.909c0-.454-.097-.604-.499-.777h-.299c-.024.054-.078.042-.116.051l-1.755.369-6.595 1.398c-.459.097-.607.291-.607.759v8.833l-.08-.02a3.821 3.821 0 0 0-1.812-.182 3.054 3.054 0 0 0-1.835.857 1.601 1.601 0 0 0-.471 1.572c.128.468.428.869.84 1.124a3.32 3.32 0 0 0 1.635.563 3.517 3.517 0 0 0 2.364-.57 1.85 1.85 0 0 0 .886-1.66c-.017-.529 0-1.06 0-1.589v-6.795c0-.111.021-.157.143-.184 2.18-.456 4.359-.917 6.537-1.381.124-.027.148 0 .148.117v6.874a3.922 3.922 0 0 0-1.859-.216 3.09 3.09 0 0 0-1.856.844 1.598 1.598 0 0 0-.453.71 1.59 1.59 0 0 0-.032.841 1.802 1.802 0 0 0 .856 1.165 3.603 3.603 0 0 0 3.817.097 1.942 1.942 0 0 0 1.068-1.849c-.032-3.65-.025-7.299-.025-10.951Z" stroke="#fff" stroke-width=".243" stroke-miterlimit="10"/><path d="M341.278 117.595s1.106 1.385 2.123 1.213M349.698 116.367s1.106 1.388 2.123 1.213" stroke="#fff" stroke-width=".243" stroke-miterlimit="10"/><path d="M353.565 99.752h3.626s3.36-.351 3.535 2.301v4.418M122.495 209.631s6.027 6.256 14.908 5.848" stroke="#000" stroke-width=".243" stroke-miterlimit="10"/></svg>