<svg viewBox="0 0 400 300" fill="none" xmlns="http://www.w3.org/2000/svg"><g clip-path="url(#a)"><path d="M95.136 183.674c-6.478-.014-3.813-19.747-3.277-23.254 1.95-12.738 8.978-22.034 18.585-30.475 12.771-11.214 25.474-20.552 35.255-34.651 9.477-13.661 17.643-29.37 33.014-37.342 41.697-21.619 79.223 34.48 110.813 53.232 14.424 8.563 22.402 21.897 24.511 38.52.742 5.85-1.16 33.967-10.751 33.967l-208.15.003Z" fill="#ECF4FD"/><g clip-path="url(#b)"><path fill-rule="evenodd" clip-rule="evenodd" d="M318.68 172.279c4.411 4.253-8.211 11.747-8.211 11.747l8.382 6.42c7.369-1.635 6.712-7.039 6.712-7.039-.162-1.31 1.803-2.948 1.803-2.948 5.239-2.948 2.423-7.533 2.423-7.533-1.21-1.972.355-4.625 1.877-5.868.573-.468 1.381-.734 2.197-1.003 1.352-.446 2.726-.898 3.091-2.288.198-.77-.067-1.531-.334-2.3-.144-.412-.287-.826-.362-1.244-.348-1.937.949-3.663 2.551-4.59.335-.197.693-.373 1.052-.549.993-.488 1.993-.98 2.53-1.917.73-1.276.276-2.985-.757-4.038-1.032-1.053-2.497-1.554-3.942-1.821-2.575-.475-5.354-.28-7.654.991-3.299 1.82-5.126 5.545-5.799 9.242-.501 2.767-.86 4.744-3.337 6.297-.286.18-.583.352-.881.524-1.52.879-3.061 1.772-3.255 3.742-.146 1.545.84 3.138 1.914 4.175Zm25.239-.153c-5.766.654-17.307 13.967-17.307 13.967l8.039 5.833c3.235-.626 11.015-5.181 12.135-8.498.354-1.05.207-2.329.062-3.588-.19-1.643-.375-3.252.564-4.275.759-.83 1.972-1.313 3.015-1.66l.008-.003c.565-.186 3.664-1.206 4.167-.716-2.579-2.503 1.51-1.278 1.51-1.278 1.214-.621 1.391-3.183 1.527-5.143.053-.778.101-1.46.203-1.89.228-.951 2.642-7.512 3.751-7.28-4.799-.986-9.521.883-13 4.193-1.482 1.41-2.32 3.171-2.978 5.08-.069.198-.179.668-.315 1.251-.365 1.57-.921 3.954-1.381 4.007Z" fill="#CDE5F9"/><mask id="c" style="mask-type:alpha" maskUnits="userSpaceOnUse" x="310" y="147" width="52" height="45"><path fill-rule="evenodd" clip-rule="evenodd" d="M318.68 172.279c4.411 4.253-8.211 11.747-8.211 11.747l8.382 6.42c7.369-1.635 6.712-7.039 6.712-7.039-.162-1.31 1.803-2.948 1.803-2.948 5.239-2.948 2.423-7.533 2.423-7.533-1.21-1.972.355-4.625 1.877-5.868.573-.468 1.381-.734 2.197-1.003 1.352-.446 2.726-.898 3.091-2.288.198-.77-.067-1.531-.334-2.3-.144-.412-.287-.826-.362-1.244-.348-1.937.949-3.663 2.551-4.59.335-.197.693-.373 1.052-.549.993-.488 1.993-.98 2.53-1.917.73-1.276.276-2.985-.757-4.038-1.032-1.053-2.497-1.554-3.942-1.821-2.575-.475-5.354-.28-7.654.991-3.299 1.82-5.126 5.545-5.799 9.242-.501 2.767-.86 4.744-3.337 6.297-.286.18-.583.352-.881.524-1.52.879-3.061 1.772-3.255 3.742-.146 1.545.84 3.138 1.914 4.175Zm25.239-.153c-5.766.654-17.307 13.967-17.307 13.967l8.039 5.833c3.235-.626 11.015-5.181 12.135-8.498.354-1.05.207-2.329.062-3.588-.19-1.643-.375-3.252.564-4.275.759-.83 1.972-1.313 3.015-1.66l.008-.003c.565-.186 3.664-1.206 4.167-.716-2.579-2.503 1.51-1.278 1.51-1.278 1.214-.621 1.391-3.183 1.527-5.143.053-.778.101-1.46.203-1.89.228-.951 2.642-7.512 3.751-7.28-4.799-.986-9.521.883-13 4.193-1.482 1.41-2.32 3.171-2.978 5.08-.069.198-.179.668-.315 1.251-.365 1.57-.921 3.954-1.381 4.007Z" fill="#CDE5F9"/></mask><g mask="url(#c)" stroke="#fff" stroke-width=".174" stroke-miterlimit="10"><path d="M344.447 147.074c-1.053 2.046-2.822 3.096-4.87 3.959-1.29.545-2.821.928-3.895 1.879-1.549 1.366-1.092 3.054-1.686 4.87-.331 1.016-.941 1.979-1.855 2.524-3.711 2.196-5.954 4.126-6.494 8.667-.773 6.404-3.943 15.656-10.793 18.402M361.592 157.595a17.335 17.335 0 0 0-9.88 9.161c-.849 1.921-.875 4.15-2.422 5.678-1.547 1.529-3.88 2.155-5.763 3.247-3.461 1.995-8.408 8.48-9.132 12.293"/></g></g><path d="M51.613 183.6h306.74" stroke="#000" stroke-width=".232" stroke-miterlimit="10"/><g clip-path="url(#d)"><path fill-rule="evenodd" clip-rule="evenodd" d="M81.308 164.096c-6.457 3.908 8.155 21.698 8.155 21.698l-13.302.081a17.947 17.947 0 0 1-1.23-.64l-9.464 1.981c-3.64-.174-7.473-1.369-9.234-4.813-.556-1.09-.602-2.511-.648-3.91-.06-1.827-.118-3.617-1.31-4.584-.967-.786-2.37-1.115-3.567-1.326-.621-.109-4.205-.729-4.68-.109 2.419-3.162-1.856-1.16-1.856-1.16-1.426-.488-2.035-3.258-2.5-5.377-.185-.84-.347-1.578-.529-2.031-.406-1.002-4.1-7.779-5.276-7.353 5.084-1.853 10.553-.573 14.888 2.48 1.848 1.303 3.047 3.091 4.077 5.072.108.206.304.696.548 1.302.654 1.631 1.647 4.104 2.154 4.17.592.077 6.775 4.576 12.234 8.62-.138-1.54.247-2.613.247-2.613.554-1.529-1.36-4.031-1.36-4.031-5.496-4.971-.858-9.712-.858-9.712 1.993-2.038.835-5.643-.653-7.561-.563-.724-1.464-1.266-2.374-1.814-1.5-.902-3.022-1.817-3.082-3.583-.031-.979.491-1.818 1.022-2.668.283-.456.57-.915.773-1.4.944-2.234-.141-4.655-1.816-6.214a20.318 20.318 0 0 0-1.108-.943c-1.063-.864-2.128-1.728-2.52-3-.53-1.725.493-3.655 2.01-4.638 1.516-.984 3.418-1.188 5.227-1.114 3.234.132 6.52 1.127 8.937 3.282 3.456 3.08 4.636 8.058 4.435 12.682v.007c-.151 3.457-.258 5.917 2.291 8.466.299.299.613.591.928.885 1.585 1.474 3.19 2.967 2.878 5.377-.246 1.895-1.862 3.54-3.437 4.491Z" fill="#CDE5F9"/><mask id="e" style="mask-type:alpha" maskUnits="userSpaceOnUse" x="35" y="128" width="55" height="60"><path fill-rule="evenodd" clip-rule="evenodd" d="M81.308 164.096c-6.457 3.908 8.155 21.698 8.155 21.698l-13.302.081a17.947 17.947 0 0 1-1.23-.64l-9.464 1.981c-3.64-.174-7.473-1.369-9.234-4.813-.556-1.09-.602-2.511-.648-3.91-.06-1.827-.118-3.617-1.31-4.584-.967-.786-2.37-1.115-3.567-1.326-.621-.109-4.205-.729-4.68-.109 2.419-3.162-1.856-1.16-1.856-1.16-1.426-.488-2.035-3.258-2.5-5.377-.185-.84-.347-1.578-.529-2.031-.406-1.002-4.1-7.779-5.276-7.353 5.084-1.853 10.553-.573 14.888 2.48 1.848 1.303 3.047 3.091 4.077 5.072.108.206.304.696.548 1.302.654 1.631 1.647 4.104 2.154 4.17.592.077 6.775 4.576 12.234 8.62-.138-1.54.247-2.613.247-2.613.554-1.529-1.36-4.031-1.36-4.031-5.496-4.971-.858-9.712-.858-9.712 1.993-2.038.835-5.643-.653-7.561-.563-.724-1.464-1.266-2.374-1.814-1.5-.902-3.022-1.817-3.082-3.583-.031-.979.491-1.818 1.022-2.668.283-.456.57-.915.773-1.4.944-2.234-.141-4.655-1.816-6.214a20.318 20.318 0 0 0-1.108-.943c-1.063-.864-2.128-1.728-2.52-3-.53-1.725.493-3.655 2.01-4.638 1.516-.984 3.418-1.188 5.227-1.114 3.234.132 6.52 1.127 8.937 3.282 3.456 3.08 4.636 8.058 4.435 12.682v.007c-.151 3.457-.258 5.917 2.291 8.466.299.299.613.591.928.885 1.585 1.474 3.19 2.967 2.878 5.377-.246 1.895-1.862 3.54-3.437 4.491Z" fill="#CDE5F9"/></mask><g mask="url(#e)" stroke="#fff" stroke-width=".174" stroke-miterlimit="10"><path d="M57.233 126.8c.707 2.744 2.551 4.488 4.77 6.086 1.392 1.007 3.137 1.891 4.176 3.319 1.489 2.062.48 3.969.696 6.318.123 1.309.591 2.633 1.547 3.537 3.859 3.649 6.03 6.581 5.446 12.186-.822 7.905-.822 19.947 6.672 25.124M35.867 156.553a19.187 19.187 0 0 1 12.292 8.417c1.239 1.962 1.624 4.393 3.565 5.815 1.979 1.452 4.59 1.726 6.824 2.607 4.108 1.624 6.902 5.745 8.313 9.799"/></g></g><path d="M110.435 152.536a7.53 7.53 0 0 1 .232-2.155c.051-.201.368-.129.315.072a7.31 7.31 0 0 0-.232 2.072.16.16 0 0 1-.043.116.16.16 0 0 1-.23.008.162.162 0 0 1-.052-.113" fill="#010344"/><path d="m145.408 234.252.659-10.729 8.141 1.679-1.798 10.885-7.002-1.835Z" fill="#EFD1D8"/><path d="m145.409 234.252-.988 6.676h3.954l.411-.988.825 1.317h10.792v-2.143l-6.014-2.06-.248-1.317-8.732-1.485Z" fill="#3458DF"/><path d="m153.153 238.578 1.484-2.06 1.234 2.844 1.979-1.607.781 2.101.935-1.03" stroke="#000" stroke-width=".232" stroke-miterlimit="10"/><path d="m68.568 211.149 8.762-6.228 3.809 7.39-9.598 5.439-2.973-6.601Z" fill="#EFD1D8"/><path d="m68.567 211.149-5.812 3.426 2.484 3.075 1.03-.299-.508 1.468 6.782 8.396 1.665-1.345-2.176-5.975.87-1.02-4.335-7.726Z" fill="#3458DF"/><path d="m70.068 219.893 2.535-.141-1.435 2.748 2.493.529-1.143 1.93 1.387.079" stroke="#000" stroke-width=".232" stroke-miterlimit="10"/><path d="M146.086 95.155c-2.229 1.183-3.966.403-4.701-1.16-.677-1.461.032-3.644 2.027-3.628.81.028 1.601.25 2.308.647.334.4.624.834.863 1.297.48.951.758 2.19-.497 2.853" fill="#EFD1D8"/><path d="M146.928 97.472c4.407 1.74 7.308-.88 7.735-4.711.188-1.7.232-3.56-.506-5.13-.679-1.443-1.816-2.61-3.339-3.069-3.199-.965-6.662 1.146-7.733 4.713 0 .012 0 .02-.012.035a6.7 6.7 0 0 0 3.855 8.162Z" fill="#EFD1D8"/><path d="M145.207 93.195a2.371 2.371 0 0 0-2.598-1.392c-.292.056-.25.52.044.464a1.905 1.905 0 0 1 2.118 1.08c.123.275.559.115.436-.16" fill="#000"/><path d="m146.595 94.906-1.221 5.331 3.9.893 1.221-5.331-3.9-.893Z" fill="#EFD1D8"/><path d="M151.593 91.564a.437.437 0 1 1 0-.584.415.415 0 0 1 0 .584ZM153.332 94.252a9.387 9.387 0 0 0 .364-2.702c0-.266-.413-.317-.411-.048a8.95 8.95 0 0 1-.348 2.597c-.071.249.323.404.395.153Z" fill="#010344"/><path d="M154.194 89.635c-1.51-.21-6.566-2.897-7.519.143-.232.775-.232 1.775-1.046 1.744a.954.954 0 0 1-.823-.913 5.454 5.454 0 0 0-2.021-.177c0-5.302 2.619-6.659 3.987-6.246 0 0 4.502-5.068 6.249-1.549 0 0 5.603-2.491 6.443 2.853.84 5.344-5.27 4.145-5.27 4.145Z" fill="#000"/><path d="M158.233 106.197c-.378 2.709-5.713 4.217-11.917 3.37-6.204-.846-10.943-3.734-10.574-6.445.369-2.712 5.706-4.22 11.908-3.377 6.202.842 10.945 3.734 10.574 6.445M172.293 124.838l7.714-.893s9.405-15.635 12.163-21.442l3.235-4.04c1.981 0 3.962-.133 5.945-.08.802.023 1.881-.088 2.565.383.543.373 1.16 1.111.928 1.821-.383 1.173-2.345 1.593-3.345 1.855-.582.149-1.173.269-1.765.376-.232.042-2.101.206-2.136.322l-3.479 11.966c-2.087 7.144-2.649 14.517-7.988 20.179-5.221 5.527-12.434 8.171-19.582 4.529-13.831-7.048 5.749-14.96 5.749-14.96" fill="#EFD1D8"/><path d="M123.507 149.906s-3.625 10.027 19.773 38.019l.053 45.592h10.312s20.292-43.511-.308-89.672l-29.83 6.061Z" fill="#1AB7B7"/><path d="m69.31 207.065 6.643 13.162c.578 1.146 21.802-7.686 23.217-8.289 13.269-5.708 27.248-12.989 36.609-24.312 5.189-6.262 8.095-14.028 9.772-21.916a114.617 114.617 0 0 0 1.809-12.017c.253-2.423-.046-8.117 3.56-7.102l-28.398.096s-4.379 17.061-5.938 31.589l-47.273 28.789Z" fill="#58C1CC"/><mask id="f" style="mask-type:alpha" maskUnits="userSpaceOnUse" x="69" y="143" width="94" height="91"><path d="M123.507 149.906s-3.625 10.027 19.773 38.019l.053 45.592h10.312s20.292-43.511-.308-89.672l-29.83 6.061Z" fill="#1AB7B7"/><path d="m69.31 207.065 6.643 13.162c.578 1.146 21.802-7.686 23.217-8.289 13.269-5.708 27.248-12.989 36.609-24.312 5.189-6.262 8.095-14.028 9.772-21.916a114.617 114.617 0 0 0 1.809-12.017c.253-2.423-.046-8.117 3.56-7.102l-28.398.096s-4.379 17.061-5.938 31.589l-47.273 28.789Z" fill="#58C1CC"/></mask><g mask="url(#f)" stroke="#fff" stroke-width=".116" stroke-miterlimit="10"><path d="m118.808 102.166 99.816 67.162M115.628 106.893l99.817 67.162M112.448 111.618l99.817 67.162M109.268 116.342l99.817 67.163M106.091 121.067l99.817 67.162M102.911 125.794l99.817 67.162M99.731 130.518l99.817 67.162M96.551 135.243l99.817 67.162M93.374 139.967l99.817 67.163M90.194 144.692l99.817 67.162M87.014 149.419l99.817 67.162M83.834 154.143l99.816 67.163M80.656 158.868l99.817 67.162M77.477 163.593l99.816 67.162M74.296 168.317l99.817 67.162M71.117 173.044l99.817 67.162M67.94 177.769l99.816 67.162M64.76 182.493l99.816 67.162M61.58 187.218l99.816 67.162M58.4 191.945l99.816 67.159M55.222 196.669l99.816 67.162M52.042 201.394l99.817 67.162"/></g><path d="M147.03 107.014a4.977 4.977 0 0 0 2.551-.582c1.999-1.179 2.215-4.057 2.052-6.005 0 0 13.084 3.66 20.91 18.703 1.222 2.35 2.748 2.603 7.051 3.162.596.076.354 3.066.25 5.102-.169 3.233-2.605 13.782-3.048 15.433 0 0-10.437 1.025-15.059-5.747l-3.558 10.813a26.513 26.513 0 0 1-10.669 2.999c-1.65.112-3.307.076-4.95-.107-4.08-.45-8.271-1.408-12.061-3.263-3.015-1.473-7.071-2.946-9.444-5.36l1.473-10.56c-8.413-1.267-14.381-8.742-14.381-8.742 7.534-26.418 33.984-23.312 33.984-23.312a3.547 3.547 0 0 0-.046.157c-.58 1.946-.961 4.101.807 5.975 1.023 1.088 2.725 1.334 4.149 1.334" fill="#467EF6"/><path d="m165.043 127.902-6.944 20.255M145.611 97.073s3.871 1.714 5.555.696" stroke="#000" stroke-width=".232" stroke-miterlimit="10"/><path opacity=".44" d="M143.352 132.8H87.729a4.961 4.961 0 0 0-3.519 1.46 4.968 4.968 0 0 0-1.452 3.522V165.8a4.974 4.974 0 0 0 4.97 4.973h54.506a4.972 4.972 0 0 0 4.952-4.984v-29.148a3.843 3.843 0 0 0-2.371-3.549 3.84 3.84 0 0 0-1.47-.292" fill="#79A4E2"/><path d="M139.116 166.429H80.9a3.115 3.115 0 0 1-3.115-3.115v-31.731a3.116 3.116 0 0 1 3.115-3.115h58.216a3.116 3.116 0 0 1 3.115 3.115v31.731a3.116 3.116 0 0 1-3.115 3.115Z" fill="#EBF4FD"/><path d="M70.53 133.413v10.205l-7.607-5.666 7.607-4.539Z" fill="#467EF6"/><path d="m94.269 121.05 9.368-12.756s4.921 4.989 2.748 10.321c-2.748 6.747-12.116 2.433-12.116 2.433M81.778 112.515a1.983 1.983 0 0 1-2.372 1.947 1.978 1.978 0 0 1-1.56-1.56 1.986 1.986 0 1 1 3.932-.387Z" fill="#CBE1F8"/><path d="M91.453 139.571H78.17a1.742 1.742 0 0 1-1.74-1.738v-13.285a1.745 1.745 0 0 1 1.74-1.739h13.283a1.742 1.742 0 0 1 1.74 1.739v13.285a1.746 1.746 0 0 1-1.74 1.738Z" fill="#CCDDF8"/><path d="M89.33 137.583H76.045a1.743 1.743 0 0 1-1.74-1.739V122.56a1.743 1.743 0 0 1 1.74-1.739H89.33a1.743 1.743 0 0 1 1.74 1.739v13.284a1.744 1.744 0 0 1-1.74 1.739Z" fill="#EA706A"/><path d="M101.598 137.75a2.916 2.916 0 0 1-1.803 2.698 2.917 2.917 0 0 1-3.182-.633 2.92 2.92 0 1 1 4.985-2.065ZM99.237 159.105a1.738 1.738 0 1 1-3.477 0 1.738 1.738 0 0 1 3.477 0ZM106.365 159.105a1.748 1.748 0 0 1-1.074 1.611 1.744 1.744 0 0 1-1.899-.377 1.733 1.733 0 0 1-.477-.891 1.735 1.735 0 0 1 .74-1.789 1.736 1.736 0 0 1 1.634-.162 1.733 1.733 0 0 1 .943.941c.087.212.133.438.133.667ZM113.102 159.105a1.74 1.74 0 1 1-3.478 0 1.74 1.74 0 0 1 3.478 0ZM112.562 137.583h-7.422a.545.545 0 0 1-.541-.54v-.434a.545.545 0 0 1 .541-.541h7.422a.544.544 0 0 1 .54.541v.434a.544.544 0 0 1-.54.54ZM122.929 137.583h-7.422a.544.544 0 0 1-.54-.54v-.434a.544.544 0 0 1 .54-.541h7.422a.545.545 0 0 1 .541.541v.434a.544.544 0 0 1-.541.54ZM115.69 140.67h-10.692a.389.389 0 0 1-.277-.115.389.389 0 0 1-.115-.277v-.315a.393.393 0 0 1 .392-.392h10.692a.392.392 0 0 1 .392.392v.315a.389.389 0 0 1-.115.277.389.389 0 0 1-.277.115ZM114.87 144.68H96.748a.11.11 0 0 1-.074-.03.104.104 0 0 1-.03-.074v-.084c0-.028.011-.054.03-.074a.104.104 0 0 1 .074-.032h18.122c.028 0 .055.012.074.032.02.019.032.046.032.074v.084a.105.105 0 0 1-.032.074.107.107 0 0 1-.074.03ZM132.233 144.68h-11.159a.092.092 0 0 1-.04-.008.124.124 0 0 1-.034-.022.124.124 0 0 1-.022-.034.092.092 0 0 1-.008-.04v-.084c0-.028.011-.054.03-.074a.105.105 0 0 1 .074-.032h11.159c.028 0 .054.012.074.032.019.02.03.046.03.074v.084a.11.11 0 0 1-.008.04.108.108 0 0 1-.056.056.095.095 0 0 1-.04.008ZM122.521 146.981H96.748a.106.106 0 0 1-.073-.03.107.107 0 0 1-.031-.074v-.084c0-.028.011-.054.03-.074a.104.104 0 0 1 .074-.032h25.773a.11.11 0 0 1 .075.031c.02.02.031.047.032.075v.084a.109.109 0 0 1-.032.074.11.11 0 0 1-.075.03ZM122.226 151.251H96.453a.106.106 0 0 1-.075-.032.108.108 0 0 1-.032-.075v-.083a.11.11 0 0 1 .107-.107h25.773a.11.11 0 0 1 .074.032.11.11 0 0 1 .03.075v.083a.106.106 0 0 1-.104.107ZM103.101 149.164h-6.286a.103.103 0 0 1-.074-.031.103.103 0 0 1-.03-.074v-.083c0-.028.01-.055.03-.075a.108.108 0 0 1 .074-.032h6.286a.11.11 0 0 1 .074.032.11.11 0 0 1 .03.075v.083a.102.102 0 0 1-.031.074.101.101 0 0 1-.073.031ZM138.761 149.164h-32.269a.104.104 0 0 1-.074-.031.102.102 0 0 1-.031-.074v-.083a.107.107 0 0 1 .105-.107h32.269a.111.111 0 0 1 .075.032c.02.02.031.047.032.075v.083a.107.107 0 0 1-.107.105Z" fill="#467EF6"/><path d="M119.881 159.933c-17.254-19.068-10.852-36.916-10.852-36.916l17.187 1.893-4.795 10.484 1.749 24.487.821 3.809s2.526 2.551 2.531 2.551c.259.262.058 1.072-.116 1.313-.849 1.178-2.259.761-3.319.135a11.48 11.48 0 0 1-1.591-1.172c-.388-.329-1.299-.865-1.329-1.391l-.293-5.187" fill="#EFD1D8"/><path d="M108.136 122.86s7.772 10.813 16.177 10.205l10.915-11.154-15.226-9.384-8.874 2.867-2.992 7.466Z" fill="#467EF6"/><path d="M134.106 117.954s-8.849 9.47-9.793 15.113c0 0-7.046 1.067-16.177-10.205" stroke="#000" stroke-width=".232" stroke-miterlimit="10"/><path d="M124.045 163.906s2.943 2.182 3.302.417c0 0 .446-1.391-3.84-2.523" fill="#EFD1D8"/><path d="M124.045 163.906s2.943 2.182 3.302.417c0 0 .446-1.391-3.84-2.523" stroke="#000" stroke-width=".232" stroke-miterlimit="10"/><path d="M170.612 141.083s4.128 1.02 5.661.392M127.362 103.361s-8.264 3.692-10.096 7.169" stroke="#fff" stroke-width=".232" stroke-miterlimit="10"/><path d="M75.081 156.156v7.267s-.723 5.831 5.42 5.949h12.367M181.023 141.786s8.735-.951 10.644-9.913" stroke="#000" stroke-width=".232" stroke-miterlimit="10"/><path d="M198.471 101.477s6.903 1.07-1.238 2.598l1.238-2.598Z" fill="#EFD1D8"/><path d="M198.471 101.477s6.903 1.07-1.238 2.598" stroke="#000" stroke-width=".232" stroke-miterlimit="10"/><path d="M218.84 193.635h-59.13a2.783 2.783 0 0 1-2.783-2.783V151.68a2.783 2.783 0 0 1 2.783-2.783h59.144a2.781 2.781 0 0 1 2.784 2.783v39.172a2.784 2.784 0 0 1-2.784 2.783" fill="#fff"/><path d="M218.84 148.897H159.7a2.783 2.783 0 0 0-2.783 2.783v39.172a2.783 2.783 0 0 0 2.783 2.783h59.14a2.783 2.783 0 0 0 2.783-2.783V151.68a2.783 2.783 0 0 0-2.783-2.783Z" stroke="#221715" stroke-width=".232" stroke-miterlimit="10"/><path d="M157.047 184.963v5.736a2.77 2.77 0 0 0 2.783 2.746h58.913a2.769 2.769 0 0 0 2.783-2.746v-5.736h-64.479Z" fill="#CDE5F9"/><path d="m180.483 193.888-2.192 11.205s-1.178 4.382 1.686 4.465h27.213s-.675-2.106-1.686-1.937h-11.119s-1.097-.589-.675-2.783l2.359-10.952-15.586.002Z" fill="#fff"/><path d="m180.483 193.888-2.192 11.205s-1.178 4.382 1.686 4.465h27.213s-.675-2.106-1.686-1.937h-11.119s-1.097-.589-.675-2.783l2.359-10.952-15.586.002Z" stroke="#000" stroke-width=".232" stroke-miterlimit="10"/><path d="m179.587 198.464 15.846-1.623.636-2.953h-15.587l-.895 4.576Z" fill="#000"/><path opacity=".44" d="M352.541 115.959h-40.796a3.646 3.646 0 0 0-3.646 3.646v20.55a3.65 3.65 0 0 0 3.646 3.658h39.968a3.645 3.645 0 0 0 3.646-3.646v-21.392a2.81 2.81 0 0 0-.826-1.992 2.807 2.807 0 0 0-1.992-.824Z" fill="#79A4E2"/><path d="M348.605 140.624h-41.032a3.107 3.107 0 0 1-2.877-1.923 3.124 3.124 0 0 1-.236-1.192v-21.614c0-.409.081-.814.237-1.192a3.126 3.126 0 0 1 1.685-1.684 3.098 3.098 0 0 1 1.191-.237h41.032a3.104 3.104 0 0 1 2.202.911 3.107 3.107 0 0 1 .913 2.202v21.614a3.114 3.114 0 0 1-3.115 3.115Z" fill="#CDE5F9"/><path d="M312.935 118.1a2.143 2.143 0 1 1-4.287.006 2.143 2.143 0 0 1 4.287-.006Z" fill="#fff"/><path d="M318.91 136.022c0 .253-.074.5-.214.711a1.285 1.285 0 0 1-1.313.545 1.277 1.277 0 0 1-.46-2.317 1.275 1.275 0 0 1 1.987 1.061ZM324.312 136.022c0 .253-.074.5-.214.711a1.286 1.286 0 0 1-1.312.545 1.282 1.282 0 0 1-1.005-1.003 1.271 1.271 0 0 1 .543-1.313 1.273 1.273 0 0 1 1.613.158c.239.239.374.563.375.902ZM329.72 136.022a1.277 1.277 0 0 1-2.531.253 1.278 1.278 0 1 1 2.531-.253Z" fill="#467EF6"/><path d="M326.754 123.284h-16.818c-.524 0-.956-.22-.956-.489v-.132c0-.269.432-.49.956-.49h16.818c.526 0 .958.221.958.49v.132c0 .269-.432.489-.958.489ZM332.33 126.963h-22.874c-.262 0-.476-.16-.476-.355v-.095c0-.197.214-.357.476-.357h22.874c.259 0 .464.16.464.357v.095c0 .195-.216.355-.464.355ZM336.755 125.123h-27.299c-.262 0-.476-.16-.476-.355v-.095c0-.195.214-.355.476-.355h27.299c.262 0 .475.16.475.355v.095c0 .195-.213.355-.475.355ZM336.595 129.099h-27.487c-.07 0-.128-.044-.128-.095v-.035a.115.115 0 0 1 .045-.074.112.112 0 0 1 .083-.024h27.487c.03-.003.06.005.083.024.024.018.04.044.045.074v.025c0 .051-.058.095-.128.095M336.595 130.565h-27.487c-.07 0-.128-.042-.128-.095v-.026c0-.053.058-.095.128-.095h27.487c.07 0 .128.042.128.095v.026c0 .053-.058.095-.128.095ZM316.217 132.385h-7.139a.098.098 0 0 1-.067-.027.097.097 0 0 1-.028-.068v-.025c0-.025.01-.05.028-.067a.095.095 0 0 1 .067-.028h7.142a.09.09 0 0 1 .066.028.1.1 0 0 1 .029.067v.025c0 .025-.01.05-.028.068a.098.098 0 0 1-.067.027" fill="#fff"/><path d="M280.329 122.973s8.225 1.16 9.192-5.622" stroke="#fff" stroke-width=".232" stroke-miterlimit="10"/><path d="M170.514 151.27h45.241c2.137 0 3.519.744 3.456 2.962-.025.848 0 1.704 0 2.551v24.731M133.844 48.612c3.039 3.402 6.564 6.575 10.628 8.695 3.727 1.944 8.053 2.948 12.188 2.185 1.8-.334 3.859-1.41 3.883-3.247.023-1.751-1.83-2.885-3.496-3.43a20.986 20.986 0 0 0-9.428-.826c-3.147.45-6.592 2.06-7.352 5.147-.59 2.393.67 4.882 2.319 6.707a15.957 15.957 0 0 0 10.034 5.103c8.669.911 6.914-8.526-1.87-7.376-1.623.213-3.296.492-4.701 1.343-1.406.851-2.503 2.405-2.343 4.04.088.912.545 1.747 1.065 2.498a14.456 14.456 0 0 0 7.09 5.393c1.563.54 3.816.464 4.272-1.118.263-.928-.303-1.911-1.087-2.463-2.044-1.436-5.393.058-5.692 2.535-.411 3.398 3.597 4.293 6.142 4.295" stroke="#000" stroke-width=".232" stroke-miterlimit="10"/><path d="m78.235 124.097-.643.642 9.548 9.575.644-.642-9.549-9.575Z" fill="#fff"/><path d="m87.386 124.327-10.01 9.09.61.673L87.997 125l-.611-.673Z" fill="#fff"/><path d="M189.546 161.874c.177-.154.384-.269.608-.339.224-.071.46-.094.693-.069h.624a.26.26 0 0 1 .22.082.262.262 0 0 1 .063.226 1.693 1.693 0 0 1-1.044 1.467c-.197.075-.406.11-.617.101h-.424c-.053 0-.137-.042-.144.077-.007.118.03.13.123.143.44.074.845.283 1.16.599a2.249 2.249 0 0 1 .677 1.64c0 .438-.019.879.032 1.317.07.499.209.986.413 1.447.17.402.446.743.601 1.16a3.57 3.57 0 0 1 .014 2.614 3.504 3.504 0 0 1-1.976 2.013 3.085 3.085 0 0 1-2.331.077 3.473 3.473 0 0 1-2.122-1.879 3.501 3.501 0 0 1 .201-3.402 5.018 5.018 0 0 0 .766-2.698 4.508 4.508 0 0 1 .076-1.28 2.155 2.155 0 0 1 1.756-1.624c.1-.021.114-.065.114-.151v-1.577a.75.75 0 0 1 0-.164.25.25 0 0 1 .248-.205.25.25 0 0 1 .248.205 1.8 1.8 0 0 1 .021.22Z" fill="#CDE5F9"/><path d="M220.303 110.576h-3.943c-.307 0-.602-.122-.82-.339a1.163 1.163 0 0 1-.339-.82v-4.027a1.163 1.163 0 0 1 1.159-1.16h3.943a1.16 1.16 0 0 1 1.16 1.16v4.027a1.16 1.16 0 0 1-1.16 1.159Z" fill="#EFD1D8"/><path d="M219.926 105.661v-4.831s.853-.893 1.538.077v4.754" stroke="#000" stroke-width=".232" stroke-miterlimit="10"/><path d="M220.208 109.022h-3.876v5.228h3.876v-5.228ZM243.565 243.653l.747-10.122-7.828.536.297 10.409 6.784-.823Z" fill="#EFD1D8"/><path d="m243.565 243.653.074 6.366-3.699-.503-.258-.977-.939 1.128-10.096-1.371.273-2.004 5.887-1.162.399-1.201 8.359-.276Z" fill="#3458DF"/><path d="m235.769 246.712-1.125-2.115-1.516 2.502-1.647-1.756-.997 1.868-.745-1.081" stroke="#000" stroke-width=".232" stroke-miterlimit="10"/><path d="m302.087 236.683-3.511-9.523-6.903 3.731 4.581 9.352 5.833-3.56Z" fill="#EFD1D8"/><path d="m302.087 236.683 2.707 5.764-3.574 1.073-.642-.781-.388 1.415-9.755 2.931-.582-1.936 4.877-3.496-.134-1.259 7.491-3.711Z" fill="#3458DF"/><path d="m296.261 242.697-1.9-1.461-.345 2.906-2.225-.916-.136 2.113-1.123-.675" stroke="#000" stroke-width=".232" stroke-miterlimit="10"/><path d="M287.009 152.527s3.628 5.478-2.783 10.803l2.426 3.396s9.493-7.278 10.402-9.89l-10.045-4.309Z" fill="#EFD1D8"/><path d="M269.089 188.212c1.702 17.563 23.795 48.23 23.795 48.23l9.671-4.099s-3.664-21.802-9.078-33.369c-4.407-9.395-3.848-25.093-7.095-35.319-.751-2.359-1.558-4.372-2.465-5.884l-3.18-.464-12.919-1.879a292.87 292.87 0 0 0 1.271 32.782" fill="#1D63DD"/><path d="M279.865 160.802c-.443 9.377-20.888 28.804-22.792 41.429-1.905 12.624-10.451 37.228-10.451 37.228l-12.973-1.48s-.958-36.149 9.278-57.956c7.503-15.971 18.249-26.559 18.249-26.559l18.689 7.338Z" fill="#467EF6"/><path d="M265.209 112.091c-4.158.554-6.1-2.32-5.645-5.713.202-1.503.557-3.115 1.535-4.307.893-1.097 2.12-1.856 3.533-1.925 2.957-.144 5.485 2.414 5.645 5.712a5.943 5.943 0 0 1-5.068 6.233Z" fill="#EFD1D8"/><path d="m262.519 109.895-.092 4.848 3.548.068.092-4.849-3.548-.067Z" fill="#EFD1D8"/><path d="M261.831 105.095a.388.388 0 0 0 .596.092.386.386 0 0 0-.483-.597.364.364 0 0 0-.113.505ZM260.069 107.429c-.029-.81.06-1.619.265-2.403.06-.232.424-.183.364.046a7.961 7.961 0 0 0-.257 2.32c0 .232-.365.278-.372.046" fill="#000"/><path d="M296.681 158.402c.821-2.693 1.021-5.629 1.292-8.42.749-7.77.042-15.976-3.88-22.906-3.034-5.362-7.949-9.189-13.715-11.263-1.053-.452-4.36-1.055-5.55-1.208-17.129-2.635-22.398 2.106-29.403 7.668-14.902 11.829-20.262 6.03-22.011-9.77l-9.168.423c-.606 13.139-.302 38.596 21.266 39.172 3.725.099 5.676-.58 8.215-1.462 2.408 6.339 2.15 10.456 5.235 15.54 14.167-3.586 23.628-6.638 39.198-5.782-.77-2.238-1.132-4.066-1.51-6.937 0 .102.369 5.102.983 5.239 2.572.552 6.699-.619 9.046-.299" fill="#58C1CC"/><mask id="g" style="mask-type:alpha" maskUnits="userSpaceOnUse" x="214" y="112" width="85" height="55"><path d="M296.681 158.402c.821-2.693 1.021-5.629 1.292-8.42.749-7.77.042-15.976-3.88-22.906-3.034-5.362-7.949-9.189-13.715-11.263-1.053-.452-4.36-1.055-5.55-1.208-17.129-2.635-22.398 2.106-29.403 7.668-14.902 11.829-20.262 6.03-22.011-9.77l-9.168.423c-.606 13.139-.302 38.596 21.266 39.172 3.725.099 5.676-.58 8.215-1.462 2.408 6.339 2.15 10.456 5.235 15.54 14.167-3.586 23.628-6.638 39.198-5.782-.77-2.238-1.132-4.066-1.51-6.937 0 .102.369 5.102.983 5.239 2.572.552 6.699-.619 9.046-.299" fill="#58C1CC"/></mask><g mask="url(#g)" fill="#69DDE2"><path d="M217.124 116.226a1.128 1.128 0 0 1-.694 1.04 1.13 1.13 0 0 1-1.226-.244 1.132 1.132 0 0 1-.244-1.226 1.123 1.123 0 0 1 2.164.43ZM226.313 116.226a1.124 1.124 0 1 1-2.249.001 1.124 1.124 0 0 1 2.249-.001ZM235.505 116.226a1.121 1.121 0 0 1-.695 1.04 1.129 1.129 0 0 1-1.226-.244 1.121 1.121 0 0 1 .171-1.731 1.124 1.124 0 0 1 1.75.935ZM244.694 116.226a1.128 1.128 0 0 1-.694 1.04 1.13 1.13 0 0 1-1.226-.244 1.132 1.132 0 0 1-.244-1.226 1.126 1.126 0 0 1 2.164.43ZM253.877 116.226a1.121 1.121 0 0 1-.695 1.04 1.129 1.129 0 0 1-1.226-.244 1.123 1.123 0 0 1-.243-1.226 1.123 1.123 0 0 1 2.164.43ZM263.075 116.226a1.12 1.12 0 0 1-.694 1.04 1.13 1.13 0 0 1-1.226-.244 1.132 1.132 0 0 1-.244-1.226 1.126 1.126 0 0 1 2.164.43ZM272.265 116.226a1.121 1.121 0 0 1-.695 1.04 1.129 1.129 0 0 1-1.226-.244 1.123 1.123 0 0 1-.243-1.226 1.123 1.123 0 0 1 2.164.43ZM281.454 116.226a1.128 1.128 0 0 1-.694 1.04 1.13 1.13 0 0 1-1.226-.244 1.132 1.132 0 0 1-.244-1.226 1.126 1.126 0 0 1 2.164.43ZM290.646 116.226a1.121 1.121 0 0 1-.695 1.04 1.13 1.13 0 0 1-1.226-.244 1.132 1.132 0 0 1-.244-1.226 1.132 1.132 0 0 1 1.04-.694 1.124 1.124 0 0 1 1.125 1.124ZM299.835 116.226a1.121 1.121 0 0 1-.695 1.04 1.129 1.129 0 0 1-1.226-.244 1.123 1.123 0 0 1-.243-1.226 1.123 1.123 0 0 1 2.164.43ZM217.124 124.098a1.128 1.128 0 0 1-.694 1.04 1.13 1.13 0 0 1-1.226-.244 1.129 1.129 0 0 1 .17-1.731 1.123 1.123 0 0 1 1.75.935ZM226.313 124.098a1.121 1.121 0 0 1-.695 1.04 1.122 1.122 0 0 1-1.226-.245 1.126 1.126 0 1 1 1.921-.795ZM235.505 124.098a1.121 1.121 0 0 1-.695 1.04 1.129 1.129 0 0 1-1.226-.244 1.12 1.12 0 0 1-.243-1.226 1.123 1.123 0 0 1 2.164.43ZM244.694 124.098a1.128 1.128 0 0 1-.694 1.04 1.13 1.13 0 0 1-1.226-.244 1.129 1.129 0 0 1 .171-1.731 1.118 1.118 0 0 1 1.42.14c.211.211.329.497.329.795ZM253.877 124.098a1.121 1.121 0 0 1-.695 1.04 1.129 1.129 0 0 1-1.226-.244 1.127 1.127 0 0 1 .796-1.921 1.125 1.125 0 0 1 1.125 1.125ZM263.075 124.098a1.12 1.12 0 0 1-.694 1.04 1.13 1.13 0 0 1-1.226-.244 1.129 1.129 0 0 1 .171-1.731 1.121 1.121 0 0 1 1.42.14c.211.211.329.497.329.795ZM272.265 124.098a1.121 1.121 0 0 1-.695 1.04 1.129 1.129 0 0 1-1.226-.244 1.127 1.127 0 0 1 .796-1.921 1.125 1.125 0 0 1 1.125 1.125ZM281.454 124.098a1.128 1.128 0 0 1-.694 1.04 1.13 1.13 0 0 1-1.226-.244 1.129 1.129 0 0 1 .171-1.731 1.12 1.12 0 0 1 1.42.14c.211.211.329.497.329.795ZM290.646 124.098a1.121 1.121 0 0 1-.695 1.04 1.13 1.13 0 0 1-1.226-.244 1.129 1.129 0 0 1 .171-1.731 1.121 1.121 0 0 1 1.42.14c.211.211.33.497.33.795ZM299.835 124.098a1.121 1.121 0 0 1-.695 1.04 1.129 1.129 0 0 1-1.226-.244 1.127 1.127 0 0 1 .796-1.921 1.125 1.125 0 0 1 1.125 1.125ZM217.124 131.97a1.128 1.128 0 0 1-.694 1.04 1.13 1.13 0 0 1-1.226-.244 1.129 1.129 0 0 1 .17-1.731 1.123 1.123 0 0 1 1.75.935ZM226.313 131.97a1.121 1.121 0 0 1-.695 1.04 1.122 1.122 0 0 1-1.226-.245 1.126 1.126 0 1 1 1.921-.795ZM235.505 131.97a1.121 1.121 0 0 1-.695 1.04 1.129 1.129 0 0 1-1.226-.244 1.12 1.12 0 0 1-.243-1.226 1.123 1.123 0 0 1 2.164.43ZM244.694 131.97a1.128 1.128 0 0 1-.694 1.04 1.13 1.13 0 0 1-1.226-.244 1.129 1.129 0 0 1 .171-1.731 1.118 1.118 0 0 1 1.42.14c.211.211.329.497.329.795ZM253.877 131.97a1.121 1.121 0 0 1-.695 1.04 1.129 1.129 0 0 1-1.226-.244 1.127 1.127 0 0 1 .796-1.921 1.125 1.125 0 0 1 1.125 1.125ZM263.075 131.97a1.12 1.12 0 0 1-.694 1.04 1.13 1.13 0 0 1-1.226-.244 1.129 1.129 0 0 1 .171-1.731 1.121 1.121 0 0 1 1.42.14c.211.211.329.497.329.795ZM272.265 131.97a1.121 1.121 0 0 1-.695 1.04 1.129 1.129 0 0 1-1.226-.244 1.127 1.127 0 0 1 .796-1.921 1.125 1.125 0 0 1 1.125 1.125ZM281.454 131.97a1.128 1.128 0 0 1-.694 1.04 1.13 1.13 0 0 1-1.226-.244 1.129 1.129 0 0 1 .171-1.731 1.12 1.12 0 0 1 1.42.14c.211.211.329.497.329.795ZM290.646 131.97a1.121 1.121 0 0 1-.695 1.04 1.13 1.13 0 0 1-1.226-.244 1.129 1.129 0 0 1 .171-1.731 1.121 1.121 0 0 1 1.42.14c.211.211.33.497.33.795ZM299.835 131.97a1.121 1.121 0 0 1-.695 1.04 1.129 1.129 0 0 1-1.226-.244 1.127 1.127 0 0 1 .796-1.921 1.125 1.125 0 0 1 1.125 1.125ZM217.124 140.007a1.128 1.128 0 0 1-.694 1.039 1.122 1.122 0 0 1-1.226-.243 1.129 1.129 0 0 1 .17-1.731 1.123 1.123 0 0 1 1.75.935ZM226.313 140.007a1.121 1.121 0 0 1-.695 1.04 1.122 1.122 0 0 1-1.226-.245 1.13 1.13 0 0 1-.242-1.227 1.123 1.123 0 0 1 2.163.432ZM235.505 140.007a1.121 1.121 0 0 1-.695 1.039 1.12 1.12 0 0 1-1.226-.243 1.12 1.12 0 0 1-.243-1.226 1.118 1.118 0 0 1 1.039-.695 1.115 1.115 0 0 1 .795.33 1.111 1.111 0 0 1 .33.795ZM244.694 140.007a1.128 1.128 0 0 1-.694 1.039 1.122 1.122 0 0 1-1.226-.243 1.129 1.129 0 0 1 .171-1.731 1.118 1.118 0 0 1 1.42.14 1.13 1.13 0 0 1 .329.795ZM253.877 140.007a1.121 1.121 0 0 1-.695 1.039 1.12 1.12 0 0 1-1.226-.243 1.127 1.127 0 0 1 .796-1.921 1.125 1.125 0 0 1 1.125 1.125ZM263.075 140.007a1.12 1.12 0 0 1-.694 1.039 1.121 1.121 0 0 1-1.226-.243 1.129 1.129 0 0 1 .171-1.731 1.121 1.121 0 0 1 1.664.505c.056.136.085.282.085.43ZM272.265 140.007a1.121 1.121 0 0 1-.695 1.039 1.12 1.12 0 0 1-1.226-.243 1.127 1.127 0 0 1 1.226-1.835c.137.056.261.139.365.244a1.111 1.111 0 0 1 .33.795ZM281.454 140.007a1.128 1.128 0 0 1-.694 1.039 1.122 1.122 0 0 1-1.226-.243 1.129 1.129 0 0 1 .171-1.731 1.12 1.12 0 0 1 1.42.14 1.13 1.13 0 0 1 .329.795ZM290.646 140.007a1.121 1.121 0 0 1-.695 1.039 1.121 1.121 0 0 1-1.226-.243 1.129 1.129 0 0 1 .171-1.731 1.121 1.121 0 0 1 1.664.505c.056.136.086.282.086.43ZM299.835 140.007a1.121 1.121 0 0 1-.695 1.039 1.12 1.12 0 0 1-1.226-.243 1.127 1.127 0 0 1 1.226-1.835c.137.056.261.139.365.244a1.111 1.111 0 0 1 .33.795ZM217.124 147.879a1.129 1.129 0 0 1-1.344 1.103 1.128 1.128 0 0 1-.82-1.534 1.12 1.12 0 0 1 1.039-.694 1.126 1.126 0 0 1 1.125 1.125ZM226.313 147.879a1.123 1.123 0 0 1-1.345 1.103 1.13 1.13 0 0 1-.818-1.535 1.126 1.126 0 0 1 2.163.432ZM235.505 147.879a1.123 1.123 0 0 1-1.345 1.103 1.12 1.12 0 0 1-.884-.884 1.122 1.122 0 0 1 .479-1.154 1.121 1.121 0 0 1 1.42.139c.211.211.33.498.33.796ZM244.694 147.879a1.129 1.129 0 0 1-1.344 1.103 1.128 1.128 0 0 1-.82-1.534 1.123 1.123 0 0 1 1.039-.694 1.126 1.126 0 0 1 1.125 1.125ZM253.877 147.879a1.123 1.123 0 0 1-1.345 1.103 1.12 1.12 0 0 1-.883-.884 1.12 1.12 0 0 1 1.103-1.344 1.128 1.128 0 0 1 1.125 1.125ZM263.075 147.879a1.123 1.123 0 0 1-1.92.795 1.128 1.128 0 0 1-.244-1.226 1.123 1.123 0 0 1 1.04-.694 1.126 1.126 0 0 1 1.124 1.125ZM272.265 147.879a1.123 1.123 0 0 1-1.345 1.103 1.12 1.12 0 0 1-.883-.884 1.12 1.12 0 0 1 1.103-1.344 1.128 1.128 0 0 1 1.125 1.125ZM281.454 147.879a1.123 1.123 0 0 1-1.92.795 1.128 1.128 0 0 1-.244-1.226 1.123 1.123 0 0 1 1.039-.694 1.126 1.126 0 0 1 1.125 1.125ZM290.646 147.879a1.123 1.123 0 0 1-1.345 1.103 1.12 1.12 0 0 1-.884-.884 1.13 1.13 0 0 1 .064-.65 1.13 1.13 0 0 1 1.04-.694 1.128 1.128 0 0 1 1.125 1.125ZM299.835 147.879a1.123 1.123 0 0 1-1.345 1.103 1.12 1.12 0 0 1-.883-.884 1.12 1.12 0 0 1 1.103-1.344 1.128 1.128 0 0 1 1.125 1.125ZM217.124 155.751a1.129 1.129 0 0 1-1.344 1.103 1.128 1.128 0 0 1-.82-1.534 1.12 1.12 0 0 1 1.039-.694 1.126 1.126 0 0 1 1.125 1.125ZM226.313 155.751a1.123 1.123 0 0 1-1.345 1.103 1.13 1.13 0 0 1-.818-1.535 1.126 1.126 0 0 1 2.163.432ZM235.505 155.751a1.123 1.123 0 0 1-1.345 1.103 1.12 1.12 0 0 1-.884-.884 1.122 1.122 0 0 1 .479-1.154 1.121 1.121 0 0 1 1.42.139c.211.211.33.498.33.796ZM244.694 155.751a1.129 1.129 0 0 1-1.344 1.103 1.128 1.128 0 0 1-.82-1.534 1.123 1.123 0 0 1 1.039-.694 1.126 1.126 0 0 1 1.125 1.125ZM253.877 155.751a1.123 1.123 0 0 1-1.345 1.103 1.12 1.12 0 0 1-.883-.884 1.12 1.12 0 0 1 1.103-1.344 1.128 1.128 0 0 1 1.125 1.125ZM263.075 155.751a1.123 1.123 0 0 1-1.92.795 1.128 1.128 0 0 1-.244-1.226 1.123 1.123 0 0 1 1.04-.694 1.126 1.126 0 0 1 1.124 1.125ZM272.265 155.751a1.123 1.123 0 0 1-1.345 1.103 1.12 1.12 0 0 1-.883-.884 1.12 1.12 0 0 1 1.103-1.344 1.128 1.128 0 0 1 1.125 1.125ZM281.454 155.751a1.123 1.123 0 0 1-1.92.795 1.128 1.128 0 0 1-.244-1.226 1.123 1.123 0 0 1 1.039-.694 1.126 1.126 0 0 1 1.125 1.125ZM290.646 155.751a1.123 1.123 0 0 1-1.345 1.103 1.12 1.12 0 0 1-.884-.884 1.13 1.13 0 0 1 .064-.65 1.13 1.13 0 0 1 1.04-.694 1.128 1.128 0 0 1 1.125 1.125ZM299.835 155.751a1.123 1.123 0 0 1-1.345 1.103 1.12 1.12 0 0 1-.883-.884 1.12 1.12 0 0 1 1.103-1.344 1.128 1.128 0 0 1 1.125 1.125ZM217.124 163.62a1.128 1.128 0 0 1-.694 1.04 1.13 1.13 0 0 1-1.226-.244 1.132 1.132 0 0 1-.244-1.226 1.123 1.123 0 0 1 2.164.43ZM226.313 163.62a1.124 1.124 0 1 1-2.249.001 1.124 1.124 0 0 1 2.249-.001ZM235.505 163.62a1.121 1.121 0 0 1-.695 1.04 1.129 1.129 0 0 1-1.226-.244 1.122 1.122 0 0 1 .171-1.731 1.128 1.128 0 0 1 1.42.14c.211.211.33.497.33.795ZM244.694 163.62a1.128 1.128 0 0 1-.694 1.04 1.13 1.13 0 0 1-1.226-.244 1.132 1.132 0 0 1-.244-1.226 1.126 1.126 0 0 1 2.164.43ZM253.877 163.62a1.121 1.121 0 0 1-.695 1.04 1.129 1.129 0 0 1-1.226-.244 1.123 1.123 0 0 1-.243-1.226 1.123 1.123 0 0 1 2.164.43ZM263.075 163.62a1.12 1.12 0 0 1-.694 1.04 1.13 1.13 0 0 1-1.226-.244 1.132 1.132 0 0 1-.244-1.226 1.126 1.126 0 0 1 2.164.43ZM272.265 163.62a1.121 1.121 0 0 1-.695 1.04 1.129 1.129 0 0 1-1.226-.244 1.123 1.123 0 0 1-.243-1.226 1.123 1.123 0 0 1 2.164.43ZM281.454 163.62a1.128 1.128 0 0 1-.694 1.04 1.13 1.13 0 0 1-1.226-.244 1.132 1.132 0 0 1-.244-1.226 1.126 1.126 0 0 1 2.164.43ZM290.646 163.62a1.121 1.121 0 0 1-.695 1.04 1.13 1.13 0 0 1-1.226-.244 1.132 1.132 0 0 1-.244-1.226 1.132 1.132 0 0 1 1.04-.694 1.124 1.124 0 0 1 1.125 1.124ZM299.835 163.62a1.121 1.121 0 0 1-.695 1.04 1.129 1.129 0 0 1-1.226-.244 1.123 1.123 0 0 1-.243-1.226 1.123 1.123 0 0 1 2.164.43Z"/></g><path d="m214.519 115.02 9.022-.36" stroke="#000" stroke-width=".232" stroke-miterlimit="10"/><path d="M295.498 154.997s1.081-9.259.772-13.814" stroke="#fff" stroke-width=".232" stroke-miterlimit="10"/><path d="M273.837 102.723c5.196 12.796 18.811 4.566 18.157 15.196-.928 15.171-27.571 9.34-25.838-5.861 1.732-15.201 7.681-9.335 7.681-9.335ZM263.108 102.231a8.323 8.323 0 0 1-2.723-.019c1.501-2.498 4.094-4.098 6.959-3.959a7.176 7.176 0 0 1 3.105.882c-2.229 1.514-4.662 2.699-7.352 3.096" fill="#000"/><path d="M274.765 107.969c-3.428-.594-6.917-2.486-9.097-5.207a12.128 12.128 0 0 1-1.937-3.71 7.208 7.208 0 0 1 3.623-.79c4.356.212 7.698 4.321 7.462 9.181 0 .181-.033.357-.051.535" fill="#000"/><path d="M265.864 110.277c1.665 1.493 3.328 1.197 4.297 0 .896-1.111.754-3.143-.967-3.556a4.476 4.476 0 0 0-2.124.063 6.267 6.267 0 0 0-1.018.928c-.62.714-1.123 1.721-.188 2.562" fill="#EFD1D8"/><path d="M267.042 108.79a2.1 2.1 0 0 1 2.533-.635c.232.111.104.501-.137.389a1.696 1.696 0 0 0-2.055.478c-.162.206-.506-.023-.341-.232Z" fill="#000"/><path d="M243.728 150.636s13.515-1.656 16.977-9.453" stroke="#000" stroke-width=".232" stroke-miterlimit="10"/><path d="M252.254 120.638s4.794-3.688 9.903-3.572" stroke="#fff" stroke-width=".232" stroke-miterlimit="10"/><path d="M287.972 160.398s-3.271-10.342-1.805-17.905M281.763 160.243s.388 4.261-10.509 18.697M259.212 174.31a5.695 5.695 0 0 0 4.734-6.513 6.009 6.009 0 0 0-.263-1.013l-11.049 1.749a5.67 5.67 0 0 0 1.928 4.437 5.673 5.673 0 0 0 4.65 1.34ZM233.626 232.524l14.55 2.32M290.176 232.524l11.638-4.212" stroke="#000" stroke-width=".232" stroke-miterlimit="10"/><path d="M219.926 105.661v-4.831s.853-.893 1.538.077v4.754" fill="#EFD1D8"/><path d="M357.105 127.475h-13.283a1.744 1.744 0 0 1-1.739-1.739v-13.283a1.743 1.743 0 0 1 1.739-1.74h13.283a1.747 1.747 0 0 1 1.74 1.74v13.283a1.746 1.746 0 0 1-1.74 1.739Z" fill="#CCDDF8"/><path d="M354.98 125.49h-13.283a1.747 1.747 0 0 1-1.739-1.74v-13.285a1.743 1.743 0 0 1 1.739-1.74h13.283a1.748 1.748 0 0 1 1.74 1.74v13.283a1.748 1.748 0 0 1-1.74 1.74" fill="#EA706A"/><path d="m343.883 111.994-.643.642 9.548 9.575.643-.642-9.548-9.575Z" fill="#fff"/><path d="m353.05 112.242-10.01 9.09.611.674 10.011-9.09-.612-.674Z" fill="#fff"/></g><defs><clipPath id="a"><path fill="#fff" d="M0 0h400v300H0z"/></clipPath><clipPath id="b"><path fill="#fff" transform="translate(310.488 146.345)" d="M0 0h51.235v37.064H0z"/></clipPath><clipPath id="d"><path fill="#fff" transform="translate(35.78 126.723)" d="M0 0h53.415v56.686H0z"/></clipPath></defs></svg>