<svg viewBox="0 0 400 300" fill="none" xmlns="http://www.w3.org/2000/svg"><path fill-rule="evenodd" clip-rule="evenodd" d="M155.194 94.5c3.9 0 7.6-1.5 10.3-4.3 2.7-2.7 4.3-6.5 4.3-10.3 0-3.9-1.5-7.6-4.3-10.3-2.7-2.7-6.4-4.3-10.3-4.3 0 0-1 0-1.4.1-.9-4.8-3.2-9.2-6.8-12.7-4.5-4.6-10.8-7.2-17.3-7.2-5.5 0-10.9 1.9-15.3 5.3-4.4 3.5-7.4 8.3-8.6 13.7-2.1-.4-4.2-.4-6.2.1-2.1.5-4 1.4-5.7 2.6-1.7 1.3-3.1 2.9-4.1 4.7-1 1.8-1.7 3.9-1.9 6-.2 2.1 0 4.2.7 6.2s1.7 3.8 3.2 5.4c1.4 1.6 3.1 2.8 5.1 3.7 1.9.9 4 1.3 6.1 1.3h52.2ZM287.194 186.7l-21.9-7.3 20.3-44.5c-6.6 1.1-12.8 3.9-18.1 8.1-7 5.6-11.9 13.4-13.9 22.1-3.3-.7-6.8-.6-10.1.2s-6.4 2.2-9.2 4.2c-2.7 2-5 4.6-6.7 7.6-1.7 3-2.7 6.2-3 9.6-.3 3.4.1 6.8 1.1 10 1.1 3.2 2.8 6.2 5.1 8.7 2.3 2.5 5.1 4.5 8.2 5.9 3.1 1.4 6.5 2.1 9.9 2.1h24l14.3-26.7Zm-9.9 26.7h56c6.2 0 12.2-2.5 16.6-6.9 4.4-4.4 6.9-10.4 6.9-16.6 0-6.2-2.5-12.2-6.9-16.6-4.4-4.4-10.4-6.9-16.6-6.9 0 0-1.5 0-2.3.1-.5-2.6-1.3-5.2-2.3-7.7-2-4.8-4.9-9.1-8.6-12.8-3.7-3.7-8-6.6-12.8-8.6-4.8-2-9.9-3-15.1-3-1.3 0-2.5.1-3.7.2l-3.3 34.3 21.1 10.6-29 33.9Z" fill="#EFEFEF"/><path fill-rule="evenodd" clip-rule="evenodd" d="M151.573 100.5c-3.5 2.8-25.6 6.3-25.6 6.3s-8.2 42.8-5.4 45.3c2.8 2.5-26.3 60.7 11.5 61.6 37.8.8 38.3-46.7 41.2-48.8 2.9-2.2 28.5-12.7 28.5-12.7s9.2-8.5 9.2-13.7c0-5.2-4.2-28.7-4.2-28.7l-10-11.2-23.5-24.9s-.2 4.5-4.8 6.5c-4.7 2-8.2.8-9.9 5.5-1.8 4.8-3.6 12-7 14.8Z" fill="#000"/><path fill-rule="evenodd" clip-rule="evenodd" d="M254.673 60.6c-4.4-10.3-8.5-14.5-9.6-13.4l-.5 1.1c.1 1.2 3.6 6.8 3.6 6.8s-2.7-3.7-4.5-5.1c-1.8-1.4-3.8-2-4.7-2.3-2.6-.9-3.8.5-3.3 1.4.4.8 2 1.1 4.9 2.5 3 1.4 5.9 5.7 5.9 5.7s-3.4-2.9-6.7-4.8c-2.7-1.6-5.9-2.1-6.7-2.1-1.8 0-2.4 2.1-1.2 2.5.7.3 3.1 1.1 5.7 2.1 2.6 1.1 6 3.8 6 3.8s-2.3-.7-4.4-1.9c-1.9-1.1-4.4-1.9-5.6-1.9-1.1 0-1.5.8-1.2 1.9 0 1 2.6 2.1 5.2 3.7 1.5.9 3.2 2.2 4 3.1 1.4 1.6.8 2.7.8 2.7s-6.9-3.8-8.4-3.8-1.7.1-1.7 1c0 3.8 6.8 6.2 10.1 7.3 3.3 1.1 7.4 2.9 10.7 4.5 3.3 1.6 21.3 12.9 23.7 21.8 2.4 8.9-37.1 20.4-37.1 20.4l21.3 20.9s31.3-19.9 34.9-35.9c3.6-16-23.8-26.9-32.2-32.5-8.4-5.8-7.7-6.3-9-9.5Z" fill="#fff"/><path d="M254.673 60.6c-4.4-10.3-8.5-14.5-9.6-13.4l-.5 1.1c.1 1.2 3.6 6.8 3.6 6.8s-2.7-3.7-4.5-5.1c-1.8-1.4-3.8-2-4.7-2.3-2.6-.9-3.8.5-3.3 1.4.4.8 2 1.1 4.9 2.5 3 1.4 5.9 5.7 5.9 5.7s-3.4-2.9-6.7-4.8c-2.7-1.6-5.9-2.1-6.7-2.1-1.8 0-2.4 2.1-1.2 2.5.7.3 3.1 1.1 5.7 2.1 2.6 1.1 6 3.8 6 3.8s-2.3-.7-4.4-1.9c-1.9-1.1-4.4-1.9-5.6-1.9-1.1 0-1.5.8-1.2 1.9 0 1 2.6 2.1 5.2 3.7 1.5.9 3.2 2.2 4 3.1 1.4 1.6.8 2.7.8 2.7s-6.9-3.8-8.4-3.8-1.7.1-1.7 1c0 3.8 6.8 6.2 10.1 7.3 3.3 1.1 7.4 2.9 10.7 4.5 3.3 1.6 21.3 12.9 23.7 21.8 2.4 8.9-37.1 20.4-37.1 20.4l21.3 20.9s31.3-19.9 34.9-35.9c3.6-16-23.8-26.9-32.2-32.5-8.4-5.8-7.7-6.3-9-9.5Z" stroke="#000" stroke-width="1.5"/><path fill-rule="evenodd" clip-rule="evenodd" d="M149.374 56.7c-2.1 0-8.6 4.7-10.1 11.8-1.5 7-2.5 9.2-4.3 15.2-2 6-34.6 43.6-30.9 60.8 1.2 5.7 2.1 13.9 13.2 21.2 4.6 3.1 16.9 10.9 38 14.5 12.4 2.1 46.6 2.1 46.6 2.1s-1.4-22.2-11.4-29.8c-10-7.6-14.1-4.1-14.1-4.1s-48.8 11.3-46.7-15.1c2.1-26.5 13.8-42.8 16.8-47.2 3-4.4 13.3-8.2 14.4-8.6 1.1-.4 1.1-2 0-2.7-1.1-.8-7.1 2.4-7.5 0-.2-1.4 6.6-7.8 7.5-9 .9-1.2 0-1.9-.8-1.5-.8.4-10.7 7.9-10.7 6.9 0-1.4 9.7-10.1 10.1-11.2.5-1-1.1-1.2-1.1-1.2-.6.3-11.4 9.8-11 8.3.8-2.4 8.4-8.5 8.9-9.5.6-1.1-.5-1.8-1.3-1.3s-10.4 9.6-9.8 8c1.1-3 3.7-5.3 4.7-5.9 1.1-.8 1.6-1.7-.5-1.7Z" fill="#fff"/><path d="M149.374 56.7c-2.1 0-8.6 4.7-10.1 11.8-1.5 7-2.5 9.2-4.3 15.2-2 6-34.6 43.6-30.9 60.8 1.2 5.7 2.1 13.9 13.2 21.2 4.6 3.1 16.9 10.9 38 14.5 12.4 2.1 46.6 2.1 46.6 2.1s-1.4-22.2-11.4-29.8c-10-7.6-14.1-4.1-14.1-4.1s-48.8 11.3-46.7-15.1c2.1-26.5 13.8-42.8 16.8-47.2 3-4.4 13.3-8.2 14.4-8.6 1.1-.4 1.1-2 0-2.7-1.1-.8-7.1 2.4-7.5 0-.2-1.4 6.6-7.8 7.5-9 .9-1.2 0-1.9-.8-1.5-.8.4-10.7 7.9-10.7 6.9 0-1.4 9.7-10.1 10.1-11.2.5-1-1.1-1.2-1.1-1.2-.6.3-11.4 9.8-11 8.3.8-2.4 8.4-8.5 8.9-9.5.6-1.1-.5-1.8-1.3-1.3s-10.4 9.6-9.8 8c1.1-3 3.7-5.3 4.7-5.9 1.1-.8 1.6-1.7-.5-1.7Z" stroke="#000" stroke-width="1.5"/><path fill-rule="evenodd" clip-rule="evenodd" d="M176.374 148.4s25.5 15.2 25.5 37.8c-.1 22.5-5.1 68.3-5.1 68.3l55.8-1.7s7.9-32.3 11.7-44.6c3.9-12.3 13.5-29.4 9.8-50.9-3.7-21.4-27.3-42.8-35.1-43.2-7.8-.3-36.4 16.4-36.4 16.4l-26.2 17.9Z" fill="#fff"/><path d="M176.374 148.4s25.5 15.2 25.5 37.8c-.1 22.5-5.1 68.3-5.1 68.3l55.8-1.7s7.9-32.3 11.7-44.6c3.9-12.3 13.5-29.4 9.8-50.9-3.7-21.4-27.3-42.8-35.1-43.2-7.8-.3-36.4 16.4-36.4 16.4l-26.2 17.9Z" stroke="#000" stroke-width="1.5"/><path fill-rule="evenodd" clip-rule="evenodd" d="M204.974 131.8c2.2 2.5 8.9 3.6 17.2 1.1 8.3-2.5 11.4-8.9 9.6-12.7-1.8-3.8-23.8-24.9-23.8-24.9l-9 2s3.8 32 6 34.5Z" fill="#fff"/><path d="M204.974 131.8c2.2 2.5 8.9 3.6 17.2 1.1 8.3-2.5 11.4-8.9 9.6-12.7-1.8-3.8-23.8-24.9-23.8-24.9l-9 2s3.8 32 6 34.5Z" stroke="#000" stroke-width="1.5"/><path fill-rule="evenodd" clip-rule="evenodd" d="M201.873 102.4c3.5.9 4.4 2.5 7.2 4.2 9.7 6 18.9 7.4 25.1.8 6.2-6.6 4.8-19.8 0-29.7-1.7-3.5-6.6-9.8-13.3-13.9-2.5-1.5-6.1-6.3-6.1-6.3s-19.6-4.5-23.1 4.2-2.3 28.5-2.3 28.5 1.3 3.9 3.5 5.9c2.3 2.3 5.4 5.4 9 6.3Z" fill="#fff"/><path d="M201.873 102.4c3.5.9 4.4 2.5 7.2 4.2 9.7 6 18.9 7.4 25.1.8 6.2-6.6 4.8-19.8 0-29.7-1.7-3.5-6.6-9.8-13.3-13.9-2.5-1.5-6.1-6.3-6.1-6.3s-19.6-4.5-23.1 4.2-2.3 28.5-2.3 28.5 1.3 3.9 3.5 5.9c2.3 2.3 5.4 5.4 9 6.3Z" stroke="#000" stroke-width="1.5"/><path fill-rule="evenodd" clip-rule="evenodd" d="M205.673 45.5c-15.6-.3-29.8 2.8-32.4 28.2-2.6 25.4 18.6 36.6 21.4 35.2 2.8-1.3 3.9-8.6 3.9-8.6s-4.2-3.6-5-5.3c-1.5-3.1-.2-6 1.1-6.7 2.9-1.5 7.1 5.6 7.1 5.6l.8-5.6s-3.3-12.4 3.1-20.4c6.5-8 15.8-2.9 15.8-2.9s1.8-6.1 1.1-10.4c-1.5-8.9-9-8.9-16.9-9.1Z" fill="#000"/><path d="m224.735 103.328.952-2.894 2.053.523 1.302-2.322 2.47.687M219.447 87.63c1.057.61 2.712 1.168 4.159 1.643.633.346 1.084.91 1.244 1.598.161.688-.077 1.412-.631 1.962l-.528.85M211.807 81.773c-1.701 2.357-3.293 4.805-6.191 4.958M220.504 77.9c2.85.453 5.709 1.006 7.843-.988" stroke="#1D1D1D" stroke-width="1.5"/><path fill-rule="evenodd" clip-rule="evenodd" d="M214.502 90.772c-.078-.897-1.036-1.516-2.032-1.428-.996.087-1.832.863-1.753 1.76.078.896 1.036 1.515 2.032 1.427.996-.087 1.832-.862 1.753-1.759ZM226.163 82.926c-.078-.897-1.036-1.516-2.032-1.428-1.096.095-1.832.862-1.753 1.759.078.897 1.036 1.515 2.032 1.428.996-.087 1.832-.863 1.753-1.76Z" fill="#040404"/><path d="M190.473 77.6s1.1 2.9-7.9 10.2c-9 7.3-12.1 3.1-15.5 7.3-3.3 4.4-.3 18.4-5.3 21.2" stroke="#fff" stroke-width="1.5"/><path d="M188.374 97.4c-.7 2.1-10 5.9-7.9 12.4 2.1 6.5 4.3 12.6 2.1 18-2.1 5.5-5.9 15.9-5.9 15.9" stroke="#fff" stroke-width="1.5" stroke-dasharray="4 4"/><path d="M197.074 90.9s-1.4.2-1.8 1.3c-.3 1.2.2 2 .2 2" stroke="#1D1D1D" stroke-width="1.5"/><path fill-rule="evenodd" clip-rule="evenodd" d="M227.694 182.4c1.7.4 3.3-.6 3.7-2.3l3.2-12.7c.4-1.7-.6-3.3-2.2-3.8-.8-.2-1.6-.1-2.3.4-.7.4-1.2 1.1-1.4 1.9l-3.2 12.7c-.2.8-.1 1.6.4 2.3.3.8 1 1.3 1.8 1.5Z" fill="#D8D8D8"/><path fill-rule="evenodd" clip-rule="evenodd" d="M138.227 226.3v27.4h125.4v-27.4h-125.4Z" fill="#EFEFEF"/><path d="M138.227 226.3v27.4h125.4v-27.4h-125.4Z" stroke="#000" stroke-width="1.5"/><path fill-rule="evenodd" clip-rule="evenodd" d="M138.227 191.6V219h125.4v-27.4h-125.4Z" fill="#EFEFEF"/><path d="M138.227 191.6V219h125.4v-27.4h-125.4Z" stroke="#000" stroke-width="1.5"/><path fill-rule="evenodd" clip-rule="evenodd" d="M241.626 191.6V236h21.9v-44.4h-21.9Z" fill="#D4D9E3"/><path fill-rule="evenodd" clip-rule="evenodd" d="M241.626 191.6V236h21.9v-44.4h-21.9Z" fill="#D8D8D8"/><path d="M241.626 191.6V236h21.9v-44.4h-21.9Z" stroke="#000" stroke-width="1.5"/><path fill-rule="evenodd" clip-rule="evenodd" d="M155.926 232.4c-3 0-5.5 2.1-5.5 4.8v19.1c0 2.6 2.5 4.8 5.5 4.8h109.7c3.1 0 5.5-2.1 5.5-4.8v-19.2c0-2.6-2.5-4.8-5.5-4.8h-109.7v.1Z" fill="#E5E9F1"/><path fill-rule="evenodd" clip-rule="evenodd" d="M155.926 232.4c-3 0-5.5 2.1-5.5 4.8v19.1c0 2.6 2.5 4.8 5.5 4.8h109.7c3.1 0 5.5-2.1 5.5-4.8v-19.2c0-2.6-2.5-4.8-5.5-4.8h-109.7v.1Z" fill="#EFEFEF"/><path d="M155.926 232.4c-3 0-5.5 2.1-5.5 4.8v19.1c0 2.6 2.5 4.8 5.5 4.8h109.7c3.1 0 5.5-2.1 5.5-4.8v-19.2c0-2.6-2.5-4.8-5.5-4.8h-109.7v.1Z" stroke="#000" stroke-width="1.5"/><path fill-rule="evenodd" clip-rule="evenodd" d="M134.326 232.4c-3 0-5.5 2.1-5.5 4.8v19.1c0 2.6 2.5 4.7 5.5 4.7h109.7c3.1 0 5.5-2.1 5.5-4.8v-19.1c0-2.6-2.5-4.8-5.5-4.8h-109.7v.1Z" fill="#fff"/><path d="M134.326 232.4c-3 0-5.5 2.1-5.5 4.8v19.1c0 2.6 2.5 4.7 5.5 4.7h109.7c3.1 0 5.5-2.1 5.5-4.8v-19.1c0-2.6-2.5-4.8-5.5-4.8h-109.7v.1Z" stroke="#000" stroke-width="1.5"/><path fill-rule="evenodd" clip-rule="evenodd" d="M176.227 239.5c0-1-.9-1.7-2-1.7s-2 .8-2 1.7c0 .9.9 1.7 2 1.7s2-.8 2-1.7ZM176.227 246.5c0-1-.9-1.7-2-1.7s-2 .8-2 1.7c0 .9.9 1.7 2 1.7s2-.8 2-1.7ZM176.227 253.6c0-1-.9-1.7-2-1.7s-2 .8-2 1.7c0 .9.9 1.7 2 1.7 1.1.1 2-.7 2-1.7ZM183.626 242.9c0-1-.9-1.7-2-1.7s-2 .8-2 1.7c0 .9.9 1.7 2 1.7s2-.7 2-1.7ZM183.626 249.7c0-1-.9-1.7-2-1.7s-2 .8-2 1.7c0 .9.9 1.7 2 1.7s2-.7 2-1.7ZM191.526 239.5c0-1-.9-1.7-2-1.7s-2 .8-2 1.7c0 .9.9 1.7 2 1.7s2-.8 2-1.7ZM191.526 246.5c0-1-.9-1.7-2-1.7s-2 .8-2 1.7c0 .9.9 1.7 2 1.7s2-.8 2-1.7ZM191.526 253.6c0-1-.9-1.7-2-1.7s-2 .8-2 1.7c0 .9.9 1.7 2 1.7 1.1.1 2-.7 2-1.7ZM199.026 242.9c0-1-.9-1.7-2-1.7s-2 .8-2 1.7c0 .9.9 1.7 2 1.7s2-.7 2-1.7ZM199.026 249.7c0-1-.9-1.7-2-1.7s-2 .8-2 1.7c0 .9.9 1.7 2 1.7s2-.7 2-1.7ZM206.926 239.5c0-1-.9-1.7-2-1.7s-2 .8-2 1.7c0 .9.9 1.7 2 1.7s2-.8 2-1.7ZM206.926 246.5c0-1-.9-1.7-2-1.7s-2 .8-2 1.7c0 .9.9 1.7 2 1.7s2-.8 2-1.7ZM206.926 253.9c0-1-.9-1.7-2-1.7s-2 .8-2 1.7c0 .9.9 1.7 2 1.7s2-.8 2-1.7ZM214.326 243.1c0-1-.9-1.7-2-1.7s-2 .8-2 1.7c0 .9.9 1.7 2 1.7s2-.8 2-1.7ZM214.326 250.3c0-1-.9-1.7-2-1.7s-2 .8-2 1.7c0 .9.9 1.7 2 1.7s2-.8 2-1.7ZM222.227 239.5c0-1-.9-1.7-2-1.7s-2 .8-2 1.7c0 .9.9 1.7 2 1.7s2-.8 2-1.7ZM222.227 246.7c0-1-.9-1.7-2-1.7s-2 .8-2 1.7c0 .9.9 1.7 2 1.7s2-.8 2-1.7ZM222.227 253.9c0-1-.9-1.7-2-1.7s-2 .8-2 1.7c0 .9.9 1.7 2 1.7s2-.8 2-1.7ZM229.626 243.1c0-1-.9-1.7-2-1.7s-2 .8-2 1.7c0 .9.9 1.7 2 1.7s2-.8 2-1.7ZM229.626 250.3c0-1-.9-1.7-2-1.7s-2 .8-2 1.7c0 .9.9 1.7 2 1.7s2-.8 2-1.7ZM237.526 239.5c0-1-.9-1.7-2-1.7s-2 .8-2 1.7c0 .9.9 1.7 2 1.7s2-.8 2-1.7ZM237.526 246.7c0-1-.9-1.7-2-1.7s-2 .8-2 1.7c0 .9.9 1.7 2 1.7s2-.8 2-1.7ZM237.526 253.9c0-1-.9-1.7-2-1.7s-2 .8-2 1.7c0 .9.9 1.7 2 1.7s2-.8 2-1.7Z" fill="#CDCBCB"/><path fill-rule="evenodd" clip-rule="evenodd" d="M155.926 197.7c-3 0-5.5 2.1-5.5 4.8v19.1c0 2.6 2.5 4.8 5.5 4.8h109.7c3.1 0 5.5-2.1 5.5-4.8v-19.2c0-2.6-2.5-4.8-5.5-4.8h-109.7v.1Z" fill="#E5E9F1"/><path fill-rule="evenodd" clip-rule="evenodd" d="M155.926 197.7c-3 0-5.5 2.1-5.5 4.8v19.1c0 2.6 2.5 4.8 5.5 4.8h109.7c3.1 0 5.5-2.1 5.5-4.8v-19.2c0-2.6-2.5-4.8-5.5-4.8h-109.7v.1Z" fill="#EFEFEF"/><path d="M155.926 197.7c-3 0-5.5 2.1-5.5 4.8v19.1c0 2.6 2.5 4.8 5.5 4.8h109.7c3.1 0 5.5-2.1 5.5-4.8v-19.2c0-2.6-2.5-4.8-5.5-4.8h-109.7v.1Z" stroke="#000" stroke-width="1.5"/><path fill-rule="evenodd" clip-rule="evenodd" d="M134.326 197.7c-3 0-5.5 2.1-5.5 4.8v19.1c0 2.6 2.5 4.8 5.5 4.8h109.7c3.1 0 5.5-2.1 5.5-4.8v-19.2c0-2.6-2.5-4.8-5.5-4.8h-109.7v.1Z" fill="#fff"/><path d="M134.326 197.7c-3 0-5.5 2.1-5.5 4.8v19.1c0 2.6 2.5 4.8 5.5 4.8h109.7c3.1 0 5.5-2.1 5.5-4.8v-19.2c0-2.6-2.5-4.8-5.5-4.8h-109.7v.1Z" stroke="#000" stroke-width="1.5"/><path fill-rule="evenodd" clip-rule="evenodd" d="M176.326 204.8c0-1-.9-1.7-2-1.7s-2 .8-2 1.7c0 .9.9 1.7 2 1.7s2-.7 2-1.7ZM176.326 212c0-1-.9-1.7-2-1.7s-2 .8-2 1.7c0 .9.9 1.7 2 1.7s2-.7 2-1.7ZM176.326 219.2c0-1-.9-1.7-2-1.7s-2 .8-2 1.7c0 .9.9 1.7 2 1.7s2-.8 2-1.7ZM183.626 208.4c0-1-.9-1.7-2-1.7s-2 .8-2 1.7c0 .9.9 1.7 2 1.7 1.2 0 2-.7 2-1.7ZM183.626 215.6c0-1-.9-1.7-2-1.7s-2 .8-2 1.7c0 .9.9 1.7 2 1.7 1.2 0 2-.8 2-1.7ZM191.626 204.8c0-1-.9-1.7-2-1.7s-2 .8-2 1.7c0 .9.9 1.7 2 1.7s2-.7 2-1.7ZM191.626 212c0-1-.9-1.7-2-1.7s-2 .8-2 1.7c0 .9.9 1.7 2 1.7s2-.7 2-1.7ZM191.626 219.2c0-1-.9-1.7-2-1.7s-2 .8-2 1.7c0 .9.9 1.7 2 1.7s2-.8 2-1.7ZM199.026 208.4c0-1-.9-1.7-2-1.7s-2 .8-2 1.7c0 .9.9 1.7 2 1.7s2-.7 2-1.7ZM199.026 215.6c0-1-.9-1.7-2-1.7s-2 .8-2 1.7c0 .9.9 1.7 2 1.7s2-.8 2-1.7ZM206.926 204.8c0-1-.9-1.7-2-1.7s-2 .8-2 1.7c0 .9.9 1.7 2 1.7s2-.7 2-1.7ZM206.926 212c0-1-.9-1.7-2-1.7s-2 .8-2 1.7c0 .9.9 1.7 2 1.7s2-.7 2-1.7ZM206.926 219.2c0-1-.9-1.7-2-1.7s-2 .8-2 1.7c0 .9.9 1.7 2 1.7s2-.8 2-1.7ZM214.326 208.4c0-1-.9-1.7-2-1.7s-2 .8-2 1.7c0 .9.9 1.7 2 1.7s2-.7 2-1.7ZM214.326 215.6c0-1-.9-1.7-2-1.7s-2 .8-2 1.7c0 .9.9 1.7 2 1.7s2-.8 2-1.7ZM222.227 204.8c0-1-.9-1.7-2-1.7s-2 .8-2 1.7c0 .9.9 1.7 2 1.7s2-.7 2-1.7ZM222.227 212c0-1-.9-1.7-2-1.7s-2 .8-2 1.7c0 .9.9 1.7 2 1.7s2-.7 2-1.7ZM222.227 219.2c0-1-.9-1.7-2-1.7s-2 .8-2 1.7c0 .9.9 1.7 2 1.7s2-.8 2-1.7ZM229.626 208.4c0-1-.9-1.7-2-1.7s-2 .8-2 1.7c0 .9.9 1.7 2 1.7s2-.7 2-1.7ZM229.626 215.6c0-1-.9-1.7-2-1.7s-2 .8-2 1.7c0 .9.9 1.7 2 1.7s2-.8 2-1.7ZM237.526 204.8c0-1-.9-1.7-2-1.7s-2 .8-2 1.7c0 .9.9 1.7 2 1.7s2-.7 2-1.7ZM237.526 212c0-1-.9-1.7-2-1.7s-2 .8-2 1.7c0 .9.9 1.7 2 1.7s2-.7 2-1.7ZM237.526 219.2c0-1-.9-1.7-2-1.7s-2 .8-2 1.7c0 .9.9 1.7 2 1.7s2-.8 2-1.7Z" fill="#CDCBCB"/><path fill-rule="evenodd" clip-rule="evenodd" d="M155.926 163c-3 0-5.5 2.1-5.5 4.8v19.1c0 2.6 2.5 4.8 5.5 4.8h109.7c3.1 0 5.5-2.1 5.5-4.8v-19.1c0-2.6-2.5-4.8-5.5-4.8h-109.7Z" fill="#E5E9F1"/><path fill-rule="evenodd" clip-rule="evenodd" d="M155.926 163c-3 0-5.5 2.1-5.5 4.8v19.1c0 2.6 2.5 4.8 5.5 4.8h109.7c3.1 0 5.5-2.1 5.5-4.8v-19.1c0-2.6-2.5-4.8-5.5-4.8h-109.7Z" fill="#EFEFEF"/><path d="M155.926 163c-3 0-5.5 2.1-5.5 4.8v19.1c0 2.6 2.5 4.8 5.5 4.8h109.7c3.1 0 5.5-2.1 5.5-4.8v-19.1c0-2.6-2.5-4.8-5.5-4.8h-109.7Z" stroke="#000" stroke-width="1.5"/><path fill-rule="evenodd" clip-rule="evenodd" d="M134.326 163c-3 0-5.5 2.1-5.5 4.8v19.1c0 2.6 2.5 4.8 5.5 4.8h109.7c3.1 0 5.5-2.1 5.5-4.8v-19.1c0-2.6-2.5-4.8-5.5-4.8h-109.7Z" fill="#fff"/><path d="M134.326 163c-3 0-5.5 2.1-5.5 4.8v19.1c0 2.6 2.5 4.8 5.5 4.8h109.7c3.1 0 5.5-2.1 5.5-4.8v-19.1c0-2.6-2.5-4.8-5.5-4.8h-109.7Z" stroke="#000" stroke-width="1.5"/><path fill-rule="evenodd" clip-rule="evenodd" d="M176.326 170.1c0-.9-.9-1.7-2-1.7s-2 .8-2 1.7c0 1 .9 1.7 2 1.7 1.1.1 2-.7 2-1.7ZM176.326 177.3c0-.9-.9-1.7-2-1.7s-2 .8-2 1.7c0 .9.9 1.7 2 1.7s2-.7 2-1.7ZM176.326 184.5c0-.9-.9-1.7-2-1.7s-2 .8-2 1.7c0 1 .9 1.7 2 1.7s2-.7 2-1.7ZM183.626 173.7c0-1-.9-1.7-2-1.7s-2 .8-2 1.7c0 .9.9 1.7 2 1.7 1.2 0 2-.7 2-1.7ZM183.626 180.9c0-.9-.9-1.7-2-1.7s-2 .8-2 1.7c0 1 .9 1.7 2 1.7 1.2 0 2-.7 2-1.7ZM191.626 170.1c0-.9-.9-1.7-2-1.7s-2 .8-2 1.7c0 1 .9 1.7 2 1.7 1.1.1 2-.7 2-1.7ZM191.626 177.3c0-.9-.9-1.7-2-1.7s-2 .8-2 1.7c0 .9.9 1.7 2 1.7s2-.7 2-1.7ZM191.626 184.5c0-.9-.9-1.7-2-1.7s-2 .8-2 1.7c0 1 .9 1.7 2 1.7s2-.7 2-1.7ZM199.026 173.7c0-1-.9-1.7-2-1.7s-2 .8-2 1.7c0 .9.9 1.7 2 1.7s2-.7 2-1.7ZM199.026 180.9c0-.9-.9-1.7-2-1.7s-2 .8-2 1.7c0 1 .9 1.7 2 1.7s2-.7 2-1.7ZM206.926 170.1c0-.9-.9-1.7-2-1.7s-2 .8-2 1.7c0 1 .9 1.7 2 1.7 1.1.1 2-.7 2-1.7ZM206.926 177.3c0-.9-.9-1.7-2-1.7s-2 .8-2 1.7c0 .9.9 1.7 2 1.7s2-.7 2-1.7ZM206.926 184.5c0-.9-.9-1.7-2-1.7s-2 .8-2 1.7c0 1 .9 1.7 2 1.7s2-.7 2-1.7ZM214.326 173.7c0-1-.9-1.7-2-1.7s-2 .8-2 1.7c0 .9.9 1.7 2 1.7s2-.7 2-1.7ZM214.326 180.9c0-.9-.9-1.7-2-1.7s-2 .8-2 1.7c0 1 .9 1.7 2 1.7s2-.7 2-1.7ZM222.227 170.1c0-.9-.9-1.7-2-1.7s-2 .8-2 1.7c0 1 .9 1.7 2 1.7 1.1.1 2-.7 2-1.7ZM222.227 177.3c0-.9-.9-1.7-2-1.7s-2 .8-2 1.7c0 .9.9 1.7 2 1.7s2-.7 2-1.7ZM222.227 184.5c0-.9-.9-1.7-2-1.7s-2 .8-2 1.7c0 1 .9 1.7 2 1.7s2-.7 2-1.7ZM229.626 173.7c0-1-.9-1.7-2-1.7s-2 .8-2 1.7c0 .9.9 1.7 2 1.7s2-.7 2-1.7ZM229.626 180.9c0-.9-.9-1.7-2-1.7s-2 .8-2 1.7c0 1 .9 1.7 2 1.7s2-.7 2-1.7ZM237.526 170.1c0-.9-.9-1.7-2-1.7s-2 .8-2 1.7c0 1 .9 1.7 2 1.7 1.1.1 2-.7 2-1.7ZM237.526 177.3c0-.9-.9-1.7-2-1.7s-2 .8-2 1.7c0 .9.9 1.7 2 1.7s2-.7 2-1.7ZM237.526 184.5c0-.9-.9-1.7-2-1.7s-2 .8-2 1.7c0 1 .9 1.7 2 1.7s2-.7 2-1.7Z" fill="#CDCBCB"/><path fill-rule="evenodd" clip-rule="evenodd" d="M142.526 171.2v12.2c0 1.5 1.5 2.8 3.2 2.8 1.7 0 3.2-1.2 3.2-2.8v-12.2c0-1.5-1.5-2.8-3.2-2.8-1.7 0-3.2 1.3-3.2 2.8ZM152.227 171.2v12.2c0 1.5 1.5 2.8 3.2 2.8 1.8 0 3.2-1.2 3.2-2.8v-12.2c0-1.5-1.5-2.8-3.2-2.8-1.8 0-3.2 1.3-3.2 2.8ZM142.526 205.9v12.2c0 1.5 1.5 2.8 3.2 2.8 1.7 0 3.2-1.2 3.2-2.8v-12.2c0-1.5-1.5-2.8-3.2-2.8-1.7 0-3.2 1.2-3.2 2.8ZM152.227 205.9v12.2c0 1.5 1.5 2.8 3.2 2.8 1.8 0 3.2-1.2 3.2-2.8v-12.2c0-1.5-1.5-2.8-3.2-2.8-1.8 0-3.2 1.2-3.2 2.8ZM142.526 240.6v12.2c0 1.5 1.5 2.8 3.2 2.8 1.7 0 3.2-1.2 3.2-2.8v-12.2c0-1.6-1.5-2.8-3.2-2.8-1.7 0-3.2 1.2-3.2 2.8ZM152.227 240.6v12.2c0 1.5 1.5 2.8 3.2 2.8 1.8 0 3.2-1.2 3.2-2.8v-12.2c0-1.6-1.5-2.8-3.2-2.8-1.8 0-3.2 1.2-3.2 2.8Z" fill="#D8D8D8"/><path fill-rule="evenodd" clip-rule="evenodd" d="M79.894 208.386h112.8l-56.4-89.6-56.4 89.6Z" fill="#5578EC"/><path d="M79.894 208.386h112.8l-56.4-89.6-56.4 89.6Z" stroke="#3351E5" stroke-width="9"/><path d="m118.615 160.327 35.356 35.355M153.971 160.327l-35.356 35.355" stroke="#fff" stroke-width="9"/><path d="M193.693 170.2c1.1.6 2.4.8 3.6.5.9-.2 1.7-.7 2.3-1.4.6-.7 1-1.6 1.1-2.5.1-.9 0-1.9-.4-2.7-.4-.8-1.1-1.5-1.9-2-.8-.5-1.7-.7-2.7-.6-.9.1-1.8.4-2.6 1-.7.6-1.3 1.4-1.6 2.2-.3.9-.3 1.8-.1 2.7.4 1.1 1.2 2.1 2.3 2.8ZM102.193 114.1l1.2 8.2M104.193 105.6l1.2 8.2" stroke="#5578EC" stroke-width="1.944"/></svg>