<svg viewBox="0 0 400 300" fill="none" xmlns="http://www.w3.org/2000/svg"><path fill-rule="evenodd" clip-rule="evenodd" d="M163.407 88.453c-.5-.2-1.6-.2-1.6-.2-.6 0-1.1.2-1.6.4 0 0-.9.6-1.3 1 0 0-.7.9-.8 1.5 0 0-.3 1.1-.2 1.6 0 0 .2 1.1 1.5 2.9.4.4 1.4.8 1.4.8l25.7 8.6c1.1.4 2.1 1.1 2.9 2 .7.9 1.2 2.1 1.3 3.3l8.1 103.5-7.3 9.2c-2.3 2.8-3.6 6.2-4.1 9.8-.4 3.6.2 7.2 1.7 10.5s4 6 7 8c3.1 2 6.6 3 10.2 3.1l75 1.3c1.1 0 2.2-.4 3-1.2 0 0 1.3-1.9 1.3-3s-.4-2.2-1.2-3c-.8-.8-3-1.3-3-1.3l-75-1.3c-2 0-4-.6-5.7-1.7-1.7-1.1-3.1-2.7-3.9-4.5-.9-1.8-1.2-3.9-1-5.9.2-2 1-3.9 2.3-5.5l8.3-10.5s1-1.9.9-3l-8.2-105.2c-.2-2.9-1.3-5.6-3-7.8-1.8-2.3-4.2-4-6.9-4.8l-25.8-8.6Z" fill="#EFEFEF"/><path d="m294.608 127.353 16.8-5.2-84.9-2.6-5 7" fill="#fff"/><path d="m294.608 127.353 16.8-5.2-84.9-2.6-5 7" stroke="#000" stroke-width="1.5"/><path fill-rule="evenodd" clip-rule="evenodd" d="M238.907 252.553c1.4-5.6-2-11.199-7.6-12.599-5.6-1.4-11.2 1.999-12.6 7.599-1.4 5.6 2 11.201 7.6 12.601 5.5 1.4 11.2-2.001 12.6-7.601Z" fill="#000"/><path fill-rule="evenodd" clip-rule="evenodd" d="M180.607 101.754c.4.4 1.4.8 1.4.8l25.7 8.6c1.1.4 2.9 2 2.9 2 .7.9 1.2 2.1 1.3 3.3l8.5 97.7-7.3 9.2c-2.2 2.8-3.6 6.2-4.1 9.8-.4 3.6.2 7.2 1.7 10.5s4 6 7 8 6.6 3 10.2 3.1l75 1.3 1.6-.3c.5-.2 1-.5 1.4-.9.4-.4.9-1.4.9-1.4.2-.5.3-1.6.3-1.6 0-.6-.3-1.6-.3-1.6-.2-.5-.9-1.4-.9-1.4-.4-.4-1.4-.9-1.4-.9-.5-.2-1.6-.4-1.6-.4l-75-1.3c-2 0-4-.6-5.7-1.7-1.7-1.1-3.1-2.7-3.9-4.5-.9-1.8-1.2-3.9-1-5.9.2-2 1-3.9 2.3-5.5l8.3-10.5c.7-.8 1-1.9.9-3l-8.6-99.4c-.2-2.9-1.3-5.6-3-7.8-1.8-2.3-4.2-3.9-6.9-4.8l-25.7-8.6c-.5-.2-1.6-.2-1.6-.2-.6 0-1.1.2-1.6.4 0 0-1 .6-1.3 1 0 0-.6.9-.8 1.5 0 0-.3 1.1-.2 1.6 0 0 .2 1.1.4 1.6.1 0 .7 1 1.1 1.3Z" fill="#DCDDDD"/><path fill-rule="evenodd" clip-rule="evenodd" d="M222.407 139.853c0-.6-.1-1.1-.3-1.6-.2-.5-.5-1-.9-1.4-.4-.4-.9-.7-1.4-.9-.5-.2-1.1-.3-1.6-.4l-24-.4-.1 8.5 24 .4c.6 0 1.1-.1 1.6-.3.5-.2 1-.5 1.4-.9.4-.4.7-.8.9-1.4.3-.5.4-1.1.4-1.6ZM236.207 185.953c-2.3 0-4.2 1.8-4.2 4.1l-.9 51.6c0 2.3 1.8 4.2 4.1 4.2l51.2.9c2.3 0 4.2-1.8 4.2-4.1l.9-51.6c0-2.3-1.8-4.2-4.1-4.2l-51.2-.9Z" fill="#EFEFEF"/><path d="M236.207 185.953c-2.3 0-4.2 1.8-4.2 4.1l-.9 51.6c0 2.3 1.8 4.2 4.1 4.2l51.2.9c2.3 0 4.2-1.8 4.2-4.1l.9-51.6c0-2.3-1.8-4.2-4.1-4.2l-51.2-.9Z" stroke="#000" stroke-width="1.5"/><path fill-rule="evenodd" clip-rule="evenodd" d="M219.307 185.653c-2.3 0-4.2 1.8-4.2 4.1l-.9 51.6c0 2.3 1.8 4.2 4.1 4.2l51.2.9c2.3 0 4.2-1.8 4.2-4.1l.9-51.6c0-2.3-1.8-4.2-4.1-4.2l-51.2-.9Z" fill="#fff"/><path d="M219.307 185.653c-2.3 0-4.2 1.8-4.2 4.1l-.9 51.6c0 2.3 1.8 4.2 4.1 4.2l51.2.9c2.3 0 4.2-1.8 4.2-4.1l.9-51.6c0-2.3-1.8-4.2-4.1-4.2l-51.2-.9Z" stroke="#000" stroke-width="1.5"/><path fill-rule="evenodd" clip-rule="evenodd" d="M237.907 207.353c.1.3.4.6.6.8.3.2.6.3.9.4.3.1.7 0 1-.1l5.4-1.7 5.3 1.9c.3.1.6.1 1 .1.3 0 .6-.2.9-.3.3-.2.5-.4.7-.7.2-.3.2-.6.2-.9l.4-20.4-16.2-.3-.4 20.4c0 .1 0 .5.2.8Z" fill="#EFEFEF"/><path d="M237.907 207.353c.1.3.4.6.6.8.3.2.6.3.9.4.3.1.7 0 1-.1l5.4-1.7 5.3 1.9c.3.1.6.1 1 .1.3 0 .6-.2.9-.3.3-.2.5-.4.7-.7.2-.3.2-.6.2-.9l.4-20.4-16.2-.3-.4 20.4c0 .1 0 .5.2.8Z" stroke="#000" stroke-width="1.5"/><path fill-rule="evenodd" clip-rule="evenodd" d="M241.807 126.153c-2.3 0-4.2 1.8-4.2 4.1l-.9 51.6c0 2.3 1.8 4.2 4.1 4.2l51.2.9c2.3 0 4.2-1.8 4.2-4.1l.9-51.6c0-2.3-1.8-4.2-4.1-4.2l-51.2-.9Z" fill="#EFEFEF"/><path d="M241.807 126.153c-2.3 0-4.2 1.8-4.2 4.1l-.9 51.6c0 2.3 1.8 4.2 4.1 4.2l51.2.9c2.3 0 4.2-1.8 4.2-4.1l.9-51.6c0-2.3-1.8-4.2-4.1-4.2l-51.2-.9Z" stroke="#000" stroke-width="1.5"/><path fill-rule="evenodd" clip-rule="evenodd" d="M224.908 125.854c-2.3 0-4.2 1.8-4.2 4.1l-.9 51.6c0 2.3 1.8 4.2 4.1 4.2l51.2.9c2.3 0 4.2-1.8 4.2-4.1l.9-51.6c0-2.3-1.8-4.2-4.1-4.2l-51.2-.9Z" fill="#fff"/><path d="M224.908 125.854c-2.3 0-4.2 1.8-4.2 4.1l-.9 51.6c0 2.3 1.8 4.2 4.1 4.2l51.2.9c2.3 0 4.2-1.8 4.2-4.1l.9-51.6c0-2.3-1.8-4.2-4.1-4.2l-51.2-.9Z" stroke="#000" stroke-width="1.5"/><path fill-rule="evenodd" clip-rule="evenodd" d="M243.308 146.554c0 .3.1.7.2 1 .1.3.4.6.6.8.3.2.6.3.9.4.3.1.7 0 1-.1l5.4-1.7 5.3 1.9c.3.1.6.1 1 .1.3 0 .6-.2.9-.3.3-.2.5-.4.7-.7.2-.3.2-.6.2-.9l.4-20.4-16.2-.3-.4 20.2Z" fill="#EFEFEF"/><path d="M243.308 146.554c0 .3.1.7.2 1 .1.3.4.6.6.8.3.2.6.3.9.4.3.1.7 0 1-.1l5.4-1.7 5.3 1.9c.3.1.6.1 1 .1.3 0 .6-.2.9-.3.3-.2.5-.4.7-.7.2-.3.2-.6.2-.9l.4-20.4-16.2-.3-.4 20.2Z" stroke="#000" stroke-width="1.5"/><path fill-rule="evenodd" clip-rule="evenodd" d="M214.108 251.953c1.4-5.6-2-11.2-7.6-12.6-5.6-1.4-11.2 2-12.6 7.6-1.4 5.6 2 11.2 7.6 12.6 5.5 1.4 11.2-2 12.6-7.6Z" fill="#000"/><path fill-rule="evenodd" clip-rule="evenodd" d="M208.308 250.454c.6-2.4-.9-4.8-3.2-5.4-2.4-.6-4.8.9-5.4 3.2-.6 2.4.9 4.8 3.2 5.4 2.4.7 4.8-.8 5.4-3.2ZM291.307 109.254c0 7.9 9.1 2.3 5-3.6-.6-.9-1.3-1.5-2-1.8-1.9 1.5-3 3.5-3 5.4Zm-10.9 6s8.2-13.9 13.8-11.4l-13.8 11.4Zm13.8-11.4c1.8-1.5 4.4-2.5 7.5-2.5 3.8 0 7.4 2.1 7.4 2.1" fill="#fff"/><path d="M280.407 115.254s8.2-13.9 13.8-11.4m0 0c1.8-1.5 4.4-2.5 7.5-2.5 3.8 0 7.4 2.1 7.4 2.1m-17.8 5.8c0 7.9 9.1 2.3 5-3.6-.6-.9-1.3-1.5-2-1.8-1.9 1.5-3 3.5-3 5.4Z" stroke="#000" stroke-width="1.5"/><path d="m221.907 124.853-14.7-16.2 62.4-2.1 8.5 19.8" fill="#fff"/><path d="m221.907 124.853-14.7-16.2 62.4-2.1 8.5 19.8" stroke="#000" stroke-width="1.5"/><path fill-rule="evenodd" clip-rule="evenodd" d="M269.508 264.753h7v-10h-7v10ZM294.508 264.753h7v-10h-7v10Z" fill="#000"/><path d="M166.908 59.853s8.4 19.6 12.5 29.3 19.3 40.101 8.3 44.201c-11 4.1-43.4-31.3-43.4-31.3" fill="#fff"/><path d="M166.908 59.853s8.4 19.6 12.5 29.3 19.3 40.101 8.3 44.201c-11 4.1-43.4-31.3-43.4-31.3" stroke="#000" stroke-width="1.5"/><path fill-rule="evenodd" clip-rule="evenodd" d="M106.707 257.553s.2 6.5 13.9 6.5c13.7 0 16.5.4 27.2-2 1.7-.4 0-4.9 0-4.9l-12.3-4.6-3.6-14.5h-11.3l-13.9 19.5Z" fill="#EFEFEF"/><path d="M106.707 257.553s.2 6.5 13.9 6.5c13.7 0 16.5.4 27.2-2 1.7-.4 0-4.9 0-4.9l-12.3-4.6-3.6-14.5h-11.3l-13.9 19.5Z" stroke="#000" stroke-width="1.5"/><path fill-rule="evenodd" clip-rule="evenodd" d="M123.907 268.553s.2 6.5 13.9 6.5c13.7 0 20.5.6 31.7-1.2 2.1-.3 3-2.6 1.4-5.3-1.6-2.6-18.2-5.1-18.2-5.1l-3.6-14.5h-11.3l-13.9 19.6Z" fill="#EFEFEF"/><path d="M123.907 268.553s.2 6.5 13.9 6.5c13.7 0 20.5.6 31.7-1.2 2.1-.3 3-2.6 1.4-5.3-1.6-2.6-18.2-5.1-18.2-5.1l-3.6-14.5h-11.3l-13.9 19.6Z" stroke="#000" stroke-width="1.5"/><path fill-rule="evenodd" clip-rule="evenodd" d="m115.707 243.854 22.4-.7c1.5-.1 2.9-.9 3.5-2.3l31.4-67.5-49.2 29.5-12 35.7c-.4 1.2-.2 2.6.6 3.7.8 1 2 1.6 3.3 1.6Z" fill="#fff"/><path d="m115.707 243.854 22.4-.7c1.5-.1 2.9-.9 3.5-2.3l31.4-67.5-49.2 29.5-12 35.7c-.4 1.2-.2 2.6.6 3.7.8 1 2 1.6 3.3 1.6Z" stroke="#000" stroke-width="1.5"/><path d="m141.607 163.353 28.4-2.9c5.9-.6 11.7 1.9 15.2 6.6 3.6 4.7 4.5 10.9 2.3 16.4l-26.6 69.2c-.9 2.3-3.1 3.8-5.6 3.8h-24.6c-1.7 0-3.3-.9-4.2-2.3-.9-1.4-1.1-3.2-.4-4.8 6.4-13.9 21.2-44.7 33.2-61.4 0 0-40.3 34.6-60 20.3-19.7-14.4-3-50.7-3-50.7" fill="#fff"/><path d="m141.607 163.353 28.4-2.9c5.9-.6 11.7 1.9 15.2 6.6 3.6 4.7 4.5 10.9 2.3 16.4l-26.6 69.2c-.9 2.3-3.1 3.8-5.6 3.8h-24.6c-1.7 0-3.3-.9-4.2-2.3-.9-1.4-1.1-3.2-.4-4.8 6.4-13.9 21.2-44.7 33.2-61.4 0 0-40.3 34.6-60 20.3-19.7-14.4-3-50.7-3-50.7" stroke="#000" stroke-width="1.5"/><path fill-rule="evenodd" clip-rule="evenodd" d="M122.407 168.053c10-.6 20-.8 22.7-1.6 8.4-2.6 14.3-54 14.3-54s-2.8-9.2-5-11.6c-4.7-5-10.5-7-14.9-8.9-9.8-4.2-15.7-2.7-23.9 11.3-8.8 15-29.2 73.7-24.1 70.2 3.6-2.6 15.2-4.6 30.9-5.4Z" fill="#fff"/><path d="M122.407 168.053c10-.6 20-.8 22.7-1.6 8.4-2.6 14.3-54 14.3-54s-2.8-9.2-5-11.6c-4.7-5-10.5-7-14.9-8.9-9.8-4.2-15.7-2.7-23.9 11.3-8.8 15-29.2 73.7-24.1 70.2 3.6-2.6 15.2-4.6 30.9-5.4Z" stroke="#000" stroke-width="1.5"/><path fill-rule="evenodd" clip-rule="evenodd" d="m149.908 96.153 4.2-16.7-14.8-3.4-4.9 13.5c-2.4 7.8 11.6 13.5 15.5 6.6Z" fill="#fff"/><path d="m149.908 96.153 4.2-16.7-14.8-3.4-4.9 13.5c-2.4 7.8 11.6 13.5 15.5 6.6Z" stroke="#000" stroke-width="1.5"/><path fill-rule="evenodd" clip-rule="evenodd" d="M147.807 87.353c12.2 1.5 15.5-16.1 15.5-16.1l2 1.1c.3.2.7.2 1 0 .3-.2.5-.5.5-.9l-1.5-16.7s4-11.7-11.9-11.7c-15.8 0-23 6.4-23 14.1 0 7.7 1.2 18.3 2.8 21.4 1.5 3 2.4 7.2 14.6 8.8Z" fill="#fff"/><path d="M147.807 87.353c12.2 1.5 15.5-16.1 15.5-16.1l2 1.1c.3.2.7.2 1 0 .3-.2.5-.5.5-.9l-1.5-16.7s4-11.7-11.9-11.7c-15.8 0-23 6.4-23 14.1 0 7.7 1.2 18.3 2.8 21.4 1.5 3 2.4 7.2 14.6 8.8Z" stroke="#000" stroke-width="1.5"/><path fill-rule="evenodd" clip-rule="evenodd" d="M171.207 52.753c0-4.4 0-10.4-6.3-15-6.2-4.6-11.3-5.1-16.1-5.1-4.8 0-3.9 1.1-13.4 3.6s-8.1 20.9-8.1 20.9-.9 4.2-.9 7.2c0 2.9 2 7.2 5.6 8.6 3.6 1.4 5.4-4 5.4-4s-3 .6-3-4.6c0-5.2 9.3-.8 10.7-7.2 1.4-6.3 10.4-4.4 10.4-4.4s5.4 2.2 5.4 4.4 1.9 4.2 4.1 4.2c2.2 0 6.2-4.2 6.2-8.6Z" fill="#000"/><path d="M157.907 66.353s1.1.6 2.2.4c1.1-.2 1.6-1.1 1.6-1.1" fill="#fff"/><path d="M157.907 66.353s1.1.6 2.2.4c1.1-.2 1.6-1.1 1.6-1.1" stroke="#000" stroke-width="1.5"/><path d="M152.207 77.353s1.6.1 2.7.4c1.1.3 1.9 1.5 1.9 1.5" fill="#fff"/><path d="M152.207 77.353s1.6.1 2.7.4c1.1.3 1.9 1.5 1.9 1.5" stroke="#000" stroke-width="1.5"/><path fill-rule="evenodd" clip-rule="evenodd" d="M155.308 50.353c.3-1.1-1.3-2-1.9-.8l-4 5.4 2.1-6c.1-.8-1.1-1.5-1.7-.5l-3.7 6.7-.8-4.9c-.5-.5-.8-1.5-1.9-.4 0 0-2.8 5.8-.9 9.5s3.1 6.1 3.1 6.1l1.3 6.1 7.4-1.1-.7-5.5 6.2-8.1c.9-1.3-.6-2.4-1.3-1.8l-4.2 3.6-.9-.6 5.4-5.1c.5-.6-.3-1.8-1.6-1.3l-5.6 5 3.7-6.3Z" fill="#fff"/><path d="M155.308 50.353c.3-1.1-1.3-2-1.9-.8l-4 5.4 2.1-6c.1-.8-1.1-1.5-1.7-.5l-3.7 6.7-.8-4.9c-.5-.5-.8-1.5-1.9-.4 0 0-2.8 5.8-.9 9.5s3.1 6.1 3.1 6.1l1.3 6.1 7.4-1.1-.7-5.5 6.2-8.1c.9-1.3-.6-2.4-1.3-1.8l-4.2 3.6-.9-.6 5.4-5.1c.5-.6-.3-1.8-1.6-1.3l-5.6 5 3.7-6.3ZM141.508 115.353s10.8 29.5 26.5 26c7-1.5 12.5-12.7 7.3-33.4-2.6-10.3-16.8-37.9-16.8-37.9l-15.2 2.3 14.7 37.2" stroke="#000" stroke-width="1.5"/><path d="m159.51 217.2-13 28.5 13-28.5Z" fill="#fff"/><path d="m159.51 217.2-13 28.5" stroke="#000" stroke-width="1.5" stroke-dasharray="7 7"/><path fill-rule="evenodd" clip-rule="evenodd" d="M186.156 77.507v44l38.1 22 38.1-22v-44l-38.1-22-38.1 22Z" fill="#5578EC"/><path d="M186.156 77.507v44l38.1 22 38.1-22v-44l-38.1-22-38.1 22Z" stroke="#3351E5" stroke-width="9"/><path d="M204.356 99.107h41.3" stroke="#fff" stroke-width="9"/><path d="M278.71 87.9c.1-.9 0-1.9-.4-2.7-.4-.8-1.1-1.5-1.9-2-.8-.5-1.7-.7-2.7-.6-.9.1-1.8.4-2.6 1-.7.6-1.3 1.4-1.6 2.2-.3.9-.3 1.8-.1 2.7.3 1.2 1.1 2.2 2.2 2.9 1.1.7 2.4.8 3.6.5.9-.2 1.7-.7 2.3-1.4.7-.8 1-1.6 1.2-2.6ZM190.409 152l-6.3 5.4M197.61 153.2l-6.3 5.4" stroke="#5578EC" stroke-width="1.944"/></svg>