<svg viewBox="0 0 400 300" fill="none" xmlns="http://www.w3.org/2000/svg"><path fill-rule="evenodd" clip-rule="evenodd" d="m259.828 128.268-48.5-48.1 38.7 7.6-51.1-64.4-61.1 68.6 44.5-15.6-49.6 49.7 49.6-9.3-91.6 77.3 108.2-17.5 81.2 14.1-68.8-72 48.5 9.6Z" fill="#EFEFEF"/><path fill-rule="evenodd" clip-rule="evenodd" d="M190.027 267.368h24v-94h-24v94ZM66.928 267.368h24v-82h-24v82Z" fill="#EFEFEF"/><path fill-rule="evenodd" clip-rule="evenodd" d="m80.828 214.168 45.1 7.6-34.2-41.1 24.1 5.5-24.1-27.4 19.2 4.3-28.9-36.3-26.8 38.6 18.5-8.9-21 28.3 21-5.3-41.8 44.3 48.9-9.6Z" fill="#EFEFEF"/><path fill-rule="evenodd" clip-rule="evenodd" d="M141.743 195.826v-37.7c0-7-2.8-13.6-7.7-18.6-4.9-4.9-11.6-7.7-18.5-7.7-7 0-13.6 2.8-18.6 7.7-4.9 4.9-7.7 11.6-7.7 18.6v37.7c0 .9.2 1.7.5 2.5s.8 1.5 1.4 2.1c.6.6 1.3 1.1 2.1 1.4.8.3 1.7.5 2.5.5h39.4c1.7 0 3.4-.7 4.7-1.9 1.2-1.2 1.9-2.9 1.9-4.6Z" fill="#EFEFEF"/><path d="M141.743 195.826v-37.7c0-7-2.8-13.6-7.7-18.6-4.9-4.9-11.6-7.7-18.5-7.7-7 0-13.6 2.8-18.6 7.7-4.9 4.9-7.7 11.6-7.7 18.6v37.7c0 .9.2 1.7.5 2.5s.8 1.5 1.4 2.1c.6.6 1.3 1.1 2.1 1.4.8.3 1.7.5 2.5.5h39.4c1.7 0 3.4-.7 4.7-1.9 1.2-1.2 1.9-2.9 1.9-4.6Z" stroke="#000" stroke-width="1.5"/><path d="M154.144 290.826v-109h9.6v109" fill="#fff"/><path d="M154.144 290.826v-109h9.6v109" stroke="#000" stroke-width="1.5"/><path d="M147.144 290.826v-109h7v109" fill="#EFEFEF"/><path d="M147.144 290.826v-109h7v109" stroke="#000" stroke-width="1.5"/><path fill-rule="evenodd" clip-rule="evenodd" d="M135.243 202.326h72.2c.9 0 1.7-.2 2.5-.5s1.5-.8 2.1-1.4c.6-.6 1.1-1.3 1.4-2.1.3-.8.5-1.7.5-2.5v-37.7c0-7-2.8-13.6-7.7-18.6-4.9-4.9-11.5-7.7-18.5-7.7h-71c6.8.3 13.1 3.2 17.8 8.1 4.7 4.9 7.2 11.4 7.2 18.2v37.7c0 1.7-.7 3.4-1.9 4.7-1.2 1.1-2.9 1.8-4.6 1.8Z" fill="#fff"/><path d="M135.243 202.326h72.2c.9 0 1.7-.2 2.5-.5s1.5-.8 2.1-1.4c.6-.6 1.1-1.3 1.4-2.1.3-.8.5-1.7.5-2.5v-37.7c0-7-2.8-13.6-7.7-18.6-4.9-4.9-11.5-7.7-18.5-7.7h-71c6.8.3 13.1 3.2 17.8 8.1 4.7 4.9 7.2 11.4 7.2 18.2v37.7c0 1.7-.7 3.4-1.9 4.7-1.2 1.1-2.9 1.8-4.6 1.8Z" stroke="#000" stroke-width="1.5"/><path fill-rule="evenodd" clip-rule="evenodd" d="M71.743 205.826c0 1.9 1.6 3.5 3.5 3.5h59.6c1.9 0 3.5-1.6 3.5-3.5s-1.6-3.5-3.5-3.5h-59.6c-1.9 0-3.5 1.6-3.5 3.5Z" fill="#fff"/><path d="M71.743 205.826c0 1.9 1.6 3.5 3.5 3.5h59.6c1.9 0 3.5-1.6 3.5-3.5s-1.6-3.5-3.5-3.5h-59.6c-1.9 0-3.5 1.6-3.5 3.5Z" stroke="#000" stroke-width="1.5"/><path fill-rule="evenodd" clip-rule="evenodd" d="M182.843 176.126c-.5-.9-1.3-1.5-2.2-2v-.5h-2.3c-.7 0-1.4.1-2.1.4-.7.3-1.3.7-1.8 1.2s-.9 1.1-1.2 1.8c-.3.7-.4 1.4-.4 2.1 0 .7.1 1.4.4 2.1.3.6.7 1.2 1.2 1.8.5.6 1.1.9 1.8 1.2.6.3 1.3.4 2.1.4h2.3v-.8c.9-.4 1.7-1.1 2.2-2 .5-.9.8-1.9.8-2.9s-.3-2-.8-2.8Z" fill="#D4D9E3"/><path fill-rule="evenodd" clip-rule="evenodd" d="M176.143 173.926c-.7.3-1.3.7-1.8 1.2s-.9 1.1-1.2 1.8c-.3.7-.4 1.4-.4 2.1 0 .7.1 1.4.4 2.1.3.6.7 1.2 1.2 1.8.5.6 1.1.9 1.8 1.2.6.3 1.3.4 2.1.4h2.3v-.7c.9-.4 1.7-1.1 2.2-2 .5-.9.8-1.9.8-2.9s-.3-2-.8-2.9c-.5-.9-1.3-1.5-2.2-2v-.5h-2.3c-.7 0-1.4.2-2.1.4Z" fill="#000"/><path fill-rule="evenodd" clip-rule="evenodd" d="M185.743 178.926c0-3-2.4-5.4-5.4-5.4-3 0-5.4 2.4-5.4 5.4 0 3 2.4 5.4 5.4 5.4 3 0 5.4-2.4 5.4-5.4Z" fill="#fff"/><path d="M185.743 178.926c0-3-2.4-5.4-5.4-5.4-3 0-5.4 2.4-5.4 5.4 0 3 2.4 5.4 5.4 5.4 3 0 5.4-2.4 5.4-5.4Z" stroke="#000" stroke-width="1.5"/><path fill-rule="evenodd" clip-rule="evenodd" d="M183.743 178.926c0-1.9-1.5-3.4-3.4-3.4s-3.4 1.5-3.4 3.4 1.5 3.4 3.4 3.4c1.9.1 3.4-1.5 3.4-3.4Z" fill="#fff"/><path fill-rule="evenodd" clip-rule="evenodd" d="M178.443 152.026v26.5c0 1 .8 1.9 1.9 1.9 1 0 1.9-.9 1.9-1.9v-26.5c0-1.1-.9-1.9-1.9-1.9-1.1 0-1.9.8-1.9 1.9Z" fill="#fff"/><path d="M178.443 152.026v26.5c0 1 .8 1.9 1.9 1.9 1 0 1.9-.9 1.9-1.9v-26.5c0-1.1-.9-1.9-1.9-1.9-1.1 0-1.9.8-1.9 1.9Z" stroke="#000" stroke-width="1.5"/><path fill-rule="evenodd" clip-rule="evenodd" d="M116.743 201.526h18c3.3 0 6-2.7 6-6v-35.1l-24 41.1Z" fill="#D8D8D8"/><path fill-rule="evenodd" clip-rule="evenodd" d="m228.428 289.168 26.4-56.3 12.1 56.3m25.8-.5-5.7-94.5-62.8 9.6-25.1 84.9" fill="#fff"/><path d="m228.428 289.168 26.4-56.3 12.1 56.3m25.8-.5-5.7-94.5-62.8 9.6-25.1 84.9" stroke="#000" stroke-width="1.5"/><path fill-rule="evenodd" clip-rule="evenodd" d="M132.427 124.768c-2.4-1-4.9-4.8-9.8-3-4.9 1.7-11.4 4.5-10.6 7.9.8 3.4 9.3-1.3 12.5 0 3.2 1.3 6.9 2.4 7.9 2.4s6.3-1.5 6.3-1.5l-1.7-5.8s-2.2 1-4.6 0Z" fill="#fff"/><path d="M132.427 124.768c-2.4-1-4.9-4.8-9.8-3-4.9 1.7-11.4 4.5-10.6 7.9.8 3.4 9.3-1.3 12.5 0 3.2 1.3 6.9 2.4 7.9 2.4s6.3-1.5 6.3-1.5l-1.7-5.8s-2.2 1-4.6 0Z" stroke="#000" stroke-width="1.5"/><path fill-rule="evenodd" clip-rule="evenodd" d="M264.328 207.168c9.4-3.5 9.4-99.1 9.4-99.1l-21-15.9s-13.7 11.9-20.6 34.5c-6.9 22.6-12.9 75.3-12.9 75.3s35.7 8.7 45.1 5.2Z" fill="#EFEFEF"/><path d="M264.328 207.168c9.4-3.5 9.4-99.1 9.4-99.1l-21-15.9s-13.7 11.9-20.6 34.5c-6.9 22.6-12.9 75.3-12.9 75.3s35.7 8.7 45.1 5.2Z" stroke="#000" stroke-width="1.5"/><path fill-rule="evenodd" clip-rule="evenodd" d="M139.027 135.368s19.2 1.8 36.1-2.9c16.9-4.7 35.1-11.7 35.1-11.7s-12.7 99.5-10.2 99.5 12.7-1.4 14.5-5.1c1.8-3.7 9.4-9.8 9.4-9.8s5.6-24.5 7.7-35.5c3-15.5 4.6-29.9 7.5-40.1 7.4-25.9 15.7-32.2 15.7-32.2l-6.3-13.4s-7.3-4.2-17-2.8c-15 1.1-48 23.1-56.4 27-8.4 3.9-36.1 12.4-36.1 12.4s-3.5 1.1-3.5 7 3.5 7.6 3.5 7.6Z" fill="#fff"/><path d="M139.027 135.368s19.2 1.8 36.1-2.9c16.9-4.7 35.1-11.7 35.1-11.7s-12.7 99.5-10.2 99.5 12.7-1.4 14.5-5.1c1.8-3.7 9.4-9.8 9.4-9.8s5.6-24.5 7.7-35.5c3-15.5 4.6-29.9 7.5-40.1 7.4-25.9 15.7-32.2 15.7-32.2l-6.3-13.4s-7.3-4.2-17-2.8c-15 1.1-48 23.1-56.4 27-8.4 3.9-36.1 12.4-36.1 12.4s-3.5 1.1-3.5 7 3.5 7.6 3.5 7.6Z" stroke="#000" stroke-width="1.5"/><path fill-rule="evenodd" clip-rule="evenodd" d="M322.128 223.868c.7 3.2-.3 11.1 3.2 11.1 3.6 0 6.9-7.7 6.2-12.2-.6-4.5-8.5-11.4-8.5-11.4l-4.2 2.5c0-.1 2.6 6.8 3.3 10Z" fill="#fff"/><path d="M322.128 223.868c.7 3.2-.3 11.1 3.2 11.1 3.6 0 6.9-7.7 6.2-12.2-.6-4.5-8.5-11.4-8.5-11.4l-4.2 2.5c0-.1 2.6 6.8 3.3 10Z" stroke="#000" stroke-width="1.5"/><path fill-rule="evenodd" clip-rule="evenodd" d="M268.328 218.468c4.9-4.4 18.7-24.3 18.7-24.3s-1.9-18.6-1.9-27.9c0-9.2 1.9-16.3 1.9-16.3 3.4 22.1 20.799 43 28.699 64.7 0 0 2.001 2 7.001.3 4-1.3 4.9-3.7 4.9-3.7s-9.101-29.5-13.401-43.5c-3.4-11.1-10.399-33.1-14.399-43.9-7-18.8-28.6-31.7-28.6-31.7l-14.1 5.4v39.3c0 11-4.3 41-4.3 50.4 0 9.4-.2 30 4.3 32.9 1.5 1.1 5.6 3.3 11.2-1.7Z" fill="#fff"/><path d="M268.328 218.468c4.9-4.4 18.7-24.3 18.7-24.3s-1.9-18.6-1.9-27.9c0-9.2 1.9-16.3 1.9-16.3 3.4 22.1 20.799 43 28.699 64.7 0 0 2.001 2 7.001.3 4-1.3 4.9-3.7 4.9-3.7s-9.101-29.5-13.401-43.5c-3.4-11.1-10.399-33.1-14.399-43.9-7-18.8-28.6-31.7-28.6-31.7l-14.1 5.4v39.3c0 11-4.3 41-4.3 50.4 0 9.4-.2 30 4.3 32.9 1.5 1.1 5.6 3.3 11.2-1.7Z" stroke="#000" stroke-width="1.5"/><path fill-rule="evenodd" clip-rule="evenodd" d="M248.528 84.168s-2.4 13.1 0 14.4c2.4 1.3 6.3-1 6.3-1s1.3 4.2 3.6 4.2 17.4-4.2 17.4-4.2l-3.5-7.4-17.5-6h-6.3Z" fill="#EFEFEF"/><path d="M248.528 84.168s-2.4 13.1 0 14.4c2.4 1.3 6.3-1 6.3-1s1.3 4.2 3.6 4.2 17.4-4.2 17.4-4.2l-3.5-7.4-17.5-6h-6.3Z" stroke="#000" stroke-width="1.5"/><path fill-rule="evenodd" clip-rule="evenodd" d="M279.328 65.668c0-1.2.9-8.9.9-11.1 0-2.2-3.5-8.4-5.3-10.6-1.7-2.2-18.9-5.1-18.9-5.1s-3.9 3.7-6.2 13.9c-.2 1-4.5 5.7-4.7 6.8-.1.8 3.2.9 3.1 1.7-1.6 9.5 8 19.7 8 19.7 0 3.5-1.9 7.7-.3 13.5l16.2-4.3 2.6-12c.2 0 4.6-11.3 4.6-12.5Z" fill="#fff"/><path d="M279.328 65.668c0-1.2.9-8.9.9-11.1 0-2.2-3.5-8.4-5.3-10.6-1.7-2.2-18.9-5.1-18.9-5.1s-3.9 3.7-6.2 13.9c-.2 1-4.5 5.7-4.7 6.8-.1.8 3.2.9 3.1 1.7-1.6 9.5 8 19.7 8 19.7 0 3.5-1.9 7.7-.3 13.5l16.2-4.3 2.6-12c.2 0 4.6-11.3 4.6-12.5Z" stroke="#000" stroke-width="1.5"/><path fill-rule="evenodd" clip-rule="evenodd" d="M265.428 45.468c5.6 1 7.5 9.2 7.5 9.2s-.4 4.4.7 6.2c1.1 1.8 2.3 3.1 2.3 4.6 0 1.5-6.3 9.5-4.7 11.6 1.7 2 2.5 2.9 4.7 2.1 2.1-.8 15-14.3 16.5-22.8 1.6-8.5-2-20.5-10.3-22.8-4.3-1.2-11-5.7-20-2.2-2.5.7-7.2 6.6-7.2 6.6s4.9 6.5 10.5 7.5Z" fill="#000"/><path fill-rule="evenodd" clip-rule="evenodd" d="M132.371 98.2c1-.4 2.2-.1 3 .7l9.9 12c.5.7 1.3 1.1 2.2 1.1l1-.2c.6-.2 1-.6 1.4-1.1 0 0 .5-1.1.5-1.7V91.5c0-1.2 27.5-11.9 27.5-11.9 1.1-.4 1.8-1.3 1.8-2.5.1-1.2-.4-2.1-1.5-2.7l-76.1-44-1.5-.4c-.6 0-1.1.2-1.6.5-1.1.7-1.4 1.7-1.3 2.9l11.7 70.3c.1.9.6 1.6 1.5 2.1.4.2.9.4 1.4.4l1.1-.2 19-7.8Z" fill="#5578EC"/><path d="M132.371 98.2c1-.4 2.2-.1 3 .7l9.9 12c.5.7 1.3 1.1 2.2 1.1l1-.2c.6-.2 1-.6 1.4-1.1 0 0 .5-1.1.5-1.7V91.5c0-1.2 27.5-11.9 27.5-11.9 1.1-.4 1.8-1.3 1.8-2.5.1-1.2-.4-2.1-1.5-2.7l-76.1-44-1.5-.4c-.6 0-1.1.2-1.6.5-1.1.7-1.4 1.7-1.3 2.9l11.7 70.3c.1.9.6 1.6 1.5 2.1.4.2.9.4 1.4.4l1.1-.2 19-7.8Z" stroke="#3351E5" stroke-width="9"/><path fill-rule="evenodd" clip-rule="evenodd" d="m137.472 87.5 7.1 17.2c.2.4.7.7 1.1.6.5-.1.8-.5.8-1V89.4c0-3.5-1.3-7-3.8-9.5l-26.7-28.7c-.4-.4-.9-.4-1.4-.1-.4.3-.5.9-.2 1.3l23 34.8c0 .2.1.2.1.3Z" fill="#fff"/><path fill-rule="evenodd" clip-rule="evenodd" d="M259.028 54.568c0-1.5-1.2-2.7-2.7-2.7-1.5 0-2.7 1.2-2.7 2.7 0 1.5 1.2 2.7 2.7 2.7 1.5 0 2.7-1.2 2.7-2.7Z" fill="#000"/><path d="M251.128 68.268c1.5.6 3.2.8 5.2 0" stroke="#000" stroke-width="1.5"/><path d="M156.528 103.768c-.7.6-1.3 1.4-1.6 2.2-.3.9-.3 1.8-.1 2.7.3 1.2 1.1 2.2 2.2 2.9 1.1.6 2.4.8 3.6.5.9-.2 1.7-.7 2.3-1.4.6-.7 1-1.6 1.1-2.5.1-.9 0-1.9-.4-2.7-.4-.8-1.1-1.5-1.9-2-.8-.5-1.7-.7-2.7-.6-.9 0-1.8.3-2.5.9ZM165.985 43.986l-7.557-3.428M171.898 50.276l-7.557-3.428" stroke="#5578EC" stroke-width="1.944"/><path d="m263.728 125.768-.1-1.9 14.4 1.1.1 2.2" fill="#EFEFEF"/><path d="m263.728 125.768-.1-1.9 14.4 1.1.1 2.2" stroke="#000" stroke-width="1.5"/><path d="m218.728 120.968.2-1.9 14.2 2.9-.2 2.2" fill="#EFEFEF"/><path d="m218.728 120.968.2-1.9 14.2 2.9-.2 2.2" stroke="#000" stroke-width="1.5"/></svg>