<svg viewBox="0 0 400 300" fill="none" xmlns="http://www.w3.org/2000/svg"><path fill-rule="evenodd" clip-rule="evenodd" d="M317.176 224.86V45.36c0-3.3-2.7-5.9-5.9-5.9h-121.5c-3.3 0-6 2.7-6 5.9v179.5c0 3.3 2.7 5.9 5.9 5.9h121.5c3.3.1 6-2.6 6-5.9Z" fill="#EFEFEF"/><path fill-rule="evenodd" clip-rule="evenodd" d="M250.476 216.161c-2.8 0-5.1 2.3-5.1 5.1s2.3 5.1 5.1 5.1 5.1-2.3 5.1-5.1-2.3-5.1-5.1-5.1Z" fill="#B5B5B6"/><path fill-rule="evenodd" clip-rule="evenodd" d="M266.077 47.66c0-1.1-.9-1.9-1.9-1.9h-27.3c-1 0-1.9.8-1.9 1.9 0 1.1.9 1.9 1.9 1.9h27.2c1.1 0 2-.8 2-1.9Z" fill="#D8D8D8"/><path fill-rule="evenodd" clip-rule="evenodd" d="M312.876 53.16h-125v159.801h125v-159.8Z" fill="#fff"/><path fill-rule="evenodd" clip-rule="evenodd" d="M292.577 142.361v-12.9c0-.5-.4-.8-.8-.8h-82.8c-.5 0-.8.4-.8.8v12.9c0 .4.4.8.8.8h82.8c.4.1.8-.3.8-.8ZM292.676 162.461v-13c0-.5-.4-.8-.8-.8h-82.8c-.5 0-.8.4-.8.8v13c0 .5.4.8.8.8h82.8c.4 0 .8-.4.8-.8Z" fill="#EFEFEF"/><path fill-rule="evenodd" clip-rule="evenodd" d="M213.576 154.76c-.7 0-1.3.6-1.3 1.3 0 .7.6 1.3 1.3 1.3.7 0 1.3-.6 1.3-1.3-.1-.7-.6-1.3-1.3-1.3ZM217.576 154.76c-.7 0-1.3.6-1.3 1.3 0 .7.6 1.3 1.3 1.3.7 0 1.3-.6 1.3-1.3-.1-.7-.6-1.3-1.3-1.3ZM221.576 154.76c-.7 0-1.3.6-1.3 1.3 0 .7.6 1.3 1.3 1.3.7 0 1.3-.6 1.3-1.3-.1-.7-.6-1.3-1.3-1.3ZM225.477 154.76c-.7 0-1.3.6-1.3 1.3 0 .7.6 1.3 1.3 1.3.7 0 1.3-.6 1.3-1.3 0-.7-.6-1.3-1.3-1.3ZM229.477 154.76c-.7 0-1.3.6-1.3 1.3 0 .7.6 1.3 1.3 1.3.7 0 1.3-.6 1.3-1.3 0-.7-.6-1.3-1.3-1.3ZM233.477 154.76c-.7 0-1.3.6-1.3 1.3 0 .7.6 1.3 1.3 1.3.7 0 1.3-.6 1.3-1.3 0-.7-.6-1.3-1.3-1.3ZM237.477 154.76c-.7 0-1.3.6-1.3 1.3 0 .7.6 1.3 1.3 1.3.7 0 1.3-.6 1.3-1.3 0-.7-.6-1.3-1.3-1.3ZM241.477 154.76c-.7 0-1.3.6-1.3 1.3 0 .7.6 1.3 1.3 1.3.7 0 1.3-.6 1.3-1.3 0-.7-.6-1.3-1.3-1.3Z" fill="#263238"/><path fill-rule="evenodd" clip-rule="evenodd" d="M285.277 154.661c0-.6-.5-1.1-1.1-1.1-.6 0-1.1.5-1.1 1.1v.5h2.2v-.5Zm-.9 2.6c.2-.1.4-.3.4-.6 0-.4-.3-.7-.6-.7-.4 0-.7.3-.7.7 0 .2.2.5.4.6l-.3.8h1.2l-.4-.8Zm-2.2 1.6h3.9c.3 0 .6-.3.6-.6v-2.5c0-.3-.3-.6-.6-.6h-.3v-.5c0-.9-.7-1.6-1.6-1.6-.9 0-1.6.7-1.6 1.6v.5h-.5c-.3 0-.6.3-.6.6v2.5c.1.3.3.6.7.6Z" fill="#E0E0E0"/><path fill-rule="evenodd" clip-rule="evenodd" d="M250.576 70.46c-13.9 0-25.2 11.3-25.2 25.2 0 13.9 11.3 25.2 25.2 25.2 13.9.1 25.2-11.2 25.2-25.2 0-13.9-11.3-25.2-25.2-25.2Z" fill="#EFEFEF"/><path fill-rule="evenodd" clip-rule="evenodd" d="M256.777 90.66c0-3.2-2.6-5.8-5.8-5.8-3.2 0-5.8 2.6-5.8 5.8 0 2.5 1.5 4.5 3.7 5.4-8.9 1.2-8.5 10.3-8.5 10.3l21 .1s.5-9.2-8.3-10.4c2.2-.9 3.7-2.9 3.7-5.4Z" fill="#000"/><path fill-rule="evenodd" clip-rule="evenodd" d="M286.476 134.361c0-1-.7-1.8-1.6-1.8-.9 0-1.7.8-1.7 1.8 0 .8.4 1.4 1.1 1.6-2.6.5-2.5 3.2-2.5 3.2h6s.1-2.8-2.4-3.2c.6-.2 1.1-.8 1.1-1.6Z" fill="#E0E0E0"/><path fill-rule="evenodd" clip-rule="evenodd" d="M213.576 134.06h-.7v4.7h.7v-2.9c0-.4.2-.8.4-1 .2-.2.5-.4.9-.4.8 0 1.3.5 1.3 1.4v2.9h.7v-2.9c0-1.3-.6-1.9-1.8-1.9-.3 0-.6.1-.9.2-.3.1-.5.3-.6.6v-.7Zm7.7 4v.8h.7v-3c0-.6-.1-1-.4-1.3-.3-.4-.8-.5-1.5-.5-.6 0-1 .1-1.4.3-.4.2-.6.6-.7 1.1l.7.1c.1-.3.2-.5.5-.7.2-.2.5-.2.8-.2.8 0 1.2.4 1.2 1.2v.2h-1.1c-.7 0-1.3.2-1.6.4-.4.3-.7.7-.7 1.2 0 .4.2.7.4.9.3.2.7.4 1.1.4.4 0 .8-.1 1.2-.3.4-.2.6-.4.8-.6Zm-.6-.1c.3-.3.5-.6.5-1v-.4h-1.1c-1.1 0-1.6.4-1.6 1 0 .2.1.4.3.5.2.1.4.2.7.2.5.1.9 0 1.2-.3Zm6.1-2.1c0-.4.1-.7.3-.9.2-.2.5-.3.8-.3.4 0 .7.1.9.3.2.2.3.5.3.9v3h.7v-3.1c0-.5-.2-1-.5-1.3-.3-.3-.7-.5-1.2-.5-.3 0-.6.1-.8.2-.3.1-.5.4-.7.7-.3-.6-.8-.9-1.5-.9-.5 0-1 .2-1.3.8v-.6h-.7v4.7h.7v-2.9c0-.4.1-.7.3-1 .2-.3.5-.4.8-.4.7 0 1.1.4 1.1 1.3v3h.8v-3Zm5.1 2c-.2-.3-.4-.7-.4-1.2h3.7c0-.8-.2-1.5-.6-1.9-.4-.5-1-.8-1.7-.8s-1.2.2-1.6.7c-.4.5-.6 1.1-.6 1.8 0 .8.2 1.4.6 1.8.4.4 1 .7 1.6.7.6 0 1.1-.2 1.5-.5.3-.3.5-.7.6-1.1h-.7c-.1.3-.3.6-.5.7-.2.2-.6.3-.9.3-.4 0-.8-.2-1-.5Zm1-3.3c-.4 0-.8.1-1 .4-.3.3-.4.7-.5 1.1h3c-.1-1-.6-1.5-1.5-1.5Z" fill="#242424"/><path fill-rule="evenodd" clip-rule="evenodd" d="M100.159 250.8h5.7l10.3-31.6h-12.3l-3.7 31.6ZM121.06 238.7h5.7l10.3-31.6h-12.3l-3.7 31.6ZM188.859 219.1l11.2 31.6h6.2l-4.1-31.6h-13.3Z" fill="#EFEFEF"/><path fill-rule="evenodd" clip-rule="evenodd" d="m169.459 207.8 11.2 31.6h6.2l-4.1-31.6h-13.3Z" fill="#E0E0E0"/><path fill-rule="evenodd" clip-rule="evenodd" d="M80.96 134.4c1.7-14.9 5.6-20.9 13.9-25.1 10.499-5.4 26.199-6.5 26.199-6.5l23.8-.6v-.4l6.6.2 6.6-.2v.4l23.8.6s15.7 1.1 26.2 6.5c8.2 4.3 12.3 10.2 13.9 25.2 1.6 15 12.1 18 12.4 23.1.3 5-2.3 26.5-20.9 69.6-.7 1.7-2.4 2.8-4.3 2.8h-115c-2.1 0-4.1-1.3-4.9-3.2-18.4-42.9-20.9-64.2-20.7-69.2.3-5.2 10.8-8.2 12.4-23.2Z" fill="#fff"/><path d="M80.96 134.4c1.7-14.9 5.6-20.9 13.9-25.1 10.499-5.4 26.199-6.5 26.199-6.5l23.8-.6v-.4l6.6.2 6.6-.2v.4l23.8.6s15.7 1.1 26.2 6.5c8.2 4.3 12.3 10.2 13.9 25.2 1.6 15 12.1 18 12.4 23.1.3 5-2.3 26.5-20.9 69.6-.7 1.7-2.4 2.8-4.3 2.8h-115c-2.1 0-4.1-1.3-4.9-3.2-18.4-42.9-20.9-64.2-20.7-69.2.3-5.2 10.8-8.2 12.4-23.2Z" stroke="#000" stroke-width="1.5"/><path fill-rule="evenodd" clip-rule="evenodd" d="M147.36 39.4c1.2-.2 2.5-.6 3.3-1.6.8-.9.9-2.6-.1-3.3 1.7-1.2 2.8-3.2 2.4-5.3-.4-2-2.6-3.6-4.5-3 .1-2-1.4-4-3.3-4.6-1.9-.6-4.2.3-5.3 2-1.8-1.6-4.5-2.2-6.7-1.1s-3.2 4.1-1.9 6.1c-2.1.1-4 2-4.1 4.1-.1 2.1 1.5 4.2 3.6 4.5-.8 2 .7 4.3 2.7 5.1 2 .8 4.2.2 6.1-.8l7.8-2.1Z" fill="#000"/><path fill-rule="evenodd" clip-rule="evenodd" d="M143.359 37.2c-1.1-.7-2.6-.8-3.7-.1-1.1.7-1.8 2-1.6 3.3-1.7-.7-4.1-.5-5 1.1-.8 1.5.1 3.4 1.6 4.3 1.4.8 3.2.8 4.9.6 3.9-.6 7.7-2.4 10.6-5.1l.2.9c1.5-1.1 1.8-3.5.6-5-1.2-1.4-3.7-1.6-5-.3-.4.4-.7.8-1.3.9-.4.1-.8-.3-1.3-.6Z" fill="#fff"/><path d="M143.359 37.2c-1.1-.7-2.6-.8-3.7-.1-1.1.7-1.8 2-1.6 3.3-1.7-.7-4.1-.5-5 1.1-.8 1.5.1 3.4 1.6 4.3 1.4.8 3.2.8 4.9.6 3.9-.6 7.7-2.4 10.6-5.1l.2.9c1.5-1.1 1.8-3.5.6-5-1.2-1.4-3.7-1.6-5-.3-.4.4-.7.8-1.3.9-.4.1-.8-.3-1.3-.6Z" stroke="#000"/><path fill-rule="evenodd" clip-rule="evenodd" d="M133.259 43.1c-1 1.2-1.5 2.7-1.7 4.3-.9.4-1.8 1-2.4 1.7-1.6 2-1.7 5.1-.3 7.2-1.1 1-1.6 2.5-1.5 4 .1 1.5 1 2.8 2.2 3.6-.6 1.1-.7 2.5-.2 3.7.5 1.1 1.4 2 2.5 2.4.2 2.8 1.5 5.8 6.1 6.2l27.7-8.2c1.9-.5 3.1-2.7 2.7-4.6 2.2-1.4 2.7-4.9 1-6.9 1-.9 1.4-2.4 1-3.6-.4-1.3-1.7-2.2-3-2.3.6-1.5.3-3.3-.7-4.5-1-1.2-2.7-1.9-4.2-1.6.2-1.6-.5-3.3-1.9-4.1-1.4-.8-3.2-.8-4.5.1-2-2.8-6.7-2.9-8.9-.3-2.6-1.6-6.4-.4-7.7 2.4-1.7-1.8-4.7-1.3-6.2.5Z" fill="#000"/><path fill-rule="evenodd" clip-rule="evenodd" d="M165.059 75.9c-1.7 9-8.7 9.9-8.7 9.9s0 .1-.2 2.8l-.1 4.4c0 1.8-.6 3.5-1.8 4.8-2.7 3-7.2 3.1-12.3.8-3-1.3-2.8-3-3.2-7.2l-1.2-18.8c-1.4 0-4.4-.5-4.1-4.3.2-3.1 2.1-3.6 3.6-3.5l-.8-12.7c.4-.6 1.6-2 3.3-2.1l17-3.8c5.4-.4 8.8 6.3 9 11.8.3 6.1.3 13.4-.5 17.9Z" fill="#fff"/><path d="M165.059 75.9c-1.7 9-8.7 9.9-8.7 9.9s0 .1-.2 2.8l-.1 4.4c0 1.8-.6 3.5-1.8 4.8-2.7 3-7.2 3.1-12.3.8-3-1.3-2.8-3-3.2-7.2l-1.2-18.8c-1.4 0-4.4-.5-4.1-4.3.2-3.1 2.1-3.6 3.6-3.5l-.8-12.7c.4-.6 1.6-2 3.3-2.1l17-3.8c5.4-.4 8.8 6.3 9 11.8.3 6.1.3 13.4-.5 17.9Z" stroke="#000" stroke-width="1.5"/><path fill-rule="evenodd" clip-rule="evenodd" d="M160.96 65.1c-.6 0-1.2.5-1.2 1.1 0 .6.5 1.1 1.2 1.1.6 0 1.2-.5 1.1-1.1.1-.6-.5-1.1-1.1-1.1ZM150.159 64.7c-.6 0-1.2.5-1.2 1.1 0 .6.5 1.1 1.2 1.1.6 0 1.2-.5 1.1-1.1 0-.6-.5-1.1-1.1-1.1ZM151.36 60.9c-.5-.2-1.3-.3-2.2-.2-.9.1-1.6.5-2.1.8-.5.3-.7.7-.6.8.2.3 1.4-.2 2.8-.4 1.5-.2 2.7-.1 2.8-.4.1-.2-.2-.4-.7-.6ZM163.059 61.7c-.4-.3-1.1-.6-1.8-.7-.8-.1-1.5.1-1.9.4-.4.2-.6.5-.5.7.2.3 1.2.1 2.4.2 1.1.1 2.1.4 2.3.2 0-.2-.1-.5-.5-.8ZM141.459 60.6c0-.8-.3-1.6-.6-2.3 1.2.2 2.4-.5 2.7-1.7.3-1.1-.3-2.5-1.4-2.9 2.1-.3 3.9-2.4 3.9-4.5l.8-2.2-8.4-1.5-4.4 3.2-1.2 7.6.9 9.5c.8-.8 2-1.2 3.1-.9.7.1 1.3 1.1 2.1 1.1 1.2 0 1.7-.9 1.8-1.5.2-.8-.2-1.5-.6-2 .9-.3 1.3-1.1 1.3-1.9Z" fill="#000"/><path fill-rule="evenodd" clip-rule="evenodd" d="M176.16 142.7s-8.2-11-8.4-11.3l8.2-20.3 3.8 6.5 5.3 13.3 1.9-4.2 6.8-.3s-1.4 13.3-4.7 17.3c-3.3 4.1-6.6 3.8-8 3.4-1.4-.3-4.2-3.5-4.9-4.4Z" fill="#fff"/><path d="M176.16 142.7s-8.2-11-8.4-11.3l8.2-20.3 3.8 6.5 5.3 13.3 1.9-4.2 6.8-.3s-1.4 13.3-4.7 17.3c-3.3 4.1-6.6 3.8-8 3.4-1.4-.3-4.2-3.5-4.9-4.4Z" stroke="#000" stroke-width="1.5"/><path fill-rule="evenodd" clip-rule="evenodd" d="m189.359 229.9-8.7-19.1-43.4-30.7-16.3 10 9 3.8 1.5 35.8 4.1.1h53.8v.1Z" fill="#000"/><path fill-rule="evenodd" clip-rule="evenodd" d="m171.759 232.1 11.4-6.3-5-15.8-14 7.6 7.6 14.5Z" fill="#fff"/><path d="m171.759 232.1 11.4-6.3-5-15.8-14 7.6 7.6 14.5Z" stroke="#000" stroke-width="1.5"/><path fill-rule="evenodd" clip-rule="evenodd" d="M170.659 231c-.6.9 0 3.3 1.7 5.3l1.1 1.4c1 1.6 21 4.3 26.4 4.9 1 .1 2-.3 2.6-1.2.7-1.1.9-3.4-1.8-5.4l-17.6-11.5-.6-1.5c-.3 7.5-12 7.2-12 7.2l.2.8Z" fill="#000"/><path fill-rule="evenodd" clip-rule="evenodd" d="M172.959 234c0 .8.9 1.6 1.7 1.5.8 0 1.4-.8 1.4-1.6-.1-.7-.7-1.4-1.4-1.4-.9-.2-1.7.7-1.7 1.5ZM139.66 254.5s12.4 1.9 12.4 1.6c0-.3 3.7-17.4 3.7-17.4l-16.2-2.1.1 17.9Z" fill="#fff"/><path d="M139.66 254.5s12.4 1.9 12.4 1.6c0-.3 3.7-17.4 3.7-17.4l-16.2-2.1.1 17.9Z" stroke="#000" stroke-width="1.5"/><path fill-rule="evenodd" clip-rule="evenodd" d="m139.459 253.5-8.1 19.3c-1.2 3.2.2 4.9 1.5 5.5 1 .4 2.1.2 2.8-.4 4.1-3.6 19.2-16.9 19.2-18.8l.1-1.7c.3-2.6-.6-4.9-1.6-5.3l-.3-.8s-9 6.8-13.4.7l-.2 1.5Z" fill="#000"/><path fill-rule="evenodd" clip-rule="evenodd" d="M170.759 135s3.6-5.3 4.9-9.4c1.3-4.1 0-30.3 0-30.3l-19.4-5.5s.2 5.1-6.8 5.7c-6.9.6-10.8-6.1-10.8-6.1l-15.5 5.9 3.6 53.6 46.8-.6s1.1.6 1-1.9c0-2.5-3.8-11.4-3.8-11.4Z" fill="#fff"/><path d="M170.759 135s3.6-5.3 4.9-9.4c1.3-4.1 0-30.3 0-30.3l-19.4-5.5s.2 5.1-6.8 5.7c-6.9.6-10.8-6.1-10.8-6.1l-15.5 5.9 3.6 53.6 46.8-.6s1.1.6 1-1.9c0-2.5-3.8-11.4-3.8-11.4Z" stroke="#000" stroke-width="1.5"/><path fill-rule="evenodd" clip-rule="evenodd" d="M122.459 142.3c1.9 3.1 2.7 7.1 8.9 5.5 6.1-1.6 9.2-5.6 16-11.2 6.7-5.5 11-9.7 11-9.7l-4.7-5.7-19.6 8.9-4.7-10.2-13.2 7c.1.1 4.4 12.3 6.3 15.4Z" fill="#fff"/><path d="M122.459 142.3c1.9 3.1 2.7 7.1 8.9 5.5 6.1-1.6 9.2-5.6 16-11.2 6.7-5.5 11-9.7 11-9.7l-4.7-5.7-19.6 8.9-4.7-10.2-13.2 7c.1.1 4.4 12.3 6.3 15.4Z" stroke="#000" stroke-width="1.5"/><path fill-rule="evenodd" clip-rule="evenodd" d="M165.459 125.9c.7 0 1.5-2.6 1.9-4.3.4-1.7-.3-2.5-.3-2.5l.5-.3.8 1.3-1.2 4.1c-.6 2.2 1.6 1.9 1.6 1.9s2.4-4.2 2.6-6.5c.2-2.4-2.1-3.9-2.1-3.9s5-4.3 6.2-5.1c1.2-.8 0-2 0-2l-13.5 7.1-11 7s5.5 4.8 7 4.7c1.5-.1 3.6-2.3 3.6-2.3s.2.6.9.9c.7.2 1.5-.6 1.5-.6s.8.5 1.5.5Z" fill="#fff"/><path d="M165.459 125.9c.7 0 1.5-2.6 1.9-4.3.4-1.7-.3-2.5-.3-2.5l.5-.3.8 1.3-1.2 4.1c-.6 2.2 1.6 1.9 1.6 1.9s2.4-4.2 2.6-6.5c.2-2.4-2.1-3.9-2.1-3.9s5-4.3 6.2-5.1c1.2-.8 0-2 0-2l-13.5 7.1-11 7s5.5 4.8 7 4.7c1.5-.1 3.6-2.3 3.6-2.3s.2.6.9.9c.7.2 1.5-.6 1.5-.6s.8.5 1.5.5Z" stroke="#000" stroke-width="1.5"/><path fill-rule="evenodd" clip-rule="evenodd" d="M113.759 106.6c-1 5.4 1.4 23.1 1.4 23.1l16.7-6.2-7.8-28.6s-8.7 2.6-10.3 11.7Z" fill="#fff"/><path d="M113.759 106.6c-1 5.4 1.4 23.1 1.4 23.1l16.7-6.2-7.8-28.6s-8.7 2.6-10.3 11.7Z" stroke="#000" stroke-width="1.5"/><path d="M92.06 227.7s.8-11.9 3.4-16.8c2.5-4.9 7.4-3.9 7.4-3.9h98.8s6.4.6 8.8 5.7c2.4 5.1 1.6 16.8 1.6 16.8M99.16 188.1l14.299-12.3h75.8l16.3 13.6" stroke="#000"/><path fill-rule="evenodd" clip-rule="evenodd" d="m130.859 123.3.3.6c.1 0-.2-.9-.7-2.4-.4-1.5-1-3.6-1.5-5.9-.5-2.3-1-4.4-1.4-6-.4-1.5-.6-2.5-.7-2.5-.1 0 .1 1 .4 2.5.3 1.6.8 3.7 1.3 6 .6 2.3 1.1 4.4 1.6 5.9.3.7.5 1.4.7 1.8Z" fill="#263238"/><path fill-rule="evenodd" clip-rule="evenodd" d="M128.66 160.8c-1.1-.2-2.7-.1-4.4.4-1.7.5-3 1.6-3.7 2.4-.4.4-.7.8-.8 1.1-.2.3-.2.4-.2.4.1 0 .4-.5 1.2-1.3.8-.8 2-1.7 3.7-2.2 1.6-.5 3.2-.6 4.2-.5 1.1.1 1.8.3 1.8.2 0 0-.6-.3-1.8-.5ZM148.559 153.6c0-2.8-.1-5-.2-5s-.2 2.2-.2 5 .1 5 .2 5 .2-2.3.2-5ZM130.159 153.9c-1.9 1-3.8 1.3-5.2 1.3-1.4 0-2.2-.1-2.3-.1 0 0 .2.1.6.2.4.1 1 .2 1.7.2 1.4 0 3.4-.2 5.4-1.3 1.9-1 3.3-2.5 4.1-3.7.4-.6.7-1.1.8-1.5.2-.4.2-.6.2-.6-.1 0-.4.8-1.2 1.9-.8 1.2-2.2 2.6-4.1 3.6Z" fill="#455A64"/><path fill-rule="evenodd" clip-rule="evenodd" d="m166.759 196.8 6.5-6.6 7.4-1.7c2.6-4.4 2.5-16.2 1-25.3-1.5-9.1-7.5-15.1-7.5-15.1l-22.2.4.6 20.7s-7.1 5.2-12 10.1c-4.9 4.9-4.5 11.8-4.5 11.8s-.1 1.1-.8 5.3c-.7 4.2 1.3 47.7 1.3 47.7l20.9 2.9 9.3-50.2Z" fill="#EFEFEF"/><path d="m166.759 196.8 6.5-6.6 7.4-1.7c2.6-4.4 2.5-16.2 1-25.3-1.5-9.1-7.5-15.1-7.5-15.1l-22.2.4.6 20.7s-7.1 5.2-12 10.1c-4.9 4.9-4.5 11.8-4.5 11.8s-.1 1.1-.8 5.3c-.7 4.2 1.3 47.7 1.3 47.7l20.9 2.9 9.3-50.2Z" stroke="#000" stroke-width="1.5"/><path fill-rule="evenodd" clip-rule="evenodd" d="M127.359 148.8s-11 12.9-10.8 23.4c.3 10.4 4.9 18 4.9 18l14.7.9s1.3-7 6.5-7c1.1 0 20.2 36.6 20.2 36.6l18.7-8.5s-12.3-32.3-15.3-39.9c-3-7.6-5.8-11.3-9.8-12.3l-4.5-11.5-24.6.3Z" fill="#EFEFEF"/><path d="M127.359 148.8s-11 12.9-10.8 23.4c.3 10.4 4.9 18 4.9 18l14.7.9s1.3-7 6.5-7c1.1 0 20.2 36.6 20.2 36.6l18.7-8.5s-12.3-32.3-15.3-39.9c-3-7.6-5.8-11.3-9.8-12.3l-4.5-11.5-24.6.3Z" stroke="#000" stroke-width="1.5"/><path fill-rule="evenodd" clip-rule="evenodd" d="M158.759 117.7c-.3 1.5.8 2.8 2.3 2.8h37.1c1.1 0 2.1-.8 2.3-1.8l6-26.6c.3-1.5-.8-2.9-2.3-2.9h-37.7c-1.1 0-2.1.8-2.3 1.9l-5.4 26.6Z" fill="#000"/><path fill-rule="evenodd" clip-rule="evenodd" d="M188.059 112.6s.6 1.4 0 1.4c-.5 0-5.1-5.1-6.6-6.4-1.5-1.2-2.7.4-2.3 1.5.3 1 6.4 7.2 6.4 7.2s1 .7.4 1.2-6.1-4.1-7.7-4.8c-1.6-.7-2.3.7-2 1.6.2.8 1.7 1.5 1.7 1.5s-.5.9 0 1.8c.4.7 3.5 2.3 4.3 2.9.8.6 1.5 1.3 2.4 3.2.8 1.9 2.3 3.1 2.3 3.1l6.1 1.5s1.1-2.4 1.2-4.4c.1-2-1-7.5-1.1-8.4-.1-1-1-2.4-1.5-3.4-.4-.9-2.5-6.2-4.1-8.2-.3-.3-.8-.9-1.6-.5-.8.3-1.2 1.1-.8 2.5.4 1.4 2.9 6.7 2.9 6.7Z" fill="#fff"/><path d="M188.059 112.6s.6 1.4 0 1.4c-.5 0-5.1-5.1-6.6-6.4-1.5-1.2-2.7.4-2.3 1.5.3 1 6.4 7.2 6.4 7.2s1 .7.4 1.2-6.1-4.1-7.7-4.8c-1.6-.7-2.3.7-2 1.6.2.8 1.7 1.5 1.7 1.5s-.5.9 0 1.8c.4.7 3.5 2.3 4.3 2.9.8.6 1.5 1.3 2.4 3.2.8 1.9 2.3 3.1 2.3 3.1l6.1 1.5s1.1-2.4 1.2-4.4c.1-2-1-7.5-1.1-8.4-.1-1-1-2.4-1.5-3.4-.4-.9-2.5-6.2-4.1-8.2-.3-.3-.8-.9-1.6-.5-.8.3-1.2 1.1-.8 2.5.4 1.4 2.9 6.7 2.9 6.7Z" stroke="#000" stroke-width="1.5"/><path fill-rule="evenodd" clip-rule="evenodd" d="M186.059 95.6c-.6-.2-1.3.2-1.6.9-.3.7.1 1.5.8 1.7.6.2 1.3-.2 1.6-1 .3-.8-.2-1.4-.8-1.6Z" fill="#E0E0E0"/><path d="M163.459 149.9c3.7 7.2 8.9 7.5 14.5 5.7M137.959 149.9c-3.7 7.2-8.9 7.5-14.5 5.7M99.16 117.8l14.299 58.5M203.959 115.5l-15.1 60.4M234.259 155.5c-7.7-4.8-13.6-3.8-17.7 3.1-4.1 6.8-9.1 23-14.9 48.4m-73 0h-25.8c-3.3-20.1-8-34.8-14.1-44.1-6.1-9.3-12.8-11.8-19.9-7.4" stroke="#000" stroke-dasharray="2 2"/><path d="M151.26 72.2c1.1 2.3 2.7 4 5.3 4.2M155.859 64.7l1.3 2.8c.4.8.3 1.7-.1 2.4-.5.7-1.2 1.2-2.1 1.2" stroke="#000" stroke-width="1.5"/><path fill-rule="evenodd" clip-rule="evenodd" d="M302.557 140.816c-2.282-.666-4.721-.912-7.108-.661-2.387.251-4.732.9-6.826 2.025-2.094 1.125-3.947 2.627-5.559 4.505l-55.63 67.686c-3.125 3.747-4.534 8.521-4.132 13.305.502 4.774 2.783 9.26 6.531 12.385l8.703 7.23c3.747 3.125 8.521 4.534 13.404 4.121 4.873-.512 9.26-2.783 12.385-6.53l55.74-67.597c1.513-1.868 2.696-4.003 3.361-6.285.666-2.283.912-4.722.76-7.119-.25-2.387-.899-4.732-2.024-6.826a17.859 17.859 0 0 0-4.495-5.46l-8.704-7.23c-1.989-1.701-4.114-2.785-6.406-3.549Z" fill="#5578EC"/><path d="m282.314 222.781-11.769 14.308c-10.167 12.33-26.53 15.458-36.871 6.993-10.342-8.466-10.187-25.174-.12-37.493l11.879-14.22M264.264 169.676l11.868-14.319c10.067-12.32 26.53-15.457 36.772-6.982 10.242 8.476 10.187 25.173.119 37.493l-11.878 14.22" stroke="#3351E5" stroke-width="9.721"/><path d="m287.922 178.552-28.464 34.364" stroke="#fff" stroke-width="9.721"/><path d="M155.659 159.7c-6.3-1.3-12.7.3-19.2 4.4" stroke="#212121" stroke-width="1.5"/><path d="M281.859 238.8c-.8-.5-1.7-.7-2.7-.6-.9.1-1.8.4-2.6 1s-1.3 1.4-1.6 2.2c-.3.9-.3 1.8-.1 2.7.3 1.2 1.1 2.2 2.2 2.9 1.1.7 2.4.8 3.6.5.9-.2 1.7-.7 2.3-1.4.6-.7 1-1.6 1.1-2.5.1-.9 0-1.9-.4-2.7-.4-.9-1-1.6-1.8-2.1ZM245.159 167.7l3.3 7.6M248.459 160.1l3.3 7.6" stroke="#5578EC" stroke-width="1.944"/></svg>