<svg viewBox="0 0 400 300" fill="none" xmlns="http://www.w3.org/2000/svg"><path d="M288.99 61.786H100.17v163.279h188.82V61.786Z" fill="#D6DAE1"/><path d="M268.902 79.439H119.424v126.45h149.478V79.439Z" fill="#EFF2F4"/><path d="m240.74 148.013 19.792 40.225" stroke="#231815" stroke-width="2.14" stroke-miterlimit="10"/><path d="M243.602 106.584h-97.7v2.06h97.7v-2.06ZM243.602 120.573h-97.7v2.059h97.7v-2.059ZM243.602 134.534h-97.7v2.059h97.7v-2.059ZM243.602 148.495h-97.7v2.059h97.7v-2.059ZM181.42 162.482h-35.518v2.086h35.518v-2.086Z" fill="#fff"/><path d="M135.419 21s44.745 65.205 48.141 71.623c9.174 17.358 7.783 27.013-4.119 26.746-6.766-.134-15.271-6.5-28.162-23.777" stroke="#231815" stroke-width="2.14" stroke-miterlimit="10"/><path d="M143.656 68.125s19.844 19.738 2.674 35.464a14.012 14.012 0 0 1-16.796 1.953" stroke="#231815" stroke-width="2.14" stroke-miterlimit="10"/><path d="M114.691 106.478c3.985 4.6 14.47 3.691 19.578-7.194 6.071-12.892-6.686-27.682-6.686-27.682" stroke="#231815" stroke-width="2.14" stroke-miterlimit="10"/><path d="M110.598 83.236s11.768 7.57 5.135 20.006c-6.632 12.436-15.512 9.976-22.332 7.729a41.781 41.781 0 0 1-16.368-13.373c-5.857-10.002 1.043-19.443 7.382-18.908" stroke="#231815" stroke-width="2.14" stroke-miterlimit="10"/><path d="M70 56.411s21.396 34.93 26.96 37.443c0 0 6.097 2.996-3.398 5.35" stroke="#231815" stroke-width="2.14" stroke-miterlimit="10"/><path d="M330.095 210.436c-4.199-4.573-10.243-10.243-24.418-23.91-9.602-9.254-24.151-16.769-39.422-14.308-28.671 4.707-51.378 19.47-56.593 22.653-6.553 3.958-6.954 19.042 9.334 16.047a62.008 62.008 0 0 0 24.071-9.361" stroke="#231815" stroke-width="2.059" stroke-miterlimit="10"/><path d="M220.574 210.73s-10.698 9.629-.562 15.834c7.863 4.84 31.025-4.815 40.412-10.886" stroke="#231815" stroke-width="2.059" stroke-miterlimit="10"/><path d="M228.732 227.633s-9.174 7.542-2.675 14.549c7.302 7.73 40.118-5.349 45.306-7.783 7.222-3.316 4.494-9.628 1.739-10.698" stroke="#231815" stroke-width="2.059" stroke-miterlimit="10"/><path d="M237.131 244.349s-6.125 4.547-.696 11.5c6.259 8.024 29.688-1.069 37.23-4.466 6.445-2.915 8.023-9.655 4.76-12.543M289.549 220.786s-22.091-2.246-35.597-8.237c-10.297-4.547-17.198-15.86-8.693-21.396 10.431-6.927 35.09 2.3 35.09 2.3M269.599 256.946l21.61 22.68" stroke="#231815" stroke-width="2.059" stroke-miterlimit="10"/><path d="M262.351 69.837c-17.277-29.955-50.816-41.696-73.041-28.912-22.225 12.785-28.697 48.142-11.42 78.257 17.277 30.115 51.805 43.086 73.977 30.302 22.172-12.784 27.761-49.666 10.484-79.647Zm-72.934 43.354c-13.372-23.295-10.35-50.227 6.874-60.15 17.224-9.922 42.043.91 55.469 24.204 13.426 23.295 10.35 50.201-6.873 60.123-17.224 9.923-42.044-.909-55.47-24.177Z" fill="#FF3640"/><path d="M142.96 196.555c5.702 0 10.324-4.622 10.324-10.323 0-5.702-4.622-10.324-10.324-10.324-5.701 0-10.323 4.622-10.323 10.324 0 5.701 4.622 10.323 10.323 10.323Z" fill="#005DFF"/></svg>