<svg viewBox="0 0 400 300" fill="none" xmlns="http://www.w3.org/2000/svg"><path d="M302.26 53.577H95.12v171.089h207.14V53.577Z" fill="#D6DAE1"/><path d="m133.632 56.306-26.291 114.041c-1.337 5.937-11.527 32.094-16.341 36.213l167.371 37.791s10.243-4.922 17.678-37.845l25.97-112.65-168.387-37.55Z" fill="#EFF2F4"/><path d="M161.073 72.78a19.392 19.392 0 0 1-19.018-23.173 19.387 19.387 0 0 1 15.235-15.234 19.39 19.39 0 0 1 23.173 19.017v.776M231.548 72.78a19.388 19.388 0 0 1-17.876-12.007 19.387 19.387 0 0 1 14.166-26.404 19.39 19.39 0 0 1 23.153 19.021v.776" stroke="#231815" stroke-width="1.952" stroke-miterlimit="10"/><path d="m261.208 139.75 17.999-12.437M272.039 167.244l36.882-11.795M278.511 196.396l19.871 1.979" stroke="#231815" stroke-width="2.166" stroke-miterlimit="10"/><path d="m259.771 121.821-69.045-15.877-.588 2.554 69.046 15.877.587-2.554ZM255.754 139.236l-108.912-25.104-.589 2.554 108.912 25.104.589-2.554ZM251.762 156.618 142.85 131.514l-.589 2.554 108.912 25.104.589-2.554ZM247.683 174.29l-108.912-25.104-.589 2.554 108.912 25.104.589-2.554Z" fill="#fff"/><path d="m158.425 186.153 8.959 26.692 94.946.668-24.686-79.7-79.219 52.34Z" fill="#FF3640"/><path d="m206.193 254.192-13.185 3.531-17.705-51.699 13.212-3.557 17.678 51.725Z" fill="#FF3640"/><path d="M168.561 108.378a9.04 9.04 0 1 0 0-18.08 9.04 9.04 0 0 0 0 18.08Z" fill="#005DFF"/><path d="m230.049 150.636 17.143 54.319" stroke="#fff" stroke-width="2.407" stroke-miterlimit="10"/><path d="m188.192 221.323 14.229 44.45" stroke="#231815" stroke-width="2.166" stroke-miterlimit="10"/></svg>