<svg viewBox="0 0 400 300" fill="none" xmlns="http://www.w3.org/2000/svg"><path d="m114.397 206.551-25.274-66.755" stroke="#231815" stroke-width="2.166" stroke-miterlimit="10"/><path d="m115.065 108.237-16.796-14.63A124.608 124.608 0 0 1 248.364 64.12a124.609 124.609 0 0 1 42.096 34.542l-17.598 13.747a102.357 102.357 0 0 0-157.797-4.172Z" fill="#EFF2F4"/><path d="M129.644 124.685a80.6 80.6 0 0 1 28.778-22.41 80.59 80.59 0 0 1 71.038 1.654 80.587 80.587 0 0 1 27.704 23.725l-17.946 13.372a58.278 58.278 0 0 0-92.27-2.166l-17.304-14.175ZM292.868 200.587H88v35.277h204.868v-35.277Z" fill="#D6DAE1"/><path d="M193.591 172.505c8.375 0 15.165-6.789 15.165-15.164s-6.79-15.164-15.165-15.164-15.164 6.789-15.164 15.164 6.789 15.164 15.164 15.164Z" fill="#B3BEC9"/><path d="M227.021 234.42s14.791-69.537 69.19-75.154c35.33-3.664 6.472 48.355-17.652 32.094-24.124-16.261-1.765-74.485 31.346-87.643" stroke="#231815" stroke-width="2.14" stroke-miterlimit="10"/><path d="m207.096 23-39.984 58.224 29.5-.829-18.855 51.377 50.869-67.665-29.527-1.096L207.096 23Z" fill="#FF3640"/><path d="M111.108 233.832h-11.66v14.496h11.66v-14.496ZM280.379 233.832h-11.661v14.496h11.661v-14.496Z" fill="#D6DAE1"/><path d="M222.529 248.729s-3.45 2.674 1.23 9.628c4.681 6.953 4.28 14.282-1.176 19.604 0 0-23.055-10.832-.054-29.232Z" fill="#005DFF"/></svg>