<svg viewBox="0 0 400 300" fill="none" xmlns="http://www.w3.org/2000/svg"><path d="M312.301 54.578H105.16v171.088h207.141V54.578Z" fill="#D6DAE1"/><path d="m143.672 57.306-26.211 114.041c-1.337 5.937-11.527 32.094-16.341 36.213l167.291 37.791s10.243-4.922 17.678-37.845l25.97-112.65-168.387-37.55Z" fill="#EFF2F4"/><path d="M171.111 73.78a19.392 19.392 0 0 1-19.018-23.173 19.387 19.387 0 0 1 15.235-15.234 19.39 19.39 0 0 1 23.173 19.017v.776M241.586 73.78a19.392 19.392 0 0 1-19.018-23.173 19.387 19.387 0 0 1 15.235-15.234 19.39 19.39 0 0 1 23.173 19.017v.776" stroke="#231815" stroke-width="1.952" stroke-miterlimit="10"/><path d="m186.89 116.86-25.213-5.636-4.924 22.029 25.213 5.636 4.924-22.029ZM230.166 126.521l-25.214-5.636-4.924 22.03 25.214 5.636 4.924-22.03Z" fill="#fff"/><path d="m272.199 135.921-25.214-5.636-4.924 22.03 25.214 5.635 4.924-22.029Z" fill="#005DFF"/><path d="m263.051 176.881-25.213-5.636-4.924 22.03 25.213 5.635 4.924-22.029Z" fill="#fff"/><path d="m107.03 263.002-14.308-17.277 93.099-80.557 14.309 17.304-93.1 80.53ZM205.506 154.337 215 165.811l4.547-14.389-.695-1.124-13.346 4.039Z" fill="#FF3640"/><path d="m188.897 157.867 31.185-7.702-11.768 29.767M171.568 192.342 87 265.57" stroke="#231815" stroke-width="2.781" stroke-miterlimit="10"/></svg>