<svg viewBox="0 0 400 300" fill="none" xmlns="http://www.w3.org/2000/svg"><path d="M112.779 241.95h170.714V58.157c0-14.201-6.66-19.122-13.373-19.122H102.455a11.023 11.023 0 0 1 11.138 6.98c.571 1.463.822 3.032.737 4.6v74.699" fill="#D6DAE1"/><path d="M255.409 95.681H143.642v2.621h111.767v-2.62ZM255.409 113.52H143.642v2.621h111.767v-2.621ZM255.409 131.385H143.642v2.622h111.767v-2.622ZM255.409 193.916H143.642v2.621h111.767v-2.621ZM255.409 211.781H143.642v2.622h111.767v-2.622ZM255.409 149.545H143.642v2.621h111.767v-2.621ZM184.267 167.064h-40.625v2.647h40.625v-2.647Z" fill="#fff"/><path d="M314.195 120.982H209.167v71.49h105.028v-71.49Z" fill="#EFF2F4"/><path d="M209.248 121.088v70.768h105.697v-71.222l-53.758 36.052-51.939-35.598Z" fill="#FF3640"/><path d="m209.248 121.089 53.383-38.273 52.394 38.219-105.777.054ZM220.453 183.726l41.91-41.643 45.68 42.445-87.59-.802Z" fill="#FF3640"/><path d="m228.398 175.622 33.753-34.796 34.661 35.117" stroke="#231815" stroke-width="2.14" stroke-miterlimit="10"/><path d="M156.133 83.646c6.691 0 12.116-5.425 12.116-12.116s-5.425-12.115-12.116-12.115-12.115 5.424-12.115 12.115 5.424 12.116 12.115 12.116Z" fill="#005DFF"/><path d="M247.199 135.879a5.055 5.055 0 1 0 0-10.11 5.055 5.055 0 0 0 0 10.11ZM264.824 135.879a5.055 5.055 0 1 0 0-10.11 5.055 5.055 0 0 0 0 10.11ZM282.049 135.879a5.055 5.055 0 1 0 0-10.11 5.055 5.055 0 0 0 0 10.11Z" fill="#fff"/><path d="M84 260.752s14.416-69.725 69.002-66.729c35.491 1.925 16.502 31.292-1.631 18.24-24.311-17.438-2.22-51.351 36.133-49.799M101.519 88.995s.16-21.744.16-27.28c0-5.537 2.675-11.153 10.404-11.153s11.875 4.52 11.875 11.58V78.19" stroke="#231815" stroke-width="2.14" stroke-miterlimit="10"/></svg>