<svg viewBox="0 0 400 300" fill="none" xmlns="http://www.w3.org/2000/svg"><path d="M320.858 75.988H124.522v153.036h196.336V75.988Z" fill="#D6DAE1"/><path d="M301.2 203.696H90.743V97.732l50.629-47.072H301.2v153.036Z" fill="#EFF2F4"/><path d="M170.174 58.764h15.753s2.38-20.888 23.268-20.888 20.513 20.54 20.513 23.268c0 19.177-30.115 38.674-30.115 60.578h17.465c.292-1.271.4-2.577.321-3.878 0-12.329 28.911-30.168 28.911-59.936C246.29 40.791 236.181 21 206.413 21c-29.767 0-36.239 28.51-36.239 37.764Z" fill="#FF3640"/><path d="M147.843 237.582c20.807-15.672 45.039-34.768 45.039-34.768-16.556-13.935-17.679-35.01-10.137-45.467 6.9-9.521 16.689-4.574 17.171 3.824.32 5.59-3.986 15.566 6.231 19.845 9.227 3.852 17.01-2.3 22.84-12.088 9.736-16.261-14.174-27.2-9.922-40.118 1.685-5.082 16.609-12.303 30.463 8.211 18.16 26.932-5.991 53.731-13.186 57.207-3.583 1.739-10.484.348-1.765-7.354 8.719-7.703 12.972-9.415 19.203-15.058M216.365 279.518s83.605-59.026 95.427-77.828c4.119-11.286-2.38-16.341-10.698-11.661-8.318 4.681-36.882 26.05-36.882 26.05s28.831-24.632 38.326-37.042c9.067-11.902.562-19.257-8.665-14.175-9.227 5.082-42.793 38.299-42.793 38.299" stroke="#231815" stroke-width="2.273" stroke-miterlimit="10"/><path d="M272.261 183.129s31.078-29.419 20.54-39.181c-10.538-9.762-40.653 29.847-40.653 29.847" stroke="#231815" stroke-width="2.273" stroke-miterlimit="10"/><path d="M211.364 163.845c6.293 0 11.394-5.101 11.394-11.393 0-6.292-5.101-11.393-11.394-11.393-6.292 0-11.393 5.101-11.393 11.393 0 6.292 5.101 11.393 11.393 11.393Z" fill="#FF3640"/><path d="m141.933 66.868-36.32 35.865 40.894.696v-40.92l-4.574 4.36Z" fill="#005DFF"/><path d="M132.597 39.614v51.057H79" stroke="#231815" stroke-width="2.166" stroke-miterlimit="10"/></svg>