<svg viewBox="0 0 400 300" fill="none" xmlns="http://www.w3.org/2000/svg"><path d="M24.429 176.079c-.58 14.873 11.739 23.898 36.956 27.075" stroke="#143C9B" stroke-width=".821"/><path fill-rule="evenodd" clip-rule="evenodd" d="M38.293 145.478 95.2 68.447c.31-.42.8-.667 1.32-.667h25.663c.907 0 1.642.735 1.642 1.642v40.554l-6.602-4.492a1.232 1.232 0 0 0-1.609 1.841l8.211 9.142 2.266 3.411-17.05-13.347a1.23 1.23 0 0 0-1.714 1.747l12.819 15.763c1.805 1.323-3.136-2.322-14.823-10.937l.001-.001a1.23 1.23 0 0 0-1.686 1.768c8.357 10.307 12.561 15.672 12.613 16.094.065.533-4.111-1.852-12.53-7.155l.001-.001a.821.821 0 0 0-.98 1.311c12.083 10.665 18.317 16.582 18.702 17.746.829 2.503 1.619 6.154 2.368 10.953.008.054.02.108.033.161l3.653 13.966a.678.678 0 0 1 .011.043l4.128 17.73-5.952-.006a1.642 1.642 0 0 0-1.644 1.64V231.458c0 .907-.735 1.642-1.642 1.642H85.432a1.642 1.642 0 0 1-1.642-1.642v-44.105c0-.907-.735-1.642-1.642-1.642H39.972c-.901 0-1.634-.726-1.642-1.626" fill="#3370FF"/><path fill-rule="evenodd" clip-rule="evenodd" d="M207.797 91.666c-5.928 8.911-15.045 15.111-27.351 18.601-4.288 1.216-4.315-3.92-6.855-5.71-1.313-.925-5.715-3.699-9.873 2.44-4.157 6.139 3.499 11.723 4.635 12.42.757.465 2.559.179 5.404-.856l8.108 27.884-32.075 12.523c3.224-58.24 12.604-85.376 28.143-81.406 1.378.352 2.663.638 3.855.859 12.244 2.267 13.278-12.478 25.325-9.646 12.047 2.832 7.692 21.362 7.692 21.362 2.575 1.398 5.389 6.82 5.167 11.897-.147 3.385-2.014 7.699-5.599 12.944l-3.588-22.66a1.643 1.643 0 0 0-2.988-.652Z" fill="#143C9B"/><path d="m204.023 107.755 3.957 4.976-3.037 1.165M177.5 115.317a8.017 8.017 0 0 1-5.747 3.999c-4.377.693-8.486-2.287-9.178-6.657-.692-4.371 2.295-8.475 6.672-9.169a8.013 8.013 0 0 1 6.736 2.062" stroke="#143C9B" stroke-width=".821"/><path d="M166.92 115.135a4.966 4.966 0 0 1-1.291-4.19 4.99 4.99 0 0 1 9.293-1.63" stroke="#143C9B" stroke-width=".821"/><path d="M170.024 111.116a4.97 4.97 0 0 1 1.709-4.039M204.483 131.89l1.021 7.404 4.554-1.517M169.998 119.33l5.528 34.903-2.998.475" stroke="#143C9B" stroke-width=".821"/><path d="m188.881 134.58 13.654-2.163c7.836-1.241 13.183-8.6 11.942-16.437l-4.663-29.438" stroke="#143C9B" stroke-width=".821"/><path fill-rule="evenodd" clip-rule="evenodd" d="m188.948 135.007 16.359 4.863-.791-7.767-15.568 2.904Z" fill="#143C9B"/><path d="M202.585 124.93c-.561-.172-.564-1.784-.008-3.603.556-1.818 1.461-3.153 2.021-2.982.56.171.564 1.784.008 3.603-.556 1.818-1.461 3.153-2.021 2.982Z" stroke="#143C9B" stroke-width=".821"/><path fill-rule="evenodd" clip-rule="evenodd" d="M134 161.74a13.932 13.932 0 0 1-.327-4.865c.834-7.663 7.722-13.198 15.384-12.364l27.859 3.031.169-.057-.037-.168c1.915 9.007 10.779 14.754 19.8 12.837 9.02-1.918 14.78-10.773 12.866-19.78a16.758 16.758 0 0 0-.929-2.979l26.807-8.527c6.697-2.131 13.853 1.571 15.984 8.268.076.241.146.485.208.73l19.39 76.472c2.061 8.13-2.859 16.393-10.989 18.454a15.171 15.171 0 0 1-3.728.466l-104.736.032L134 161.74Z" fill="#04D6BA"/><path d="M250.164 82.548a4.72 4.72 0 0 0 4.725-4.717 4.72 4.72 0 0 0-4.725-4.717 4.721 4.721 0 0 0-4.725 4.717 4.721 4.721 0 0 0 4.725 4.717ZM118.125 132.176l-14.333-8.439c-.423-.399-1.045-.348-1.388.114-.282.379-.295.93-.034 1.345l18.999 17.148 18.298 78.63c2.055 8.832 10.881 14.326 19.713 12.271a16.432 16.432 0 0 0 6.189-2.901l7.932-6.005" stroke="#143C9B" stroke-width=".821"/><path d="m122.018 126.119-16.412-12.883c-.57-.555-1.405-.487-1.865.151-.376.522-.392 1.284-.038 1.859l13.556 16.498" stroke="#143C9B" stroke-width=".821"/><path d="m128.587 122.399-19.359-15.929a1.354 1.354 0 0 0-1.98 1.812l16.501 20M133.699 117.681l-16.301-12.418c-.622-.459-1.562-.374-2.099.191-.439.462-.482 1.119-.104 1.603l13.153 15.107M132.833 121.575l4.429-12.973a1.643 1.643 0 0 1 3.122.043l5.428 17.473 17.954 69.88M261.587 124.692l11.898-11.671c.315-.491.932-.593 1.378-.227.366.3.513.832.359 1.298l-14.329 21.261.57 81.359c.063 9.067-7.236 16.47-16.304 16.533a16.414 16.414 0 0 1-7.546-1.777l-7.576-3.845" stroke="#143C9B" stroke-width=".821"/><path d="m256.333 119.753 12.845-16.491c.42-.677 1.249-.814 1.85-.306.492.416.692 1.153.488 1.796l-9.192 19.31" stroke="#143C9B" stroke-width=".821"/><path d="m249.043 117.734 14.974-20.164a1.354 1.354 0 0 1 2.364 1.28l-11.208 23.424M242.927 114.392l12.85-16.012c.495-.597 1.429-.742 2.088-.324.539.343.74.97.489 1.531l-9.135 17.862M244.712 117.964l-5.75-10.939a1.642 1.642 0 0 0-3.093.67l-.998 17.409-.545 72.216" stroke="#143C9B" stroke-width=".821"/><path d="M154.645 122.75V74.706c0-3.825 3.109-6.926 6.946-6.926h93.336c3.836 0 6.946 3.1 6.946 6.926v25.97" stroke="#143C9B" stroke-width=".821"/><path d="m172.722 175.258 7.395 34.869M219.968 167.464l7.395 34.869" stroke="#fff" stroke-width=".821"/><path fill-rule="evenodd" clip-rule="evenodd" d="m261.38 145.477 57.123-77.033a1.64 1.64 0 0 1 1.318-.664h25.771c.906 0 1.642.735 1.642 1.642v82.838c0 .907.735 1.642 1.641 1.642h17.352c.907 0 1.642.735 1.642 1.642v28.525c0 .907-.735 1.642-1.642 1.642h-17.134c-.907 0-1.642.735-1.642 1.642v44.105c0 .907-.735 1.642-1.642 1.642H308.69a1.642 1.642 0 0 1-1.642-1.642v-44.105c0-.907-.735-1.642-1.642-1.642h-42.348a1.642 1.642 0 0 1-1.642-1.626" fill="#3370FF"/><path d="M87.884 158.029c7.828 0 14.174-6.336 14.174-14.152 0-7.817-6.346-14.153-14.174-14.153-7.828 0-14.174 6.336-14.174 14.153 0 7.816 6.346 14.152 14.174 14.152Z" fill="#fff"/><path d="M261.462 88.086h-36.153M347.146 73.523c6.558 1.12 12.518 3.112 17.881 5.976 5.275 2.818 7.988 6.39 8.138 10.715-2.693-4.228-11.366-6.099-26.019-5.613" stroke="#143C9B" stroke-width=".821"/><path fill-rule="evenodd" clip-rule="evenodd" d="M373.41 88.264s1.971 5.198-1.103 10.925c-3.859 7.19-23.552 17.79-69.308 9.396-11.913-2.185-20.957.875-20.957.875l-9.486-16.607c16.471-1.894 33.09.072 49.856 5.9 20.603 7.16 50.239-2.368 50.998-10.49Z" fill="#FFC500"/><path fill-rule="evenodd" clip-rule="evenodd" d="M210.924 181.412h74.784a6.569 6.569 0 0 1 6.568 6.568v50.863h-87.92V187.98a6.569 6.569 0 0 1 6.568-6.568Z" fill="#DFE0E4"/><path d="M250.371 206.436h-4.112c-.907 0-1.642.735-1.642 1.641v4.1c0 .907.735 1.642 1.642 1.642h4.112c.907 0 1.642-.735 1.642-1.642v-4.1c0-.906-.735-1.641-1.642-1.641ZM33.868 168.285c-.288 16.083 5.46 27.022 17.245 32.818" stroke="#143C9B" stroke-width=".821"/><path fill-rule="evenodd" clip-rule="evenodd" d="M99.668 135.877c1.588 2.454 2.381 4.98 2.381 7.578.217 6.063-3.484 9.856-4.1 10.472-28.358 0-72.215 12.448-73.828 24.613 0 0-1.299-6.937 4.546-13.432 8.514-10.538 32.181-20.281 71.001-29.231Z" fill="#FFC500"/><path fill-rule="evenodd" clip-rule="evenodd" d="M32.215 192.898c10.286 9.707 23.904 16.299 40.854 19.776 18.11 2.608 29.048 8.186 32.814 16.734l8.91-14.343c-9.706-6.375-21.224-9.852-34.552-10.432-23.905-1.593-39.913-5.505-48.026-11.735Z" fill="#04D6BA"/><path d="m304.769 131.465-4.732 4.732a1.642 1.642 0 0 0 0 2.322l17.276 17.276a1.642 1.642 0 0 0 2.322 0l4.731-4.732a1.64 1.64 0 0 0 0-2.322l-17.275-17.276a1.642 1.642 0 0 0-2.322 0Z" fill="#fff"/><path fill-rule="evenodd" clip-rule="evenodd" d="m304.748 155.804-4.721-4.721a1.642 1.642 0 0 1 0-2.322l17.305-17.305a1.642 1.642 0 0 1 2.322 0l4.721 4.721a1.64 1.64 0 0 1 0 2.322l-17.305 17.305a1.64 1.64 0 0 1-2.322 0Z" fill="#fff"/></svg>