<svg viewBox="0 0 400 300" fill="none" xmlns="http://www.w3.org/2000/svg"><path d="M235.962 49.074h-96.508a7.315 7.315 0 0 0-7.315 7.316v168.634a7.315 7.315 0 0 0 7.315 7.316h96.508a7.315 7.315 0 0 0 7.315-7.316V56.39a7.315 7.315 0 0 0-7.315-7.316Z" fill="#fff" stroke="#143C9B" stroke-width=".914"/><path d="M301.133 163.787c31.7 0 57.398-25.679 57.398-57.356 0-31.677-25.698-57.357-57.398-57.357-31.7 0-57.399 25.68-57.399 57.357s25.699 57.356 57.399 57.356Z" fill="#04D6BA"/><path fill-rule="evenodd" clip-rule="evenodd" d="m245.243 188.054 61.148-72.82a1.832 1.832 0 0 1 2.577-.226l33.635 28.202c.774.648.876 1.801.227 2.575l-.002.001-61.148 72.82a1.833 1.833 0 0 1-2.578.225l-33.634-28.201a1.827 1.827 0 0 1-.227-2.576h.002Z" fill="#04D6BA"/><path d="M358.68 188.938H245.255a1.83 1.83 0 0 0-1.829 1.829v40.216a1.83 1.83 0 0 0 1.829 1.829H358.68a1.829 1.829 0 0 0 1.829-1.829v-40.216c0-1.01-.818-1.829-1.829-1.829Z" fill="#04D6BA"/><path fill-rule="evenodd" clip-rule="evenodd" d="m309.331 111.087-18.676-12.886a3.668 3.668 0 0 1-.936-5.09l3.302-4.795a7.316 7.316 0 0 1 10.127-1.909l14.153 9.583a7.316 7.316 0 0 1 1.759 10.436l-75.296 100.789-.02-57.373" fill="#fff"/><path d="m309.331 111.087-18.676-12.886a3.668 3.668 0 0 1-.936-5.09l3.302-4.795a7.316 7.316 0 0 1 10.127-1.909l14.153 9.583a7.316 7.316 0 0 1 1.759 10.436l-75.296 100.789-.02-57.373M300.966 90.288l-7.168 10.379M307.013 94.555l-7.134 10.31M312.704 98.468l-7.1 10.24" stroke="#143C9B" stroke-width=".914"/><path fill-rule="evenodd" clip-rule="evenodd" d="m310.027 111.923-25.09-16.15-14.784 45.637 39.874-29.487Z" fill="#fff"/><path fill-rule="evenodd" clip-rule="evenodd" d="m243.451 207.044-.258-57.253 41.526-56.482a6.387 6.387 0 0 1 8.704-1.52l2.408 1.615a12.799 12.799 0 0 1 4.179 4.635l3.994 7.535a1.827 1.827 0 0 1-2.6 2.397l-12.472-7.966" fill="#fff"/><path d="m243.451 207.044-.258-57.253 41.526-56.482a6.387 6.387 0 0 1 8.704-1.52l2.408 1.615a12.799 12.799 0 0 1 4.179 4.635l3.994 7.535a1.827 1.827 0 0 1-2.6 2.397l-12.472-7.966M200.745 137.736c0-10.096-8.24-18.28-18.404-18.28-8.446 0-15.563 5.65-17.728 13.354M168.69 136.166a16.31 16.31 0 0 0-11.624-4.828c-8.967 0-16.236 7.162-16.236 15.996M231.156 65.07a5.258 5.258 0 0 0 5.26-5.255 5.258 5.258 0 0 0-5.26-5.256 5.258 5.258 0 0 0-5.26 5.256 5.258 5.258 0 0 0 5.26 5.255ZM243.735 71.24l-96.96-.228" stroke="#143C9B" stroke-width=".914"/><path fill-rule="evenodd" clip-rule="evenodd" d="M355.33 135.452c9.329.786 16.016 2.186 20.061 4.2 3.979 1.98 6.134 4.541 6.466 7.682-6.632-3.073-15.474-4.439-26.527-4.097v-7.785Z" fill="#14C0FF"/><path d="M129.853 48.617H34.721c-1.01 0-1.828.819-1.828 1.829v31.533c0 1.01.818 1.829 1.828 1.829h95.132c1.01 0 1.829-.819 1.829-1.829V50.446c0-1.01-.819-1.829-1.829-1.829Z" fill="#04D6BA"/><path fill-rule="evenodd" clip-rule="evenodd" d="M32.664 147.106V50.218c0-1.01.819-1.829 1.829-1.829h31.559c1.01 0 1.829.819 1.829 1.829v96.888H32.664Z" fill="#04D6BA"/><path fill-rule="evenodd" clip-rule="evenodd" d="M32.768 207.953c11.621 15.107 29.889 24.844 50.432 24.844 35.11 0 63.573-28.441 63.573-63.526 0-35.084-28.463-63.526-63.573-63.526-20.444 0-38.909 10.382-50.538 25.365" fill="#04D6BA"/><path d="M85.489 183.439c9.346 0 16.922-7.571 16.922-16.91s-7.576-16.909-16.922-16.909-16.923 7.57-16.923 16.909c0 9.339 7.577 16.91 16.923 16.91Z" fill="#fff"/><path fill-rule="evenodd" clip-rule="evenodd" d="M27.861 161.045h48.48v10.968l-48.48 39.761v-50.729Z" fill="#fff"/><path fill-rule="evenodd" clip-rule="evenodd" d="m146.774 232.798-87.316-91.785a7.315 7.315 0 0 1 .126-10.213l41.19-41.22a1.828 1.828 0 0 1 3.007 1.93l-10.499 28.201 130.557 112.63-77.065.457Z" fill="#143C9B"/><path fill-rule="evenodd" clip-rule="evenodd" d="m184.736 178.412-54.01 21.95a7.315 7.315 0 0 1-9.71-4.509l-17.83-54.699a1.829 1.829 0 0 1 3.085-1.805l20.381 22.153 90.352-37.448c9.33-3.868 20.03.561 23.897 9.892a18.291 18.291 0 0 1 1.151 9.972l-14.553 88.422h-59.685l16.922-53.928Z" fill="#3370FF"/><path d="M207.606 219.544c0-10.096-8.24-18.281-18.404-18.281-8.445 0-15.562 5.651-17.727 13.354" stroke="#fff" stroke-width=".914"/><path d="M206.232 239.196c7.326 0 13.264-5.831 13.264-13.025 0-7.193-5.938-13.025-13.264-13.025M180.164 229.142c0-8.834-7.269-15.996-16.236-15.996s-16.237 7.162-16.237 15.996v3.656" stroke="#fff" stroke-width=".914"/><path d="M179.246 110.316c0-10.097 8.239-18.281 18.403-18.281 8.446 0 15.563 5.65 17.728 13.354M211.3 108.745a16.31 16.31 0 0 1 11.624-4.828c8.967 0 16.236 7.162 16.236 15.996" stroke="#143C9B" stroke-width=".914"/><path clip-rule="evenodd" d="m170.266 109.972-10.788-13.281a.457.457 0 0 0-.812.288v8.469c0 .181.106.344.271.418l10.787 4.812a.457.457 0 0 0 .542-.706ZM165.502 87.506l5.828-2.524a.457.457 0 0 1 .638.394l.971 17.082a.456.456 0 0 1-.87.219l-6.799-14.558a.457.457 0 0 1 .22-.608l.012-.005Z" stroke="#143C9B" stroke-width=".914"/><path d="M275.978 40.163c-22.563 22.85-17.38 39.684 15.55 50.5M314.396 107.802c11.434 5.636 16.084 13.482 13.95 23.536" stroke="#143C9B" stroke-width=".914"/><path clip-rule="evenodd" d="m290.019 33.288-4.26 5.653a7.066 7.066 0 0 1-4.675 2.753 7.066 7.066 0 0 1-5.253-1.358 7.067 7.067 0 0 1-2.754-4.675 7.066 7.066 0 0 1 1.359-5.253l4.259-5.653 11.324 8.533Z" stroke="#143C9B" stroke-width=".914"/><path d="m283.752 23.026-2.75 3.65M289.699 27.6l-2.75 3.65" stroke="#143C9B" stroke-width=".914"/><path fill-rule="evenodd" clip-rule="evenodd" d="M303.421 193.494a19.387 19.387 0 0 1 13.745 5.689 19.358 19.358 0 0 1 5.693 13.734c0 6.016-2.738 11.394-7.035 14.956a19.366 19.366 0 0 1-9.468 4.248l.135.219-102.204.001 2.302-1.781a33.87 33.87 0 0 1 11.128-3.219l23.703-2.612a12.18 12.18 0 0 1-2.053-2.351c-1.293-.652-2.222-1.45-2.871-2.447a6.139 6.139 0 0 1-.993-3.357c0-1.999.951-3.775 2.424-4.902 1.329-3.395 3.813-5.953 6.954-7.233.396-.161.849-1.303 1.214-2.638.181-.663.362-1.335.56-1.797.053-.125.059-.332.144-.349.457-.092 2.031 1.312 3.325 2.33.969.762 1.822 1.414 2.139 1.534 3.315 1.256 5.701 2.654 7.226 4.649 1.424 1.864 2.083 4.244 2.084 7.483-.062 1.713.42 2.879 1.351 3.557.906.66 2.287.869 4.174.537 6.768-2.365 13.376-8.073 19.872-17.179.329-.52.667-1.002 1.025-1.468 3.563-4.628 9.147-7.604 15.426-7.604Z" fill="#FFC500" stroke="#fff" stroke-width=".914"/><path d="m303.88 232.341-23.864-.396a.458.458 0 0 1-.21-.86l2.006-1.082a21.823 21.823 0 0 1 7.539-2.435l10.641-1.392 7.318-12.116M318.521 200.723c4.432 5.668 12.624 6.673 18.297 2.245 5.673-4.429 6.678-12.615 2.246-18.283" stroke="#fff" stroke-width=".914"/><path clip-rule="evenodd" d="M67.882 166.529s-51.682-1.142-53.054 37.476c.091 0 6.403-19.423 29.728-20.794l23.326-16.682Z" stroke="#143C9B" stroke-width=".914"/><path fill-rule="evenodd" clip-rule="evenodd" d="M12.998 206.291c0 15.538 11.45 28.871 38.875 30.62 23.03 1.468 62.332-10.885 101.991 11.654l1.144-30.127c-15.398-7.635-32.092-10.313-50.081-8.034-48.709 6.17-105.65 12.568-80.038-30.164-7.317 6.551-11.281 15.234-11.891 26.051Z" fill="#FFC500"/></svg>