<svg viewBox="0 0 400 300" fill="none" xmlns="http://www.w3.org/2000/svg"><path d="M290.016 237.349H127.522a6.089 6.089 0 0 1-6.088-6.089V46.708a6.088 6.088 0 0 1 6.088-6.088h162.494a6.089 6.089 0 0 1 6.089 6.088V194.54" stroke="#143C9B" stroke-width=".762"/><path d="M258.425 62.31H96.707a6.096 6.096 0 0 0-6.096 6.097V252.18a6.096 6.096 0 0 0 6.096 6.096h161.718a6.096 6.096 0 0 0 6.096-6.096V68.407a6.097 6.097 0 0 0-6.096-6.096Z" fill="#fff" stroke="#143C9B" stroke-width=".762"/><path fill-rule="evenodd" clip-rule="evenodd" d="M203.038 69.18c6.823 8.71 16.715 14.305 29.676 16.788 4.464.855 4.036-4.375 6.458-6.424 1.252-1.058 5.479-4.274 10.248 1.604 4.77 5.878-2.513 12.244-3.606 13.055-.729.54-2.584.41-5.568-.39l.681 36.61 35.391-.761c-13.866-56.898-28.518-82.633-43.954-77.207a60.5 60.5 0 0 1-3.841 1.218c-12.24 3.4-14.6-11.517-26.59-7.56-11.99 3.956-5.92 22.43-5.92 22.43-2.492 1.652-4.87 7.42-4.194 12.57.45 3.431 2.73 7.657 6.838 12.675l1.663-23.774a1.523 1.523 0 0 1 2.718-.833Z" fill="#143C9B"/><path d="m208.636 85.492-3.578 5.418 3.189.915M236.256 90.823a8.185 8.185 0 0 0 14.929-4.036 8.185 8.185 0 0 0-14.255-6.038" stroke="#143C9B" stroke-width=".762"/><path d="M246.991 89.695a5.087 5.087 0 1 0-8.647-5.21" stroke="#143C9B" stroke-width=".762"/><path d="M243.482 85.882a5.08 5.08 0 0 0-2.095-3.959M210.313 110.098l-1.902 21.433-3.974.418M244.236 94.24l-2.518 36.018 3.089.216" stroke="#143C9B" stroke-width=".762"/><path d="m226.403 111.445-15.379-1.075c-7.347-.514-12.887-6.886-12.373-14.233l2.218-31.719" stroke="#143C9B" stroke-width=".762"/><path fill-rule="evenodd" clip-rule="evenodd" d="m226.43 111.846-16.703 6.73.57-8.257 16.133 1.527Z" fill="#143C9B"/><path d="M210.739 101.236c1.433-.331 2.366-1.596 2.082-2.825-.284-1.229-1.676-1.957-3.11-1.626-1.434.331-2.366 1.596-2.082 2.825.284 1.229 1.676 1.957 3.11 1.626Z" stroke="#143C9B" stroke-width=".762"/><path d="M91.941 115.963c17.97 0 32.537-14.566 32.537-32.534 0-17.968-14.567-32.535-32.537-32.535S59.404 65.462 59.404 83.43c0 17.968 14.568 32.534 32.537 32.534Z" fill="#FFC500"/><path d="M106.344 81.473H77.541v3.556h28.803v-3.556Z" fill="#fff"/><path fill-rule="evenodd" clip-rule="evenodd" d="M90.164 97.651v-28.8h3.556v28.8h-3.556Z" fill="#fff"/><path d="M134.372 258.658h208.921V132.829a6.096 6.096 0 0 0-6.096-6.096h-.016l-28.137.075" stroke="#143C9B" stroke-width=".762"/><path fill-rule="evenodd" clip-rule="evenodd" d="M271.706 129.67c21.042-.012 38.103 17.042 38.108 38.084 0 .003 0 .006-.008.008v38.004l-27.11-.043v31.626H169.833v-34.787l-45.544-.601 37.298-59.724a26.67 26.67 0 0 1 22.621-12.543h7.698c.243-.005.487-.007.731-.008l17.028-.004c2.024 8.095 9.336 14.09 18.047 14.09 8.712 0 16.026-5.998 18.048-14.097l25.946-.005Z" fill="#04D6BA"/><path d="M170.336 158.201v23.592M283.738 185.979v15.981" stroke="#fff" stroke-width=".762"/><path d="M308.283 205.766v25.494M144.664 220.367l-46.385-83.191M166.906 182.553 118.333 91.38c-.354-.665-1.359-.822-2.246-.35-.726.386-1.167 1.089-1.076 1.715 1.944 8.05 3.136 13.586 3.575 16.607.513 3.532.389 7.367-.372 11.506" stroke="#143C9B" stroke-width=".762"/><path clip-rule="evenodd" d="M110.948 114.656a3.42 3.42 0 0 1 2.613-.252 3.42 3.42 0 0 1 2.025 1.67l4.264 8.02c.445.836.508 1.773.252 2.612a3.42 3.42 0 0 1-1.67 2.025l-1.317.701a3.418 3.418 0 0 1-2.612.251 3.415 3.415 0 0 1-2.025-1.669l-4.265-8.021a3.418 3.418 0 0 1-.251-2.612 3.418 3.418 0 0 1 1.669-2.025l1.317-.7Z" stroke="#143C9B" stroke-width=".762"/><path d="m103.104 118.827-.644.343a3.81 3.81 0 0 0-1.576 5.153l3.907 7.347a3.81 3.81 0 0 0 5.153 1.575l.644-.342a3.81 3.81 0 0 0 1.575-5.153l-3.906-7.347a3.81 3.81 0 0 0-5.153-1.576ZM95.594 122.819l-.644.343a3.81 3.81 0 0 0-1.575 5.153l3.906 7.347a3.81 3.81 0 0 0 5.153 1.576l.644-.343a3.81 3.81 0 0 0 1.576-5.153l-3.907-7.347a3.811 3.811 0 0 0-5.153-1.576Z" stroke="#143C9B" stroke-width=".762"/><path fill-rule="evenodd" clip-rule="evenodd" d="m141.059 134.121-24.456-5.19a1.524 1.524 0 0 1-.617-2.696l1.881-1.458a15.992 15.992 0 0 1 10.143-3.349l2.544.055" fill="#fff"/><path d="m141.059 134.121-24.456-5.19a1.524 1.524 0 0 1-.617-2.696l1.881-1.458a15.992 15.992 0 0 1 10.143-3.349l2.544.055" stroke="#143C9B" stroke-width=".762"/><path fill-rule="evenodd" clip-rule="evenodd" d="M247.444 182.554H48.549a3.048 3.048 0 0 0-1.928 5.409l86.631 70.732c.272.222.613.343.964.343h209.077l-91.994-75.11a6.092 6.092 0 0 0-3.855-1.374Z" fill="#3370FF"/><path clip-rule="evenodd" d="M149.573 198.917a1.14 1.14 0 0 0-1.143 1.143c0 .358.168.696.453.912l9.561 7.226c.199.15.441.231.69.231h101.223c.316 0 .601-.128.808-.335a1.143 1.143 0 0 0-.119-1.72l-9.561-7.226a1.14 1.14 0 0 0-.689-.231H149.573Z" stroke="#fff" stroke-width=".762"/><path d="M183.462 78.292H123.34c-.841 0-1.524.682-1.524 1.524v6.844c0 .842.683 1.525 1.524 1.525h60.122c.842 0 1.524-.683 1.524-1.525v-6.844c0-.842-.682-1.524-1.524-1.524Z" stroke="#143C9B" stroke-width=".762"/><path clip-rule="evenodd" d="M328.123 204.244c11.319.938 19.421 2.699 24.306 5.282 4.804 2.541 7.407 5.827 7.807 9.858-6.139-3.943-15.882-5.696-29.229-5.257l-2.884-9.883Z" stroke="#143C9B" stroke-width=".762"/><path fill-rule="evenodd" clip-rule="evenodd" d="M360.235 217.378s1.789 4.773-1.001 10.031c-3.502 6.601-21.374 16.332-62.899 8.626-10.811-2.006-19.019.803-19.019.803l-8.609-15.247c14.948-1.739 30.03.067 45.245 5.416 18.699 6.575 45.594-2.173 46.283-9.629Z" fill="#14C0FF"/></svg>