<svg viewBox="0 0 400 300" fill="none" xmlns="http://www.w3.org/2000/svg"><path d="M333.082 37.39H176.966a6.236 6.236 0 0 0-6.236 6.235V249.24a6.235 6.235 0 0 0 6.236 6.235h156.116a6.235 6.235 0 0 0 6.235-6.235V43.625a6.236 6.236 0 0 0-6.235-6.235ZM182.828 60.325l156.878.194" stroke="#143C9B" stroke-width=".779"/><path d="M326.632 54.104c2.695 0 4.879-2.175 4.879-4.858 0-2.684-2.184-4.859-4.879-4.859-2.694 0-4.878 2.175-4.878 4.859 0 2.683 2.184 4.858 4.878 4.858Z" stroke="#143C9B" stroke-width=".779"/><path fill-rule="evenodd" clip-rule="evenodd" d="M150.385 162.528c14.517-9.43 33.515-8.155 46.639 3.133a5578.99 5578.99 0 0 1 16.539 14.273 25.082 25.082 0 0 0-3.362 12.583c0 13.995 11.432 25.057 25.506 25.057 5.519 0 10.624-1.701 14.792-4.613.712.73 1.192 1.27 1.441 1.619.234 1.996 2.043 4.549 5.425 7.659 3.512 1.814 6.537 2.392 9.073 1.734 2.556.427 17.274-4.015 44.155-13.325l21.309 45.218H128.701v-19.441l-25.482-43.252 47.166-30.645Z" fill="#3370FF"/><path fill-rule="evenodd" clip-rule="evenodd" d="m347.162 215.823 4.684 14.609c3.285 10.248-2.359 21.218-12.606 24.504-1.923.616-3.93.93-5.949.93H149.094a1.559 1.559 0 0 1-.443-3.053l27.831-8.243a38.974 38.974 0 0 1 9.112-1.555l22.755-1.143 86.818-25.925 32.465-10.232c8.182-2.579 16.91 1.939 19.53 10.108Z" fill="#fff" stroke="#143C9B" stroke-width=".779"/><path d="M72.2 138.817h16.443a3.118 3.118 0 0 0 3.118-3.118v-26.773a3.117 3.117 0 0 0-3.118-3.117H67.79a6.246 6.246 0 0 0-6.24 6.235l-.074 124.337c-.019 10.761 8.7 19.49 19.461 19.497.004 0 .008 0 .012-.012H94.94c4.13 0 8.154-1.312 11.489-3.748l22.156-16.175M276.709 221.879c-1.713-5.601 3.06-12.025 10.66-14.349 7.601-2.324 15.15.333 16.862 5.934 1.713 5.601-3.06 12.026-10.66 14.349-7.601 2.324-15.15-.333-16.862-5.934ZM268.012 193.523c-1.96-6.412 2.612-13.493 10.212-15.816 7.601-2.324 15.351.99 17.311 7.401 1.96 6.411-2.612 13.492-10.212 15.816-7.601 2.324-15.351-.99-17.311-7.401ZM283.026 205.56l-6.166 4.231-1.124-3.667M287.641 207.575l-2.1-6.845M265.603 174.746a9.475 9.475 0 0 1-5.614-6.056c-1.532-4.995 1.264-10.275 6.245-11.793 4.981-1.518 10.261 1.301 11.793 6.296.89 2.9.32 5.897-1.289 8.197" stroke="#143C9B" stroke-width=".779"/><path d="M264.064 162.371a5.833 5.833 0 0 1 4.672-2.187c3.239.062 5.823 2.743 5.772 5.987a5.847 5.847 0 0 1-2.334 4.593" stroke="#143C9B" stroke-width=".779"/><path d="M269.264 165.338a5.861 5.861 0 0 1 4.992 1.338M261.182 171.534l-39.323 13.956-8.772-5.283M246.523 196.048l5.754 18.762c2.206 7.193 9.82 11.241 17.016 9.048l36.703-11.185" stroke="#143C9B" stroke-width=".779"/><path fill-rule="evenodd" clip-rule="evenodd" d="M333.012 194.8c-1.562-5.109-4.534-9.164-8.154-11.86l-4.95-16.265c-3.515-12.216-16.23-19.283-28.4-15.784a22.853 22.853 0 0 0-5.088 2.159l-10.606 6.285c2.247 2.701 3.063 5.661 2.449 8.879l10.493-.533c-.129 5.388.911 10.24 3.119 14.557 2.207 4.317 5.384 7.388 9.528 9.213-1.008 3.914-.945 8.406.424 12.883 3.304 10.806 12.963 17.432 21.574 14.799 8.612-2.633 12.915-13.527 9.611-24.333ZM261.375 171.475l-1.537-3.274-10.163 6.839M246.198 196.285l-3.033 20.408 8.833-2.8-5.8-17.608Z" fill="#143C9B"/><path d="M265.559 207.627c-1.485-1.002-2.373-2.284-1.982-2.863.391-.58 1.912-.238 3.398.764 1.485 1.002 2.372 2.284 1.981 2.864-.391.579-1.912.237-3.397-.765ZM103.086 216.602l.133-75.972-.125-3.21a7.797 7.797 0 0 0-.646-2.817l-7.558-17.295a1.56 1.56 0 0 0-2.988.625v18.872" stroke="#143C9B" stroke-width=".779"/><path d="m127.805 236.429 23.414-17.494" stroke="#fff" stroke-width=".779"/><path d="M76.293 114.167h15.61M76.293 122.331h15.61M76.293 130.106h15.61M87.998 105.809V90.167c0-14.764 11.968-26.732 26.732-26.732 14.763 0 26.731 11.968 26.731 26.732v5.376M87.805 139.242v47.427" stroke="#143C9B" stroke-width=".779"/><path fill-rule="evenodd" clip-rule="evenodd" d="M159.414 121.99c-11.944 0-21.626-9.682-21.626-21.626v-5.052h15.391a6.236 6.236 0 0 1 6.235 6.236v20.442Z" fill="#04D6BA"/><path fill-rule="evenodd" clip-rule="evenodd" d="M151.029 95.313v19.683c0 10.385-8.418 18.803-18.802 18.803-.822 0-.822-12.829 0-38.486" fill="#FFC500"/><path fill-rule="evenodd" clip-rule="evenodd" d="M122.342 121.99c11.944 0 21.626-9.682 21.626-21.626v-5.052h-15.391a6.235 6.235 0 0 0-6.235 6.236v20.442Z" fill="#04D6BA"/><path d="M61.531 192.5c-5.007 1.073-9.12 2.456-12.34 4.148-5.274 2.772-8.13 6.356-8.57 10.752 4.877-3.112 11.824-4.973 20.843-5.583" stroke="#143C9B" stroke-width=".779"/><path fill-rule="evenodd" clip-rule="evenodd" d="M40.62 205.211s-1.962 5.206 1.1 10.941c3.843 7.199 23.458 17.813 69.032 9.408 11.865-2.188 20.874.876 20.874.876l9.448-16.63c-16.406-1.896-32.958.073-49.658 5.908-20.521 7.171-50.04-2.37-50.795-10.503Z" fill="#04D6BA"/><path d="M251.894 151.293c21.988 0 39.812-17.753 39.812-39.653s-17.824-39.652-39.812-39.652c-21.988 0-39.812 17.753-39.812 39.652 0 21.9 17.824 39.653 39.812 39.653Z" fill="#FFC500"/><path d="M235.837 116.241c2.429 0 4.399-1.962 4.399-4.381 0-2.42-1.97-4.382-4.399-4.382-2.43 0-4.399 1.962-4.399 4.382 0 2.419 1.969 4.381 4.399 4.381ZM252.114 116.241c2.43 0 4.399-1.962 4.399-4.381 0-2.42-1.969-4.382-4.399-4.382-2.43 0-4.399 1.962-4.399 4.382 0 2.419 1.969 4.381 4.399 4.381ZM267.95 116.241c2.429 0 4.399-1.962 4.399-4.381 0-2.42-1.97-4.382-4.399-4.382-2.43 0-4.399 1.962-4.399 4.382 0 2.419 1.969 4.381 4.399 4.381Z" fill="#fff"/><path fill-rule="evenodd" clip-rule="evenodd" d="M249.033 151.293h-36.472a1.558 1.558 0 0 1-.813-2.889l14.63-8.941 22.655 11.83Z" fill="#FFC500"/><path clip-rule="evenodd" d="M339.295 88.315c5.158 1.5 9.282 3.698 12.37 6.59 3.038 2.847 4.478 6.342 4.322 10.486-3.882-4.416-7.154-6.74-16.692-8.538v-8.538Z" stroke="#143C9B" stroke-width=".779"/><path fill-rule="evenodd" clip-rule="evenodd" d="M356.245 103.202s2.009 5.293-1.124 11.124c-4.426 8.237-24.282 19.134-78.242 14.462l9.893-15.352c45.266 4.393 68.424.981 69.473-10.234Z" fill="#14C0FF"/></svg>