<svg viewBox="0 0 400 300" fill="none" xmlns="http://www.w3.org/2000/svg"><path d="m54.436 102.612 39.977 94.825M94.412 213.241c6.861 6.158 12.705 10.263 17.533 12.316 44.296 18.834 94.332 16.51 139.876-5.669 0 0-45.002 37.534-117.472 31.865" stroke="#143C9B" stroke-width=".833"/><path d="M319.079 77.242h23.867c3.26 0 5.902 2.793 5.902 6.238V226.55m-241.526-3.536V83.48c0-3.445 2.643-6.238 5.903-6.238h148.221" stroke="#143C9B" stroke-width=".833"/><path fill-rule="evenodd" clip-rule="evenodd" d="M142.301 124.127v2.139c0 22.769 18.551 41.226 41.434 41.226s41.434-18.457 41.434-41.226c0-10.321-3.812-19.757-10.112-26.988l-3.569-3.737c1.261 9.831-1.214 15.276-7.427 16.335 0 0 9.382 19.641-8.208 24.308-2.242.595 5.667 15.946 5.277 19.446-.479 4.282-22.408 19.191-38.894-.194-2.15-2.528-4.181-28.586-10.945-28.586-3.648 0-6.645-.908-8.99-2.723Z" fill="#3370FF"/><path d="M204.532 111.663c-5.601 1.501-11.787-3.417-13.815-10.986-2.028-7.568.87-14.92 6.472-16.421 5.602-1.501 11.787 3.417 13.815 10.986 2.028 7.568-.87 14.92-6.472 16.421ZM176.071 119.461c-6.434 1.724-13.294-3.014-15.322-10.582-2.028-7.568 1.544-15.1 7.978-16.825 6.434-1.724 13.294 3.014 15.322 10.582 2.028 7.568-1.544 15.101-7.978 16.825ZM188.318 104.986l4.024 6.179-3.767 1.009M190.361 100.625l-6.295 1.687M157.588 121.072a9.366 9.366 0 0 1-6.188 5.344c-4.999 1.339-10.135-1.616-11.471-6.602-1.336-4.986 1.634-10.114 6.633-11.454a9.364 9.364 0 0 1 8.076 1.568" stroke="#143C9B" stroke-width=".833"/><path d="M145.09 122.198a5.644 5.644 0 0 1-1.991-4.638c.181-3.165 2.93-5.607 6.14-5.455a5.777 5.777 0 0 1 4.459 2.429" stroke="#143C9B" stroke-width=".833"/><path d="M148.21 117.243a5.804 5.804 0 0 1 1.49-4.898M195.771 135.792l5.293 19.752 11.486-.001M154.006 125.472l8.303 30.028-7.605-.168" stroke="#143C9B" stroke-width=".833"/><path d="m178.045 140.855 17.519-4.694c7.78-2.085 12.396-10.082 10.312-17.861l-.009-.032-10.069-37.248" stroke="#143C9B" stroke-width=".833"/><path fill-rule="evenodd" clip-rule="evenodd" d="M179.411 54.893c-5.099 1.366-9.202 4.173-11.983 7.675l-16.231 4.327c-12.184 3.047-19.581 15.434-16.52 27.666a22.95 22.95 0 0 0 1.967 5.14l5.865 10.778c2.741-2.135 5.692-2.839 8.852-2.109l-.185-10.456c5.319.326 10.147-.53 14.485-2.568 4.337-2.038 7.474-5.084 9.412-9.14 3.834 1.147 8.275 1.25 12.743.052 10.784-2.89 17.644-12.254 15.324-20.915-2.321-8.661-12.945-13.34-23.729-10.45ZM154.002 125.184l-3.26 1.394 6.384 10.267M177.904 141.278l20.018 3.613-2.445-8.837-17.573 5.224Z" fill="#143C9B"/><path d="M190.819 122.715c-1.778.476-3.363.322-3.541-.344-.179-.666 1.117-1.592 2.895-2.068 1.777-.477 3.362-.323 3.541.343.178.666-1.118 1.592-2.895 2.069Z" stroke="#143C9B" stroke-width=".833"/><path fill-rule="evenodd" clip-rule="evenodd" d="M243.492 217.817c0-8.714-2.425-16.93-6.715-24.159-9.96-16.783-29.975-28.245-53.042-28.245-22.966 0-42.907 11.362-52.911 28.026-4.371 7.282-6.845 15.577-6.845 24.378h119.513Z" fill="#3370FF"/><path d="M290.339 190.367c19.663 0 35.604-15.921 35.604-35.559 0-19.639-15.941-35.56-35.604-35.56-19.664 0-35.605 15.921-35.605 35.56 0 19.638 15.941 35.559 35.605 35.559Z" fill="#FFC500"/><path d="M306.099 152.67H274.58v3.886h31.519v-3.886Z" fill="#fff"/><path fill-rule="evenodd" clip-rule="evenodd" d="M288.393 170.353v-31.479h3.891v31.479h-3.891Z" fill="#fff"/><path d="M282.824 107.232V138.9a1.558 1.558 0 0 1-3.063.405l-8.624-32.073M309.705 90.47v22.969a4.48 4.48 0 0 1-4.48 4.48h-1.146a3.334 3.334 0 0 1-3.334-3.333v-7.254M291.785 104.503v9.92a3.334 3.334 0 0 1-3.333 3.334h-2.293a3.334 3.334 0 0 1-3.334-3.334v-9.92" stroke="#143C9B" stroke-width=".833"/><path d="M300.746 104.503v9.92a3.334 3.334 0 0 1-3.333 3.334h-2.293a3.334 3.334 0 0 1-3.334-3.334v-9.92M261.4 76.826v44.967a1.667 1.667 0 0 0 2.87 1.153l1.61-1.681a18.29 18.29 0 0 0 5.017-11.132l.242-2.901" stroke="#143C9B" stroke-width=".833"/><path d="M257.652 77.006c0-8.138 6.659-14.736 14.873-14.736h22.308c8.214 0 14.872 6.598 14.872 14.736v13.961" stroke="#143C9B" stroke-width=".833"/><path fill-rule="evenodd" clip-rule="evenodd" d="M106.896 148.776c-12.993 10.926-23.711 22.761-32.156 35.507-33.84 51.073 44.659 70.548 75.683 68.468 2.706-.831-88.546-1.161-43.527-63.785v-40.19Z" fill="#14C0FF"/><path fill-rule="evenodd" clip-rule="evenodd" d="M200.602 245.474c31.049-18.252 54.582-29.326 70.598-33.222 24.767-6.026 73.328-7.951 101.801.99v28.553c-24.13-11.664-48.183-16.911-72.158-15.744-23.975 1.168-57.389 7.642-100.241 19.423Z" fill="#04D6BA"/><path fill-rule="evenodd" clip-rule="evenodd" d="M31.463 65.484 83.897 50.45a6.667 6.667 0 0 1 8.246 4.57l8.823 30.77a1.667 1.667 0 0 1-1.142 2.061l-55.64 15.955a1.667 1.667 0 0 1-2.06-1.143L31.462 65.484Z" fill="#fff" stroke="#143C9B" stroke-width=".833"/><path d="M52.703 84.412c4.09-1.172 6.46-5.419 5.294-9.484-1.166-4.065-5.426-6.41-9.516-5.237s-6.46 5.419-5.294 9.484c1.165 4.065 5.426 6.41 9.516 5.237Z" stroke="#143C9B" stroke-width=".833"/><path clip-rule="evenodd" d="M62.708 89.84c-1.203-4.195-5.673-6.594-9.984-5.358-4.311 1.237-6.83 5.64-5.628 9.835l15.612-4.477Z" stroke="#143C9B" stroke-width=".833"/><path d="m65.213 72.897 16.012-4.59M66.762 79.808l24.726-6.874" stroke="#143C9B" stroke-width=".833"/><path fill-rule="evenodd" clip-rule="evenodd" d="M107.322 122.991 97.006 95.884a8.335 8.335 0 0 0-1.892-2.924l-12.64-12.658a1.667 1.667 0 0 0-2.774 1.663l4.452 14.632c.039.128.062.26.07.393l.243 4.361" fill="#fff"/><path d="M107.322 122.991 97.006 95.884a8.335 8.335 0 0 0-1.892-2.924l-12.64-12.658a1.667 1.667 0 0 0-2.774 1.663l4.452 14.632c.039.128.062.26.07.393l.243 4.361" stroke="#143C9B" stroke-width=".833"/></svg>