<svg viewBox="0 0 400 300" fill="none" xmlns="http://www.w3.org/2000/svg"><ellipse cx="180.516" cy="229.413" rx="68.516" ry="40.032" stroke="#000" stroke-width="1.54"/><path d="M131.351 219.808v-28.919h95.46v28.919c0 3.808-.174 7.726-2.025 11.053-4.71 8.47-17.69 19.306-45.705 19.306-28.016 0-40.995-10.836-45.706-19.306-1.851-3.328-2.024-7.245-2.024-11.053Z" fill="#E1572B"/><ellipse rx="39.075" ry="39.671" transform="matrix(1.22192 -.04823 .08354 .70541 179.997 191.536)" fill="#FF7043"/><path fill-rule="evenodd" clip-rule="evenodd" d="M183.369 175.499c.752.039 1.483.271 1.89.685.321.326.374.695.395.87.029.236.026.506.011.782-.024.419-.082.93-.143 1.473l-.058.515c-.166 1.512-.295 3.208.037 4.582.333 1.378 1.231 3.007 2.356 4.106.335.328.646.564.909.727l.015-.15.003-.026c.066-.654.164-1.629.716-2.534.57-.934 2.096-2.257 3.441-3.219.685-.49 1.43-.965 2.108-1.29a5.702 5.702 0 0 1 1.362-.471c.3-.06.839-.137 1.477-.056.741.094 1.282.359 1.584.666.39.396.486.89.533 1.207.055.378.07.822.079 1.262l.005.244c.017.844.034 1.712.214 2.481.225.962.724 1.465 1.392 2.136.222.224.463.466.719.751 1.07 1.191 1.76 2.598 1.17 5.179-1.27 5.552-11.681 9.377-22.407 9.457-5.125.039-10.604-.723-15.003-2.28-4.431-1.567-7.853-3.98-8.491-7.196-.591-2.976.578-5.394 2.027-7.032a9.518 9.518 0 0 1 2.284-1.898 5.868 5.868 0 0 1 1.322-.576c.245-.07.688-.176 1.25-.179.674-.003 1.469.152 1.983.561.25.199.399.419.484.554.099.159.19.337.273.512.092.192.198.432.307.681.078.178.158.36.237.532.411.905.91 1.849 1.607 2.575a7 7 0 0 0 .343.332 31.698 31.698 0 0 1-.04-2.235c.053-2.139.445-4.888 2.357-7.027 1.339-1.498 3.632-3.228 5.635-4.497 1.001-.635 2-1.2 2.84-1.579a7.734 7.734 0 0 1 1.431-.504 4.905 4.905 0 0 1 1.346-.121Zm-2.305 3.764c-1.863 1.181-3.902 2.737-5.018 3.986-1.454 1.626-1.861 3.908-1.913 6.01-.021.847.015 1.625.045 2.292.007.145.014.285.019.42.015.364.025.706.008.98a2.282 2.282 0 0 1-.06.422 1.212 1.212 0 0 1-.324.579c-.523.532-1.472.84-2.526.864a6.735 6.735 0 0 1-2.335-.381c-1.243-.428-2.416-1.197-3.374-2.193-.891-.927-1.471-2.015-1.882-2.897l-.057.064c-1.123 1.269-2.111 3.24-1.616 5.733.468 2.357 2.951 4.186 6.519 5.448 3.6 1.274 8.212 1.93 12.567 1.897 9.279-.07 17.21-3.356 18.127-7.364.495-2.162-.095-3.095-.755-3.829-.14-.156-.306-.321-.486-.5-.734-.73-1.7-1.69-2.038-3.139-.183-.782-.223-1.633-.241-2.376-.98.768-1.803 1.559-2.075 2.006-.346.565-.431 1.235-.501 1.935l-.006.059c-.03.3-.065.645-.146.931a1.743 1.743 0 0 1-.262.553c-.136.186-.424.498-1.04.722a7.014 7.014 0 0 1-2.478.412 7.294 7.294 0 0 1-2.306-.399c-1.222-.424-2.162-1.127-2.871-1.82-1.448-1.416-2.484-3.349-2.873-4.959-.395-1.632-.231-3.545-.068-5.038l.053-.473-.087.055Z" fill="#fff"/><path d="M132.121 190.889v28.919c0 3.808.174 7.725 2.025 11.053 4.71 8.47 17.69 19.306 45.705 19.306 28.016 0 40.995-10.836 45.706-19.306 1.851-3.328 2.024-7.245 2.024-11.053v-28.919" stroke="#000" stroke-width="1.54"/><ellipse cx="179.852" cy="191.659" rx="47.73" ry="28.484" stroke="#000" stroke-width="1.54"/><path d="M261.664 140.773v-.002c1.306-5.189 2.306-9.421 2.664-13.156.277-2.881.7-5.867 1.881-8.632l16.217-37.97-32.599-18.443-21.413 32.533c-2.563 3.894-7.072 5.697-11.257 6.957-1.252.378-2.469.921-3.547 1.689-2.229 1.602-4.278 4.079-5.751 6.681-1.483 2.619-2.317 5.246-2.247 7.129h.001v.013c.013.626.173 1.612.411 2.734.234 1.105.531 2.289.797 3.287.448 1.686.297 3.494-.495 5.072l-16.767 33.396-.013.027-.016.026a6.393 6.393 0 0 0 .307 7.033l.001.003a6.496 6.496 0 0 0 9.023 1.501l.005-.004c.537-.37 1.033-.893 1.48-1.474l.286-.37 8.108-14.772.985-1.794.441 1.999c.029.129.058.287.091.467.298 1.639.944 5.186 5.097 7.243 2.165 1.047 4.067.325 5.516-.734l1.031-.753.185 1.263c.163 1.111.946 5.312 5.587 6.493l.006.002c1.207.317 2.495-.192 3.774-1.12l.914-.663.283 1.093h.001l.002.007.005.021.022.073a10.148 10.148 0 0 0 .411 1.07c.299.66.753 1.476 1.393 2.208.638.73 1.444 1.357 2.454 1.681.999.322 2.26.366 3.851-.167 1.526-.54 3.425-1.998 5.496-4.178 2.053-2.162 4.207-4.96 6.25-8.066 4.093-6.22 7.683-13.585 9.129-19.403Z" fill="#FEB790" stroke="#000" stroke-width="1.54"/><path d="m206.997 124.601 5.916 15.353s2.717 4.544 7.605 3.335c4.889-1.21 5.894-4.982 5.669-7.707l-6.408-22.528" stroke="#000" stroke-width="1.54" stroke-miterlimit="10" stroke-linecap="round"/><path d="M225.043 131.758s3.965.075 5.853 2.509c1.888 2.435 2.198 4.668 1.315 6.834-1.845 4.565-10.53 19.61-10.53 19.61" stroke="#000" stroke-width="1.54" stroke-miterlimit="10" stroke-linecap="round"/><path d="M232.615 139.81s3.954-3.139 8.313.674c2.334 2.025 2.891 5.168 2.009 7.335-1.713 4.308-7.98 14.704-10.675 18.844M209.246 153.436c1.852-3.968 6.176-10.961 6.176-10.961M243.504 146.161s5.791-2.942 9.92.661c2.334 2.025 3.042 4.63 2.513 7.936" stroke="#000" stroke-width="1.54" stroke-miterlimit="10" stroke-linecap="round"/><path d="M318.236 44.97c-8.249 9.88-29.354 35.678-40.202 53.927-12.682-8.68-26.841-15.903-40.34-22.692 12.422-22.142 25.162-51.346 30.427-64.382.27-.66.718-1.24 1.307-1.693a5.009 5.009 0 0 1 2.093-.928 6.077 6.077 0 0 1 2.456.033 6.37 6.37 0 0 1 2.305 1.004l.004.002 40.573 28.16c1.166.808 1.96 1.954 2.214 3.188.254 1.233-.053 2.445-.836 3.382h-.001Z" fill="#5CAFCC" stroke="#000" stroke-width="1.54"/><path d="M231.131 80.211a234.931 234.931 0 0 1 5.524-8.466c.401-.584.955-1.088 1.612-1.5.643-.419 1.372-.706 2.153-.89.729-.176 1.528-.257 2.278-.183a5.496 5.496 0 0 1 2.099.622c1.21.618 2.429 1.287 3.647 1.925 9.914 5.201 21.716 11.305 32.589 19.257 1.111.817 1.861 1.898 2.179 3.006.279 1.125.105 2.25-.489 3.186a207.469 207.469 0 0 0-5.287 9.653 4.936 4.936 0 0 1-1.476 1.701 5.63 5.63 0 0 1-2.237.903 6.683 6.683 0 0 1-2.605-.082 7.128 7.128 0 0 1-2.498-1.125c-11.294-7.729-23.206-14.726-34.872-21.38-1.328-.747-2.338-1.841-2.833-3.087-.494-1.246-.397-2.485.216-3.54Z" fill="#1C6377" stroke="#000" stroke-width="1.54"/><path d="M160.041 152.596c-1.24-9.501-6.174-29.911-15.993-35.55" stroke="#000" stroke-width="1.54" stroke-dasharray="2.31 2.31"/><path d="m131.122 137.016-1.372-3.335 2.709 2.381a6.354 6.354 0 0 0 4.905 1.54l2.896-.326-1.249 2.634a6.353 6.353 0 0 0-.134 5.139l1.372 3.335-2.709-2.38a6.35 6.35 0 0 0-4.905-1.541l-2.896.326 1.249-2.634a6.353 6.353 0 0 0 .134-5.139Z" fill="#25F4EE" stroke="#000" stroke-width="1.54" stroke-linejoin="round"/><path d="m252.994 202.231-3.51.829 2.778-2.3a6.35 6.35 0 0 0 2.295-4.6l.135-2.911 2.404 1.648a6.351 6.351 0 0 0 5.053.943l3.511-.829-2.779 2.3a6.355 6.355 0 0 0-2.295 4.6l-.135 2.911-2.403-1.648a6.354 6.354 0 0 0-5.054-.943Z" fill="#FF7043" stroke="#000" stroke-width="1.54" stroke-linejoin="round"/><circle cx="135.095" cy="112.397" r="3.079" fill="#FF7043"/><circle cx="288.293" cy="145.5" r="5.389" fill="#FDEB5A"/><path d="M239.794 197.583c5.645-9.238 22.171-26.791 43.111-23.095" stroke="#000" stroke-width="1.54"/><path d="M256.392 219.407c14.595-5.86 44.422-15.616 46.967-7.764 3.181 9.815-29.661 2.659-18.538-6.98 11.547-10.008 18.476-9.947 27.228-8.038" stroke="#000" stroke-width="1.54" stroke-linejoin="round" stroke-dasharray="2.31 2.31"/><path d="M180.629 145.403c.07.347.054.708-.046 1.049-.116.503-.354.97-.693 1.359-.34.389-.769.688-1.249.868a3.041 3.041 0 0 1-2.236.028 3.039 3.039 0 0 1-1.646-1.51 3.838 3.838 0 0 1-.356-1.464 3.234 3.234 0 0 1 .69-1.935 3.253 3.253 0 0 1 1.123-.901 3.208 3.208 0 0 1 1.396-.324c-.432-1.294-.802-2.612-1.235-3.941a6.803 6.803 0 0 0-2.785 1.123 6.902 6.902 0 0 0-2.045 2.218 6.986 6.986 0 0 0-.812 5.121c.117.443.266.878.445 1.3a6.908 6.908 0 0 0 1.939 2.554 6.837 6.837 0 0 0 2.877 1.395 6.624 6.624 0 0 0 3.849-.296 6.83 6.83 0 0 0 2.655-1.769 6.908 6.908 0 0 0 1.575-2.788 7.247 7.247 0 0 0 .039-3.868c-.821-2.569-1.682-5.123-2.523-7.685.55.152 1.11.265 1.677.336a9.676 9.676 0 0 0 3.941-.391l-1.163-3.536a6.47 6.47 0 0 1-4.212-.322 5.7 5.7 0 0 1-2.721-3.157c-1.131.398-2.252.698-3.415 1.167l4.931 15.369Z" fill="#5CAFCC"/><path d="M303.015 175.486c-.203.07-.42.09-.633.057a1.883 1.883 0 0 1-1.493-.985 1.838 1.838 0 0 1 .575-2.449 2.34 2.34 0 0 1 .85-.332 1.96 1.96 0 0 1 1.216.258 1.963 1.963 0 0 1 .939 1.412c.741-.363 1.502-.692 2.264-1.059a4.11 4.11 0 0 0-.898-1.58 4.174 4.174 0 0 0-1.496-1.048 4.23 4.23 0 0 0-3.138-.073 5.802 5.802 0 0 0-.744.372 4.19 4.19 0 0 0-1.376 1.37 4.133 4.133 0 0 0-.604 1.838 4.01 4.01 0 0 0 .489 2.286 4.17 4.17 0 0 0 3.075 2.169 4.382 4.382 0 0 0 2.324-.289c1.476-.7 2.938-1.423 4.407-2.135a7.13 7.13 0 0 0-.066 1.033c.021.806.21 1.6.553 2.333l2.028-.984a3.91 3.91 0 0 1-.147-2.552 3.443 3.443 0 0 1 1.674-1.888c-.331-.647-.602-1.295-.977-1.955l-8.822 4.201Z" fill="#FF7043"/></svg>