<svg viewBox="0 0 400 300" fill="none" xmlns="http://www.w3.org/2000/svg"><path d="m221.949 52.69 10.372 26.9 27.222-19.472-9.257 27.12 36.777-6.826-26.405 20.075 36.478 7.649-36.478 7.649 26.405 20.074-36.777-6.826v7.649H193.612v-7.649l-36.777 6.826 26.405-20.074-36.478-7.649 36.478-7.649-26.405-20.075 36.777 6.827-9.257-27.121 27.222 19.472 10.372-26.9Z" fill="#fff"/><path d="m250.412 197.543-9.354-12.269-3.429-21.613a4.868 4.868 0 0 0-8.282-2.65 4.864 4.864 0 0 0-1.392 3.445l.098 13.059-7.759 1.602-7.861 23.375 12.583 14.406 25.396-19.355Z" fill="#BBD8FF"/><path d="m206.4 167.117 28.396 12.313-3.989 11.455-29.06-13.311a5.724 5.724 0 0 1-3.08-3.486 5.726 5.726 0 0 1 .523-4.621 5.73 5.73 0 0 1 7.21-2.35Z" fill="#BBD8FF"/><path d="m200.379 176.186 28.375 12.32-3.989 11.455-29.054-13.295a5.744 5.744 0 0 1-3.079-3.487 5.726 5.726 0 0 1 .522-4.62 5.724 5.724 0 0 1 3.161-2.558 5.736 5.736 0 0 1 4.064.185Z" fill="#BBD8FF"/><path d="m197.928 185.193 28.381 12.319-3.989 11.456-29.061-13.317a5.72 5.72 0 0 1-3.08-3.486 5.726 5.726 0 0 1 .523-4.621 5.73 5.73 0 0 1 7.226-2.351Z" fill="#BBD8FF"/><path fill-rule="evenodd" clip-rule="evenodd" d="m241.057 185.274 9.354 12.269-25.395 19.355-9.75-11.162-22.009-10.085a5.727 5.727 0 0 1 .396-10.577 5.73 5.73 0 0 1-1.251-4.26c.09-.796.346-1.564.752-2.255a5.72 5.72 0 0 1 3.161-2.558 5.74 5.74 0 0 1 3.326-.076 5.726 5.726 0 0 1-.454-6.458 5.732 5.732 0 0 1 7.211-2.35l21.647 9.386-.091-12.047a4.865 4.865 0 0 1 8.008-3.753 4.865 4.865 0 0 1 1.666 2.958l3.429 21.613Z" fill="#BBD8FF"/><path d="m250.411 197.543.539-.41.411.539-.539.41-.411-.539Zm-9.354-12.269-.538.41-.104-.135-.027-.169.669-.106Zm-16.041 31.624.411.539-.504.384-.417-.477.51-.446Zm-9.75-11.162.282-.615.132.06.096.11-.51.445Zm-22.009-10.085.282-.615-.282.615Zm-1.909-1.416-.508.448.508-.448Zm-1.171-2.07.646-.204-.646.204Zm-.228-2.366.673.076-.673-.076Zm.751-2.254-.584-.343v-.001l.584.344Zm2.953-2.471.525-.428.598.735-.888.329-.235-.636Zm-1.022-1.895.646-.203-.646.203Zm.523-4.62.585.341-.001.002-.584-.343Zm3.161-2.558.211.644-.211-.644Zm3.326-.076.53-.421 1.296 1.633-2.008-.559.182-.653Zm-.976-1.837-.646.203.646-.203Zm-.229-2.366-.673-.076.673.076Zm.751-2.255-.584-.343.001-.001.583.344Zm3.161-2.537-.21-.644.21.644Zm4.05.187.268-.622.001.001-.269.621Zm21.647 9.386.677-.005.008 1.041-.955-.414.27-.622Zm-.091-12.047.678-.005-.678.005Zm1.393-3.445.483.475-.483-.475Zm3.42-1.457-.008-.678.008.678Zm3.195 1.149.437-.517-.437.517Zm1.666 2.958-.669.106.669-.106Zm12.245 34.293-9.354-12.27 1.077-.821 9.354 12.27-1.077.821Zm-25.268 18.405 25.396-19.354.821 1.077-25.395 19.355-.822-1.078Zm-8.829-11.068 9.75 11.161-1.02.892-9.75-11.162 1.02-.891Zm-.792 1.061-22.009-10.085.564-1.231 22.009 10.085-.564 1.231Zm-22.009-10.085a6.41 6.41 0 0 1-2.135-1.584l1.015-.897c.468.53 1.042.955 1.684 1.25l-.564 1.231Zm-2.135-1.584a6.407 6.407 0 0 1-1.308-2.314l1.291-.408a5.05 5.05 0 0 0 1.032 1.825l-1.015.897Zm-1.308-2.314a6.39 6.39 0 0 1-.256-2.646l1.346.152a5.044 5.044 0 0 0 .201 2.086l-1.291.408Zm-.256-2.646c.1-.89.387-1.749.84-2.521l1.168.685a5.058 5.058 0 0 0-.662 1.988l-1.346-.152Zm.84-2.522a6.404 6.404 0 0 1 3.302-2.762l.47 1.271a5.051 5.051 0 0 0-2.604 2.178l-1.168-.687Zm3.161-4.225a5.04 5.04 0 0 0 .901 1.67l-1.05.856a6.407 6.407 0 0 1-1.143-2.119l1.292-.407Zm-.202-2.086a5.064 5.064 0 0 0 .202 2.086l-1.292.407a6.402 6.402 0 0 1-.256-2.645l1.346.152Zm.663-1.988a5.049 5.049 0 0 0-.663 1.988l-1.346-.152c.101-.891.387-1.75.841-2.522l1.168.686Zm2.788-2.257a5.047 5.047 0 0 0-2.787 2.255l-1.171-.682a6.406 6.406 0 0 1 3.535-2.86l.423 1.287Zm2.933-.067a5.047 5.047 0 0 0-2.933.067l-.423-1.287a6.398 6.398 0 0 1 3.719-.085l-.363 1.305Zm-.148-2.694c.185.589.477 1.138.86 1.62l-1.061.842a6.385 6.385 0 0 1-1.091-2.055l1.292-.407Zm-.202-2.086a5.03 5.03 0 0 0 .202 2.086l-1.292.407a6.385 6.385 0 0 1-.256-2.645l1.346.152Zm.663-1.988a5.033 5.033 0 0 0-.663 1.988l-1.346-.152c.1-.89.387-1.749.84-2.522l1.169.686Zm2.786-2.236a5.054 5.054 0 0 0-2.787 2.237l-1.167-.688a6.412 6.412 0 0 1 3.534-2.837l.42 1.288Zm3.572.165a5.057 5.057 0 0 0-3.572-.165l-.42-1.288a6.415 6.415 0 0 1 4.528.209l-.536 1.244Zm21.645 9.386-21.646-9.386.538-1.243 21.647 9.386-.539 1.243Zm.857-12.674.09 12.047-1.355.01-.09-12.047 1.355-.01Zm1.198-2.965a4.185 4.185 0 0 0-1.198 2.965l-1.355.01a5.54 5.54 0 0 1 1.587-3.924l.966.949Zm2.944-1.255a4.19 4.19 0 0 0-2.944 1.255l-.966-.949a5.546 5.546 0 0 1 3.895-1.661l.015 1.355Zm2.751.99a4.195 4.195 0 0 0-2.751-.99l-.015-1.355a5.551 5.551 0 0 1 3.64 1.31l-.874 1.035Zm1.434 2.546a4.19 4.19 0 0 0-1.434-2.546l.874-1.035a5.539 5.539 0 0 1 1.898 3.369l-1.338.212Zm3.429 21.613-3.429-21.613 1.338-.212 3.429 21.613-1.338.212Z" fill="#000"/><path d="M216.373 184.145a1.064 1.064 0 0 0 .843-1.576 1.07 1.07 0 0 0-.515-.466l-15.886-6.892a1.07 1.07 0 0 0-1.416.542 1.073 1.073 0 0 0 .544 1.416l15.899 6.918c.17.063.352.083.531.058Z" fill="#09217D"/><path d="m274.018 229.658-14.929-30.047c-.664-1.335-1.497-2.626-2.775-3.394a9.403 9.403 0 0 0-10.5.546l-19.913 14.974a9.397 9.397 0 0 0-2.771 11.713c.466.934 1.215 1.684 2.007 2.365l16.883 14.511" fill="#20AEBF"/><path d="m274.018 229.658-14.929-30.047c-.664-1.335-1.497-2.626-2.775-3.394a9.403 9.403 0 0 0-10.5.546l-19.913 14.974a9.397 9.397 0 0 0-2.771 11.713c.466.934 1.215 1.684 2.007 2.365l16.883 14.511" stroke="#000" stroke-width="1.355" stroke-linecap="round" stroke-linejoin="round"/><path d="m251.06 203.767-19.407 14.593a9.156 9.156 0 0 0-1.906 12.722l18.772 25.829a10.65 10.65 0 0 0 3.171 2.889c9.611 5.708 81.442 21.991 59.594 3.423l-48.253-58.646a9.165 9.165 0 0 0-11.971-.81Z" fill="#80CBC4" stroke="#000" stroke-width="1.355" stroke-linecap="round" stroke-linejoin="round"/><path d="M213.821 192.903c-1.084-.542-7.226-3.387-10.161-4.741" stroke="#000" stroke-width="1.355" stroke-linecap="round"/><path d="m118.234 59.783 22.456-18.238 48.19 68.508s11.582 11.08 11.406 20.314c-.174 7.681-20.209 6.377-20.209 6.377s7.597 25.714 2.252 27.627c-4.914 1.777-7.258-1.337-8.265-3.322-5.606-10.997-13.946-30.487-17.886-39.538-7.063-12.624-30.974-56.715-30.974-56.715l-6.97-5.013Z" fill="#FF908E" stroke="#000" stroke-width="1.355"/><path d="M147.175 108.365c-8.943-15.193-34.801-53.222-41.535-61.578a4.465 4.465 0 0 1-.962-3.256 4.576 4.576 0 0 1 1.597-3.028l36.133-7.357a4.535 4.535 0 0 1 1.843-.955 4.454 4.454 0 0 1 2.062-.029 4.4 4.4 0 0 1 3.079 2.547c4.713 10.95 16.022 35.606 26.556 54.09-9.708 5.85-19.888 12.05-28.773 19.566Z" fill="#FDEB5A" stroke="#000" stroke-width="1.355"/><path d="M162.767 77.095a2770.5 2770.5 0 0 1 3.063-1.844 5.004 5.004 0 0 1 7.067 2.08l3.806 7.763a4.992 4.992 0 0 1-1.671 6.333c-8.091 5.511-16.354 11.32-24.059 17.78a5.003 5.003 0 0 1-4.21 1.085 5.017 5.017 0 0 1-3.474-2.618 2379.689 2379.689 0 0 0-4.353-8.457 5.016 5.016 0 0 1 1.031-5.966c6.884-6.403 14.98-11.411 22.8-16.156Z" fill="#EAC432" stroke="#000" stroke-width="1.355"/><path d="M142.321 181.973 126.44 162.03l93.076-74.118 15.881 19.942c-3.87 5.257-4.542 11.661-1.18 15.882 3.361 4.221 9.753 5 15.743 2.406l15.88 19.942-93.076 74.119-15.88-19.943c3.87-5.256 4.542-11.66 1.18-15.882-3.362-4.221-9.753-5-15.743-2.405Z" fill="#FF7043" stroke="#000" stroke-width="1.355" stroke-linejoin="round"/><circle cx="180.083" cy="155.661" r="6.561" transform="rotate(-38.531 180.083 155.661)" fill="#000"/><path d="M181.065 174.449v0c19.898 7.798 40.786-8.836 37.641-29.974v0M201.659 130.091l-6.178 13.307 12.642-1.679" stroke="#000" stroke-width="1.355" stroke-linecap="round" stroke-linejoin="round"/><path d="m168.636 129.465-5.518-15.569-8.319 5.131c.519 6.161 1.842 10.446 2.013 18.212a3.883 3.883 0 0 0 3.353 3.014 3.877 3.877 0 0 0 1.584-.146l1.515-.467a8.128 8.128 0 0 0 4.801-3.97 8.113 8.113 0 0 0 .571-6.205Z" fill="#FF908E"/><path d="M154.799 119.027c.519 6.161 1.842 10.446 2.013 18.212a3.883 3.883 0 0 0 3.353 3.014 3.877 3.877 0 0 0 1.584-.146l1.515-.467a8.128 8.128 0 0 0 4.801-3.97c.499-.945.806-1.98.904-3.045.098-1.065-.213-3.05-.531-4.071-.373-1.355-1.599-6.183-3.387-9.527" stroke="#000" stroke-width="1.355" stroke-linecap="round"/><path d="m239.498 174.894-.6-9.516a4.868 4.868 0 0 0-8.282-2.65 4.864 4.864 0 0 0-1.392 3.445l-.318 13.236 1.492.224 9.1-4.739Z" fill="#BBD8FF"/><path d="M233.412 161.013c1.321-.025 2.599.382 3.6 1.147 1.002.765 1.659 1.837 1.853 3.02l.577 9.768.782 5.271" stroke="#000" stroke-width="1.355" stroke-linecap="round"/><path d="M284.159 141.122c.163-.698 1.156-.698 1.319 0l1.724 7.369a23.63 23.63 0 0 0 11.514 15.264l3.842 2.139a.678.678 0 0 1 0 1.184l-3.842 2.139a23.63 23.63 0 0 0-11.514 15.264l-1.724 7.369c-.163.698-1.156.698-1.319 0l-1.724-7.369a23.63 23.63 0 0 0-11.514-15.264l-3.842-2.139a.678.678 0 0 1 0-1.184l3.842-2.139a23.63 23.63 0 0 0 11.514-15.264l1.724-7.369ZM205.031 84.33c.161-.7 1.16-.7 1.321 0l.276 1.205a22.754 22.754 0 0 0 10.955 14.702.626.626 0 0 1 0 1.089 22.756 22.756 0 0 0-10.955 14.703l-.276 1.204c-.161.701-1.16.701-1.321 0l-.276-1.204a22.76 22.76 0 0 0-10.955-14.703.626.626 0 0 1 0-1.089 22.757 22.757 0 0 0 10.955-14.702l.276-1.205Z" fill="#FDEB5A" stroke="#000" stroke-width="1.355" stroke-linejoin="round"/><path d="M115.932 127.753c.084-.37.611-.37.695 0l.148.659a16.643 16.643 0 0 0 7.913 10.75.265.265 0 0 1 0 .459 16.643 16.643 0 0 0-7.913 10.75l-.148.659c-.084.37-.611.37-.695 0l-.148-.659a16.643 16.643 0 0 0-7.913-10.75.266.266 0 0 1 0-.459 16.643 16.643 0 0 0 7.913-10.75l.148-.659Z" fill="#FE5274" stroke="#000" stroke-width="1.355" stroke-linejoin="round"/><circle cx="292.681" cy="121.39" r="4.299" transform="rotate(-20.09 292.681 121.39)" stroke="#000" stroke-width="1.355"/><circle cx="121.787" cy="206.538" r="3.087" transform="rotate(-20.09 121.787 206.538)" fill="#fff" stroke="#000" stroke-width="1.355"/><circle cx="144.781" cy="221.405" r="7.285" transform="rotate(-20.09 144.781 221.405)" fill="#25F4EE" stroke="#000" stroke-width="1.355"/><path d="M234.14 161.067c-1.58-.226-4.741.406-4.741 4.742 0 5.418-.678 14.902 0 18.288.677 3.387 2.032 8.129 6.096 9.484" stroke="#000" stroke-width="1.355" stroke-linecap="round"/><path d="M254.147 119.435c7.826-2.505 22.29-15.877 15.126-36.222-1.967-5.586-9.116.029-3.801 4.186 5.315 4.156 18.915-11.434 10.244-22.028M97.105 163.847c-3.147 8.236-2.548 24.261 25.024 22.466" stroke="#000" stroke-width="1.355" stroke-dasharray="2.03 2.03"/></svg>