<svg viewBox="0 0 400 300" fill="none" xmlns="http://www.w3.org/2000/svg"><path d="M298.467 136.425c14.376 36.829-22.902 75.722-43.338 90.565-8.927 7.152-35.305 22.342-69.399 25.884-42.618 4.428-86.918-24.257-91.174-65.221-4.256-40.965 22.157-57.512 52.299-72.01 30.143-14.499 31.034-39.76 63.215-43.104 32.18-3.344 70.427 17.851 88.397 63.886Z" fill="#FF7043" stroke="#000" stroke-width="1.756" stroke-linecap="round"/><mask id="a" style="mask-type:alpha" maskUnits="userSpaceOnUse" x="94" y="72" width="208" height="182"><path d="M298.467 136.424c14.376 36.828-22.902 75.721-43.338 90.564-8.927 7.153-35.305 22.342-69.399 25.885-42.618 4.428-86.918-24.257-91.174-65.222-4.256-40.965 22.157-57.511 52.299-72.01 30.143-14.498 31.034-39.76 63.215-43.103 32.18-3.344 70.427 17.851 88.397 63.886Z" fill="#FF7043"/></mask><g mask="url(#a)"><path d="m185.727 193.129-.104-.056-.116-.027-.002-.001-.011-.002-.043-.011a45.065 45.065 0 0 1-.862-.218 79.787 79.787 0 0 1-10.556-3.635c-6.188-2.648-12.935-6.602-15.938-11.906h-.001c-1.087-1.917-.691-4.079.818-6.441 1.511-2.364 4.033-4.741 6.787-6.88 2.742-2.129 5.653-3.977 7.885-5.296a87.453 87.453 0 0 1 3.489-1.953l.202-.105.05-.026.013-.006.002-.001.001-.001 1.122-.569-.922-.857-.597.643.597-.643-.001-.001-.003-.003-.015-.013-.057-.053-.224-.211a207.838 207.838 0 0 1-3.859-3.751c-2.469-2.461-5.705-5.802-8.78-9.328-3.083-3.534-5.973-7.217-7.777-10.369-.905-1.58-1.506-2.975-1.743-4.117-.237-1.148-.08-1.887.307-2.353l.001-.001c2.147-2.599 4.305-3.348 6.168-3.333 1.916.015 3.655.84 4.9 1.63h.001c14.445 9.155 38.41 25.579 49.511 33.593l.035.026.037.021c14.284 8.303 65.253 35.382 82.757 44.66v.001a6.218 6.218 0 0 1 2.721 8.141v.001l-14.49 30.931-.001.003a6.238 6.238 0 0 1-3.691 3.243 6.213 6.213 0 0 1-4.895-.442l-92.716-50.284Z" fill="#FBB793" stroke="#000" stroke-width="1.756"/></g><path d="M298.467 136.424c14.376 36.828-22.902 75.721-43.338 90.564-8.927 7.152-35.305 22.342-69.399 25.885-42.618 4.428-86.918-24.257-91.174-65.222-4.256-40.965 22.157-57.512 52.299-72.01 30.143-14.498 31.034-39.76 63.215-43.104 32.18-3.343 70.427 17.852 88.397 63.887Z" stroke="#000" stroke-width="1.756" stroke-linecap="round"/><path d="m119.072 53.825 5.607-2.79a1.758 1.758 0 0 1 1.397-.073l5.575 2.08 13.758-3.129 12.972 1.565h13.365l12.578 1.565 13.758-3.13 12.972 3.13 11.405-1.336a1.756 1.756 0 0 1 1.96 1.744v126.39c0 7.757-6.289 14.046-14.046 14.046h-77.254c-7.758 0-14.047-6.289-14.047-14.046V53.825Z" fill="#FDEB5A" stroke="#000" stroke-width="1.756"/><path d="M126.096 58.692h87.789" stroke="#000" stroke-width="1.756" stroke-dasharray="3.51 3.51"/><circle cx="151.555" cy="99.953" r="9.657" stroke="#000" stroke-width="1.756"/><path d="M198.192 113.121c-.688 0-1.205-.172-1.894-.516l-17.562-10.504c-1.034-.689-1.722-1.894-1.722-3.1 0-1.204.861-2.41 1.894-3.099L200.087 85.4a3.451 3.451 0 0 1 4.649 1.55 3.452 3.452 0 0 1-1.55 4.649l-15.325 7.748 12.053 7.232c1.722 1.033 2.239 3.099 1.206 4.821-.689 1.206-1.722 1.722-2.928 1.722Z" stroke="#000" stroke-width="1.756" stroke-linejoin="round"/><path d="M141.898 127.167v0c12.061 21.01 42.369 21.01 54.43 0v0" stroke="#000" stroke-width="5.267" stroke-linecap="round" stroke-linejoin="round"/><circle cx="205.886" cy="163.085" r="39.879" fill="#fff" stroke="#000" stroke-width="1.858"/><path d="m186.369 165.694 10.89 11.787c.767.83 2.091.789 2.805-.087l21.79-26.729" stroke="#000" stroke-width="1.858" stroke-linecap="round" stroke-linejoin="round"/><circle cx="198.789" cy="166.633" r="40.808" fill="#00897B" fill-opacity=".65" style="mix-blend-mode:multiply"/><path d="m234.034 175.62 20.926 16.524 8.694-9.562-22.845-23.528a4.908 4.908 0 0 0-7.203.534l-1.254 1.578a10.276 10.276 0 0 0 1.682 14.454Z" fill="#FBB793"/><path d="M249.799 188.926c-1.061-.838-18.189-14.417-18.848-15.597a10.275 10.275 0 0 1 .923-11.398l1.254-1.579a4.91 4.91 0 0 1 7.202-.533l23.326 22.764" stroke="#000" stroke-width="1.756" stroke-linecap="round"/><path d="M312.775 116.239a3.11 3.11 0 0 0-.819-1.959c-.451-.506-1.089-.636-1.782-.502-1.971.424-19.524 3.868-31.867 10.031-3.084-1.182-6.437-1.591-9.845-1.185-16.673 2.935-33.367 21.166-34.061 21.851-1.015 1.171-1.181 3.067-.306 4.211.344.484.849.725 1.275.812l.319.065c.666-.002 1.279-.29 1.839-.865 0 0 16.08-17.392 31.154-20.101.799-.113 1.465-.115 2.237-.095-6.005 4.977-6.847 10.181-5.526 13.483 1.32 3.303 5.174 5.055 10.022 4.116 2.53-.448 5.062-1.447 7.435-2.755 5.973-3.19 6.677-7.182 6.233-9.892-.444-2.709-2.46-4.776-4.372-6.269 8.528-3.22 17.134-5.735 25.79-7.413.693-.134 1.226-.576 1.681-1.173.375-.75.537-1.544.593-2.36Zm-31.691 21.646c-6.719 3.59-10.709 2.499-11.29 1.002-.29-.749.516-3.065 3.852-5.83 1.441-1.084 2.855-2.036 4.348-2.833 3.376 1.379 5.845 3.399 6.107 4.831.131.441-.884 1.612-3.017 2.83Z" fill="#FE5274" stroke="#000" stroke-width="1.756"/><path d="M267.925 82.11a.371.371 0 0 1 .138-.236.42.42 0 0 1 .25-.077c.1 0 .188.031.25.077.054.04.11.107.138.235l.181.824a20.547 20.547 0 0 0 9.589 13.265.283.283 0 0 1 0 .487 20.546 20.546 0 0 0-9.589 13.264l-.181.824a.369.369 0 0 1-.138.235.422.422 0 0 1-.25.077.42.42 0 0 1-.25-.077.369.369 0 0 1-.138-.235l-.181-.824a20.544 20.544 0 0 0-9.59-13.264.284.284 0 0 1 0-.487 20.545 20.545 0 0 0 9.59-13.265l.181-.824Z" fill="#25F4EE" stroke="#000" stroke-width="1.756" stroke-linejoin="round"/><path d="M169.036 208.61a.119.119 0 0 1 .015-.04.017.017 0 0 1 .006-.006c.006-.005.025-.014.056-.014s.049.009.055.014a.017.017 0 0 1 .006.006.119.119 0 0 1 .015.04l.139.594a15.706 15.706 0 0 0 7.639 10.142 15.701 15.701 0 0 0-7.639 10.142l-.139.593a.119.119 0 0 1-.015.04c-.002.004-.004.005-.006.007a.1.1 0 0 1-.055.014.104.104 0 0 1-.056-.014c-.002-.002-.004-.003-.006-.007a.119.119 0 0 1-.015-.04l-.138-.593a15.703 15.703 0 0 0-7.64-10.142 15.707 15.707 0 0 0 7.64-10.142l.138-.594Z" fill="#FDEB5A" stroke="#000" stroke-width="1.756" stroke-linejoin="round"/><circle cx="318.727" cy="138.951" r="5.572" transform="rotate(-20.09 318.727 138.951)" stroke="#000" stroke-width="1.756"/><path d="M142.442 204.894c-9.173 11.709-35.821 29.777-69.018 8.378M241.1 121.906c18.201-19.577-5.104-34.624 9.656-52.68" stroke="#000" stroke-width="1.756" stroke-dasharray="2.63 2.63"/></svg>