<svg viewBox="0 0 400 300" fill="none" xmlns="http://www.w3.org/2000/svg"><path d="M50.206 137.501c9.413-29.048 50.511-34.308 69.884-33.307 8.789.037 31.86 3.709 53.837 18.103 27.47 17.994 39.8 56.657 22.36 83.282-17.439 26.626-41.193 23.75-66.162 17.84-24.97-5.911-37.813 8.804-58.556-4.782-20.744-13.587-33.129-44.826-21.363-81.136Z" fill="#FF7043" stroke="#000" stroke-width="1.369" stroke-linecap="round"/><path d="m105.017 94.634 3.796-1.904a1.367 1.367 0 0 1 1.095-.057l3.771 1.418 9.475-2.172 8.933 1.086h9.204l8.662 1.086 9.475-2.172 8.933 2.172 7.674-.905a1.37 1.37 0 0 1 1.53 1.359v86.348c0 6.048-4.903 10.95-10.951 10.95h-50.647c-6.048 0-10.95-4.902-10.95-10.95V94.634ZM188.515 94.634l3.796-1.904a1.367 1.367 0 0 1 1.095-.057l3.771 1.418 9.475-2.172 8.933 1.086h9.204l8.662 1.086 9.475-2.172 8.933 2.172 7.674-.905a1.37 1.37 0 0 1 1.53 1.359v86.348c0 6.048-4.903 10.95-10.951 10.95h-50.647c-6.048 0-10.95-4.902-10.95-10.95V94.634ZM272.013 94.634l3.796-1.904a1.367 1.367 0 0 1 1.095-.057l3.771 1.418 9.475-2.172 8.933 1.086h9.204l8.662 1.086 9.475-2.172 8.933 2.172 7.674-.905a1.37 1.37 0 0 1 1.53 1.359v86.348c0 6.048-4.903 10.95-10.951 10.95h-50.647c-6.048 0-10.95-4.902-10.95-10.95V94.634Z" fill="#FDEB5A" stroke="#000" stroke-width="1.369"/><path d="M111.86 100.132h60.229M195.358 100.132h60.229M278.857 100.132h60.229" stroke="#000" stroke-width="1.369" stroke-dasharray="2.74 2.74"/><circle cx="128.286" cy="126.14" r="6.844" stroke="#000" stroke-width="1.369"/><circle cx="210.416" cy="126.14" r="6.844" stroke="#000" stroke-width="1.369"/><circle cx="239.162" cy="126.14" r="6.844" stroke="#000" stroke-width="1.369"/><path d="M159.495 135.721c-.436 0-.763-.117-1.199-.352l-11.125-7.165a2.677 2.677 0 0 1-1.091-2.114c0-.822.545-1.645 1.2-2.114l13.415-7.165c1.091-.588 2.4-.118 2.945 1.057.545 1.174.109 2.584-.982 3.171l-9.707 5.286 7.635 4.933c1.091.705 1.418 2.114.764 3.289-.437.822-1.091 1.174-1.855 1.174Z" stroke="#000" stroke-width="1.369" stroke-linejoin="round"/><path d="M121.441 143.934v0c7.937 14.697 29.023 14.697 36.959 0v0M204.94 143.934v0c7.937 14.697 29.023 14.697 36.959 0v0M287.07 143.934v0c8.387 14.977 29.941 14.977 38.328 0v0" stroke="#000" stroke-width="4.106" stroke-linecap="round" stroke-linejoin="round"/><circle cx="165.322" cy="169.795" r="27.42" fill="#fff" stroke="#000" stroke-width="1.449"/><path d="m151.86 171.595 7.38 7.987c.598.647 1.63.615 2.187-.068l14.906-18.285" stroke="#000" stroke-width="1.449" stroke-linecap="round" stroke-linejoin="round"/><circle cx="160.426" cy="172.242" r="28.144" fill="#00897B" fill-opacity=".65" style="mix-blend-mode:multiply"/><circle cx="248.397" cy="169.795" r="27.42" fill="#fff" stroke="#000" stroke-width="1.449"/><path d="m234.937 171.595 7.379 7.987a1.449 1.449 0 0 0 2.187-.068l14.907-18.285" stroke="#000" stroke-width="1.449" stroke-linecap="round" stroke-linejoin="round"/><circle cx="331.474" cy="169.795" r="27.42" fill="#fff" stroke="#000" stroke-width="1.449"/><path d="m318.014 171.595 7.38 7.987c.597.647 1.63.615 2.187-.068l14.906-18.285" stroke="#000" stroke-width="1.449" stroke-linecap="round" stroke-linejoin="round"/><mask id="a" style="mask-type:alpha" maskUnits="userSpaceOnUse" x="46" y="103" width="160" height="125"><path d="M50.574 136.815c9.382-29.124 50.724-34.275 70.222-33.211 8.845.064 32.073 3.821 54.232 18.335 27.7 18.143 40.226 56.985 22.759 83.653-17.467 26.668-41.379 23.708-66.525 17.699-25.145-6.009-38.024 8.72-58.94-4.98-20.916-13.7-33.476-45.09-21.748-81.496Z" fill="#FF7043"/></mask><g mask="url(#a)"><path d="m73.616 216.291-4.251-32.496c-.103-.463-.159-.931-.22-1.446-1.21-10.16-.508-26.579 15.825-34.176.809-.381 1.665-.768 2.444-1.003a12.029 12.029 0 0 1 2.605-.453l19.342-1.07c2.925-.159 5.363 1.973 5.453 4.716.067 2.556-1.905 4.738-4.527 5.051l2.311-.133c3.066-.176 5.65 1.986 5.74 4.729.069 2.176-1.457 4.115-3.654 4.804l-1.628.289a6.349 6.349 0 0 0 1.628-.289l2.17-.116c3.066-.175 5.65 1.986 5.74 4.73.086 2.316-1.628 4.277-3.976 4.89 2.936-.065 5.421 2.06 5.505 4.757.084 2.697-2.257 4.97-5.281 5.093l-11.682.394 3.825 12.176.673 2.864a12.51 12.51 0 0 1-6.177 12.322l5.142 38.773-31.979 3.81-5.028-38.216Z" fill="#FBB793"/><path d="M114.684 164.814c2.197-.689 3.723-2.628 3.654-4.804-.09-2.743-2.674-4.905-5.74-4.729l-2.311.133c2.622-.313 4.594-2.495 4.527-5.051-.09-2.743-2.528-4.875-5.453-4.716l-19.342 1.07c-.989.07-1.732.206-2.605.453-.78.235-1.635.622-2.445 1.003-16.332 7.597-17.035 24.016-15.824 34.176.061.515.117.983.22 1.446l4.251 32.496 5.028 38.216 31.979-3.81-5.142-38.773a12.51 12.51 0 0 0 6.177-12.322l-.673-2.864-3.825-12.176 11.682-.394c3.024-.123 5.365-2.396 5.281-5.093-.084-2.697-2.569-4.822-5.505-4.757 2.348-.613 4.062-2.574 3.976-4.89-.09-2.744-2.674-4.905-5.74-4.73l-2.17.116Zm0 0-1.628.289a6.349 6.349 0 0 0 1.628-.289Z" stroke="#000" stroke-width="1.369"/><path d="M89.896 156.846s8.868-1.294 20.443-1.391M94.158 166.31s8.868-1.294 20.443-1.391M98.603 175.705s8.868-1.294 20.443-1.391" stroke="#000" stroke-width="1.369" stroke-miterlimit="10" stroke-linecap="round"/><path d="M50.206 137.501c-11.765 36.31.62 67.549 21.363 81.136 20.743 13.586 33.586-1.129 58.556 4.782" stroke="#000" stroke-width="1.369" stroke-linecap="round"/></g><path d="M93.334 128.09c.6-.25.972-.642 1.228-1.106.257-.463.191-.97-.082-1.451-.81-1.357-7.767-13.529-15.4-21.141.086-2.591-.461-5.186-1.62-7.617-6.363-11.646-23.936-19.432-24.613-19.774-1.114-.458-2.545-.1-3.162.84a1.642 1.642 0 0 0-.273 1.153l.033.254c.17.494.536.876 1.099 1.147 0 0 16.803 7.542 22.596 18.058.285.566.454 1.06.635 1.638-5.163-3.201-9.188-2.507-11.273-.69-2.085 1.819-2.395 5.128-.482 8.492.967 1.767 2.339 3.395 3.896 4.828 3.847 3.63 6.948 3.142 8.821 2.125 1.873-1.017 2.877-3.039 3.488-4.838 4.514 5.521 8.53 11.279 11.947 17.287.273.481.732.765 1.283.952.645.089 1.267.008 1.879-.157ZM69.47 110.024c-4.327-4.084-4.536-7.325-3.586-8.136.475-.406 2.375-.394 5.243 1.385 1.159.796 2.213 1.605 3.175 2.513-.157 2.858-1.014 5.205-1.997 5.763-.289.209-1.403-.248-2.835-1.525Z" fill="#25F4EE" stroke="#000" stroke-width="1.369"/><path d="M300.798 131.615a2.475 2.475 0 0 1-1.601-.627 3.229 3.229 0 0 1-.977-1.612c-.387-1.149-1.071-2.128-1.957-2.798-.885-.671-1.928-.999-2.982-.94-1.057-.068-2.105.262-2.991.942-.885.681-1.561 1.675-1.929 2.839a3.377 3.377 0 0 1-.536 1.085 2.845 2.845 0 0 1-.849.763 2.372 2.372 0 0 1-2.094.158 2.585 2.585 0 0 1-.929-.576 3.117 3.117 0 0 1-.669-.949 3.565 3.565 0 0 1-.307-1.178 3.68 3.68 0 0 1 .102-1.225c.731-2.464 2.115-4.589 3.951-6.063 1.836-1.475 4.027-2.222 6.251-2.131 2.204-.05 4.366.715 6.178 2.185 1.811 1.471 3.182 3.574 3.916 6.009a3.661 3.661 0 0 1-.195 2.425 3.134 3.134 0 0 1-.672.961 2.616 2.616 0 0 1-.935.584c-.252.09-.512.14-.775.148ZM330.733 131.615a2.738 2.738 0 0 1-1.707-.627 3.205 3.205 0 0 1-1.043-1.612c-.412-1.149-1.142-2.128-2.087-2.798a5.025 5.025 0 0 0-3.181-.94 4.94 4.94 0 0 0-3.19.942c-.945.681-1.666 1.675-2.059 2.839a3.296 3.296 0 0 1-.57 1.085 3 3 0 0 1-.906.763 2.683 2.683 0 0 1-2.234.158 2.796 2.796 0 0 1-.991-.576 3.11 3.11 0 0 1-.713-.949 3.386 3.386 0 0 1-.328-1.178 3.46 3.46 0 0 1 .109-1.225c.779-2.464 2.256-4.589 4.214-6.063 1.959-1.475 4.295-2.222 6.668-2.131 2.351-.05 4.657.715 6.589 2.185 1.933 1.471 3.395 3.574 4.178 6.009a3.449 3.449 0 0 1-.209 2.425 3.126 3.126 0 0 1-.716.961 2.85 2.85 0 0 1-1.824.732Z" stroke="#000" stroke-width="1.369"/><path d="M76.8 126.888c.014-.058.037-.081.053-.092a.168.168 0 0 1 .102-.03c.044 0 .08.013.102.03.016.011.04.034.054.092l.12.49a13.874 13.874 0 0 0 6.997 8.945.083.083 0 0 1 .038.034.098.098 0 0 1 .012.049c0 .02-.005.037-.012.049a.088.088 0 0 1-.038.034 13.87 13.87 0 0 0-6.996 8.944l-.121.491c-.015.058-.038.08-.054.092a.175.175 0 0 1-.102.03.175.175 0 0 1-.102-.03c-.016-.012-.04-.034-.054-.092l-.12-.491a13.869 13.869 0 0 0-6.997-8.944.089.089 0 0 1-.038-.034.098.098 0 0 1-.012-.049c0-.02.005-.037.012-.049a.083.083 0 0 1 .038-.034 13.873 13.873 0 0 0 6.996-8.945l.121-.49Z" fill="#FDEB5A" stroke="#000" stroke-width="1.369" stroke-linejoin="round"/><path d="M66.004 144.184a8.12 8.12 0 0 0 3.425 4.541 8.123 8.123 0 0 0-3.425 4.542 8.123 8.123 0 0 0-3.425-4.542 8.12 8.12 0 0 0 3.425-4.541Z" fill="#8021F3" stroke="#000" stroke-width="1.369" stroke-linejoin="round"/><path d="M192.814 216.25a5.386 5.386 0 1 0-1.647-10.645 5.386 5.386 0 0 0 1.647 10.645Z" fill="#fff" stroke="#000" stroke-width="1.369"/><path d="M61.523 123.837a5.434 5.434 0 1 1-10.741 1.661 5.434 5.434 0 0 1 10.74-1.661Z" fill="#FE5274" stroke="#000" stroke-width="1.369"/><path d="M34.43 146.534c5.656 15.894 20.869 7.232 26.676 20.755" stroke="#000" stroke-width="1.369" stroke-dasharray="2.05 2.05"/></svg>