<svg viewBox="0 0 400 300" fill="none" xmlns="http://www.w3.org/2000/svg"><path d="M299.611 115.574c11.037 40.426-32.191 77.368-55.184 90.787-10.117 6.566-39.365 19.698-75.418 19.698-45.067 0-88.294-35.115-88.294-78.795s29.431-58.24 62.542-70.23c33.11-11.991 36.789-38.542 70.819-38.542s71.739 26.55 85.535 77.082Z" fill="#FF7043" stroke="#000" stroke-width="1.839" stroke-linecap="round"/><path d="m143.236 121.262 5.213-2.601a1.84 1.84 0 0 1 1.465-.076l5.179 1.938 12.968-2.958 12.228 1.479h12.598l11.856 1.479 12.969-2.958 12.227 2.958 10.544-1.238a1.839 1.839 0 0 1 2.054 1.826v117.821c0 8.124-6.587 14.711-14.711 14.711h-69.878c-8.125 0-14.712-6.587-14.712-14.711v-117.67Z" fill="#FDEB5A" stroke="#000" stroke-width="1.839"/><path d="M150.593 124.92h82.75" stroke="#000" stroke-width="1.839" stroke-dasharray="3.68 3.68"/><circle cx="174.498" cy="163.537" r="9.194" stroke="#000" stroke-width="1.839"/><path d="M217.813 176.409c-.631 0-1.105-.158-1.736-.473l-16.095-9.626c-.947-.631-1.578-1.735-1.578-2.84 0-1.104.789-2.209 1.736-2.84l19.409-9.626a3.163 3.163 0 0 1 4.26 1.42 3.163 3.163 0 0 1-1.42 4.261l-14.044 7.101 11.046 6.627c1.578.947 2.051 2.84 1.104 4.418-.631 1.105-1.577 1.578-2.682 1.578Z" stroke="#000" stroke-width="1.839" stroke-linejoin="round"/><path d="M165.304 189.281v0c11.267 20.12 40.222 20.12 51.489 0v0" stroke="#000" stroke-width="5.517" stroke-linecap="round" stroke-linejoin="round"/><circle cx="225.406" cy="224.018" r="37.651" fill="#fff" stroke="#000" stroke-width="1.946"/><path d="m206.933 226.488 10.16 10.997c.803.87 2.19.827 2.938-.091l20.488-25.131" stroke="#000" stroke-width="1.946" stroke-linecap="round" stroke-linejoin="round"/><circle cx="218.687" cy="227.376" r="38.624" fill="#00897B" fill-opacity=".65" style="mix-blend-mode:multiply"/><mask id="a" style="mask-type:alpha" maskUnits="userSpaceOnUse" x="78" y="38" width="224" height="189"><path d="M299.598 115.574c11.129 40.426-32.459 77.368-55.644 90.787-10.201 6.566-39.692 19.698-76.046 19.698-45.442 0-89.03-35.115-89.03-78.795s29.677-58.24 63.063-70.23c33.386-11.991 37.096-38.542 71.409-38.542 34.314 0 72.337 26.55 86.248 77.082Z" fill="#FF7043"/></mask><g mask="url(#a)"><path d="m272.187 66.658-44.974-.518c-.647-.065-1.294-.065-2.006-.065-14.042 0-36.302 3.624-44.002 27.114-.389 1.165-.777 2.394-.971 3.494a16.572 16.572 0 0 0-.194 3.624l1.682 26.531c.259 4.012 3.559 6.989 7.313 6.665 3.494-.324 6.147-3.365 6.147-6.989l.194 3.171c.259 4.206 3.624 7.377 7.377 7.053 2.977-.258 5.371-2.653 5.953-5.759l.13-2.265c.064.777 0 1.553-.13 2.265l.194 2.977c.259 4.206 3.624 7.377 7.377 7.053 3.171-.259 5.565-2.912 6.018-6.212.389 4.012 3.689 7.054 7.377 6.73 3.689-.324 6.407-3.883 6.083-8.024l-1.359-15.983 17.213 3.235 4.012.453c7.118 0 13.201-4.335 15.789-10.418l53.671.712V67.305l-52.894-.647Z" fill="#FBB793"/><path d="M208.706 130.979c-.582 3.106-2.976 5.501-5.953 5.759-3.753.324-7.118-2.847-7.377-7.053l-.194-3.171c0 3.624-2.653 6.665-6.147 6.989-3.754.324-7.054-2.653-7.313-6.665l-1.682-26.531c-.065-1.359 0-2.394.194-3.624.194-1.1.582-2.33.971-3.494 7.7-23.49 29.96-27.114 44.002-27.114.712 0 1.359 0 2.006.065l44.974.518 52.894.647v44.197l-53.671-.712c-2.588 6.083-8.671 10.418-15.789 10.418l-4.012-.453-17.213-3.235 1.359 15.983c.324 4.141-2.394 7.7-6.083 8.024-3.688.324-6.988-2.718-7.377-6.73-.453 3.3-2.847 5.953-6.018 6.212-3.753.324-7.118-2.847-7.377-7.053l-.194-2.977Zm0 0 .13-2.265c.064.777 0 1.553-.13 2.265Z" stroke="#000" stroke-width="1.839"/><path d="M193.823 98.494s-.323 12.295 1.424 28.084M207.413 102.767s-.323 12.294 1.424 28.084M220.937 107.296s-.324 12.295 1.423 28.084" stroke="#000" stroke-width="1.817" stroke-miterlimit="10" stroke-linecap="round"/></g><path d="M299.543 115.378c-13.791-50.403-51.489-76.886-85.508-76.886-34.02 0-37.698 26.483-70.798 38.443-33.1 11.96-62.522 26.483-62.522 70.052" stroke="#000" stroke-width="1.839" stroke-linecap="round"/><path d="M131.619 170.17h-19.965v-28.7" stroke="#000" stroke-width="1.839" stroke-linecap="round" stroke-linejoin="round"/><path d="m126.68 163.931 6.239 6.239-6.239 6.239" stroke="#000" stroke-width="1.839" stroke-linecap="round" stroke-linejoin="round"/><path d="M272.234 161.33c.156-.686 1.134-.686 1.289 0l.228 1.003a25.358 25.358 0 0 0 12.118 16.381c.35.201.35.706 0 .907a25.358 25.358 0 0 0-12.118 16.381l-.228 1.003c-.155.686-1.133.686-1.289 0l-.228-1.003a25.356 25.356 0 0 0-12.117-16.381.522.522 0 0 1 0-.907 25.356 25.356 0 0 0 12.117-16.381l.228-1.003Z" fill="#25F4EE" stroke="#000" stroke-width="1.839" stroke-linejoin="round"/><path d="M322.449 134.824c.006-.027.013-.039.016-.042.002-.004.004-.005.006-.007a.098.098 0 0 1 .058-.015c.032 0 .052.01.058.015.002.002.004.003.006.007a.12.12 0 0 1 .016.042l.145.621a16.445 16.445 0 0 0 8.001 10.622 16.45 16.45 0 0 0-8.001 10.622l-.145.622a.12.12 0 0 1-.016.042c-.002.004-.004.005-.006.007a.098.098 0 0 1-.058.015.098.098 0 0 1-.058-.015c-.002-.002-.004-.003-.006-.007-.003-.003-.01-.015-.016-.042l-.145-.622a16.45 16.45 0 0 0-8.001-10.622 16.445 16.445 0 0 0 8.001-10.622l.145-.621Z" fill="#FDEB5A" stroke="#000" stroke-width="1.839" stroke-linejoin="round"/><path transform="rotate(-20.575 80.969 74.399)" fill="url(#b)" stroke="#000" stroke-width="1.839" stroke-linejoin="round" d="M80.969 74.399h39.382v61.886H80.969z"/><path d="M118.793 99.69c-.123 9.978-8.311 17.967-18.288 17.844-9.977-.123-17.966-8.311-17.843-18.288.123-9.977 8.31-17.966 18.288-17.843 9.977.123 17.966 8.31 17.843 18.288Z" fill="#fff" stroke="#000" stroke-width="1.839"/><path fill-rule="evenodd" clip-rule="evenodd" d="M101.81 90.235a.858.858 0 0 1 .67.44c.112.206.128.439.135.55.008.148.005.318-.003.492-.011.263-.036.585-.062.926l-.025.324c-.071.951-.13 2.018-.022 2.885.108.868.417 1.898.811 2.595a2.6 2.6 0 0 0 .319.461l.007-.094.001-.016c.029-.412.071-1.025.276-1.592.211-.586.767-1.412 1.256-2.011a5.97 5.97 0 0 1 .763-.803c.11-.09.283-.22.491-.29a.965.965 0 0 1 .529-.03.859.859 0 0 1 .561.427c.137.25.167.563.182.762.017.238.018.518.018.795v.153c0 .531-.001 1.078.057 1.563.073.607.248.925.482 1.35.077.143.162.296.251.477.374.754.609 1.643.378 3.265-.497 3.489-4.25 5.851-8.087 5.855-1.834.001-3.788-.503-5.349-1.502-1.572-1.006-2.778-2.54-2.98-4.567-.19-1.876.248-3.393.778-4.418.263-.507.56-.912.832-1.184a1.84 1.84 0 0 1 .477-.357 1.02 1.02 0 0 1 .449-.107c.24 0 .524.102.705.361.088.127.14.266.169.352.034.1.065.212.094.323l.104.43.08.336c.14.571.312 1.168.556 1.628.04.076.08.146.12.21-.006-.401-.011-.887.002-1.407.036-1.346.197-3.075.898-4.413.49-.937 1.324-2.016 2.05-2.806a8.992 8.992 0 0 1 1.028-.981 2.17 2.17 0 0 1 .516-.311c.092-.036.268-.093.483-.07Zm-4.985 10.987c-.002.012-.003.01 0-.002v.002Zm7.018-2.14h.001-.001Zm-2.887-6.487c-.675.735-1.417 1.706-1.826 2.487-.532 1.017-.696 2.452-.73 3.775a34.74 34.74 0 0 0-.002 1.442l.003.265c.003.23.004.444-.004.617a2.522 2.522 0 0 1-.025.265c-.01.066-.036.216-.12.364a1.065 1.065 0 0 1-.91.532 1.51 1.51 0 0 1-.833-.25c-.441-.275-.855-.764-1.19-1.395-.311-.588-.51-1.275-.65-1.832a4.879 4.879 0 0 0-.022.04c-.411.794-.78 2.03-.622 3.602.15 1.486 1.023 2.648 2.29 3.458 1.277.817 2.922 1.251 4.48 1.249 3.319-.003 6.181-2.036 6.54-4.556.194-1.358-.01-1.948-.24-2.413-.049-.099-.107-.203-.17-.317-.257-.463-.595-1.071-.705-1.985a12.958 12.958 0 0 1-.067-1.496c-.357.479-.657.972-.758 1.253-.128.354-.164.776-.194 1.216l-.003.037a6.156 6.156 0 0 1-.059.586 1.566 1.566 0 0 1-.098.346.978.978 0 0 1-.378.451 1.568 1.568 0 0 1-.889.247 1.636 1.636 0 0 1-.822-.261c-.434-.272-.765-.719-1.013-1.158-.507-.898-.862-2.12-.989-3.134-.129-1.03-.055-2.233.015-3.172l.023-.297a.846.846 0 0 0-.032.034Z" fill="#000"/><path d="M107.433 113.996a16.32 16.32 0 0 0-1.279-30.127 16.319 16.319 0 0 0-12.479.53l6.879 14.798 6.879 14.799Z" fill="url(#c)"/><path d="M349.117 176.781a3.305 3.305 0 0 0-1.288-1.867c-.585-.431-1.288-.431-1.99-.144-1.99.862-19.782 8.185-31.488 17.231-3.512-.574-7.14-.287-10.652.862-16.973 6.605-30.669 29.148-31.254 30.01-.819 1.436-.585 3.446.585 4.451a2.254 2.254 0 0 0 1.522.574h.351c.703-.143 1.288-.574 1.756-1.292 0 0 13.227-21.538 28.562-27.569.819-.287 1.521-.431 2.341-.574-5.268 6.461-5.034 12.061-2.927 15.22 2.107 3.159 6.556 4.164 11.472 2.154 2.575-1.005 5.033-2.585 7.257-4.451 5.619-4.595 5.502-8.903 4.449-11.631-1.054-2.728-3.629-4.451-5.97-5.6 8.311-5.169 16.856-9.621 25.635-13.21.702-.287 1.17-.862 1.522-1.58.234-.861.234-1.723.117-2.584Zm-28.796 29.292c-6.321 5.169-10.769 4.882-11.706 3.446-.468-.718-.117-3.303 2.81-6.892 1.287-1.436 2.575-2.729 3.98-3.877 3.862.718 6.906 2.297 7.491 3.733.234.431-.585 1.867-2.575 3.59Z" fill="#FE5274" stroke="#000" stroke-width="1.839"/><circle cx="83.863" cy="220.013" r="5.836" transform="rotate(-20.09 83.863 220.013)" stroke="#000" stroke-width="1.839"/><defs><linearGradient id="b" x1="105.946" y1="91.58" x2="100.66" y2="136.285" gradientUnits="userSpaceOnUse"><stop offset=".264" stop-color="#fff"/><stop offset="1" stop-color="#fff" stop-opacity="0"/></linearGradient><linearGradient id="c" x1="115.352" y1="92.318" x2="100.116" y2="99.401" gradientUnits="userSpaceOnUse"><stop stop-color="#fff"/><stop offset="1" stop-color="#C4C4C4" stop-opacity="0"/></linearGradient></defs></svg>