<svg viewBox="0 0 400 300" fill="none" xmlns="http://www.w3.org/2000/svg"><path d="M180.542 105.548h19.844a3.104 3.104 0 0 0 3.104-3.104V51.228a3.104 3.104 0 0 0-3.104-3.104h-29.488a3.104 3.104 0 0 0-3.104 3.104v32.364" stroke="#000" stroke-width="1.552"/><rect x="257.81" y="102.444" width="72.943" height="119.503" rx="6.208" stroke="#000" stroke-width="1.552"/><rect x="79.331" y="83.82" width="100.879" height="162.959" rx="7.76" stroke="#000" stroke-width="1.552"/><mask id="a" style="mask-type:alpha" maskUnits="userSpaceOnUse" x="79" y="84" width="102" height="163"><rect x="79.377" y="84.517" width="100.789" height="162.053" rx="7.76" fill="#C4C4C4"/></mask><g mask="url(#a)"><path d="M156.163 180.959c-2.524 1.961-6.231.734-7.088-2.346l-1.962-7.056c-.039-.19.077-.419.268-.457.192-.038.422.076.46.267l1.955 7.028c.714 2.567 3.803 3.589 5.907 1.955.153-.115.422-.115.537.076.115.152.115.418-.077.533Z" fill="#fff"/><path d="M150.374 133.266c0 7.575-6.827 56.487-21.859 75.29-8.246 10.316-21.054 3.007-25.886-5.329-9.09-15.758 3.298-51.233 7.555-71.026 2.991-13.97 8.973-20.174 20.056-20.174s20.134 9.516 20.134 21.239Z" fill="#0A0B0E"/><path d="M288.048 99.392c-.077.19-.154.381-.231.609-9.127 21.773-21.667 40.538-37.275 55.726-12.579 12.256-25.387 21.544-43.143 29.499-22.044 9.876-47.977 10.744-62.25 10.333-5.302-.153-9.02-5.829-7.331-10.857l2.393-7.127c2.186-6.547 8.092-11.153 15.033-11.762.192 0 18.177-.685 39.691-10.81 12.387-5.823 23.585-13.626 33.249-23.219 12.157-12.028 22.013-26.949 29.338-44.382 3.489-8.298 13.077-12.218 21.437-8.754 8.168 3.425 12.118 12.56 9.089 20.744Z" fill="#7DB5FF"/><path d="M193.574 162.082c-1.798-3.031-5.614-3.972-8.927-2.769-16.711 6.073-29.307 6.537-29.48 6.537-6.903.61-12.809 5.215-15.033 11.762l-2.232 6.647c-1.734 5.162 2.237 11.191 7.681 11.331 11.729.303 30.921-.275 49.442-5.808 2.988-.893 5.082-3.614 4.921-6.729-.315-6.124-1.933-13.483-6.372-20.971ZM86.254 261.844c-1.417-6.061.267-12.173 2.485-16.99.761-1.651-.809-4.185-2.374-5.111-1.762-1.041-3.131.273-3.96 2.143-1.896 4.279-4.385 9.359-7.221 14.756-1.74 3.311.632 7.334 4.373 7.334h5.117c1.063 0 1.827-1.099 1.58-2.132Z" fill="#FDEB5A"/><path d="M86.984 261.617c.317 1.451 1.714 2.36 3.2 2.36h.117a3.71 3.71 0 0 0 3.26-1.937 483.249 483.249 0 0 0 5.656-10.701c.901-2.618-.444-5.498-2.983-6.603a81.007 81.007 0 0 1-.452-.198c-2.724-1.202-6.025-.266-7.137 2.496-1.75 4.349-2.838 9.504-1.661 14.583ZM91.049 241.291c.19.063.287.277.466.366a104.874 104.874 0 0 0 8.637 3.861 1.03 1.03 0 0 0 1.329-.609 1 1 0 0 1 1.139-.625l16.382 3.461c.362.077.885-.423 1.048-.756.204-.415-.138-.6-.562-.783l-29.993-12.945c-1.739-.75-3.645-.109-4.262 1.682-.452 1.311-.168 3.133 1.022 3.845a80.683 80.683 0 0 0 4.138 2.304c.204.106.438.127.656.199Z" fill="#FDEB5A"/><path d="M101.425 244.976c-.196.53.081 1.119.612 1.315a99.115 99.115 0 0 0 15.01 4.256c.679.136 1.443-.378 1.743-1.002.436-.911-.178-1.834-1.166-2.043l-14.999-3.169a1.037 1.037 0 0 0-1.2.643Z" fill="#FDEB5A"/><path d="M84.181 237.484c-.002-.003-.002-.002-.005-.004-.191-.11-.418-.071-.532.08-.111.184-.079.404.062.521.01.008.007.004.016.013.103.099.28.047.333-.085.055-.139.107-.281.167-.414.016-.034-.014-.085-.04-.111ZM90.51 241.442c.046-.092.061-.22-.03-.267-2.98-1.55-4.984-2.818-5.833-3.365a.383.383 0 0 0-.556.177.38.38 0 0 0 .13.472c.848.551 2.742 1.737 5.521 3.215.267.141.632.038.768-.232ZM91.174 241.81a.16.16 0 0 0-.022.032 6.078 6.078 0 0 1-.019.036c-.1.199-.03.454.169.556 2.503 1.278 5.591 2.679 9.174 4.053a.353.353 0 0 0 .464-.216c.07-.202-.02-.44-.219-.516-3.62-1.389-6.736-2.806-9.252-4.096-.098-.051-.224.066-.295.151Z" fill="#300315"/><path d="M117.532 251.399a.371.371 0 0 0 .41-.204.4.4 0 0 0-.282-.56 100.316 100.316 0 0 1-16.252-4.605.354.354 0 0 0-.465.217c-.07.201.02.439.219.514a101.207 101.207 0 0 0 16.37 4.638ZM86.982 261.616c-1.61-6.989 1.022-14.051 3.754-19.022a.386.386 0 0 0-.166-.532.38.38 0 0 0-.505.157c-2.78 5.09-5.54 12.394-3.812 19.626.17.67.338 1.311.56 1.897a.366.366 0 0 0 .344.234.386.386 0 0 0 .36-.518c-.2-.559-.39-1.179-.535-1.842ZM91.061 241.304a.13.13 0 0 0-.028-.023.412.412 0 0 0-.052-.026c-.12-.049-.133.112-.02.174.11.061.206-.017.119-.107a3.185 3.185 0 0 0-.019-.018Z" fill="#300315"/><path d="M91.162 241.823a.529.529 0 0 0 .02-.046c.056-.136-.053-.255-.183-.326l-.077-.043c-.138-.076-.342-.106-.412.035-.021.041-.045.083-.07.124a.353.353 0 0 0 .148.505c.19.094.428.021.53-.165l.044-.084Z" fill="#300315"/><path d="m141.639 248.834 11.513-25.504c.444-.984 1.101-1.854 1.86-2.62 12.567-12.689 7.716-32.66 3.21-42.189a8.633 8.633 0 0 1-.692-2.072l-2.017-10.564c-12.579.952-52.155-1.104-52.155-1.104-2.058 20.153-11.891 51.052-15.724 62.552-.928 2.786-.254 5.884 1.905 7.875 19.517 18.001 38.945 18.388 46.856 17.612 2.358-.232 4.27-1.827 5.244-3.986Z" fill="#FDEB5A"/><path d="M131.428 153.706c9.658 0 17.487-7.413 17.487-16.558 0-9.144-7.829-16.557-17.487-16.557-9.658 0-17.488 7.413-17.488 16.557 0 9.145 7.83 16.558 17.488 16.558Z" fill="#7DB5FF"/><path d="M131.43 176.087c-3.566 0-6.443-2.855-6.443-6.395v-18.901a6.443 6.443 0 0 1 12.886 0v18.901c0 3.502-2.915 6.395-6.443 6.395ZM112.638 142.666c2.309 0 4.18-1.857 4.18-4.148 0-2.292-1.871-4.149-4.18-4.149-2.309 0-4.18 1.857-4.18 4.149 0 2.291 1.871 4.148 4.18 4.148Z" fill="#7DB5FF"/><path d="M121.18 130.55c2.363-3.464 2.644-7.371.628-8.727-2.017-1.356-5.568.353-7.932 3.817-2.363 3.464-2.644 7.371-.628 8.727 2.017 1.355 5.568-.353 7.932-3.817Z" fill="#0A0B0E"/><path d="M149.587 134.31c1.955-3.395-2.572-9.614-10.111-13.892-7.539-4.277-15.236-4.993-17.191-1.598-1.955 3.394 2.572 9.614 10.111 13.892 7.539 4.277 15.236 4.993 17.191 1.598Z" fill="#0A0B0E"/><path d="M98.335 232.192c13.69-25.046 20.171-45.486 20.44-46.361 2.684-8.603-2.148-17.738-10.776-20.402-8.667-2.665-17.833 2.131-20.555 10.696-.168.531-13.002 40.373-40.005 73.757-4.373 5.407-.695 14.093 6.259 14.093h20.375c2.431 0 4.728-1.134 6.162-3.097 6.426-8.802 12.477-18.409 18.1-28.686Z" fill="#7DB5FF"/><path d="M108.23 165.469c-8.897-2.741-18.37 2.17-21.13 11.038-.105.309-4.267 13.261-12.798 30.636-1.655 3.371-.792 7.51 2.394 9.495 5.937 3.7 13.349 6.923 21.844 7.791 2.9.296 5.577-1.409 6.848-4.032 9.265-19.108 13.71-33.207 13.925-33.917 2.799-8.869-2.148-18.27-11.083-21.011Z" fill="#FDEB5A"/><path d="M162.799 177.916c0-.229-.153-.381-.383-.381a.383.383 0 0 0-.384.381c-.071 2.398-1.294 3.979-1.992 4.713a.386.386 0 0 0-.093.373c.077.269.41.364.604.162.786-.817 2.155-2.573 2.248-5.248ZM159.463 183.589a.35.35 0 0 0 .307.152c.07 0 .14-.032.21-.066.013-.007.012-.003.023-.013.049-.045.098-.12.08-.185l-.08-.277c-.053-.185-.308-.224-.461-.108-.018.014-.013.006-.033.016-.165.087-.191.301-.046.481Z" fill="#300315"/><path d="M61.82 254.071a7.76 7.76 0 0 1 6.012-9.181l135.983-28.383a7.76 7.76 0 0 1 9.182 6.011l20.93 100.28a7.759 7.759 0 0 1-6.01 9.182L91.933 360.363a7.76 7.76 0 0 1-9.181-6.011L61.82 254.071Z" fill="#000"/></g><rect x="79.331" y="83.82" width="100.879" height="162.959" rx="7.76" stroke="#000" stroke-width="1.552"/><mask id="b" fill="#fff"><path fill-rule="evenodd" clip-rule="evenodd" d="M71.936 103.707c-9.206 0-16.668 7.462-16.668 16.668 0 9.205 7.462 16.668 16.668 16.668H83.73l8.31 7.105 1.456-7.818c6.847-2.073 11.831-8.432 11.831-15.955 0-9.206-7.463-16.668-16.668-16.668H71.936Z"/></mask><path fill-rule="evenodd" clip-rule="evenodd" d="M71.936 103.707c-9.206 0-16.668 7.462-16.668 16.668 0 9.205 7.462 16.668 16.668 16.668H83.73l8.31 7.105 1.456-7.818c6.847-2.073 11.831-8.432 11.831-15.955 0-9.206-7.463-16.668-16.668-16.668H71.936Z" fill="#fff"/><path d="m83.73 137.043 1.01-1.18-.436-.372h-.573v1.552Zm8.312 7.105-1.009 1.18 2.043 1.746.492-2.642-1.526-.284Zm1.455-7.818-.45-1.485-.903.273-.173.928 1.526.284ZM56.82 120.375c0-8.349 6.767-15.116 15.116-15.116v-3.104c-10.063 0-18.22 8.157-18.22 18.22h3.104Zm15.116 15.116c-8.349 0-15.116-6.768-15.116-15.116h-3.104c0 10.062 8.157 18.22 18.22 18.22v-3.104Zm11.795 0H71.936v3.104H83.73v-3.104Zm9.32 7.478-8.312-7.106-2.017 2.36 8.311 7.105 2.017-2.359Zm-1.08-6.923-1.455 7.818 3.052.568 1.455-7.818-3.052-.568Zm11.805-15.671c0 6.82-4.518 12.59-10.729 14.47l.9 2.971c7.483-2.266 12.933-9.215 12.933-17.441h-3.104ZM88.66 105.259c8.348 0 15.116 6.767 15.116 15.116h3.104c0-10.063-8.157-18.22-18.22-18.22v3.104Zm-16.724 0H88.66v-3.104H71.936v3.104Z" fill="#FE7893" mask="url(#b)"/><circle cx="71.032" cy="120.272" r="2.688" fill="#2F0079"/><circle cx="79.928" cy="120.272" r="2.688" fill="#2F0079"/><path d="M85.428 134.739a14.468 14.468 0 1 0 0-28.935V134.739Z" fill="url(#c)"/><circle cx="89.357" cy="120.272" r="2.688" fill="#2F0079"/><path d="M105.716 211.083c2.513-5.683 9.666-20.94 10.527-24.951.862-4.011 3.441-13.073-5.871-18.504" stroke="#000" stroke-width="1.552" stroke-linecap="round"/><path d="M112.196 228.784c0 15.943-12.924 28.868-28.868 28.868-15.943 0-28.867-12.925-28.867-28.868 0-15.943 12.924-28.868 28.867-28.868 15.944 0 28.868 12.925 28.868 28.868Z" fill="#FF7043" stroke="#000" stroke-width="1.552"/><path fill-rule="evenodd" clip-rule="evenodd" d="M84.606 213.102c.474.042.936.287 1.193.724.202.344.235.734.249.919.018.249.016.535.007.826-.015.442-.052.982-.09 1.556l-.037.544c-.105 1.597-.186 3.388.023 4.84.21 1.455.778 3.175 1.488 4.337.211.346.407.596.574.767l.01-.158v-.028c.042-.691.104-1.72.453-2.676.36-.987 1.323-2.384 2.172-3.4.433-.518.903-1.019 1.33-1.363.192-.154.495-.376.86-.498a1.8 1.8 0 0 1 .933-.059c.468.1.81.38 1 .704.246.418.307.941.336 1.275.035.399.045.868.05 1.333l.004.258c.01.891.021 1.808.135 2.62.142 1.017.457 1.548.878 2.257.14.236.293.492.454.793.676 1.258 1.112 2.744.739 5.47-.802 5.864-7.374 9.904-14.145 9.989-3.236.041-6.695-.764-9.472-2.408-2.797-1.656-4.957-4.204-5.36-7.601-.373-3.143.365-5.698 1.28-7.427.453-.857.966-1.543 1.442-2.005.225-.219.509-.454.834-.609.154-.073.434-.186.789-.189.425-.003.928.161 1.252.592.158.21.252.443.305.586.063.168.12.355.173.54.058.204.125.457.194.72l.149.562c.26.955.574 1.953 1.015 2.72.073.127.145.243.216.35a55.352 55.352 0 0 1-.025-2.36c.034-2.259.28-5.164 1.488-7.423.845-1.582 2.293-3.409 3.557-4.75.632-.67 1.263-1.267 1.793-1.668.248-.186.565-.402.904-.532.161-.062.47-.161.85-.128Zm-8.558 18.535c-.004.021-.005.018 0-.003v.003Zm12.339-3.735.001.001-.001-.001Zm-5.237-10.823c-1.176 1.247-2.463 2.891-3.168 4.209-.917 1.718-1.175 4.129-1.207 6.349-.014.894.01 1.716.028 2.42l.012.444c.01.385.016.745.005 1.036a4.015 4.015 0 0 1-.037.445c-.017.11-.059.363-.205.612-.33.561-.93.886-1.595.912-.577.022-1.09-.18-1.474-.402-.785-.453-1.525-1.265-2.13-2.317-.563-.979-.929-2.129-1.188-3.06l-.036.068c-.71 1.34-1.333 3.422-1.02 6.055.295 2.491 1.863 4.422 4.115 5.755 2.273 1.345 5.185 2.038 7.933 2.003 5.859-.073 10.866-3.544 11.444-7.778.313-2.284-.06-3.268-.477-4.044a12.845 12.845 0 0 0-.306-.528c-.464-.771-1.073-1.785-1.287-3.315-.115-.827-.14-1.726-.152-2.51-.619.811-1.138 1.646-1.31 2.118-.218.598-.272 1.305-.316 2.044l-.004.063c-.019.317-.04.681-.092.983a2.525 2.525 0 0 1-.166.584 1.652 1.652 0 0 1-.656.763 2.885 2.885 0 0 1-1.564.435 3.01 3.01 0 0 1-1.456-.422c-.772-.448-1.365-1.19-1.812-1.922-.915-1.496-1.569-3.537-1.815-5.238-.249-1.724-.145-3.744-.042-5.321l.033-.5-.055.059Z" fill="#fff"/><path d="M264.079 197.714c-3.511 9.533-20.8 26.688-45.55 16.754-6.797-2.728.521-11.259 5.372-4.472 4.852 6.787-15.131 22.756-27.756 11.48" stroke="#000" stroke-width="1.552" stroke-dasharray="2.33 2.33"/><path d="M131.863 149.004c-1.022 0-2.122-.373-3.143-.97-1.651-1.045-2.594-2.686-2.751-4.552l-.078-.671 12.416-1.567-.079.895c0 .224-.55 5.522-5.186 6.79-.393 0-.786.075-1.179.075Zm-4.322-5c.314 1.12 1.021 2.164 2.043 2.836.943.671 2.122.895 2.986.671 2.672-.671 3.615-3.208 3.929-4.626l-8.958 1.119Z" fill="#000"/><path d="M354.054 133.603c.194-.788 1.314-.788 1.508 0l.97 3.954a10.336 10.336 0 0 0 5.194 6.668l3.327 1.765a.777.777 0 0 1 0 1.371l-3.327 1.766a10.334 10.334 0 0 0-5.194 6.668l-.97 3.953c-.194.788-1.314.788-1.508 0l-.97-3.953a10.334 10.334 0 0 0-5.194-6.668l-3.327-1.766a.777.777 0 0 1 0-1.371l3.327-1.765a10.336 10.336 0 0 0 5.194-6.668l.97-3.954Z" fill="#FDEB5A" stroke="#000" stroke-width="1.552" stroke-linejoin="round"/><path d="M171.781 127.114c-.664-.534-1.189-1.366-1.23-2.264-.045-.208-.021-.392-.02-.622l-2.345-.222-.809 9.41c-.121 1.035-1.045 1.835-2.126 1.736-.345-.002-.643-.142-.895-.305-.596-.395-.983-1.065-.91-1.847.098-1.082 1.068-1.904 2.149-1.805.184.024.39.094.574.118l.171-1.863.072-.552c-.184-.024-.391-.095-.574-.119a4.348 4.348 0 0 0-4.691 3.976c-.146 1.449.468 2.811 1.544 3.716.664.533 1.49.93 2.387 1.005a4.348 4.348 0 0 0 4.691-3.976l.393-4.785a6.16 6.16 0 0 0 3.19 1.355l.125-1.841.026-.529c-.621.019-1.195-.215-1.722-.586Z" fill="#6AFEF9"/><path d="M168.976 98.158c-1.316-.479-2.572-1.496-3.111-2.871-.179-.3-.239-.598-.359-.957l-3.766.895 3.716 15.067c.36 1.674-.655 3.407-2.389 3.825-.538.179-1.076.119-1.554-.001-1.136-.3-2.093-1.137-2.393-2.393-.42-1.734.655-3.527 2.389-3.944.299-.06.657-.06.956-.119l-.719-2.99-.18-.897c-.299.06-.657.06-.956.119-3.826.954-6.155 4.839-5.196 8.666.54 2.331 2.215 4.126 4.367 4.964 1.316.479 2.81.66 4.245.302a7.144 7.144 0 0 0 5.196-8.665l-1.918-7.654c1.734.659 3.707.839 5.68.422l-.779-2.93-.24-.837c-.956.358-1.973.298-2.989-.002Z" fill="#25F4EE"/><mask id="d" style="mask-type:alpha" maskUnits="userSpaceOnUse" x="257" y="102" width="74" height="120"><rect x="257.812" y="102.444" width="72.943" height="119.503" rx="6.208" fill="#C4C4C4"/></mask><g mask="url(#d)"><path d="M379.761 216.648c-.316.1-.631.201-.956.27-7.785 2.172-16.054 1.085-24.577-3.194-5.953-2.975-12.044-7.577-18.18-13.628-9.912-9.826-16.694-20.406-16.972-20.84-3-4.718-1.637-11.004 3.101-14.014 4.706-3 10.982-1.625 13.992 3.125.062.085 6.002 9.332 14.353 17.532 12.262 12.07 19.557 12.283 22.834 11.446 13.736-3.445 20.406-19.016 20.427-19.058 1.854-5.293 7.646-8.047 12.932-6.183 5.286 1.865 8.043 7.671 6.189 12.965-.37 1.127-6.043 23.52-33.143 31.579ZM280.199 217.473a10.068 10.068 0 0 1-6.367-.788c-5.048-2.428-7.195-8.499-4.778-13.554l16.909-35.521c2.417-5.055 8.421-7.145 13.523-4.769 1.4.652 2.492 1.169 3.407 1.604 3.192 1.518 4.617 5.367 3.091 8.555l-18.608 38.874c-1.471 3.011-4.143 4.979-7.177 5.599Z" fill="#00897B"/><path d="M326.783 216.038a6.206 6.206 0 0 1 .75 4.856l-37.331 143.958c-.94 3.626-4.853 5.6-8.327 4.201l-6.79-2.733a6.209 6.209 0 0 1-3.765-6.998l31.013-152.252a6.208 6.208 0 0 1 5.459-4.938l5.822-.588a6.208 6.208 0 0 1 5.883 2.878l7.286 11.616Z" fill="#9B5D2E"/><path d="M324.925 197.063a6.209 6.209 0 0 1 7.126 3.404L399.23 344.7a6.209 6.209 0 0 1-3.56 8.475l-6.888 2.433a6.207 6.207 0 0 1-7.576-2.992l-74.372-143.164c-1.85-3.562.115-7.917 4.01-8.886l14.081-3.503ZM280.47 217.999c-.635.203-1.299.315-2.013.376-5.359.441-10.04-3.576-10.478-8.914l-3.895-47.593c-.447-5.369 3.556-10.054 8.885-10.486 5.358-.441 10.04 3.576 10.477 8.915l3.895 47.592c.386 4.654-2.587 8.81-6.871 10.11Z" fill="#9B5D2E"/><path d="M278.465 218.403a10.267 10.267 0 0 0 2.004-.403c4.282-1.308 7.362-5.127 7.137-9.279l-3.607-41.141-19.353 1.488 2.978 41.683c.254 4.763 5.525 8.227 10.841 7.652Z" fill="#00897B"/><path d="M278.114 157.058a2.675 2.675 0 0 1-2.446-2.861l.902-11.478a2.665 2.665 0 0 1 2.852-2.447 2.675 2.675 0 0 1 2.446 2.861l-.902 11.478c-.098 1.467-1.386 2.547-2.852 2.447ZM272.545 155.694c-1.477.071-2.708-1.073-2.781-2.553l-.474-11.506a2.656 2.656 0 0 1 2.545-2.783c1.477-.071 2.709 1.072 2.781 2.552l.474 11.507c.042 1.489-1.098 2.722-2.545 2.783ZM277.832 166.097a2.659 2.659 0 0 1-.236-3.766l7.617-8.611a2.644 2.644 0 0 1 3.758-.231 2.658 2.658 0 0 1 .236 3.766l-7.616 8.611c-.978 1.113-2.676 1.221-3.759.231ZM269.281 159.195a2.669 2.669 0 0 1-5.327.333l-.717-11.486c-.103-1.47 1.027-2.733 2.495-2.834 1.467-.101 2.729 1.033 2.832 2.503l.717 11.484Z" fill="#9B5D2E"/><path d="M347.285 256.036c4.881.918 8.81-3.983 6.852-8.548l-21.026-49.016c-.962-2.243-1.732-5.242-2.067-7.659-1.162-8.388-3.98-27.131-3.98-27.131l-28.538-1.232c-.403.372-5.104 12.529-6.801 16.901a3.42 3.42 0 0 0-.225 1.298c.025 1.157.467 2.298.438 3.456l-.213 8.354-3.527 31.499a6.195 6.195 0 0 0 .138 2.162l3.867 15.852a6.208 6.208 0 0 0 4.885 4.63l50.197 9.434Z" fill="#00897B"/></g><rect x="257.81" y="102.444" width="72.943" height="119.503" rx="6.208" stroke="#000" stroke-width="1.552"/><path d="m287.99 212.056 7.477-19.6M284.194 170.731l1.552 21.728" stroke="#000" stroke-width="1.552" stroke-linecap="round"/><mask id="e" fill="#fff"><path fill-rule="evenodd" clip-rule="evenodd" d="M331.636 93.132c7.088 0 12.835 5.746 12.835 12.835 0 7.088-5.747 12.835-12.835 12.835h-9.083l-6.4 5.471-1.12-6.02c-5.272-1.597-9.11-6.493-9.11-12.286 0-7.089 5.747-12.835 12.835-12.835h12.878Z"/></mask><path fill-rule="evenodd" clip-rule="evenodd" d="M331.636 93.132c7.088 0 12.835 5.746 12.835 12.835 0 7.088-5.747 12.835-12.835 12.835h-9.083l-6.4 5.471-1.12-6.02c-5.272-1.597-9.11-6.493-9.11-12.286 0-7.089 5.747-12.835 12.835-12.835h12.878Z" fill="#fff"/><path d="m322.553 118.802-1.008-1.18.435-.372h.573v1.552Zm-6.4 5.471 1.009 1.18-2.043 1.746-.492-2.642 1.526-.284Zm-1.12-6.02.449-1.486.904.274.172.928-1.525.284Zm27.886-12.286c0-6.231-5.052-11.283-11.283-11.283V91.58c7.946 0 14.387 6.441 14.387 14.387h-3.104Zm-11.283 11.283c6.231 0 11.283-5.052 11.283-11.283h3.104c0 7.945-6.441 14.387-14.387 14.387v-3.104Zm-9.083 0h9.083v3.104h-9.083v-3.104Zm-7.408 5.843 6.4-5.471 2.017 2.359-6.4 5.472-2.017-2.36Zm1.413-5.124 1.121 6.02-3.052.568-1.12-6.02 3.051-.568Zm-9.083-12.002c0 5.09 3.372 9.396 8.007 10.8l-.899 2.971c-5.908-1.789-10.212-7.276-10.212-13.771h3.104Zm11.283-11.283c-6.231 0-11.283 5.052-11.283 11.283h-3.104c0-7.946 6.441-14.387 14.387-14.387v3.104Zm12.878 0h-12.878V91.58h12.878v3.104Z" fill="#0CE5DE" mask="url(#e)"/><path d="M329.993 117.028a11.142 11.142 0 0 0 7.878-19.018 11.14 11.14 0 0 0-7.878-3.263v22.281Z" fill="url(#f)"/><circle r="2.069" transform="matrix(-1 0 0 1 332.331 105.888)" fill="#2F0079"/><circle r="2.069" transform="matrix(-1 0 0 1 325.482 105.888)" fill="#2F0079"/><circle r="2.069" transform="matrix(-1 0 0 1 318.221 105.888)" fill="#2F0079"/><path d="M271.569 107.294c.076-.228.153-.419.23-.609 3.029-8.184-.921-17.319-9.089-20.745-8.36-3.463-17.948.457-21.437 8.755-7.325 17.433-17.181 32.354-29.338 44.382-9.664 9.592-16.232 14.967-28.619 20.791l12.416 29.487c17.756-7.955 25.982-14.079 38.561-26.336 15.608-15.187 28.148-33.952 37.276-55.725Z" fill="#7DB5FF"/><path d="M189.124 156.764c-19.251 8.532-34.584 9.13-34.774 9.13-6.849.638-12.708 5.463-14.915 12.321l-5.783 18.182c.875-.04 34.889 4.107 65.098-7.097.495-8.413-.951-20.614-9.626-32.536Z" fill="#FDEB5A"/><path d="M252.316 91.991a4.508 4.508 0 0 0 5.753-2.702l6.519-18.118c.844-2.322-.383-4.873-2.722-5.71a4.508 4.508 0 0 0-5.753 2.703l-6.519 18.118c-.844 2.322.383 4.872 2.722 5.71ZM261.864 93.78c2.225 1.104 4.909.228 6.021-1.98l8.667-17.204a4.424 4.424 0 0 0-1.994-5.976c-2.224-1.104-4.909-.229-6.021 1.98l-8.667 17.204c-1.15 2.17-.23 4.872 1.994 5.976ZM262.327 105.316l7.938 4.149 11.16-20.974c1.151-2.17.307-4.872-1.879-6.013-2.186-1.142-4.909-.305-6.059 1.865l-11.16 20.973ZM247.598 104.514c2.378-.723 3.682-3.235 2.953-5.595l-5.752-18.385c-.729-2.36-3.26-3.654-5.637-2.93-2.378.722-3.682 3.234-2.953 5.594l5.752 18.385a4.52 4.52 0 0 0 5.637 2.931Z" fill="#7DB5FF"/><path d="M302.736 146.019a4.958 4.958 0 0 0 5.239-4.661 4.96 4.96 0 0 0-4.65-5.25 4.96 4.96 0 0 0-5.239 4.662 4.958 4.958 0 0 0 4.65 5.249Z" fill="#300315"/><path d="M303.056 137.099a2.322 2.322 0 0 0 2.454-2.183 2.322 2.322 0 0 0-2.178-2.458 2.321 2.321 0 0 0-2.453 2.183 2.32 2.32 0 0 0 2.177 2.458ZM322.196 146.903a4.959 4.959 0 0 0 5.239-4.662 4.958 4.958 0 0 0-4.65-5.249 4.96 4.96 0 0 0-5.239 4.662 4.96 4.96 0 0 0 4.65 5.249Z" fill="#300315"/><path d="M308.569 140.176a4.958 4.958 0 0 0 5.239-4.661 4.96 4.96 0 0 0-4.65-5.25 4.96 4.96 0 0 0-5.239 4.662 4.958 4.958 0 0 0 4.65 5.249Z" fill="#300315"/><path d="M311.703 158.194c6.391.223 11.746-4.553 11.96-10.668.215-6.116-4.791-11.255-11.182-11.479-6.39-.224-11.745 4.552-11.96 10.668-.215 6.115 4.792 11.255 11.182 11.479Z" fill="#9B5D2E"/><path d="M311.172 173.148c-2.362-.078-4.191-2.054-4.113-4.42l.496-13.987 8.524.297-.496 13.987a4.261 4.261 0 0 1-4.411 4.123ZM299.464 150.357a2.783 2.783 0 0 0 2.94-2.616 2.784 2.784 0 0 0-2.61-2.946 2.784 2.784 0 0 0-2.94 2.616 2.783 2.783 0 0 0 2.61 2.946Z" fill="#9B5D2E"/><path d="M311.795 154.909c-1.356-.081-2.434-.607-3.215-1.555-1.877-2.231-1.355-6.082-1.326-6.227.066-.395.418-.688.833-.622.394.066.687.419.62.834-.002.042-.45 3.352.995 5.095.547.662 1.302 1.001 2.304 1.04.982.037 1.731-.233 2.27-.852 1.435-1.593 1.002-4.871.983-4.914a.72.72 0 0 1 .614-.824.719.719 0 0 1 .822.615c.032.17.537 3.998-1.346 6.089-.83.937-1.986 1.372-3.408 1.33a6.731 6.731 0 0 0-.146-.009Z" fill="#300315"/><path d="M324.397 150.706a2.782 2.782 0 0 0 2.94-2.616 2.782 2.782 0 0 0-2.609-2.946 2.782 2.782 0 0 0-2.94 2.616 2.783 2.783 0 0 0 2.609 2.946Z" fill="#9B5D2E"/><path d="M316.963 139.836a4.96 4.96 0 0 0 5.239-4.662 4.958 4.958 0 0 0-4.65-5.249 4.96 4.96 0 0 0-5.239 4.661 4.96 4.96 0 0 0 4.65 5.25Z" fill="#300315"/><path d="M310.903 139.266a2.323 2.323 0 0 0 2.454-2.184 2.323 2.323 0 0 0-2.178-2.458 2.323 2.323 0 0 0-2.454 2.183 2.323 2.323 0 0 0 2.178 2.459ZM322.414 138.313a2.323 2.323 0 0 0 2.454-2.183 2.323 2.323 0 0 0-2.178-2.459 2.323 2.323 0 0 0-2.454 2.184 2.323 2.323 0 0 0 2.178 2.458Z" fill="#300315"/><path d="M159.431 181.595c2.798 6.052 6.715 20.879 0 31.772-1.244 1.816-4.104 5.81-5.597 7.262l-4.663 9.078" stroke="#000" stroke-width="1.552" stroke-linecap="round"/><circle cx="57.604" cy="183.147" r="4.656" fill="#fff" stroke="#000" stroke-width="1.552"/><path d="M235.46 71.106c.92-9.955-3.362-17.738-23.894-7.586" stroke="#000" stroke-width="1.552" stroke-dasharray="3.1 3.1"/><defs><linearGradient id="c" x1="99.895" y1="120.272" x2="84.999" y2="120.272" gradientUnits="userSpaceOnUse"><stop stop-color="#fff"/><stop offset="1" stop-color="#C4C4C4" stop-opacity="0"/></linearGradient><linearGradient id="f" x1="341.134" y1="105.888" x2="329.663" y2="105.888" gradientUnits="userSpaceOnUse"><stop stop-color="#0CE5DE"/><stop offset="1" stop-color="#C4C4C4" stop-opacity="0"/></linearGradient></defs></svg>