<svg viewBox="0 0 400 300" fill="none" xmlns="http://www.w3.org/2000/svg"><path d="m291.003 125.26-.091-.001.082-.04a13.811 13.811 0 0 0 7.145-8.32 13.817 13.817 0 0 0 9.982 4.546l.09.002-.081.039a13.814 13.814 0 0 0-7.146 8.321 13.816 13.816 0 0 0-9.981-4.547Z" fill="#FDEB5A" stroke="#000" stroke-width="1.86" stroke-linejoin="round"/><path d="m283.805 186.768-.09-.002.081-.04a13.813 13.813 0 0 0 7.146-8.32 13.815 13.815 0 0 0 9.981 4.546l.091.002-.081.04a13.813 13.813 0 0 0-7.146 8.32 13.815 13.815 0 0 0-9.982-4.546Z" fill="#25F4EE" stroke="#000" stroke-width="1.86" stroke-linejoin="round"/><path d="m213.144 51.023-.09-.001.081-.04a13.814 13.814 0 0 0 7.146-8.32 13.815 13.815 0 0 0 9.981 4.546l.091.002-.082.04a13.812 13.812 0 0 0-7.145 8.32 13.815 13.815 0 0 0-9.982-4.547Z" fill="#FE5274" stroke="#000" stroke-width="1.86" stroke-linejoin="round"/><path d="M294.96 67.76a.14.14 0 0 1-.015-.002.05.05 0 0 1-.005-.015l-.002-.016.013-.007 1.602-.78a17.035 17.035 0 0 0 8.92-10.621l.16-.56.002-.005.001-.002.001-.002a.033.033 0 0 1 .012-.005.03.03 0 0 1 .012 0h.002l.006.007.38.44a17.034 17.034 0 0 0 12.558 5.888l1.781.034.015.001a.05.05 0 0 1 .005.016c.002.006.002.011.002.016a.099.099 0 0 1-.013.007l-1.602.78a17.031 17.031 0 0 0-8.919 10.62l-.161.56a.024.024 0 0 1-.003.008l-.001.002c-.001 0-.004.003-.011.005a.03.03 0 0 1-.013 0l-.002-.001-.006-.006-.703.608.703-.608-.38-.44a17.034 17.034 0 0 0-12.558-5.889l-1.781-.034Z" fill="#FF7043" stroke="#000" stroke-width="1.86" stroke-linejoin="round"/><path d="M182.555 78.217c7.234.046 14.712-1.396 22.138-3.253 3.298-.825 6.599-1.735 9.869-2.636l1.236-.341c3.678-1.013 7.312-2 10.882-2.836 14.333-3.357 27.287-4.195 37.303 5.165 10.022 9.366 10.476 22.323 8.297 36.791-.736 4.889-1.762 9.888-2.799 14.945-.497 2.426-.998 4.866-1.471 7.314-1.45 7.512-2.626 15.048-2.57 22.247.056 7.296 1.192 14.76 2.567 22.167.443 2.388.91 4.766 1.375 7.131.982 5 1.953 9.942 2.665 14.81 2.095 14.328 1.872 27.589-6.875 38.553-18.28 22.916-53.282 27.284-82.429 21.482-12.364-2.462-21.555-10.083-29.976-19.484-3.511-3.918-6.867-8.121-10.262-12.374l-2.045-2.558c-4.094-5.104-8.292-10.2-12.881-14.809-3.608-3.623-7.62-7.373-11.758-11.241-1.073-1.004-2.155-2.015-3.24-3.034-5.278-4.955-10.652-10.102-15.612-15.461-9.937-10.737-18.114-22.22-20.557-34.545-5.731-28.919.162-55.38 23.596-72.921 11.186-8.373 24.378-7.34 38.628-4.036 3.553.824 7.155 1.784 10.797 2.767l1.087.293c3.282.887 6.595 1.782 9.911 2.595 7.364 1.805 14.804 3.222 22.124 3.269Z" fill="#FDEB5A" stroke="#000" stroke-width="1.86"/><path d="m168.209 108.334-13.935 26.321" stroke="#300315" stroke-width="1.837" stroke-linecap="round"/><path d="m146.553 179.842 17.825 9.317 25.06-47.096c2.583-4.872.689-10.941-4.22-13.505-4.908-2.564-11.022-.684-13.606 4.188l-25.059 47.096Z" fill="#FBB793"/><path d="M163.082 151.033c-.344 0-.603-.171-.775-.513-.086-.171-6.2-13.078-24.198-14.531a.818.818 0 0 1-.775-.94c0-.427.431-.854.948-.769 9.903.855 16.361 4.957 19.978 8.376 3.961 3.676 5.597 7.095 5.597 7.266.173.427 0 .94-.43 1.111h-.345Z" fill="#300315"/><mask id="a" fill="#fff"><path fill-rule="evenodd" clip-rule="evenodd" d="M152.177 98.777c-.385-3.72-2.873-7.073-6.66-8.429-5.253-1.88-11.023.855-12.917 6.069l-14.64 40.685a9.968 9.968 0 0 0-.505 2.034 37.2 37.2 0 0 0-4.855 2.333l-5.405-17.274c-1.636-5.299-7.32-8.205-12.659-6.581-5.339 1.623-8.267 7.265-6.63 12.564l9.082 29.028a354.152 354.152 0 0 1-6.812 15.191c7.66 9.809 17.426 18.939 26.518 27.438l.001.001c4.135 3.866 8.131 7.601 11.725 11.211 5.31 5.331 10.102 11.333 14.854 17.285l.492.617c7.833-13.859 14.947-28.41 21.321-43.615.168-.5.336-.918.503-1.335l.002-.006.011-.027c3.58-9.668 2.821-19.927-1.373-28.599a10.061 10.061 0 0 0 1.414-2.102l19.462-38.634a9.934 9.934 0 0 0-4.478-13.419 10.154 10.154 0 0 0-7.919-.491l.013-.025a9.932 9.932 0 0 0-4.478-13.42c-4.994-2.478-11.022-.512-13.52 4.445l-2.547 5.056Z"/></mask><path fill-rule="evenodd" clip-rule="evenodd" d="M152.177 98.777c-.385-3.72-2.873-7.073-6.66-8.429-5.253-1.88-11.023.855-12.917 6.069l-14.64 40.685a9.968 9.968 0 0 0-.505 2.034 37.2 37.2 0 0 0-4.855 2.333l-5.405-17.274c-1.636-5.299-7.32-8.205-12.659-6.581-5.339 1.623-8.267 7.265-6.63 12.564l9.082 29.028a354.152 354.152 0 0 1-6.812 15.191c7.66 9.809 17.426 18.939 26.518 27.438l.001.001c4.135 3.866 8.131 7.601 11.725 11.211 5.31 5.331 10.102 11.333 14.854 17.285l.492.617c7.833-13.859 14.947-28.41 21.321-43.615.168-.5.336-.918.503-1.335l.002-.006.011-.027c3.58-9.668 2.821-19.927-1.373-28.599a10.061 10.061 0 0 0 1.414-2.102l19.462-38.634a9.934 9.934 0 0 0-4.478-13.419 10.154 10.154 0 0 0-7.919-.491l.013-.025a9.932 9.932 0 0 0-4.478-13.42c-4.994-2.478-11.022-.512-13.52 4.445l-2.547 5.056Z" fill="#FBB793"/><path d="m145.517 90.348-.627 1.75.627-1.75Zm6.66 8.43-1.849.19a1.859 1.859 0 0 0 3.51.646l-1.661-.837ZM132.6 96.416l-1.748-.635-.002.005 1.75.63Zm-14.64 40.685 1.748.635.002-.006-1.75-.629Zm-.505 2.034.681 1.73a1.861 1.861 0 0 0 1.161-1.475l-1.842-.255Zm-4.855 2.333-1.775.556a1.86 1.86 0 0 0 2.7 1.057l-.925-1.613Zm-5.405-17.274-1.777.549.002.006 1.775-.555Zm-12.659-6.581.541 1.779-.54-1.779Zm-6.63 12.564-1.777.549.002.006 1.774-.555Zm9.082 29.028 1.714.721a1.86 1.86 0 0 0 .06-1.276l-1.774.555Zm-6.812 15.191-1.678-.8a1.86 1.86 0 0 0 .212 1.945l1.466-1.145Zm26.518 27.438 1.399-1.225a1.81 1.81 0 0 0-.13-.133l-1.269 1.358Zm0 0-1.4 1.224c.04.046.081.089.125.13l1.275-1.354Zm0 0 1.276-1.352-.002-.002-1.274 1.354Zm.001.001-1.277 1.352.007.006 1.27-1.358Zm11.725 11.211-1.317 1.312 1.317-1.312Zm14.854 17.285-1.453 1.161 1.453-1.161Zm.492.617-1.453 1.16a1.858 1.858 0 0 0 3.072-.246l-1.619-.914Zm21.321-43.615 1.715.719c.017-.042.033-.084.048-.127l-1.763-.592Zm.503-1.335 1.726.692.001-.003-1.727-.689Zm.002-.006-1.717-.715-.01.025 1.727.69Zm.011-.027 1.717.715a.843.843 0 0 0 .027-.07l-1.744-.645Zm-1.373-28.599-1.399-1.225a1.858 1.858 0 0 0-.275 2.034l1.674-.809Zm1.414-2.102 1.661.837-1.661-.837Zm19.462-38.634-1.661-.836 1.661.836Zm-4.478-13.419-.827 1.666.827-1.666Zm-7.919-.491-1.66-.836a1.86 1.86 0 0 0 2.281 2.589l-.621-1.753Zm.013-.025-1.66-.837 1.66.837Zm-17.998-8.975-1.66-.836 1.66.836ZM144.89 92.1c3.1 1.11 5.125 3.847 5.438 6.87l3.699-.383c-.457-4.418-3.41-8.387-7.883-9.989L144.89 92.1Zm-10.542 4.953c1.546-4.256 6.256-6.487 10.542-4.953l1.254-3.502c-6.22-2.226-13.049 1.012-15.292 7.185l3.496 1.27ZM119.71 137.73l14.64-40.685-3.5-1.259-14.639 40.685 3.499 1.259Zm-.413 1.66a8.035 8.035 0 0 1 .411-1.654l-3.495-1.27c-.29.796-.488 1.605-.6 2.414l3.684.51Zm-5.772 3.691a35.38 35.38 0 0 1 4.611-2.216l-1.363-3.46a39.07 39.07 0 0 0-5.098 2.45l1.85 3.226Zm.849-2.168-5.404-17.274-3.55 1.11 5.405 17.275 3.549-1.111Zm-5.402-17.268c-1.95-6.313-8.694-9.723-14.977-7.812l1.082 3.559c4.396-1.337 9.018 1.065 10.341 5.35l3.554-1.097Zm-14.977-7.812c-6.34 1.929-9.802 8.624-7.866 14.893l3.553-1.098c-1.337-4.33 1.057-8.917 5.395-10.236l-1.082-3.559Zm-7.864 14.899 9.082 29.028 3.55-1.11-9.083-29.028-3.55 1.11Zm5.723 44.465a356.331 356.331 0 0 0 6.848-15.271l-3.428-1.442a353.127 353.127 0 0 1-6.776 15.112l3.356 1.601Zm26.109 25.279c-9.113-8.52-18.768-17.551-26.321-27.224l-2.931 2.289c7.764 9.944 17.643 19.173 26.713 27.651l2.539-2.716Zm.13.133-2.799 2.449 2.799-2.449Zm-.125-.129-2.549 2.708 2.549-2.708Zm.003.003-.001-.001-2.553 2.704.001.001 2.553-2.704Zm11.767 11.25c-3.622-3.637-7.644-7.396-11.773-11.256l-2.54 2.716c4.141 3.871 8.111 7.583 11.678 11.165l2.635-2.625Zm14.989 17.438c-4.741-5.938-9.595-12.021-14.989-17.438l-2.635 2.625c5.225 5.247 9.954 11.167 14.718 17.134l2.906-2.321Zm.492.616-.492-.616-2.906 2.321.492.616 2.906-2.321Zm18.153-43.173c-6.346 15.14-13.429 29.625-21.225 43.419l3.238 1.829c7.87-13.924 15.016-28.541 21.417-43.81l-3.43-1.438Zm.492-1.308c-.167.415-.353.879-.54 1.435l3.526 1.184c.149-.443.298-.816.466-1.235l-3.452-1.384Zm.001-.004-.002.006 3.454 1.379.002-.006-3.454-1.379Zm.022-.052-.012.027 3.434 1.43.011-.027-3.433-1.43Zm-1.331-27.075c3.982 8.234 4.701 17.968 1.304 27.144l3.487 1.291c3.761-10.159 2.963-20.943-1.443-30.054l-3.348 1.619Zm1.427-3.747a8.206 8.206 0 0 1-1.152 1.713l2.798 2.45a11.923 11.923 0 0 0 1.676-2.49l-3.322-1.673Zm19.462-38.634-19.462 38.634 3.322 1.673 19.461-38.634-3.321-1.673Zm-3.644-10.917a8.073 8.073 0 0 1 3.644 10.917l3.321 1.673a11.793 11.793 0 0 0-5.312-15.922l-1.653 3.332Zm-6.471-.404a8.288 8.288 0 0 1 6.471.404l1.653-3.332a12.012 12.012 0 0 0-9.365-.578l1.241 3.506Zm-2.268-2.615-.013.026 3.321 1.673.013-.026-3.321-1.673Zm-3.644-10.917a8.074 8.074 0 0 1 3.644 10.917l3.321 1.674a11.793 11.793 0 0 0-5.312-15.922l-1.653 3.331Zm-11.033 3.616c2.03-4.03 6.939-5.647 11.033-3.616l1.653-3.331c-5.896-2.926-13.042-.612-16.007 5.274l3.321 1.673Zm-2.547 5.056 2.547-5.056-3.321-1.673-2.547 5.055 3.321 1.674Z" fill="#000" mask="url(#a)"/><path d="m175.95 130.01-10.838 17.031" stroke="#300315" stroke-width="1.837" stroke-linecap="round"/><path d="m152.474 99.363-12.087 26.321M170.139 104.942l-11.158 25.391" stroke="#000" stroke-width="1.86" stroke-linecap="round"/><path d="M127.371 136.554c8.368-3.719 27.893-1.86 39.98 17.665" stroke="#000" stroke-width=".93" stroke-linecap="round" stroke-linejoin="bevel"/><path d="M122.723 145.851c4.649 6.198 10.227 21.198-4.649 31.611" stroke="#000" stroke-width="1.86" stroke-linecap="round" stroke-linejoin="bevel"/><path d="m136.827 160.439-9.456-26.237 122.455-44.135 9.456 26.237c-5.854 4.089-8.798 10.488-6.796 16.042 2.002 5.554 8.351 8.604 15.468 8.018l9.456 26.237-122.455 44.135-9.456-26.237c5.855-4.089 8.798-10.488 6.797-16.042-2.002-5.554-8.352-8.604-15.469-8.018Z" fill="#FF7043" stroke="#000" stroke-width="1.86" stroke-linejoin="round"/><circle cx="185.19" cy="146.428" r="7.178" transform="rotate(-19.82 185.19 146.428)" fill="#000"/><path d="M179.614 166.241v0c17.881 15.063 45.363 5.158 49.523-17.849v0M216.521 127.505l-11.073 11.621 13.689 2.696" stroke="#000" stroke-width="2.231" stroke-linecap="round" stroke-linejoin="round"/><rect x="151.328" y="97.504" width="3.719" height="9.298" rx="1.86" transform="rotate(22.13 151.328 97.504)" fill="#000"/><rect x="169.922" y="101.223" width="3.719" height="9.298" rx="1.86" transform="rotate(22.13 169.922 101.223)" fill="#000"/><path d="m294.726 151.364 25.236-8.483" stroke="#8021F3" stroke-width="5.579" stroke-linecap="round"/><path d="m263.114 93.72 25.225-8.517" stroke="#FE5274" stroke-width="3.719" stroke-linecap="round"/><path d="m220.345 212.73 25.225-8.518" stroke="#8021F3" stroke-width="3.719" stroke-linecap="round"/><path d="m298.444 104.878 25.225-8.518" stroke="#25F4EE" stroke-width="3.719" stroke-linecap="round"/></svg>