<svg viewBox="0 0 400 300" fill="none" xmlns="http://www.w3.org/2000/svg"><path fill-rule="evenodd" clip-rule="evenodd" d="M250.717 39.963c24.002 2.59 39.759 23.39 56.04 41.08 15.191 16.506 32.01 33.276 32.947 55.611.966 23.043-11.896 43.889-28.078 60.442-16.471 16.848-37.255 30.632-60.909 30.584-23.616-.048-48.787-10.571-60.659-30.831-10.642-18.163 8.789-39.235 7.322-60.195-1.719-24.566-28.292-47.58-16.377-69.181 12.484-22.63 43.869-30.3 69.714-27.51Z" fill="#0C9CAD" stroke="#000" stroke-width="1.556"/><mask id="a" style="mask-type:alpha" maskUnits="userSpaceOnUse" x="180" y="44" width="157" height="183"><path fill-rule="evenodd" clip-rule="evenodd" d="M250.998 45.383c23.171 2.5 38.383 22.58 54.1 39.659 14.665 15.935 30.902 32.124 31.806 53.686.934 22.245-11.483 42.37-27.106 58.35-15.9 16.265-35.964 29.572-58.8 29.525-22.799-.046-47.099-10.205-58.559-29.763-10.274-17.535 8.484-37.878 7.068-58.112-1.66-23.716-27.313-45.934-15.81-66.787 12.051-21.846 42.351-29.25 67.301-26.558Z" fill="#45D2E3"/></mask><g mask="url(#a)"><path d="m397 140.151-272.614 91.812 63.797 57.139L397 140.151Z" fill="#AEF6FF"/><path d="m385.47 145.934-223.432 6.249-5.33 69.642 228.762-75.891Z" fill="#45D2E3"/></g><path d="M130.512 135.104c2.445 1.702 5.743.962 7.373-1.591l9.336-14.873c1.631-2.59.927-6.031-1.519-7.733-2.445-1.702-5.742-.962-7.373 1.591l-9.336 14.91c-1.594 2.553-.927 6.031 1.519 7.696Z" fill="#F4AF89"/><path d="M142.666 134.401c2.149 2.59 5.891 2.886 8.373.592l17.748-16.169c2.482-2.257 2.741-6.216.592-8.806-2.148-2.59-5.891-2.886-8.373-.592l-17.747 16.169c-2.483 2.294-2.742 6.216-.593 8.806Z" fill="#F4AF89"/><path d="M153.559 140.987c2.186 2.553 5.965 2.738 8.41.444l17.451-16.502c2.445-2.294 2.631-6.253.445-8.806-2.186-2.553-5.965-2.738-8.411-.444l-17.451 16.502c-2.445 2.294-2.667 6.253-.444 8.806Z" fill="#F4AF89"/><path d="m143.518 171.659 15.635-11.618 14.857-28.563-41.2-8.14-14.45 13.246 25.158 35.075Z" fill="#F4AF89"/><path d="m70.971 188.346 10.967 15.725c3.853 5.55 10.152 7.621 14.042 4.625l50.649-38.85c6.743-5.18 6.78-17.205.074-26.825l-.297-.444c-6.928-9.915-18.043-13.578-24.935-8.287l-50.463 38.923c-3.779 2.923-3.816 9.694-.037 15.133Z" fill="#F4AF89"/><path d="M184.088 130.516s-10.115 21.385-35.865 37.702l35.865-37.702Z" fill="#F4AF89"/><path d="M159.301 151.309c2.112 2.627 5.854 2.96 8.374.74l17.932-15.91c2.52-2.22 2.816-6.142.704-8.768-2.111-2.627-5.854-2.96-8.373-.74l-17.933 15.909c-2.519 2.183-2.815 6.142-.704 8.769Z" fill="#F4AF89"/><path d="m129.788 126.394-8.483 7.776 24.894 35.786 23.339-19.448 15.99-13.53a6.225 6.225 0 0 0 1.158-8.204l-.776-1.163a4.668 4.668 0 0 0-6.119-1.509l-4.808 2.623 4.374-3.976a5.957 5.957 0 0 0-7.312-9.365l-2.507 1.672.107-.134a5.668 5.668 0 0 0-8.208-7.76l-18.35 16.451 4.292-7.629a5.266 5.266 0 0 0-9.123-5.26l-7.028 11.893a7.758 7.758 0 0 1-1.44 1.777Z" stroke="#000" stroke-width="1.556" stroke-linejoin="round"/><path d="m144.543 174.249-.002.001-7.938 5.775-26.409-39.846 7.991-5.813.001-.001c1.783-1.288 4.211-.838 5.454 1.023l21.929 33.07.002.003c1.225 1.884.772 4.486-1.028 5.788Z" fill="#FF6000" stroke="#000" stroke-width="1.556"/><path d="m103.906 210.23-.007.005c-1.539 1.431-3.281 2.634-5.184 3.443l-.01.005c-6.078 2.693-12.15 1.687-14.895-2.456l-.004-.007-.004-.006-20.297-29.367a.022.022 0 0 0-.003-.005c-2.894-4.341-1.435-11.146 3.581-16.299 1.241-1.275 2.665-2.343 4.206-3.237l.001-.001 42.294-24.671 25.665 40.476-35.343 32.12Z" fill="#FFAC00" stroke="#000" stroke-width="1.556"/><path d="m169.382 117.211-13.225 11.669M177.161 126.856l-13.225 11.669" stroke="#000" stroke-width="1.556" stroke-linecap="round" stroke-linejoin="round"/><path d="m313.624 136.431-61.668 6.573-7.959 35.002 59.88-8.754 9.747-32.821Z" fill="#FFAC00"/><mask id="b" style="mask-type:alpha" maskUnits="userSpaceOnUse" x="244" y="137" width="70" height="42"><path d="m313.951 137.363-61.668 6.574-7.959 35.002 59.881-8.755 9.746-32.821Z" fill="#FFAC00"/></mask><g mask="url(#b)" fill-rule="evenodd" clip-rule="evenodd" fill="#fff"><path d="M292.408 133.739a.94.94 0 0 1 1.309-.234c2.201 1.532 3.928 3.093 5.082 5.005 1.165 1.929 1.702 4.139 1.658 6.892-.02 1.272-.342 2.469-.626 3.527-.052.194-.103.383-.15.568-.319 1.236-.52 2.329-.285 3.503.687 3.438 3.917 5.076 7.946 5.225 1.98.073 4.055-.229 5.898-.817 1.853-.592 3.403-1.45 4.389-2.437a.94.94 0 0 1 1.33 1.33c-1.267 1.267-3.117 2.25-5.147 2.898a19.518 19.518 0 0 1-6.54.905c-4.347-.161-8.773-2.001-9.72-6.735-.323-1.613-.024-3.057.308-4.342.056-.218.112-.429.168-.637.282-1.059.533-1.999.549-3.018.039-2.474-.44-4.321-1.388-5.89-.958-1.588-2.442-2.969-4.547-4.434a.94.94 0 0 1-.234-1.309Z"/><path d="M290.057 135.253a.94.94 0 0 1 1.258.43c.274.559.582 1.131.907 1.732l.043.08c.309.571.63 1.165.932 1.768.631 1.26 1.213 2.622 1.472 4.046.311 1.711.317 3.641-.305 5.32-.638 1.722-1.935 3.152-4.105 3.737-2.057.553-4.792.213-6.651-.484-2.151-.807-3.061-2.484-3.87-3.976a26.67 26.67 0 0 0-.458-.823c-.654-1.115-1.313-2.589-1.81-4.108-.493-1.51-.849-3.132-.849-4.531a.94.94 0 0 1 1.881 0c0 1.121.293 2.53.756 3.947.46 1.408 1.066 2.756 1.644 3.74.214.364.402.704.578 1.022.802 1.449 1.343 2.426 2.788 2.968 1.595.598 3.919.855 5.502.429 1.52-.41 2.381-1.36 2.831-2.575.466-1.258.492-2.822.218-4.33-.211-1.161-.699-2.334-1.303-3.539-.289-.577-.598-1.148-.909-1.725l-.04-.072a53.395 53.395 0 0 1-.94-1.798.939.939 0 0 1 .43-1.258ZM303.725 136.872a.94.94 0 0 1 1.229.508l.196.469c.338.804.634 1.51.897 2.456.156.562.186 1.134.185 1.64-.001.25-.009.499-.017.729l-.001.011a20.07 20.07 0 0 0-.015.662c0 .557-.046 1.154-.087 1.692-.023.3-.044.581-.056.827-.035.755-.003 1.437.217 2.143.408 1.304 1.271 2.6 2.344 3.165.239.126.966.351 1.705.424.362.036.653.027.847-.014a.858.858 0 0 0 .102-.029.94.94 0 0 1 1.635.924c-.305.611-.903.849-1.343.943-.461.099-.97.093-1.426.048-.898-.089-1.879-.36-2.395-.632-1.671-.879-2.771-2.692-3.263-4.268-.314-1.002-.341-1.932-.301-2.791.017-.375.043-.704.068-1.019.038-.467.072-.904.072-1.413 0-.244.009-.491.017-.723v-.003c.008-.238.016-.461.016-.681.001-.443-.028-.814-.116-1.131-.228-.824-.475-1.412-.81-2.21l-.209-.499a.94.94 0 0 1 .509-1.228Zm7.579 14.668-.007.004a.028.028 0 0 1 .007-.004ZM290.595 154.867l.103.01c2.714.277 4.506 1.194 5.85 2.422 1.017.929 1.774 2.046 2.447 3.04.177.262.349.516.518.755.84 1.189 1.69 2.161 3.038 2.764 1.357.607 3.348.894 6.559.414a.94.94 0 1 1 .279 1.859c-3.414.511-5.803.25-7.606-.557-1.813-.81-2.903-2.117-3.806-3.394-.214-.304-.415-.6-.611-.888-.655-.965-1.249-1.84-2.086-2.605-1.014-.925-2.395-1.678-4.669-1.928-1.835.243-2.998 1.097-3.785 2.291-.832 1.262-1.273 2.955-1.503 4.844-.201 1.651-.232 3.363-.26 4.962l-.013.666c-.017.88-.042 1.723-.109 2.465-.066.729-.177 1.433-.4 2.005a.94.94 0 1 1-1.752-.682c.124-.319.218-.81.279-1.492.06-.669.084-1.454.102-2.333l.012-.656c.028-1.59.061-3.407.274-5.162.243-1.997.731-4.03 1.8-5.652 1.099-1.668 2.778-2.845 5.236-3.136l.103-.012Z"/><path d="M291.301 173.627v.141a.94.94 0 0 1-1.881 0v-.199c-.001-1.351-.003-3.464.452-5.263.241-.948.63-1.906 1.293-2.631.696-.76 1.648-1.211 2.855-1.178 2.24.062 3.686 1.665 4.638 3.292.736 1.258 1.289 2.731 1.724 3.888.127.339.244.651.353.922a.94.94 0 0 1-1.746.698c-.135-.338-.27-.696-.41-1.067-.428-1.137-.898-2.387-1.544-3.491-.855-1.461-1.829-2.328-3.067-2.362-.652-.018-1.082.203-1.416.568-.366.4-.653 1.018-.857 1.823-.395 1.563-.395 3.467-.394 4.859ZM270.927 139.43a.94.94 0 0 1 1.19.593c.294.878 1.13 2.331 2.238 4.188l.407.681c.986 1.646 2.093 3.495 3.045 5.323 1.078 2.07 2.006 4.203 2.317 6.059.311 1.856.034 3.746-1.724 4.804-.806.485-1.84.733-2.963.843-1.136.112-2.44.089-3.842-.026-2.805-.228-6.099-.833-9.399-1.555-2.897-.633-5.826-1.363-8.46-2.019l-1.09-.272c-2.925-.726-5.36-1.314-6.906-1.54a.94.94 0 0 1 .272-1.861c1.658.243 4.196.858 7.087 1.576l1.094.273c2.636.656 5.536 1.379 8.405 2.006 3.275.716 6.472 1.3 9.149 1.518 1.339.109 2.522.125 3.507.029.997-.098 1.714-.305 2.176-.583.777-.467 1.098-1.336.839-2.883-.259-1.548-1.069-3.463-2.13-5.501-.924-1.774-2-3.571-2.988-5.222l-.41-.686c-1.064-1.781-2.033-3.438-2.407-4.555a.94.94 0 0 1 .593-1.19Z"/><path d="M265.329 138.245a.94.94 0 0 1 1.166.641c.134.464.402 1.154.748 2.023l.127.32c.309.774.656 1.645.979 2.531.368 1.01.714 2.064.942 3.051.224.968.356 1.957.23 2.803-.097.648-.191 1.273-.359 1.792-.177.551-.465 1.073-1.002 1.458-.512.368-1.148.534-1.865.608-.722.075-1.625.066-2.748.007-2.345-.124-5.894-1.003-9.203-1.922-1.496-.416-2.942-.84-4.237-1.219-1.635-.479-3.03-.888-3.987-1.123a.94.94 0 0 1 .449-1.826c.982.241 2.455.672 4.14 1.166 1.297.379 2.718.795 4.139 1.19 3.342.929 6.693 1.745 8.798 1.856 1.101.058 1.885.06 2.455.001.573-.06.834-.173.964-.266.105-.076.207-.196.308-.508.111-.342.185-.799.288-1.491.073-.493.005-1.206-.202-2.103-.203-.878-.52-1.851-.877-2.83a84.8 84.8 0 0 0-.958-2.477l-.128-.323c-.335-.842-.642-1.625-.807-2.194a.94.94 0 0 1 .64-1.165ZM247.384 161.395c-.655.049-1.324.095-1.829.049a.941.941 0 0 1 .173-1.873c.316.029.815.001 1.517-.051l.252-.019c.612-.046 1.318-.1 2.037-.116 1.582-.036 3.53.092 4.893 1.131 1.15.876 2.16 1.92 2.735 3.322.579 1.412.671 3.076.192 5.113-.492 2.092-2.004 4.524-3.472 6.627-.653.937-1.32 1.838-1.914 2.641l-.246.332c-.663.898-1.197 1.631-1.523 2.164a.94.94 0 1 1-1.604-.983c.378-.616.965-1.419 1.615-2.298l.247-.335c.596-.805 1.246-1.683 1.883-2.597 1.479-2.119 2.783-4.282 3.183-5.982.413-1.755.294-3.004-.101-3.969-.4-.974-1.126-1.771-2.135-2.54-.797-.607-2.135-.781-3.71-.746-.666.015-1.319.064-1.935.111l-.258.019ZM267.689 164.502c-1.607-.114-2.799.307-3.536 1.446-.408.63-.76 1.594-1.056 2.805-.292 1.194-.511 2.556-.69 3.935-.156 1.208-.278 2.411-.39 3.511l-.046.457c-.123 1.201-.239 2.288-.383 3.041a.94.94 0 0 1-1.847-.354c.125-.655.234-1.651.359-2.878l.046-.454c.112-1.099.237-2.329.396-3.564.182-1.409.413-2.848.728-4.14.312-1.276.724-2.484 1.304-3.381 1.24-1.915 3.236-2.443 5.248-2.3 1.984.14 4.134.93 6.019 1.831l.015.007c5.77 2.885 7.524 5.553 7.876 8.091.126.908.061 1.794.009 2.498-.015.198-.029.382-.037.548-.039.817.036 1.292.353 1.693a.939.939 0 1 1-1.475 1.166c-.761-.962-.8-2.035-.756-2.949.012-.253.03-.494.047-.727.048-.668.092-1.279-.004-1.97-.229-1.655-1.339-3.909-6.846-6.664-1.807-.863-3.702-1.533-5.334-1.648Z"/><path d="M269.148 173.73c-.491.857-.713 2.054-.739 3.229a.94.94 0 0 1-1.88-.043c.03-1.322.275-2.877.987-4.121.748-1.305 2.02-2.261 3.923-2.196 1.844.064 3.26.912 4.296 2.31.159.214.355.433.585.691l.245.275c.303.345.671.779.899 1.234a.94.94 0 0 1-1.682.841c-.105-.209-.315-.476-.628-.831l-.192-.216c-.244-.273-.522-.583-.738-.875-.73-.985-1.635-1.508-2.85-1.549-1.102-.038-1.77.456-2.226 1.251Z"/></g><path d="m313.621 136.432-57.367-19.219-19.193-6.427-80.337 3.729 95.229 28.491 61.668-6.574Z" fill="#E35A2F"/><path d="m152.598 148.099 91.397 29.906 7.96-35.001-95.229-28.491-4.128 33.586Z" fill="#FF7043"/><path d="m251.809 142.739-7.522 35.73" stroke="#000" stroke-width="1.556"/><mask id="c" style="mask-type:alpha" maskUnits="userSpaceOnUse" x="154" y="115" width="100" height="65"><path d="m154.414 149.395 91.397 29.906 7.96-35.001-95.23-28.491-4.127 33.586Z" fill="#FF7043"/></mask><g mask="url(#c)"><path fill-rule="evenodd" clip-rule="evenodd" d="m163.442 162.229 6.582-47.953 3.726.512-6.582 47.953-3.726-.512Zm12.224 4.702 6.582-47.954 3.726.512-6.582 47.953-3.726-.511Zm14.109 4.665 7.522-47.953 3.716.583-7.522 47.953-3.716-.583Zm12.234 4.638 9.403-48.894 3.693.711-9.402 48.893-3.694-.71Zm13.165 3.754 9.403-47.953 3.691.724-9.403 47.953-3.691-.724Zm12.228 4.681 10.343-49.834 3.682.765-10.343 49.834-3.682-.765Z" fill="#fff"/></g><path d="m274.406 140.549-79.351-27.228h6.223l78.574 26.45-5.446.778Z" fill="#FFAC00"/><path d="m156.157 115.655 94.088 27.015c.58.167 1.187.219 1.788.154l60.208-6.484" stroke="#000" stroke-width="1.556"/><path d="m313.472 136.209-76.238-25.056-80.074 3.867-4.07 32.848 91.119 30.938 59.959-10.063 9.304-32.534Z" stroke="#000" stroke-width="1.556"/><path d="M239.806 125.204c-6.884-5.495-41.688-18.253-23.535-33.654 20.711-17.572 23.816 26.624 23.535 33.654ZM240.318 125.315c8.806.72 40.248 6.347 37.627-4.826-4.197-17.893-34.203-.202-37.627 4.826Z" stroke="#FFAC00" stroke-width="3.112" stroke-linejoin="round"/><path d="M208.137 182.918c2.736 1.02 5.727-.474 6.603-3.352l5.217-16.467c.912-2.842-.584-5.975-3.356-6.995-2.737-1.02-5.728.474-6.604 3.352l-5.217 16.467c-.875 2.842.621 5.975 3.357 6.995Z" fill="#F4AF89"/><path d="M219.556 179.238c2.7 1.931 6.348 1.275 8.136-1.493l12.914-19.783c1.788-2.769 1.095-6.594-1.605-8.525s-6.348-1.275-8.135 1.494l-12.915 19.782c-1.824 2.769-1.095 6.558 1.605 8.525Z" fill="#F4AF89"/><path d="M231.56 182.808c2.736 1.895 6.348 1.166 8.099-1.639l12.55-20.038c1.751-2.805.948-6.594-1.751-8.489-2.736-1.894-6.348-1.165-8.099 1.64l-12.55 20.037c-1.788 2.806-.985 6.595 1.751 8.489Z" fill="#F4AF89"/><path d="m230.208 215.052 11.163-16.14 7.333-30.202-41.298 2.405-10.507 16.176 33.309 27.761Z" fill="#F4AF89"/><path d="m171.946 239.388 14.374 12.278c5.071 4.335 11.237 5.137 13.79 1.821l33.309-43.026c4.451-5.756.912-16.503-7.88-24.008l-.402-.365c-9.047-7.723-20.028-9.181-24.516-3.279l-33.126 43.063c-2.517 3.242-.51 9.29 4.451 13.516Z" fill="#F4AF89"/><path d="M252.499 182.808s-16.271-.802-19.481 28.089l19.481-28.089Z" fill="#F4AF89"/><path d="M230.209 171.697c.146-.401 10.745-15.588 10.745-15.588" stroke="#000" stroke-width="1.556" stroke-linecap="round" stroke-linejoin="round"/><path d="M239.586 191.224c2.663 1.967 6.311 1.384 8.172-1.385l13.17-19.6c1.824-2.733 1.167-6.558-1.496-8.562-2.663-1.967-6.311-1.384-8.172 1.385l-13.17 19.6c-1.861 2.769-1.204 6.594 1.496 8.562Z" fill="#F4AF89"/><path d="m251.844 163.111-10.891 14.781" stroke="#000" stroke-width="1.556" stroke-linecap="round" stroke-linejoin="round"/><path d="m205.324 174.469-6.38 9.647 31.118 30.34 29.975-42.799a7.181 7.181 0 0 0 1.299-4.121v-1.399a5.06 5.06 0 0 0-7.664-4.34l-1.671 1.003 1.069-3.741a5.736 5.736 0 0 0-4.127-7.137 5.763 5.763 0 0 0-5.469 1.512l-2.364 2.364v-1.619c0-.982-.229-1.95-.668-2.828a5.058 5.058 0 0 0-2.748-2.474l-.189-.071a5.573 5.573 0 0 0-6.618 2.164l-12.338 18.831 1.223-7.339a6.225 6.225 0 0 0-.572-3.806l-.381-.761a4.083 4.083 0 0 0-5.479-1.826 6.808 6.808 0 0 0-3.442 4.024l-4.574 14.376Z" stroke="#000" stroke-width="1.556" stroke-linejoin="round"/><path d="m230.479 215.802-.001.002-6.023 7.526-35.42-31.034 6.064-7.578.001-.001c1.357-1.686 3.762-1.875 5.407-.415l.004.003 29.405 25.758.007.006c1.689 1.441 1.931 4.024.556 5.733Z" fill="#FF6000" stroke="#000" stroke-width="1.556"/><path d="m189.17 258.149-.011-.009-27.5-23.382a.014.014 0 0 0-.003-.004c-2.254-1.971-3.325-5.081-3.147-8.607.177-3.507 1.595-7.36 4.232-10.711l28.798-26.472 34.904 31.881-19.459 32.709c-2.656 3.339-6.004 5.494-9.238 6.305-3.242.813-6.328.271-8.576-1.71Z" fill="#FFAC00" stroke="#000" stroke-width="1.556"/><path d="m240.176 78.313-72.35-15.56M288.409 198.118l-36.564 17.893" stroke="#000" stroke-width="1.556" stroke-linecap="round" stroke-linejoin="round"/><path d="m298.681 183.223.003-.003.004-.002h.001l.002.001 3.514 1.428a5.968 5.968 0 0 0 4.827-.147l5.064-2.427.004-.002-13.419 1.152Zm0 0v.001l.001.003.636 3.739a5.963 5.963 0 0 1-1.184 4.681l-3.462 4.421-.003.005m4.012-12.85-4.012 12.85m0 0v-.003.001l-.001.004.001-.002Zm0 0a.014.014 0 0 1 .003.004l.004.004m-.007-.008 13.42-1.138m-13.413 1.146-.001.001h-.001l.004.001-.002-.002Zm0 0 .005-.002 5.064-2.427a5.97 5.97 0 0 1 4.826-.147l3.514 1.429.003.001h.001m0 0 .004-.002.003-.004m-.007.006.007-.006m4.011-12.849a.003.003 0 0 1 .001.002v-.001l.001-.004-.002.003Z" fill="#fff" stroke="#000" stroke-width=".652" stroke-linejoin="round"/><path d="m266.555 89.29-.004-.002-1.075-.567a5.967 5.967 0 0 1-2.995-3.789l-.154-.595v-.003h-.001s-.001-.002-.004-.002h-.004m4.237 4.958-4.237-4.959m4.237 4.96-.001.005a.008.008 0 0 1-.002.005m.003-.01h.002l-.002-.003v.002Zm0 0-.003.01m-4.234-4.97h-.001l-.002.003-.425.444a5.968 5.968 0 0 1-4.465 1.839l-1.215-.032h-.005m6.113-2.254-6.113 2.255m0 0a.008.008 0 0 0-.002.005l-.001.006.004.002 1.075.567a5.97 5.97 0 0 1 2.995 3.788l.153.596.001.003h.001s.001.002.004.002h.004m-4.234-4.97 4.234 4.97m0 0h.001l.002-.002.425-.444a5.968 5.968 0 0 1 4.465-1.84l1.215.032h.005m-6.113 2.255 6.113-2.255m0 0-.001.002.004-.002h-.003Z" fill="#8021F3" stroke="#000" stroke-width=".652" stroke-linejoin="round"/><path d="M150.574 52.69h.005l.004.002.001.003 1.379 3.534a5.967 5.967 0 0 0 3.425 3.405l5.243 2.009.005.002-10.062-8.954Zm0 0v.001l-.002.003-2.278 3.033a5.969 5.969 0 0 1-4.214 2.358l-5.591.524-.005.001m12.09-5.92-12.09 5.92m0 0 .001-.002a.01.01 0 0 1-.003.003h.002Zm0 0-.001.006v.005m.001-.01 10.051 8.963m-10.052-8.953h-.003l.003.002v-.002Zm0 0 .004.003 5.244 2.008a5.97 5.97 0 0 1 3.425 3.405l1.378 3.534.001.002v.001m0 0 .005.001h.004m-.009-.001.009.001m12.09-5.92-.001.003a.014.014 0 0 1 .004-.003h-.003Z" fill="#FFAC00" stroke="#000" stroke-width=".652" stroke-linejoin="round"/><path d="M194.789 96.4c-15.414-3.877-45.595-13.614-43.013-21.545 3.228-9.914 30.808 14.83 16.196 17.61-14.612 2.78-26.197-3.733-32.22-10.492" stroke="#000" stroke-width="1.556" stroke-linejoin="round" stroke-dasharray="2.33 2.33"/><circle cx="129.708" cy="78.313" r="2.786" fill="#25F4EE" stroke="#000" stroke-width=".652" stroke-linejoin="round"/><circle cx="244.844" cy="219.9" r="4.342" fill="#FE5274" stroke="#000" stroke-width=".652" stroke-linejoin="round"/></svg>