<svg viewBox="0 0 400 300" fill="none" xmlns="http://www.w3.org/2000/svg"><path fill-rule="evenodd" clip-rule="evenodd" d="M84.192 263.403h212c2.5 0 4.9-1.2 6.4-3.2s2-4.7 1.2-7.1l-18.6-62c-1-3.4-4.1-5.7-7.7-5.7h-168.4c-3.3 0-6.2 2-7.4 5l-25 62c-1 2.5-.7 5.3.8 7.5s4 3.5 6.7 3.5Z" fill="#EFEFEF"/><path fill-rule="evenodd" clip-rule="evenodd" d="m218.692 257.703 13.3-32.1s.3-21.5-5-27.7c-5.3-6.2-23.2-6.5-27-8.3-3.8-1.8-38.9 0-38.9 0l57.6 68.1Z" fill="#E3E3E3"/><path d="m218.692 257.703 13.3-32.1s.3-21.5-5-27.7c-5.3-6.2-23.2-6.5-27-8.3-3.8-1.8-38.9 0-38.9 0l57.6 68.1Z" stroke="#000" stroke-width="1.5"/><path d="M232.992 152.603c5.8 19.8 3.4 39.7 0 59.5v-59.5Z" fill="#fff"/><path d="M232.992 152.603c5.8 19.8 3.4 39.7 0 59.5" stroke="#000" stroke-width="1.5"/><path fill-rule="evenodd" clip-rule="evenodd" d="m176.692 271.803.9 12 42-26.7-4.4-2.8 3.2-5.4h-3.1l.8-6-36.5 25.6-2.9 3.3Z" fill="#E3E3E3"/><path d="m176.692 271.803.9 12 42-26.7-4.4-2.8 3.2-5.4h-3.1l.8-6-36.5 25.6-2.9 3.3Z" stroke="#000" stroke-width="1.5"/><path d="M180.02 194.311v4c0 2.4.6 4.8 1.8 6.9l15.9 27.9c1.1 2 3.4 2.9 5.6 2.4l35.1-8.9c1.3-.3 2.3-1.5 2.3-2.9v-2.7" fill="#fff"/><path d="M180.02 194.311v4c0 2.4.6 4.8 1.8 6.9l15.9 27.9c1.1 2 3.4 2.9 5.6 2.4l35.1-8.9c1.3-.3 2.3-1.5 2.3-2.9v-2.7" stroke="#000" stroke-width="1.5"/><path fill-rule="evenodd" clip-rule="evenodd" d="m204.02 232.811 34.3-8.8c1.2-.3 2.2-1.2 2.7-2.4s.4-2.5-.3-3.6l-16.8-27.5c-.4-.7-1-1.2-1.7-1.5l-9.4-4.6c-.8-.4-1.7-.5-2.6-.3l-27 5.8c-1.2.3-2.3 1.1-2.8 2.3-.5 1.1-.5 2.5.1 3.6l19 35.1c.9 1.5 2.8 2.4 4.5 1.9Z" fill="#fff"/><path d="m204.02 232.811 34.3-8.8c1.2-.3 2.2-1.2 2.7-2.4s.4-2.5-.3-3.6l-16.8-27.5c-.4-.7-1-1.2-1.7-1.5l-9.4-4.6c-.8-.4-1.7-.5-2.6-.3l-27 5.8c-1.2.3-2.3 1.1-2.8 2.3-.5 1.1-.5 2.5.1 3.6l19 35.1c.9 1.5 2.8 2.4 4.5 1.9Z" stroke="#000" stroke-width="1.5"/><path fill-rule="evenodd" clip-rule="evenodd" d="m196.02 202.011 12.3-2.6-8.4-12.8-12.2 2.3 8.3 13.1Z" fill="#fff"/><path d="m196.02 202.011 12.3-2.6-8.4-12.8-12.2 2.3 8.3 13.1Z" stroke="#000" stroke-width="1.5"/><path fill-rule="evenodd" clip-rule="evenodd" d="m197.22 199.511 7.5-1.5-2.1-3.1-7.1 1.5 1.7 3.1Z" fill="#000"/><path d="m208.32 230.611-7.8-16.1c-.4-.8-.4-1.8 0-2.6s1.1-1.4 2-1.6l17.3-4.1c1.3-.3 2.6.3 3.3 1.4l8.9 15" fill="#fff"/><path d="m208.32 230.611-7.8-16.1c-.4-.8-.4-1.8 0-2.6s1.1-1.4 2-1.6l17.3-4.1c1.3-.3 2.6.3 3.3 1.4l8.9 15" stroke="#000" stroke-width="1.5"/><path d="M147.792 150.003c5.8 19.8 3.4 39.7 0 59.5v-59.5Z" fill="#fff"/><path d="M147.792 150.003c5.8 19.8 3.4 39.7 0 59.5" stroke="#000" stroke-width="1.5"/><path fill-rule="evenodd" clip-rule="evenodd" d="m123.692 230.903 53.9 52.9 1.9-4-1.9-2.6 1.9-1.5-2.8-4 2.8-3.2-23.6-30.7-31.8-15.4-.4 2.6 1.6 1.4-2.2.5 2.2 2.2-1.6 1.8Z" fill="#E3E3E3"/><path d="m123.692 230.903 53.9 52.9 1.9-4-1.9-2.6 1.9-1.5-2.8-4 2.8-3.2-23.6-30.7-31.8-15.4-.4 2.6 1.6 1.4-2.2.5 2.2 2.2-1.6 1.8Z" stroke="#000" stroke-width="1.5"/><path fill-rule="evenodd" clip-rule="evenodd" d="M124.192 222.503c18.8 10.1 37.3 26.9 55.6 46.1l36.3-25.6c-14.3-20.3-34.7-36.8-55.9-53.3-10.8 12.2-22.3 23.7-36 32.8Z" fill="#fff"/><path d="M124.192 222.503c18.8 10.1 37.3 26.9 55.6 46.1l36.3-25.6c-14.3-20.3-34.7-36.8-55.9-53.3-10.8 12.2-22.3 23.7-36 32.8Z" stroke="#000" stroke-width="1.5"/><path fill-rule="evenodd" clip-rule="evenodd" d="M183.292 223.003c.4-1-.3-2.3-1.6-2.7-1.3-.5-2.6 0-3 1-.4 1 .3 2.3 1.6 2.7 1.2.5 2.6 0 3-1Z" fill="#fff"/><path d="M183.292 223.003c.4-1-.3-2.3-1.6-2.7-1.3-.5-2.6 0-3 1-.4 1 .3 2.3 1.6 2.7 1.2.5 2.6 0 3-1Z" stroke="#000" stroke-width="1.5"/><path fill-rule="evenodd" clip-rule="evenodd" d="m254.292 182.303-22.3 7.2s-7 4.1-9.5 5.4c-4.1 2.1-6.7 2.7-6.4 4.6.6 4.6 13.1-1.4 13.1-1.4l3.9 7.6s1.8 3.3 3.4 3c6.9-1.2 12.6-6.7 12.6-9.2 0-4.6 7.9-9.9 7.9-9.9l-2.7-7.3Z" fill="#fff"/><path d="m254.292 182.303-22.3 7.2s-7 4.1-9.5 5.4c-4.1 2.1-6.7 2.7-6.4 4.6.6 4.6 13.1-1.4 13.1-1.4l3.9 7.6s1.8 3.3 3.4 3c6.9-1.2 12.6-6.7 12.6-9.2 0-4.6 7.9-9.9 7.9-9.9l-2.7-7.3ZM170.792 77.203s-4.4-4.4-4.4-7.2c0-2.9-.7-6.7.7-5.8 1.5.9 3 2.9 3 2.9M214.092 79.003s4.4-4.4 4.4-7.2c0-2.9.7-6.7-.7-5.8-1.5.9-3 2.9-3 2.9" stroke="#000" stroke-width="1.5"/><path fill-rule="evenodd" clip-rule="evenodd" d="M132.392 215.303c1.5.9 4.3-1.6 4.3-1.6l6.2-5.8s8.7 8 10.9 3.9c.8-1.5-1.4-2.4-3.6-4.8-1.8-2-7-8-7-8l-18.5-14.4-5 5.9s5.6 7.7 4 12.1c-.8 2.1 2.7 9.3 8.7 12.7Z" fill="#fff"/><path d="M132.392 215.303c1.5.9 4.3-1.6 4.3-1.6l6.2-5.8s8.7 8 10.9 3.9c.8-1.5-1.4-2.4-3.6-4.8-1.8-2-7-8-7-8l-18.5-14.4-5 5.9s5.6 7.7 4 12.1c-.8 2.1 2.7 9.3 8.7 12.7Z" stroke="#000" stroke-width="1.5"/><path d="m236.492 139.603 9.9 12.7c6.8 8.6 5.3 21.1-3.3 27.9l-4.5 3.6 14.8 15.7 17.6-18.3c5.3-5.3 7.5-12.8 5.9-20.1-3.1-13.3-10-34.9-23.6-47-20.4-18.4-45-16.2-45-16.2" fill="#fff"/><path d="m236.492 139.603 9.9 12.7c6.8 8.6 5.3 21.1-3.3 27.9l-4.5 3.6 14.8 15.7 17.6-18.3c5.3-5.3 7.5-12.8 5.9-20.1-3.1-13.3-10-34.9-23.6-47-20.4-18.4-45-16.2-45-16.2" stroke="#000" stroke-width="1.5"/><path d="m151.292 140.303-7.2 9c-7.4 9.4-10.8 21.3-9.4 33.2l.5 4-17.6 10.6-3.2-19.8c-2.2-13.9-.5-28.1 5-41l2.3-5.3c6.7-15.7 20.8-27 37.6-30.2l10.7-2" fill="#fff"/><path d="m151.292 140.303-7.2 9c-7.4 9.4-10.8 21.3-9.4 33.2l.5 4-17.6 10.6-3.2-19.8c-2.2-13.9-.5-28.1 5-41l2.3-5.3c6.7-15.7 20.8-27 37.6-30.2l10.7-2" stroke="#000" stroke-width="1.5"/><path fill-rule="evenodd" clip-rule="evenodd" d="M204.992 108.603c-.9-9 0-34.2 0-34.2h-25.4s-1.5 17.4-1.8 23.4c-.3 5.9-.4 8.9 0 12.6 1.9 14.9 28.1 7.2 27.2-1.8Z" fill="#fff"/><path d="M204.992 108.603c-.9-9 0-34.2 0-34.2h-25.4s-1.5 17.4-1.8 23.4c-.3 5.9-.4 8.9 0 12.6 1.9 14.9 28.1 7.2 27.2-1.8Z" stroke="#000" stroke-width="1.5"/><path fill-rule="evenodd" clip-rule="evenodd" d="M199.292 97.503c9.3-4.1 16.2-16.8 16.2-31.9 0-18.4-10.1-33.3-22.7-33.3s-22.7 14.9-22.7 33.3c0 14.1 6 26.2 14.4 31 2.5 1.5 5.2.9 8.1.9 2.3 0 4.6.9 6.7 0Z" fill="#fff"/><path d="M199.292 97.503c9.3-4.1 16.2-16.8 16.2-31.9 0-18.4-10.1-33.3-22.7-33.3s-22.7 14.9-22.7 33.3c0 14.1 6 26.2 14.4 31 2.5 1.5 5.2.9 8.1.9 2.3 0 4.6.9 6.7 0Z" stroke="#000" stroke-width="1.5"/><path fill-rule="evenodd" clip-rule="evenodd" d="m214.793 32.103-1.3.9c-.2.1-.4.1-.6 0-.2-.1-.3-.3-.2-.6.4-1.8.5-4.8-2.1-6.1-2.2-1.1-6.8-2.4-13.5-3.8-.4-.1-.9.3-1.3.7-.6.7-1.6.8-2.4.3-.9-.6-2.2-1.1-3.6-1-2.2.2-11.4 5.3-14.5 7-.6.5-.9 1.3-.8 2 0 .6 0 1.2-.2 1.5-.4.6-2.2.6-2.6 1.2-4.2 7.1-4.3 7.7-4.3 13 0 9.6 2.7 17.9 2.7 17.9l5.2-5.8c.9-1.1 1.5-2.4 1.7-3.8l.5-4.1c0-.5.3-.9.7-1.1.4-.2.9-.3 1.3-.1 1.1.5 2.3.1 2.9-.9l.7-1c1.1-1.7 3-2.6 5-2.6h7.7c.8 0 1.5.1 2.2.4l8.7 2.9c.8.3 1.5.9 1.8 1.7.5 1.3 1.3 3.4 2.2 5.6 1.3 3.5 4.8 8.8 4.8 8.8s7-9.9 7-21.3c0-10.1-5.8-11.6-7.1-11.8-.3-.1-.4 0-.6.1Z" fill="#000"/><path d="m214.793 32.103-1.3.9c-.2.1-.4.1-.6 0-.2-.1-.3-.3-.2-.6.4-1.8.5-4.8-2.1-6.1-2.2-1.1-6.8-2.4-13.5-3.8-.4-.1-.9.3-1.3.7-.6.7-1.6.8-2.4.3-.9-.6-2.2-1.1-3.6-1-2.2.2-11.4 5.3-14.5 7-.6.5-.9 1.3-.8 2 0 .6 0 1.2-.2 1.5-.4.6-2.2.6-2.6 1.2-4.2 7.1-4.3 7.7-4.3 13 0 9.6 2.7 17.9 2.7 17.9l5.2-5.8c.9-1.1 1.5-2.4 1.7-3.8l.5-4.1c0-.5.3-.9.7-1.1.4-.2.9-.3 1.3-.1 1.1.5 2.3.1 2.9-.9l.7-1c1.1-1.7 3-2.6 5-2.6h7.7c.8 0 1.5.1 2.2.4l8.7 2.9c.8.3 1.5.9 1.8 1.7.5 1.3 1.3 3.4 2.2 5.6 1.3 3.5 4.8 8.8 4.8 8.8s7-9.9 7-21.3c0-10.1-5.8-11.6-7.1-11.8-.3-.1-.4 0-.6.1Z" stroke="#000" stroke-width="1.5"/><path fill-rule="evenodd" clip-rule="evenodd" d="M185.892 64.903c0-1.2-1-2.2-2.2-2.2-1.2 0-2.2 1-2.2 2.2 0 1.2 1 2.2 2.2 2.2 1.2 0 2.2-1 2.2-2.2ZM203.392 64.903c0-1.2-1-2.2-2.2-2.2-1.2 0-2.2 1-2.2 2.2 0 1.2 1 2.2 2.2 2.2 1.2 0 2.2-1 2.2-2.2Z" fill="#000"/><path d="M192.092 67.103s-.6 5.5 1.2 6.6c1.8 1.2 4 3.3 2.3 4.6-1.7 1.2-5.4.7-5.4.7M189.893 87.603c2.3 2.4 4.4 1.8 6.4 0" stroke="#000" stroke-width="1.5"/><path d="M171.893 36.803s1.5-1.4 3.4-1.4 1-3.8 1-3.8M206.593 27.003c-2.8.1-5.5-.5-8.4-2.4 0 0-.5 1.2-1.8 1.2" stroke="#fff"/><path d="M201.393 45.203s7.4 1.3 8.6 3.7c1.2 2.5 1.2 4.5 2 4.5" stroke="#fff" stroke-width="1.5"/><path fill-rule="evenodd" clip-rule="evenodd" d="M320.367 133.686c3.779-12.487-3.2-25.829-15.891-30.572 1.127-15.402-10.259-29.17-26.04-31.4-15.761-2.328-30.551 7.615-33.732 22.58-12.939-2.137-25.141 6.209-27.173 18.658-2.054 12.548 6.885 24.364 19.802 26.599l52.82 11.227c13.303 2.828 26.435-4.605 30.214-17.092Z" fill="#5578EC"/><path d="M320.367 133.686c3.779-12.487-3.2-25.829-15.891-30.572 1.127-15.402-10.259-29.17-26.04-31.4-15.761-2.328-30.551 7.615-33.732 22.58-12.939-2.137-25.141 6.209-27.173 18.658-2.054 12.548 6.885 24.364 19.802 26.599l52.82 11.227c13.303 2.828 26.435-4.605 30.214-17.092Z" stroke="#3351E5" stroke-width="9"/><path d="m246.708 115.167 7.488 8.543c2.806 3.152 7.507 3.641 10.813 1.072l23.731-17.856" stroke="#fff" stroke-width="9"/><path fill-rule="evenodd" clip-rule="evenodd" d="M196.292 121.003c0-1.9-2.5-3.5-5.5-3.5-3.1 0-5.5 1.6-5.5 3.5s2.5 3.5 5.5 3.5 5.5-1.6 5.5-3.5Z" fill="#EFEFEF"/><path d="M196.292 121.003c0-1.9-2.5-3.5-5.5-3.5-3.1 0-5.5 1.6-5.5 3.5s2.5 3.5 5.5 3.5 5.5-1.6 5.5-3.5Z" stroke="#000" stroke-width="1.5"/><path fill-rule="evenodd" clip-rule="evenodd" d="m171.893 129.303 18.3-11.8s-6-2-8.1-5.2c-2.1-3.2-4.1-13.4-4.1-13.4l-6.1 30.4Z" fill="#fff"/><path d="m171.893 129.303 18.3-11.8s-6-2-8.1-5.2c-2.1-3.2-4.1-13.4-4.1-13.4l-6.1 30.4Z" stroke="#000" stroke-width="1.5"/><path fill-rule="evenodd" clip-rule="evenodd" d="M204.792 100.003c0-.7-.1-1.4-.1-2.1l.1 2.1Zm-12.7 17.4 14.6 11.9-1.9-29.4c.4 10.4-4.5 15.6-12.7 17.5Z" fill="#fff"/><path d="M204.792 100.003c0-.7-.1-1.4-.1-2.1l.1 2.1Zm-12.7 17.4 14.6 11.9-1.9-29.4c.4 10.4-4.5 15.6-12.7 17.5Z" stroke="#000" stroke-width="1.5"/><path fill-rule="evenodd" clip-rule="evenodd" d="M183.692 156.703c1.5 10.9 2.2 14.3 2.2 14.3l6.9 8.7 7.3-8.7s.7-17.5 0-24.9c-.7-7.4-6.9-21.6-6.9-21.6h-5.5s-5.5 21.3-4 32.2Z" fill="#EFEFEF"/><path d="M183.692 156.703c1.5 10.9 2.2 14.3 2.2 14.3l6.9 8.7 7.3-8.7s.7-17.5 0-24.9c-.7-7.4-6.9-21.6-6.9-21.6h-5.5s-5.5 21.3-4 32.2Z" stroke="#000" stroke-width="1.5"/><path fill-rule="evenodd" clip-rule="evenodd" d="M87.492 257.703h35.6l3.8-8h-35.6l-3.8 8Z" fill="#D8D8D8"/><path d="M246.593 242.103c-.8-.5-1.7-.7-2.7-.6-.9.1-1.8.4-2.6 1s-1.3 1.4-1.6 2.2c-.3.9-.3 1.8-.1 2.7.3 1.2 1.1 2.2 2.2 2.9 1.1.7 2.4.8 3.6.5.9-.2 1.7-.7 2.3-1.4.6-.7 1-1.6 1.1-2.5.1-.9 0-1.9-.4-2.7-.4-.9-1-1.6-1.8-2.1ZM303.992 164.303l-6.3 5.4M312.193 161.503l-6.3 5.4" stroke="#5578EC" stroke-width="1.944"/><path d="m134.792 209.003 3.2 3.4M132.492 211.203l2.8 3M137.592 206.803l2.7 2.7M235.89 201.197l-4.087 2.115M234.36 198.406l-3.622 1.928M237.29 204.471l-3.307 1.909" stroke="#000" stroke-width="1.5"/></svg>