<svg viewBox="0 0 400 300" fill="none" xmlns="http://www.w3.org/2000/svg"><path fill-rule="evenodd" clip-rule="evenodd" d="m88.504 197.7 204.8 57.3c3.9 1.1 8.1-.6 10.2-4.1 2.1-3.5 1.6-8-1.3-10.9l-104.1-107.1c-2.7-2.8-7-3.5-10.5-1.8L86.904 181c-3.3 1.7-5.3 5.2-5 8.9.4 3.7 3 6.8 6.6 7.8ZM151.703 81.8c0-13.2-10.7-23.8-23.8-23.8-13.1 0-23.7 10.6-23.7 23.8 0 13.2 10.6 23.7 23.7 23.7s23.8-10.6 23.8-23.7Z" fill="#EFEFEF"/><path d="M127.903 95.8c7.7 0 14-6.3 14-14s-6.3-14-14-14-14 6.3-14 14" stroke="#000" stroke-width="1.5" stroke-dasharray="4 4"/><path fill-rule="evenodd" clip-rule="evenodd" d="M230.803 81.8c0-13.1-10.6-23.8-23.8-23.8-13.2 0-23.8 10.6-23.8 23.8 0 13.2 10.6 23.8 23.8 23.8 13.2 0 23.8-10.7 23.8-23.8ZM310.003 81.8c0-13.1-10.6-23.8-23.8-23.8-13.1 0-23.8 10.6-23.8 23.8 0 13.2 10.6 23.8 23.8 23.8 13.1-.1 23.8-10.7 23.8-23.8Z" fill="#EFEFEF"/><path d="M190.503 254.4c9.1-16.6 16-33.4 25.2-49-25.4-3.1-30.9-2.3-54.9 1.6l-48.2 16.8c-12.9 8.5-23.6 18.8-32.4 30.5" fill="#fff"/><path d="M190.503 254.4c9.1-16.6 16-33.4 25.2-49-25.4-3.1-30.9-2.3-54.9 1.6l-48.2 16.8c-12.9 8.5-23.6 18.8-32.4 30.5" stroke="#000" stroke-width="1.5"/><path fill-rule="evenodd" clip-rule="evenodd" d="M83.703 173.5c2.8 6.8 11.4 4.5 11.4 4.5l19.5 42 5.2 10.5 36.7-17.7-9.5-27.3s17.3-11 12.9-26.2c-4.5-15.3-16.6-44.3-16.6-44.3l-33.4-5.7-17.6 9.2-7.5 14.2 4.3 26.4c.1.1-8.2 7.6-5.4 14.4Z" fill="#fff"/><path d="M83.703 173.5c2.8 6.8 11.4 4.5 11.4 4.5l19.5 42 5.2 10.5 36.7-17.7-9.5-27.3s17.3-11 12.9-26.2c-4.5-15.3-16.6-44.3-16.6-44.3l-33.4-5.7-17.6 9.2-7.5 14.2 4.3 26.4c.1.1-8.2 7.6-5.4 14.4Z" stroke="#000" stroke-width="1.5"/><path d="M147.104 185.5c-5.9 3.2-13.1 5.7-28.5 3M126.703 170.8c.6 2.8 2.4 4.7 6.1 5.1" stroke="#000" stroke-width="1.5"/><path d="M136.803 142.4s2.6 3.7 5.6 3.7c3 0 7.4-1.2 8.9 1.3 1.9 5.1-7.3 7.7-7.3 7.7" stroke="#050505" stroke-width="1.5"/><path fill-rule="evenodd" clip-rule="evenodd" d="M120.603 146c-.7-2.8-2.1-4.9-3.2-4.6-1.1.3-1.5 2.8-.9 5.6.7 2.8 2.1 4.9 3.2 4.6 1.2-.3 1.5-2.8.9-5.6ZM142.503 137.1c-.5-2.2-1.6-3.7-2.5-3.5-.9.2-1.2 2.1-.7 4.3.5 2.2 1.6 3.7 2.5 3.5.9-.3 1.2-2.2.7-4.3Z" fill="#000"/><path d="M110.104 130.5c.7-1.7.8-3.7 3.8-4.6M131.203 121.7c2.5-.7 3.7.1 4.8.9" stroke="#050505" stroke-width="1.5"/><path fill-rule="evenodd" clip-rule="evenodd" d="M315.603 188.5s.7.4 1.7 1.1c2.8 1.6 8.1 4.1 8.1 0 0-5.5-26.9-11.7-26.9-11.7s-54.9-10.6-87.4-4.5l104.5 15.1Zm0 0s.7.5 1.7 1.1c-1-.7-1.7-1.1-1.7-1.1Zm12.9 15.9s.7.6 1.6 1.5c1 .5 2.2.6 3.2-1.5 1.6-3.3-11.2-11.8-15.9-14.7l11.1 14.7Zm0 0s.7 1 1.6 1.5c-.9-1-1.6-1.5-1.6-1.5Zm1.6 1.4c1.9 1.9 4.8 5.3 3.2 6.9-2.4 2.4-7.8 0-7.8 0s6.2 3.1 3.1 6.7c-4.1 5.8-75.3-6.7-75.3-6.7s.6 9.4-4.8 9.4c-5.4 0-6.5-10.2-18.4-10.2-11.8 0-23.3-11.1-23.3-11.1m-50.3 53.6s22-75 54.6-81l-54.6 81Z" fill="#fff"/><path d="M330.103 205.8c1.9 1.9 4.8 5.3 3.2 6.9-2.4 2.4-7.8 0-7.8 0s6.2 3.1 3.1 6.7c-4.1 5.8-75.3-6.7-75.3-6.7s.6 9.4-4.8 9.4c-5.4 0-6.5-10.2-18.4-10.2-11.8 0-23.3-11.1-23.3-11.1m-50.3 53.6s22-75 54.6-81m104.5 15.1s.7.4 1.7 1.1c2.8 1.6 8.1 4.1 8.1 0 0-5.5-26.9-11.7-26.9-11.7s-54.9-10.6-87.4-4.5l104.5 15.1Zm0 0s.7.5 1.7 1.1c-1-.7-1.7-1.1-1.7-1.1Zm12.9 15.9s.7.6 1.6 1.5c1 .5 2.2.6 3.2-1.5 1.6-3.3-11.2-11.8-15.9-14.7l11.1 14.7Zm0 0s.7 1 1.6 1.5c-.9-1-1.6-1.5-1.6-1.5Z" stroke="#000" stroke-width="1.5"/><path fill-rule="evenodd" clip-rule="evenodd" d="M324.404 206.8c1.3-1.3 7.2 2.2 4.1-.8-.6-.6 0-1.6 0-1.6s-5.8-4.4-4.9-6c1.4-2.5 2.5-1.8-8.3-8.8-.8-.5.3-1.1.3-1.1s-4.7-.3-4.7-4c0-1.5 10.4 1.3 3.8-1.1-4-1.4-15.8-4.5-15.8-4.5s-44.7-6.6-62.2-6.6c-9.1 0-17.3-.2-24.7 1.2-32.5 6-54.4 80.8-54.4 80.8h31.6l24.4-46.9s-3.9-2.7-5.3-4.2c-.6-.6-2.2-1.9-2.2-1.9-.2-.9.2-1.2 1-1.2 0 0 11.7 11.2 23.6 11.2 11.9 0 11.8 9.9 17.2 9.9 5.4 0 3.4-9.9 3.4-9.9s66.9 11.1 71.1 5.2c3.1-3.5 3-3.8 3-3.8s-3.4-3.5-1-5.9Z" fill="#fff"/><path d="M247.803 198c2.9 4.6 4.4 9.6 5.4 14.8" stroke="#000" stroke-width="1.5"/><path d="M250.503 195c2 2.8 2 5.6 0 8.4M325.403 212.8c-12.9-6.2-25-9.4-36.7-11M329.103 204.8c-8.8-4.5-16.3-10.3-27.7-11.9" stroke="#000" stroke-width="1.5"/><path d="M286.203 204c1.9-.9 2.1-1.5 2.4-2.2 1.2-.3 1.2-1.6 1.1-2.9M292.903 193.7c1.9-.9 2.1-1.5 2.4-2.2 1.2-.3 1.2-1.6 1.1-2.9M295.303 191.4l3.5.8M315.503 188.5c-5-2.3-8.1-4.1-14.1-3.9" stroke="#000" stroke-width="1.5"/><path d="M114.603 219.9c-2.2 1.8-2.5 4.2-.9 7.3 2.3 4.6 18.9 4.1 28.5 0 9.6-4.1 20.1-12.5 18.7-17.7-.9-3.5-3.1-5.2-6.7-5.2" fill="#D8D8D8"/><path d="M114.603 219.9c-2.2 1.8-2.5 4.2-.9 7.3 2.3 4.6 18.9 4.1 28.5 0 9.6-4.1 20.1-12.5 18.7-17.7-.9-3.5-3.1-5.2-6.7-5.2" stroke="#000" stroke-width="1.5"/><path d="M114.604 219.9c3.5 7.6 12.4 8.1 26.6 1.6 14.2-6.5 18.6-12.3 13-17.2" fill="#fff"/><path d="M114.604 219.9c3.5 7.6 12.4 8.1 26.6 1.6 14.2-6.5 18.6-12.3 13-17.2M223.303 215.2c14.2 4.9 24.1 19.8 33.8 35.3" stroke="#000" stroke-width="1.5"/><path d="M207.503 95.8c7.7 0 14-6.3 14-14s-6.3-14-14-14-14 6.3-14 14" stroke="#000" stroke-width="1.5" stroke-dasharray="4 4"/><path fill-rule="evenodd" clip-rule="evenodd" d="M88.203 161.3s-1.8-3.2-3.5-4.5c-1.5-1.2-10.4-9.5-13.5-13.3-7-8.6-7.7-24.8 1.7-37.7.1.3.2.5.4.6 1.1 1 3.6-.1 5.6-2.5 1.9-2.3 2.6-5 1.5-5.9 23.8-18.3 42.6-3.9 42.6-3.9s12.5 14.1 28.7 15.3c.5 0 1 .1 1.5.1 12.9.7 21.1 1.1 19.8 5.4-.6 2-7.8 1.8-17.8 1.4-11.6-.4-27.1-1-40.6 1.6-25.4 4.9-20.3 41.1-20.3 41.1l-6.1 2.3Zm-14.4-56.7c1.7-2.1 3.6-4.1 5.8-6 .1 0 .1.1.2.1.6.5.1 2.6-1.6 4.5-1.6 2-3.6 2.8-4.2 2.4-.2-.1-.2-.5-.2-1Z" fill="#000"/><path d="M83.003 109.3c5.9 1.9 11.3 4.3 14.7 9.5M76.903 122s-.6 12.1 4.3 16.8c4.9 4.7 6.7 4.7 6.7 4.7" stroke="#fff" stroke-width="1.5"/><path d="m238.707 168.104-7.296 19.666M280.363 160.759l13.582 15.984" stroke="#000" stroke-width="1.5"/><path fill-rule="evenodd" clip-rule="evenodd" d="m226.038 79.559 12.314 12.248a38.637 38.637 0 0 1 10.833-3.637c6.007-1.059 11.962-.687 17.535.97-.006-.608.185-1.251.492-1.813l7.927-15.512a4.481 4.481 0 0 1 6.048-1.98l1.222.596a4.48 4.48 0 0 1 1.981 6.048l-7.91 15.611c-.226.446-.469.794-.73 1.043 9.193 5.487 16.021 14.843 18.036 26.267 3.681 20.878-10.271 40.803-31.149 44.485-20.878 3.681-40.902-10.254-44.583-31.132a38.15 38.15 0 0 1 10.096-33.156l-11.086-11.043c-2.109-2.167-2.108-5.62.041-7.826l1.124-1.112c2.167-2.109 5.718-2.126 7.809-.057Z" fill="#5578EC"/><path d="m226.038 79.559 12.314 12.248a38.637 38.637 0 0 1 10.833-3.637c6.007-1.059 11.962-.687 17.535.97-.006-.608.185-1.251.492-1.813l7.927-15.512a4.481 4.481 0 0 1 6.048-1.98l1.222.596a4.48 4.48 0 0 1 1.981 6.048l-7.91 15.611c-.226.446-.469.794-.73 1.043 9.193 5.487 16.021 14.843 18.036 26.267 3.681 20.878-10.271 40.803-31.149 44.485-20.878 3.681-40.902-10.254-44.583-31.132a38.15 38.15 0 0 1 10.096-33.156l-11.086-11.043c-2.109-2.167-2.108-5.62.041-7.826l1.124-1.112c2.167-2.109 5.718-2.126 7.809-.057Z" stroke="#3351E5" stroke-width="9"/><path d="m251.599 101.859 4.792 27.181 15.483 13.516" stroke="#fff" stroke-width="9"/><path d="M91.303 100.5c5.3-2.2 10.1-2 14.4.5 4.4 2.6 7.1 7 11.4 8.6M89.204 159.2s-5.8-30.8 8.5-40.4c14.399-12.7 49.399-9.5 49.399-9.5" stroke="#fff" stroke-width="1.5"/><path opacity=".3" fill-rule="evenodd" clip-rule="evenodd" d="M286.203 187.8c0-3.6-14.5-6.5-32.4-6.5s-32.4 2.9-32.4 6.5 14.5 6.5 32.4 6.5 32.4-2.9 32.4-6.5Z" fill="#D8D8D8"/><path d="M90.303 165.9s-2.6 2.7-2.6 4.3c0 1.6 1.3 2.8 1.3 2.8" stroke="#000" stroke-width="1.5"/><path d="M248.103 181.4c.1-.9 0-1.9-.4-2.7-.4-.8-1.1-1.5-1.9-2-.8-.5-1.7-.7-2.7-.6-.9.1-1.8.4-2.6 1s-1.3 1.4-1.6 2.2c-.3.9-.3 1.8-.1 2.7.3 1.2 1.1 2.2 2.2 2.9 1.1.7 2.4.8 3.6.5.9-.2 1.7-.7 2.3-1.4.7-.8 1.1-1.7 1.2-2.6ZM305.803 157.9l-6.3 5.4M314.003 155.1l-6.3 5.4" stroke="#5578EC" stroke-width="1.944"/></svg>