<svg viewBox="0 0 400 300" fill="none" xmlns="http://www.w3.org/2000/svg"><path fill-rule="evenodd" clip-rule="evenodd" d="M282.62 255.56v-115.6h-54.6v115.5h54.6v.1Z" fill="#EFEFEF"/><path fill-rule="evenodd" clip-rule="evenodd" d="M284.12 141.46v-3.8h-57.6v3.8h57.6Z" fill="#EFEFEF"/><path fill-rule="evenodd" clip-rule="evenodd" d="M280.72 150.96v-18.2h-50.8v18.2h50.8Z" fill="#EFEFEF"/><path fill-rule="evenodd" clip-rule="evenodd" d="M276.82 145.16v-19.8h-20.1v19.9h20.1v-.1Z" fill="#EFEFEF"/><path fill-rule="evenodd" clip-rule="evenodd" d="M276.82 130.96v-10.5h-8.3l-3.3 10.5h11.6Z" fill="#EFEFEF"/><path fill-rule="evenodd" clip-rule="evenodd" d="M272.12 135.06v-23.3h-1.1v23.3h1.1ZM272.581 110.56c0-.7-.4-1.2-1-1.2s-1 .5-1 1.2.4 1.2 1 1.2 1-.5 1-1.2ZM299.481 255.561v-36h-24.4v36h24.4Z" fill="#EFEFEF"/><path fill-rule="evenodd" clip-rule="evenodd" d="M338.781 220.66v-44.3c0-4.6-1.8-9-5.1-12.3-3.3-3.3-7.7-5.1-12.3-5.1-9.6 0-17.4 7.8-17.4 17.4v57.3l-10 1.1-3.6 20.7h13.6c9.2 0 18.1-3.7 24.6-10.2 6.6-6.5 10.2-15.3 10.2-24.6ZM151.915 84.6c0-.7.5-1.2 1.2-1.2s1.2.5 1.2 1.2c0 .6-.5 1.2-1.1 1.2h.6v8.7h3l1.8 4.9h12.2v7.4h32v4.9h4v3.8h-1.8v134h-65v-134h-1.8v-3.8h4v-4.9h4.6V94.5h5.6v-8.7h.6c-.6-.1-1.1-.6-1.1-1.2Zm9.4 45.6v-7.4h-1.9v7.4h1.9Zm6.9 0v-7.4h-1.9v7.4h1.9Zm8.3 0v-7.4h-1.9v7.4h1.9Zm6.9 0v-7.4h-1.9v7.4h1.9Zm7.9 0v-7.4h-1.9v7.4h1.9Zm6.9 0v-7.4h-1.9v7.4h1.9Zm-36.9 12.9v-7.4h-1.9v7.4h1.9Zm6.9 0v-7.4h-1.9v7.4h1.9Zm8.3 0v-7.4h-1.9v7.4h1.9Zm6.9 0v-7.4h-1.9v7.4h1.9Zm7.9 0v-7.4h-1.9v7.4h1.9Zm6.9 0v-7.4h-1.9v7.4h1.9Zm-36.9 12.9v-7.4h-1.9v7.4h1.9Zm6.9 0v-7.4h-1.9v7.4h1.9Zm8.3 0v-7.4h-1.9v7.4h1.9Zm6.9 0v-7.4h-1.9v7.4h1.9Zm7.9 0v-7.4h-1.9v7.4h1.9Zm6.9 0v-7.4h-1.9v7.4h1.9ZM92.515 159.1h-12v33.4h-2.5v41.7l18.6 18.9h28.4v-60.6h-2.4v-33.4h-12.1v-12.7h-6.5v-10.7h-2.3v-18.3h-.6v18.3h-2.3v10.7h-6.5v12.7h.2Z" fill="#EFEFEF"/><path d="M230.814 99.5c0-5.8-4.7-10.5-10.5-10.5s-10.5 4.7-10.5 10.5 4.7 10.5 10.5 10.5 10.5-4.7 10.5-10.5Z" stroke="#000" stroke-width="1.5"/><path d="M201.715 95.6c4.1-2.7 8-2.8 11.5 0" stroke="#000" stroke-width="1.5"/><path d="m229.515 95.6 13.1 2.2-13.1-2.2Z" fill="#fff"/><path d="m229.515 95.6 13.1 2.2" stroke="#000" stroke-width="1.5"/><path d="M256.915 102.5s5.6 4 5.6 7.5-1.7 4.8-1.7 4.8" fill="#fff"/><path d="M256.915 102.5s5.6 4 5.6 7.5-1.7 4.8-1.7 4.8M207.514 97.3l-4.9 13.9 8.4.7" stroke="#000" stroke-width="1.5"/><path d="M218.815 120.9c-3.6 3-7.3 5.8-12.8 5.4l12.8-5.4Z" fill="#fff"/><path d="M218.815 120.9c-3.6 3-7.3 5.8-12.8 5.4" stroke="#000" stroke-width="1.5"/><path fill-rule="evenodd" clip-rule="evenodd" d="M224.914 101.8c0-1.3-1-2.3-2.3-2.3-1.3 0-2.3 1-2.3 2.3 0 1.3 1 2.3 2.3 2.3 1.3 0 2.3-1 2.3-2.3ZM197.515 101.5c0-1.3-1-2.3-2.3-2.3-1.3 0-2.3 1-2.3 2.3 0 1.3 1 2.3 2.3 2.3 1.2 0 2.3-1 2.3-2.3Z" fill="#000"/><path d="M213.215 139c4.5.6 9.9-2.5 15.1-4.7l-15.1 4.7Z" fill="#fff"/><path d="M213.215 139c4.5.6 9.9-2.5 15.1-4.7" stroke="#000" stroke-width="1.5"/><path fill-rule="evenodd" clip-rule="evenodd" d="m182.014 264.5 15.4 14.5 40.6-12-2-67.2-31.2 16.7-18.9-16.7-30.3 10.4-22.8-17.6-6 71.8 28.8 10.8 26.4-10.7Z" fill="#5578EC"/><path d="m182.014 264.5 15.4 14.5 40.6-12-2-67.2-31.2 16.7-18.9-16.7-30.3 10.4-22.8-17.6-6 71.8 28.8 10.8 26.4-10.7Z" stroke="#3351E5" stroke-width="9"/><path fill-rule="evenodd" clip-rule="evenodd" d="M219.814 268c-.5.5-.5 1.9-.3 2.6 1.1 4.2 33.7-6.2 33.7-6.2s13.3-7.9 11.4-18.7c-1.1-5.8-6.2-11.3-17.6-15.8l-.9-.1.1 7s-11.1.1-15.1 0c-4.1-.1-9.7 0-11.3 0-6.9 0-8 1-8 3.3 0 6.4 25.2 6.7 25.2 6.7v1.5s-14.5.2-18.9 1c-5.2 1-7.8 1.8-7.8 4.1 0 2.8 3.9 2.8 11.5 2.5 4.1-.2 15.2-.8 15.2-.8s-24.4 3.7-24.1 7.1c0 .5.6 2.5 1.4 2.7 3.1.8 23.8-3.5 23.8-3.5s-15.9 4.3-18.3 6.6Z" fill="#fff"/><path d="M219.814 268c-.5.5-.5 1.9-.3 2.6 1.1 4.2 33.7-6.2 33.7-6.2s13.3-7.9 11.4-18.7c-1.1-5.8-6.2-11.3-17.6-15.8l-.9-.1.1 7s-11.1.1-15.1 0c-4.1-.1-9.7 0-11.3 0-6.9 0-8 1-8 3.3 0 6.4 25.2 6.7 25.2 6.7v1.5s-14.5.2-18.9 1c-5.2 1-7.8 1.8-7.8 4.1 0 2.8 3.9 2.8 11.5 2.5 4.1-.2 15.2-.8 15.2-.8s-24.4 3.7-24.1 7.1c0 .5.6 2.5 1.4 2.7 3.1.8 23.8-3.5 23.8-3.5s-15.9 4.3-18.3 6.6ZM90.308 131.13l6.6-7.4.4-6.3-5.1 4-1.9 9.7Z" stroke="#000" stroke-width="1.5"/><mask id="a" style="mask-type:alpha" maskUnits="userSpaceOnUse" x="90" y="117" width="8" height="15"><path d="m90.308 131.13 6.6-7.4.4-6.3-5.1 4-1.9 9.7Z" fill="#fff"/></mask><g mask="url(#a)"><path fill-rule="evenodd" clip-rule="evenodd" d="m90.308 131.13 6.6-7.4.4-6.3-5.1 4-1.9 9.7Z" fill="#fff"/></g><mask id="b" style="mask-type:alpha" maskUnits="userSpaceOnUse" x="90" y="117" width="8" height="15"><path d="m90.308 131.13 6.6-7.4.4-6.3-5.1 4-1.9 9.7Z" fill="#fff"/></mask><g mask="url(#b)"><path fill-rule="evenodd" clip-rule="evenodd" d="m90.308 131.13 2.6-3.1s-.3-.4-.7-.7c-.5-.2-1.1 0-1.1 0l-.8 3.8Z" fill="#EFEFEF"/><path d="m90.308 131.13 2.6-3.1s-.3-.4-.7-.7c-.5-.2-1.1 0-1.1 0l-.8 3.8Z" stroke="#000"/></g><path fill-rule="evenodd" clip-rule="evenodd" d="M114.114 83.3s2-4.2-.6-5.2-4.9 3.4-4.9 3.4l5.5 1.8Z" fill="#CDCBCB"/><path d="M114.114 83.3s2-4.2-.6-5.2-4.9 3.4-4.9 3.4l5.5 1.8Z" stroke="#000" stroke-width="1.5"/><path fill-rule="evenodd" clip-rule="evenodd" d="m91.715 120.9 2.3-.7.5 1.7 2.3-2.4.6 4.2 17.1-40.2-6.3-2-16.5 39.4Z" fill="#CDCBCB"/><path d="m91.715 120.9 2.3-.7.5 1.7 2.3-2.4.6 4.2 17.1-40.2-6.3-2-16.5 39.4Z" stroke="#000" stroke-width="1.5"/><path d="M137.415 108.6c-9.2-5.1-16.3-12.3-31.4-11.4 0 0-3.6 1.5-2.9 3.6.7 2.1 4.2.8 11.8 4.7 7.6 3.9 9.5 6.3 9.5 6.3" fill="#fff"/><path d="M137.415 108.6c-9.2-5.1-16.3-12.3-31.4-11.4 0 0-3.6 1.5-2.9 3.6.7 2.1 4.2.8 11.8 4.7 7.6 3.9 9.5 6.3 9.5 6.3" stroke="#000" stroke-width="1.5"/><path fill-rule="evenodd" clip-rule="evenodd" d="M182.015 209.2c10 0 18 8.1 18 18 0 10-11.5 33.1-18 33.1s-18-23.1-18-33.1c-.1-9.9 8-18 18-18Zm0 8.2c5.1 0 9.2 4.1 9.2 9.2s-4.1 9.2-9.2 9.2-9.2-4.1-9.2-9.2c-.1-5.1 4.1-9.2 9.2-9.2Z" fill="#fff"/><path d="m137.415 264.5 95.1-47.1" stroke="#fff"/><path d="m271.915 187.6 2.8 3.5 4.5 2.5c1.5.8 2.5 2.2 2.9 3.8.4 1.6.1 3.3-.8 4.7l-6.6 10.2c-4.9 8.4-13.7 13.8-23.5 18.5" fill="#fff"/><path d="m271.915 187.6 2.8 3.5 4.5 2.5c1.5.8 2.5 2.2 2.9 3.8.4 1.6.1 3.3-.8 4.7l-6.6 10.2c-4.9 8.4-13.7 13.8-23.5 18.5" stroke="#000" stroke-width="1.5"/><path d="M81.014 187.7c-3.5 6.4 4.6 15.4 24.4 27.2" stroke="#000" stroke-dasharray="4 4"/><path d="M90.315 136.6c-2 6.8-.8 12.8 3.5 18.1 6.5 7.9-7.5 23.4-12.8 33" stroke="#000"/><path fill-rule="evenodd" clip-rule="evenodd" d="M282.62 255.56v-115.6h-54.6v115.5h54.6v.1Z" fill="#EFEFEF"/><path fill-rule="evenodd" clip-rule="evenodd" d="M284.12 141.46v-3.8h-57.6v3.8h57.6Z" fill="#EFEFEF"/><path fill-rule="evenodd" clip-rule="evenodd" d="M280.72 150.96v-18.2h-50.8v18.2h50.8Z" fill="#EFEFEF"/><path fill-rule="evenodd" clip-rule="evenodd" d="M276.82 145.16v-19.8h-20.1v19.9h20.1v-.1Z" fill="#EFEFEF"/><path fill-rule="evenodd" clip-rule="evenodd" d="M276.82 130.96v-10.5h-8.3l-3.3 10.5h11.6Z" fill="#EFEFEF"/><path fill-rule="evenodd" clip-rule="evenodd" d="M272.12 135.06v-23.3h-1.1v23.3h1.1ZM272.581 110.56c0-.7-.4-1.2-1-1.2s-1 .5-1 1.2.4 1.2 1 1.2 1-.5 1-1.2ZM299.481 255.561v-36h-24.4v36h24.4Z" fill="#EFEFEF"/><path fill-rule="evenodd" clip-rule="evenodd" d="M338.781 220.66v-44.3c0-4.6-1.8-9-5.1-12.3-3.3-3.3-7.7-5.1-12.3-5.1-9.6 0-17.4 7.8-17.4 17.4v57.3l-10 1.1-3.6 20.7h13.6c9.2 0 18.1-3.7 24.6-10.2 6.6-6.5 10.2-15.3 10.2-24.6ZM151.915 84.6c0-.7.5-1.2 1.2-1.2s1.2.5 1.2 1.2c0 .6-.5 1.2-1.1 1.2h.6v8.7h3l1.8 4.9h12.2v7.4h32v4.9h4v3.8h-1.8v134h-65v-134h-1.8v-3.8h4v-4.9h4.6V94.5h5.6v-8.7h.6c-.6-.1-1.1-.6-1.1-1.2Zm9.4 45.6v-7.4h-1.9v7.4h1.9Zm6.9 0v-7.4h-1.9v7.4h1.9Zm8.3 0v-7.4h-1.9v7.4h1.9Zm6.9 0v-7.4h-1.9v7.4h1.9Zm7.9 0v-7.4h-1.9v7.4h1.9Zm6.9 0v-7.4h-1.9v7.4h1.9Zm-36.9 12.9v-7.4h-1.9v7.4h1.9Zm6.9 0v-7.4h-1.9v7.4h1.9Zm8.3 0v-7.4h-1.9v7.4h1.9Zm6.9 0v-7.4h-1.9v7.4h1.9Zm7.9 0v-7.4h-1.9v7.4h1.9Zm6.9 0v-7.4h-1.9v7.4h1.9Zm-36.9 12.9v-7.4h-1.9v7.4h1.9Zm6.9 0v-7.4h-1.9v7.4h1.9Zm8.3 0v-7.4h-1.9v7.4h1.9Zm6.9 0v-7.4h-1.9v7.4h1.9Zm7.9 0v-7.4h-1.9v7.4h1.9Zm6.9 0v-7.4h-1.9v7.4h1.9ZM110.515 159.1v-12.7h-6.5v-10.7h-2.3v-18.3h-.6v18.3h-2.3v10.7h-6.5v12.7h-12v33.4h-2.3v41.7l18.6 18.9h28.4v-60.6h-2.4v-33.4h-12.1Z" fill="#EFEFEF"/><path fill-rule="evenodd" clip-rule="evenodd" d="M146.814 105.5c-4.4-4.5-15.1-12.8-20-16.5-1.5-1.2-3.6-1.5-5.4-.8-7.5 2.7-27.5 9.8-28.4 10.3-1.2.6-1.7 2.7-1 5.6.7 2.9 6.6 0 6.6 0s1.7 14.1 2.8 14.1c1.1 0 7.4-7.3 7.4-7.3l-2.8 6.4s-.5 2.1 1.5 4 4.9-.8 4.9-.8l5.6-10.7-3.3 10.2s.4 2.6 3.3 3.6 4.3-2.7 4.3-2.7l2.7-8.2s2.7 2.9 3.5 4.6c.8 1.7 1.2 5.4 1.2 5.4l21.4 9.5s1.6-20.8-4.3-26.7Z" fill="#fff"/><path d="M146.814 105.5c-4.4-4.5-15.1-12.8-20-16.5-1.5-1.2-3.6-1.5-5.4-.8-7.5 2.7-27.5 9.8-28.4 10.3-1.2.6-1.7 2.7-1 5.6.7 2.9 6.6 0 6.6 0s1.7 14.1 2.8 14.1c1.1 0 7.4-7.3 7.4-7.3l-2.8 6.4s-.5 2.1 1.5 4 4.9-.8 4.9-.8l5.6-10.7-3.3 10.2s.4 2.6 3.3 3.6 4.3-2.7 4.3-2.7l2.7-8.2s2.7 2.9 3.5 4.6c.8 1.7 1.2 5.4 1.2 5.4l21.4 9.5s1.6-20.8-4.3-26.7Z" stroke="#000" stroke-width="1.5"/><path d="M261.715 254.3s0 4.1 18.4 0c13.4-3 32.8-33.4 42.5-49.8 3.9-8.3 1.4-18.2-5.9-23.6-6.6-5.9-16.7-13.6-31.6-22.2-35.4-20.6-73.6-4.2-73.6-4.2-28.6 10.4-47 32-63.6 55.5l5.6-78.6-24.9-9.2-28.1 87.9c-6.9 21.8 2.9 45.3 23.2 55.7l50-25.5-4 25.5" fill="#fff"/><path d="M261.715 254.3s0 4.1 18.4 0c13.4-3 32.8-33.4 42.5-49.8 3.9-8.3 1.4-18.2-5.9-23.6-6.6-5.9-16.7-13.6-31.6-22.2-35.4-20.6-73.6-4.2-73.6-4.2-28.6 10.4-47 32-63.6 55.5l5.6-78.6-24.9-9.2-28.1 87.9c-6.9 21.8 2.9 45.3 23.2 55.7l50-25.5-4 25.5" stroke="#000" stroke-width="1.5"/><path fill-rule="evenodd" clip-rule="evenodd" d="m254.515 128-3.6-1.6c-.7-.3-1.1-.5-1.1-.5l1.1.5c2.8 1.1 10.2 3.3 15.8-2.5 7.1-7.3 1.2-20.1 1.2-20.1s-4.3-3.6-6.6-4.6c-3.2-1.4-6.7-1.1-9.5-3.6-7.3-6.5-19.4-24.4-19.4-24.4l-19.7 1.9-18.2 11.6s-7.8 18.5-3.4 39.2c4.3 20.8 23.7 22.7 23.7 22.7l-1.2 20.6c-.1 2.3 1 4.4 3 5.6 2 1.2 4.4 1.1 6.3-.2l27.1-17.8 4.5-26.8Zm-3.6-1.6-1.1-.5c.1 0 .5.2 1.1.5Z" fill="#fff"/><path d="m254.515 128-3.6-1.6c-.7-.3-1.1-.5-1.1-.5l1.1.5c2.8 1.1 10.2 3.3 15.8-2.5 7.1-7.3 1.2-20.1 1.2-20.1s-4.3-3.6-6.6-4.6c-3.2-1.4-6.7-1.1-9.5-3.6-7.3-6.5-19.4-24.4-19.4-24.4l-19.7 1.9-18.2 11.6s-7.8 18.5-3.4 39.2c4.3 20.8 23.7 22.7 23.7 22.7l-1.2 20.6c-.1 2.3 1 4.4 3 5.6 2 1.2 4.4 1.1 6.3-.2l27.1-17.8 4.5-26.8Zm-3.6-1.6-1.1-.5c.1 0 .5.2 1.1.5Z" stroke="#000" stroke-width="1.5"/><path d="M206.515 107.1c0-5.8-4.7-10.5-10.5-10.5s-10.5 4.7-10.5 10.5 4.7 10.5 10.5 10.5 10.5-4.7 10.5-10.5ZM232.515 107.1c0-5.8-4.7-10.5-10.5-10.5s-10.5 4.7-10.5 10.5 4.7 10.5 10.5 10.5 10.5-4.7 10.5-10.5Z" stroke="#000" stroke-width="1.5"/><path fill-rule="evenodd" clip-rule="evenodd" d="m262.246 78.479 4.8-7.9s8-5.7 9.9-9.8c5.2-10.8 2-22.6-7.4-28.5-9-5.8-23-5.4-31.1 4-3.3 3.8-4.1 16.6-4.1 16.6l-3.2 6.1s-12.2-2-25.7 4.4c-13.6 6.5-16.9 24.9-16.9 24.9s11.1-1.6 14.1-3.7c2.8.7-4.1 7.7-4.1 7.7s14.6-6 13.6-9.8c2.9-1 5.2-.5 7.2-.1 0 0 .7 3.6 2 5.9 1.4 2.5 4.3 3.9 4.3 3.9s-3.8-8.6-1.1-8.7c1.4.5 2.5 1.2 3.6 2 10.4 9.2 6.7 17.1 10.4 20 3.6 2.9 8.3 3.7 8.3 3.7s6.4-7 13.3-7 9.7 7.9 9.7 7.9 4.1-23.1-7.6-31.6Z" fill="#000"/><path fill-rule="evenodd" clip-rule="evenodd" d="m262.246 78.479 4.3-7.4-32-18.2-3.6 6.1 31.3 19.5Z" fill="#CDCBCB"/><path d="m262.246 78.479 4.3-7.4-32-18.2-3.6 6.1 31.3 19.5ZM203.415 103.1c4.1-2.7 8-2.8 11.5 0" stroke="#000" stroke-width="1.5"/><path d="m231.114 103.1 13.1 2.2-13.1-2.2Z" fill="#fff"/><path d="m231.114 103.1 13.1 2.2" stroke="#000" stroke-width="1.5"/><path d="M255.114 112.9s5.1-3.4 7.4-.8c2.3 2.7-.7 5.6-.7 5.6" fill="#fff"/><path d="M255.114 112.9s5.1-3.4 7.4-.8c2.3 2.7-.7 5.6-.7 5.6M209.115 104.9l-4.9 13.9 8.4.7" stroke="#000" stroke-width="1.5"/><path d="M220.414 128.4c-3.6 3-7.3 5.8-12.8 5.4l12.8-5.4Z" fill="#fff"/><path d="M220.414 128.4c-3.6 3-7.3 5.8-12.8 5.4" stroke="#000" stroke-width="1.5"/><path fill-rule="evenodd" clip-rule="evenodd" d="M226.615 109.4c0-1.3-1-2.3-2.3-2.3-1.3 0-2.3 1-2.3 2.3 0 1.3 1 2.3 2.3 2.3 1.2 0 2.3-1.1 2.3-2.3ZM199.115 109.1c0-1.3-1-2.3-2.3-2.3-1.3 0-2.3 1-2.3 2.3 0 1.3 1 2.3 2.3 2.3 1.3 0 2.3-1.1 2.3-2.3Z" fill="#000"/><path fill-rule="evenodd" clip-rule="evenodd" d="m238.115 267-2-67.2-31.2 16.7-18.9-16.7-30.3 10.4-22.8-17.6-6 71.8 28.8 10.8 26.5-10.8 15.4 14.5 40.5-11.9Z" fill="#5578EC"/><path d="m238.115 267-2-67.2-31.2 16.7-18.9-16.7-30.3 10.4-22.8-17.6-6 71.8 28.8 10.8 26.5-10.8 15.4 14.5 40.5-11.9Z" stroke="#3351E5" stroke-width="9"/><path fill-rule="evenodd" clip-rule="evenodd" d="M219.814 236.9c-6.9 0-8 1-8 3.3 0 6.4 25.2 6.7 25.2 6.7v1.5s-14.5.2-18.9 1c-5.2 1-7.8 1.8-7.8 4.1 0 2.8 3.9 2.8 11.5 2.5 4.1-.2 15.2-.8 15.2-.8s-24.4 3.7-24.1 7.1c0 .5.6 2.5 1.4 2.7 3.1.8 23.8-3.5 23.8-3.5s-15.8 4.2-18.2 6.6c-.5.5-.5 1.9-.3 2.6 1.1 4.2 33.7-6.2 33.7-6.2s13.3-7.9 11.4-18.7c-1.1-5.8-6.2-11.3-17.6-15.8l-.9-.1.1 7s-11.1.1-15.1 0c-4.2-.1-9.7 0-11.4 0Z" fill="#fff"/><path d="M219.814 236.9c-6.9 0-8 1-8 3.3 0 6.4 25.2 6.7 25.2 6.7v1.5s-14.5.2-18.9 1c-5.2 1-7.8 1.8-7.8 4.1 0 2.8 3.9 2.8 11.5 2.5 4.1-.2 15.2-.8 15.2-.8s-24.4 3.7-24.1 7.1c0 .5.6 2.5 1.4 2.7 3.1.8 23.8-3.5 23.8-3.5s-15.8 4.2-18.2 6.6c-.5.5-.5 1.9-.3 2.6 1.1 4.2 33.7-6.2 33.7-6.2s13.3-7.9 11.4-18.7c-1.1-5.8-6.2-11.3-17.6-15.8l-.9-.1.1 7s-11.1.1-15.1 0c-4.2-.1-9.7 0-11.4 0ZM90.308 131.13l6.6-7.4.4-6.3-5.1 4-1.9 9.7Z" stroke="#000" stroke-width="1.5"/><mask id="c" style="mask-type:alpha" maskUnits="userSpaceOnUse" x="90" y="117" width="8" height="15"><path d="m90.308 131.13 6.6-7.4.4-6.3-5.1 4-1.9 9.7Z" fill="#fff"/></mask><g mask="url(#c)"><path fill-rule="evenodd" clip-rule="evenodd" d="m90.308 131.13 6.6-7.4.4-6.3-5.1 4-1.9 9.7Z" fill="#fff"/></g><mask id="d" style="mask-type:alpha" maskUnits="userSpaceOnUse" x="90" y="117" width="8" height="15"><path d="m90.308 131.13 6.6-7.4.4-6.3-5.1 4-1.9 9.7Z" fill="#fff"/></mask><g mask="url(#d)"><path fill-rule="evenodd" clip-rule="evenodd" d="m90.308 131.13 2.6-3.1s-.3-.4-.7-.7c-.5-.2-1.1 0-1.1 0l-.8 3.8Z" fill="#EFEFEF"/><path d="m90.308 131.13 2.6-3.1s-.3-.4-.7-.7c-.5-.2-1.1 0-1.1 0l-.8 3.8Z" stroke="#000"/></g><path fill-rule="evenodd" clip-rule="evenodd" d="M114.114 83.3s2-4.2-.6-5.2-4.9 3.4-4.9 3.4l5.5 1.8Z" fill="#CDCBCB"/><path d="M114.114 83.3s2-4.2-.6-5.2-4.9 3.4-4.9 3.4l5.5 1.8Z" stroke="#000" stroke-width="1.5"/><path fill-rule="evenodd" clip-rule="evenodd" d="m91.715 120.9 2.3-.7.5 1.7 2.3-2.4.6 4.2 17.1-40.2-6.3-2-16.5 39.4Z" fill="#CDCBCB"/><path d="m91.715 120.9 2.3-.7.5 1.7 2.3-2.4.6 4.2 17.1-40.2-6.3-2-16.5 39.4Z" stroke="#000" stroke-width="1.5"/><path d="M137.415 108.6c-9.2-5.1-16.3-12.3-31.4-11.4 0 0-3.6 1.5-2.9 3.6.7 2.1 4.2.8 11.8 4.7 7.6 3.9 9.5 6.3 9.5 6.3" fill="#fff"/><path d="M137.415 108.6c-9.2-5.1-16.3-12.3-31.4-11.4 0 0-3.6 1.5-2.9 3.6.7 2.1 4.2.8 11.8 4.7 7.6 3.9 9.5 6.3 9.5 6.3" stroke="#000" stroke-width="1.5"/><path fill-rule="evenodd" clip-rule="evenodd" d="M182.015 209.2c10 0 18 8.1 18 18 0 10-11.5 33.1-18 33.1s-18-23.1-18-33.1c-.1-9.9 8-18 18-18Zm0 8.2c5.1 0 9.2 4.1 9.2 9.2s-4.1 9.2-9.2 9.2-9.2-4.1-9.2-9.2c-.1-5.1 4.1-9.2 9.2-9.2Z" fill="#fff"/><path d="m137.415 264.5 95.1-47.1" stroke="#fff"/><path d="M274.715 212.3c-4.9 8.4-13.7 13.8-23.5 18.5l23.5-18.5Z" fill="#fff"/><path d="M274.715 212.3c-4.9 8.4-13.7 13.8-23.5 18.5" stroke="#000" stroke-width="1.5"/><path d="M81.014 187.7c-3.5 6.4 4.6 15.4 24.4 27.2" stroke="#000" stroke-dasharray="4 4"/><path d="M90.315 136.6c-2 6.8-.8 12.8 3.5 18.1 6.5 7.9-7.5 23.4-12.8 33" stroke="#000"/><path d="M119.215 257.1c-.8-.5-1.7-.7-2.7-.6-.9.1-1.8.4-2.6 1s-1.3 1.4-1.6 2.2c-.3.9-.3 1.8-.1 2.7.3 1.2 1.1 2.2 2.2 2.9 1.1.6 2.4.8 3.6.5.9-.2 1.7-.7 2.3-1.4.6-.7 1-1.6 1.1-2.5.1-.9 0-1.9-.4-2.7-.3-1-1-1.7-1.8-2.1ZM202.815 188l-6.3 5.4M212.914 187.7l-6.3 5.4" stroke="#5578EC" stroke-width="1.944"/></svg>