<svg viewBox="0 0 400 300" fill="none" xmlns="http://www.w3.org/2000/svg"><path d="M158.646 244.44v-1.022h-5.628v-2.408h4.662v-1.022h-4.662v-2.282h-1.078v2.282h-4.522v1.022h4.522v2.408h-5.53v1.022h4.942c-1.26 1.806-3.374 3.542-5.32 4.41.238.196.574.602.756.854 1.834-.924 3.794-2.59 5.152-4.452v5.236h1.078v-5.292c1.358 1.862 3.346 3.598 5.194 4.508.182-.266.518-.672.756-.868-1.946-.854-4.074-2.604-5.348-4.396h5.026Zm4.746-3.276v.938h2.8c-.756 1.232-1.834 2.17-3.22 2.814.224.196.574.616.7.826 1.61-.84 2.828-2.03 3.668-3.64h1.554c.77 1.442 2.086 2.772 3.444 3.444.168-.252.49-.63.714-.812-1.204-.504-2.366-1.512-3.094-2.632h2.744v-.938h-4.928a12.8 12.8 0 0 0 .56-1.792c1.386-.182 2.688-.42 3.696-.742l-.812-.798c-1.638.532-4.746.854-7.35 1.008.126.238.238.63.28.882a62.275 62.275 0 0 0 3.094-.238 11.254 11.254 0 0 1-.56 1.68h-3.29Zm.196-1.89c-.476-.49-1.456-1.078-2.24-1.442l-.602.742c.798.392 1.764 1.036 2.226 1.512l.616-.812Zm-.588 3.612c-.504-.434-1.512-.98-2.338-1.316l-.588.756c.84.378 1.848.966 2.338 1.414l.588-.854Zm-1.68 7.42a49.22 49.22 0 0 0 1.82-4.256l-.826-.574c-.574 1.484-1.372 3.206-1.932 4.228l.938.602Zm3.78-4.928c-.294 1.092-.868 2.324-1.736 3.038l.756.588c.952-.812 1.484-2.156 1.834-3.346l-.854-.28Zm1.736 3.948c0 .168-.028.21-.224.224a18.79 18.79 0 0 1-1.498-.014c.126.28.266.658.308.924.938 0 1.54 0 1.904-.154.378-.154.476-.448.476-.966v-5.418h-.966v5.404Zm1.582-3.416c.448.938.826 2.17.952 2.996l.84-.322c-.126-.812-.532-2.03-.994-2.968l-.798.294Zm1.736-.336c.812 1.064 1.666 2.52 2.002 3.472l.868-.448c-.35-.966-1.204-2.38-2.072-3.416l-.798.392Zm10.206-5.25h-3.094c.014-.798.028-1.61.028-2.436h-1.022c0 .826 0 1.638-.014 2.436h-1.96v1.022h1.932c-.112 3.5-.532 6.594-2.268 8.428.252.154.63.49.784.714 1.89-2.044 2.366-5.39 2.492-9.142h2.114c-.098 5.362-.224 7.266-.546 7.658-.098.196-.238.238-.462.224-.252 0-.854 0-1.498-.056.182.294.28.742.308 1.05.616.042 1.26.042 1.638-.014.42-.042.672-.168.924-.532.434-.602.532-2.632.644-8.82v-.532Zm2.128 7.924v-7.812h2.716v7.812h-2.716Zm-.98-8.82v10.836h.98v-1.022h2.716v.924h1.036v-10.738h-4.732Zm6.65 1.512v.98h4.102v-.98h-4.102Zm1.582-3.29v12.866h1.008V237.65h-1.008Zm2.94 2.66v1.022h5.852v-1.022h-5.852Zm5.446 0v.252c-.14 6.02-.28 8.19-.672 8.638-.14.182-.28.224-.532.224-.294 0-1.036-.014-1.834-.07.182.28.294.714.322 1.008.742.042 1.498.056 1.932.014.448-.056.742-.168 1.022-.56.49-.63.616-2.716.77-8.974v-.532h-1.008Zm-5.222 2.464c-.266 1.344-.714 2.66-1.344 3.556.238.14.63.406.798.56.644-.98 1.19-2.45 1.484-3.92l-.938-.196Zm6.328.224c.392 1.302.784 3.01.896 4.004l.966-.238c-.14-.98-.574-2.66-.98-3.948l-.882.182Zm-4.046-5.208v2.506c0 2.87-.252 6.664-3.766 9.548.252.154.63.476.798.714 3.668-3.066 3.962-7.154 3.962-10.262v-2.506h-.994Zm10.332-.042c-.784 2.128-2.072 4.214-3.458 5.558.196.224.504.798.602 1.036.476-.49.952-1.05 1.386-1.666v7.784h1.036v-9.394c.546-.966 1.05-1.988 1.428-2.996l-.994-.322Zm9.394 3.276v-.994h-5.824c.28-.616.546-1.246.77-1.89l-.994-.266c-.686 2.044-1.82 4.06-3.08 5.362.238.168.644.518.812.7.7-.784 1.386-1.792 1.988-2.912h.966v9.45h1.05v-3.388h4.186v-.98H210.6v-2.114h3.99v-.966h-3.99v-2.002h4.312Zm6.874-2.898c-.098 1.848-.098 8.526-5.768 11.424.322.21.658.546.84.798 3.542-1.918 4.984-5.292 5.6-8.092.672 2.8 2.212 6.384 5.824 8.092.154-.28.476-.63.77-.854-5.264-2.408-6.02-8.876-6.146-10.724.014-.238.014-.462.028-.644h-1.148Z" fill="#9BA2AD"/><path d="M290.98 213.15h27.57M96.82 213.15h183.56M278.82 177.85l-11.55-13.53h-70.13a3.677 3.677 0 0 1-3.4-2.272 3.677 3.677 0 0 1-.28-1.408v-48.22a3.677 3.677 0 0 1 2.272-3.4c.446-.185.925-.28 1.408-.28h78.26a3.268 3.268 0 0 1 2.514 1.001 3.287 3.287 0 0 1 .906 2.549v65.56Z" stroke="#26417F" stroke-width=".25" stroke-miterlimit="10"/><path d="M210.73 109.6V74.89a4.48 4.48 0 0 0-4.48-4.48h-95.39a4.48 4.48 0 0 0-4.48 4.48v79.9l14.4-16.64h66.33" stroke="#26417F" stroke-width=".25" stroke-miterlimit="10"/><path d="M119.49 64v11.81s17.57-5.43 24.38-4.39V59.31s-18.7.92-24.38 4.69ZM109.15 69.1V80s-15.6 4-24.34 15.81l-.29-12.58s10.24-11.59 24.63-14.13Z" fill="#61D3BA"/><path d="M84.81 95.81s.6 12.8 21.8 16.34V101s-17.1-.73-18.67-8.8c-2.12 2.32-3.13 3.61-3.13 3.61ZM278.7 135.63v12.66s9.85.71 9.23 3.92c3.08-1.52 5.55-2.36 6.79-6.2 1.28-4.01-8.98-9.9-16.02-10.38Z" fill="#13286A"/><path d="m269.4 192.66.6-.66 8.15 6-11.29 15s-7.37.05-10.9 0c.06-3.83 5.61-4.84 5.61-4.84v-5.74l7.83-9.76Z" fill="#FBC623"/><path d="m269.4 192.66-7.85 9.69v-.07l-2.22-1.87c2.4-2.66 5.95-7.06 7.82-9.41l2.25 1.66Z" fill="#FFDFD4"/><path d="M259.31 200.41c-.61.68-1.15 1.24-1.57 1.63-.82-.82-16.86-16.37-22.12-23.24v-.13l-2.84-10.54a191.234 191.234 0 0 1 .39-20.23c4.1.84 10.34.66 19.38-2.82l-1.13 25.1 16.91 19.25-1.2 1.57c-1.87 2.35-5.42 6.75-7.82 9.41Z" fill="#E0E2E3"/><path d="M262.66 125.55c1.54 4.82.61 6.13-8 13.25l-8.66-4.27 5.22-4.29-1.73-5.64c2.3 0 6.62-.83 11-5.15 0 0 .51 1.39 2.17 6.1Z" fill="#FFDFD4"/><path d="m260.8 119.21-.24.23c-4.42 4.32-8.74 5.18-11 5.15a5.101 5.101 0 0 1-.58 0c-.61-1.72-2.25-6.86-2.25-6.86l-17 2.15-3.26 5-.63 1-5.94-5.43-1.9-1.8s6.81-12.09 20-12.51c13.78-.43 21 7.33 22.8 13.07ZM254.67 138.8v5.43c-.72.3-1.42.59-2.11.85l-10.34 1.5-.13-.91c.242-.037.478-.107.7-.21 2.3-.91 4.71-2.06 4.71-2.06a63.025 63.025 0 0 0 6-3.64l1.17-.96Z" fill="#61D3BA"/><path d="m237.12 141.19-.22.05a.619.619 0 0 0 .22-.05Zm4.37 3 .38-.18a1.483 1.483 0 0 0-.38.15v.03Zm0 0c-.53.23-1.09.46-1.64.68-2 .9-2.48-1.11-1.18-1.85-.26.11-.51.2-.74.28-2.06.72-2.21-1.56-1-2-1.11.16-1.34-1.55-.53-2 .81-.45 5.29-1.72 4.79-1.72a8.735 8.735 0 0 1-2.78-.25c-1.67-.65-.71-1.95.1-1.89l6 .47 1.54-1.28 8.64 4.27-1.16 1a63.025 63.025 0 0 1-6 3.64s-2.41 1.15-4.71 2.06a2.594 2.594 0 0 1-.7.21c-1.21-.01-1.51-1.11-.65-1.65l.02.03Z" fill="#FFDFD4"/><path d="m242.22 146.58 10.34-1.5c-9 3.48-15.28 3.66-19.38 2.82l9.04-1.32ZM249.52 124.6l1.73 5.64-5.25 4.29-19.63-9.7 3.26-5 17-2.15s1.64 5.14 2.25 6.86c.193.011.387.011.58 0l.06.06Z" fill="#61D3BA"/><path d="m246 134.53-1.54 1.28-6-.47c-.81-.06-1.77 1.24-.1 1.89a8.735 8.735 0 0 0 2.78.25c.5 0-3.85 1.31-4.79 1.72-.94.41-.58 2.2.53 2-1.19.47-1 2.75 1 2 .23-.08.48-.17.74-.28-1.3.74-.79 2.75 1.18 1.85.55-.22 1.11-.45 1.64-.68-.86.54-.56 1.64.62 1.51l.13.91-9 1.32c-4.71-1-6.63-3.25-6.78-3.42v-19.58l19.59 9.7Z" fill="#61D3BA"/><path d="M243.19 97.27a6.898 6.898 0 0 1-.64 3.14c-.74.46-3 .56-3.56-1.06 2.13-1 1-4-1-2.84-3 .2-4.2-2.31-4.67-3.79a8.215 8.215 0 0 1-.26-1.06 6.757 6.757 0 0 1 9.134 2.32c.61.992.953 2.126.996 3.29Z" fill="#13286A"/><path d="M242.54 100.41a6.768 6.768 0 0 1-11.287 1.496 6.774 6.774 0 0 1-1.603-4.126 6.986 6.986 0 0 1 .24-2.06c3.63-.8 3.42-3 3.42-3 .47 1.48 1.71 4 4.67 3.79 1.94-1.12 3.12 1.8 1 2.84.52 1.65 2.82 1.52 3.56 1.06Z" fill="#FFDFD4"/><path d="M241.49 144.16c.118-.078.246-.138.38-.18l-.38.18ZM236.9 141.24l.22-.05a.614.614 0 0 1-.22.05Z" fill="#61D3BA"/><path d="m232.79 168.13 2.84 10.54v.13a13.641 13.641 0 0 1-1.45-2.21c-.79-1.73-1.18-4.87-1.39-8.46Z" fill="#E0E2E3"/><path d="m235.62 178.8-1.88 21.71h-18.36l11-56 6.39 23.65c.19 3.59.6 6.73 1.38 8.46a13.63 13.63 0 0 0 1.47 2.18Z" fill="#E0E2E3"/><path d="M233.32 92.72s.21 2.2-3.42 3a6.736 6.736 0 0 1 3.16-4.06c.064.359.151.713.26 1.06Z" fill="#13286A"/><path d="m232.79 168.13-6.39-23.65c.15.17 2.07 2.46 6.78 3.42a191.234 191.234 0 0 0-.39 20.23Z" fill="#E0E2E3"/><path d="M232.56 203.57v9.48h-27.32v-2.59c-.12-2.1 5.81-2.47 5.81-2.47l7.58-4.42h13.93Z" fill="#FBC623"/><path d="M231.42 200.51h-12.79v3.06h12.79v-3.06ZM203.72 110.63c-.44-.91 1.05-1.71 1.6-.86 2.16 2.62 3.28 3.94 3.39 4.07.044-1.033.178-2.06.4-3.07.31-1.78 1.78-2 1.85-1.28.07.72.84 6.7.38 7.89.5.84 5.34 5.62 5.34 5.62l3.11-2.65 5.94 5.43.63-1v5.6a39.771 39.771 0 0 1-6.57 5.41c-4.93 1.9-8.34-2.91-13.9-11.71-.93-1-2.57-3.2-2.57-3.2s-1.51-1.9-3.1-4.05c-1.35-1.95-.16-3.45 1.26-2.1l1.5 2 2-.87c-.74-1-1.77-2.33-2.56-3.35a1.85 1.85 0 0 0-.19-.25c-.13-.15-.23-.3-.34-.43-1.23-1.58.78-2.83 1.83-1.2Z" fill="#FFDFD4"/><path d="m201.52 114.78-.86-1.12c-1.17-1.5.51-2.61 1.58-1.39l.19.25c.79 1 1.82 2.37 2.56 3.35l-2 .87-1.47-1.96Z" fill="#FFDFD4"/><path d="M129.44 126s-1.65 7.07-6.06 6.54c-2.38-.25-2.19-5 6.06-6.54Z" fill="#13286A"/><path d="M233.06 91.66a6.76 6.76 0 1 1-3.16 4.06 6.718 6.718 0 0 1 3.16-4.06ZM235.62 178.8l-1.88 21.71h-18.36l11.02-56.05" stroke="#26417F" stroke-width=".25" stroke-miterlimit="10"/><path d="M233.18 147.9a191.23 191.23 0 0 0-.39 20.23c.19 3.59.6 6.73 1.38 8.46.411.782.896 1.522 1.45 2.21 5.26 6.87 21.3 22.42 22.12 23.24.42-.39 1-.95 1.57-1.63 2.4-2.66 5.95-7.06 7.82-9.41l1.25-1.58-16.91-19.25 1.13-25.1M246.69 117.71s1.64 5.14 2.25 6.86c.193.011.387.011.58 0 2.3 0 6.62-.83 11-5.15l.24-.23c-1.76-5.74-9-13.5-22.8-13.07-13.22.42-20 12.51-20 12.51l1.86 1.71 5.94 5.43.63-1 3.26-5" stroke="#26417F" stroke-width=".25" stroke-miterlimit="10"/><path d="M226.4 124.83v19.65c.15.17 2.07 2.46 6.78 3.42 4.1.84 10.34.66 19.38-2.82.69-.26 1.39-.55 2.11-.85v-5.43" stroke="#26417F" stroke-width=".25" stroke-miterlimit="10"/><path d="M236.9 141.24a.636.636 0 0 0 .22-.05 45.15 45.15 0 0 0 5.47-2.18M249.52 124.6l1.73 5.64-5.25 4.29-1.54 1.28-6-.47c-.81-.06-1.77 1.24-.1 1.89a8.735 8.735 0 0 0 2.78.25c.5 0-3.85 1.31-4.79 1.72-.94.41-.58 2.2.53 2M238.73 143c2.36-1 5.81-2.71 5.81-2.71" stroke="#26417F" stroke-width=".25" stroke-miterlimit="10"/><path d="m237.12 141.19-.22.05c-1.19.47-1 2.75 1 2 .23-.08.48-.17.74-.28M241.49 144.16l.38-.18c1.49-.64 2.67-1.2 2.67-1.2M238.88 142.89l-.15.08h-.08c-1.3.74-.79 2.75 1.18 1.85.55-.22 1.11-.45 1.64-.68" stroke="#26417F" stroke-width=".25" stroke-miterlimit="10"/><path d="M241.87 144a1.472 1.472 0 0 0-.38.18c-.86.54-.56 1.64.62 1.51a2.57 2.57 0 0 0 .7-.21c2.3-.91 4.71-2.06 4.71-2.06a62.819 62.819 0 0 0 6-3.64l1.16-1c8.6-7.12 9.53-8.43 8-13.25-1.71-4.71-2.09-6.1-2.09-6.1M201.58 114.84l-.06-.06c-1.42-1.35-2.61.15-1.26 2.1 1.59 2.15 3.1 4.05 3.1 4.05s1.64 2.16 2.57 3.2c5.56 8.8 9 13.61 13.9 11.71a39.771 39.771 0 0 0 6.57-5.41M219.83 120.36l-3.11 2.64s-4.84-4.78-5.34-5.62c.46-1.19-.33-7.21-.38-7.89-.05-.68-1.54-.5-1.85 1.28a17.835 17.835 0 0 0-.4 3.07v.15a3.65 3.65 0 0 0 .52 4.24" stroke="#26417F" stroke-width=".25" stroke-miterlimit="10"/><path d="M208.72 113.85c-.11-.13-1.23-1.45-3.39-4.07-.55-.85-2 0-1.6.86.043.095.1.183.17.26.63.76 3.15 3.86 3.31 4.06M203.72 110.63c-1.05-1.6-3.06-.38-1.82 1.21.11.13.21.28.34.43l.19.25c.79 1 1.82 2.37 2.56 3.35l.94 1.22" stroke="#26417F" stroke-width=".25" stroke-miterlimit="10"/><path d="M202.43 112.52a1.715 1.715 0 0 0-.19-.25c-1.07-1.22-2.75-.11-1.58 1.39l.86 1.12 1.5 2 1.42 1.86M218.63 200.51v3.06l-7.58 4.43s-5.93.37-5.81 2.47v2.59h27.32v-9.48h-13.93M261.53 202.28v5.81s-5.55 1-5.61 4.84c3.53.06 10.9 0 10.9 0l11.29-15L270 192l-.55.68-7.85 9.69M231.41 200.51v3.06" stroke="#26417F" stroke-width=".25" stroke-miterlimit="10"/><path d="m259.2 200.32.11.09 2.23 1.87M267.13 191l2.27 1.66.07.06M229.9 95.72c3.63-.8 3.42-3 3.42-3M233.06 91.65c.063.359.15.713.26 1.06.47 1.48 1.71 4 4.67 3.79 1.94-1.12 3.12 1.8 1 2.84.52 1.62 2.82 1.52 3.56 1.06M129.44 126s-1.65 7.07-6.06 6.54c-2.38-.25-2.19-5 6.06-6.54Z" stroke="#26417F" stroke-width=".25" stroke-miterlimit="10"/><path d="m294.76 146.46-.17 14.36s-.51 2.62-10.51 6a152.19 152.19 0 0 1-16.69 4s-1.11-12.61-1.17-13.59c6-.63 7.34-1 13.23-3 6.08-1.7 13.72-2.31 15.36-8.46" fill="#61D3BA"/><path d="M186.16 209.2v2.68h-27.5v-9.57h.18v-.09h13.76v-2.54h.18v2.57l7.51 4.38c.45.04 5.99.45 5.87 2.57Zm-.18 2.5v-2.5c.12-2-5.66-2.38-5.72-2.39l-7.55-4.4h-13.87v9.3l27.14-.01Z" fill="#26417F"/><path d="M186 209.2v2.5h-27.16v-9.3h13.82l7.55 4.4c.11.02 5.89.41 5.79 2.4Z" fill="#FBC623"/><path d="M174 199.57v.11h-1.2v-.1h-.18v.1h-13.78v-.1h-.18v.1h-1.42v-.08l-2.3-15.91.15-.24 2.33 16.05h16.37c-.29-1.77-4.16-24.61-6-31.13-1-5.17-6.45-6.13-8.13-6.29a3.795 3.795 0 0 0-.47-.22c.54 0 7.65.43 8.77 6.47 1.89 6.75 5.97 30.99 6.04 31.24Z" fill="#26417F"/><path d="M173.77 199.5H157.4l-2.33-16.05c2.34-3.6 4.19-6.52 4.48-7.18 1.79-3 2.93-10 1.61-12.55a2.729 2.729 0 0 0-1.55-1.64c1.68.16 7.17 1.12 8.13 6.29 1.87 6.52 5.74 29.36 6.03 31.13Z" fill="#E0E2E3"/><path d="M172.78 199.58h-.18v.09h.18v-.09Z" fill="#26417F"/><path d="M172.59 199.68h-13.75v2.54h13.75v-2.54Z" fill="#FFDFD4"/><path d="M171 152.7a.994.994 0 0 1 0 1.08 1.276 1.276 0 0 1-1.16.66h-.23a1.866 1.866 0 0 0-.88-.21h1.12a1.082 1.082 0 0 0 1-.57.852.852 0 0 0 0-.89 1.267 1.267 0 0 0-1.26-.41c.146-.033.283-.098.4-.19a1.243 1.243 0 0 1 1.01.53Z" fill="#26417F"/><path d="M170.89 152.8a.852.852 0 0 1 0 .89 1.082 1.082 0 0 1-1 .57h-1.12c-2.06-.05-4.24 0-4.27 0v.18h4.5a1.29 1.29 0 0 1 1 .56.791.791 0 0 1 0 .79 1.51 1.51 0 0 1-1.38.58h-1.91c-1.35 0-2.17-.06-2.17-.06v.18l2.1.06h.28a.998.998 0 0 1 .76.41.595.595 0 0 1 0 .62 1.453 1.453 0 0 1-1.37.49c-2.12 0-3.49-.1-3.83-.12l3-7.57h3.83a1.057 1.057 0 0 1 1 1.08.89.89 0 0 1-.69.83c-.083.01-.167.01-.25 0h-3.58v.18h3.58c.106.017.215.017.32 0a1.266 1.266 0 0 1 1.2.33Z" fill="#FFDFD4"/><path d="M169.31 150.14a1.21 1.21 0 0 1 1.14 1.26.994.994 0 0 1-.42.8 1.783 1.783 0 0 0-.45 0 .89.89 0 0 0 .69-.83 1.057 1.057 0 0 0-1-1.08h-3.83l.07-.18h1.27c.95.01 2.01 0 2.53.03ZM170.15 154.87a1.007 1.007 0 0 1 0 1 1.725 1.725 0 0 1-1.54.67h-1.1a1.213 1.213 0 0 0-.58-.19h1.69a1.504 1.504 0 0 0 1.38-.58.804.804 0 0 0 0-.79 1.293 1.293 0 0 0-1-.56h.69c.193.103.353.259.46.45ZM169.58 152.22c.149-.019.301-.019.45 0a1.007 1.007 0 0 1-.4.19v-.17l-.05-.02ZM169.58 152.39a1.01 1.01 0 0 1-.32 0h-3.58v-.18h3.58c.083.01.167.01.25 0l.07.18ZM169.68 154.42H168.8v-.18c.303-.012.605.05.88.18Z" fill="#26417F"/><path d="m168.93 141.53-3.4 8.6h-.13v.18h.06l-3 7.57h-.08v.18l-.34.87H149.4v-.18h12.57l6.73-17h-21l-3.83 10.14h-.2l.5-1.34c.171-.218.272-.483.29-.76l2-5.27h.16l-.05-.28 1-2.66h21.39l-.03-.05ZM168.8 154.21v.18h-4.26v-.18s2.2-.05 4.26 0Z" fill="#26417F"/><path d="M167.82 156.79a.788.788 0 0 1 0 .81 1.575 1.575 0 0 1-1.41.59h-.13c-2.3 0-3.71-.12-3.89-.14l.07-.17c.34 0 1.71.1 3.83.12a1.454 1.454 0 0 0 1.37-.49.606.606 0 0 0 0-.62.995.995 0 0 0-.76-.41h.6a.897.897 0 0 1 .32.31Z" fill="#26417F"/><path d="M166.93 156.3c.206.013.406.078.58.19h-.88v-.17h.31l-.01-.02Z" fill="#26417F"/><path d="M166.71 156.29h-.09v.17l-2.1-.06v-.18s.84.05 2.19.07ZM165.53 150.13l-.07.18h-.06v-.18h.13ZM162.47 157.88l-.07.17v-.18l.07.01ZM161.16 163.72c1.32 2.59.18 9.59-1.61 12.55-.29.66-2.14 3.58-4.48 7.18h-.18v.25c-4.51 6.95-10.74 16.28-11.14 16.87h-2.13v-.09h-.18v.09h-13.76v-.09h-.18v.09h-2.25l.09-.14c.51-.81 12.65-19.87 13.72-21.14 1.07-1.27 2.13-2.84 1.72-3.48-.41-.64-12.45-.58-20.42-.58h-2c-2.86-7.17.72-13.63 1-14.08v.11h.15a16.92 16.92 0 0 0-1 13.84h1.93c11.45 0 20.23 0 20.57.67.34.67-.14 1.68-1.72 3.68-1 1.21-12.5 19.22-13.63 21h18.08c.72-1.07 14.89-22.32 15.72-24.23 1.74-2.87 2.89-9.89 1.61-12.41a2.854 2.854 0 0 0-1.89-1.73h.5a2.719 2.719 0 0 1 1.48 1.64Z" fill="#26417F"/><path d="M161 163.78c1.28 2.52.13 9.54-1.61 12.41-.83 1.91-15 23.16-15.72 24.23h-18.09c1.13-1.77 12.6-19.78 13.63-21 1.58-2 2.1-3.11 1.72-3.68-.38-.57-9.12-.67-20.57-.67h-1.93a16.92 16.92 0 0 1 1-13.84l30.19-.18h.11c.82 0 6.36-.27 9.38 1a2.856 2.856 0 0 1 1.89 1.73Z" fill="#E0E2E3"/><path d="M159.61 162.08h-.5v-.18c.171.049.338.109.5.18Z" fill="#26417F"/><path d="M159.14 161.86v.14c-3-1.27-8.56-1-9.38-1v-.18c.75.01 6.24-.25 9.38 1.04ZM158.84 202.22h-.18v.09h.18v-.09ZM158.84 199.68h-.18v2.54h.18v-2.54ZM158.84 199.58h-.18v.09h.18v-.09ZM155.07 183.41l-.15.24v-.25l.15.01ZM155 213.05v.1h-27.5v-9.58h.18v-.09h13.76v-2.88h.18v2.92l7.5 4.38c.46 0 6 .44 5.87 2.57l.01 2.58Zm-.18-.08v-2.51c.12-2-5.66-2.37-5.72-2.38l-7.55-4.4h-13.87V213l27.14-.03Z" fill="#26417F"/><path d="M154.81 210.46V213h-27.13v-9.31h13.82l7.55 4.4c.1 0 5.88.37 5.76 2.37Z" fill="#FBC623"/><path d="M151.09 141.53h-.18v.01h.18v-.01Z" fill="#26417F"/><path d="M151.09 141.53h-.18c0-1.6-1.83-8.36-10.18-10a21.302 21.302 0 0 0-18.64 5.15 27.98 27.98 0 0 0-5.92 7.43h11.2l2.38-4.58.16.08-2.4 4.64v-.06h-.18v.14h-10.07l-.16-.07v.11h-1.17l.06-.13a27.802 27.802 0 0 1 6-7.62 21.495 21.495 0 0 1 18.79-5.19c8.46 1.57 10.3 8.47 10.31 10.1Z" fill="#26417F"/><path d="M150.91 141.53h-3.37l-1 2.66-.86-4.43h-.18l.92 4.7-2 5.27a.797.797 0 0 0-.19-.53 1.122 1.122 0 0 0-1.35-.23l-5.11 3.15-11.28-1.87 1-6 2.4-4.64-.16-.08-2.38 4.58h-11.2a28.015 28.015 0 0 1 5.92-7.43 21.31 21.31 0 0 1 18.64-5.15c8.37 1.64 10.19 8.4 10.2 10Z" fill="#61D3BA"/><path d="M149.69 160.87v.18h-.11v-.18h.11Z" fill="#26417F"/><path d="m149.4 158.92.29 2h-.09v.18l-30.19.18v-.05l-.16-.09v-3.18l.18.05v3.08l30.06-.17-.3-2h.21Z" fill="#26417F"/><path d="m149.21 158.92.3 2-30.06.17V158c2.31.61 5.89.93 11.4 1.14 1.53 0 7.81.3 7.88.3h1.71c1 0 2.41 0 3.68-.08h.06a1.891 1.891 0 0 0 1.41-.45l3.62.01Z" fill="#61D3BA"/><path d="m149.37 158.74.03.18h-.19l-.03-.18h.19ZM149.36 158.69l.01.05h-.19v-.02l.18-.03ZM149.18 158.74v.18h-3.62a.493.493 0 0 0 .13-.16l3.49-.02ZM148.28 153.81a.994.994 0 0 1 .21 1c-.1.25-.42.67-1.4.77h-.26a1.52 1.52 0 0 0-.79-.08l1-.12c.66-.06 1.11-.3 1.25-.66a.772.772 0 0 0-.18-.8 1.252 1.252 0 0 0-1.13-.38c.135-.037.261-.101.37-.19a1.4 1.4 0 0 1 .93.46Z" fill="#26417F"/><path d="M148.14 153.94a.768.768 0 0 1 .18.8c-.14.36-.59.6-1.25.66l-1 .12c-2.52.28-6.21.51-6.25.52v.18s3.74-.24 6.26-.53c.76-.07 1.21.28 1.26.67.05.39-.41 1-1.52 1.12l-1 .08h-.37c-1.91.13-3.53.15-3.54.15v.18s1.66 0 3.56-.16H144.77a1.007 1.007 0 0 1 .81.34.507.507 0 0 1 0 .54c-.08.16-.39.53-1.39.53h-.06c-2.49.12-5.35.06-5.38.06-.03 0-6.36-.3-7.88-.3-14-.54-15.37-1.71-15.37-6.92a33.1 33.1 0 0 1 1.76-7.74h10.07l-1 6.12 11.49 1.9 5.18-3.18a.92.92 0 0 1 1.11.19c.27.31.17.79-.28 1.3a7.346 7.346 0 0 1-2.09 1.35l-.24.12c-.1 0-.09.11-.08.14.01.03 0 .14 2.53-.25 1.07-.17 2.19-.34 2.65-.37a.698.698 0 0 1 .67.28 1.002 1.002 0 0 1 .19 1 .78.78 0 0 1-.69.47c-1.925.329-3.869.53-5.82.6v.19a45.212 45.212 0 0 0 5.85-.61h.19a1.26 1.26 0 0 1 1.15.45Z" fill="#FFDFD4"/><path d="m141.9 152.14 1.74-.26v.05l.17.07.06-.15h.07c1.08-.17 2.21-.34 2.66-.37a.886.886 0 0 1 .83.34c.137.166.23.364.269.576.038.212.021.431-.049.634a1.012 1.012 0 0 1-.25.35 1.646 1.646 0 0 0-.61 0 .784.784 0 0 0 .69-.47 1.001 1.001 0 0 0-.19-1 .69.69 0 0 0-.67-.28c-.46 0-1.58.2-2.65.37-2.49.39-2.5.36-2.53.25-.03-.11 0-.1.08-.14l.24-.12a7.368 7.368 0 0 0 2.09-1.35c.45-.51.55-1 .28-1.3a.92.92 0 0 0-1.11-.19l-5.18 3.18-11.49-1.9 1-6.12h.16l-1 6 11.28 1.87 5.11-3.18a1.119 1.119 0 0 1 1.35.23.802.802 0 0 1 .19.53l-.29.76a1.338 1.338 0 0 1-.19.24 7.606 7.606 0 0 1-2.06 1.38ZM147.5 156.36c.06.54-.43 1.15-1.68 1.3l-.5.05a1.332 1.332 0 0 0-.56-.14l1-.08c1.11-.14 1.57-.68 1.52-1.12-.05-.44-.5-.74-1.26-.67l.77-.08a.935.935 0 0 1 .71.74ZM146.77 153.42c.201-.038.408-.038.61 0a.988.988 0 0 1-.37.19h-.19l-.05-.19ZM146.77 153.42v.18c-1.935.33-3.889.534-5.85.61V154a44.135 44.135 0 0 0 5.85-.58ZM146.54 144.19l.05.28-.16.03.11-.31ZM146 155.53a1.52 1.52 0 0 1 .79.08l-.77.08-.02-.16Z" fill="#26417F"/><path d="m145.68 139.76.86 4.43-.11.31h-.01l-.92-4.7.18-.04ZM146 155.53v.16c-2.52.29-6.22.52-6.26.53V156s3.73-.24 6.25-.52l.01.05Z" fill="#26417F"/><path d="M145.66 158a.672.672 0 0 1 .07.73h-.13v.16a1.898 1.898 0 0 1-1.41.45h-.06c-1.27.06-2.65.08-3.68.08h-1.71c-.01 0-6.35-.3-7.88-.3-5.51-.21-9.09-.53-11.4-1.14v-.13h-.18v.08c-3.47-1-4-2.7-4-5.92a34.714 34.714 0 0 1 1.74-7.73h.2a33.088 33.088 0 0 0-1.76 7.74c0 5.21 1.33 6.38 15.37 6.92 1.52 0 7.81.3 7.88.3.07 0 2.89.06 5.38-.06h.06c1 0 1.31-.37 1.39-.53a.508.508 0 0 0 0-.54.996.996 0 0 0-.81-.34h.61c.121.054.23.133.32.23Z" fill="#26417F"/><path d="M145.59 158.74h.13a.48.48 0 0 1-.13.16v-.16ZM145.32 157.71H144.41v-.17h.37c.19.017.375.075.54.17ZM144.15 150.54l.29-.76a1.361 1.361 0 0 1-.29.76ZM144.39 157.6v.17c-1.9.14-3.54.16-3.56.16v-.18s1.65-.02 3.56-.15ZM130.39 121.59a6.702 6.702 0 0 0 .34 3.13l-.11.15c.075.055.155.102.24.14a6.668 6.668 0 0 0 8.028 3.908 6.67 6.67 0 0 0 4.722-7.578l.06-.17h-.15a6.6 6.6 0 0 0-2.61-4 .818.818 0 0 0 0-.14h-.17v.06a6.67 6.67 0 0 0-10.4 4.64l.05-.14Zm7.5-5.94a6.858 6.858 0 0 1 5.941 7.241 6.864 6.864 0 0 1-6.821 6.419c-.29 0-.59 0-.89-.05a6.863 6.863 0 0 1-.902-13.431 6.88 6.88 0 0 1 2.672-.179ZM143.85 151.85l-.06.15-.17-.07v-.05l.23-.03Z" fill="#26417F"/><path d="m143.7 121.16-.06.17c.005-.07.005-.14 0-.21l.06.04Z" fill="#26417F"/><path d="M143.59 121.32a6.639 6.639 0 0 1 0 2 6.669 6.669 0 0 1-9.92 4.871 6.665 6.665 0 0 1-2.83-3.191c.439.202.917.304 1.4.3.27.002.539-.032.8-.1a1.923 1.923 0 0 0 1.34-1.13V124h-.07a1.758 1.758 0 0 1-.94-1.59 1.384 1.384 0 0 1 .73-1.19 1.28 1.28 0 0 1 1.35.21c2.73.43 4.22-1.57 4.92-3 .15.64.63 2.05 3.22 2.89Z" fill="#FFDFD4"/><path d="M143.55 121.11c.006.07.006.14 0 .21-2.58-.84-3.07-2.25-3.15-3 .069-.13.129-.263.18-.4.03.13-.3 2.08 2.97 3.19ZM141.62 200.51h-.18v.09h.18v-.09Z" fill="#26417F"/><path d="M141.44 200.6h-13.76v2.88h13.76v-2.88Z" fill="#FFDFD4"/><path d="M140.94 117.07a6.598 6.598 0 0 1 2.61 4c-3.27-1.1-2.94-3.06-2.93-3.15.124-.277.231-.561.32-.85Z" fill="#13286A"/><path d="M140.81 116.89h.17a.818.818 0 0 1 0 .14.823.823 0 0 0-.15-.12l-.02-.02ZM140.79 117a.823.823 0 0 1 .15.12 7.61 7.61 0 0 1-.32.89h-.17a1.82 1.82 0 0 0 0 .43c-.7 1.46-2.19 3.46-4.92 3a1.282 1.282 0 0 0-1.35-.21 1.38 1.38 0 0 0-.73 1.19 1.76 1.76 0 0 0 .94 1.59h.07v.07a1.931 1.931 0 0 1-1.34 1.13 3.094 3.094 0 0 1-.8.1 3.283 3.283 0 0 1-1.4-.3 2.037 2.037 0 0 1-.11-.27 3.1 3.1 0 0 0 2.26.3 1.75 1.75 0 0 0 1.19-1 1.916 1.916 0 0 1-1-1.71 1.533 1.533 0 0 1 .83-1.34 1.438 1.438 0 0 1 1.52.21c3.72.6 5.02-3.67 5.18-4.2Z" fill="#26417F"/><path d="M140.45 117.93h.17a3.591 3.591 0 0 1-.18.4 1.846 1.846 0 0 1 .01-.4Z" fill="#26417F"/><path d="M137.87 115.83a6.712 6.712 0 0 1 2.92 1.12c-.16.58-1.46 4.85-5.22 4.27a1.438 1.438 0 0 0-1.52-.21 1.543 1.543 0 0 0-.83 1.34 1.916 1.916 0 0 0 1 1.71 1.752 1.752 0 0 1-1.19 1 3.1 3.1 0 0 1-2.26-.3 6.681 6.681 0 0 1 7.14-8.89l-.04-.04Z" fill="#13286A"/><path d="M130.73 124.72c.03.093.067.183.11.27a1.308 1.308 0 0 1-.24-.14l.11-.15.02.02ZM127.68 203.48h-.18v.09h.18v-.09ZM127.68 200.6h-.18v2.88h.18v-2.88ZM127.68 200.51h-.18v.09h.18v-.09ZM127.52 144.21l-.01.05-.03.06h-.16l.02-.14.18.03ZM119.45 157.84v.16l-.18-.05v-.08l.18-.03ZM119.28 161.1l.16.09v.05h-.15v-.14h-.01ZM117.1 144.16l.16.07h-.2l.04-.07Z" fill="#26417F"/><path d="M123.15 80.55h75.69M133.48 90.67h65.36M151 101.63h47.84" stroke="#26417F" stroke-width=".5" stroke-miterlimit="10"/><path d="M192.19 142.22a6.65 6.65 0 1 0 0-13.3 6.65 6.65 0 1 0 0 13.3Z" fill="#3571FA"/><path d="m189.56 133.04 5.27 5.27M189.56 138.31l5.27-5.27" stroke="#fff" stroke-miterlimit="10" stroke-linecap="round"/><path d="m126.71 116.41-.91 6.48s-21.41 2.74-30.88-4c.24-2.25.27-6 .27-6s11.98 7.71 31.52 3.52Z" fill="#4F87FD"/></svg>