<svg viewBox="0 0 400 300" fill="none" xmlns="http://www.w3.org/2000/svg"><path d="M146.856 240.31v.98h4.242v-.98h-4.242Zm1.806-2.66v12.866h.966V237.65h-.966Zm-.028 3.29c-.336 1.918-1.176 4.312-2.016 5.53.182.252.434.714.546 1.008.896-1.386 1.722-4.116 2.114-6.314l-.644-.224Zm.952.882-.518.392c.35.56 1.232 2.254 1.512 2.954l.63-.756c-.224-.42-1.33-2.198-1.624-2.59Zm5.754-3.71-.77.504c1.036 1.568 2.94 3.402 4.578 4.494.112-.28.336-.714.546-.952-1.554-.91-3.43-2.604-4.354-4.046Zm-.448-.56c-.938 1.988-2.604 3.752-4.368 4.844.182.196.504.644.616.854 1.82-1.246 3.598-3.192 4.676-5.362l-.924-.336Zm-2.17 4.438v.924h4.746v-.924h-4.746Zm-1.008 2.45c.406 1.078.784 2.478.91 3.388l.868-.238c-.14-.91-.532-2.296-.952-3.36l-.826.21Zm2.716-.378c.252 1.064.504 2.45.56 3.36l.882-.14c-.084-.91-.336-2.268-.616-3.346l-.826.126Zm3.528-.112c-.518 1.554-1.47 3.808-2.226 5.138l.756.252c.784-1.316 1.722-3.472 2.394-5.152l-.924-.238Zm-7 4.97v.952h8.344v-.952h-8.344Zm13.286-1.47c-.826.826-2.17 1.624-3.402 2.156.252.168.63.532.812.714 1.204-.602 2.632-1.54 3.584-2.506l-.994-.364Zm7.378-.546c.322.266.616.518.826.742l.742-.63c-.784-.742-2.31-1.82-3.556-2.534l-.672.546c.518.322 1.092.7 1.624 1.092-1.582.028-3.192.056-4.676.07 1.4-.882 2.94-1.974 4.144-2.954l-.952-.504c-.77.7-1.862 1.54-2.968 2.31-.35-.28-.826-.588-1.302-.882.728-.518 1.54-1.218 2.24-1.862l-.434-.21h5.488v1.708h1.022v-2.604h-5.502v-1.344h5.376v-.924h-5.376v-1.232h-1.022v1.232h-5.334v.924h5.334v1.344h-5.376v2.604h.98v-1.708h3.654a17.166 17.166 0 0 1-1.82 1.638c-.238-.126-.49-.252-.714-.364l-.686.588c.896.448 1.946 1.106 2.632 1.652-.322.21-.644.42-.966.602-1.204.014-2.296.014-3.192.014l.056.966a714.5 714.5 0 0 0 5.446-.126v3.444h1.008v-3.472l3.976-.126Zm-2.632 1.106c1.232.63 2.73 1.61 3.444 2.282l.868-.63c-.798-.686-2.324-1.61-3.514-2.184l-.798.532Zm6.062-1.162c0-.224.728-.56.728-.56v-.028c1.4-1.33 2.828-3.192 4.018-5.068l-.952-.588c-1.008 1.876-2.548 3.808-3.052 4.298-.448.504-.784.854-1.106.91.126.28.308.812.364 1.036Zm0 0c.322-.182.826-.308 4.746-1.022a6.011 6.011 0 0 1-.07-.91l-4.172.686-.56.364.056.882Zm-.098-3.402c0-.238.714-.588.714-.588v-.028c.952-1.204 1.946-2.954 2.674-4.648l-1.064-.434c-.574 1.624-1.582 3.36-1.89 3.808-.294.462-.546.77-.812.84.14.28.308.812.378 1.05Zm0 0c.252-.126.686-.21 3.374-.504 0-.21.028-.616.084-.882l-2.954.266-.532.322.028.798Zm-.294 5.236.182 1.078c1.386-.322 3.248-.7 5.012-1.106l-.084-.98c-1.876.392-3.822.784-5.11 1.008Zm5.222-9.156v1.022h7.476v-1.022h-7.476Zm.35 3.192v1.008h6.888v-1.008h-6.888Zm.924 6.244v.966h5.082v-.966h-5.082Zm1.946-11.312v5.586h1.092v-5.586h-1.092Zm-2.506 7.504v5.376h1.022v-4.41h4.102v4.354h1.064v-5.32h-6.188Zm10.892-2.156v-1.442h3.15v1.442h-3.15Zm0-3.724h3.15v1.428h-3.15v-1.428Zm7.406 1.428h-3.178v-1.428h3.178v1.428Zm0 2.296h-3.178v-1.442h3.178v1.442Zm2.38 3.038v-.966h-5.558v-1.176H200v-5.53h-9.562v5.53h4.2v1.176h-5.558v.966h4.69c-1.232 1.33-3.22 2.534-5.04 3.122.224.21.56.616.7.854 1.82-.686 3.864-2.016 5.208-3.542v4.018h1.078V246.4c1.372 1.484 3.43 2.842 5.208 3.556.154-.252.476-.658.714-.868-1.764-.588-3.766-1.764-5.054-3.052h4.69Zm2.03-5.012v1.05h10.808v-1.05h-10.808Zm10.374 0v.224c-.182 5.376-.406 7.448-.854 7.896-.168.168-.322.21-.616.21-.35 0-1.232 0-2.17-.098.196.322.336.784.364 1.092.854.056 1.75.07 2.24.028.504-.042.84-.168 1.148-.56.56-.644.756-2.632.966-8.246.014-.154.014-.546.014-.546h-1.092Zm-5.768-3.346v1.666c0 2.898-.294 7.182-4.984 10.22.266.182.658.532.826.784 4.886-3.248 5.222-7.868 5.222-11.004v-1.666h-1.064Zm-3.486.756c.56.658 1.204 1.568 1.47 2.128l.952-.448c-.294-.574-.952-1.456-1.512-2.072l-.91.392Zm4.718 5.796c.714.84 1.554 2.016 1.904 2.758l.924-.49c-.364-.742-1.218-1.876-1.96-2.702l-.868.434Zm15.022-4.144v2.772c0 1.036.294 1.302 1.512 1.302h2.002c.938 0 1.232-.336 1.33-1.652-.266-.07-.7-.224-.896-.378-.042.98-.126 1.134-.532 1.134h-1.792c-.518 0-.602-.056-.602-.406v-2.772h2.828v1.554h1.05v-2.492h-5.404v-1.456h-1.05v1.456h-5.292v2.8h1.022v-1.862h2.702c-.238 2.044-.896 3.206-3.892 3.794.21.21.476.616.574.868 3.29-.742 4.116-2.184 4.396-4.662h2.044Zm-.504 9.016v-2.814h4.424v-.938h-9.576v.938h4.102v2.814h-5.558v.952h12.236v-.952h-5.628Z" fill="#9BA2AD"/><path d="m216.86 158.76-64.71-.3 20.76-104.59 64.71.31-20.76 104.58Z" stroke="#26417F" stroke-width=".5" stroke-miterlimit="10"/><path d="M237.62 55.76S248 52.24 248 61.6c0 7.35-8 7.58-10.34 6.47A1.64 1.64 0 0 0 235 69M171 63.63l-.73 3.66s-8.35 1.16-10.58 4.39c-2 2.72-1.07 9.2.66 11.26-4.36 0-8.8-7.79-3.92-13.18 2.68-3.76 13.12-5.88 14.57-6.13Z" fill="#13286A"/><path d="M154.21 74a28.62 28.62 0 0 0-1.35 10.66c1.63 6.31 11 6 12.81 5.66 1.81-.34 4.46-1.89 10.59-2.72 5.91-.35 13.08-.65 14.68-.73v-7.8s-10.07.38-18 1.44c-4.94.66-8.1 2-10.32 2.39-7.97.9-8.68-6.27-8.41-8.9Z" fill="#4F87FD"/><path d="M192.69 120.54c.65 2.14.68 4.12.08 4.69l-.17.19a5.269 5.269 0 0 1-.77.81l-.11-.23c.25-.224.481-.468.69-.73l.19-.22c.52-.5.45-2.45-.15-4.44-.35-1.15-1.72-5-4.59-5.46-.391.047-.766.18-1.1.39l-.11-.22a3 3 0 0 1 1.19-.42c3.07.52 4.48 4.45 4.85 5.64ZM191.83 126.23l.87 1.82-4.36 2.09-.05-.12-1-2.07h.26l.87 1.88 3.9-1.87-.73-1.53.24-.2Z" fill="#26417F"/><path d="M192.45 120.61c.6 2 .67 3.94.15 4.44l-.19.22c-.209.262-.44.506-.69.73l-5-10.46c.333-.21.709-.343 1.1-.39 2.91.51 4.28 4.31 4.63 5.46Z" fill="#FFDFD4"/><path d="m191.72 126 .11.23-.2.17-.11-.24.2-.16Z" fill="#26417F"/><path d="m186.76 115.54 5 10.46-.2.16-5-10.48c.062-.053.129-.1.2-.14Z" fill="#FFDFD4"/><path d="m191.52 126.16.11.24a9.004 9.004 0 0 1-4 1.52l-.11-.24a8.543 8.543 0 0 0 4-1.52Z" fill="#26417F"/><path d="m186.55 115.68 5 10.48a8.543 8.543 0 0 1-4 1.52l-4.24-9.12c.88 0 1.42-.74 2-1.49a6.41 6.41 0 0 1 1.24-1.39Z" fill="#FFDFD4"/><path d="m187.48 127.68.11.24h-.26l-.11-.23.26-.01Z" fill="#26417F"/><path d="M187.48 127.68h-.26l-4.22-9.14h.23l4.25 9.14Z" fill="#FFDFD4"/><path d="m187.22 127.72.11.23c-.993.145-1.996.215-3 .21-2.42 6.73-8.05 13.85-13.75 13.85-4.69-.7-8.71-6.17-10.26-9.09l.21-.14c1.51 2.86 5.48 8.3 10.07 9 5.59 0 11.15-7.1 13.52-13.77v-.08h.09a21.345 21.345 0 0 0 3.01-.21Z" fill="#26417F"/><path d="m183 118.54 4.26 9.18c-.994.133-1.997.197-3 .19h-.09v.08c-2.37 6.67-7.93 13.77-13.52 13.77-4.59-.68-8.56-6.12-10.07-9l9.92-6.43 1.75 1.34h.08c.66-.46 6.48-4.53 6.48-5.79.02-.587.08-1.172.18-1.75.2-1.224.307-2.46.32-3.7 0-1.35.29-2.24.84-2.57a.995.995 0 0 1 .64-.13l1.07 2.31c-.2.96-.21 1.96 1.14 2.5Z" fill="#FFDFD4"/><path d="M186.76 100.09a9.818 9.818 0 0 1-3.35 8.42v-.09l-.22.1.07.16c-1.066.9-2.3 1.58-3.63 2l-.06-.12-.22.1v.1c-.636.192-1.289.323-1.95.39a9.625 9.625 0 0 1-1.2.07 10.207 10.207 0 0 1-10.32-8.87 9.711 9.711 0 0 1 2.3-7.36 10.709 10.709 0 0 1 7.07-3.71 10.26 10.26 0 0 1 11.51 8.81Zm-9.39 10.82a10.009 10.009 0 0 0 6.808-3.506 9.992 9.992 0 0 0 2.332-7.294 9.432 9.432 0 0 0-3.31-6.18 10.442 10.442 0 0 0-6.76-2.46c-.391 0-.782.02-1.17.06a10.449 10.449 0 0 0-6.9 3.62 9.459 9.459 0 0 0-2.24 7.17 9.991 9.991 0 0 0 3.84 6.624 9.986 9.986 0 0 0 7.4 1.966ZM186.65 115.32l.11.22a1.258 1.258 0 0 0-.21.14l-.11-.23.21-.13Z" fill="#26417F"/><path d="m183.41 108.51 3.24 6.81-.21.13-3.22-6.77.19-.17ZM186.44 115.45l.11.23a6.425 6.425 0 0 0-1.31 1.39c-.58.75-1.12 1.45-2 1.49l-.11-.24c.8 0 1.3-.65 1.88-1.4a6.456 6.456 0 0 1 1.43-1.47ZM183.37 108.42v.09l-.19.17-.07-.16.26-.1Z" fill="#26417F"/><path d="m183.13 118.32.11.24H183l-.16-.35c.089.051.183.095.28.13l.01-.02Z" fill="#26417F"/><path d="m182.05 116 1.08 2.33a1.823 1.823 0 0 1-.28-.13l-.81-1.74.01-.46ZM182.8 118.19l.16.35c-1.31-.54-1.3-1.59-1.17-2.53l.2.44a1.622 1.622 0 0 0 .81 1.74ZM181.73 113.77c.6.43.48 1.17.36 2v.25l-.19-.41c.11-.69.17-1.28-.27-1.59a2.123 2.123 0 0 0-.58-.23l-.13-.29c.283.043.557.135.81.27Z" fill="#26417F"/><path d="m182.05 116-.06.46-.2-.44c0-.11 0-.22.05-.32s0-.08 0-.12l.21.42Z" fill="#26417F"/><path d="M181.59 114c.44.31.38.9.27 1.59l-.85-1.82c.203.048.399.125.58.23Z" fill="#FFDFD4"/><path d="M181.86 115.57v.12c0 .04 0 .21-.05.32l-1.07-2.31c.096-.014.194-.014.29 0l.83 1.87Z" fill="#FFDFD4"/><path d="m180.88 113.46.13.29a1.006 1.006 0 0 0-.29 0l-.12-.26.28-.03ZM180.88 113.46h-.28l-1.24-2.68.23-.08 1.29 2.76Z" fill="#26417F"/><path d="m180.6 113.44.12.26a1 1 0 0 0-.64.13c-.55.33-.84 1.22-.84 2.57a24.52 24.52 0 0 1-.32 3.7c-.1.579-.16 1.163-.18 1.75 0 1.26-5.82 5.33-6.48 5.79h-.08l-1.75-1.34.22-.14 1.54 1.17c2.56-1.78 6.3-4.69 6.3-5.53.018-.597.079-1.191.18-1.78.2-1.213.307-2.44.32-3.67 0-1.44.33-2.41 1-2.78.188-.096.398-.141.61-.13ZM179.59 110.68l-.23.08v-.1l.22-.1.01.12ZM179.55 214.65v2.88h-22.29v-.25h22v-2.64c.12-2.09-6-2.49-6-2.5h-.06l-8-4.68h-14.47v4.26l-.25-.15v-4.24h.25v-.12h14.45v-3h.25v3l7.9 4.65c.53.07 6.35.52 6.22 2.79Z" fill="#26417F"/><path d="M179.3 214.64v2.64h-22v-2.63c.13-2.27-5.68-2.72-6.21-2.75l-.32-.19v-4.26h14.54l8 4.68h.06c-.02.02 6.05.42 5.93 2.51Z" fill="#FBC623"/><path d="M171.05 125.83v.09l-.1.06-.35.23-.14-.11-.15.2h.07l-9.92 6.43v-.1l-.23.11.07.13-.16.1v-.34h-.25v.05l-5.26-6.52.19-.16 5.39 6.67 10.58-6.85c-.58-1.15-6.28-12.14-17.16-14.47-5-.656-10.084-.065-14.8 1.72l.16-.33a31.008 31.008 0 0 1 14.68-1.63c11.56 2.48 17.33 14.59 17.38 14.72Z" fill="#26417F"/><path d="m170.78 125.83-10.58 6.85-5.39-6.68-.19.16 5.26 6.52-.73 15.72a47.94 47.94 0 0 1-25.37.35h-.15l-1.12-.31c.52-2.21 2.25-15.12 2.48-16.92l1.15.67 3.43-5.59-.21-.13-3.3 5.38-10.27-6a22.846 22.846 0 0 1 5.61-8.06 24.714 24.714 0 0 1 1.89-1.59c.225.185.5.3.79.33h.45c2.07 0 3.45-1.79 4.29-3.45a30.573 30.573 0 0 1 14.8-1.72c10.88 2.33 16.58 13.32 17.16 14.47Z" fill="#61D3BA"/><path d="m170.51 126.1.14.11-.22.14-.07-.05.15-.2ZM158.33 148.92l10.06 55.28h-2.96v-.15h-.25v.16l-14.45.12v-.26l17.36-.14-10-55 .24-.01Z" fill="#26417F"/><path d="m158.08 149 10 55-17.36.14h-5.08l-.16-53.59h.39a47.407 47.407 0 0 0 12.21-1.55Z" fill="#E0E2E3"/><path d="M165.43 204.07v.15l-.25.01v-.16h.25Z" fill="#26417F"/><path d="M165.18 204.23v2.97h-14.45v-2.85l14.45-.12Z" fill="#FFDFD4"/><path d="M160.46 132.68v.1l-.21.14-.07-.13.28-.11ZM160.13 132.65l-.02.34-.23-.3v-.05l.25.01Z" fill="#26417F"/><path d="m159.88 132.69.23.3-.71 15.61h-.08s-.36.13-1 .3v-.1h-.25v.13a47.44 47.44 0 0 1-12.22 1.54h-.39v-.1h-.25v.1a47.824 47.824 0 0 1-11.47-1.47v-.25a47.94 47.94 0 0 0 25.37-.35l.77-15.71Z" fill="#26417F"/><path d="M158.31 148.82v.1l-.25.07v-.13l.25-.04ZM157.26 217.28v.25h-6.78v-.25h6.78Z" fill="#26417F"/><path d="M157.26 214.65v2.63H157v-2.64c.12-2.09-5.95-2.49-6-2.5l-.22-.13v-.29l.32.19c.48.02 6.29.47 6.16 2.74Z" fill="#FBC623"/><path d="M157 214.64v2.64h-6.28V212l.22.13h.06c.06.02 6.13.42 6 2.51Z" fill="#FBC623"/><path d="M153.39 101.06a7.49 7.49 0 0 1-6.78 8.13h-.69a7.494 7.494 0 0 1-7.44-6.81v-.69a7.49 7.49 0 0 1 14.94-.66l-.03.03Zm-1.9 5.31a7.24 7.24 0 0 0 1.479-6.278 7.25 7.25 0 0 0-4.109-4.972v-.19h-.25c.003.03.003.06 0 .09a7.226 7.226 0 0 0-7.01.913 7.243 7.243 0 0 0-2.283 2.853 7.242 7.242 0 0 0-.597 3.604 7.126 7.126 0 0 0 1.1 3.21l-.11.23.36.11c.356.509.78.967 1.26 1.36a7.239 7.239 0 0 0 10.19-.92l-.03-.01Z" fill="#26417F"/><path d="M153.14 101.08a7.237 7.237 0 0 1-3.849 7.055 7.242 7.242 0 0 1-7.991-.845 6.722 6.722 0 0 1-1.26-1.36c.213.051.431.074.65.07a3.65 3.65 0 0 0 1.69-.4 2.112 2.112 0 0 0 1.17-1.52v-.11h-.11a1.914 1.914 0 0 1-1.35-1.45 1.483 1.483 0 0 1 .47-1.42 1.412 1.412 0 0 1 1.47-.09c4.16-.26 4.69-4.87 4.76-5.87a7.278 7.278 0 0 1 4.28 6l.07-.06Z" fill="#FFDFD4"/><path d="M150.73 212v5.28h-.25v-5.43l.25.15Z" fill="#26417F"/><path d="M150.73 211.71v.29l-.25-.15v-.29l.25.15ZM150.73 207.2h-.25v.12h.25v-.12ZM150.73 204.35h-.25v2.85h.25v-2.85ZM150.73 204.09h-.25v.26h.25v-.26ZM150.73 204.07h-.25v.02h.25v-.02ZM150.48 217.28v.25H128.2v-10.21h.25v-.12h14.45v-2.84h.25v2.89l7.33 4.31v.29l-7.49-4.4h-14.54v9.83h22.03Z" fill="#26417F"/><path d="M150.48 211.85v5.43h-22.03v-9.83h14.54l7.49 4.4Z" fill="#FBC623"/><path d="M150.48 204.09v.26l-1.83.01v-.25l1.83-.02ZM148.62 94.93h.25v.19a1.298 1.298 0 0 0-.25-.1.451.451 0 0 0 0-.09Z" fill="#26417F"/><path d="M148.61 95c.086.025.17.058.25.1-.07 1-.6 5.61-4.76 5.87a1.411 1.411 0 0 0-1.47.09 1.477 1.477 0 0 0-.426.647 1.482 1.482 0 0 0-.044.773 1.92 1.92 0 0 0 1.35 1.45h.11v.11a2.107 2.107 0 0 1-1.17 1.52 3.65 3.65 0 0 1-1.69.4 2.58 2.58 0 0 1-.65-.07 2.912 2.912 0 0 1-.22-.33 3.303 3.303 0 0 0 2.45-.22 1.877 1.877 0 0 0 1-1.24 2.13 2.13 0 0 1-1.42-1.61 1.729 1.729 0 0 1 .57-1.65 1.624 1.624 0 0 1 1.69-.14c3.99-.24 4.4-4.95 4.43-5.7ZM148.65 204.11v.25h-3.27v-.25h.25v.02l2.5-.02h.52ZM148.65 204.36l-3.27.03v-.03h3.27Z" fill="#26417F"/><path d="m148.13 204.11-2.5.02v-.02h2.5Z" fill="#26417F"/><path d="M148.61 95c0 .73-.44 5.44-4.49 5.72a1.62 1.62 0 0 0-1.69.14 1.727 1.727 0 0 0-.57 1.65 2.135 2.135 0 0 0 1.42 1.61 1.88 1.88 0 0 1-1 1.24 3.303 3.303 0 0 1-2.45.22 7.126 7.126 0 0 1-1.1-3.21 7.238 7.238 0 0 1 2.877-6.45 7.233 7.233 0 0 1 7.003-.92Z" fill="#13286A"/><path d="m145.47 150.52.16 53.59h-.25l-.16-53.59h.25ZM145.47 150.42v.1h-.25v-.1h.25Z" fill="#26417F"/><path d="M145.38 204.26v.1h-2.23v-.25h2.23v.15Z" fill="#26417F"/><path d="m145.22 150.52.16 53.59h-20.55l8.91-55.1a47.865 47.865 0 0 0 11.48 1.51Z" fill="#E0E2E3"/><path d="M143.15 204.11h-.25v.25h.25v-.25ZM143.15 204.07h-.25v.04h.25v-.04Z" fill="#26417F"/><path d="M142.9 204.36h-14.45v2.84h14.45v-2.84Z" fill="#FFDFD4"/><path d="M142.9 204.11h-14.45v.25h14.45v-.25ZM139.9 110.13v.19a14.785 14.785 0 0 1-.88 2.43l-.34.13c.382-.78.69-1.593.92-2.43-4.58.89-6.61 3-6.57 4.55.003.309.116.607.32.84l-.2.16a1.572 1.572 0 0 1-.36-1c-.05-1.32 1.38-3.82 7-4.84l.11-.03ZM140 105.93l-.36-.11.11-.23c.075.119.159.232.25.34ZM139.57 126.58l-3.43 5.59-1.14-.67a1.005 1.005 0 0 0 0-.19h-.25c.003.03.003.06 0 .09l-7.64-4.47v-.15l-.24-.07c.005.03.005.06 0 .09l-1.42-.83v-.09a22.826 22.826 0 0 1 5.71-8.26 22.319 22.319 0 0 1 1.88-1.58 1 1 0 0 0 .18.17 24.714 24.714 0 0 0-1.89 1.59 22.855 22.855 0 0 0-5.61 8.06l10.27 6 3.3-5.38.28.1Z" fill="#26417F"/><path d="m139 112.75-.16.33-.36.15.18-.35.34-.13Z" fill="#26417F"/><path d="m138.46 113.23.36-.15c-.84 1.66-2.22 3.45-4.29 3.45h-.45a1.485 1.485 0 0 1-.79-.33l.21-.15c.185.127.398.206.62.23 2.06.21 3.47-1.42 4.34-3.05Z" fill="#26417F"/><path d="M139.56 110.45c-.231.837-.539 1.65-.92 2.43a24.651 24.651 0 0 0-5.33 3 1.287 1.287 0 0 1-.31-.88c0-1.58 2-3.66 6.56-4.55Z" fill="#13286A"/><path d="m138.64 112.88-.18.35a23.625 23.625 0 0 0-5 2.79.793.793 0 0 1-.19-.18 24.613 24.613 0 0 1 5.37-2.96Z" fill="#13286A"/><path d="M134.77 131.27h.25c.005.063.005.127 0 .19l-.23-.14a.744.744 0 0 0-.02-.05ZM134.76 131.36l.23.14c-.23 1.8-2 14.71-2.48 16.92l1.12.31h-.1v.24l-1.16-.32h-.12v-.12c.15-.57.44-2.35.77-4.56h.19l-.07-.24h-.09c.71-4.89 1.6-11.54 1.71-12.37Z" fill="#26417F"/><path d="M138.46 113.23c-.87 1.63-2.28 3.26-4.34 3a1.375 1.375 0 0 1-.62-.23 23.577 23.577 0 0 1 4.96-2.77Z" fill="#13286A"/><path d="m127.12 126.89 7.64 4.47c-.11.83-1 7.48-1.72 12.28-2.85.76-7.41-1.54-8.18-4.14-.72-2.92 1.87-11.39 2.26-12.61Z" fill="#FFDFD4"/><path d="M133.78 148.76v.25l-.25-.06v-.24h.1l.15.05Z" fill="#26417F"/><path d="m133.74 149-8.91 55.1h3.37v.25h-3.67v-.15l8.96-55.2h.25ZM133.5 116l-.21.15a1.034 1.034 0 0 1-.18-.17l.2-.16c.054.07.118.131.19.18ZM133.13 143.62l.07.24h-.19c.005-.09.005-.18 0-.27l.12.03ZM133 143.64c.004.09.004.18 0 .27a4.808 4.808 0 0 1-1.2.14c-2.91 0-6.48-2.09-7.19-4.49-.75-3.07 1.95-11.77 2.28-12.8l.22.13c-.39 1.22-3 9.69-2.26 12.61.78 2.6 5.34 4.9 8.15 4.14ZM128.45 207.2h-.25v.12h.25v-.12Z" fill="#26417F"/><path d="M128.45 204.36h-.25v2.84h.25v-2.84ZM128.45 204.11h-.25v.25h.25v-.25ZM128.45 204.07h-.25v.04h.25v-.04ZM126.93 126.67l.24.07v.15l-.22-.13a.309.309 0 0 0-.02-.09Z" fill="#26417F"/><path d="M220.55 140.21s7.75-1 9.09 2.45c1.21 3 1.22 6.13.39 7.34 5-2.15 5.88-1.92 7.22-5.62-.94-4.25-6.21-8.4-9-8.85a29.725 29.725 0 0 0-6.6 0l-1.1 4.68Z" fill="#13286A"/><path d="m183.94 157.55.95 8.17s7.71-4.14 10-4.48c3-.66 22.66-1.59 25-1.6 7.91-.68 16.38-6.6 17.49-12.43a4.881 4.881 0 0 0-.18-3c-.38 1-.14 3.19-7.88 6-8.6 1.28-23.56 1.46-25.09 1.43-1.49.13-18.23 2.98-20.29 5.91Z" fill="#4F87FD"/><path d="M269.58 86.72c3 4.71 4.41 10.75 3.79 11.86h2.55s-2.49-13.91-6.13-15.26c.13-5-2.93-10.36-5.49-11.42-4.34-1-12.82-1.15-18.89 3.7l1.53 5.75s12.77-5.62 15.45-2.88a9.497 9.497 0 0 1 2.77 5.72 4.868 4.868 0 0 1-2.77 4.69c-4.19 2.7-6.77-.13-6-1.79 0 0 2-3.25 8.77-2.51l-.16-1.53c-5.28-.62-13.83 2.6-12.3 7.3 2.42 4.72 9 3.5 10.53 3 1.94-.51 7-4.62 6.33-6.71" fill="#61D3BA"/><path d="m180.13 71.08 43.25.35M185.28 91.32l36.56.29M189.96 113.21l29.73.24" stroke="#26417F" stroke-width=".5" stroke-miterlimit="10"/><path d="m267.71 108.9-3.71 7.88s-6.64-3.7-8.56-4.93c1.57-4.47 2.51-6.44 2.51-6.44s4.05 1.59 9.76 3.49Z" fill="#FBC623"/><path d="m119.32 72.42 6.68-5.57s4.43 6.15 5.65 8.15c-3.33 3.38-5 4.76-5 4.76s-2.96-3.18-7.33-7.34Z" stroke="#FBC623" stroke-miterlimit="10"/><path d="m261.15 43.64-7.83-3.79s-2.81 7.06-3.53 9.23c4 2.48 6 3.41 6 3.41s2.11-3.75 5.36-8.85Z" fill="#4F87FD"/></svg>