<svg viewBox="0 0 400 300" fill="none" xmlns="http://www.w3.org/2000/svg"><g clip-path="url(#a)"><mask id="b" style="mask-type:alpha" maskUnits="userSpaceOnUse" x="37" y="12" width="312" height="219"><path d="M223.958 32.487c64.373 33.01 82.757 11.314 111.709 55.296 28.953 43.982 9.226 126.175-51.611 139.651-60.837 13.476-71.744-19.705-154.307-5.311C47.185 236.517 5.305 110.924 67.042 58.553c61.736-52.37 92.543-59.076 156.916-26.066Z" fill="#fff"/></mask><g mask="url(#b)"><path d="M223.958 32.487c64.373 33.01 82.757 11.314 111.709 55.296 28.953 43.982 9.226 126.175-51.611 139.651-60.837 13.476-71.744-19.705-154.307-5.311C47.185 236.517 5.305 110.924 67.042 58.553c61.736-52.37 92.543-59.076 156.916-26.066Z" fill="#F2F5FF"/><path d="M195.396 84.36c22.842 0 41.36 18.518 41.36 41.361 0 22.842-18.518 41.36-41.36 41.36-22.843 0-41.36-18.518-41.36-41.36 0-22.843 18.517-41.36 41.36-41.36Z" fill="#01133B"/><path d="M184.176 106.801a1.1 1.1 0 1 0 0-2.2 1.1 1.1 0 0 0 0 2.2ZM176.696 123.961a1.1 1.1 0 1 0-.001-2.201 1.1 1.1 0 0 0 .001 2.201ZM214.096 112.961a1.1 1.1 0 1 0-.001-2.201 1.1 1.1 0 0 0 .001 2.201ZM168.556 122.321a1 1 0 1 0 0-2 1 1 0 0 0 0 2ZM203.315 92.4a1 1 0 1 0 0-1.998 1 1 0 0 0 0 1.999ZM168.996 103.401a1 1 0 1 0 0-2 1 1 0 0 0 0 2ZM212.776 104.941a1 1 0 1 0 0-2 1 1 0 0 0 0 2ZM192.976 116.821a1 1 0 1 0 0-2 1 1 0 0 0 0 2ZM227.076 117.041a1 1 0 1 0 0-2 1 1 0 0 0 0 2Z" fill="#fff"/><mask id="c" style="mask-type:alpha" maskUnits="userSpaceOnUse" x="40" y="72" width="93" height="107"><path d="m107.423 72.92-35.788 63.588h24.612v-20.297h27.522v20.297h8.267v27.506h-8.267v14.947H96.247v-14.947H40.956v-29.1l34.89-61.993h31.577Z" fill="#fff"/></mask><g mask="url(#c)"><path d="m107.423 72.92-35.788 63.588h24.612v-20.297h27.522v20.297h8.267v27.506h-8.267v14.947H96.247v-14.947H40.956v-29.1l34.89-61.993h31.577Z" fill="#3D66EE"/><path d="M136.226 70.751H10.136v124.96h126.09V70.751Z" fill="#436FFF"/><path fill-rule="evenodd" clip-rule="evenodd" d="m45.059 114.814-3.474 10.681-7.117-6.849 10.59-3.832ZM118.65 129.095l8.247 7.652-9.237 3.533.99-11.185ZM59.292 86.235l3.95 3.98-4.603 1.579.653-5.56ZM97.352 100.925l-.619 5.563-4.127-2.57 4.746-2.993ZM86.324 76.514l3.355 4.489-4.778.925 1.423-5.414ZM66.536 108.843l3.355 4.489-4.778.925 1.423-5.414ZM121.454 91.06l5.304 1.969-3.702 3.44-1.602-5.41ZM99.16 157.423l2.61 2.832-3.318.948.708-3.78ZM109.892 115.345l-2.425 6.486-4.237-4.528 6.662-1.958ZM77.695 159.067l5.208 4.581-5.76 2.319.552-6.9ZM43.866 96.802l2.7 2.375-2.987 1.202.287-3.577ZM59.54 124.116l-.837 3.491-2.467-2.064 3.304-1.427ZM103.756 131.566l2.195 2.844-3.162.613.967-3.457ZM115.534 150.592l1.882 2.438-2.71.525.828-2.963ZM81.563 92.826l-.597 2.493-1.763-1.474 2.36-1.02ZM109.054 75.568l2.61 2.832-3.318.948.708-3.78ZM94.744 139.762l-1.724 9.328-6.8-5.105 8.524-4.223ZM40.717 140.274l1.569 6.479-5.83-1.341 4.26-5.138ZM133.444 154.031l1.569 6.479-5.829-1.341 4.26-5.138ZM67.096 142.299l-2.43 5.093-3.117-3.975 5.547-1.118ZM134.283 112.263l-2.431 5.093-3.116-3.975 5.547-1.118ZM125.595 178.741l2.714 9.092-8.384-1.473 5.67-7.619ZM82.213 121.561l4.952 4.436-5.42 2.183.468-6.619ZM52.815 162.173l2.281 6.233-5.814-.609 3.533-5.624Z" fill="#fff"/></g><mask id="d" style="mask-type:alpha" maskUnits="userSpaceOnUse" x="259" y="72" width="92" height="107"><path d="m326.103 72.92-35.788 63.588h24.612v-20.297h27.522v20.297h8.267v27.506h-8.267v14.947h-27.522v-14.947h-55.291v-29.1l34.89-61.993h31.577Z" fill="#fff"/></mask><g mask="url(#d)"><path d="m326.103 72.92-35.788 63.588h24.612v-20.297h27.522v20.297h8.267v27.506h-8.267v14.947h-27.522v-14.947h-55.291v-29.1l34.89-61.993h31.577Z" fill="#3D66EE"/><path d="M375.146 70.751h-126.09v124.96h126.09V70.751Z" fill="#436FFF"/><path fill-rule="evenodd" clip-rule="evenodd" d="m283.979 114.814-3.474 10.681-7.117-6.849 10.591-3.832ZM254.022 93.928l5.81 9.62-9.856.86 4.046-10.48ZM298.213 86.235l3.949 3.98-4.603 1.579.654-5.56ZM336.272 100.925l-.618 5.563-4.128-2.57 4.746-2.993ZM325.244 76.514l3.355 4.489-4.778.925 1.423-5.414ZM305.456 108.843l3.355 4.489-4.778.925 1.423-5.414ZM266.76 83.982l-1.695 5.38-3.642-3.503 5.337-1.877ZM338.08 157.423l2.61 2.832-3.317.948.707-3.78ZM348.813 115.345l-2.425 6.486-4.237-4.528 6.662-1.958ZM316.616 159.067l5.207 4.581-5.76 2.319.553-6.9ZM282.786 96.802l2.7 2.375-2.986 1.202.286-3.577ZM298.46 124.116l-.836 3.491-2.468-2.064 3.304-1.427ZM342.676 131.566l2.196 2.844-3.162.613.966-3.457ZM320.484 92.826l-.598 2.493-1.763-1.474 2.361-1.02ZM347.974 75.568l2.61 2.832-3.317.948.707-3.78ZM333.664 139.762l-1.724 9.328-6.799-5.105 8.523-4.223ZM279.637 140.274l1.569 6.479-5.829-1.341 4.26-5.138ZM306.017 142.299l-2.431 5.093-3.116-3.975 5.547-1.118ZM261.091 154.078l4.041 3.948-4.786 1.643.745-5.591ZM321.134 121.561l4.951 4.436-5.42 2.183.469-6.619ZM291.735 162.173l2.282 6.233-5.815-.609 3.533-5.624Z" fill="#fff"/></g><mask id="e" style="mask-type:alpha" maskUnits="userSpaceOnUse" x="113" y="43" width="165" height="165"><path d="M195.396 43.88c-45.199 0-81.84 36.543-81.84 81.621 0 45.077 36.641 81.62 81.84 81.62 45.199 0 81.84-36.543 81.84-81.62 0-45.078-36.641-81.62-81.84-81.62Zm0 40.48c22.842 0 41.36 18.518 41.36 41.361 0 22.842-18.518 41.36-41.36 41.36-22.843 0-41.36-18.518-41.36-41.36 0-22.843 18.517-41.36 41.36-41.36Z" fill="#fff"/></mask><g mask="url(#e)"><path d="M195.396 43.88c-45.199 0-81.84 36.543-81.84 81.621 0 45.077 36.641 81.62 81.84 81.62 45.199 0 81.84-36.543 81.84-81.62 0-45.078-36.641-81.62-81.84-81.62Zm0 40.48c22.842 0 41.36 18.518 41.36 41.361 0 22.842-18.518 41.36-41.36 41.36-22.843 0-41.36-18.518-41.36-41.36 0-22.843 18.517-41.36 41.36-41.36Z" fill="#3D66EE"/><mask id="f" style="mask-type:alpha" maskUnits="userSpaceOnUse" x="60" y="29" width="280" height="280"><path d="M339.879 29.872H60.919v278.96h278.96V29.872Z" fill="#fff"/></mask><g mask="url(#f)"><path d="M339.879 29.872H60.919v278.96h278.96V29.872Z" fill="#436FFF"/><path d="M172.285 29.872c3.944 51.22 22.295 82.225 55.055 93.018 32.759 10.793 77.272-4.71 133.538-46.51" stroke="#fff" stroke-width="1.32"/><path d="M191.67 29.872c8.731 60.216-10.878 91.326-58.827 93.332-71.924 3.008-19.961-51.612 4.576-29.839 24.537 21.774 22.539 68.92-15.746 101.233-25.523 21.543-54.603 32.314-87.24 32.314M339.879 195.285c-106.29-6.868-190.602 30.981-252.934 113.547" stroke="#fff" stroke-width="1.32"/><path d="M60.92 194.494c69.721 18.689 114.669 56.801 134.845 114.338" stroke="#fff" stroke-width="1.32"/><path d="M339.879 128.392c-47.043 46.959-79.882 60.612-98.516 40.959-27.951-29.479 25.439-52.693 33.314-26.346 7.875 26.346-34.227 47.256-90.281 56.556-37.369 6.2-81.589 33.322-132.658 81.366M109.965 29.872c44.574 21.649 102.103 31.43 172.587 29.345 70.484-2.086 120.321-10.55 149.513-25.394" stroke="#fff" stroke-width="1.32"/><path d="M270.779 80.545c18.94 0 34.294-21.542 34.294-48.114 0-26.573-15.354-48.115-34.294-48.115-18.94 0-34.294 21.542-34.294 48.115 0 26.572 15.354 48.114 34.294 48.114ZM339.879 158.904c-44.531 43.415-63.64 96.05-57.327 157.904" stroke="#fff" stroke-width="1.32"/><path d="M60.92 136.257c109.986 22.222 196.294 82.406 258.921 180.551" stroke="#fff" stroke-width="1.32"/></g></g><path d="M195.396 43.88c-45.199 0-81.84 36.543-81.84 81.621 0 45.077 36.641 81.62 81.84 81.62 45.199 0 81.84-36.543 81.84-81.62 0-45.078-36.641-81.62-81.84-81.62Z" stroke="#fff" stroke-width="1.76"/></g><path d="m337.28 217.081-19.731-5.56 7.496-15.367 11.264 2.24" stroke="#01133B" stroke-width="1.32" stroke-linecap="round" stroke-linejoin="round"/><mask id="g" style="mask-type:alpha" maskUnits="userSpaceOnUse" x="335" y="190" width="24" height="68"><path d="m341.53 227.355-5.858-6.584c1.916-1.376 2.917-3.673 3.003-6.89.211-7.913-.937-14.009-3.444-18.288l11.496-3.513a26.067 26.067 0 0 1 7.171-1.135l3.226-.056a.439.439 0 0 1 .447.432l1.127 64.346a1.32 1.32 0 0 1-1.752 1.27l-2.972-1.03a7.918 7.918 0 0 1-5.108-5.63l-3.968-16.479a14.966 14.966 0 0 0-3.368-6.443Z" fill="#fff"/></mask><g mask="url(#g)"><path clip-rule="evenodd" d="M334.661 220.628c2.192-1.197 3.266-3.479 3.354-6.765.219-8.206-1.027-14.43-3.796-18.651l12.315-3.763a26.732 26.732 0 0 1 7.353-1.164l3.881-.068 1.589 65.438a1.97 1.97 0 0 1-.555 1.41 1.972 1.972 0 0 1-1.509.603l-3.528-1.134a8.582 8.582 0 0 1-5.541-6.103l-3.968-16.478a14.295 14.295 0 0 0-3.219-6.159l-6.376-7.166Z" stroke="#01133B" stroke-width="1.32"/><path d="m333.506 213.478 11.981-2.707 7.965-11.715" stroke="#01133B" stroke-width="4.4" stroke-linejoin="round"/><path fill-rule="evenodd" clip-rule="evenodd" d="m354.671 258.356-1.224-70.015 4.072-.07 1.224 70.014-4.072.071Z" fill="#01133B"/><path fill-rule="evenodd" clip-rule="evenodd" d="m358.155 205.133-5.817-1.612a10.562 10.562 0 0 1-7.369-7.396l-2.074-7.6 12.465-7.274 10.601 6.835-2.685 13.54-5.121 3.507Z" fill="#fff" stroke="#01133B" stroke-width="1.32" stroke-linecap="round" stroke-linejoin="round"/></g><path d="m343.735 236.066 4.367-1.064M342.196 231.645l4.333-3.042M339.195 227.248l3.358-3.024" stroke="#01133B" stroke-width="1.32" stroke-linecap="round" stroke-linejoin="round"/><path fill-rule="evenodd" clip-rule="evenodd" d="m324.639 213.478 2.865-16.995-.892.016-4.443 16.305 2.47.674Z" fill="#01133B"/><path fill-rule="evenodd" clip-rule="evenodd" d="M192.529 114.406c14.573-6.089 31.424-1.234 40.53 11.677 14.55 20.632 23.051 32.087 25.502 34.366 2.711 2.521 13.793 5.598 21.518 9.311 6.042 2.904 11.1 10.234 17.631 12.753 14.885 5.742 20.809 3.668 29.482 11.132-2.556 8.704-6.192 22.867-10.909 42.487l-74.873-47.068a44.025 44.025 0 0 1-12.569-11.929l-9.558-13.58c5.73 13.575 9.561 21.798 11.493 24.667 2.898 4.305 9.429 4.621 18.118 10.936 8.69 6.315 10.077 10.995 17.24 16.276 7.164 5.28 19.213 8.149 25.631 16.835-3.752 7.958-11.012 21.128-21.779 39.509l-68.303-64.943a30.653 30.653 0 0 1-7.555-11.388l-17.053-45.18c-5.348-14.168 1.485-30.023 15.454-35.861Z" fill="#fff" stroke="#01133B" stroke-width="1.32" stroke-linecap="round" stroke-linejoin="round"/><path d="M175.742 146.325c2.14 3.937 5.487 6.108 10.04 6.511" stroke="#01133B" stroke-width="1.32" stroke-linecap="round"/><path d="M176.452 151.31c2.866 2.908 6.444 4.317 10.734 4.225" stroke="#01133B" stroke-width=".838" stroke-linecap="round" stroke-linejoin="round" stroke-dasharray="2.51 2.51"/><path d="m219.285 163.56-8.482-25.457" stroke="#01133B" stroke-width="1.32" stroke-linecap="round" stroke-linejoin="round"/><path fill-rule="evenodd" clip-rule="evenodd" d="M193.255 113.259c-6.467 4.11-10.541 11.251-12.224 21.423-1.683 10.172-1.389 23.648.882 40.428-4.208-.001-7.854-1.931-10.937-5.79-4.626-5.789-16.215-30.524-15.659-38.903 3.594-2.443 9.463-5.827 18.843-9.895a224.136 224.136 0 0 1 19.095-7.263Z" fill="#EDEEF2" stroke="#01133B" stroke-width="1.32" stroke-linecap="round" stroke-linejoin="round"/><path fill-rule="evenodd" clip-rule="evenodd" d="m210.803 138.103 15.329 34.332-7.763-9.551-7.566-24.781Z" fill="#01133B"/><path d="m180.636 138.099 18.862 48.209a29.045 29.045 0 0 0 14.2 15.467c8.499 4.193 14.688 8.109 18.566 11.746 7.885 7.396 14.067 18.157 22.109 25.094 8.042 6.937 19.342 9.003 26.198 15.781" stroke="#01133B" stroke-width="1.32" stroke-linejoin="round"/><path d="m298.909 256.712-16.376-6.43 8.219-15.807 8.995 3.923" stroke="#01133B" stroke-width="1.32" stroke-linecap="round" stroke-linejoin="round"/><mask id="h" style="mask-type:alpha" maskUnits="userSpaceOnUse" x="296" y="232" width="26" height="67"><path d="m302.061 267.271-5.136-7.159c2.05-1.169 3.285-3.348 3.707-6.54 1.038-7.847.535-14.03-1.509-18.547l11.798-2.294a26.082 26.082 0 0 1 7.25-.38l3.213.28a.441.441 0 0 1 .4.477l-5.615 64.112a1.32 1.32 0 0 1-1.875 1.081l-2.848-1.334a7.918 7.918 0 0 1-4.489-6.133l-2.221-16.803a14.956 14.956 0 0 0-2.675-6.76Z" fill="#fff"/></mask><g mask="url(#h)"><path clip-rule="evenodd" d="M295.934 259.863c2.305-.961 3.612-3.119 4.043-6.377 1.076-8.139.488-14.459-1.824-18.945l12.641-2.457a26.75 26.75 0 0 1 7.434-.39l3.867.338-5.266 65.246a1.976 1.976 0 0 1-.7 1.344 1.97 1.97 0 0 1-1.564.442l-3.39-1.496a8.58 8.58 0 0 1-4.871-6.648l-2.222-16.803a14.292 14.292 0 0 0-2.558-6.461l-5.59-7.793Z" stroke="#01133B" stroke-width="1.32"/><path d="m295.531 252.631 12.198-1.441 9.147-10.819" stroke="#01133B" stroke-width="4.4" stroke-linejoin="round"/><path fill-rule="evenodd" clip-rule="evenodd" d="m311.887 299.476 6.105-69.76 4.058.355-6.105 69.759-4.058-.354Z" fill="#01133B"/><path fill-rule="evenodd" clip-rule="evenodd" d="m320.917 246.908-5.617-2.211a10.56 10.56 0 0 1-6.554-8.126l-1.268-7.774 13.158-5.933 9.827 7.904-4.087 13.187-5.459 2.953Z" fill="#fff" stroke="#01133B" stroke-width="1.32" stroke-linecap="round" stroke-linejoin="round"/></g><path d="m303.343 276.164 4.455-.602M302.275 271.605l4.627-2.571M299.75 266.92l3.657-2.657" stroke="#01133B" stroke-width="1.32" stroke-linecap="round" stroke-linejoin="round"/><path fill-rule="evenodd" clip-rule="evenodd" d="m284.866 251.379 6.927-16.689-.888.078-8.373 15.514 2.334 1.097Z" fill="#01133B"/></g><defs><clipPath id="a"><path fill="#fff" d="M0 0h400v300H0z"/></clipPath></defs></svg>