<svg viewBox="0 0 400 300" fill="none" xmlns="http://www.w3.org/2000/svg"><g clip-path="url(#a)"><path fill-rule="evenodd" clip-rule="evenodd" d="M212.791 55.198c63.533 32.536 101.669 38.31 118.439 81.631 16.771 43.321.917 97.238-59.125 110.52-60.043 13.283-58.67 31.406-149.29 34.91C32.195 285.764-3.007 132.51 57.924 80.891c60.93-51.62 91.334-58.23 154.867-25.693Z" fill="#F2F5FF"/><mask id="b" style="mask-type:alpha" maskUnits="userSpaceOnUse" x="16" y="21" width="369" height="260"><path d="M213.124 43.424c37.817 21.434 122.842-26.74 143.508-11.282 7.047 5.271 33.671 42.71 26.736 77.852-9.639 48.838-52.96 122.599-112.985 137.295-22.771 5.576-44.443 15.671-66.972 22.368-36.019 10.709-74.413 17.777-122.985-2.386C2.164 234.782-2.61 128.964 58.303 71.851 119.215 14.74 149.61 7.425 213.124 43.424Z" fill="#fff"/></mask><g mask="url(#b)"><mask id="c" style="mask-type:alpha" maskUnits="userSpaceOnUse" x="20" y="25" width="363" height="273"><path d="M382.201 89.701 174.369 297.534l-64.093-64.092.16-.161-90.386-90.384 64.092-64.092 90.386 90.384 143.581-143.58L382.201 89.7Z" fill="#fff"/></mask><g mask="url(#c)"><path d="M382.201 89.701 174.369 297.534l-64.093-64.092.16-.161-90.386-90.384 64.092-64.092 90.386 90.384 143.581-143.58L382.201 89.7Z" fill="#436FFF"/><path d="M161.472-47.473C164.224 18.1 186.273 58.509 227.62 73.75c41.347 15.241 98.873-2.569 172.579-53.43" stroke="#fff" stroke-width="1.32"/><path d="M186.223-46.61c8.463 77.275-17.961 116.124-79.273 116.547-91.968.634-23.186-66.79 7.173-37.895 30.359 28.895 25.706 89.003-24.618 128.555-33.55 26.368-71.16 38.824-112.832 37.369M368.085 171.203C232.677 157.695 123.339 202.262 40.07 304.905" stroke="#fff" stroke-width="1.32"/><path d="M11.938 157.754c88.188 26.972 143.88 77.639 167.076 152.002" stroke="#fff" stroke-width="1.32"/><path d="M371.068 85.792c-62.16 57.862-104.698 73.831-127.614 47.906-34.374-38.886 34.83-66.146 43.71-32.154 8.881 33.991-45.809 58.811-117.794 68.186-47.991 6.25-105.66 38.909-173.009 97.976M230.35 311.549c-6.998-52.715 5.529-80.423 37.579-83.123 32.05-2.7 67.047 12.594 104.99 45.884" stroke="#fff" stroke-width="1.32"/><path d="M369.708 124.752c-58.795 53.447-85.541 119.8-80.238 199.059" stroke="#fff" stroke-width="1.32"/><path d="M14.535 83.396c139.443 33.278 246.959 113.971 322.547 242.077" stroke="#fff" stroke-width="1.32"/><path d="M70.865-50.638c-43.23 7.284-59.74 25.045-49.53 53.285 15.317 42.36 74.377 123.513-8.671 134.33M9.389 230.749c31.685 50.989 66.668 64.681 104.949 41.077 57.421-35.407 76.719-42.499 99.837-33.926 15.412 5.716 28.741 30.543 39.987 74.481" stroke="#fff" stroke-width="1.32"/></g></g><mask id="d" style="mask-type:alpha" maskUnits="userSpaceOnUse" x="30" y="-25" width="347" height="323"><path d="m376.352 95.782-200.869 201.7-56.718-54.967.169-.169-88.414-88.413 47.281-86.138 95.762-91.949L331.95 29.331l44.402 66.451Z" fill="#fff"/></mask><g mask="url(#d)"><path fill-rule="evenodd" clip-rule="evenodd" d="m331.988 139.996-42.652 5.164-13.465 126.826 26.963-3.408 10.149-104.509 20.671 96.245 27.397-4.844-29.063-115.474Z" fill="#fff" stroke="#01133B" stroke-width="1.32" stroke-linecap="round" stroke-linejoin="round"/><path d="M299.797 144.766a14.783 14.783 0 0 1-10.811 14.572l-.918.256" stroke="#01133B" stroke-width="1.32" stroke-linecap="round" stroke-linejoin="round"/><path d="M302.128 144.361a17.424 17.424 0 0 1-12.7 17.176l-.905.255" stroke="#01133B" stroke-width=".521" stroke-linecap="round" stroke-linejoin="round" stroke-dasharray="1.56 1.56"/><path d="M322.355 142.135a14.926 14.926 0 0 0 13.937 11.873l.96.043" stroke="#01133B" stroke-width="1.32" stroke-linecap="round" stroke-linejoin="round"/><path d="M319.971 142.266a17.592 17.592 0 0 0 16.385 14.003l.948.045" stroke="#01133B" stroke-width=".521" stroke-linecap="round" stroke-linejoin="round" stroke-dasharray="1.56 1.56"/><path d="m310.884 143.484 2.11 20.584M306.864 143.624l1.425 15.978a5.007 5.007 0 0 0 4.118 4.487" stroke="#01133B" stroke-width="1.32" stroke-linecap="round" stroke-linejoin="round"/><path fill-rule="evenodd" clip-rule="evenodd" d="M320.648 32.37c-3.495-3.035-9.229-2.215-12.07 2.202-1.366 2.122-1.741 4.364-1.123 6.724-2.13-.779-4.584-1.072-7.486-.86-8.08.589-15.177 6.91-14.541 15.644.636 8.733-11.054 8.901-14.981 17.487-1.802 3.943-.4 8.006.589 11.934l.129.523c1.071 4.438 1.404 8.69-4.269 12.385-7.268 4.734-11.109 10.577-11.525 17.529l102.957-13.286c-.596-7.584-4.503-12.445-11.722-14.583-5.725-1.696-6.528-6.296-7.397-11.357l-.115-.662c-.75-4.32-1.704-8.895-5.901-12.235-9.365-7.449-12.913-7.013-16.724-13.83-.788-1.41-1.611-2.67-2.491-3.778l.029-.001c3.973-.201 7.018-2.983 7.841-4.065 1.941-2.55 2.295-6.735-1.2-9.77Z" fill="#01133B"/><path fill-rule="evenodd" clip-rule="evenodd" d="m336.172 90.828 34.91 31.465 3.62 68.945-21.467 1.123-8.448-55.992-12.666-14.538 1.757 18.15-44.922 4.862-4.477-21.748-15.33 18.878c-5.756 7.088-16.17 8.168-23.26 2.411a16.519 16.519 0 0 1-2.309-2.286l-48.212-58.172 31.52-13.484 33.568 41.51 15.172-16.935a14.694 14.694 0 0 1 8.203-4.632l20.23-3.842 22.598.507c3.521.08 6.897 1.42 9.513 3.778Z" fill="#fff" stroke="#01133B" stroke-width="1.32" stroke-linecap="round" stroke-linejoin="round"/><path fill-rule="evenodd" clip-rule="evenodd" d="m213.264 105.678-20.323-26.97a4.053 4.053 0 0 1 6.474-4.88l10.162 13.486" fill="#fff"/><path d="m213.264 105.678-20.323-26.97a4.053 4.053 0 0 1 6.474-4.88l10.162 13.486" stroke="#01133B" stroke-width="1.32" stroke-linecap="round" stroke-linejoin="round"/><path fill-rule="evenodd" clip-rule="evenodd" d="M209.575 87.314 199.414 73.83a4.053 4.053 0 0 1 6.474-4.878l10.161 13.485" fill="#fff"/><path d="M209.575 87.314 199.414 73.83a4.053 4.053 0 0 1 6.474-4.878l10.161 13.485" stroke="#01133B" stroke-width="1.32" stroke-linecap="round" stroke-linejoin="round"/><path fill-rule="evenodd" clip-rule="evenodd" d="m216.048 82.437-10.161-13.485a4.053 4.053 0 0 1 6.474-4.879l10.161 13.485" fill="#fff"/><path d="m216.048 82.437-10.161-13.485a4.053 4.053 0 0 1 6.474-4.879l10.161 13.485" stroke="#01133B" stroke-width="1.32" stroke-linecap="round" stroke-linejoin="round"/><path fill-rule="evenodd" clip-rule="evenodd" d="M222.522 77.56 212.36 64.074a4.053 4.053 0 0 1 .799-5.676 4.095 4.095 0 0 1 5.709.772L240.8 87.65" fill="#fff"/><path d="M222.522 77.56 212.36 64.074a4.053 4.053 0 0 1 .799-5.676 4.095 4.095 0 0 1 5.709.772L240.8 87.65" stroke="#01133B" stroke-width="1.32" stroke-linecap="round" stroke-linejoin="round"/><path fill-rule="evenodd" clip-rule="evenodd" d="m229.361 76.123-.734-5.986a4.048 4.048 0 0 1 3.525-4.51 4.13 4.13 0 0 1 4.592 3.512l2.488 17.363" fill="#fff"/><path d="m229.361 76.123-.734-5.986a4.048 4.048 0 0 1 3.525-4.51 4.13 4.13 0 0 1 4.592 3.512l2.488 17.363" stroke="#01133B" stroke-width="1.32" stroke-linecap="round" stroke-linejoin="round"/><path fill-rule="evenodd" clip-rule="evenodd" d="m311.431 87.36-1.558-12.672-14.046 1.722 1.511 12.341" fill="#fff"/><path d="m311.431 87.36-1.558-12.672-14.046 1.722 1.511 12.341" stroke="#01133B" stroke-width="1.32" stroke-linecap="round" stroke-linejoin="round"/><mask id="e" style="mask-type:alpha" maskUnits="userSpaceOnUse" x="295" y="74" width="16" height="17"><path d="m309.872 74.688-14.045 1.721.986 8.023a7.074 7.074 0 1 0 14.046-1.722l-.987-8.023Z" fill="#fff"/></mask><g mask="url(#e)"><path d="M297.93 85.459c-10.235 1.255-19.478-5.413-20.643-14.893-1.165-9.48 6.188-18.184 16.423-19.439 10.236-1.255 19.478 5.412 20.643 14.893 1.166 9.48-6.187 18.183-16.423 19.439Z" fill="#01133B"/></g><path d="M285.881 57.362c-1.058-8.613 5.063-16.45 13.672-17.506 8.61-1.056 16.448 5.07 17.506 13.682l.874 7.113c1.059 8.612-5.062 16.45-13.672 17.506-8.609 1.056-16.447-5.07-17.506-13.682l-.874-7.113Z" fill="#01133B"/><path fill-rule="evenodd" clip-rule="evenodd" d="m287.304 59.14 1.175 9.554c.892 7.256 7.495 12.417 14.749 11.527 7.253-.89 12.41-7.493 11.518-14.748l-1.174-9.555c-.892-7.256-7.495-12.417-14.749-11.527-7.253.89-12.41 7.493-11.519 14.748Z" fill="#fff" stroke="#01133B" stroke-width="1.32" stroke-linecap="round" stroke-linejoin="round"/><mask id="f" style="mask-type:alpha" maskUnits="userSpaceOnUse" x="287" y="44" width="28" height="36"><path d="m287.305 59.138 1.029 8.361c.892 7.257 7.495 12.418 14.748 11.53 7.253-.89 12.409-7.493 11.517-14.75l-1.029-8.36c-.892-7.257-7.495-12.418-14.748-11.53-7.253.89-12.409 7.493-11.517 14.75Z" fill="#fff"/></mask><g mask="url(#f)"><path fill-rule="evenodd" clip-rule="evenodd" d="m289.789 38.597-.107-.005c-3.044-.108-14.108 4.103-18.068 12.719-3.969 8.636-1.336 18.604 2.719 18.077a21.074 21.074 0 0 0 6.86-2.131c5.787-2.95 9.633-8.2 10.991-14.07 4.422 4.254 11.719 6.693 18.403 7.02 3.655.178 5.866.331 8.201.048 4.72-.573-3.135-17.226-10.421-25.383-5.084-5.691-14.875-1.027-18.578 3.725Z" fill="#01133B"/></g><mask id="g" style="mask-type:alpha" maskUnits="userSpaceOnUse" x="299" y="70" width="8" height="6"><path d="m306.496 70.76-6.943 2.312c1.151 2.175 2.706 2.927 4.663 2.258 1.958-.668 2.718-2.192 2.28-4.57Z" fill="#fff"/></mask><g mask="url(#g)"><path d="m306.496 70.76-6.944 2.312c1.152 2.175 2.707 2.927 4.664 2.258 1.958-.668 2.717-2.192 2.28-4.57Z" fill="#fff" stroke="#01133B" stroke-linecap="round" stroke-linejoin="round"/><path d="M304.434 77.502c-1.688.207-3.176-.604-3.325-1.81-.148-1.207 1.1-2.352 2.788-2.56 1.688-.206 3.177.604 3.325 1.81.149 1.207-1.1 2.353-2.788 2.56Z" fill="#01133B"/></g><path d="m299.123 64.964-.127 3.434 1.887.09" stroke="#01133B" stroke-width="1.32" stroke-linecap="round" stroke-linejoin="round"/><path d="M306.71 64.168c-1.539.188-2.888-.49-3.014-1.517-.127-1.026 1.019-2.01 2.557-2.2 1.539-.188 2.889.49 3.015 1.517.126 1.026-1.019 2.011-2.558 2.2Z" stroke="#01133B" stroke-width=".802" stroke-linecap="round" stroke-linejoin="round"/><path d="M306.71 64.168c-.923.113-1.774-.627-1.9-1.654-.126-1.026.52-1.95 1.443-2.062.924-.114 1.774.626 1.9 1.653.127 1.026-.52 1.95-1.443 2.063Z" fill="#01133B"/><path d="M292.38 65.928c-1.539.188-2.889-.49-3.015-1.517-.126-1.026 1.019-2.011 2.558-2.2 1.538-.188 2.888.49 3.014 1.517.126 1.026-1.019 2.011-2.557 2.2Z" stroke="#01133B" stroke-width=".802" stroke-linecap="round" stroke-linejoin="round"/><path d="M292.38 65.927c-.923.113-1.774-.627-1.9-1.653-.126-1.026.52-1.95 1.443-2.063.923-.113 1.774.627 1.9 1.653.126 1.027-.52 1.95-1.443 2.063Z" fill="#01133B"/><path fill-rule="evenodd" clip-rule="evenodd" d="m313.275 62.039 2.12-.17-.689 7.981-1.641.394.21-8.205Z" fill="#fff"/><path fill-rule="evenodd" clip-rule="evenodd" d="m313.841 61.61 1.527-.29a3.18 3.18 0 0 1 3.765 3.348 6.031 6.031 0 0 1-4.227 5.34l-.762.236" fill="#fff"/><path d="m313.841 61.61 1.527-.29a3.18 3.18 0 0 1 3.765 3.348 6.031 6.031 0 0 1-4.227 5.34l-.762.236M315.735 64.144l.094 2.688M315.794 65.834l1.22-1.058" stroke="#01133B" stroke-width="1.32" stroke-linecap="round" stroke-linejoin="round"/><path clip-rule="evenodd" d="m315.384 68.399-2.423 10.938 7.423-.91-5-10.028ZM290.304 71.48l-2.423 10.937 7.423-.91-5-10.028Z" stroke="#fff" stroke-width=".88" stroke-linejoin="round"/><path fill-rule="evenodd" clip-rule="evenodd" d="m317.015 86.495 9.304 94.144 14.866-2.33 4.388-38.912 20.725-23.457-26.242-25.26a14.958 14.958 0 0 0-10.371-4.183l-12.67-.002Z" fill="#EDEEF2" stroke="#01133B" stroke-width="1.32" stroke-linejoin="round"/><path fill-rule="evenodd" clip-rule="evenodd" d="m324.093 87.313-2.711 15.865 7.599 5.8a9.685 9.685 0 0 1 3.57 9.841l-8.447 37.239" fill="#EDEEF2"/><path d="m324.093 87.313-2.711 15.865 7.599 5.8a9.685 9.685 0 0 1 3.57 9.841l-8.447 37.239M335.617 126.524l1.886 9.263" stroke="#01133B" stroke-width="1.32" stroke-linecap="round" stroke-linejoin="round"/><path fill-rule="evenodd" clip-rule="evenodd" d="m290.235 89.086 3.328 101.651-21.081 15.797 2.691-61.764-5.238 4.209c-8.267 6.644-20.263 5.774-27.49-1.995l-32.456-34.891 30.803-31.127 20.578 27.517 8.248-10.249a21.108 21.108 0 0 1 12.25-7.452l8.367-1.696Z" fill="#EDEEF2" stroke="#01133B" stroke-width="1.32" stroke-linejoin="round"/><path fill-rule="evenodd" clip-rule="evenodd" d="m281.276 90.79 6.693 15.488-7.468 5.826a9.682 9.682 0 0 0-3.215 10.731l15.549 46.033" fill="#EDEEF2"/><path d="m281.276 90.79 6.693 15.488-7.468 5.826a9.683 9.683 0 0 0-3.215 10.731l15.549 46.033" stroke="#01133B" stroke-width="1.32" stroke-linecap="round" stroke-linejoin="round"/><path fill-rule="evenodd" clip-rule="evenodd" d="m207.045 112.98 33.748-33.645 6.092 6.226-20.052 50.229-19.788-22.81Z" fill="#EDEEF2" stroke="#01133B" stroke-width="1.32" stroke-linejoin="round"/><path fill-rule="evenodd" clip-rule="evenodd" d="m230.481 134.339-.661-.62-1.744-1.632 17.727-43.952.612.537-15.934 45.667Z" fill="#01133B"/><path d="m275.652 136.385-.474 8.381M290.463 94.947c3.427 9.565 8.244 14.149 14.452 13.753 6.208-.397 10.344-6.313 12.409-17.75" stroke="#01133B" stroke-width="1.32" stroke-linecap="round" stroke-linejoin="round"/><path fill-rule="evenodd" clip-rule="evenodd" d="m130.673 208.286-63.868-8.156-8.544 48.494 66.655 10.862 5.757-51.2Z" fill="#fff" stroke="#01133B" stroke-width="1.32" stroke-linecap="round" stroke-linejoin="round"/><path d="m94.789 205.364-1.16 12.641M115.598 209.762a18.519 18.519 0 0 0 11.148 19.761l.842.353" stroke="#01133B" stroke-width="1.32" stroke-linecap="round" stroke-linejoin="round"/><path d="M112.209 209.109c-1.423 9.686 3.876 19.104 12.888 22.908l.828.35" stroke="#01133B" stroke-width=".753" stroke-linecap="round" stroke-linejoin="round" stroke-dasharray="2.26 2.26"/><path d="m99.153 206.082-1.463 17.819" stroke="#01133B" stroke-width="1.32" stroke-linejoin="round"/><path fill-rule="evenodd" clip-rule="evenodd" d="m8.992 210.647 35.954 7.224 16.882-18.07 69.313 10.81 5.943-35.416 34.414 3.972c14.963 1.727 28.5-9.008 30.235-23.978l.007-.062 8.735-76.884-39.805-1.757-8.067 59.51-55.204-10.054-33.068-1.67a15.165 15.165 0 0 0-13.463 6.86L8.992 210.647Z" fill="#fff" stroke="#01133B" stroke-width="1.32" stroke-linecap="round" stroke-linejoin="round"/><path fill-rule="evenodd" clip-rule="evenodd" d="m167.408 100.472 4.91-40.84a5.003 5.003 0 0 1 5.559-4.373l.013.002a5.007 5.007 0 0 1 4.358 5.583l-.001.005-2.551 20.596" fill="#fff"/><path d="m167.408 100.472 4.91-40.84a5.003 5.003 0 0 1 5.559-4.373l.013.002a5.007 5.007 0 0 1 4.358 5.583l-.001.005-2.551 20.596" stroke="#01133B" stroke-width="1.32" stroke-linecap="round" stroke-linejoin="round"/><path fill-rule="evenodd" clip-rule="evenodd" d="m205.798 87.681 4.481-5.972a4.966 4.966 0 0 1 6.952-.995l.017.013a5.009 5.009 0 0 1 .981 7L206.696 103.1" fill="#fff"/><path d="m205.798 87.681 4.481-5.972a4.966 4.966 0 0 1 6.952-.995l.017.013a5.009 5.009 0 0 1 .981 7L206.696 103.1" stroke="#01133B" stroke-width="1.32" stroke-linecap="round" stroke-linejoin="round"/><path fill-rule="evenodd" clip-rule="evenodd" d="m179.701 81.45 2.536-20.763a4.853 4.853 0 0 1 5.446-4.225 4.936 4.936 0 0 1 4.255 5.498l-2.552 20.745" fill="#fff"/><path d="m179.701 81.45 2.536-20.763a4.853 4.853 0 0 1 5.446-4.225 4.936 4.936 0 0 1 4.255 5.498l-2.552 20.745" stroke="#01133B" stroke-width="1.32" stroke-linecap="round" stroke-linejoin="round"/><path fill-rule="evenodd" clip-rule="evenodd" d="m189.392 82.708 2.543-20.669a4.916 4.916 0 0 1 5.534-4.273 5.032 5.032 0 0 1 4.319 5.603L199.24 84.08" fill="#fff"/><path d="m189.392 82.708 2.543-20.669a4.916 4.916 0 0 1 5.534-4.273 5.032 5.032 0 0 1 4.319 5.603L199.24 84.08" stroke="#01133B" stroke-width="1.32" stroke-linecap="round" stroke-linejoin="round"/><path fill-rule="evenodd" clip-rule="evenodd" d="m199.251 84.083 2.521-20.5a5.17 5.17 0 0 1 5.756-4.502l.019.003a5.25 5.25 0 0 1 4.556 5.803l-4.949 43.598" fill="#fff"/><path d="m199.251 84.083 2.521-20.5a5.17 5.17 0 0 1 5.756-4.502l.019.003a5.25 5.25 0 0 1 4.556 5.803l-4.949 43.598" stroke="#01133B" stroke-width="1.32" stroke-linecap="round" stroke-linejoin="round"/><path fill-rule="evenodd" clip-rule="evenodd" d="M90.869 125.065 70.852 239.802l-67.848-37.65 54.206-72.017a15.405 15.405 0 0 1 13.094-6.123l20.565 1.053Z" fill="#EDEEF2" stroke="#01133B" stroke-width="1.32" stroke-linejoin="round"/><path fill-rule="evenodd" clip-rule="evenodd" d="m80.172 124.584 1.984 19.3-6.434 3.608a11.01 11.01 0 0 0-5.564 10.752l4.74 45.173" fill="#EDEEF2"/><path d="m80.172 124.584 1.984 19.3-6.434 3.608a11.01 11.01 0 0 0-5.564 10.752l4.74 45.173" stroke="#01133B" stroke-width="1.32" stroke-linejoin="round"/><path d="m64.098 176.052-3.955 12.273" stroke="#01133B" stroke-width="1.32" stroke-linecap="round" stroke-linejoin="round"/><path fill-rule="evenodd" clip-rule="evenodd" d="m120.542 127.865-5.206 92.164a23.75 23.75 0 0 0 10.445 21.042l10.221 6.881 2.689-71.894 34.984 4.592c13.92 1.827 26.775-7.754 29.012-21.623l8.817-54.666-47.7-7.624-4.203 37.854-39.059-6.726Z" fill="#EDEEF2" stroke="#01133B" stroke-width="1.32" stroke-linejoin="round"/><path d="m138.634 163.511-.005 13.764M131.172 129.798l-7.119 17.168 7.931 9.619a10.124 10.124 0 0 1 1.508 10.389l-17.708 41.79" stroke="#01133B" stroke-width="1.32" stroke-linecap="round" stroke-linejoin="round"/><path fill-rule="evenodd" clip-rule="evenodd" d="m161.998 95.739-2.74 16.541 52.498 14.245 1.392-22.15-51.15-8.636Z" fill="#EDEEF2" stroke="#01133B" stroke-width="1.32" stroke-linejoin="round"/><path fill-rule="evenodd" clip-rule="evenodd" d="m161.871 114.292 45.611 13.843.637-2.326-46.248-12.73v1.213Z" fill="#01133B"/><path d="m89.908 131.118 14.951 17.695 15.243-14.453" stroke="#01133B" stroke-width="1.32" stroke-linecap="round" stroke-linejoin="round"/><path fill-rule="evenodd" clip-rule="evenodd" d="m98.1 126.717 2.515-17.868 16.37 2.298-2.514 17.868" fill="#fff"/><path d="m98.1 126.717 2.515-17.868 16.37 2.298-2.514 17.868" stroke="#01133B" stroke-width="1.378" stroke-linecap="round" stroke-linejoin="round"/><mask id="h" style="mask-type:alpha" maskUnits="userSpaceOnUse" x="98" y="108" width="19" height="27"><path d="m100.617 108.849 16.369 2.297-2.344 16.652c-.637 4.522-4.817 7.674-9.337 7.04-4.52-.634-7.669-4.815-7.032-9.337l2.344-16.652Z" fill="#fff"/></mask><g mask="url(#h)"><path d="M114.002 120.059c10.212 1.433 19.569-5.074 20.9-14.533 1.332-9.46-5.867-18.29-16.079-19.722-10.211-1.434-19.569 5.073-20.9 14.532-1.331 9.459 5.868 18.289 16.079 19.723Z" fill="#01133B"/></g><path fill-rule="evenodd" clip-rule="evenodd" d="M113.915 74.993c7.989 1.12 13.553 8.509 12.429 16.501-.026.184-.056.368-.089.551l-1.07 5.95c-1.434 7.968-8.906 13.381-16.92 12.257-7.927-1.113-13.449-8.444-12.333-16.374l.84-5.96c1.168-8.303 8.843-14.09 17.143-12.925Z" fill="#01133B"/><path fill-rule="evenodd" clip-rule="evenodd" d="m124.477 94.298-1.342 9.533c-1.019 7.24-7.711 12.285-14.947 11.27-7.236-1.016-12.276-7.708-11.258-14.948l1.342-9.533c1.019-7.24 7.711-12.285 14.947-11.27 7.236 1.016 12.277 7.708 11.258 14.948Z" fill="#fff" stroke="#01133B" stroke-width="1.32" stroke-linecap="round" stroke-linejoin="round"/><path fill-rule="evenodd" clip-rule="evenodd" d="M104.427 77.373c-3.447-2.805-6.363-1.963-8.75 2.525-1.762 3.312-2.632 9.547-.006 20.348.11.448 1.41-4.869 1.818-5.253 3.089-2.913 5.507-6.33 7.254-10.252 1.978-4.44 1.872-6.895-.316-7.368Z" fill="#01133B"/><path fill-rule="evenodd" clip-rule="evenodd" d="m97.628 95.258-1.489-.448a3.18 3.18 0 0 0-4.093 2.936 6.03 6.03 0 0 0 3.644 5.752l.734.315 1.204-8.555Z" fill="#fff" stroke="#01133B" stroke-width="1.32" stroke-linecap="round" stroke-linejoin="round"/><path d="m95.48 97.58-.375 2.664M95.244 99.254l-1.104-1.18M112.07 99.442l.066 3.436-1.888.057" stroke="#01133B" stroke-width="1.32" stroke-linecap="round" stroke-linejoin="round"/><path d="M103.218 97.173c1.426.2 2.675-.302 2.79-1.121.115-.82-.947-1.646-2.372-1.846-1.426-.2-2.675.302-2.79 1.121-.116.82.947 1.645 2.372 1.846Z" stroke="#01133B" stroke-width=".802" stroke-linecap="round" stroke-linejoin="round"/><path d="M103.218 97.172c.855.12 1.642-.446 1.757-1.266.116-.819-.484-1.58-1.34-1.7-.855-.12-1.642.447-1.757 1.266-.115.819.485 1.58 1.34 1.7Z" fill="#01133B"/><path d="M117.516 99.182c1.425.2 2.675-.302 2.79-1.12.115-.82-.947-1.646-2.373-1.846-1.425-.2-2.674.302-2.789 1.12-.116.82.946 1.646 2.372 1.846Z" stroke="#01133B" stroke-width=".802" stroke-linecap="round" stroke-linejoin="round"/><path d="M117.516 99.182c.855.12 1.642-.447 1.757-1.266.115-.819-.484-1.58-1.34-1.7-.855-.12-1.642.447-1.757 1.266-.115.819.485 1.58 1.34 1.7Z" fill="#01133B"/><path fill-rule="evenodd" clip-rule="evenodd" d="M108.772 77.926c10.503-.966 18.107.554 22.811 4.56 7.057 6.01-1.699 18.601-18.15 11.775-10.968-4.55-12.522-9.996-4.661-16.335Z" fill="#01133B"/><path fill-rule="evenodd" clip-rule="evenodd" d="M101.017 79.142c1.564-3.802 14.211-8.683 20.091-5.804 3.919 1.92 2.072 6.412-5.543 13.476-10.741-2.58-15.59-5.137-14.548-7.672Z" fill="#01133B"/><mask id="i" style="mask-type:alpha" maskUnits="userSpaceOnUse" x="104" y="104" width="10" height="7"><path d="m104.48 104.629 8.931 3.148c-1.539 2.788-3.568 3.727-6.085 2.817-2.518-.909-3.467-2.898-2.846-5.965Z" fill="#fff"/></mask><g mask="url(#i)"><path d="m104.48 104.629 8.931 3.149c-1.539 2.787-3.567 3.726-6.085 2.816-2.518-.909-3.466-2.898-2.846-5.965Z" fill="#fff" stroke="#01133B" stroke-linecap="round" stroke-linejoin="round"/><path d="M107.064 112.407c2.646.371 4.943-.401 5.13-1.726.186-1.324-1.808-2.699-4.455-3.07-2.646-.371-4.943.402-5.13 1.726-.186 1.324 1.808 2.699 4.455 3.07Z" fill="#01133B"/></g></g><path d="M226.512 53.318c3.868-6.507 8.081-9.425 12.638-8.755 6.836 1.006-.401 9.857-3.751 6.008-3.35-3.849-.251-11.589 5.18-14.444 5.431-2.856 8.933-4.583 8.933-8.809M196.512 46.318c.463-8.381 4.463-14.714 12-19M137 48c.153 7.671 4.192 10.8 12.118 9.386C157.043 55.972 162.004 58.843 164 66" stroke="#01133B" stroke-width="4.4" stroke-linejoin="round"/></g><defs><clipPath id="a"><path fill="#fff" d="M0 0h400v300H0z"/></clipPath></defs></svg>