<svg viewBox="0 0 400 300" fill="none" xmlns="http://www.w3.org/2000/svg"><mask id="a" style="mask-type:alpha" maskUnits="userSpaceOnUse" x="45" y="44" width="312" height="219"><path d="M232.034 64.487c64.374 33.01 82.757 11.315 111.71 55.296 28.953 43.982 9.225 126.175-51.611 139.651-60.837 13.476-71.744-19.705-154.308-5.311-82.563 14.394-124.443-111.199-62.707-163.57 61.737-52.37 92.543-59.076 156.916-26.066Z" fill="#fff"/></mask><g mask="url(#a)"><path d="M232.034 64.487c64.374 33.01 82.757 11.315 111.71 55.296 28.953 43.982 9.225 126.175-51.611 139.651-60.837 13.476-71.744-19.705-154.308-5.311-82.563 14.394-124.443-111.199-62.707-163.57 61.737-52.37 92.543-59.076 156.916-26.066Z" fill="#F2F5FF"/><path d="M167.66-.68c4.709 61.157 26.621 98.179 65.736 111.065 39.115 12.887 92.264-5.624 159.446-55.532" stroke="#fff" stroke-width="1.32"/><path d="M190.806-.68c10.425 71.899-12.989 109.045-70.24 111.44-85.877 3.592-23.833-61.625 5.464-35.627 29.297 25.997 26.912 82.29-18.8 120.872-30.475 25.722-65.197 38.583-104.166 38.583M367.769 196.825c-126.911-8.2-227.579 36.992-302.004 135.576" stroke="#fff" stroke-width="1.32"/><path d="M34.69 195.88c83.247 22.315 136.916 67.822 161.006 136.521" stroke="#fff" stroke-width="1.32"/><path d="M367.769 116.954c-56.17 56.07-95.379 72.372-117.628 48.906-33.374-35.198 30.373-62.916 39.776-31.458 9.403 31.458-40.867 56.424-107.796 67.528-44.619 7.403-97.417 39.787-158.394 97.153M285.263 59.825c22.615 0 40.948-25.72 40.948-57.449 0-31.728-18.333-57.448-40.948-57.448-22.614 0-40.947 25.72-40.947 57.448s18.333 57.45 40.947 57.45ZM243.702 332.401c-8.255-49.008 2.541-75.296 32.387-78.863 29.847-3.567 63.033 9.577 99.558 39.431" stroke="#fff" stroke-width="1.32"/><path d="M367.769 153.387c-53.17 51.837-75.987 114.683-68.449 188.538" stroke="#fff" stroke-width="1.32"/><path d="M34.69 126.345c131.324 26.534 234.376 98.394 309.154 215.58" stroke="#fff" stroke-width="1.32"/><path d="M82.93-.68C42.79 7.534 27.95 24.662 38.408 50.705c15.687 39.064 73.496 112.935-3.718 125.747M34.69 264.141c31.256 46.589 64.377 58.237 99.361 34.942 52.477-34.942 70.27-42.196 92.141-34.942 14.581 4.835 27.841 27.589 39.778 68.26" stroke="#fff" stroke-width="1.32"/><path d="M358.792 205.358H45.072v62.48h313.72v-62.48Z" fill="#F2F5FF"/><path d="M17.792 205.021h382.8" stroke="#01133B" stroke-width="1.294" stroke-linecap="round" stroke-linejoin="round"/></g><mask id="b" style="mask-type:alpha" maskUnits="userSpaceOnUse" x="96" y="102" width="33" height="42"><path d="m96.2 110.384 17.721-7.887 14.738 33.094-17.72 7.887L96.2 110.384Z" fill="#fff"/></mask><g mask="url(#b)"><path d="m96.2 110.384 17.721-7.888 14.738 33.094-17.721 7.888L96.2 110.384Z" fill="#fff" stroke="#01133B" stroke-width="1.384" stroke-linecap="round" stroke-linejoin="round"/><path d="M121.299 116.035c11.054-4.921 16.319-17.21 11.758-27.45-4.56-10.24-17.218-14.553-28.273-9.632-11.054 4.92-16.319 17.21-11.758 27.45 4.56 10.24 17.218 14.552 28.273 9.632Z" fill="#01133B"/></g><path d="m216.98 175.79.442 25.005 42.988-.742-.441-25.005-42.989.742Z" fill="#fff"/><path fill-rule="evenodd" clip-rule="evenodd" d="m244.433 186.615 12.697.271v1.424l-3.263-.001a6.944 6.944 0 0 0-6.947 6.944v.017a6.983 6.983 0 0 0 6.983 6.963l4.809.001c6.502.001 11.773-5.267 11.771-11.767v-3.977c-.002-8.697-7.056-15.748-15.756-15.749h-.001l-45.166-.009" fill="#fff"/><path d="m244.433 186.615 12.697.271v1.424l-3.263-.001a6.944 6.944 0 0 0-6.947 6.944v.017a6.983 6.983 0 0 0 6.983 6.963l4.809.001c6.502.001 11.773-5.267 11.771-11.767v-3.977c-.002-8.697-7.056-15.748-15.756-15.749h-.001l-45.166-.009" stroke="#01133B" stroke-width="1.384" stroke-linecap="round" stroke-linejoin="round"/><path fill-rule="evenodd" clip-rule="evenodd" d="m244.433 186.615 12.697.271v1.424l-3.263-.001a6.944 6.944 0 0 0-6.947 6.944v.017a6.983 6.983 0 0 0 6.983 6.963l4.809.001c6.502.001 11.773-5.267 11.771-11.767v-3.977c-.002-8.697-7.056-15.748-15.756-15.749h-.001l-45.166-.009" fill="#fff"/><path d="m244.433 186.615 12.697.271v1.424l-3.263-.001a6.944 6.944 0 0 0-6.947 6.944v.017a6.983 6.983 0 0 0 6.983 6.963l4.809.001c6.502.001 11.773-5.267 11.771-11.767v-3.977c-.002-8.697-7.056-15.748-15.756-15.749h-.001l-45.166-.009" stroke="#01133B" stroke-width="1.384" stroke-linecap="round" stroke-linejoin="round"/><path fill-rule="evenodd" clip-rule="evenodd" d="m211.692 207.182 35.242.006a6.91 6.91 0 0 0 6.913-6.789 6.678 6.678 0 0 0-6.562-6.791l-.117-.001-16.475-.003" fill="#fff"/><path d="m211.692 207.182 35.242.006a6.91 6.91 0 0 0 6.913-6.789 6.678 6.678 0 0 0-6.562-6.791l-.117-.001-16.475-.003" stroke="#01133B" stroke-width="1.32" stroke-linecap="round" stroke-linejoin="round"/><path fill-rule="evenodd" clip-rule="evenodd" d="M111.644 127.635a26.07 26.07 0 0 1 30.014 5.353l31.167 32.145 48.393-.835.788 44.624-73.124 1.262a33.892 33.892 0 0 1-31.867-20.862l-15.075-36.194c-4.052-9.73.21-20.928 9.704-25.493Z" fill="#EDEEF2" stroke="#01133B" stroke-width="1.32" stroke-linejoin="round"/><path d="m180.306 165.053-22.276.957-14.147-20.766" stroke="#01133B" stroke-width="1.32" stroke-linecap="round" stroke-linejoin="round"/><path d="M115.144 126.335a24.777 24.777 0 0 1 26.654 11.458l1.767 2.95 3.974.655a18.944 18.944 0 0 0 7.133 14.088l12.672 10.087" stroke="#01133B" stroke-width="1.32" stroke-linecap="round" stroke-linejoin="round"/><path fill-rule="evenodd" clip-rule="evenodd" d="m207.401 160.142 14.767 1.31.884 50.123-16.964 1.601 1.313-53.034Z" fill="#EDEEF2" stroke="#01133B" stroke-width="1.32" stroke-linejoin="round"/><path fill-rule="evenodd" clip-rule="evenodd" d="m223.527 170.865 1.443 35.981-1.994.034-.634-35.995 1.185-.02ZM89.904 72.704c9.088-4.045 19.738.046 23.788 9.138.098.22.192.444.281.668l1.941 4.878c3.702 9.3-.595 19.862-9.736 23.931-9.036 4.022-19.625-.046-23.65-9.086l-2.123-4.765c-4.215-9.466.037-20.553 9.499-24.764Z" fill="#01133B"/><path fill-rule="evenodd" clip-rule="evenodd" d="m115.689 83.888 4.602 10.334c3.489 7.834-.031 17.009-7.861 20.495-7.83 3.485-17.005-.04-20.494-7.873l-4.602-10.335c-3.489-7.833.03-17.009 7.86-20.494 7.831-3.485 17.006.04 20.495 7.873Z" fill="#fff" stroke="#01133B" stroke-width="1.412" stroke-linecap="round" stroke-linejoin="round"/><path fill-rule="evenodd" clip-rule="evenodd" d="m116.752 89.604 2.792 1.463 1.513 1.488-1.248 3.914-3.04-3.427-.017-3.438Z" fill="#fff"/><path d="M117.073 104.905a5.28 5.28 0 0 1-6.969-2.678" stroke="#01133B" stroke-width="1.412" stroke-linecap="round" stroke-linejoin="round"/><path fill-rule="evenodd" clip-rule="evenodd" d="M87.91 77.61c-4.884-.42-7.263 2.231-7.139 7.95.098 4.528 1.948 12.565 11.281 21.68.387.379-.252-7.15-.085-7.785 1.262-4.82 1.542-9.723.841-14.711-.793-5.647-2.426-8.025-4.898-7.135Z" fill="#01133B"/><path fill-rule="evenodd" clip-rule="evenodd" d="M82.417 77.309c-2.416-.255-8.267 1.122-8.08 9.7.098 4.529 3.35 15.447 13.28 21.808.379.242-2.252-7.277-2.085-7.913 1.262-4.819 1.542-9.723.841-14.711-1.19-8.47-1.54-8.63-3.956-8.884Z" fill="#01133B"/><path fill-rule="evenodd" clip-rule="evenodd" d="m91.74 98.452-1.76.48a3.73 3.73 0 0 0-2.247 5.465 7.082 7.082 0 0 0 7.206 3.459l.927-.142" fill="#fff"/><path d="m91.74 98.452-1.76.48a3.73 3.73 0 0 0-2.247 5.465 7.082 7.082 0 0 0 7.206 3.459l.927-.142M91.048 102.098l1.284 2.884M91.855 103.911l-1.833-.488" stroke="#01133B" stroke-width="1.412" stroke-linecap="round" stroke-linejoin="round"/><path fill-rule="evenodd" clip-rule="evenodd" d="m118.246 89.814 4.9 4.426-2.681 2.87" fill="#fff"/><path d="m118.246 89.814 4.9 4.426-2.681 2.87" stroke="#01133B" stroke-width="1.412" stroke-linecap="round" stroke-linejoin="round"/><path d="M111.957 93.72c1.543-.687 2.474-1.963 2.079-2.85s-1.966-1.049-3.509-.362c-1.543.687-2.474 1.963-2.079 2.85.395.886 1.966 1.048 3.509.361Z" stroke="#01133B" stroke-width=".941" stroke-linecap="round" stroke-linejoin="round"/><path d="M111.957 93.72c.926-.413 1.356-1.466.961-2.352-.394-.887-1.465-1.272-2.391-.86-.926.412-1.356 1.465-.961 2.352.394.887 1.465 1.271 2.391.86Z" fill="#01133B"/><path fill-rule="evenodd" clip-rule="evenodd" d="M88.178 76.704c9.852-7.49 18.365-10.703 25.54-9.64 10.761 1.594 9.88 19.565-10.739 22.997-13.746 2.288-18.68-2.164-14.801-13.357Z" fill="#01133B"/><path fill-rule="evenodd" clip-rule="evenodd" d="M80.731 82.46c-.809-4.757 10.551-19.856 19.563-19.893 6.008-.025 6.964 5.593 2.868 16.854-14.415 5.196-21.891 6.209-22.43 3.038ZM58.552 83.271l2.39-1.014c4.932-2.094 10.628.207 12.722 5.14l49.739 117.178-23.678.523L53.413 95.993c-2.094-4.933.207-10.628 5.14-12.722Z" fill="#01133B"/><path d="M291.196 140.318v64.335M334.531 140.318v64.335M286.512 143.953h52.347" stroke="#436FFF" stroke-width="1.384" stroke-linecap="round" stroke-linejoin="round"/><path d="M298.976 143.92v33.895" stroke="#436FFF" stroke-width=".97" stroke-linecap="round" stroke-linejoin="round"/><path d="M298.976 185.963a4.205 4.205 0 1 0-.001-8.41 4.205 4.205 0 0 0 .001 8.41Z" fill="#436FFF"/><path d="M308.031 143.92v33.895" stroke="#436FFF" stroke-width=".97" stroke-linecap="round" stroke-linejoin="round"/><path d="M308.031 185.963a4.205 4.205 0 1 0-.001-8.41 4.205 4.205 0 0 0 .001 8.41Z" fill="#436FFF"/><path d="M317.086 143.92v33.895" stroke="#436FFF" stroke-width=".97" stroke-linecap="round" stroke-linejoin="round"/><path d="M317.086 185.963a4.205 4.205 0 1 0-.001-8.41 4.205 4.205 0 0 0 .001 8.41Z" fill="#436FFF"/><path d="M326.141 143.92v33.895" stroke="#436FFF" stroke-width=".97" stroke-linecap="round" stroke-linejoin="round"/><path d="M326.141 185.963a4.205 4.205 0 1 0 0-8.41 4.205 4.205 0 0 0 0 8.41Z" fill="#436FFF"/></svg>