<svg viewBox="0 0 400 300" fill="none" xmlns="http://www.w3.org/2000/svg"><mask id="a" style="mask-type:alpha" maskUnits="userSpaceOnUse" x="23" y="67" width="312" height="218"><path d="M209.75 87.334c64.213 32.9 82.551 11.276 111.431 55.112 28.881 43.836 9.203 125.756-51.482 139.187-60.686 13.432-71.565-19.639-153.923-5.293S-8.357 165.51 53.226 113.314c61.582-52.196 92.312-58.88 156.524-25.98Z" fill="#fff"/></mask><g mask="url(#a)"><path d="M209.75 87.334c64.213 32.9 82.551 11.276 111.431 55.112 28.881 43.836 9.203 125.756-51.482 139.187-60.686 13.432-71.565-19.639-153.923-5.293S-8.357 165.51 53.226 113.314c61.582-52.196 92.312-58.88 156.524-25.98Z" fill="#F2F5FF"/><path d="M145.537 22.384c4.697 60.954 26.554 97.852 65.572 110.696 39.017 12.844 92.033-5.605 159.048-55.348" stroke="#fff" stroke-width="1.32"/><path d="M168.625 22.384c10.398 71.66-12.957 108.683-70.065 111.069-85.663 3.581-23.774-61.42 5.45-35.509 29.225 25.911 26.845 82.017-18.753 120.472-30.4 25.636-65.034 38.454-103.906 38.454M345.147 219.232c-126.595-8.173-227.013 36.869-301.252 135.125" stroke="#fff" stroke-width="1.32"/><path d="M12.898 218.291c83.04 22.24 136.574 67.596 160.604 136.066" stroke="#fff" stroke-width="1.32"/><path d="M345.147 139.627c-56.03 55.884-95.142 72.132-117.336 48.744-33.29-35.082 30.298-62.707 39.678-31.354 9.379 31.354-40.766 56.237-107.528 67.304-44.507 7.378-97.174 39.655-157.999 96.829M262.847 82.688c22.558 0 40.845-25.636 40.845-57.258 0-31.623-18.287-57.258-40.845-57.258-22.559 0-40.846 25.635-40.846 57.258 0 31.622 18.287 57.258 40.846 57.258ZM221.389 354.358c-8.235-48.846 2.534-75.046 32.307-78.601 29.772-3.556 62.875 9.545 99.308 39.3" stroke="#fff" stroke-width="1.32"/><path d="M345.147 175.938c-53.038 51.666-75.798 114.303-68.279 187.912" stroke="#fff" stroke-width="1.32"/><path d="M12.898 148.986c130.997 26.446 233.791 98.067 308.383 214.864" stroke="#fff" stroke-width="1.32"/><path d="M61.018 22.384C20.978 30.57 6.175 47.641 16.607 73.597c15.647 38.934 73.312 112.559-3.71 125.329M12.898 286.324c31.178 46.435 64.216 58.044 99.113 34.826 52.347-34.826 70.095-42.056 91.912-34.826 14.545 4.82 27.771 27.497 39.678 68.033" stroke="#fff" stroke-width="1.32"/></g><mask id="b" style="mask-type:alpha" maskUnits="userSpaceOnUse" x="23" y="13" width="353" height="273"><path d="M368.756 36.512c28.952 43.981-37.786 232.684-98.623 246.16-60.837 13.476-71.744-19.705-154.308-5.311-53.769 9.374-90.283-40.623-92.16-91.102-1.006-27.032 35.857-117.352 57.389-135.617 47.788-30.724 258.749-58.112 287.702-14.13Z" fill="#fff"/></mask><g mask="url(#b)"><mask id="c" style="mask-type:alpha" maskUnits="userSpaceOnUse" x="40" y="112" width="220" height="200"><path d="M152.848 130.269c-11.212 48.468-18.254 81.241-21.126 98.32-.644 3.824-1.44 8.947-2.39 15.37a9.14 9.14 0 0 1-5.395 7.044c-3.935 1.713-7.177 2.827-9.727 3.342-15.756 3.183-34.427-.118-46.066-5.502-15.514-7.177-21.023 3.472-23.828 10.554-2.804 7.082-9.324 20.347 7.252 26.854 16.576 6.506 50.429 23.319 116.424 25.089 65.994 1.77 80.732-3.499 87.144-27.254 6.412-23.755 3.748-50.977 1.545-99.458-1.088-23.925-2.844-41.92-5.267-53.985a18.285 18.285 0 0 0-13.339-14.097c-9.646-2.5-21.388-3.75-35.226-3.75-14.011 0-26.203 1.281-36.574 3.844a18.284 18.284 0 0 0-13.427 13.629Z" fill="#fff"/></mask><g mask="url(#c)"><path d="M152.848 130.269c-11.212 48.468-18.254 81.241-21.126 98.32-.644 3.824-1.44 8.947-2.39 15.37a9.14 9.14 0 0 1-5.395 7.044c-3.935 1.713-7.177 2.827-9.727 3.342-15.756 3.183-34.427-.118-46.066-5.502-15.514-7.177-21.023 3.472-23.828 10.554-2.804 7.082-9.324 20.347 7.252 26.854 16.576 6.506 50.429 23.319 116.424 25.089 65.994 1.77 80.732-3.499 87.144-27.254 6.412-23.755 3.748-50.977 1.545-99.458-1.088-23.925-2.844-41.92-5.267-53.985a18.285 18.285 0 0 0-13.339-14.097c-9.646-2.5-21.388-3.75-35.226-3.75-14.011 0-26.203 1.281-36.574 3.844a18.284 18.284 0 0 0-13.427 13.629Z" fill="#01133B"/><path fill-rule="evenodd" clip-rule="evenodd" d="M248.895 124.426c-2.106-3.051-4.599-4.577-7.482-4.577-4.323 0-9.485 4.651-9.485 20.011s6.421 115.159-5.411 125.791c-11.832 10.633-32.21 4.135-45.171 1.624-12.961-2.512-21.129-1.624-36.019-1.624-14.89 0-64.115-9.059-75.725-16.584.248-8.066 8.775-28.808 25.58-62.225 24.877-39.894 37.316-60.699 37.316-62.416 0-1.716 16.832-8.832 50.496-21.346l67.307 5.783-1.406 15.563Z" fill="#01133B" stroke="#fff" stroke-width="1.32"/><path fill-rule="evenodd" clip-rule="evenodd" d="M51.568 286.251c33.112 10.682 58.349 16.023 75.711 16.023 13.729 0 25.257-.356 34.585-1.067a53.767 53.767 0 0 1 14.039.773c23.111 4.352 41.849 5.383 56.215 3.095 23.715-3.778 26.657-26.699 27.035-40.769 6.709-1.636 16.463 12.71 29.262 43.037l-63.49 14.571-130.888-1.411-60.974-21.526 18.505-12.726Z" fill="#3351E5"/></g><path clip-rule="evenodd" d="M335.254 115.534c.807-5.342 1.32-8.809 1.538-10.4.364-2.654.888-6.546 4.212-9.793 5.78-5.646 8.874-11.96 9.142-19.66.48-13.779-10.303-25.34-24.084-25.822-13.782-.483-25.343 10.297-25.823 24.075-.299 8.587 3.246 15.155 9.226 20.998 3.287 3.211 3.317 7.76 3.623 10.438.149 1.306.431 4.452.846 9.439a7.99 7.99 0 0 0 7.684 7.323l5.457.191a7.988 7.988 0 0 0 8.179-6.789Z" stroke="#01133B" stroke-width="1.32" stroke-linecap="round" stroke-linejoin="round"/><path d="m313.548 103.974 22.914.8M314.486 80.928l7.022 23.324M337.25 81.724l-8.627 22.775" stroke="#01133B" stroke-width="1.32" stroke-linecap="round" stroke-linejoin="round"/><path d="M314.488 80.927c3.26.544 7.871-1.103 8.047-6.154.176-5.051-2.387-7.056-4.389-6.524-2.002.533-4.395 3.235-1.196 8.055s12.097 6.082 16.614-1.145c4.517-7.227-1.861-12.181-5.643-7.583-3.782 4.598-3.383 15.016 9.331 14.147" stroke="#436FFF" stroke-width="2.64" stroke-linecap="round" stroke-linejoin="round"/><path d="m335.861 108.937-21.684 2.475M335.197 113.983l-20.747 2.368" stroke="#01133B" stroke-width="1.32" stroke-linecap="round" stroke-linejoin="round"/><path fill-rule="evenodd" clip-rule="evenodd" d="M324.096 43.423c3.157.11 6.219-14.192 6.329-17.363.111-3.17-2.36-5.83-5.517-5.941-3.158-.11-5.807 2.37-5.918 5.541-.11 3.171 1.948 17.653 5.106 17.763ZM298.118 54.784c2.42-2.03-4.877-14.71-6.917-17.14-2.039-2.431-5.655-2.756-8.074-.726-2.42 2.03-2.728 5.647-.688 8.078 2.039 2.431 13.259 11.818 15.679 9.788ZM350.629 54.238c-2.273-2.195 5.888-14.333 8.092-16.615 2.204-2.282 5.833-2.353 8.106-.159 2.273 2.195 2.328 5.824.124 8.107-2.204 2.282-14.049 10.861-16.322 8.667Z" fill="#436FFF"/><path fill-rule="evenodd" clip-rule="evenodd" d="M195.051 255.687c2.228-11.456-5.07-22.602-16.458-25.138L77.48 208.03c-12.08-2.69-24.055 4.924-26.747 17.006-.04.18-.077.36-.113.541-2.447 12.416 5.632 24.464 18.046 26.909l.057.011 101.75 19.773c11.364 2.208 22.368-5.216 24.578-16.583Z" fill="#fff" stroke="#01133B" stroke-width="1.32" stroke-linecap="round" stroke-linejoin="round"/><path fill-rule="evenodd" clip-rule="evenodd" d="m210.059 241.005-1.921 16.351c-1.879 15.994-16.211 27.545-32.237 25.982l-85.871-8.375-39.581 88.9c-4.251 9.547-15.435 13.841-24.982 9.591-9.546-4.25-13.838-15.435-9.588-24.982l44.26-103.824a17.425 17.425 0 0 1 15.566-10.587l85.564-2.271 48.79 9.215Z" fill="#fff" stroke="#01133B" stroke-width="1.32" stroke-linecap="round" stroke-linejoin="round"/><path d="m195.78 239.212-3.57 15.284c-2.314 9.91-11.679 16.519-21.79 15.377l-91.983-10.386-26.213 58.639" stroke="#01133B" stroke-width="1.32" stroke-linecap="round" stroke-linejoin="round"/><path d="M190.147 258.275a19.925 19.925 0 0 1-14.446-19.91l.089-2.372" stroke="#01133B" stroke-width="1.32" stroke-linecap="round" stroke-linejoin="round"/><path d="M189.169 261.693c-10.03-2.889-16.763-12.288-16.273-22.719l.176-3.758" stroke="#01133B" stroke-width=".528" stroke-linecap="round" stroke-linejoin="round" stroke-dasharray="1.58 1.58"/><path fill-rule="evenodd" clip-rule="evenodd" d="M76.289 207.879c-12.813-2.143-24.935 6.509-27.075 19.323a23.533 23.533 0 0 0-.28 5.269l7.472 126.04 40.384-2.638-4.825-123.294" fill="#fff"/><path d="M76.289 207.879c-12.813-2.143-24.935 6.509-27.075 19.323a23.533 23.533 0 0 0-.28 5.269l7.472 126.04 40.384-2.638-4.825-123.294" stroke="#01133B" stroke-width="1.32" stroke-linecap="round" stroke-linejoin="round"/><path d="m111.285 232.579-31.31-8.253a7.39 7.39 0 0 0-9.265 7.507l3.876 79.557" stroke="#01133B" stroke-width="1.32" stroke-linecap="round" stroke-linejoin="round"/><path fill-rule="evenodd" clip-rule="evenodd" d="m283.397 146.06-25.876 72.302c-2.341 9.034-19.69 12.916-28.723 10.576-5.549-1.438-9.67-5.498-12.109-11.016l-2.087-5.052-4.546 28.145-60.323-11.257-5.776-8.233-20.373-10.514c-8.167-3.135-19.215-39.018-16.08-47.186l25.963-31.341a14.08 14.08 0 0 1 11.526-5.081l44.008 2.138 30.364 6.659a14.075 14.075 0 0 1 7.021 3.878l11.459 11.65 10.302-31.964" fill="#fff"/><path d="m283.397 146.06-25.876 72.302c-2.341 9.034-19.69 12.916-28.723 10.576-5.549-1.438-9.67-5.498-12.109-11.016l-2.087-5.052-4.546 28.145-60.323-11.257-5.776-8.233-20.373-10.514c-8.167-3.135-19.215-39.018-16.08-47.186l25.963-31.341a14.08 14.08 0 0 1 11.526-5.081l44.008 2.138 30.364 6.659a14.075 14.075 0 0 1 7.021 3.878l11.459 11.65 10.302-31.964M214.426 214.271l4.531-29.396" stroke="#01133B" stroke-width="1.32" stroke-linecap="round" stroke-linejoin="round"/><path d="m173.101 136.082 11.43 16.815 20.383-11.697" stroke="#01133B" stroke-width="1.32" stroke-linecap="round" stroke-linejoin="round"/><path fill-rule="evenodd" clip-rule="evenodd" d="m244.434 136.679 38.229 9.704 12.489-34.316-38.454-13.997-12.264 38.609Z" fill="#fff"/><path fill-rule="evenodd" clip-rule="evenodd" d="m283.119 146.933 26.019-69.29a6.234 6.234 0 0 0-3.645-8.027l-.059-.022a6.57 6.57 0 0 0-8.32 3.666l-13.996 33.911" fill="#fff"/><path d="m283.119 146.933 26.019-69.29a6.234 6.234 0 0 0-3.645-8.027l-.059-.022a6.57 6.57 0 0 0-8.32 3.666l-13.996 33.911" stroke="#01133B" stroke-width="1.32" stroke-linecap="round" stroke-linejoin="round"/><path fill-rule="evenodd" clip-rule="evenodd" d="m289.736 129.422 3.915-10.254c3.436-8.997-.802-19.107-9.628-22.964l-23.144-10.116a5.534 5.534 0 0 0-7.155 2.573 5.042 5.042 0 0 0 2.391 6.856l19.291 8.885" fill="#fff"/><path d="m289.736 129.422 3.915-10.254c3.436-8.997-.802-19.107-9.628-22.964l-23.144-10.116a5.534 5.534 0 0 0-7.155 2.573 5.042 5.042 0 0 0 2.391 6.856l19.291 8.885" stroke="#01133B" stroke-width="1.32" stroke-linecap="round" stroke-linejoin="round"/><path fill-rule="evenodd" clip-rule="evenodd" d="m275.407 104.402-19.375-8.922a5.259 5.259 0 0 0-6.925 2.468 5.008 5.008 0 0 0 2.42 6.754l19.993 9.132" fill="#fff"/><path d="m275.407 104.402-19.375-8.922a5.259 5.259 0 0 0-6.925 2.468 5.008 5.008 0 0 0 2.42 6.754l19.993 9.132" stroke="#01133B" stroke-width="1.32" stroke-linecap="round" stroke-linejoin="round"/><path fill-rule="evenodd" clip-rule="evenodd" d="m271.52 113.835-20.064-9.165a5.046 5.046 0 0 0-6.687 2.493l-.007.015a5.079 5.079 0 0 0 2.516 6.715l20.064 9.164" fill="#fff"/><path d="m271.52 113.835-20.064-9.165a5.046 5.046 0 0 0-6.687 2.493l-.007.015a5.079 5.079 0 0 0 2.516 6.715l20.064 9.164" stroke="#01133B" stroke-width="1.32" stroke-linecap="round" stroke-linejoin="round"/><path fill-rule="evenodd" clip-rule="evenodd" d="m267.342 123.058-19.415-8.868a5.74 5.74 0 0 0-7.606 2.835l-.015.034-1.964 4.374a7.378 7.378 0 0 0 3.947 9.856l4.32 1.762a3.908 3.908 0 0 0 5.134-2.246 4.133 4.133 0 0 0-2.311-5.279l-2.222-.903" fill="#fff"/><path d="m267.342 123.058-19.415-8.868a5.74 5.74 0 0 0-7.606 2.835l-.015.034-1.964 4.374a7.378 7.378 0 0 0 3.947 9.856l4.32 1.762a3.908 3.908 0 0 0 5.134-2.246 4.133 4.133 0 0 0-2.311-5.279l-2.222-.903" stroke="#01133B" stroke-width="1.32" stroke-linecap="round" stroke-linejoin="round"/><path fill-rule="evenodd" clip-rule="evenodd" d="m198.97 133.358 2.88-20.481-18.735-2.631-2.88 20.481" fill="#fff"/><path d="m198.97 133.358 2.88-20.481-18.735-2.631-2.88 20.481" stroke="#01133B" stroke-width="1.32" stroke-linecap="round" stroke-linejoin="round"/><mask id="d" style="mask-type:alpha" maskUnits="userSpaceOnUse" x="180" y="110" width="22" height="30"><path d="m201.85 112.876-18.733-2.63-2.666 18.955c-.728 5.175 2.875 9.959 8.048 10.685 5.173.726 9.956-2.88 10.684-8.055l2.667-18.955Z" fill="#fff"/></mask><g mask="url(#d)"><path d="M196.78 122.302c-11.686-1.642-19.926-11.746-18.404-22.568 1.522-10.823 12.229-18.266 23.915-16.624 11.686 1.64 19.926 11.745 18.404 22.568-1.522 10.822-12.229 18.265-23.915 16.624Z" fill="#01133B"/></g><path fill-rule="evenodd" clip-rule="evenodd" d="m108.29 162.873-5.571 6.961a27.458 27.458 0 0 0-5.438 22.776l15.606 74.656a5.325 5.325 0 0 0 6.3 4.124l.097-.021a5.411 5.411 0 0 0 4.069-6.482l-.003-.012-5.42-23.468" fill="#fff"/><path d="m108.29 162.873-5.571 6.961a27.458 27.458 0 0 0-5.438 22.776l15.606 74.656a5.325 5.325 0 0 0 6.3 4.124l.097-.021a5.411 5.411 0 0 0 4.069-6.482l-.003-.012-5.42-23.468" stroke="#01133B" stroke-width="1.32" stroke-linecap="round" stroke-linejoin="round"/><path fill-rule="evenodd" clip-rule="evenodd" d="m145.316 231.552 5.694 6.423a5.212 5.212 0 0 0 7.551.262 5.772 5.772 0 0 0 .273-7.947l-14.5-16.356" fill="#fff"/><path d="m145.316 231.552 5.694 6.423a5.212 5.212 0 0 0 7.551.262 5.772 5.772 0 0 0 .273-7.947l-14.5-16.356" stroke="#01133B" stroke-width="1.32" stroke-linecap="round" stroke-linejoin="round"/><path fill-rule="evenodd" clip-rule="evenodd" d="m117.929 241.404 5.449 23.594a5.263 5.263 0 0 0 6.344 3.937 5.332 5.332 0 0 0 3.96-6.387l-5.451-23.601" fill="#fff"/><path d="m117.929 241.404 5.449 23.594a5.263 5.263 0 0 0 6.344 3.937 5.332 5.332 0 0 0 3.96-6.387l-5.451-23.601" stroke="#01133B" stroke-width="1.32" stroke-linecap="round" stroke-linejoin="round"/><path fill-rule="evenodd" clip-rule="evenodd" d="m128.234 238.945 5.429 23.508a5.325 5.325 0 0 0 6.384 3.991l.066-.016a5.461 5.461 0 0 0 4.024-6.534l-5.441-23.556" fill="#fff"/><path d="m128.234 238.945 5.429 23.508a5.325 5.325 0 0 0 6.384 3.991l.066-.016a5.461 5.461 0 0 0 4.024-6.534l-5.441-23.556" stroke="#01133B" stroke-width="1.32" stroke-linecap="round" stroke-linejoin="round"/><path fill-rule="evenodd" clip-rule="evenodd" d="m138.702 236.337 5.388 23.331a5.602 5.602 0 0 0 6.716 4.199l.021-.005a5.694 5.694 0 0 0 4.256-6.775l-14.909-67.305" fill="#fff"/><path d="m138.702 236.337 5.388 23.331a5.602 5.602 0 0 0 6.716 4.199l.021-.005a5.694 5.694 0 0 0 4.256-6.775l-14.909-67.305" stroke="#01133B" stroke-width="1.32" stroke-linecap="round" stroke-linejoin="round"/><path d="m98.554 186.51 37.051-7.198 10.502 53.996-37.051 7.197-10.502-53.995Z" fill="#fff"/><path fill-rule="evenodd" clip-rule="evenodd" d="m206.167 133.335-16.334 113.168a25.08 25.08 0 0 0 8.354 22.498l23.207 20.205 3.06-61.199c8.633 9.648 23.452 10.47 33.1 1.838a23.436 23.436 0 0 0 6.643-10.164l21.154-64.495-50.245-16.856v14.197l-.252-4.343a11.44 11.44 0 0 0-8.963-10.509l-19.724-4.34Z" fill="#EDEEF2" stroke="#01133B" stroke-width="1.32" stroke-linecap="round" stroke-linejoin="round"/><path d="m233.076 149.352-4.288 19.777M224.474 227.97l-6.968-6.713M218.957 136.082l-12.862 23.384 10.914 12.672a8.802 8.802 0 0 1 1.049 9.972l-25.703 46.903" stroke="#01133B" stroke-width="1.32" stroke-linecap="round" stroke-linejoin="round"/><path fill-rule="evenodd" clip-rule="evenodd" d="m230.932 136.082-5.201 17.206 58.463 24.866 4.222-22.968-57.484-19.104ZM152.516 214.608l-1.459-6.442 23.935-78.99-28.339-2.44a23.32 23.32 0 0 0-19.543 7.869l-27.715 31.644a31.241 31.241 0 0 0-7.318 25.7l6.154 37.064 54.285-14.405Z" fill="#EDEEF2" stroke="#01133B" stroke-width="1.32" stroke-linecap="round" stroke-linejoin="round"/><path d="m144.12 175.471 7.603 35.563" stroke="#01133B" stroke-width="1.32" stroke-linecap="round" stroke-linejoin="round"/><path fill-rule="evenodd" clip-rule="evenodd" d="m90.916 209.909 60.141-10.759 3.114 15.378-57.382 14.485-5.873-19.104Z" fill="#EDEEF2" stroke="#01133B" stroke-width="1.32" stroke-linecap="round" stroke-linejoin="round"/><path d="m162.009 127.735 1.162 24.218-12.245 5.172a8.8 8.8 0 0 0-5.373 8.358l.554 19.392" stroke="#01133B" stroke-width="1.32" stroke-linecap="round" stroke-linejoin="round"/><path fill-rule="evenodd" clip-rule="evenodd" d="m231.601 156.978 45.571 22.334 1.131-3.841-46.286-19.365-.416.872ZM104.577 227.464l.19 1.066 42.105-8.42-.765-3.513-41.53 10.867ZM197.889 71.444c-9.147-1.285-17.606 5.09-18.893 14.24-.029.211-.055.423-.077.635l-.698 6.86c-.939 9.222 5.576 17.535 14.753 18.824 9.077 1.275 17.471-5.052 18.748-14.13l.956-6.8c1.336-9.506-5.285-18.294-14.789-19.63Z" fill="#01133B"/><path fill-rule="evenodd" clip-rule="evenodd" d="m180.186 89.35-1.534 10.908c-1.165 8.283 4.605 15.941 12.886 17.104 8.282 1.163 15.94-4.609 17.105-12.892l1.534-10.908c1.164-8.283-4.605-15.941-12.887-17.104-8.281-1.163-15.939 4.609-17.104 12.892Z" fill="#fff" stroke="#01133B" stroke-width="1.32" stroke-linecap="round" stroke-linejoin="round"/><path d="M192.843 109.307a5.149 5.149 0 0 0 5.814-4.382" stroke="#01133B" stroke-width="1.32" stroke-linecap="round" stroke-linejoin="round"/><path fill-rule="evenodd" clip-rule="evenodd" d="M207.582 77.056c4.251-1.48 7.087.477 8.508 5.87 1.126 4.272.267 11.173-6.032 22.225-.262.458-.079-5.978-.406-6.53-2.478-4.177-4.06-8.698-4.744-13.562-.774-5.505.117-8.173 2.674-8.003Z" fill="#01133B"/><path fill-rule="evenodd" clip-rule="evenodd" d="m209.419 98.87 1.779-.023a3.636 3.636 0 0 1 3.576 4.519 6.908 6.908 0 0 1-5.826 5.179l-.906.115 1.377-9.79Z" fill="#fff" stroke="#01133B" stroke-width="1.32" stroke-linecap="round" stroke-linejoin="round"/><path d="m211.049 102.102-.429 3.048M210.779 104.019l1.586-.951M192.213 98.918l-1.158 3.758 2.059.658" stroke="#01133B" stroke-width="1.32" stroke-linecap="round" stroke-linejoin="round"/><path d="M202.664 99.213c-1.631-.229-2.847-1.174-2.715-2.112.132-.937 1.561-1.511 3.193-1.282 1.631.229 2.846 1.174 2.714 2.112-.131.937-1.561 1.511-3.192 1.282Z" stroke="#01133B" stroke-width=".918" stroke-linecap="round" stroke-linejoin="round"/><path d="M202.664 99.213c-.979-.138-1.665-1.009-1.533-1.946.132-.937 1.032-1.586 2.011-1.448.978.137 1.665 1.008 1.533 1.945-.132.938-1.032 1.586-2.011 1.449Z" fill="#01133B"/><path d="M186.304 96.914c-1.632-.23-2.847-1.175-2.715-2.112.132-.937 1.561-1.512 3.192-1.283 1.631.23 2.847 1.175 2.715 2.112-.132.938-1.561 1.512-3.192 1.283Z" stroke="#01133B" stroke-width=".918" stroke-linecap="round" stroke-linejoin="round"/><path d="M186.304 96.913c-.979-.137-1.666-1.008-1.534-1.945.132-.938 1.032-1.586 2.011-1.449.979.138 1.665 1.009 1.533 1.946-.131.937-1.032 1.586-2.01 1.448Z" fill="#01133B"/><path fill-rule="evenodd" clip-rule="evenodd" d="M202.63 76.29c-11.249-4.372-20.094-5.096-26.534-2.172-9.66 4.385-4.002 20.99 16.25 18.667 13.502-1.548 16.929-7.047 10.284-16.495Z" fill="#01133B"/><path fill-rule="evenodd" clip-rule="evenodd" d="M210.774 80.071c-.52-4.675-12.892-14.027-20.269-12.713-4.918.876-4.303 6.398 1.844 16.566 12.63.548 18.772-.736 18.425-3.853Z" fill="#01133B"/></g></svg>