<svg viewBox="0 0 400 300" fill="none" xmlns="http://www.w3.org/2000/svg"><mask id="a" style="mask-type:alpha" maskUnits="userSpaceOnUse" x="44" y="23" width="312" height="253"><path d="M230.97 46.478c63.513 37.906 101.638 44.633 118.403 95.102 16.766 50.469.917 113.282-59.108 128.757-60.024 15.474-61.654-10.182-152.247-6.099-90.593 4.083-122.781-127.691-61.87-187.827 60.913-60.137 91.308-67.838 154.822-29.933Z" fill="#fff"/></mask><g mask="url(#a)"><path d="M230.97 46.478c63.513 37.906 101.638 44.633 118.403 95.102 16.766 50.469.917 113.282-59.108 128.757-60.024 15.474-61.654-10.182-152.247-6.099-90.593 4.083-122.781-127.691-61.87-187.827 60.913-60.137 91.308-67.838 154.822-29.933Z" fill="#F2F5FF"/><path d="M176.091 7.039c5.238 68.023 29.611 109.201 73.118 123.535 43.507 14.334 102.623-6.255 177.349-61.768" stroke="#fff" stroke-width="1.32"/><path d="M201.836 7.039c11.595 79.97-14.447 121.288-78.127 123.952-95.52 3.995-26.51-68.545 6.077-39.628 32.588 28.917 29.935 91.53-20.911 134.445-33.897 28.61-72.517 42.915-115.862 42.915M398.67 226.72c-141.162-9.122-253.134 41.145-335.916 150.799" stroke="#fff" stroke-width="1.32"/><path d="M28.19 225.669c92.595 24.82 152.289 75.437 179.084 151.85" stroke="#fff" stroke-width="1.32"/><path d="M398.67 137.881c-62.477 62.366-106.09 80.498-130.837 54.398-37.121-39.151 33.784-69.981 44.243-34.991 10.459 34.991-45.456 62.76-119.9 75.111-49.629 8.234-108.356 44.254-176.18 108.061M93.326 7.039C152.524 35.79 228.927 48.78 322.534 46.012 416.142 43.242 482.331 32 521.099 12.286" stroke="#fff" stroke-width="1.32"/><path d="M306.899 74.337c25.154 0 45.546-28.609 45.546-63.9 0-35.29-20.392-63.899-45.546-63.899-25.153 0-45.545 28.609-45.545 63.9 0 35.29 20.392 63.899 45.545 63.899ZM398.67 178.404c-59.141 57.658-84.52 127.561-76.136 209.708" stroke="#fff" stroke-width="1.32"/><path d="M28.19 148.326c146.07 29.513 260.693 109.442 343.868 239.786" stroke="#fff" stroke-width="1.32"/><path d="M81.847 7.039C37.2 16.173 20.693 35.224 32.325 64.19c17.449 43.451 81.749 125.616-4.136 139.867" stroke="#fff" stroke-width="1.32"/></g><mask id="b" style="mask-type:alpha" maskUnits="userSpaceOnUse" x="45" y="23" width="312" height="253"><path d="M231.564 46.478c63.514 37.906 101.638 44.633 118.404 95.102 16.765 50.469.916 113.282-59.108 128.757-60.025 15.474-61.654-10.182-152.247-6.099-90.594 4.083-122.782-127.691-61.87-187.827 60.912-60.137 91.307-67.838 154.821-29.933Z" fill="#fff"/></mask><g mask="url(#b)"><path d="M181.628 233.556c46.782 0 84.707-37.924 84.707-84.707 0-46.782-37.925-84.706-84.707-84.706s-84.706 37.924-84.706 84.706c0 46.783 37.924 84.707 84.706 84.707Z" fill="#01133B"/><path d="M127.688 153.678a1 1 0 1 0 0-2 1 1 0 0 0 0 2ZM128.788 175.458a1 1 0 1 0 0-2 1 1 0 0 0 0 2ZM166.628 148.719a1.1 1.1 0 1 0-.001-2.201 1.1 1.1 0 0 0 .001 2.201ZM248.248 158.079a1 1 0 1 0 0-2 1 1 0 0 0 0 2ZM242.528 165.559a1 1 0 1 0 0-2 1 1 0 0 0 0 2ZM121.088 174.358a1 1 0 1 0 0-2 1 1 0 0 0 0 2ZM155.848 128.158a1 1 0 1 0 0-2 1 1 0 0 0 0 2ZM121.528 139.158a1 1 0 1 0 0-2 1 1 0 0 0 0 2ZM156.508 136.298a1 1 0 1 0 0-2 1 1 0 0 0 0 2ZM145.508 152.579a1 1 0 1 0 0-2 1 1 0 0 0 0 2ZM179.608 152.798a1 1 0 1 0 0-2 1 1 0 0 0 0 2ZM171.908 102.958a1.1 1.1 0 1 0 0-2.2 1.1 1.1 0 0 0 0 2.2ZM164.428 120.118a1.1 1.1 0 1 0 0-2.2 1.1 1.1 0 0 0 0 2.2ZM201.828 109.118a1.1 1.1 0 1 0 0-2.2 1.1 1.1 0 0 0 0 2.2ZM156.288 118.479a1 1 0 1 0 0-2 1 1 0 0 0 0 2ZM191.048 88.559a1 1 0 1 0 0-2 1 1 0 0 0 0 2ZM146.168 147.958a1 1 0 1 0 0-2 1 1 0 0 0 0 2ZM138.468 98.118a1.1 1.1 0 1 0 0-2.2 1.1 1.1 0 0 0 0 2.2ZM130.988 115.279a1.1 1.1 0 1 0-.001-2.201 1.1 1.1 0 0 0 .001 2.201ZM168.388 104.279a1.1 1.1 0 1 0-.001-2.201 1.1 1.1 0 0 0 .001 2.201ZM113.608 126.838a1 1 0 1 0 0-2 1 1 0 0 0 0 2ZM157.608 83.718a1 1 0 1 0 0-2 1 1 0 0 0 0 2ZM156.728 99.559a1 1 0 1 0 0-2 1 1 0 0 0 0 2ZM200.508 101.099a1 1 0 1 0 0-2 1 1 0 0 0 0 2ZM180.708 112.979a1 1 0 1 0 0-2 1 1 0 0 0 0 2ZM214.808 113.198a1 1 0 1 0 0-2 1 1 0 0 0 0 2Z" fill="#fff"/><path d="m252.246 212.475-9.372 9.372 22.129 22.13 9.373-9.373-22.13-22.129Z" fill="#3351E5"/><path fill-rule="evenodd" clip-rule="evenodd" d="m229.401 220.09 21.381-21.381 9.665 9.665a8.285 8.285 0 0 1 0 11.716l-9.665 9.665a8.285 8.285 0 0 1-11.716 0l-9.665-9.665Z" fill="#7494FE"/><path d="m268.421 229.755-7.974 7.973c-6.29 6.291-6.29 16.49 0 22.781l33.195 33.194c6.291 6.291 16.49 6.291 22.78 0l7.974-7.973c6.29-6.29 6.29-16.49 0-22.78l-33.195-33.195c-6.291-6.29-16.49-6.29-22.78 0Z" fill="#7494FE"/><path d="M240.091 209.399c33.08-33.08 33.08-86.713 0-119.793-33.08-33.08-86.713-33.08-119.793 0-33.08 33.08-33.08 86.713 0 119.793 33.08 33.08 86.713 33.08 119.793 0Z" stroke="#436FFF" stroke-width="20.711"/><mask id="c" style="mask-type:alpha" maskUnits="userSpaceOnUse" x="105" y="55" width="194" height="169"><path d="M180.152 223.958c41.19 0 74.58-33.39 74.58-74.58 0-13.858 49.485-57.837 42.9-68.955-12.986-21.927-85.017-24.985-112.348-24.985-41.19 0-79.712 52.751-79.712 93.94 0 41.19 33.391 74.58 74.58 74.58Z" fill="#fff"/></mask><g mask="url(#c)"><path fill-rule="evenodd" clip-rule="evenodd" d="M276.685 96.353a18.477 18.477 0 0 1-3.111 12.368l-38.223 56.027 10.095 20.7c-12.713 22.963-37.188 38.511-65.294 38.511a75.46 75.46 0 0 1-6.585-.287l-4.231-9.526-1.4 8.817c-14.32-2.36-27.264-8.798-37.601-18.082l2.315-23.838a17.597 17.597 0 0 1 9.244-13.834l39.914-21.259 26.507-23.113 24.461-21.209-58.904 1.331-.773-13.703 24.611-3.092 58.645-6.234c10.149-1.08 19.251 6.274 20.33 16.423Z" fill="#fff"/><path fill-rule="evenodd" clip-rule="evenodd" d="m173.148 152.417-8.428-19.85 18.123-7.69 8.427 19.849" fill="#fff"/><path d="m173.148 152.417-8.428-19.85 18.123-7.69 8.427 19.849" stroke="#01133B" stroke-width="1.32" stroke-linecap="round" stroke-linejoin="round"/><mask id="d" style="mask-type:alpha" maskUnits="userSpaceOnUse" x="164" y="124" width="27" height="32"><path d="m164.72 132.566 18.121-7.689 7.16 16.862c2.125 5.006-.208 10.786-5.212 12.909-5.004 2.124-10.784-.213-12.909-5.219l-7.16-16.863Z" fill="#fff"/></mask><g mask="url(#d)"><path d="M185.259 135.774c11.304-4.797 16.872-17.155 12.437-27.602-4.436-10.447-17.195-15.027-28.499-10.23-11.304 4.798-16.872 17.155-12.436 27.602 4.435 10.447 17.194 15.027 28.498 10.23Z" fill="#01133B"/></g><path d="m159.955 88.928-5.081 2.157c-7.701 3.267-11.292 12.161-8.021 19.864l4.734 11.151c3.271 7.703 12.164 11.298 19.864 8.03l5.081-2.156c7.7-3.268 11.291-12.161 8.021-19.864l-4.735-11.151c-3.27-7.703-12.163-11.298-19.863-8.03Z" fill="#01133B"/><path fill-rule="evenodd" clip-rule="evenodd" d="m182.1 107.646 1.725-1.067a3.65 3.65 0 0 1 5.41 2.041l.049.159a7.164 7.164 0 0 1-2.418 7.721l-.754.595-4.012-9.449Z" fill="#fff" stroke="#01133B" stroke-width="1.32" stroke-linecap="round" stroke-linejoin="round"/><path d="m185.284 109.648 1.249 2.942M186.069 111.497l.907-1.695" stroke="#01133B" stroke-width="1.32" stroke-linecap="round" stroke-linejoin="round"/><path fill-rule="evenodd" clip-rule="evenodd" d="m153.082 119.963-1.965.5a3.648 3.648 0 0 0-2.291 5.308l.081.146a7.166 7.166 0 0 0 7.235 3.625l.952-.129-4.012-9.45Z" fill="#fff" stroke="#01133B" stroke-width="1.32" stroke-linecap="round" stroke-linejoin="round"/><path d="m152.312 123.644 1.249 2.942M153.096 125.494l-1.849-.525" stroke="#01133B" stroke-width="1.32" stroke-linecap="round" stroke-linejoin="round"/><path fill-rule="evenodd" clip-rule="evenodd" d="m180.19 103.16 4.443 10.464c3.402 8.013-.334 17.266-8.344 20.665-8.011 3.4-17.263-.341-20.665-8.354l-4.443-10.464c-3.402-8.014.333-17.266 8.344-20.666 8.011-3.399 17.263.341 20.665 8.355Z" fill="#fff" stroke="#01133B" stroke-width="1.32" stroke-linecap="round" stroke-linejoin="round"/><path d="M173.322 126.343a5.35 5.35 0 0 0 2.841-7.012M167.999 117.096l.979 3.965 2.189-.517" stroke="#01133B" stroke-width="1.32" stroke-linecap="round" stroke-linejoin="round"/><path d="M160.233 119.082c1.578-.669 2.546-1.945 2.162-2.85-.384-.905-1.975-1.096-3.553-.426-1.578.67-2.545 1.946-2.161 2.851.384.904 1.974 1.095 3.552.425Z" stroke="#01133B" stroke-width=".73" stroke-linecap="round" stroke-linejoin="round"/><path d="M160.233 119.082c.947-.402 1.403-1.461 1.019-2.366-.384-.904-1.463-1.312-2.41-.91-.946.402-1.402 1.461-1.018 2.365.384.905 1.463 1.313 2.409.911Z" fill="#01133B"/><path d="M176.06 112.365c1.578-.67 2.546-1.946 2.162-2.851-.385-.905-1.975-1.095-3.553-.426-1.578.67-2.546 1.946-2.162 2.851.384.905 1.975 1.095 3.553.426Z" stroke="#01133B" stroke-width=".73" stroke-linecap="round" stroke-linejoin="round"/><path d="M176.06 112.364c.947-.402 1.403-1.461 1.019-2.365-.384-.905-1.463-1.313-2.41-.911-.947.402-1.403 1.461-1.019 2.365.384.905 1.463 1.313 2.41.911Z" fill="#01133B"/><path fill-rule="evenodd" clip-rule="evenodd" d="M163.901 83.848c2.568-.222 4.075 1.07 4.521 3.873 3.091-.766 5.987-.892 8.688-.376 6.041 1.154 8.306 7.688 5.259 13.503.263 1.435.557 3.183.883 5.243-.848.895-1.448 1.281-1.798 1.158a13.215 13.215 0 0 1-3.164-1.634c-2.722 2.111-6.526 3.752-11.535 4.429-7.253.981-11.975.045-14.165-2.805.509 4.554.371 8.481-.414 11.78-6.23-3.52-9.529-7.466-9.896-11.838-.324-3.857 1.245-6.035 4.705-6.536.929-5.522 9.822-16.185 16.916-16.797Z" fill="#01133B"/><path d="M152.176 119.019c-5.644-3.326-9.529-7.467-9.896-11.838-.324-3.857 1.245-6.036 4.705-6.536.93-5.523 9.822-16.185 16.916-16.797 2.567-.222 4.075 1.069 4.521 3.873 3.091-.767 5.987-.892 8.688-.376 5.303 1.013 6.703 6.752 5.148 11.931.374 2.074.632 4.68.994 6.814" stroke="#fff" stroke-width=".88" stroke-linecap="round" stroke-linejoin="round"/><path d="m170.508 221.269-3.771-7.656" stroke="#01133B" stroke-width="1.32" stroke-linecap="round" stroke-linejoin="round"/><path d="m163.329 161.532 27.466 3.418 9.929-25.252" stroke="#01133B" stroke-width="1.32" stroke-linejoin="round"/><path fill-rule="evenodd" clip-rule="evenodd" d="m192.649 71.468 2.231 45.528 16.693-1.728-14.45 16.928 60.031 127.46 19.099-36.167-34.166-61.311 35.156-54.505c7.902-12.25 4.378-28.592-7.869-36.502a26.385 26.385 0 0 0-16.252-4.152l-60.473 4.449Z" fill="#EDEEF2" stroke="#01133B" stroke-width="1.32" stroke-linejoin="round"/><path d="m210.648 116.421 9.644-12.198" stroke="#01133B" stroke-width="1.32" stroke-linecap="round" stroke-linejoin="round"/><path fill-rule="evenodd" clip-rule="evenodd" d="m208.442 119.329 5.487 32.468 8.02-1.596a7.04 7.04 0 0 1 8.362 6.06l6.956 57.352" fill="#EDEEF2"/><path d="m208.442 119.329 5.487 32.468 8.02-1.596a7.04 7.04 0 0 1 8.362 6.06l6.956 57.352" stroke="#01133B" stroke-width="1.32" stroke-linejoin="round"/><path fill-rule="evenodd" clip-rule="evenodd" d="m162.076 156.198 53.612 122.096-19.895 9.136-27.172-55.563-3.898 17.097-37.908-13.357 5.72-54.29a18.468 18.468 0 0 1 9.574-14.308l19.967-10.811Z" fill="#EDEEF2" stroke="#01133B" stroke-width="1.32" stroke-linejoin="round"/><path d="m242.967 163.742-3.811-6.663" stroke="#01133B" stroke-width="1.32" stroke-linecap="round" stroke-linejoin="round"/><path fill-rule="evenodd" clip-rule="evenodd" d="m148.847 162.815 19.538 22.609-4.908 11.564a6.604 6.604 0 0 0 .894 6.668l38.557 48.892" fill="#EDEEF2"/><path d="m148.847 162.815 19.538 22.609-4.908 11.564a6.604 6.604 0 0 0 .894 6.668l38.557 48.892" stroke="#01133B" stroke-width="1.32" stroke-linejoin="round"/></g><path fill-rule="evenodd" clip-rule="evenodd" d="m189.047 102.54-47.555 3.87a6.455 6.455 0 0 1-6.914-5.536 6.058 6.058 0 0 1 5.156-6.844l.027-.004 51.82-7.043" fill="#fff"/><path d="m189.047 102.54-47.555 3.87a6.455 6.455 0 0 1-6.914-5.536 6.058 6.058 0 0 1 5.156-6.844l.027-.004 51.82-7.043" stroke="#01133B" stroke-width="1.716" stroke-linecap="round" stroke-linejoin="round"/><path fill-rule="evenodd" clip-rule="evenodd" d="m189.048 102.539-33.33 2.002a6.593 6.593 0 0 1-6.923-5.664 6.05 6.05 0 0 1 5.148-6.834l.036-.005 37.602-5.054" fill="#fff"/><path d="m189.048 102.539-33.33 2.002a6.593 6.593 0 0 1-6.923-5.664 6.05 6.05 0 0 1 5.148-6.834l.036-.005 37.602-5.054" stroke="#01133B" stroke-width="1.32" stroke-linecap="round" stroke-linejoin="round"/><path d="M134.158 197.155a6.52 6.52 0 1 0-11.619-5.92l-6.515 12.786a6.52 6.52 0 1 0 11.619 5.919l6.515-12.785Z" fill="#fff" stroke="#01133B" stroke-width="1.32" stroke-linecap="round" stroke-linejoin="round"/><path d="M145.781 203.076a6.521 6.521 0 1 0-11.62-5.919l-6.515 12.786a6.52 6.52 0 1 0 11.619 5.919l6.516-12.786Z" fill="#fff" stroke="#01133B" stroke-width="1.32" stroke-linecap="round" stroke-linejoin="round"/><path d="M157.403 208.998a6.52 6.52 0 1 0-11.619-5.919l-6.516 12.786a6.521 6.521 0 1 0 11.62 5.919l6.515-12.786Z" fill="#fff" stroke="#01133B" stroke-width="1.32" stroke-linecap="round" stroke-linejoin="round"/><path d="M169.025 214.92a6.52 6.52 0 1 0-11.619-5.919l-6.515 12.785a6.52 6.52 0 1 0 11.619 5.92l6.515-12.786Z" fill="#fff" stroke="#01133B" stroke-width="1.32" stroke-linecap="round" stroke-linejoin="round"/></g></svg>