<svg viewBox="0 0 400 300" fill="none" xmlns="http://www.w3.org/2000/svg"><path fill-rule="evenodd" clip-rule="evenodd" d="M229.971 59.226c64.879 33.27 78.018 7.782 120.89 67.34 42.872 59.558.995 133.295-60.32 146.877-61.315 13.582-72.308-19.86-155.52-5.353-44.92 7.832-77.89-25.451-88.936-66.044-9.415-34.604-2.897-92.259 25.737-116.548 62.221-52.782 93.269-59.541 158.149-26.272Z" fill="#F2F5FF"/><mask id="a" style="mask-type:alpha" maskUnits="userSpaceOnUse" x="38" y="0" width="332" height="277"><path d="M230.857 58.783c64.88 33.27 78.019 7.782 120.891 67.34 42.872 59.558.995 133.295-60.32 146.877-61.315 13.582-72.308-19.86-155.52-5.353-44.92 7.832-77.89-25.451-88.936-66.044-9.415-34.604-16.442-154.87 12.19-179.159 62.222-52.781 106.816 3.07 171.695 36.34Z" fill="#fff"/></mask><g mask="url(#a)"><mask id="b" style="mask-type:alpha" maskUnits="userSpaceOnUse" x="70" y="73" width="264" height="214"><path d="M146.16 82.711c-25.537 71.541 36.106 140.989 137.963 156.193l3.099.444-16.832 47.151C130.729 267.314 45.128 173.621 77.48 76.365l1.016-2.948 67.664 9.294Zm91.584 12.866c-13.102 36.719 18.525 72.363 70.785 80.167l1.59.228-16.817 47.127c-89.639-12.318-144.581-72.475-123.817-134.919l.653-1.893 67.606 9.29Zm96.227 13.073-18.075 50.571c-39.728-5.45-64.079-32.07-54.876-59.702l.289-.838 72.662 9.969Z" fill="#fff"/></mask><g mask="url(#b)"><path d="M146.16 82.711c-25.537 71.541 36.106 140.989 137.963 156.193l3.099.444-16.832 47.151C130.729 267.314 45.128 173.621 77.48 76.365l1.016-2.948 67.664 9.294Zm91.584 12.866c-13.102 36.719 18.525 72.363 70.785 80.167l1.59.228-16.817 47.127c-89.639-12.318-144.581-72.475-123.817-134.919l.653-1.893 67.606 9.29Zm96.227 13.073-18.075 50.571c-39.728-5.45-64.079-32.07-54.876-59.702l.289-.838 72.662 9.969Z" fill="#436FFF"/><mask id="c" style="mask-type:alpha" maskUnits="userSpaceOnUse" x="-7" y="-35" width="429" height="429"><path d="M421.042-34.885H-6.872V393.03h427.914V-34.885Z" fill="#fff"/></mask><g mask="url(#c)"><path d="M421.042-34.885H-6.872V393.03h427.914V-34.885Z" fill="#436FFF"/><path d="M163.958-34.885c6.05 78.569 34.201 126.131 84.452 142.687 50.252 16.556 118.533-7.225 204.843-71.343" stroke="#fff" stroke-width="1.395"/><path d="M193.694-34.885c13.393 92.37-16.687 140.092-90.239 143.169-110.327 4.614-30.62-79.171 7.02-45.772 37.639 33.4 34.575 105.72-24.153 155.288-39.152 33.045-83.76 49.568-133.824 49.568M421.042 218.853c-163.045-10.535-292.376 47.524-387.991 174.176" stroke="#fff" stroke-width="1.395"/><path d="M-6.872 217.639c106.95 28.668 175.899 87.132 206.848 175.39" stroke="#fff" stroke-width="1.395"/><path d="M421.042 116.241c-72.163 72.034-122.536 92.978-151.12 62.831-42.875-45.22 39.022-80.83 51.102-40.415 12.08 40.415-52.503 72.489-138.488 86.755-57.323 9.51-125.153 51.115-203.492 124.813M421.042 163.046c-68.309 66.597-97.622 147.337-87.938 242.219" stroke="#fff" stroke-width="1.395"/><path d="M-6.872 128.306c168.716 34.089 301.108 126.408 397.177 276.959" stroke="#fff" stroke-width="1.395"/></g></g><path fill-rule="evenodd" clip-rule="evenodd" d="m347.514 104.343-94.136 17.987 2.477 26.538-63.66-7.568-28.677 43.618-70.34-11.143-35.614 46.068 50.487-26.047 75.904 31.049 34.479-39.927 64.169-19.947-4.401-32.847 69.312-27.781Z" fill="#01133B"/><path d="M102.365 188.938a1 1 0 1 0 0-2 1 1 0 0 0 0 2ZM139.109 193.125a1 1 0 1 0 0-2 1 1 0 0 0 0 2ZM227.018 156.38a1 1 0 1 0 0-2 1 1 0 0 0 0 2ZM235.157 161.264a1 1 0 1 0 0-2 1 1 0 0 0 0 2ZM252.832 152.427a1 1 0 1 0 0-2 1 1 0 0 0 0 2ZM261.669 149.17a1 1 0 1 0 .002-1.998 1 1 0 0 0-.002 1.998ZM260.507 152.194a1 1 0 1 0 0-2 1 1 0 0 0 0 2ZM255.855 133.589a1 1 0 1 0 0-2 1 1 0 0 0 0 2ZM267.483 138.24a1 1 0 1 0 .002-1.998 1 1 0 0 0-.002 1.998ZM264.925 125.915a1 1 0 1 0 0-2 1 1 0 0 0 0 2ZM287.251 121.263a1 1 0 1 0 0-2 1 1 0 0 0 0 2ZM308.647 116.147a1 1 0 1 0 0-2 1 1 0 0 0 0 2ZM117.248 185.683a1 1 0 1 0 0-2 1 1 0 0 0 0 2ZM119.807 195.218a1 1 0 1 0 0-2 1 1 0 0 0 0 2ZM94.225 184.055a1 1 0 1 0 0-2 1 1 0 0 0 0 2ZM83.062 195.683a1 1 0 1 0 0-2 1 1 0 0 0 0 2ZM94.457 195.451a1 1 0 1 0 0-2 1 1 0 0 0 0 2ZM141.435 195.916a1 1 0 1 0 0-2 1 1 0 0 0 0 2Z" fill="#fff"/><mask id="d" style="mask-type:alpha" maskUnits="userSpaceOnUse" x="57" y="-9" width="291" height="234"><path d="M347.514 104.343 129.823-8.757l-61.184 18.97-11.075 209.63 50.487-26.047 75.904 31.049 34.479-39.926 58.556-14.646-6.518-39.429 77.042-26.501Z" fill="#fff"/></mask><g mask="url(#d)"><path fill-rule="evenodd" clip-rule="evenodd" d="m70.782 65.1 24.802 49.061 43.733-17.969-23.69-48.652L70.782 65.1Z" fill="#fff" stroke="#01133B" stroke-width="1.395" stroke-linecap="round" stroke-linejoin="round"/><path d="M134.364 42.256 85.198 70.639a4.306 4.306 0 0 0-1.575 5.883l12.033 20.84a4.307 4.307 0 0 0 5.883 1.577l49.166-28.383a4.306 4.306 0 0 0 1.575-5.883l-12.033-20.84a4.307 4.307 0 0 0-5.883-1.577Z" fill="#01133B"/><path fill-rule="evenodd" clip-rule="evenodd" d="M147.169 68.747 101.74 94.973a2.461 2.461 0 0 1-3.362-.902L87.834 75.81a2.46 2.46 0 0 1 .9-3.361l45.429-26.226a2.462 2.462 0 0 1 3.362.901l1.262 2.186c.275.477.2 1.08-.184 1.474l-.318.326a1.832 1.832 0 0 0-.274 2.193l4.95 8.572a1.831 1.831 0 0 0 2.037.86l.44-.112a1.23 1.23 0 0 1 1.369.577l1.262 2.186a2.46 2.46 0 0 1-.9 3.362Z" fill="#fff"/><path d="M126.816 72.483a9.422 9.422 0 0 0-1.217-7.556c-2.846-4.378-8.703-5.625-13.081-2.784-4.379 2.84-5.621 8.694-2.775 13.073 2.846 4.379 8.703 5.625 13.081 2.784" stroke="#01133B" stroke-width="2.907" stroke-linecap="round" stroke-linejoin="round"/><path d="m129.717 70.708-3.011 2.907-2.908-3.011" stroke="#01133B" stroke-width="2.907" stroke-linecap="round" stroke-linejoin="round"/><path d="M144.419 70.211a6.23 6.23 0 1 0-12.141-2.803l-4.755 20.599a6.23 6.23 0 1 0 12.141 2.803l4.755-20.599ZM80.262 57.59a6.229 6.229 0 1 0-10.788 6.228l6.845 11.856a6.229 6.229 0 1 0 10.788-6.228L80.262 57.59Z" fill="#fff" stroke="#01133B" stroke-width="1.395" stroke-linecap="round" stroke-linejoin="round"/><path d="M91.053 51.36a6.23 6.23 0 1 0-10.788 6.228l6.844 11.855a6.23 6.23 0 1 0 10.789-6.228l-6.845-11.854Z" fill="#fff" stroke="#01133B" stroke-width="1.395" stroke-linecap="round" stroke-linejoin="round"/><path d="M101.844 45.13a6.23 6.23 0 1 0-10.788 6.228L97.9 63.215a6.23 6.23 0 1 0 10.788-6.229l-6.845-11.854Z" fill="#fff" stroke="#01133B" stroke-width="1.395" stroke-linecap="round" stroke-linejoin="round"/><path d="M112.635 38.9a6.23 6.23 0 1 0-10.789 6.228l6.845 11.855a6.23 6.23 0 1 0 10.789-6.228L112.635 38.9Z" fill="#fff" stroke="#01133B" stroke-width="1.395" stroke-linecap="round" stroke-linejoin="round"/><mask id="e" style="mask-type:alpha" maskUnits="userSpaceOnUse" x="163" y="158" width="103" height="94"><path d="m182.889 160.281 19.149-1.602 42.995 5.588a13.854 13.854 0 0 1 11.757 10.817l9.147 42.398-27.05 4.653 1.349 29.809h-76.298l3.108-71.195 15.843-20.468Z" fill="#fff"/></mask><g mask="url(#e)" fill="#fff"><path d="m182.889 160.281 19.149-1.602 42.995 5.588a13.854 13.854 0 0 1 11.757 10.817l9.147 42.398-27.05 4.653 1.349 29.809h-76.298l3.108-71.195 15.843-20.468Z"/><path fill-rule="evenodd" clip-rule="evenodd" d="m202.326 184.879-26.554-29.367h53.109l-26.555 29.367Z" stroke="#01133B" stroke-width="1.395" stroke-linecap="round" stroke-linejoin="round"/></g><path fill-rule="evenodd" clip-rule="evenodd" d="m143.016 90.51 10.638 45.83 36.901 23.078-8.143 135.725a18.119 18.119 0 0 1-13.391 16.414l-16.788 4.502 7.414-51.558-5.993 20.374 3.413-89.005-34.406-23.638a48.455 48.455 0 0 1-17.444-21.684l-16.49-40.567 54.289-19.47Zm74.556 68.908 26.683 4.169a21.313 21.313 0 0 1 16.775 13.869l40.231 112.279-51.337 15.098 1.557 11.226-16.389-4.396a18.115 18.115 0 0 1-13.415-16.949l-4.105-135.296Z" fill="#EDEEF2" stroke="#01133B" stroke-width="1.395" stroke-linejoin="round"/><path d="m172.961 148.534 4.844 40.721-10.929 11.265a9.059 9.059 0 0 0-1.839 9.84l18.19 42.956" stroke="#01133B" stroke-width="1.395" stroke-linecap="round" stroke-linejoin="round"/><path fill-rule="evenodd" clip-rule="evenodd" d="m83.83 103.821 59.51-22.278 5.96 14.66-56.492 35.914-8.977-28.296Z" fill="#EDEEF2" stroke="#01133B" stroke-width="1.395" stroke-linejoin="round"/><path fill-rule="evenodd" clip-rule="evenodd" d="m142.98 101.08-45.065 31.791-1.354-3.116 45.926-30.354.493 1.679Z" fill="#01133B"/><path d="m232.904 162.496-6.874 27.216 10.939 11.245a9.06 9.06 0 0 1 1.864 9.812l-18.054 43.163" stroke="#01133B" stroke-width="1.395" stroke-linecap="round" stroke-linejoin="round"/><path fill-rule="evenodd" clip-rule="evenodd" d="M193.37 160.357v-19.02h17.318v19.02" fill="#fff"/><path d="M193.37 160.357v-19.02h17.318v19.02" stroke="#01133B" stroke-width="1.14" stroke-linecap="round" stroke-linejoin="round"/><mask id="f" style="mask-type:alpha" maskUnits="userSpaceOnUse" x="193" y="136" width="18" height="25"><path d="M210.688 136.726H193.37v23.631h17.318v-23.631Z" fill="#fff"/></mask><g mask="url(#f)"><path d="M208.896 150.991c10.802 0 19.558-8.096 19.558-18.082s-8.756-18.081-19.558-18.081-19.559 8.095-19.559 18.081c0 9.986 8.757 18.082 19.559 18.082Z" fill="#01133B"/></g><path fill-rule="evenodd" clip-rule="evenodd" d="m211.612 105.362-.395-.129c-8.423-2.736-17.472 1.877-20.211 10.303-.065.202-.127.405-.184.609l-1.498 5.315c-2.369 8.41 2.323 17.189 10.631 19.888l.283.092c8.37 2.719 17.362-1.865 20.084-10.238l1.733-5.335c2.779-8.549-1.896-17.73-10.443-20.505Z" fill="#01133B"/><path fill-rule="evenodd" clip-rule="evenodd" d="m192.755 118.902-3.151 9.695c-2.395 7.369 1.635 15.281 9 17.674 7.366 2.392 15.279-1.642 17.674-9.01l3.151-9.695c2.395-7.369-1.635-15.281-9.001-17.674-7.365-2.392-15.278 1.641-17.673 9.01Z" fill="#fff" stroke="#01133B" stroke-width="1.395" stroke-linecap="round" stroke-linejoin="round"/><path fill-rule="evenodd" clip-rule="evenodd" d="M219.719 112.094c4.347-.836 6.735 1.319 7.163 6.466.34 4.076-.562 11.467-8.084 20.533-.312.376-.449-6.444-.659-6.999-1.588-4.209-2.304-8.586-2.145-13.132.179-5.145 1.421-7.435 3.725-6.868Z" fill="#01133B"/><path fill-rule="evenodd" clip-rule="evenodd" d="m217.887 132.283 1.626.265a3.367 3.367 0 0 1 2.534 4.696 6.391 6.391 0 0 1-6.144 3.785l-.847-.04 2.831-8.706Z" fill="#fff" stroke="#01133B" stroke-width="1.395" stroke-linecap="round" stroke-linejoin="round"/><path d="m218.853 135.492-.881 2.711M218.3 137.195l1.599-.611" stroke="#01133B" stroke-width="1.395" stroke-linecap="round" stroke-linejoin="round"/><path d="m202.186 129.558-1.66 3.241 1.772.932" stroke="#01133B" stroke-width="1.176" stroke-linecap="round" stroke-linejoin="round"/><path d="M211.671 131.509c-1.451-.471-2.408-1.529-2.137-2.363.271-.833 1.667-1.127 3.118-.656 1.451.471 2.407 1.529 2.136 2.363-.271.833-1.666 1.127-3.117.656Z" stroke="#01133B" stroke-width=".784" stroke-linecap="round" stroke-linejoin="round"/><path d="M211.671 131.509c-.871-.283-1.357-1.188-1.086-2.022.271-.833 1.196-1.28 2.067-.997.87.283 1.356 1.188 1.085 2.021-.271.834-1.196 1.28-2.066.998Z" fill="#01133B"/><path d="M197.118 126.78c-1.451-.471-2.407-1.529-2.136-2.362.271-.834 1.667-1.128 3.118-.656 1.451.471 2.407 1.529 2.136 2.362-.271.834-1.667 1.128-3.118.656Z" stroke="#01133B" stroke-width=".784" stroke-linecap="round" stroke-linejoin="round"/><path d="M197.118 126.78c-.87-.283-1.356-1.188-1.085-2.021.271-.834 1.196-1.28 2.067-.997.87.282 1.356 1.187 1.085 2.021-.271.833-1.196 1.28-2.067.997Z" fill="#01133B"/><path fill-rule="evenodd" clip-rule="evenodd" d="M215.325 110.599c-9.557-5.797-17.507-7.88-23.85-6.249-9.516 2.446-7.026 18.5 11.818 19.638 12.562.759 16.573-3.704 12.032-13.389Z" fill="#01133B"/><path fill-rule="evenodd" clip-rule="evenodd" d="M222.144 115.357c.277-4.347-9.502-14.865-16.441-14.853-4.626.008-4.954 5.143-.983 15.404 11.431 2.531 17.239 2.347 17.424-.551Z" fill="#01133B"/><path d="m200.997 138.953 4.146 1.449" stroke="#01133B" stroke-width="1.395" stroke-linecap="round" stroke-linejoin="round"/></g><path fill-rule="evenodd" clip-rule="evenodd" d="M235.872 159.29a6.49 6.49 0 0 1 8.426 3.577l5.299 13.013a6.421 6.421 0 0 1-3.525 8.368l-.033.013a6.491 6.491 0 0 1-8.426-3.577l-5.299-13.013a6.42 6.42 0 0 1 3.526-8.368l.032-.013Z" fill="#fff" stroke="#01133B" stroke-width="1.395" stroke-linecap="round" stroke-linejoin="round"/><path fill-rule="evenodd" clip-rule="evenodd" d="M247.855 154.486a6.49 6.49 0 0 1 8.427 3.576l5.298 13.014a6.42 6.42 0 0 1-3.557 8.381 6.49 6.49 0 0 1-8.426-3.577l-5.299-13.013a6.42 6.42 0 0 1 3.525-8.368l.032-.013ZM259.839 149.682a6.49 6.49 0 0 1 8.427 3.576l5.298 13.013a6.42 6.42 0 0 1-3.557 8.381 6.49 6.49 0 0 1-8.426-3.576l-5.299-13.014a6.42 6.42 0 0 1 3.525-8.367l.032-.013Z" fill="#fff" stroke="#01133B" stroke-width="1.395" stroke-linecap="round" stroke-linejoin="round"/><path fill-rule="evenodd" clip-rule="evenodd" d="M271.823 144.877a6.49 6.49 0 0 1 8.426 3.577l5.299 13.013a6.421 6.421 0 0 1-3.525 8.368l-.032.013a6.49 6.49 0 0 1-8.427-3.577l-5.298-13.013a6.42 6.42 0 0 1 3.525-8.368l.032-.013Z" fill="#fff" stroke="#01133B" stroke-width="1.395" stroke-linecap="round" stroke-linejoin="round"/></g></svg>