<svg viewBox="0 0 400 300" fill="none" xmlns="http://www.w3.org/2000/svg"><mask id="a" style="mask-type:alpha" maskUnits="userSpaceOnUse" x="40" y="30" width="323" height="233"><path d="M233.437 51.626c65.743 34.875 105.205 41.064 122.559 87.497s.948 104.224-61.183 118.461c-62.131 14.238-63.817-9.367-157.59-5.611-93.772 3.757-127.09-117.48-64.04-172.808 63.05-55.328 94.511-62.413 160.254-27.539Z" fill="#fff"/></mask><g mask="url(#a)"><path d="M233.437 51.626c65.743 34.875 105.205 41.064 122.559 87.497s.948 104.224-61.183 118.461c-62.131 14.238-63.817-9.367-157.59-5.611-93.772 3.757-127.09-117.48-64.04-172.808 63.05-55.328 94.511-62.413 160.254-27.539Z" fill="#F2F5FF"/><path d="M172.134-1.802c5.238 68.024 29.61 109.202 73.117 123.536 43.507 14.334 102.623-6.256 177.349-61.768" stroke="#fff" stroke-width="1.32"/><path d="M197.879-1.802c11.595 79.972-14.448 121.289-78.127 123.953-95.52 3.995-26.51-68.545 6.077-39.628 32.587 28.916 29.934 91.53-20.911 134.445-33.897 28.61-72.518 42.915-115.862 42.915M394.712 217.879c-141.161-9.121-253.133 41.145-335.915 150.799" stroke="#fff" stroke-width="1.32"/><path d="M24.232 216.829c92.595 24.82 152.29 75.436 179.085 151.849" stroke="#fff" stroke-width="1.32"/><path d="M394.712 129.041c-62.477 62.365-106.089 80.498-130.837 54.397-37.12-39.151 33.785-69.98 44.243-34.99 10.459 34.99-45.456 62.76-119.9 75.111-49.629 8.233-108.355 44.254-176.179 108.06M89.368-1.802C148.566 26.95 224.97 39.941 318.577 37.171c93.608-2.77 159.796-14.011 198.565-33.725" stroke="#fff" stroke-width="1.32"/><path d="M302.942 65.496c25.154 0 45.545-28.608 45.545-63.899 0-35.29-20.391-63.9-45.545-63.9-25.154 0-45.546 28.61-45.546 63.9s20.392 63.9 45.546 63.9ZM394.712 169.563c-59.14 57.659-84.519 127.562-76.135 209.709" stroke="#fff" stroke-width="1.32"/><path d="M24.232 139.486C170.303 168.999 284.925 248.928 368.1 379.272" stroke="#fff" stroke-width="1.32"/><path d="M77.89-1.802C33.242 7.333 16.735 26.384 28.367 55.351c17.448 43.45 81.748 125.616-4.136 139.866" stroke="#fff" stroke-width="1.32"/></g><mask id="b" style="mask-type:alpha" maskUnits="userSpaceOnUse" x="40" y="30" width="323" height="233"><path d="M233.437 51.626c65.743 34.875 105.205 41.064 122.559 87.497s.948 104.224-61.183 118.461c-62.131 14.238-63.817-9.367-157.59-5.611-93.772 3.757-127.09-117.48-64.04-172.808 63.05-55.328 94.511-62.413 160.254-27.539Z" fill="#fff"/></mask><g mask="url(#b)"><path fill-rule="evenodd" clip-rule="evenodd" d="M202.561 89.115c10.16 0 20.749 2.136 31.884 4.289 5.908 1.142 24.648 4.675 56.221 10.598 11.942 2.24 19.807 13.737 17.567 25.679a21.95 21.95 0 0 1-1.35 4.487l-1.016 2.413-73.915-6.576-8.783 50.105h-41.216l-9.17-49.351-62.234 12.073-4.053-12.475c-2.565-7.895 1.754-16.374 9.648-18.942 31.624-10.287 50.133-16.071 55.529-17.352 9.244-2.195 20.728-4.948 30.888-4.948Z" fill="#EDEEF2" stroke="#01133B" stroke-width="1.32" stroke-linecap="round" stroke-linejoin="round"/><path d="M218.333 90.603c7.276 1.282 12.545 8.196 15.808 20.74l-6.725 13.313M187.062 91.043c-7.276 1.282-12.546 8.195-15.809 20.74l6.726 13.313" stroke="#01133B" stroke-width="1.32" stroke-linecap="round" stroke-linejoin="round"/><path d="M290.843 134.485H112.712v105.238h178.131V134.485Z" fill="#DBE3FF"/><path d="M309.977 124.918H95.856v31.435h214.121v-31.435Z" fill="#5578EC"/><path d="M128.758 138.13h-6.267v5.467h6.267v-5.467ZM144.425 138.13h-6.267v5.467h6.267v-5.467ZM272.897 138.13H167.404v5.467h105.493v-5.467Z" fill="#DBE3FF"/><path d="M309.977 124.918H282.82v31.435h27.157v-31.435Z" fill="#3553E5"/><path fill-rule="evenodd" clip-rule="evenodd" d="M95.856 124.918h16.712v31.435H95.856v-31.435Z" fill="#3553E5"/><path d="M309.977 159.998H95.856v31.435h214.121v-31.435Z" fill="#5578EC"/><path d="M128.758 173.21h-6.267v5.467h6.267v-5.467ZM144.425 173.21h-6.267v5.467h6.267v-5.467ZM272.897 173.21H167.404v5.467h105.493v-5.467Z" fill="#DBE3FF"/><path d="M309.977 159.998H282.82v31.435h27.157v-31.435Z" fill="#3553E5"/><path fill-rule="evenodd" clip-rule="evenodd" d="M95.856 159.998h16.712v31.435H95.856v-31.435Z" fill="#3553E5"/><path d="M309.977 195.077H95.856v31.435h214.121v-31.435Z" fill="#5578EC"/><path d="M128.758 208.289h-6.267v5.467h6.267v-5.467ZM144.425 208.289h-6.267v5.467h6.267v-5.467ZM272.897 208.289H167.404v5.467h105.493v-5.467Z" fill="#DBE3FF"/><path d="M309.977 195.077H282.82v31.435h27.157v-31.435Z" fill="#3553E5"/><path fill-rule="evenodd" clip-rule="evenodd" d="M95.856 195.077h16.712v31.435H95.856v-31.435Z" fill="#3553E5"/><path d="M309.977 230.157H95.856v31.434h214.121v-31.434Z" fill="#5578EC"/><path d="M128.758 243.369h-6.267v5.467h6.267v-5.467ZM144.425 243.369h-6.267v5.467h6.267v-5.467ZM272.897 243.369H167.404v5.467h105.493v-5.467Z" fill="#DBE3FF"/><path d="M309.977 230.157H282.82v31.434h27.157v-31.434Z" fill="#3553E5"/><path fill-rule="evenodd" clip-rule="evenodd" d="M95.856 230.157h16.712v31.434H95.856v-31.434Z" fill="#3553E5"/><mask id="c" style="mask-type:alpha" maskUnits="userSpaceOnUse" x="128" y="90" width="143" height="122"><path d="M199.92 90.634c11.418-.693 15.575 10.012 16.187 25.176.612 15.165 18.516 13.839 25.493 27.787 6.976 13.948-2.916 26.334 12.082 38.347 9.999 8.008 15.763 17.875 17.294 29.6l-142.088-1.507c-.47-13.179 4.166-22.371 13.909-27.575 14.614-7.806 2.78-29.776 14.614-44.574 11.833-14.798 16.878-14.798 21.042-27.334 4.165-12.537 10.049-19.226 21.467-19.92Z" fill="#fff"/></mask><g mask="url(#c)"><path d="M199.92 90.634c11.418-.693 15.575 10.012 16.187 25.176.612 15.165 18.516 13.839 25.493 27.787 6.976 13.948-2.916 26.334 12.082 38.347 9.999 8.008 15.763 17.875 17.294 29.6l-142.088-1.507c-.47-13.179 4.166-22.371 13.909-27.575 14.614-7.806 2.78-29.776 14.614-44.574 11.833-14.798 16.878-14.798 21.042-27.334 4.165-12.537 10.049-19.226 21.467-19.92Z" fill="#01133B"/><path d="M184.956 149.998a1.1 1.1 0 1 0 0-2.2 1.1 1.1 0 0 0 0 2.2ZM177.476 167.158a1.1 1.1 0 1 0 0-2.2 1.1 1.1 0 0 0 0 2.2ZM214.876 156.158a1.1 1.1 0 1 0 0-2.2 1.1 1.1 0 0 0 0 2.2ZM210.476 191.358a1.1 1.1 0 1 0 0-2.2 1.1 1.1 0 0 0 0 2.2ZM169.336 165.519a1 1 0 1 0 0-2 1 1 0 0 0 0 2ZM204.096 135.599a1 1 0 1 0 0-2 1 1 0 0 0 0 2ZM192.656 180.918a1 1 0 1 0 0-2 1 1 0 0 0 0 2ZM227.856 185.318a1 1 0 1 0 0-2 1 1 0 0 0 0 2ZM169.776 194.118a1 1 0 1 0 0-2 1 1 0 0 0 0 2ZM187.376 123.718a1 1 0 1 0 0-2 1 1 0 0 0 0 2ZM169.776 146.599a1 1 0 1 0 0-2 1 1 0 0 0 0 2ZM191.336 183.559a1 1 0 1 0 0-2 1 1 0 0 0 0 2ZM213.336 193.678a1 1 0 1 0 0-2 1 1 0 0 0 0 2ZM213.996 172.338a1 1 0 1 0 0-2 1 1 0 0 0 0 2ZM213.556 148.138a1 1 0 1 0 0-2 1 1 0 0 0 0 2ZM193.756 160.019a1 1 0 1 0 0-2 1 1 0 0 0 0 2ZM227.856 160.238a1 1 0 1 0 0-2 1 1 0 0 0 0 2ZM208.298 142.005c.359 2.036-.682 4.126-2.643 4.999a4.56 4.56 0 0 1-3.752-.019c-.199-.09-.181-.352-.003-.464.941-.594 1.96-1.354 3.132-2.277 1.111-.875 2.088-1.677 2.819-2.363.176-.166.409-.092.447.124Zm-6.402-3.442a4.586 4.586 0 0 1 5.002.852c.031.026.061.054.09.08 1.923-1.404 3.288-2.228 3.448-2.031.246.305-2.481 2.935-6.092 5.874-3.611 2.94-6.738 5.075-6.985 4.771-.156-.193.872-1.31 2.557-2.846-.032-.052-.074-.118-.118-.194a4.858 4.858 0 0 1-.213-.42c-1.038-2.331-.003-5.056 2.311-6.086Z" fill="#fff"/></g><path fill-rule="evenodd" clip-rule="evenodd" d="M185.481 102.9c1.693-4.021 1.268-7.531-1.274-10.53-3.813-4.498-10.387-4.628-13.905-.797-3.517 3.831-2.54 8.412 0 10.969 1.133 1.139 5.293 4.024 10.097 3.358 1.357-.189 3.051-1.189 5.082-3Z" fill="#01133B"/><path d="M220.64 107.508c0-9.56-7.75-17.312-17.312-17.312-9.561 0-17.311 7.751-17.311 17.312s7.75 17.312 17.311 17.312c9.562 0 17.312-7.751 17.312-17.312Z" fill="#fff" stroke="#01133B" stroke-width="1.32" stroke-linecap="round" stroke-linejoin="round"/><mask id="d" style="mask-type:alpha" maskUnits="userSpaceOnUse" x="186" y="90" width="35" height="35"><path d="M220.64 107.508c0-9.56-7.75-17.312-17.312-17.312-9.561 0-17.311 7.751-17.311 17.312s7.75 17.312 17.311 17.312c9.562 0 17.312-7.751 17.312-17.312Z" fill="#fff"/></mask><g mask="url(#d)" fill="#01133B"><path d="M191.734 111.343c13.461 0 24.373-10.912 24.373-24.374 0-13.46-10.912-24.373-24.373-24.373S167.36 73.51 167.36 86.97c0 13.462 10.913 24.374 24.374 24.374Z"/><path d="M195.031 134.982c12.455 0 22.551-10.097 22.551-22.551 0-12.455-10.096-22.551-22.551-22.551-12.454 0-22.551 10.096-22.551 22.551 0 12.454 10.097 22.551 22.551 22.551Z"/></g><mask id="e" style="mask-type:alpha" maskUnits="userSpaceOnUse" x="242" y="101" width="70" height="110"><path d="m279.332 101.858-29.144 66.243 2.803 5.11-10.18 23.285 31.812 14.421 13.023-25.202 8.75-12.508 13.72-41.763c3.564-10.851-2.342-22.536-13.192-26.099a20.623 20.623 0 0 0-2.633-.676l-14.959-2.811Z" fill="#fff"/></mask><g mask="url(#e)"><path d="m279.332 101.858-29.144 66.243 2.803 5.11-10.18 23.285 31.812 14.421 13.023-25.202 8.75-12.508 13.72-41.763c3.564-10.851-2.342-22.536-13.192-26.099a20.623 20.623 0 0 0-2.633-.676l-14.959-2.811Z" fill="#fff"/><path fill-rule="evenodd" clip-rule="evenodd" d="m247.134 174.066 38.471 17.611 10.79-18.469 22.981-54.233-11.795-21.354-16.735-3.411-23.579.002-20.133 79.854Z" fill="#EDEEF2"/></g><path d="m270.394 123.986-20.609 44.554 4.164 1.494-7.943 19.663m38.321 2.825 6.826-16.255 5.242-3.059 13.423-41.338c3.602-11.095-2.47-23.008-13.564-26.609a20.959 20.959 0 0 0-2.623-.669l-44.683-8.39" stroke="#01133B" stroke-width="1.32" stroke-linecap="round" stroke-linejoin="round"/><path fill-rule="evenodd" clip-rule="evenodd" d="m285.172 190.636-14.746 34.736a4.528 4.528 0 1 1-8.335-3.538l7.373-17.368" fill="#fff"/><path d="m285.172 190.636-14.746 34.736a4.528 4.528 0 1 1-8.335-3.538l7.373-17.368" stroke="#01133B" stroke-width="1.32" stroke-linecap="round" stroke-linejoin="round"/><path fill-rule="evenodd" clip-rule="evenodd" d="m248.137 192.54-5.382 4.055a4.522 4.522 0 1 1-5.442-7.222l13.868-10.451" fill="#fff"/><path d="m248.137 192.54-5.382 4.055a4.522 4.522 0 1 1-5.442-7.222l13.868-10.451" stroke="#01133B" stroke-width="1.32" stroke-linecap="round" stroke-linejoin="round"/><path fill-rule="evenodd" clip-rule="evenodd" d="m269.463 204.465-7.373 17.368a4.528 4.528 0 1 1-8.335-3.538l7.372-17.368" fill="#fff"/><path d="m269.463 204.465-7.373 17.368a4.528 4.528 0 1 1-8.335-3.538l7.372-17.368" stroke="#01133B" stroke-width="1.32" stroke-linecap="round" stroke-linejoin="round"/><path fill-rule="evenodd" clip-rule="evenodd" d="m261.127 200.926-7.373 17.368a4.529 4.529 0 1 1-8.336-3.538l7.373-17.368" fill="#fff"/><path d="m261.127 200.926-7.373 17.368a4.529 4.529 0 1 1-8.336-3.538l7.373-17.368" stroke="#01133B" stroke-width="1.32" stroke-linecap="round" stroke-linejoin="round"/><path fill-rule="evenodd" clip-rule="evenodd" d="m252.79 197.388-7.373 17.368a4.528 4.528 0 0 1-5.937 2.399 4.575 4.575 0 0 1-2.442-5.955l15.309-37.137" fill="#fff"/><path d="m252.79 197.388-7.373 17.368a4.528 4.528 0 0 1-5.937 2.399 4.575 4.575 0 0 1-2.442-5.955l15.309-37.137" stroke="#01133B" stroke-width="1.32" stroke-linecap="round" stroke-linejoin="round"/><path fill-rule="evenodd" clip-rule="evenodd" d="m246.073 167.922 54.546 5.62-9.172 20.636-48.089-19.125 2.715-7.131Z" fill="#EDEEF2" stroke="#01133B" stroke-width="1.32" stroke-linecap="round" stroke-linejoin="round"/><mask id="f" style="mask-type:alpha" maskUnits="userSpaceOnUse" x="99" y="106" width="61" height="111"><path d="m131.6 106.723-14.257 3.832c-11.923 3.205-19.4 15.011-17.205 27.164l7.398 40.955 6.332 2.056 9.734 35.654 36.013-6.256-8.499-31.37 2.295-2.81-21.811-69.225Z" fill="#fff"/></mask><g mask="url(#f)"><path d="m131.6 106.722-14.257 3.833c-11.923 3.204-19.4 15.011-17.205 27.164l7.398 40.955 6.332 2.056 9.735 35.654 36.012-6.256-8.499-31.37 2.295-2.811-21.811-69.225Z" fill="#fff"/><path fill-rule="evenodd" clip-rule="evenodd" d="m115.825 197.391 39.036-12.513-22.56-85.236-44.5 4.293-.349 53.843 28.373 39.613Z" fill="#EDEEF2"/></g><path d="m136.985 125.374 16.428 50.573-1.537 4.261 2.713 9.987m-32.38 20.742-7.699-28.723-6.974-3.541-7.006-41.139c-2-11.74 4.999-23.145 16.369-26.675l23.443-7.279" stroke="#01133B" stroke-width="1.32" stroke-linecap="round" stroke-linejoin="round"/><path fill-rule="evenodd" clip-rule="evenodd" d="m118.404 197.317 10.405 36.274a4.526 4.526 0 1 0 8.702-2.494l-5.202-18.138" fill="#fff"/><path d="m118.404 197.317 10.405 36.274a4.526 4.526 0 1 0 8.702-2.494l-5.202-18.138" stroke="#01133B" stroke-width="1.32" stroke-linecap="round" stroke-linejoin="round"/><path fill-rule="evenodd" clip-rule="evenodd" d="m154.932 203.72 4.848 4.682a4.521 4.521 0 1 0 6.281-6.504l-12.492-12.064" fill="#fff"/><path d="m154.932 203.72 4.848 4.682a4.521 4.521 0 1 0 6.281-6.504l-12.492-12.064" stroke="#01133B" stroke-width="1.32" stroke-linecap="round" stroke-linejoin="round"/><path fill-rule="evenodd" clip-rule="evenodd" d="m132.311 212.957 5.202 18.138a4.528 4.528 0 1 0 8.704-2.495l-5.203-18.138" fill="#fff"/><path d="m132.311 212.957 5.202 18.138a4.528 4.528 0 1 0 8.704-2.495l-5.203-18.138" stroke="#01133B" stroke-width="1.32" stroke-linecap="round" stroke-linejoin="round"/><path fill-rule="evenodd" clip-rule="evenodd" d="m141.016 210.461 5.203 18.138a4.526 4.526 0 1 0 8.703-2.495l-5.202-18.138" fill="#fff"/><path d="m141.016 210.461 5.203 18.138a4.526 4.526 0 1 0 8.703-2.495l-5.202-18.138" stroke="#01133B" stroke-width="1.32" stroke-linecap="round" stroke-linejoin="round"/><path fill-rule="evenodd" clip-rule="evenodd" d="m149.724 207.965 5.202 18.137a4.527 4.527 0 0 0 5.599 3.106 4.575 4.575 0 0 0 3.149-5.613l-10.672-38.726" fill="#fff"/><path d="m149.724 207.965 5.202 18.137a4.527 4.527 0 0 0 5.599 3.106 4.575 4.575 0 0 0 3.149-5.613l-10.672-38.726" stroke="#01133B" stroke-width="1.32" stroke-linecap="round" stroke-linejoin="round"/><path fill-rule="evenodd" clip-rule="evenodd" d="m99.484 177.499 57.065-1.727 1.975 8.959-50.835 14.087-8.204-21.319Z" fill="#EDEEF2" stroke="#01133B" stroke-width="1.32" stroke-linecap="round" stroke-linejoin="round"/><path fill-rule="evenodd" clip-rule="evenodd" d="m118.404 197.316 35.818-8.627-.817-2.559-35.001 9.856v1.33ZM250.36 178.919l33.132 15.415 1.087-2.899-34.219-13.531v1.015Z" fill="#01133B"/></g></svg>