<svg viewBox="0 0 400 300" fill="none" xmlns="http://www.w3.org/2000/svg"><path fill-rule="evenodd" clip-rule="evenodd" d="M226.353 80.541c64.861 33.233 83.384 11.39 112.556 55.669 29.172 44.278 9.296 127.026-52.003 140.593-61.298 13.567-72.287-19.838-155.477-5.347-83.19 14.492-125.387-111.949-63.182-164.672C130.45 54.06 161.49 47.309 226.353 80.541Z" fill="#F2F5FF"/><mask id="a" style="mask-type:alpha" maskUnits="userSpaceOnUse" x="38" y="20" width="361" height="262"><path d="M308.824 27.447c59.298 113.025 89.05 182.422 89.257 208.193.493 62.032-85.218 36.495-110.457 42.086-61.452 13.612-72.469-19.904-155.866-5.364C59.751 284.915 18.38 192.057 48.56 132.408c3.183-6.291 1.463-43.617-5.158-111.977l265.422 7.016Z" fill="#fff"/></mask><g mask="url(#a)"><mask id="b" style="mask-type:alpha" maskUnits="userSpaceOnUse" x="76" y="26" width="237" height="233"><path d="m257.504 26.285 55.027 55.028-63.308 63.306 58.915 58.915-55.027 55.027-58.914-58.914-58.287 58.287-55.027-55.028 58.287-58.286-62.68-62.68 55.027-55.027 62.68 62.68 63.307-63.308Z" fill="#fff"/></mask><g mask="url(#b)"><path d="m257.504 26.285 55.027 55.028-63.308 63.306 58.915 58.915-55.027 55.027-58.914-58.914-58.287 58.287-55.027-55.028 58.287-58.286-62.68-62.68 55.027-55.027 62.68 62.68 63.307-63.308Z" fill="#3D66EE"/><mask id="c" style="mask-type:alpha" maskUnits="userSpaceOnUse" x="-12" y="-78" width="380" height="380"><path d="M367.719-77.215h-379.11v379.111h379.11V-77.215Z" fill="#fff"/></mask><g mask="url(#c)"><path d="M367.719-77.215h-379.11v379.111h379.11V-77.215Z" fill="#436FFF"/><path d="M139.955-77.215c5.36 69.608 30.3 111.746 74.821 126.413 44.521 14.668 105.014-6.401 181.481-63.206" stroke="#fff" stroke-width="1.333"/><path d="M166.3-77.215c11.865 81.834-14.784 124.114-79.947 126.84-97.745 4.088-27.127-70.142 6.219-40.551 33.346 29.59 30.631 93.662-21.399 137.577-34.686 29.276-74.207 43.914-118.56 43.914M367.719 147.584c-144.45-9.334-259.031 42.104-343.741 154.312" stroke="#fff" stroke-width="1.333"/><path d="M-11.392 146.509c94.752 25.398 155.838 77.194 183.257 155.387" stroke="#fff" stroke-width="1.333"/><path d="M367.719 56.675c-63.933 63.819-108.561 82.374-133.885 55.665-37.985-40.063 34.572-71.61 45.274-35.805 10.702 35.805-46.515 64.222-122.693 76.86-50.786 8.426-110.88 45.285-180.284 110.579M226.506 301.896c-9.396-55.781 2.892-85.702 36.863-89.762 33.972-4.06 71.744 10.9 113.316 44.881" stroke="#fff" stroke-width="1.333"/><path d="M367.719 98.142c-60.518 59.002-86.488 130.533-77.909 214.594" stroke="#fff" stroke-width="1.333"/><path d="M-11.392 67.364c149.474 30.2 266.767 111.991 351.879 245.372M-11.392 224.202c35.576 53.028 73.274 66.286 113.093 39.771 59.73-39.771 79.981-48.027 104.875-39.771 16.597 5.504 31.688 31.402 45.275 77.694" stroke="#fff" stroke-width="1.333"/></g></g><mask id="d" style="mask-type:alpha" maskUnits="userSpaceOnUse" x="283" y="234" width="41" height="23"><path d="M323.31 234.87v21.313h-39.785V234.87h39.785Z" fill="#fff"/></mask><g mask="url(#d)"><path d="M323.31 234.87v21.313h-39.785V234.87h39.785Z" fill="#fff" stroke="#01133B" stroke-width="1.333" stroke-linecap="round" stroke-linejoin="round"/><path d="M350.216 250.513c0 13.294-9.979 24.071-22.289 24.071-12.309 0-22.288-10.777-22.288-24.071 0-13.294 9.979-24.071 22.288-24.071 12.31 0 22.289 10.777 22.289 24.071Z" fill="#01133B"/></g><path fill-rule="evenodd" clip-rule="evenodd" d="M158.37 137.175c-13.278 14.701-24.171 25.891-32.679 33.57-19.32 17.44-25.509 29.499-34.216 36.811-5.756 4.833-23.618.044-36.12.044-15.778 0-33.945 4.345-41.874 9.516-11.416 7.446-11.35 22.451.2 45.016h105.571L223.586 152.99l-18.124-17.454c-13.048-12.566-33.811-12.175-46.377.873-.242.252-.48.507-.715.766Z" fill="#fff" stroke="#01133B" stroke-width="1.333" stroke-linecap="round" stroke-linejoin="round"/><path d="M13.68 246.576c9.019-3.232 21.673-5.299 37.964-6.201 24.436-1.353 36.756 8.156 49.741 1.345 12.984-6.81 21.514-29.004 32.779-41.82 11.265-12.816 15.868-13.085 26.36-25.021 4.288-4.878 8.38-9.588 12.275-14.129 3.669-4.278 10.112-4.771 14.389-1.102.197.169.388.346.572.53l14.701 14.701" stroke="#01133B" stroke-width="1.333" stroke-linecap="round" stroke-linejoin="round"/><path d="M191.547 196.721c-9.049-8.947-10.9-22.883-4.501-33.884l.655-1.128" stroke="#01133B" stroke-width="1.56" stroke-linecap="round" stroke-linejoin="round"/><path d="M188.695 199.889c-10.503-10.401-12.621-26.599-5.146-39.353l.985-1.679" stroke="#01133B" stroke-width=".729" stroke-linecap="round" stroke-linejoin="round" stroke-dasharray="2.19 2.19"/><path d="M147.498 261.583v-39.785h-26.667v39.785h26.667Z" fill="#fff"/><path fill-rule="evenodd" clip-rule="evenodd" d="M146.582 216.409H99.867a5.659 5.659 0 1 0 0 11.318h23.314" fill="#fff"/><path d="M146.582 216.409H99.867a5.659 5.659 0 1 0 0 11.318h23.314" stroke="#01133B" stroke-width="1.333" stroke-linecap="round" stroke-linejoin="round"/><path fill-rule="evenodd" clip-rule="evenodd" d="m126.547 257.781-7.279 4.191a5.612 5.612 0 0 0-2.063 7.664l.006.011a5.638 5.638 0 0 0 7.692 2.061l18.746-10.795" fill="#fff"/><path d="m126.547 257.781-7.279 4.191a5.612 5.612 0 0 0-2.063 7.664l.006.011a5.638 5.638 0 0 0 7.692 2.061l18.746-10.795" stroke="#01133B" stroke-width="1.333" stroke-linecap="round" stroke-linejoin="round"/><path fill-rule="evenodd" clip-rule="evenodd" d="M123.146 227.676H99.733a5.526 5.526 0 1 0 0 11.051h23.413" fill="#fff"/><path d="M123.146 227.676H99.733a5.526 5.526 0 1 0 0 11.051h23.413" stroke="#01133B" stroke-width="1.333" stroke-linecap="round" stroke-linejoin="round"/><path fill-rule="evenodd" clip-rule="evenodd" d="M123.334 238.727h-23.6a5.526 5.526 0 0 0 0 11.051h23.6" fill="#fff"/><path d="M123.334 238.727h-23.6a5.526 5.526 0 0 0 0 11.051h23.6" stroke="#01133B" stroke-width="1.333" stroke-linecap="round" stroke-linejoin="round"/><path fill-rule="evenodd" clip-rule="evenodd" d="M123.516 250.123h-23.215a5.915 5.915 0 1 0 0 11.831h49.731" fill="#fff"/><path d="M123.516 250.123h-23.215a5.915 5.915 0 1 0 0 11.831h49.731" stroke="#01133B" stroke-width="1.333" stroke-linecap="round" stroke-linejoin="round"/><path d="M341.482 225.435c10.398 0 18.827 8.429 18.827 18.827 0 10.398-8.429 18.827-18.827 18.827h-8.354c-10.398 0-18.827-8.429-18.827-18.827 0-10.398 8.429-18.827 18.827-18.827h8.354Z" fill="#01133B"/><path fill-rule="evenodd" clip-rule="evenodd" d="M354.623 231.045c2.169-3.74.112-5.609-6.171-5.609s-11.118.335-14.507 1.006c-.961.85-1.305 1.423-1.034 1.72 3.782 4.145 9.593 5.194 14.147 6.501 5.043 1.448 7.565.242 7.565-3.618Z" fill="#01133B"/><path fill-rule="evenodd" clip-rule="evenodd" d="m333.568 227.688.305-1.982a4.098 4.098 0 0 0-4.48-4.699 7.777 7.777 0 0 0-6.688 5.687l-.271.994h11.134Z" fill="#fff" stroke="#01133B" stroke-width="1.333" stroke-linecap="round" stroke-linejoin="round"/><path d="M330.22 225.361h-3.467M328.041 225.361l1.308-1.62" stroke="#01133B" stroke-width="1.333" stroke-linecap="round" stroke-linejoin="round"/><path fill-rule="evenodd" clip-rule="evenodd" d="M337.564 227.688h-12.407c-9.422 0-17.059 7.637-17.059 17.059 0 9.421 7.637 17.059 17.059 17.059h12.407c9.421 0 17.059-7.638 17.059-17.059 0-9.422-7.638-17.059-17.059-17.059Z" fill="#fff" stroke="#01133B" stroke-width="1.333" stroke-linecap="round" stroke-linejoin="round"/><path d="M321.75 252.406c-4.304-4.014-4.54-10.758-.526-15.062M328.775 245.733l-4.373.703-.412-2.401" stroke="#01133B" stroke-width="1.333" stroke-linecap="round" stroke-linejoin="round"/><path d="M330.085 254.31c0-1.855.864-3.36 1.93-3.36 1.066 0 1.93 1.505 1.93 3.36 0 1.856-.864 3.36-1.93 3.36-1.066 0-1.93-1.504-1.93-3.36Z" stroke="#01133B" stroke-width="1.061" stroke-linecap="round" stroke-linejoin="round"/><path d="M330.085 254.31c0-1.113.864-2.016 1.93-2.016 1.066 0 1.93.903 1.93 2.016 0 1.114-.864 2.016-1.93 2.016-1.066 0-1.93-.902-1.93-2.016Z" fill="#01133B"/><path d="M330.085 235.7c0-1.855.864-3.36 1.93-3.36 1.066 0 1.93 1.505 1.93 3.36 0 1.856-.864 3.361-1.93 3.361-1.066 0-1.93-1.505-1.93-3.361Z" stroke="#01133B" stroke-width="1.061" stroke-linecap="round" stroke-linejoin="round"/><path d="M330.085 235.7c0-1.113.864-2.016 1.93-2.016 1.066 0 1.93.903 1.93 2.016 0 1.114-.864 2.016-1.93 2.016-1.066 0-1.93-.902-1.93-2.016Z" fill="#01133B"/><path fill-rule="evenodd" clip-rule="evenodd" d="M356.356 252.398c3.114-12.522 2.536-21.965-1.733-28.329-6.405-9.545-24.038-1.109-18.275 19.923 3.843 14.021 10.512 16.823 20.008 8.406Z" fill="#01133B"/><path fill-rule="evenodd" clip-rule="evenodd" d="M352.707 260.357c5.133-1.314 13.625-16.582 11.004-24.605-1.747-5.349-7.81-3.797-18.188 4.655 1.368 14.176 3.763 20.825 7.184 19.95Z" fill="#01133B"/><path fill-rule="evenodd" clip-rule="evenodd" d="M357.919 255.319c4.52 2.776 4.52 4.905 0 6.389-4.519 1.484-12.817 1.819-24.894 1.004a34.22 34.22 0 0 1 13.444-7.393c5.044-1.447 8.86-1.447 11.45 0Z" fill="#01133B"/><path d="M147.396 216.131v45.452" stroke="#01133B" stroke-width="1.333" stroke-linecap="round" stroke-linejoin="round"/><path fill-rule="evenodd" clip-rule="evenodd" d="m202.461 131.531 99.003 100.667-5.08 13.14a26.665 26.665 0 0 1-24.872 17.051H147.498v-45.718l36.265-.525-6.777-6.094a20 20 0 0 1-4.162-24.49l29.637-54.031Z" fill="#E6E8EF" stroke="#01133B" stroke-width="1.333" stroke-linecap="round" stroke-linejoin="round"/><path d="M293.577 224.551c-4.748 9.707-5.935 19.592-3.561 29.654M180.052 216.318h34.911" stroke="#01133B" stroke-width="1.333" stroke-linecap="round" stroke-linejoin="round"/><path fill-rule="evenodd" clip-rule="evenodd" d="M163.628 207.6v57.995l-20-1.593v-53.863l20-2.539Z" fill="#E6E8EF" stroke="#01133B" stroke-width="1.333" stroke-linecap="round" stroke-linejoin="round"/><path fill-rule="evenodd" clip-rule="evenodd" d="m165.383 216.409 1.718 45.545h-3.474v-45.545h1.756Z" fill="#01133B"/></g></svg>