<svg viewBox="0 0 400 300" fill="none" xmlns="http://www.w3.org/2000/svg"><path fill-rule="evenodd" clip-rule="evenodd" d="M213.722 72.28c63.568 35.946 101.725 42.325 118.505 90.184 16.78 47.859.917 107.424-59.158 122.099-60.076 14.674-61.707-9.656-152.377-5.784-90.67 3.872-122.886-121.087-61.922-178.114s91.385-64.33 154.952-28.384Z" fill="#F2F5FF"/><mask id="a" style="mask-type:alpha" maskUnits="userSpaceOnUse" x="6" y="10" width="388" height="280"><path d="M260.996 21.912c37.817 21.434 75.091 23.371 95.756 38.83 7.047 5.27 43.016 40.27 36.08 75.412-9.638 48.837-60.268 133.775-120.292 148.472-60.025 14.696-61.654-9.67-152.247-5.792-48.98 2.096-80.888-33.522-90.24-75.713-3.13-14.121-25.23-27.106-23.1-41.532 3.274-22.193 34.513-45.238 51.47-61.138 60.912-57.112 139.059-114.538 202.573-78.539Z" fill="#fff"/></mask><g mask="url(#a)"><mask id="b" style="mask-type:alpha" maskUnits="userSpaceOnUse" x="16" y="45" width="374" height="282"><path d="M389.727 110.476 173.493 326.709l-64.714-64.714.168-.168-92.573-92.571 64.715-64.714 92.572 92.571L325.012 45.762l64.715 64.714Z" fill="#fff"/></mask><g mask="url(#b)"><path d="M389.727 110.476 173.493 326.709l-64.714-64.714.168-.168-92.573-92.571 64.715-64.714 92.572 92.571L325.012 45.762l64.715 64.714Z" fill="#5578EC"/><mask id="c" style="mask-type:alpha" maskUnits="userSpaceOnUse" x="-50" y="-193" width="587" height="587"><path d="M536.976-62.118 81.574-192.616l-130.74 455.644 455.403 130.498L536.976-62.118Z" fill="#fff"/></mask><g mask="url(#c)"><path d="M536.977-62.102 81.559-192.616-49.165 263.013l455.418 130.513L536.977-62.102Z" fill="#436FFF"/><path d="M263.346-140.471c-17.565 85.515-2.133 144.752 46.296 177.712C358.07 70.2 438.013 65.704 549.469 23.75" stroke="#fff" stroke-width="1.32"/><path d="M294.961-131.456C280.997-29.024 234.408 12.614 155.192-6.543c-118.824-28.735-8.402-93.634 21.452-46.593s4.5 123.108-73.141 157.973C51.742 128.08-.779 132.067-54.059 116.798M459.524 208.037c-170.326-60.957-325.723-38.579-466.19 67.132" stroke="#fff" stroke-width="1.32"/><path d="M4.417 76.2c105.069 63.147 160.591 146.429 166.567 249.846" stroke="#fff" stroke-width="1.32"/><path d="M490.846 98.789c-98.816 54.697-158.831 61.634-180.044 20.811-31.82-61.234 66.228-74.172 66.739-27.45.51 46.723-78.03 61.179-173.908 50.142-63.919-7.358-148.827 16.256-254.725 70.841M236.682 344.909c7.947-70.282 33.027-102.015 75.24-95.199 42.212 6.816 82.432 37.803 120.658 92.96" stroke="#fff" stroke-width="1.32"/><path d="M476.559 148.679c-93.024 50.069-148.874 127.087-167.549 231.054" stroke="#fff" stroke-width="1.32"/><path d="M31.713-18.896C200.87 68.864 313.575 207.553 369.83 397.169" stroke="#fff" stroke-width="1.32"/><path d="M147.428-173.716c-58.088-4.493-85.094 13.118-81.017 52.834 6.115 59.575 56.151 183.257-54.42 170.529M-22.371 169.556c24.455 75.999 65.175 104.918 122.16 86.755 85.478-27.243 112.657-30.195 139.719-11.697 18.041 12.332 27.242 48.662 27.601 108.991" stroke="#fff" stroke-width="1.32"/></g></g><mask id="d" style="mask-type:alpha" maskUnits="userSpaceOnUse" x="57" y="188" width="42" height="41"><path d="m57.745 202.011 12.37-13.264 27.995 26.106-12.37 13.265-27.995-26.107Z" fill="#fff"/></mask><g mask="url(#d)"><path d="m57.745 202.011 12.37-13.264 27.995 26.106-12.37 13.265-27.995-26.107Z" fill="#fff" stroke="#01133B" stroke-width="1.525" stroke-linecap="round" stroke-linejoin="round"/><path d="M85.073 199.838c7.715-8.274 7.76-20.772.099-27.915-7.66-7.143-20.125-6.227-27.84 2.047-7.715 8.273-7.76 20.771-.1 27.914 7.66 7.144 20.125 6.227 27.84-2.046Z" fill="#01133B"/></g><path fill-rule="evenodd" clip-rule="evenodd" d="M144.506 307.327c3.7-13.486 13.727-27.431 30.081-41.838 24.53-21.609 43.293-49.585 60.968-73.932 17.674-24.347 22.331-19.569 33.945-26.941 11.613-7.373 4.906-32.21 18.426-42.967 15.337 9.025 34.273 19.994 56.807 32.908L170.469 329.152l-25.963-21.825Z" fill="#fff" stroke="#01133B" stroke-width="1.32" stroke-linecap="round" stroke-linejoin="round"/><path fill-rule="evenodd" clip-rule="evenodd" d="m332.158 121.24-15.622 17.028 20.543 11.747 11.318-11.963v-14.893l-16.239-1.919Z" fill="#fff" stroke="#01133B" stroke-width="1.32" stroke-linecap="round" stroke-linejoin="round"/><path fill-rule="evenodd" clip-rule="evenodd" d="M326.834 120.562c2.978-.91 5.996.067 9.081 2.792 7.679 6.783 12.32 13.231 13.872 19.373l13.898-8.06a33.94 33.94 0 0 0 7.383-5.78l3.238-3.353-58.383-57.27a2.557 2.557 0 0 0-1.827-.72 2.56 2.56 0 0 0-2.3 1.521l-1.304 2.925a11.478 11.478 0 0 0 .899 10.99l11.07 16.802a20.947 20.947 0 0 1 3.371 9.648l1.002 11.132Z" fill="#fff" stroke="#01133B" stroke-width="1.32" stroke-linecap="round" stroke-linejoin="round"/><mask id="e" style="mask-type:alpha" maskUnits="userSpaceOnUse" x="310" y="68" width="64" height="74"><path d="m326.489 109.371.933 10.362c2.92-.595 5.896.448 8.929 3.127 7.46 6.588 12.075 12.877 13.846 18.866l13.156-7.63a33.237 33.237 0 0 0 7.24-5.668l2.783-2.882a.634.634 0 0 0-.016-.898l-57.895-55.91a1.907 1.907 0 0 0-3.066.596l-1.304 2.925a10.819 10.819 0 0 0 .847 10.359l11.07 16.802a21.611 21.611 0 0 1 3.477 9.951Z" fill="#fff"/></mask><g mask="url(#e)"><path clip-rule="evenodd" d="M326.834 120.562c2.978-.91 5.996.067 9.081 2.792 7.679 6.783 12.32 13.231 13.872 19.373l13.898-8.06a33.94 33.94 0 0 0 7.383-5.78l3.238-3.353-58.383-57.27a2.557 2.557 0 0 0-1.827-.72 2.56 2.56 0 0 0-2.3 1.521l-1.304 2.925a11.478 11.478 0 0 0 .899 10.99l11.07 16.802a20.947 20.947 0 0 1 3.371 9.648l1.002 11.132Z" stroke="#01133B" stroke-width="1.32"/><path d="m332.26 127.991 12.836-8.77 17.651 2.668" stroke="#01133B" stroke-width="6.355" stroke-linejoin="round"/><path fill-rule="evenodd" clip-rule="evenodd" d="m309.261 69.92 63.335 61.162 3.584-3.712-63.335-61.16-3.584 3.71Z" fill="#01133B"/><path fill-rule="evenodd" clip-rule="evenodd" d="m361.22 112.327-3.041 5.812a15.25 15.25 0 0 0 .528 15.073l4.608 7.48 17.454-5.304 2.869-15.673-14.771-9.123-7.647 1.735Z" fill="#fff" stroke="#01133B" stroke-width="1.32" stroke-linecap="round" stroke-linejoin="round"/></g><path d="m320.32 99.153 4.75-3.13M323.058 104.369l6.538-1.403M324.509 110.917l5.682-.517" stroke="#01133B" stroke-width="1.32" stroke-linecap="round" stroke-linejoin="round"/><path fill-rule="evenodd" clip-rule="evenodd" d="m340.375 146.991-3.332 3.061-20.729-11.927 1.346-1.375 22.715 10.241Z" fill="#01133B"/><path d="M305.083 132.202c-7.665 8.078-7.665 27.772-19.156 40.343-11.49 12.57-17.687 11.499-28.8 23.624-11.114 12.126-13.361 18.3-21.851 32.393-5.661 9.396-22.283 28.704-49.867 57.923" stroke="#01133B" stroke-width="1.32" stroke-linecap="round" stroke-linejoin="round"/><path d="M191.968 280.478a24.705 24.705 0 0 0-30.297.285l-1.143.905" stroke="#01133B" stroke-width="1.32" stroke-linecap="round" stroke-linejoin="round"/><path d="M194.176 277.542c-10.503-7.998-25.09-7.865-35.447.322l-1.289 1.019" stroke="#01133B" stroke-width=".838" stroke-linecap="round" stroke-linejoin="round" stroke-dasharray="2.51 2.51"/><path fill-rule="evenodd" clip-rule="evenodd" d="M85.914 204.285 99.106 247.7l50.348-17.182a33.003 33.003 0 0 0 20.253-19.675l27.653-73.95-28.182-16.621-18.866 19.939-18.568 49.542-45.83 14.532Z" fill="#fff" stroke="#01133B" stroke-width="1.32" stroke-linecap="round" stroke-linejoin="round"/><path fill-rule="evenodd" clip-rule="evenodd" d="m170.654 123.777 2.579 3.013-18.282 17.194-2.338-4.069 18.041-16.138ZM189.913 156.71l15.094-40.575a5.24 5.24 0 0 0-3.085-6.74l-.034-.013a5.28 5.28 0 0 0-6.766 3.155l-7.476 20.538" fill="#fff"/><path d="m189.913 156.71 15.094-40.575a5.24 5.24 0 0 0-3.085-6.74l-.034-.013a5.28 5.28 0 0 0-6.766 3.155l-7.476 20.538" stroke="#01133B" stroke-width="1.32" stroke-linecap="round" stroke-linejoin="round"/><path fill-rule="evenodd" clip-rule="evenodd" d="m187.702 133.061 7.523-20.668a5.11 5.11 0 0 0-3.096-6.565 5.199 5.199 0 0 0-6.621 3.123l-7.523 20.667" fill="#fff"/><path d="m187.702 133.061 7.523-20.668a5.11 5.11 0 0 0-3.096-6.565 5.199 5.199 0 0 0-6.621 3.123l-7.523 20.667" stroke="#01133B" stroke-width="1.32" stroke-linecap="round" stroke-linejoin="round"/><path fill-rule="evenodd" clip-rule="evenodd" d="m177.985 129.618 7.522-20.667a5.11 5.11 0 0 0-3.054-6.551l-.041-.014a5.198 5.198 0 0 0-6.621 3.122l-7.523 20.667" fill="#fff"/><path d="m177.985 129.618 7.522-20.667a5.11 5.11 0 0 0-3.054-6.551l-.041-.014a5.198 5.198 0 0 0-6.621 3.122l-7.523 20.667" stroke="#01133B" stroke-width="1.32" stroke-linecap="round" stroke-linejoin="round"/><path fill-rule="evenodd" clip-rule="evenodd" d="M169.392 122.846a19.89 19.89 0 0 0-.091-.369c-2.153-8.388-9.907-14.45-18.918-14.135a5.279 5.279 0 0 0 .186 10.554l.182-.003a8.295 8.295 0 1 1 .579 16.58 8.296 8.296 0 0 1-8.57-7.783l-.01-.218a5.279 5.279 0 0 0-10.551.369c.321 9.196 7.176 16.623 15.948 17.974h.516m21.54-24.992-1.685 4.671 1.685-4.671Z" fill="#fff"/><path d="M169.392 122.846a19.89 19.89 0 0 0-.091-.369c-2.153-8.388-9.907-14.45-18.918-14.135a5.279 5.279 0 0 0 .186 10.554l.182-.003a8.295 8.295 0 1 1 .579 16.58 8.296 8.296 0 0 1-8.57-7.783l-.01-.218a5.279 5.279 0 0 0-10.551.369c.321 9.196 7.176 16.623 15.948 17.974h.516m21.54-24.992-1.685 4.671" stroke="#01133B" stroke-width="1.32" stroke-linecap="round" stroke-linejoin="round"/><path fill-rule="evenodd" clip-rule="evenodd" d="M79.265 212.602a16.422 16.422 0 0 0 1.73 20.247l87.521 93.525 38.332-26.926-61.788-66.244 2.489-.528a35.205 35.205 0 0 0 25.422-21.468l15.289-38.584-47.953-22.647-14.414 36.746-27.436 10.465a40.053 40.053 0 0 0-19.192 15.414Z" fill="#EDEEF2" stroke="#01133B" stroke-width="1.525" stroke-linecap="round" stroke-linejoin="round"/><path fill-rule="evenodd" clip-rule="evenodd" d="m137.755 147.749-7.944 16.143 58.907 24.415 2.992-17.89-53.955-22.668Z" fill="#EDEEF2" stroke="#01133B" stroke-width="1.525" stroke-linecap="round" stroke-linejoin="round"/><path d="m146.308 232.916-24.567 5.096" stroke="#01133B" stroke-width="1.32" stroke-linecap="round" stroke-linejoin="round"/><path fill-rule="evenodd" clip-rule="evenodd" d="m133.525 166.709 47.59 22.558 1.445-3.652-48.463-19.969-.572 1.063ZM43.566 172.266c6.344-6.802 17-7.174 23.802-.831.165.154.327.311.486.471l3.45 3.488c6.58 6.649 6.737 17.307.357 24.148-6.307 6.764-16.902 7.134-23.665.827l-3.565-3.324c-7.081-6.603-7.468-17.697-.864-24.779Z" fill="#01133B"/><path fill-rule="evenodd" clip-rule="evenodd" d="m69.834 172.467 7.732 7.209c5.86 5.465 6.18 14.646.715 20.507-5.465 5.86-14.646 6.181-20.507.716l-7.73-7.209c-5.861-5.465-6.181-14.646-.716-20.507 5.465-5.86 14.646-6.181 20.506-.716Z" fill="#fff" stroke="#01133B" stroke-width="1.32" stroke-linecap="round" stroke-linejoin="round"/><path fill-rule="evenodd" clip-rule="evenodd" d="m72.834 177 2.936.239 1.845.727.355 3.824-3.867-1.838L72.834 177Z" fill="#fff"/><path d="M78.697 190.046a4.934 4.934 0 0 1-6.973.244" stroke="#01133B" stroke-width="1.32" stroke-linecap="round" stroke-linejoin="round"/><path fill-rule="evenodd" clip-rule="evenodd" d="M43.64 177.213c-4.354 1.425-5.434 4.575-3.24 9.45 1.737 3.861 6.261 10.1 17.62 14.532.47.184-2.827-6.06-2.916-6.668-.672-4.608-2.22-8.93-4.645-12.966-2.743-4.569-5.016-6.018-6.819-4.348Z" fill="#01133B"/><path fill-rule="evenodd" clip-rule="evenodd" d="M38.805 178.96c-2.172.664-15.702-2.574-7.685 5.423 2.771 2.764 8.64 8.717 13.586 13.76 3.07 3.13 6.33 4.689 8.265 5.261.414.071-4.593-5.438-4.682-6.046-.673-4.608-.413-8.164-2.837-12.2-4.115-6.853-4.475-6.862-6.647-6.198Z" fill="#01133B"/><path fill-rule="evenodd" clip-rule="evenodd" d="m54.547 193.746-1.34 1.056a3.489 3.489 0 0 0 .061 5.525 6.617 6.617 0 0 0 7.463.342l.745-.461" fill="#fff"/><path d="m54.547 193.746-1.34 1.056a3.489 3.489 0 0 0 .061 5.525 6.617 6.617 0 0 0 7.463.342l.745-.461M55.28 197.137l2.158 2.013M56.636 198.402l-1.754.25" stroke="#01133B" stroke-width="1.32" stroke-linecap="round" stroke-linejoin="round"/><path fill-rule="evenodd" clip-rule="evenodd" d="m74.196 176.635 5.83 2.018-1.257 3.45" fill="#fff"/><path d="m74.196 176.635 5.83 2.018-1.257 3.45" stroke="#01133B" stroke-width="1.32" stroke-linecap="round" stroke-linejoin="round"/><path d="M70.21 182.291c1.077-1.154 1.412-2.592.749-3.211-.664-.618-2.075-.183-3.152.971-1.076 1.155-1.412 2.593-.749 3.212.664.618 2.075.183 3.152-.972Z" stroke="#01133B" stroke-width=".88" stroke-linecap="round" stroke-linejoin="round"/><path d="M70.21 182.291c.646-.692.632-1.756-.031-2.374-.664-.619-1.725-.558-2.371.134-.647.693-.633 1.757.03 2.375.664.619 1.726.558 2.372-.135Z" fill="#01133B"/><path fill-rule="evenodd" clip-rule="evenodd" d="M43.54 176.341c5.742-10.043 11.894-15.919 18.454-17.627 9.84-2.562 15.64 13.22-.847 23.709-10.991 6.992-16.86 4.965-17.608-6.082Z" fill="#01133B"/><path fill-rule="evenodd" clip-rule="evenodd" d="M39.23 184.01c-2.43-3.796 1.833-20.937 9.573-24.263 5.16-2.216 8.032 2.267 8.616 13.452-10.504 9.738-16.567 13.342-18.188 10.811Z" fill="#01133B"/></g></svg>