<svg viewBox="0 0 400 300" fill="none" xmlns="http://www.w3.org/2000/svg"><mask id="a" style="mask-type:alpha" maskUnits="userSpaceOnUse" x="22" y="18" width="356" height="263"><path d="M218.884 23.357c82.683-22.239 129.971 36.532 147.37 89.754 17.4 53.221 22.309 149.974-44.9 164.849-67.208 14.875-105.35-38.716-196.56-22.827-91.21 15.888-137.895-139.197-69.693-197.004 68.202-57.807 81.1-12.533 163.783-34.772Z" fill="#fff"/></mask><g mask="url(#a)"><path d="M218.884 23.357c82.683-22.239 129.971 36.532 147.37 89.754 17.4 53.221 22.309 149.974-44.9 164.849-67.208 14.875-105.35-38.716-196.56-22.827-91.21 15.888-137.895-139.197-69.693-197.004 68.202-57.807 81.1-12.533 163.783-34.772Z" fill="#F2F5FF"/><path d="M171.571 16.445c5.252 68.142 28.509 89.707 72.128 104.065 43.619 14.359 80.99 4.075 123.882-29.812" stroke="#fff" stroke-width="1.327"/><path d="M199.501 19.435c9.477 48.837-17.78 98.824-81.624 101.493-95.766 4.002-26.578-68.665 6.093-39.697 32.671 28.967 30.011 91.689-20.965 134.679-13.325 11.237-27.377 20.27-42.157 27.101" stroke="#fff" stroke-width="1.327"/><path d="M22.111 215.771c36.243 6.488 80.133 22.933 88.612 77.252M393.546 127.83c-62.639 62.474-106.363 80.638-131.174 54.492-37.217-39.219 33.871-70.102 44.357-35.051 10.485 35.051-45.574 62.869-120.209 75.241M317.214 35.8c-48.499 1.434-92.392-1.348-131.678-8.347" stroke="#fff" stroke-width="1.327"/><path d="M255.876.164c0 35.352 20.444 64.01 45.663 64.01 14.843 0 28.031-9.927 36.371-25.304M393.545 168.423c-36.636 35.688-60.349 76.059-71.139 121.112M22.111 138.293c111.978 22.606 205.522 74.739 280.632 156.399" stroke="#fff" stroke-width="1.327"/><path d="M75.907-3.24c-44.762 9.15-61.311 28.234-49.65 57.252 17.494 43.526 81.96 125.834-4.146 140.11" stroke="#fff" stroke-width="1.327"/><path fill-rule="evenodd" clip-rule="evenodd" d="M259.788 31.805 377.377 187.72c-.844 41.572-14.998 81.159-56.023 90.239-67.208 14.876-105.35-38.715-196.56-22.827-5.431.946-10.703 1.286-15.803 1.077l-53.328-70.713a1.535 1.535 0 0 1 .303-2.151l78.186-58.868a30.888 30.888 0 0 1-4.748-5.018c-10.238-13.575-7.516-32.876 6.079-43.112 13.594-10.236 32.914-7.53 43.151 6.045a30.887 30.887 0 0 1 3.52 5.943l75.481-56.832a1.538 1.538 0 0 1 2.153.302ZM145.227 89.76c-5.49 4.133-6.589 11.928-2.455 17.41a12.398 12.398 0 0 0 7.997 4.796l14.294-10.763a12.376 12.376 0 0 0-2.409-9.002c-4.135-5.482-11.937-6.575-17.427-2.441Z" fill="#D4DFFF"/><mask id="b" style="mask-type:alpha" maskUnits="userSpaceOnUse" x="58" y="27" width="418" height="435"><path d="M258.993 27.77 58.316 184.55a.77.77 0 0 0-.133 1.082L273.86 461.68a.771.771 0 0 0 1.082.133l200.677-156.781a.77.77 0 0 0 .132-1.082L260.075 27.902a.77.77 0 0 0-1.082-.133Z" fill="#fff"/></mask><g mask="url(#b)"><path d="M258.993 27.77 58.316 184.55a.77.77 0 0 0-.133 1.082L273.86 461.68a.771.771 0 0 0 1.082.133l200.677-156.781a.77.77 0 0 0 .132-1.082L260.075 27.902a.77.77 0 0 0-1.082-.133Z" fill="#3D66EE"/><path fill-rule="evenodd" clip-rule="evenodd" d="M135.482 78.185c13.468-10.522 32.878-8.182 43.354 5.226a30.619 30.619 0 0 1 5.065 9.577l17.277-13.498c7.992-6.244 19.534-4.826 25.779 3.168l7.111 9.101a6.816 6.816 0 0 1-1.174 9.568l-98.992 77.339a6.816 6.816 0 0 1-9.568-1.176l-7.111-9.101c-6.245-7.994-4.829-19.535 3.163-25.779l17.746-13.864a30.634 30.634 0 0 1-8.067-7.232c-10.476-13.408-8.051-32.808 5.417-43.33Zm9.979 13.255c-5.439 4.25-6.418 12.084-2.187 17.499 4.23 5.415 12.069 6.36 17.508 2.111 5.439-4.25 6.418-12.084 2.188-17.499-4.231-5.415-12.07-6.36-17.509-2.11Z" fill="#0F39C2"/></g><path fill-rule="evenodd" clip-rule="evenodd" d="M82.309 165.603a.771.771 0 0 1 1.082.133l215.674 276.045a.771.771 0 0 1-.133 1.082l-.607.474a.77.77 0 0 1-1.082-.133L81.569 167.16a.77.77 0 0 1 .133-1.082l.607-.475Zm25.505-19.926a.771.771 0 0 1 1.082.133l215.673 276.045a.77.77 0 0 1-.132 1.082l-.607.474a.77.77 0 0 1-1.082-.133L107.074 147.234a.77.77 0 0 1 .133-1.082l.607-.475Zm25.505-19.926a.771.771 0 0 1 1.082.133l215.673 276.045a.77.77 0 0 1-.132 1.082l-.607.474a.77.77 0 0 1-1.082-.133L132.579 127.308a.77.77 0 0 1 .133-1.082l.607-.475Zm25.505-19.926a.771.771 0 0 1 1.082.133l215.673 276.045a.77.77 0 0 1-.132 1.082l-.608.474a.77.77 0 0 1-1.081-.133L158.084 107.382a.77.77 0 0 1 .133-1.082l.607-.475Zm25.505-19.926a.771.771 0 0 1 1.082.133l215.673 276.045a.77.77 0 0 1-.132 1.082l-.608.474a.77.77 0 0 1-1.081-.133L183.589 87.456a.77.77 0 0 1 .133-1.082l.607-.475Zm25.505-19.926a.77.77 0 0 1 1.082.133l215.673 276.045a.77.77 0 0 1-.132 1.082l-.608.474a.77.77 0 0 1-1.081-.133L209.094 67.529a.77.77 0 0 1 .133-1.081l.607-.475Zm25.505-19.926a.771.771 0 0 1 1.082.133l215.673 276.045a.77.77 0 0 1-.132 1.082l-.608.474a.77.77 0 0 1-1.081-.133L234.599 47.603a.77.77 0 0 1 .133-1.081l.607-.475Z" fill="#2F4BD7"/><path fill-rule="evenodd" clip-rule="evenodd" d="m95.652 186.645 158.731-124.01a6.443 6.443 0 0 1 9.044 1.112l180.196 230.636a6.442 6.442 0 0 1-1.018 8.971l-105.827 85.827c-24.137 19.575-86.159 10.294-105.765-14.971-21.429-27.617-66.936-87.145-136.52-178.585a6.444 6.444 0 0 1 1.16-8.98Z" fill="#3351E5"/><path fill-rule="evenodd" clip-rule="evenodd" d="m96.094 189.634 158.731-124.01a6.444 6.444 0 0 1 9.045 1.112L444.065 297.37a6.444 6.444 0 0 1-1.017 8.972L337.22 392.17c-24.137 19.575-86.159 10.294-105.765-14.972-21.429-27.616-66.936-87.144-136.52-178.584a6.444 6.444 0 0 1 1.16-8.98Z" fill="#0F39C2"/><mask id="c" style="mask-type:alpha" maskUnits="userSpaceOnUse" x="93" y="61" width="353" height="330"><path d="M95.7 186.608 254.383 62.636a6.444 6.444 0 0 1 9.045 1.111l180.225 230.674a6.443 6.443 0 0 1-.981 8.942c-46.109 37.96-79.589 64.749-100.44 80.367-12.048 10.039-92.678 9.889-106.664-7.272-9.183-11.267-56.18-71.541-140.99-180.822a6.443 6.443 0 0 1 1.122-9.028Z" fill="#fff"/></mask><g mask="url(#c)"><path d="M95.7 186.608 254.383 62.636a6.444 6.444 0 0 1 9.045 1.111l180.225 230.674a6.443 6.443 0 0 1-.981 8.942c-46.109 37.96-79.589 64.749-100.44 80.367-12.048 10.039-92.678 9.889-106.664-7.272-9.183-11.267-56.18-71.541-140.99-180.822a6.443 6.443 0 0 1 1.122-9.028Z" fill="#DBE3FF"/><path fill-rule="evenodd" clip-rule="evenodd" d="M136.304 78.306c13.468-10.522 32.878-8.182 43.354 5.227a30.62 30.62 0 0 1 5.065 9.576L202 79.611c7.992-6.244 19.533-4.825 25.779 3.168l7.111 9.102a6.815 6.815 0 0 1-1.174 9.567l-98.993 77.34a6.816 6.816 0 0 1-9.567-1.176l-7.111-9.102c-6.246-7.993-4.83-19.535 3.162-25.779l17.746-13.864a30.624 30.624 0 0 1-8.066-7.231c-10.476-13.409-8.051-32.808 5.417-43.33Zm9.979 13.256c-5.439 4.25-6.418 12.084-2.188 17.499 4.231 5.414 12.07 6.359 17.509 2.11 5.439-4.249 6.418-12.083 2.187-17.498-4.23-5.415-12.069-6.36-17.508-2.11Z" fill="#5868AC"/></g><mask id="d" style="mask-type:alpha" maskUnits="userSpaceOnUse" x="116" y="70" width="123" height="110"><path d="M138.377 77.055c13.446-10.506 32.859-8.127 43.36 5.313a30.801 30.801 0 0 1 5.083 9.595l17.193-13.432c8.011-6.26 19.58-4.837 25.84 3.175l7.137 9.136a6.815 6.815 0 0 1-1.173 9.567l-98.82 77.205a6.817 6.817 0 0 1-9.568-1.176l-7.138-9.136c-6.26-8.012-4.84-19.581 3.171-25.84l17.661-13.797a30.821 30.821 0 0 1-8.08-7.254c-10.501-13.44-8.112-32.851 5.334-43.356Zm10.004 13.286c-5.431 4.243-6.395 12.082-2.154 17.51 4.24 5.427 12.08 6.388 17.51 2.145 5.431-4.242 6.395-12.081 2.154-17.509-4.24-5.428-12.08-6.388-17.51-2.146Z" fill="#fff"/></mask><g mask="url(#d)"><path d="M138.377 77.055c13.446-10.506 32.859-8.127 43.36 5.313a30.801 30.801 0 0 1 5.083 9.595l17.193-13.432c8.011-6.26 19.58-4.837 25.84 3.175l7.137 9.136a6.815 6.815 0 0 1-1.173 9.567l-98.82 77.205a6.817 6.817 0 0 1-9.568-1.176l-7.138-9.136c-6.26-8.012-4.84-19.581 3.171-25.84l17.661-13.797a30.821 30.821 0 0 1-8.08-7.254c-10.501-13.44-8.112-32.851 5.334-43.356Zm10.004 13.286c-5.431 4.243-6.395 12.082-2.154 17.51 4.24 5.427 12.08 6.388 17.51 2.145 5.431-4.242 6.395-12.081 2.154-17.509-4.24-5.428-12.08-6.388-17.51-2.146Z" fill="#D6DBEF"/><path d="m243.065 80.898-126.216 98.61 9.653 12.355 126.216-98.61-9.653-12.355Z" fill="#F4F5F9"/></g><path fill-rule="evenodd" clip-rule="evenodd" d="M291.9 210.182c13.78 10.475 24.821 18.101 33.122 22.878 12.453 7.164 26.06 20.706 38.435 31.568 8.25 7.24 25.572 21.732 51.967 43.473l-33.971 35.406-96.198-83.425 7.091 102.467-45.208-10.108-21.362-94.231 66.124-48.028Z" fill="#fff" stroke="#01133B" stroke-width="1.327" stroke-linecap="round" stroke-linejoin="round"/><path d="M279.375 221.788c8.425 8.229 21.347 9.72 31.422 3.626l1.014-.613" stroke="#01133B" stroke-width="1.327" stroke-linecap="round" stroke-linejoin="round"/><path d="M276.783 224.564c9.806 9.563 24.845 11.266 36.538 4.139l1.524-.929" stroke="#01133B" stroke-width=".842" stroke-linecap="round" stroke-linejoin="round" stroke-dasharray="2.53 2.53"/><path d="M248.848 246.544a22.88 22.88 0 0 1-6.469 27.56l-2.584 2.06" stroke="#01133B" stroke-width="1.327" stroke-linecap="round" stroke-linejoin="round"/><path d="M252.8 244.681c5.131 11.053 1.997 24.183-7.573 31.723l-3.616 2.85" stroke="#01133B" stroke-width=".842" stroke-linecap="round" stroke-linejoin="round" stroke-dasharray="2.53 2.53"/><path d="m264.123 234.063 21.032 27.702M270.044 229.311l14.002 18.566a12.98 12.98 0 0 1 1.11 13.888" stroke="#01133B" stroke-width="1.327" stroke-linecap="round" stroke-linejoin="round"/><path fill-rule="evenodd" clip-rule="evenodd" d="m182.977 139.02-5.156 7.074a5.84 5.84 0 0 0 1.28 8.16l.014.011a5.876 5.876 0 0 0 8.195-1.298l13.276-18.216" fill="#fff"/><path d="m182.977 139.02-5.156 7.074a5.84 5.84 0 0 0 1.28 8.16l.014.011a5.876 5.876 0 0 0 8.195-1.298l13.276-18.216" stroke="#01133B" stroke-width="1.327" stroke-linecap="round" stroke-linejoin="round"/><path d="m202.203 96.954 4.407 35.871-33.094 4.061-4.406-35.871 33.093-4.061Z" fill="#fff"/><path fill-rule="evenodd" clip-rule="evenodd" d="m247.159 133.931-92.617 12.914a6.003 6.003 0 0 1-6.756-4.994 5.867 5.867 0 0 1 4.874-6.726l24.07-3.811" fill="#fff"/><path d="m247.159 133.931-92.617 12.914a6.003 6.003 0 0 1-6.756-4.994 5.867 5.867 0 0 1 4.874-6.726l24.07-3.811" stroke="#01133B" stroke-width="1.327" stroke-linecap="round" stroke-linejoin="round"/><path fill-rule="evenodd" clip-rule="evenodd" d="m176.731 131.318-24.208 3.832a5.704 5.704 0 0 1-6.526-4.742l-.005-.036a5.777 5.777 0 0 1 4.807-6.574l24.214-3.834" fill="#fff"/><path d="m176.731 131.318-24.207 3.832a5.705 5.705 0 0 1-6.527-4.742l-.005-.036a5.777 5.777 0 0 1 4.807-6.574l24.214-3.834" stroke="#01133B" stroke-width="1.327" stroke-linecap="round" stroke-linejoin="round"/><path fill-rule="evenodd" clip-rule="evenodd" d="m175.014 119.966-24.112 3.818a5.776 5.776 0 0 1-6.606-4.8l-.01-.07a5.879 5.879 0 0 1 4.932-6.662l24.092-3.668" fill="#fff"/><path d="m175.014 119.966-24.112 3.818a5.776 5.776 0 0 1-6.606-4.8l-.01-.07a5.879 5.879 0 0 1 4.932-6.662l24.092-3.668" stroke="#01133B" stroke-width="1.327" stroke-linecap="round" stroke-linejoin="round"/><path fill-rule="evenodd" clip-rule="evenodd" d="m173.442 108.2-23.987 3.944a6.037 6.037 0 0 1-6.936-4.979l-.009-.056a6.128 6.128 0 0 1 5.085-6.988l69.147-11.077" fill="#fff"/><path d="m173.442 108.2-23.987 3.944a6.037 6.037 0 0 1-6.936-4.979l-.009-.056a6.128 6.128 0 0 1 5.085-6.988l69.147-11.077" stroke="#01133B" stroke-width="1.327" stroke-linecap="round" stroke-linejoin="round"/><path fill-rule="evenodd" clip-rule="evenodd" d="m200.758 95.772 66.713-4.323c10.677-.691 19.896 7.404 20.59 18.082a19.376 19.376 0 0 1-2.917 11.546l-23.232 37.063 34.548 49.822-66.856 50.898-7.924-12.203-38.103 27.071c-7.963 5.657-19.007 3.787-24.666-4.178a17.694 17.694 0 0 1-3.27-10.43l.589-57.143a21.897 21.897 0 0 1 7.878-16.597l36.019-30.015 23.624-27.908-21.058 5.175-1.935-36.86Z" fill="#fff" stroke="#01133B" stroke-width="1.327" stroke-linecap="round" stroke-linejoin="round"/><path d="m187.672 172.49 26.172-2.014.784-27.42" stroke="#01133B" stroke-width="1.327"/><path fill-rule="evenodd" clip-rule="evenodd" d="m197.003 85.424 5.696 56.694 9.175-.705 84.317 82.478a26.983 26.983 0 0 0 19.894 7.674l21.856-.833-72.122-73.153 27.694-52.839c4.875-9.3 1.287-20.794-8.015-25.671a19.017 19.017 0 0 0-10.881-2.064l-77.614 8.419Z" fill="#EDEEF2" stroke="#01133B" stroke-width="1.327" stroke-linejoin="round"/><path fill-rule="evenodd" clip-rule="evenodd" d="m194.873 82.547 20.938-5.94 5.57 52.578-9.77 12.539-9.705 1.191-7.033-60.368Z" fill="#EDEEF2" stroke="#01133B" stroke-width="1.327" stroke-linejoin="round"/><path d="m222.605 127.456 12.792 24.501 13.51.001a12.387 12.387 0 0 1 11.159 7.016l26.768 55.652" stroke="#01133B" stroke-width="1.327" stroke-linecap="round"/><path fill-rule="evenodd" clip-rule="evenodd" d="M217.044 83.748h.986l5.601 41.541-2.247 3.894-4.34-45.435Z" fill="#01133B"/><path fill-rule="evenodd" clip-rule="evenodd" d="m221.244 190.997 2.718-8.322a5.842 5.842 0 0 0-3.74-7.365l-.017-.006a5.875 5.875 0 0 0-7.392 3.766l-6.997 21.428" fill="#fff"/><path d="m221.244 190.997 2.718-8.322a5.842 5.842 0 0 0-3.74-7.365l-.017-.006a5.875 5.875 0 0 0-7.392 3.766l-6.997 21.428" stroke="#01133B" stroke-width="1.327" stroke-linecap="round" stroke-linejoin="round"/><path d="m204.116 167.212 30.42 46.842a6.57 6.57 0 0 0 9.089 1.932l21.122-13.715a6.57 6.57 0 0 0 1.931-9.089l-30.42-46.841a6.57 6.57 0 0 0-9.089-1.933l-21.121 13.716a6.57 6.57 0 0 0-1.932 9.088Z" fill="#01133B"/><path d="m209.046 205.072 19.684 30.309 27.963-18.158-19.684-30.31-27.963 18.159Z" fill="#fff"/><path fill-rule="evenodd" clip-rule="evenodd" d="m198.376 262.293 79.253-49.637a6.003 6.003 0 0 0 1.965-8.167 5.867 5.867 0 0 0-8.046-2.026l-.011.007-20.889 12.551" fill="#fff"/><path d="m198.376 262.293 79.253-49.637a6.003 6.003 0 0 0 1.965-8.167 5.867 5.867 0 0 0-8.046-2.026l-.011.007-20.889 12.551" stroke="#01133B" stroke-width="1.327" stroke-linecap="round" stroke-linejoin="round"/><path fill-rule="evenodd" clip-rule="evenodd" d="m250.649 215.022 21.008-12.623a5.703 5.703 0 0 0 1.951-7.827l-.019-.031a5.777 5.777 0 0 0-7.908-1.946l-21.014 12.626" fill="#fff"/><path d="m250.649 215.022 21.008-12.623a5.703 5.703 0 0 0 1.951-7.827l-.019-.031a5.777 5.777 0 0 0-7.908-1.946l-21.014 12.626" stroke="#01133B" stroke-width="1.327" stroke-linecap="round" stroke-linejoin="round"/><path fill-rule="evenodd" clip-rule="evenodd" d="m244.668 205.222 20.925-12.572a5.774 5.774 0 0 0 1.938-7.983 5.88 5.88 0 0 0-8.061-1.933l-20.814 12.674" fill="#fff"/><path d="m244.668 205.222 20.925-12.572a5.774 5.774 0 0 0 1.938-7.983 5.88 5.88 0 0 0-8.061-1.933l-20.814 12.674" stroke="#01133B" stroke-width="1.327" stroke-linecap="round" stroke-linejoin="round"/><path fill-rule="evenodd" clip-rule="evenodd" d="m238.31 195.2 20.909-12.396a6.038 6.038 0 0 0 2.114-8.272l-.03-.049a6.127 6.127 0 0 0-8.387-2.084l-60.091 35.959" fill="#fff"/><path d="m238.31 195.2 20.909-12.396a6.038 6.038 0 0 0 2.114-8.272l-.03-.049a6.127 6.127 0 0 0-8.387-2.084l-60.091 35.959" stroke="#01133B" stroke-width="1.327" stroke-linecap="round" stroke-linejoin="round"/><path fill-rule="evenodd" clip-rule="evenodd" d="m193.22 163.35-12.798-16.381 15.306-11.958 12.798 16.38" fill="#fff"/><path d="m193.22 163.35-12.798-16.381 15.306-11.958 12.798 16.38" stroke="#01133B" stroke-width="1.327" stroke-linecap="round" stroke-linejoin="round"/><mask id="e" style="mask-type:alpha" maskUnits="userSpaceOnUse" x="180" y="135" width="29" height="30"><path d="m180.422 146.969 15.306-11.958 11.137 14.254c3.303 4.227 2.554 10.331-1.673 13.633-4.227 3.303-10.331 2.552-13.634-1.675l-11.136-14.254Z" fill="#fff"/></mask><g mask="url(#e)"><path d="M199.759 144.074c9.547-7.459 11.696-20.662 4.799-29.49-6.898-8.827-20.229-9.937-29.776-2.478s-11.696 20.662-4.798 29.49c6.897 8.828 20.228 9.937 29.775 2.478Z" fill="#01133B"/></g><path d="M187.514 111.254c-5.96-7.629-16.975-8.982-24.603-3.023-7.627 5.959-8.979 16.974-3.018 24.603l4.029 5.157c5.96 7.628 16.975 8.982 24.603 3.023 7.627-5.959 8.979-16.974 3.018-24.603l-4.029-5.157Z" fill="#01133B"/><path fill-rule="evenodd" clip-rule="evenodd" d="M175.387 105.01c-.9-2.575.607-3.059 4.521-1.453 3.914 1.606 7.766 6.04 11.558 13.303-.93 1.372-1.576 2.044-1.938 2.016-5.058-.388-9.041-3.944-12.507-6.462-3.839-2.788-4.384-5.256-1.634-7.404Z" fill="#01133B"/><path fill-rule="evenodd" clip-rule="evenodd" d="m189.154 116.66 5.533 7.082c5.245 6.713 4.055 16.407-2.657 21.651-6.712 5.243-16.405 4.052-21.65-2.661l-5.533-7.082c-3.714-4.753-2.872-11.615 1.881-15.328l7.097-5.545c4.753-3.713 11.615-2.869 15.329 1.883Z" fill="#fff" stroke="#01133B" stroke-width="1.402" stroke-linecap="round" stroke-linejoin="round"/><path d="M187.204 138.619a5.241 5.241 0 0 0 .902-7.358M179.816 131.208l1.935 3.508 1.938-1.043" stroke="#01133B" stroke-width="1.402" stroke-linecap="round" stroke-linejoin="round"/><path d="M172.976 135.049c1.322-1.033 1.913-2.486 1.319-3.245-.593-.76-2.146-.538-3.468.495s-1.913 2.486-1.319 3.245c.593.76 2.146.538 3.468-.495Z" stroke="#01133B" stroke-width=".935" stroke-linecap="round" stroke-linejoin="round"/><path d="M172.976 135.049c.793-.62.955-1.738.362-2.497-.594-.76-1.718-.873-2.511-.253-.793.619-.955 1.738-.362 2.497.593.76 1.718.873 2.511.253Z" fill="#01133B"/><path d="M186.235 124.69c1.323-1.033 1.913-2.486 1.32-3.246-.593-.759-2.146-.538-3.468.495-1.323 1.033-1.913 2.486-1.32 3.246.594.759 2.146.538 3.468-.495Z" stroke="#01133B" stroke-width=".935" stroke-linecap="round" stroke-linejoin="round"/><path d="M186.235 124.69c.794-.62.956-1.738.362-2.498-.593-.759-1.717-.872-2.511-.253-.793.62-.955 1.738-.361 2.498.593.759 1.717.873 2.51.253Z" fill="#01133B"/><path fill-rule="evenodd" clip-rule="evenodd" d="M159.715 115.265c7.187-9.189 14.236-14.033 21.147-14.533 10.366-.75 14.173 16.512-4.019 24.111-12.129 5.066-17.838 1.873-17.128-9.578Z" fill="#01133B"/><path fill-rule="evenodd" clip-rule="evenodd" d="M156.076 122.296c-1.922-4.388 4.228-18.938 11.403-21.536 4.784-1.732 7.053 3.452 6.809 15.551-10.86 6.916-16.931 8.911-18.212 5.985Z" fill="#01133B"/><path fill-rule="evenodd" clip-rule="evenodd" d="M158.141 119.67c-4.235 1.192-5.623 3.811-4.164 7.858 1.459 4.046 5.383 7.583 11.773 10.609-.04-4.466-.948-8.899-2.725-13.298-1.776-4.399-3.404-6.122-4.884-5.169Z" fill="#01133B"/><path fill-rule="evenodd" clip-rule="evenodd" d="m189.278 116.816 1.468-1.559a4.379 4.379 0 0 1 6.904.681 8.31 8.31 0 0 1-.388 9.373l-.658.881-7.326-9.376Z" fill="#fff" stroke="#01133B" stroke-width="1.402" stroke-linecap="round" stroke-linejoin="round"/><path d="m193.44 118.106 2.281 2.92M194.874 119.942l.503-2.168" stroke="#01133B" stroke-width="1.402" stroke-linecap="round" stroke-linejoin="round"/><path fill-rule="evenodd" clip-rule="evenodd" d="m165.364 136.316-1.869 1.046a4.38 4.38 0 0 0-1.009 6.864 8.31 8.31 0 0 0 9.189 1.891l1.014-.425-7.325-9.376Z" fill="#fff" stroke="#01133B" stroke-width="1.402" stroke-linecap="round" stroke-linejoin="round"/><path d="m165.608 140.666 2.282 2.919M167.043 142.501l-2.225-.036" stroke="#01133B" stroke-width="1.402" stroke-linecap="round" stroke-linejoin="round"/><path fill-rule="evenodd" clip-rule="evenodd" d="M163.223 122.813c8.269-.142 16.503-2.717 24.702-7.726-2.376-2.471-5.877-4.675-10.504-6.612l-14.702 8.511.504 5.827Z" fill="#01133B"/><path d="m211.874 141.419 25.601-34.528" stroke="#01133B" stroke-width="1.327" stroke-linecap="round"/><path fill-rule="evenodd" clip-rule="evenodd" d="m184.775 167.995 22.454 28.281-1.419 4.225-1.632.93 25.331 41.451 11.675-7.496 18.834 30.09a19.015 19.015 0 0 1 1.512 17.217l-8.809 21.792-34.69-49.225-62.754 37.803.95-91.439a21.22 21.22 0 0 1 7.581-16.039l20.967-17.59Z" fill="#EDEEF2" stroke="#01133B" stroke-width="1.327" stroke-linejoin="round"/><path d="m204.755 202.333-2.089-3.568-23.351 16.297" stroke="#01133B" stroke-width="1.327" stroke-linecap="round" stroke-linejoin="round"/><path d="m170.565 179.62 26.068 12.244-3.263 13.409" stroke="#01133B" stroke-width="1.327" stroke-linecap="round" stroke-linejoin="round"/><path d="m236.182 238.975 11.648 6.709" stroke="#01133B" stroke-width="1.327" stroke-linecap="round"/><path fill-rule="evenodd" clip-rule="evenodd" d="m186.994 203.246 17.116-8.393 31.141 51.839-16.586 13.392-31.671-56.838Z" fill="#EDEEF2" stroke="#01133B" stroke-width="1.327" stroke-linejoin="round"/><path fill-rule="evenodd" clip-rule="evenodd" d="m213.613 257.938 2.774-1.717-26.967-48.325-.572.461 24.765 49.581Z" fill="#01133B"/><path fill-rule="evenodd" clip-rule="evenodd" d="m388.035 224.615-12.746 15.605-15.962-15.996 10.286-14.006" fill="#fff"/><path d="m388.035 224.615-12.746 15.605-15.962-15.996 10.286-14.006" stroke="#01133B" stroke-width="1.327" stroke-linecap="round" stroke-linejoin="round"/><mask id="f" style="mask-type:alpha" maskUnits="userSpaceOnUse" x="364" y="184" width="82" height="47"><path d="m402.754 224.644-10.144 2.315c-.337-2.961-2.249-5.47-5.735-7.528-8.573-5.06-15.982-7.506-22.226-7.34l3.19-14.872a33.262 33.262 0 0 1 3.153-8.637l1.881-3.537a.636.636 0 0 1 .859-.263l71.079 37.796a1.907 1.907 0 0 1 .382 3.1l-2.379 2.144a10.822 10.822 0 0 1-10.115 2.394l-19.404-5.339a21.63 21.63 0 0 0-10.541-.233Z" fill="#fff"/></mask><g mask="url(#f)"><path clip-rule="evenodd" d="M391.999 227.779c-.053-3.115-1.915-5.684-5.461-7.776-8.827-5.21-16.396-7.632-22.718-7.209l3.371-15.713a33.911 33.911 0 0 1 3.215-8.81l2.19-4.118 72.527 37.839a2.566 2.566 0 0 1 1.251 1.518 2.56 2.56 0 0 1-.737 2.661l-2.379 2.144a11.484 11.484 0 0 1-10.735 2.541l-19.404-5.339a20.96 20.96 0 0 0-10.217-.226l-10.903 2.488Z" stroke="#01133B" stroke-width="1.327"/><path d="m383.26 224.911 4.374-14.92-7.996-15.965" stroke="#01133B" stroke-width="6.356" stroke-linejoin="round"/><path fill-rule="evenodd" clip-rule="evenodd" d="m445.605 228.841-77.753-41.343 2.422-4.555 77.753 41.343-2.422 4.555Z" fill="#01133B"/><path fill-rule="evenodd" clip-rule="evenodd" d="m389.208 192.524-4.588 4.689a15.254 15.254 0 0 1-14.501 4.155l-8.54-2.073-.351-18.241 14.021-7.571 13.245 11.232.714 7.809Z" fill="#fff" stroke="#01133B" stroke-width="1.327" stroke-linecap="round" stroke-linejoin="round"/></g><path fill-rule="evenodd" clip-rule="evenodd" d="m378.061 240.11-16.651-18.205-1.667 1.987 17.314 17.414 1.004-1.196Z" fill="#01133B"/><path fill-rule="evenodd" clip-rule="evenodd" d="M353.486 216.697c2.872 3.124 16.798 19.101 41.777 47.931l-119.227 61.433 27.706-44.53c7.519-6.938 14.171-15.984 19.956-27.138 8.679-16.73 22.331-33.989 29.788-37.696Z" fill="#fff" stroke="#01133B" stroke-width="1.327" stroke-linecap="round" stroke-linejoin="round"/></g></svg>