<svg viewBox="0 0 400 300" fill="none" xmlns="http://www.w3.org/2000/svg"><path fill-rule="evenodd" clip-rule="evenodd" d="M236.249 77.563c64.373 33.01 82.757 11.314 111.709 55.296 28.953 43.981 9.226 126.175-51.611 139.651-60.837 13.476-71.744-19.705-154.307-5.311-82.564 14.394-124.444-111.2-62.707-163.57 61.736-52.37 92.543-59.076 156.916-26.066Z" fill="#F2F5FF"/><mask id="a" style="mask-type:alpha" maskUnits="userSpaceOnUse" x="49" y="23" width="313" height="253"><path d="M245.015 33.86c64.373 33.01 73.991 55.017 102.943 98.999 28.953 43.981 9.226 126.175-51.611 139.651-60.837 13.476-71.744-19.705-154.307-5.311-82.564 14.394-124.444-111.2-62.707-163.569C141.07 51.26 180.642.85 245.015 33.86Z" fill="#fff"/></mask><g mask="url(#a)"><path fill-rule="evenodd" clip-rule="evenodd" d="M166.685 38.362c3.937-4.323 11.293-4.176 15.56.899 1.486 1.766 2.325 3.69 2.518 5.771 2.599-1.289 5.677-2.028 9.386-2.21 10.561-.521 20.761 6.526 21.327 17.918.566 11.392 15.737 9.754 22.19 20.232 2.323 3.772 2.105 7.952 1.587 12.104l-.089.692c-.076.576-.155 1.151-.231 1.724l-.09.687c-.808 6.282-1.011 12.247 7.378 16.345 10.168 4.968 16.074 11.913 17.719 20.834l-135.49-.842c-.435-9.9 3.853-16.805 12.864-20.714 13.517-5.864 2.572-22.368 13.517-33.484 10.945-11.116 15.611-11.116 19.463-20.533a41.311 41.311 0 0 1 1.444-3.167c-4.388-.228-7.966-2.78-9.053-3.882-2.843-2.884-3.936-8.052 0-12.374Z" fill="#01133B"/><path fill-rule="evenodd" clip-rule="evenodd" d="m252.648 116.798 40.137 35.103c9.587 8.384 11.821 22.418 5.312 33.365L283.8 209.312l-41.973-12.783 15.28-18.226-17.543-17.407v42.753h-59.36l-6.252-37.931-14.663 26.716c-4.089 7.452-13.358 10.307-20.932 6.448-7.596-3.87-10.787-13.043-7.233-20.792l24.544-53.515a21.793 21.793 0 0 1 16.095-12.389l34.187-5.914 35.608 5.383a21.791 21.791 0 0 1 11.09 5.143Z" fill="#fff" stroke="#01133B" stroke-width="1.32" stroke-linecap="round" stroke-linejoin="round"/><path d="M228.728 109.473c-2.61 19.36-9.976 29.04-22.099 29.04-12.122 0-20.596-9.364-25.421-28.091" stroke="#01133B" stroke-width="1.32" stroke-linecap="round" stroke-linejoin="round"/><path d="M383.29 189.198H38.287v114.218H383.29V189.198Z" fill="#F2F5FF"/><path d="M38.421 188.807h344.232" stroke="#01133B" stroke-width="1.32" stroke-linecap="round" stroke-linejoin="round"/><path fill-rule="evenodd" clip-rule="evenodd" d="m198.003 208.081 23.996 5.2a4.694 4.694 0 0 1 3.519 5.877l-10.55 36.923a4.695 4.695 0 0 1-5.508 3.298l-23.995-5.201a4.694 4.694 0 0 1-3.519-5.877l10.549-36.923a4.693 4.693 0 0 1 5.508-3.297Z" fill="#01133B"/><path fill-rule="evenodd" clip-rule="evenodd" d="m198.568 211.979 20.8 4.636a3.353 3.353 0 0 1 2.501 4.172l-9.037 32.43a3.352 3.352 0 0 1-3.959 2.372l-3.11-.693a.67.67 0 0 1-.525-.654v-.725a1.58 1.58 0 0 0-1.23-1.541l-9.516-2.164a1.946 1.946 0 0 0-2.055.825l-.488.738a.67.67 0 0 1-.705.285l-3.171-.706a3.353 3.353 0 0 1-2.5-4.173l9.036-32.429a3.353 3.353 0 0 1 3.959-2.373Z" fill="#fff"/><path fill-rule="evenodd" clip-rule="evenodd" d="M206.153 246.124c.41-1.667 2.094-2.71 3.761-2.331a3.037 3.037 0 0 1 2.274 3.705c-.411 1.666-2.095 2.71-3.762 2.33a3.035 3.035 0 0 1-2.273-3.704Zm-16.015-5.012 14.06 3.098-.677 2.665-14.059-3.098.676-2.665ZM208.835 237.406c.41-1.666 2.094-2.71 3.761-2.33a3.036 3.036 0 0 1 2.274 3.704c-.411 1.667-2.095 2.71-3.762 2.331a3.036 3.036 0 0 1-2.273-3.705Zm-16.014-5.011 14.059 3.098-.677 2.665-14.059-3.099.677-2.664ZM210.846 229.36c.411-1.667 2.095-2.71 3.762-2.331a3.036 3.036 0 0 1 2.273 3.705c-.41 1.667-2.094 2.71-3.761 2.331a3.037 3.037 0 0 1-2.274-3.705Zm-16.014-5.012 14.06 3.099-.677 2.665-14.059-3.099.676-2.665ZM213.529 220.643c.41-1.667 2.094-2.71 3.761-2.331a3.036 3.036 0 0 1 2.274 3.705c-.411 1.666-2.095 2.71-3.761 2.33a3.034 3.034 0 0 1-2.274-3.704Zm-16.014-5.012 14.059 3.099-.677 2.664-14.059-3.098.677-2.665Z" fill="#C7CAD5"/><path fill-rule="evenodd" clip-rule="evenodd" d="m259.768 175.657 39.188 8.001-23.439 39.343-22.107 10.584-18.56-2.261.866-27.055 24.052-28.612Z" fill="#fff"/><path fill-rule="evenodd" clip-rule="evenodd" d="m298.955 183.656-21.351 35.841a30.821 30.821 0 0 1-5.016 6.344l-9.004 8.732a8.36 8.36 0 0 0-2.456 7.173l.731 5.161a5.056 5.056 0 0 1-4.257 5.711 5.38 5.38 0 0 1-6.05-4.154l-.838-3.769a19.796 19.796 0 0 1 1.209-12.274l1.62-3.678" fill="#fff"/><path d="m298.955 183.656-21.351 35.841a30.821 30.821 0 0 1-5.016 6.344l-9.004 8.732a8.36 8.36 0 0 0-2.456 7.173l.731 5.161a5.056 5.056 0 0 1-4.257 5.711 5.38 5.38 0 0 1-6.05-4.154l-.838-3.769a19.796 19.796 0 0 1 1.209-12.274l1.62-3.678" stroke="#01133B" stroke-width="1.32" stroke-linecap="round" stroke-linejoin="round"/><path fill-rule="evenodd" clip-rule="evenodd" d="m228.579 209.694-10.743 1.922a4.915 4.915 0 0 1-5.691-3.902 4.719 4.719 0 0 1 3.851-5.556l24.132-4.047" fill="#fff"/><path d="m228.579 209.694-10.743 1.922a4.915 4.915 0 0 1-5.691-3.902 4.719 4.719 0 0 1 3.851-5.556l24.132-4.047" stroke="#01133B" stroke-width="1.32" stroke-linecap="round" stroke-linejoin="round"/><path fill-rule="evenodd" clip-rule="evenodd" d="m253.543 228.746-2.29 4.568a19.8 19.8 0 0 0-2.018 10.671l.383 4.193a5.056 5.056 0 0 1-4.577 5.495l-.107.009a5.581 5.581 0 0 1-5.909-4.75l-.796-5.366a19.797 19.797 0 0 1 2.432-12.788l2.045-3.549" fill="#fff"/><path d="m253.543 228.746-2.29 4.568a19.8 19.8 0 0 0-2.018 10.671l.383 4.193a5.056 5.056 0 0 1-4.577 5.495l-.107.009a5.581 5.581 0 0 1-5.909-4.75l-.796-5.366a19.797 19.797 0 0 1 2.432-12.788l2.045-3.549" stroke="#01133B" stroke-width="1.32" stroke-linecap="round" stroke-linejoin="round"/><path fill-rule="evenodd" clip-rule="evenodd" d="m242.708 227.23-3.187 5.048a19.792 19.792 0 0 0-3.047 9.973l-.119 3.953a5.074 5.074 0 0 1-5.13 4.922 5.299 5.299 0 0 1-5.231-5.031l-.421-8.348a10.173 10.173 0 0 1 1.434-5.739l7.049-11.761" fill="#fff"/><path d="m242.708 227.23-3.187 5.048a19.792 19.792 0 0 0-3.047 9.973l-.119 3.953a5.074 5.074 0 0 1-5.13 4.922 5.299 5.299 0 0 1-5.231-5.031l-.421-8.348a10.173 10.173 0 0 1 1.434-5.739l7.049-11.761" stroke="#01133B" stroke-width="1.32" stroke-linecap="round" stroke-linejoin="round"/><path fill-rule="evenodd" clip-rule="evenodd" d="m234.059 220.247-11.27 8.072-6.081 12.252a5.652 5.652 0 0 1-6.991 2.798 4.655 4.655 0 0 1-2.644-6.313l6.331-13.825a9.142 9.142 0 0 1 2.636-3.361l19.678-15.598 23.086-27.81" fill="#fff"/><path d="m234.059 220.247-11.27 8.072-6.081 12.252a5.652 5.652 0 0 1-6.991 2.798 4.655 4.655 0 0 1-2.644-6.313l6.331-13.825a9.142 9.142 0 0 1 2.636-3.361l19.678-15.598 23.086-27.81" stroke="#01133B" stroke-width="1.32" stroke-linecap="round" stroke-linejoin="round"/><path fill-rule="evenodd" clip-rule="evenodd" d="m227.233 109.473-4.026 79.334 22.618.296 4.104-3.928v-12.643l7.178 5.771-16.95 16.228 46.055 26.798 16.985-31.812c6.489-12.154 3.839-27.169-6.419-36.367l-39.847-35.733a27.29 27.29 0 0 0-16.099-6.888l-13.599-1.056Z" fill="#EDEEF2" stroke="#01133B" stroke-width="1.32" stroke-linecap="round" stroke-linejoin="round"/><path d="m239.277 110.238-7.776 28.274 9.942 5.922a11.441 11.441 0 0 1 4.661 14.334l-12.788 29.848M249.929 174.07v-8.669" stroke="#01133B" stroke-width="1.32" stroke-linecap="round" stroke-linejoin="round"/><path fill-rule="evenodd" clip-rule="evenodd" d="m185.488 109.473 3.432 79.725-49.025-2.372 16.93-74.224 28.663-3.129ZM238.844 190.221l70.487 8.495-23.005 27.756-52.041-29.102 4.559-7.149Z" fill="#EDEEF2" stroke="#01133B" stroke-width="1.32" stroke-linecap="round" stroke-linejoin="round"/><path fill-rule="evenodd" clip-rule="evenodd" d="m238.087 200.711 36.22 23.6 2.391-2.982-38.611-21.779v1.161Z" fill="#01133B"/><path fill-rule="evenodd" clip-rule="evenodd" d="m196.655 110.239-.028-18.049 20.117-2.793v20.842" fill="#fff"/><path d="m196.655 110.239-.028-18.049 20.117-2.793v20.842" stroke="#01133B" stroke-width="1.674" stroke-linecap="round" stroke-linejoin="round"/><mask id="b" style="mask-type:alpha" maskUnits="userSpaceOnUse" x="196" y="89" width="21" height="32"><path d="m196.627 92.19 20.117-2.793-.019 20.913c-.005 5.548-4.504 10.044-10.053 10.044-5.548 0-10.045-4.497-10.045-10.044V92.19Z" fill="#fff"/></mask><g mask="url(#b)"><path d="M215.321 105.294c14.639 0 26.506-10.988 26.506-24.543 0-13.554-11.867-24.543-26.506-24.543s-26.506 10.989-26.506 24.543c0 13.555 11.867 24.543 26.506 24.543Z" fill="#01133B"/></g><path d="M216.21 55.019c-4.814-11.337-17.902-16.628-29.235-11.819-11.333 4.81-16.618 17.898-11.805 29.235l3.364 7.923c4.813 11.336 17.902 16.628 29.235 11.818 11.332-4.809 16.618-17.898 11.804-29.235l-3.363-7.922Z" fill="#01133B"/><path clip-rule="evenodd" d="m220.604 78.684 10.175 11.65-9.939 3.815-.236-15.465Z" stroke="#fff" stroke-width="1.32" stroke-linejoin="round"/><path fill-rule="evenodd" clip-rule="evenodd" d="m215.87 58.564 4.58 10.786c4.055 9.552-.398 20.579-9.946 24.63-9.548 4.053-20.575-.405-24.63-9.957l-4.58-10.786c-4.055-9.551.398-20.579 9.946-24.63 9.548-4.053 20.575.406 24.63 9.957Z" fill="#fff" stroke="#01133B" stroke-width="1.32" stroke-linecap="round" stroke-linejoin="round"/><mask id="c" style="mask-type:alpha" maskUnits="userSpaceOnUse" x="179" y="46" width="44" height="51"><path d="m215.767 58.162 4.816 11.343c4.132 9.732-.404 20.968-10.132 25.096-9.727 4.128-20.963-.415-25.095-10.148l-4.817-11.342c-4.132-9.733.404-20.969 10.132-25.096 9.727-4.128 20.963.415 25.096 10.147Z" fill="#fff"/></mask><g mask="url(#c)"><path fill-rule="evenodd" clip-rule="evenodd" d="M179.804 39.469a31.297 31.297 0 0 1 3.954 4.125c8.939-4.729 23.382-10.079 32.782-7.505 13.012 3.563 22.858 11.873 18.584 15.8-2.455 2.256-5.476 5.266-8.721 6.643-9.59 4.07-24.597 5.453-36.021 2.124.512 7.597-1.832 15.336-7.168 21.476a29.355 29.355 0 0 1-7.912 6.424c-5.898 3.279-12.55-23.225-10.991-38.666 1.294-12.81 9.718-15.443 15.493-10.421Z" fill="#01133B"/></g><path d="m210.084 86.285-5.11 1.005M205.874 75.326l2.594 4.131-2.255 1.45" stroke="#01133B" stroke-width="1.32" stroke-linecap="round" stroke-linejoin="round"/><path d="M195.984 79.731c2.025-.86 3.202-2.651 2.628-4.002-.573-1.35-2.68-1.75-4.705-.89-2.026.86-3.203 2.652-2.629 4.002.573 1.351 2.68 1.75 4.706.89Z" stroke="#01133B" stroke-width="1.138" stroke-linecap="round" stroke-linejoin="round"/><path d="M195.202 80.514c1.215-.516 1.735-2.03 1.161-3.38-.573-1.35-2.023-2.028-3.238-1.512-1.216.516-1.736 2.029-1.162 3.38.573 1.35 2.023 2.027 3.239 1.512Z" fill="#01133B"/><path d="M214.847 71.725c2.026-.86 3.203-2.652 2.629-4.003-.574-1.35-2.681-1.749-4.706-.89-2.025.86-3.202 2.652-2.629 4.003.574 1.35 2.681 1.749 4.706.89Z" stroke="#01133B" stroke-width="1.138" stroke-linecap="round" stroke-linejoin="round"/><path d="M214.065 72.507c1.215-.516 1.735-2.029 1.162-3.38-.574-1.35-2.024-2.027-3.239-1.512-1.215.516-1.735 2.029-1.162 3.38.574 1.35 2.024 2.027 3.239 1.512Z" fill="#01133B"/><path fill-rule="evenodd" clip-rule="evenodd" d="m185.465 79.827-2.138.543a4.51 4.51 0 0 0-2.834 6.562 8.565 8.565 0 0 0 8.642 4.335l1.123-.153" fill="#fff"/><path d="m185.465 79.827-2.138.543a4.51 4.51 0 0 0-2.834 6.562 8.565 8.565 0 0 0 8.642 4.335l1.123-.153M184.55 84.221l1.492 3.515M185.488 86.43l-2.206-.629" stroke="#01133B" stroke-width="1.708" stroke-linecap="round" stroke-linejoin="round"/><path clip-rule="evenodd" d="m188.778 87.826 1.315 15.411 9.648-4.498-10.963-10.913Z" stroke="#fff" stroke-width="1.32" stroke-linejoin="round"/><path fill-rule="evenodd" clip-rule="evenodd" d="m180.509 110.913-19.302-7.411 10.588-21.404 7.121 5.414 1.593 23.401Z" fill="#fff" stroke="#01133B" stroke-width="1.716" stroke-linecap="round" stroke-linejoin="round"/><path fill-rule="evenodd" clip-rule="evenodd" d="m185.54 107.233-27.128 90.29c-3.083 10.259-13.897 16.076-24.155 12.995a28.145 28.145 0 0 1-.412-.129c-9.459-3.073-14.635-13.233-11.561-22.692.178-.55.383-1.091.614-1.621l37.011-85.046" fill="#fff"/><path d="m185.54 107.233-27.128 90.29c-3.083 10.259-13.897 16.076-24.155 12.995a28.145 28.145 0 0 1-.412-.129c-9.459-3.073-14.635-13.233-11.561-22.692.178-.55.383-1.091.614-1.621l37.011-85.046" stroke="#01133B" stroke-width="1.32" stroke-linecap="round" stroke-linejoin="round"/><path fill-rule="evenodd" clip-rule="evenodd" d="m179.156 106.47 7.847-10.034a4.227 4.227 0 0 1 5.585-.972 3.446 3.446 0 0 1 .872 5.043l-10.203 12.989" fill="#fff"/><path d="m179.156 106.47 7.847-10.034a4.227 4.227 0 0 1 5.585-.972 3.446 3.446 0 0 1 .872 5.043l-10.203 12.989" stroke="#01133B" stroke-width="1.32" stroke-linecap="round" stroke-linejoin="round"/><path fill-rule="evenodd" clip-rule="evenodd" d="m157.169 107.327 10.663-24.766a7.12 7.12 0 0 1 8.148-4.12l8.367 1.942a7.119 7.119 0 0 1 5.349 8.44l-1.678 7.755a3.428 3.428 0 0 1-4.595 2.469 4.413 4.413 0 0 1-2.64-5.324l1.201-4.202-6.362-.79-2.359 6.246" fill="#fff"/><path d="m157.169 107.327 10.663-24.766a7.12 7.12 0 0 1 8.148-4.12l8.367 1.942a7.119 7.119 0 0 1 5.349 8.44l-1.678 7.755a3.428 3.428 0 0 1-4.595 2.469 4.413 4.413 0 0 1-2.64-5.324l1.201-4.202-6.362-.79-2.359 6.246" stroke="#01133B" stroke-width="1.32" stroke-linecap="round" stroke-linejoin="round"/><path fill-rule="evenodd" clip-rule="evenodd" d="m147.426 106.272 44.278 17.721-25.689 76.718-43.262-11.904 24.673-82.535Z" fill="#EDEEF2" stroke="#01133B" stroke-width="1.32" stroke-linecap="round" stroke-linejoin="round"/><path fill-rule="evenodd" clip-rule="evenodd" d="m143.88 105.293-17.515 21.424 63.097 6.641 2.682-9.365-48.264-18.7Z" fill="#EDEEF2" stroke="#01133B" stroke-width="1.32" stroke-linecap="round" stroke-linejoin="round"/><path fill-rule="evenodd" clip-rule="evenodd" d="m129.355 127.037 59.46 6.321-.499 1.286-58.961-4.351v-3.256Z" fill="#01133B"/><mask id="d" style="mask-type:alpha" maskUnits="userSpaceOnUse" x="84" y="128" width="107" height="108"><path d="M137.727 235.477c29.403 0 53.24-23.837 53.24-53.24 0-29.404-23.837-53.24-53.24-53.24-29.404 0-53.24 23.836-53.24 53.24 0 29.403 23.836 53.24 53.24 53.24Z" fill="#fff"/></mask><g mask="url(#d)"><path d="M137.727 235.477c29.403 0 53.24-23.837 53.24-53.24 0-29.404-23.837-53.24-53.24-53.24-29.404 0-53.24 23.836-53.24 53.24 0 29.403 23.836 53.24 53.24 53.24Z" fill="#436FFF"/><mask id="e" style="mask-type:alpha" maskUnits="userSpaceOnUse" x="-24" y="42" width="281" height="281"><path d="M256.108 42.66h-279.84V322.5h279.84V42.66Z" fill="#fff"/></mask><g mask="url(#e)"><path d="M256.108 42.66h-279.84V322.5h279.84V42.66Z" fill="#436FFF"/><path d="M87.985 42.66c3.956 51.381 22.366 82.485 55.228 93.312 32.863 10.827 77.516-4.725 133.96-46.656" stroke="#fff" stroke-width="1.32"/><path d="M107.431 42.66c8.758 60.406-10.913 91.615-59.013 93.627-72.15 3.018-20.024-51.775 4.59-29.933 24.615 21.842 22.611 69.137-15.794 101.552-25.604 21.611-54.776 32.416-87.516 32.416M256.108 208.595C149.482 201.705 64.905 239.674 2.376 322.5" stroke="#fff" stroke-width="1.32"/><path d="M-23.732 207.801C46.21 226.549 91.3 264.782 111.54 322.5" stroke="#fff" stroke-width="1.32"/><path d="M256.108 141.491c-47.192 47.108-80.134 60.804-98.827 41.089-28.039-29.572 25.519-52.859 33.419-26.429 7.9 26.429-34.335 47.405-90.566 56.734-37.487 6.219-81.846 33.427-133.076 81.623" stroke="#fff" stroke-width="1.32"/><path d="M-23.732 149.381c110.334 22.292 196.913 82.666 259.739 181.121" stroke="#fff" stroke-width="1.32"/></g></g><path d="M184.367 238.996a6.6 6.6 0 1 0 0-13.2 6.6 6.6 0 0 0 0 13.2Z" fill="#436FFF"/><mask id="f" style="mask-type:alpha" maskUnits="userSpaceOnUse" x="110" y="157" width="67" height="50"><path d="m110.73 157.349 12.609 44.839 16.487-7.669 8.033 12.377 8.964-21.584 19.832-8.781-65.925-19.182Z" fill="#fff"/></mask><g mask="url(#f)"><path d="m110.728 157.349 12.612 44.837 16.486-7.667 8.035 12.376 8.963-21.582 19.831-8.78-65.927-19.184Z" fill="#fff"/><path fill-rule="evenodd" clip-rule="evenodd" d="m110.728 157.349 37.259 33.371-.479 18.385 9.281-23.586-46.061-28.17Z" fill="#01133B"/></g><path clip-rule="evenodd" d="m110.724 157.349 12.617 44.834 24.648-11.461-.126 16.171 8.961-21.579 19.832-8.777-65.932-19.188Z" stroke="#01133B" stroke-width="1.32" stroke-linecap="round" stroke-linejoin="round"/><path d="m110.722 157.349 37.266 33.373M110.722 157.349l46.101 27.967M139.896 194.531l7.969 12.36" stroke="#01133B" stroke-width="1.32" stroke-linecap="round" stroke-linejoin="round"/><path d="M194.487 245.157a3.08 3.08 0 1 0 0-6.16 3.08 3.08 0 0 0 0 6.16Z" fill="#436FFF"/></g></svg>