<svg viewBox="0 0 400 300" fill="none" xmlns="http://www.w3.org/2000/svg"><path fill-rule="evenodd" clip-rule="evenodd" d="M242.747 78.506c64.213 32.9 82.551 11.276 111.431 55.112 28.881 43.835 9.203 125.756-51.482 139.187-60.685 13.431-71.565-19.64-153.923-5.293-82.358 14.346-124.133-110.83-62.55-163.026 61.582-52.196 92.312-58.88 156.524-25.98Z" fill="#F2F5FF"/><mask id="a" style="mask-type:alpha" maskUnits="userSpaceOnUse" x="22" y="20" width="356" height="258"><path d="M248.029 29.505C316.81 34.17 344.633-1.36 373.585 42.62c11.616 17.646-3.125 132.883-6.691 155.924-5.323 34.39-27.012 67.1-63.441 75.169-60.837 13.476-71.744-19.705-154.308-5.311-46.959 8.187-80.758-28.912-89.816-72.066-6.867-32.719-55.147-109.94-28.524-132.523 61.736-52.37 148.443-38.976 217.224-34.31Z" fill="#fff"/></mask><g mask="url(#a)"><mask id="b" style="mask-type:alpha" maskUnits="userSpaceOnUse" x="161" y="54" width="192" height="232"><path d="M256.812 54.638c52.611 0 95.26 42.662 95.26 95.288 0 42.443-27.742 78.406-66.077 90.733l-25.591 42.383a4.458 4.458 0 0 1-7.634 0l-25.7-42.565c-38.046-12.496-65.518-48.315-65.518-90.551 0-52.626 42.65-95.288 95.26-95.288Zm0 60.588c-19.159 0-34.69 15.535-34.69 34.7 0 19.164 15.531 34.7 34.69 34.7s34.69-15.536 34.69-34.7c0-19.165-15.531-34.7-34.69-34.7Z" fill="#fff"/></mask><g mask="url(#b)"><path d="M256.812 54.638c52.611 0 95.26 42.662 95.26 95.288 0 42.443-27.742 78.406-66.077 90.733l-25.591 42.383a4.458 4.458 0 0 1-7.634 0l-25.7-42.565c-38.046-12.496-65.518-48.315-65.518-90.551 0-52.626 42.65-95.288 95.26-95.288Zm0 60.588c-19.159 0-34.69 15.535-34.69 34.7 0 19.164 15.531 34.7 34.69 34.7s34.69-15.536 34.69-34.7c0-19.165-15.531-34.7-34.69-34.7Z" fill="#5578EC"/><mask id="c" style="mask-type:alpha" maskUnits="userSpaceOnUse" x="105" y="16" width="304" height="304"><path d="M409 16H105v304h304V16Z" fill="#fff"/></mask><g mask="url(#c)"><path d="M409 16H105v304h304V16Z" fill="#436FFF"/><path d="M226 16c4.287 55.823 24.235 89.616 59.845 101.379 35.609 11.763 83.994-5.134 145.155-50.69" stroke="#fff" stroke-width="1.32"/><path d="M246.809 16c9.484 65.704-11.818 99.651-63.905 101.839-78.131 3.283-21.684-56.316 4.971-32.558 26.655 23.758 24.485 75.201-17.105 110.46C143.044 219.247 111.454 231 76 231M408 195.858C292.437 188.41 200.77 229.457 133 319" stroke="#fff" stroke-width="1.32"/><path d="M105 195c76.006 20.268 125.006 61.601 147 124" stroke="#fff" stroke-width="1.32"/><path d="M409 123c-51.265 51.105-87.051 65.963-107.357 44.575-30.46-32.081 27.721-57.344 36.303-28.672 8.582 28.672-37.299 51.427-98.383 61.548C198.84 207.198 150.652 236.715 95 289M333.5 71c20.711 0 37.5-23.505 37.5-52.5S354.211-34 333.5-34 296-10.495 296 18.5 312.789 71 333.5 71ZM295.451 319c-7.542-44.422 2.321-68.249 29.59-71.482 27.269-3.234 57.589 8.68 90.959 35.741" stroke="#fff" stroke-width="1.32"/><path d="M409 156c-48.715 47.291-69.62 104.624-62.714 172" stroke="#fff" stroke-width="1.32"/><path d="M105 131c119.79 24.247 213.79 89.914 282 197M105 257.334c28.516 42.772 58.732 53.465 90.649 32.079 47.875-32.079 64.108-38.738 84.061-32.079 13.303 4.44 25.4 25.328 36.29 62.666" stroke="#fff" stroke-width="1.32"/></g></g><path fill-rule="evenodd" clip-rule="evenodd" d="m124.508 204.549 72.941 7.185 4.574 67.311-36.82-3.681-7.916-39.443 3.794 39.031-36.465-3.645-.108-66.758Z" fill="#fff" stroke="#01133B" stroke-width="1.32" stroke-linecap="round" stroke-linejoin="round"/><path d="M143.504 206.797a21.451 21.451 0 0 1-17.732 19.382l-1.069.184" stroke="#01133B" stroke-width="1.32" stroke-linecap="round" stroke-linejoin="round"/><path d="M146.794 206.912c-.94 11.322-9.435 20.569-20.634 22.46l-1.571.265" stroke="#01133B" stroke-width=".51" stroke-linecap="round" stroke-linejoin="round" stroke-dasharray="1.53 1.53"/><path d="M180.746 212.829a21.426 21.426 0 0 0 16.328 20.564l1.054.258" stroke="#01133B" stroke-width="1.32" stroke-linecap="round" stroke-linejoin="round"/><path d="M177.456 212.714c.144 11.36 7.969 21.174 19.008 23.838l1.549.373" stroke="#01133B" stroke-width=".51" stroke-linecap="round" stroke-linejoin="round" stroke-dasharray="1.53 1.53"/><path d="m162.228 209.087-1.14 32.646M156.906 208.857l-.763 21.737a8.297 8.297 0 0 0 5.331 8.044" stroke="#01133B" stroke-width="1.531" stroke-linecap="round" stroke-linejoin="round"/><path fill-rule="evenodd" clip-rule="evenodd" d="m108.528 132.742 6.073 12.793 4.072-10.488a15.315 15.315 0 0 1 14.274-9.773l32.217-.002 33.195 5.899a23.75 23.75 0 0 1 14.99 9.328l20.942 28.52c6.622 9.018 5.59 21.537-2.42 29.351l-10.019 9.773-26.317-30.713-3.817 34.346-66.675-6.023.475-4.807c-9.583 6.804-22.865 4.553-29.667-5.03a21.17 21.17 0 0 1-.995-1.538l-22.09-37.6" fill="#fff"/><path d="m108.528 132.742 6.073 12.793 4.072-10.488a15.315 15.315 0 0 1 14.274-9.773l32.217-.002 33.195 5.899a23.75 23.75 0 0 1 14.99 9.328l20.942 28.52c6.622 9.018 5.59 21.537-2.42 29.351l-10.019 9.773-26.317-30.713-3.817 34.346-66.675-6.023.475-4.807c-9.583 6.804-22.865 4.553-29.667-5.03a21.17 21.17 0 0 1-.995-1.538l-22.09-37.6" stroke="#01133B" stroke-width="1.32" stroke-linecap="round" stroke-linejoin="round"/><path fill-rule="evenodd" clip-rule="evenodd" d="m104.877 141.537-29.998 25.172-24.606-29.324a8.8 8.8 0 0 1 1.085-12.397l23.258-19.516 30.261 36.065Z" fill="#fff"/><path fill-rule="evenodd" clip-rule="evenodd" d="m60.68 122.135 1.243-1.24a7.349 7.349 0 0 1 11.224 1 10.189 10.189 0 0 1-1.362 13.227l-2.639 2.495c-4.414 4.173-11.376 3.977-15.549-.437-.302-.32-.585-.658-.847-1.012l-2.72-3.674c-5.675-7.665-4.399-18.424 2.911-24.549l2.867-2.402c8.848-7.413 21.984-6.454 29.66 2.165l4.78 5.37" fill="#fff"/><path d="m60.68 122.135 1.243-1.24a7.349 7.349 0 0 1 11.224 1 10.189 10.189 0 0 1-1.362 13.227l-2.639 2.495c-4.414 4.173-11.376 3.977-15.549-.437-.302-.32-.585-.658-.847-1.012l-2.72-3.674c-5.675-7.665-4.399-18.424 2.911-24.549l2.867-2.402c8.848-7.413 21.984-6.454 29.66 2.165l4.78 5.37" stroke="#01133B" stroke-width="1.32" stroke-linecap="round" stroke-linejoin="round"/><path fill-rule="evenodd" clip-rule="evenodd" d="M77.425 127.279c-9.477-12.218-16.24-22.075-20.291-29.572-2.484-4.596-4.459-9.178-5.923-13.745a8.486 8.486 0 0 1 5.88-10.787 8.883 8.883 0 0 1 10.613 5.438c1.684 4.455 3.487 8.28 5.41 11.474 2.369 3.932 8.642 11.675 18.82 23.228a66.349 66.349 0 0 1 12.429 20.801l2.125 5.735" fill="#fff"/><path d="M77.425 127.279c-9.477-12.218-16.24-22.075-20.291-29.572-2.484-4.596-4.459-9.178-5.923-13.745a8.486 8.486 0 0 1 5.88-10.787 8.883 8.883 0 0 1 10.613 5.438c1.684 4.455 3.487 8.28 5.41 11.474 2.369 3.932 8.642 11.675 18.82 23.228a66.349 66.349 0 0 1 12.429 20.801l2.125 5.735" stroke="#01133B" stroke-width="1.32" stroke-linecap="round" stroke-linejoin="round"/><path fill-rule="evenodd" clip-rule="evenodd" d="m67.41 157.992-18.573-22.787a8.136 8.136 0 0 1 1.077-11.372 7.881 7.881 0 0 1 11.191 1.077l12.236 15.11" fill="#fff"/><path d="m67.41 157.992-18.573-22.787a8.136 8.136 0 0 1 1.077-11.372 7.881 7.881 0 0 1 11.191 1.077l12.236 15.11" stroke="#01133B" stroke-width="1.32" stroke-linecap="round" stroke-linejoin="round"/><path fill-rule="evenodd" clip-rule="evenodd" d="m209.302 232.814-34.791-26.217-16.68 22.135 34.791 26.218 3.137-5.726 13.543-16.41Z" fill="#fff"/><path fill-rule="evenodd" clip-rule="evenodd" d="m205.817 236.383-17.956 26.716-2.315 9.575a5.185 5.185 0 0 1-6.614 3.722 6.332 6.332 0 0 1-4.308-7.168l.717-3.934a37.806 37.806 0 0 1 4.211-11.704l3.765-6.722" fill="#fff"/><path d="m205.817 236.383-17.956 26.716-2.315 9.575a5.185 5.185 0 0 1-6.614 3.722 6.332 6.332 0 0 1-4.308-7.168l.717-3.934a37.806 37.806 0 0 1 4.211-11.704l3.765-6.722" stroke="#01133B" stroke-width="1.32" stroke-linecap="round" stroke-linejoin="round"/><path fill-rule="evenodd" clip-rule="evenodd" d="m164.168 226.039-7.445 2.581a5.242 5.242 0 0 1-6.671-3.237l-.008-.021a5.289 5.289 0 0 1 3.271-6.708l19.164-6.644" fill="#fff"/><path d="m164.168 226.039-7.445 2.581a5.242 5.242 0 0 1-6.671-3.237l-.008-.021a5.289 5.289 0 0 1 3.271-6.708l19.164-6.644" stroke="#01133B" stroke-width="1.32" stroke-linecap="round" stroke-linejoin="round"/><path fill-rule="evenodd" clip-rule="evenodd" d="m183.332 246.926-6.229 10.418-3.353 11.47a5.334 5.334 0 0 1-6.618 3.622l-.126-.038a5.629 5.629 0 0 1-3.695-6.92l2.821-9.792a19.253 19.253 0 0 1 2.573-5.484l6.88-10.127" fill="#fff"/><path d="m183.332 246.926-6.229 10.418-3.353 11.47a5.334 5.334 0 0 1-6.618 3.622l-.126-.038a5.629 5.629 0 0 1-3.695-6.92l2.821-9.792a19.253 19.253 0 0 1 2.573-5.484l6.88-10.127" stroke="#01133B" stroke-width="1.32" stroke-linecap="round" stroke-linejoin="round"/><path fill-rule="evenodd" clip-rule="evenodd" d="m175.586 240.076-8.513 11.13-4.522 13.172a4.595 4.595 0 0 1-6.055 2.774 5.522 5.522 0 0 1-3.302-6.48l1.883-7.448a33.178 33.178 0 0 1 6.914-13.387l5.782-6.783" fill="#fff"/><path d="m175.586 240.076-8.513 11.13-4.522 13.172a4.595 4.595 0 0 1-6.055 2.774 5.522 5.522 0 0 1-3.302-6.48l1.883-7.448a33.178 33.178 0 0 1 6.914-13.387l5.782-6.783" stroke="#01133B" stroke-width="1.32" stroke-linecap="round" stroke-linejoin="round"/><path fill-rule="evenodd" clip-rule="evenodd" d="m167.776 233.055-9.816 11.249-5.758 15.323a4.582 4.582 0 0 1-6.106 2.593 5.407 5.407 0 0 1-3.038-6.513l3.21-10.744a27.214 27.214 0 0 1 5.384-9.885l23.966-28.038" fill="#fff"/><path d="m167.776 233.055-9.816 11.249-5.758 15.323a4.582 4.582 0 0 1-6.106 2.593 5.407 5.407 0 0 1-3.038-6.513l3.21-10.744a27.214 27.214 0 0 1 5.384-9.885l23.966-28.038" stroke="#01133B" stroke-width="1.32" stroke-linecap="round" stroke-linejoin="round"/><path fill-rule="evenodd" clip-rule="evenodd" d="m151.105 125.28-10.799 108.516c-1.068 10.735-9.491 19.264-20.213 20.467l-3.66.41 5.342-46.979a30.745 30.745 0 0 1-31.351-11.718l-24.928-33.65 41.105-37.795 9.82 13.713 1.893-4.067a15.396 15.396 0 0 1 13.96-8.899l18.831.002Z" fill="#EDEEF2" stroke="#01133B" stroke-width="1.32" stroke-linecap="round" stroke-linejoin="round"/><path d="m114.597 135.587 5.392 7.171M126.21 169.838l-4.594 40.192" stroke="#01133B" stroke-width="1.32" stroke-linecap="round" stroke-linejoin="round"/><path fill-rule="evenodd" clip-rule="evenodd" d="m106.605 121.71-44.009 40.988 10.952 20.634 42.877-50.748-9.82-10.874Z" fill="#EDEEF2" stroke="#01133B" stroke-width="1.32" stroke-linecap="round" stroke-linejoin="round"/><path fill-rule="evenodd" clip-rule="evenodd" d="m174.492 128.316 1.98-18.819-17.357-1.822-1.981 18.819" fill="#fff"/><path d="m174.492 128.316 1.98-18.819-17.357-1.822-1.981 18.819" stroke="#01133B" stroke-width="1.32" stroke-linecap="round" stroke-linejoin="round"/><mask id="d" style="mask-type:alpha" maskUnits="userSpaceOnUse" x="157" y="107" width="20" height="27"><path d="m176.472 109.496-17.355-1.821-1.706 16.205c-.505 4.794 2.971 9.089 7.764 9.591 4.792.503 9.087-2.976 9.591-7.77l1.706-16.205Z" fill="#fff"/></mask><g mask="url(#d)"><path d="M159.888 117.559c-10.827-1.137-18.748-10.187-17.693-20.215 1.055-10.027 10.687-17.235 21.514-16.098 10.827 1.136 18.748 10.187 17.693 20.214-1.055 10.028-10.687 17.235-21.514 16.099Z" fill="#01133B"/></g><path fill-rule="evenodd" clip-rule="evenodd" d="m181.692 128.316-10.622 83.977 2.205-2.497 39.263 32.412 26.35-41.265a28.166 28.166 0 0 0-1.509-32.458l-22.552-28.976a22.432 22.432 0 0 0-14.401-8.409l-18.734-2.784Z" fill="#EDEEF2" stroke="#01133B" stroke-width="1.32" stroke-linecap="round" stroke-linejoin="round"/><path fill-rule="evenodd" clip-rule="evenodd" d="m175.718 195.075-8.312 14.701 43.696 37.399 18.412-15.791-53.796-36.309Z" fill="#EDEEF2" stroke="#01133B" stroke-width="1.32" stroke-linecap="round" stroke-linejoin="round"/><path d="m178.737 196.639 15.031-21.727M150.47 131.375l13.234 18.553 17.044-14.439M193.769 130.095l-11.72 21.445 7.666 7.397a9.244 9.244 0 0 1 1.673 11.116l-14.162 25.667M140.29 125.67l4.704 24.776-7.046 2.846a10.565 10.565 0 0 0-6.26 12.475l10.825 41.273" stroke="#01133B" stroke-width="1.32" stroke-linecap="round" stroke-linejoin="round"/><path fill-rule="evenodd" clip-rule="evenodd" d="m114.598 135.583-36.45 43.073 1.636 3.028 34.814-46.101ZM169.908 213.686l31.364 29.629 1.787-3.144-32.482-27.461-.669.976ZM171.242 71.399c-8.6-.903-16.305 5.339-17.21 13.941-.022.202-.039.403-.052.606l-.388 5.868c-.573 8.665 5.8 16.233 14.434 17.139 8.539.897 16.189-5.3 17.088-13.841l.613-5.821c.941-8.943-5.544-16.954-14.485-17.892Z" fill="#01133B"/><path fill-rule="evenodd" clip-rule="evenodd" d="m155.742 88.504-1.063 10.107c-.808 7.674 4.757 14.549 12.43 15.354 7.672.806 14.547-4.763 15.355-12.437l1.063-10.107c.808-7.675-4.758-14.55-12.43-15.355-7.673-.805-14.547 4.764-15.355 12.438Z" fill="#fff" stroke="#01133B" stroke-width="1.32" stroke-linecap="round" stroke-linejoin="round"/><path d="M168.053 106.496a4.749 4.749 0 0 0 5.219-4.227" stroke="#01133B" stroke-width="1.32" stroke-linecap="round" stroke-linejoin="round"/><path fill-rule="evenodd" clip-rule="evenodd" d="M180.605 76.287c4.062-1.715 6.835-.11 8.318 4.817 1.175 3.902-.135 10.595-5.587 20.988-.226.431.19-5.491-.129-5.989-2.42-3.771-4.023-7.888-4.81-12.351-.891-5.051-.155-7.54 2.208-7.465Z" fill="#01133B"/><path fill-rule="evenodd" clip-rule="evenodd" d="m183 96.341 1.639-.079a3.354 3.354 0 0 1 3.443 4.051 6.37 6.37 0 0 1-5.205 4.962l-.832.136.955-9.07Z" fill="#fff" stroke="#01133B" stroke-width="1.32" stroke-linecap="round" stroke-linejoin="round"/><path d="m184.606 99.268-.296 2.824M184.42 101.044l1.431-.928M167.138 96.938l-.947 3.502 1.92.541" stroke="#01133B" stroke-width="1.32" stroke-linecap="round" stroke-linejoin="round"/><path d="M176.783 96.874c-1.511-.159-2.662-.991-2.571-1.86.091-.868 1.391-1.444 2.902-1.285 1.511.159 2.662.991 2.571 1.86-.091.868-1.391 1.443-2.902 1.285Z" stroke="#01133B" stroke-width=".847" stroke-linecap="round" stroke-linejoin="round"/><path d="M176.783 96.874c-.907-.096-1.568-.877-1.476-1.745.091-.868.9-1.495 1.807-1.4.907.095 1.568.876 1.476 1.745-.091.868-.9 1.495-1.807 1.4Z" fill="#01133B"/><path d="M161.625 95.281c-1.511-.159-2.662-.991-2.571-1.86.092-.868 1.391-1.443 2.902-1.285 1.512.159 2.663.991 2.571 1.86-.091.868-1.39 1.444-2.902 1.285Z" stroke="#01133B" stroke-width=".847" stroke-linecap="round" stroke-linejoin="round"/><path d="M161.625 95.28c-.906-.094-1.567-.875-1.476-1.744.091-.868.901-1.495 1.807-1.4.907.096 1.568.877 1.477 1.745-.092.868-.901 1.495-1.808 1.4Z" fill="#01133B"/><path fill-rule="evenodd" clip-rule="evenodd" d="M176.014 75.74c-10.512-3.669-18.689-4.051-24.533-1.148-8.765 4.355-3.015 19.483 15.582 16.688 12.398-1.863 15.382-7.043 8.951-15.54Z" fill="#01133B"/><path fill-rule="evenodd" clip-rule="evenodd" d="M183.643 78.964c-.63-4.293-12.336-12.517-19.095-11.068-4.506.966-3.762 6.038 2.232 15.215 11.662.097 17.283-1.285 16.863-4.147Z" fill="#01133B"/></g><path fill-rule="evenodd" clip-rule="evenodd" d="M93.292 33.3a.88.88 0 0 1 .385 1.183l-7.591 14.898 14.897 7.59a.88.88 0 0 1 .385 1.184l-4.395 8.625a.88.88 0 0 1-1.183.385L80.89 59.573l-7.59 14.899a.88.88 0 0 1-1.183.384l-8.625-4.395a.88.88 0 0 1-.385-1.183l7.59-14.898-14.897-7.59a.88.88 0 0 1-.384-1.184l4.394-8.625a.88.88 0 0 1 1.184-.385l14.898 7.591 7.59-14.897a.88.88 0 0 1 1.184-.385l8.625 4.395Z" fill="#01133B"/></svg>