<svg viewBox="0 0 400 300" fill="none" xmlns="http://www.w3.org/2000/svg"><mask id="a" style="mask-type:alpha" maskUnits="userSpaceOnUse" x="30" y="58" width="341" height="219"><path d="M233.971 78.365c70.247 33.009 90.308 11.314 121.903 55.296 31.594 43.981 10.067 126.175-56.321 139.651-66.388 13.476-78.29-19.705-168.388-5.311-90.097 14.394-135.798-111.2-68.428-163.57 67.369-52.37 100.987-59.076 171.234-26.066Z" fill="#fff"/></mask><g mask="url(#a)"><path d="M233.971 78.365c70.247 33.009 90.308 11.314 121.903 55.296 31.594 43.981 10.067 126.175-56.321 139.651-66.388 13.476-78.29-19.705-168.388-5.311-90.097 14.394-135.798-111.2-68.428-163.57 67.369-52.37 100.987-59.076 171.234-26.066Z" fill="#F2F5FF"/><path d="M161.852 24.198c4.902 63.66 27.712 102.198 68.428 115.613 40.717 13.414 96.042-5.855 165.975-57.807" stroke="#fff" stroke-width="1.32"/><path d="M185.946 24.198c10.852 74.842-13.521 113.51-73.116 116.003-89.394 3.739-24.81-64.149 5.687-37.087 30.497 27.062 28.015 85.66-19.57 125.823-31.723 26.775-67.867 40.162-108.431 40.162M370.156 229.79c-132.109-8.536-236.899 38.507-314.372 141.128" stroke="#fff" stroke-width="1.32"/><path d="M23.436 228.807c86.657 23.229 142.523 70.599 167.599 142.111" stroke="#fff" stroke-width="1.32"/><path d="M370.156 146.649c-58.47 58.366-99.286 75.336-122.446 50.909-34.74-36.64 31.618-65.493 41.406-32.746 9.788 32.746-42.541 58.734-112.211 70.293-46.446 7.706-101.406 41.416-164.88 101.131M84.395 24.198c55.401 26.908 126.904 39.066 214.509 36.473 87.604-2.592 149.548-13.113 185.83-31.562" stroke="#fff" stroke-width="1.32"/><path d="M284.271 87.18c23.541 0 42.625-26.774 42.625-59.801s-19.084-59.801-42.625-59.801c-23.54 0-42.624 26.774-42.624 59.8 0 33.028 19.084 59.802 42.624 59.802ZM370.156 184.573c-55.348 53.961-79.099 119.38-71.252 196.259" stroke="#fff" stroke-width="1.32"/><path d="M23.436 156.424c136.703 27.621 243.975 102.423 321.815 224.408" stroke="#fff" stroke-width="1.32"/><path d="M73.652 24.198C31.87 32.747 16.42 50.576 27.307 77.685c16.329 40.664 76.505 117.56-3.871 130.896" stroke="#fff" stroke-width="1.32"/></g><mask id="b" style="mask-type:alpha" maskUnits="userSpaceOnUse" x="30" y="23" width="340" height="254"><path d="M249.106 33.769c70.065 33.01 74.852 55.91 106.365 99.892 31.512 43.982 10.041 126.175-56.175 139.651-66.216 13.476-78.088-19.705-167.952-5.311C41.48 282.395-4.102 156.802 63.093 104.432 130.288 52.062 179.04.759 249.106 33.769Z" fill="#fff"/></mask><g mask="url(#b)"><path fill-rule="evenodd" clip-rule="evenodd" d="m205.477 84.918 45.617 3.782c.541.045 1.082.099 1.621.162l32.54 3.817c10.7 1.255 18.412 10.864 17.322 21.581-1.065 10.484-10.429 18.119-20.913 17.053a17.734 17.734 0 0 1-.332-.036l-38.664-4.618-11.071 54.98h-52.24l-9.58-54.372-47.128 5.29c-10.78 1.211-20.558-6.396-22.037-17.143-1.43-10.398 5.839-19.988 16.238-21.418.161-.022.323-.043.485-.06l44.77-4.99c.294-.032.589-.062.883-.09l42.489-3.938Z" fill="#fff" stroke="#01133B" stroke-width="1.32" stroke-linecap="round" stroke-linejoin="round"/><path fill-rule="evenodd" clip-rule="evenodd" d="M192.554 87.999v-19.8h17.48v19.8" fill="#fff"/><path d="M192.554 87.999v-19.8h17.48v19.8" stroke="#01133B" stroke-width="1.436" stroke-linecap="round" stroke-linejoin="round"/><mask id="c" style="mask-type:alpha" maskUnits="userSpaceOnUse" x="192" y="68" width="19" height="26"><path d="M192.554 68.199h17.48v16.314a8.74 8.74 0 0 1-8.74 8.74 8.74 8.74 0 0 1-8.74-8.74V68.2Z" fill="#fff"/></mask><g mask="url(#c)"><path d="M206.789 85.615c10.902 0 19.741-8.183 19.741-18.279 0-10.095-8.839-18.278-19.741-18.278-10.903 0-19.741 8.183-19.741 18.278 0 10.096 8.838 18.28 19.741 18.28Z" fill="#01133B"/></g><path d="M217.987 57.098c0-9.355-7.584-16.94-16.94-16.94-9.356 0-16.94 7.584-16.94 16.94v3.852c0 9.356 7.584 16.94 16.94 16.94 9.356 0 16.94-7.584 16.94-16.94v-3.852Z" fill="#01133B"/><path fill-rule="evenodd" clip-rule="evenodd" d="M211.653 44.167c2.666-.668 4.958.678 6.874 4.039 1.916 3.36 2.849 6.71 2.799 10.05-4.515 3.138-6.895 4.595-7.141 4.371-3.427-3.127-4.294-7.932-5.375-11.697-1.197-4.17-.249-6.424 2.843-6.763Z" fill="#01133B"/><path fill-rule="evenodd" clip-rule="evenodd" d="m215.031 65.475 2.304-.293a2.749 2.749 0 0 1 3.074 3.074 5.067 5.067 0 0 1-3.912 4.304l-1.466.33v-7.415Z" fill="#fff" stroke="#01133B" stroke-width="1.32" stroke-linecap="round" stroke-linejoin="round"/><path d="M217.07 67.647v2.33M217.362 69.395l1.165-1.165" stroke="#01133B" stroke-width="1.32" stroke-linecap="round" stroke-linejoin="round"/><path fill-rule="evenodd" clip-rule="evenodd" d="m187.063 65.475-2.304-.293a2.75 2.75 0 0 0-3.074 3.074 5.068 5.068 0 0 0 3.912 4.304l1.466.33v-7.415Z" fill="#fff" stroke="#01133B" stroke-width="1.32" stroke-linecap="round" stroke-linejoin="round"/><path d="M185.024 67.647v2.33M185.315 69.395l-1.165-1.165" stroke="#01133B" stroke-width="1.32" stroke-linecap="round" stroke-linejoin="round"/><path fill-rule="evenodd" clip-rule="evenodd" d="M215.153 58.812v10.175c0 7.727-6.264 13.99-13.99 13.99-7.727 0-13.991-6.263-13.991-13.99V58.812c0-7.727 6.264-13.99 13.991-13.99 7.726 0 13.99 6.263 13.99 13.99Z" fill="#fff" stroke="#01133B" stroke-width="1.32" stroke-linecap="round" stroke-linejoin="round"/><path d="M201.495 78.938c2.626 0 4.755-1.085 4.755-2.424M200.354 70.098l-.576 3.587 1.969.337" stroke="#01133B" stroke-width="1.32" stroke-linecap="round" stroke-linejoin="round"/><path d="M193.319 69.024c1.522 0 2.756-.709 2.756-1.583s-1.234-1.583-2.756-1.583c-1.522 0-2.755.709-2.755 1.583s1.233 1.583 2.755 1.583Z" stroke="#01133B" stroke-width=".848" stroke-linecap="round" stroke-linejoin="round"/><path d="M193.319 69.024c.914 0 1.654-.709 1.654-1.583s-.74-1.583-1.654-1.583c-.913 0-1.653.709-1.653 1.583s.74 1.583 1.653 1.583Z" fill="#01133B"/><path d="M208.582 69.024c1.522 0 2.756-.709 2.756-1.583s-1.234-1.583-2.756-1.583c-1.522 0-2.756.709-2.756 1.583s1.234 1.583 2.756 1.583Z" stroke="#01133B" stroke-width=".848" stroke-linecap="round" stroke-linejoin="round"/><path d="M208.582 69.024c.913 0 1.653-.709 1.653-1.583s-.74-1.583-1.653-1.583-1.654.709-1.654 1.583.741 1.583 1.654 1.583Z" fill="#01133B"/><path fill-rule="evenodd" clip-rule="evenodd" d="M194.888 50.392c10.27-2.554 18.014-2.08 23.233 1.421 7.828 5.253.909 19.715-16.339 14.988-11.499-3.151-13.797-8.621-6.894-16.409Z" fill="#01133B"/><path fill-rule="evenodd" clip-rule="evenodd" d="M186.624 50.577c1.267-5.648 15.991-14.994 23.729-12.11 5.159 1.924 3.662 8.596-4.489 20.016-13.671-1.505-20.085-4.14-19.24-7.906Z" fill="#01133B"/><path fill-rule="evenodd" clip-rule="evenodd" d="M190.14 52.639c-2.776-1.469-4.773-.413-5.99 3.165-1.217 3.579-.209 7.985 3.022 13.22 1.583-2.797 2.968-6.193 4.155-10.186 1.187-3.993.791-6.06-1.187-6.2Z" fill="#01133B"/><path fill-rule="evenodd" clip-rule="evenodd" d="M190.912 45.837c-4.636-1.899-7.717-.522-9.245 4.13-1.069 3.258 2.711 14.767 4.551 14.767 1.227 0 1.509 1.165.845 3.496 2.069-4.364 3.849-9.142 5.339-14.333 1.49-5.191.993-7.878-1.49-8.06Z" fill="#01133B"/><path fill-rule="evenodd" clip-rule="evenodd" d="m215.254 85.647-1.648 91.31 27.055 2.778 3.694-18.997 20.408-7.763 15.264-10.074 19.555-7.596c10.113-3.927 15.629-14.855 12.783-25.324a26.696 26.696 0 0 0-24.05-19.64l-73.061-4.694Z" fill="#EDEEF2" stroke="#01133B" stroke-width="1.32" stroke-linecap="round" stroke-linejoin="round"/><path fill-rule="evenodd" clip-rule="evenodd" d="m229.107 87.418-6.097 21.917 13.655 13.743-23.059 61.527" fill="#EDEEF2"/><path d="m229.107 87.418-6.097 21.917 13.655 13.743-23.059 61.527" stroke="#01133B" stroke-width="1.32" stroke-linecap="round" stroke-linejoin="round"/><path fill-rule="evenodd" clip-rule="evenodd" d="m186.878 85.647 1.648 91.31-27.056 2.778-3.694-18.997-20.407-7.763-15.264-10.074-21.029-12.307a21.462 21.462 0 0 1-10.027-23.538 21.606 21.606 0 0 1 19.623-16.512l76.206-4.897Z" fill="#EDEEF2" stroke="#01133B" stroke-width="1.32" stroke-linecap="round" stroke-linejoin="round"/><path fill-rule="evenodd" clip-rule="evenodd" d="m173.025 87.418 6.097 21.917-13.656 13.743 23.06 61.527" fill="#EDEEF2"/><path d="m173.025 87.418 6.097 21.917-13.656 13.743 23.06 61.527M187.384 98.581l14.027 8.967 13.253-8.967" stroke="#01133B" stroke-width="1.32" stroke-linecap="round" stroke-linejoin="round"/><path d="M308.266 134.639H91.933a7.179 7.179 0 0 0-7.18 7.179v130.224a7.179 7.179 0 0 0 7.18 7.179h216.333a7.179 7.179 0 0 0 7.179-7.179V141.818a7.179 7.179 0 0 0-7.179-7.179Z" fill="#436FFF"/><path fill-rule="evenodd" clip-rule="evenodd" d="m225.771 223.59 33.289-3.236 33.621 3.269a4.785 4.785 0 0 1 4.323 4.763v14.679h-75.556v-14.711a4.787 4.787 0 0 1 4.323-4.764Z" fill="#7E9CFF" stroke="#01133B" stroke-width="1.32" stroke-linecap="round" stroke-linejoin="round"/><mask id="d" style="mask-type:alpha" maskUnits="userSpaceOnUse" x="247" y="199" width="23" height="32"><path d="M247.338 199.107h21.979v20.514c0 6.07-4.92 10.99-10.99 10.99-6.069 0-10.989-4.92-10.989-10.99v-20.514Z" fill="#fff"/></mask><g mask="url(#d)"><path d="M247.338 199.107h21.979v20.514c0 6.07-4.92 10.99-10.99 10.99-6.069 0-10.989-4.92-10.989-10.99v-20.514Z" fill="#fff" stroke="#01133B" stroke-width="1.32" stroke-linecap="round" stroke-linejoin="round"/><path d="M267.043 211.378c13.709 0 24.823-10.29 24.823-22.984 0-12.694-11.114-22.985-24.823-22.985-13.71 0-24.824 10.291-24.824 22.985 0 12.694 11.114 22.984 24.824 22.984Z" fill="#01133B"/></g><path d="M278.388 172.077c0-11.041-8.95-19.991-19.991-19.991s-19.991 8.95-19.991 19.991v7.464c0 11.04 8.95 19.991 19.991 19.991s19.991-8.951 19.991-19.991v-7.464Z" fill="#01133B"/><path fill-rule="evenodd" clip-rule="evenodd" d="M272.604 157.95c2.811-2.559 5.411-1.743 7.802 2.448 2.39 4.191 1.833 10.688-1.672 19.491-1.799.58-2.851.731-3.158.451-4.274-3.9-5.356-9.893-6.704-14.589-1.493-5.201-.249-7.801 3.732-7.801Z" fill="#01133B"/><path fill-rule="evenodd" clip-rule="evenodd" d="m276.065 181.037 2.043-.314a4.228 4.228 0 0 1 4.846 4.62 8.018 8.018 0 0 1-5.865 6.897l-1.024.28v-11.483Z" fill="#fff" stroke="#01133B" stroke-width="1.32" stroke-linecap="round" stroke-linejoin="round"/><path d="M278.464 184.49v3.576M278.464 186.738l1.671-1.349" stroke="#01133B" stroke-width="1.32" stroke-linecap="round" stroke-linejoin="round"/><path fill-rule="evenodd" clip-rule="evenodd" d="m240.881 181.037-2.043-.314a4.227 4.227 0 0 0-4.847 4.62 8.018 8.018 0 0 0 5.865 6.897l1.025.28v-11.483Z" fill="#fff" stroke="#01133B" stroke-width="1.32" stroke-linecap="round" stroke-linejoin="round"/><path d="M238.482 184.49v3.576M238.482 186.738l-1.672-1.349" stroke="#01133B" stroke-width="1.32" stroke-linecap="round" stroke-linejoin="round"/><path fill-rule="evenodd" clip-rule="evenodd" d="M276.065 175.543v12.794c0 9.716-7.876 17.592-17.592 17.592-9.716 0-17.592-7.876-17.592-17.592v-12.794c0-9.716 7.876-17.593 17.592-17.593 9.716 0 17.592 7.877 17.592 17.593Z" fill="#fff" stroke="#01133B" stroke-width="1.32" stroke-linecap="round" stroke-linejoin="round"/><path d="M258.891 196.453a5.98 5.98 0 0 0 5.979-5.979M257.456 184.605l-.725 4.51 2.476.425" stroke="#01133B" stroke-width="1.32" stroke-linecap="round" stroke-linejoin="round"/><path d="M248.61 183.254c1.914 0 3.466-.891 3.466-1.99s-1.552-1.99-3.466-1.99c-1.913 0-3.465.891-3.465 1.99s1.552 1.99 3.465 1.99Z" stroke="#01133B" stroke-width="1.066" stroke-linecap="round" stroke-linejoin="round"/><path d="M248.61 183.254c1.149 0 2.079-.891 2.079-1.99s-.93-1.99-2.079-1.99c-1.148 0-2.079.891-2.079 1.99s.931 1.99 2.079 1.99Z" fill="#01133B"/><path d="M267.802 183.254c1.914 0 3.465-.891 3.465-1.99s-1.551-1.99-3.465-1.99-3.465.891-3.465 1.99 1.551 1.99 3.465 1.99Z" stroke="#01133B" stroke-width="1.066" stroke-linecap="round" stroke-linejoin="round"/><path d="M267.802 183.254c1.148 0 2.079-.891 2.079-1.99s-.931-1.99-2.079-1.99c-1.148 0-2.079.891-2.079 1.99s.931 1.99 2.079 1.99Z" fill="#01133B"/><path fill-rule="evenodd" clip-rule="evenodd" d="M250.583 156.163c12.914-3.212 22.652-2.616 29.214 1.787 9.844 6.605 1.144 24.789-20.545 18.845-14.459-3.962-17.349-10.84-8.669-20.632Z" fill="#01133B"/><path fill-rule="evenodd" clip-rule="evenodd" d="M242.375 159.925c1.355-5.292 17.1-14.05 25.374-11.347 5.516 1.802 3.915 8.054-4.801 18.756-14.618-1.411-21.476-3.88-20.573-7.409Z" fill="#01133B"/><path fill-rule="evenodd" clip-rule="evenodd" d="M244.612 159.016c-4.644-1.902-7.731-.523-9.261 4.138-1.531 4.661-.487 10.595 3.131 17.801a35.287 35.287 0 0 0 7.623-13.864c1.493-5.201.995-7.893-1.493-8.075Z" fill="#01133B"/><path d="M194.356 153.086h-91.415v11.487h91.415v-11.487ZM194.356 176.059h-91.415v11.487h91.415v-11.487ZM194.356 199.033h-91.415v11.486h91.415v-11.486ZM194.356 222.006h-91.415v11.487h91.415v-11.487ZM297.258 254.552H102.941v11.486h194.317v-11.486Z" fill="#7E9CFF"/><path d="M83.874 216.282h233.307" stroke="#01133B" stroke-opacity=".4" stroke-width="6.16" stroke-linecap="round"/><path d="M83.874 216.282h233.307" stroke="#fff" stroke-width="4.4" stroke-linecap="round"/><path d="M201.027 134.633v144.582" stroke="#01133B" stroke-opacity=".4" stroke-width="6.16" stroke-linecap="round"/><path d="M201.027 134.633v144.582" stroke="#fff" stroke-width="4.4" stroke-linecap="round"/><path d="m200.459 210.304 5.354 9.112" stroke="#01133B" stroke-opacity=".4" stroke-width="6.16" stroke-linecap="round"/><path d="m200.459 210.304 5.354 9.112" stroke="#fff" stroke-width="4.4" stroke-linecap="round"/><path d="m196.152 213.175 5.353 9.112" stroke="#01133B" stroke-opacity=".4" stroke-width="6.16" stroke-linecap="round"/><path d="m196.152 213.175 5.353 9.112" stroke="#fff" stroke-width="4.4" stroke-linecap="round"/><path d="M201.355 133.792c-5.508-17.887-11.901-26.392-19.18-25.515-10.918 1.317-4.987 5.817-16.025 7.515-7.359 1.131 4.376 7.132 35.205 18Z" stroke="#01133B" stroke-opacity=".4" stroke-width="6.16" stroke-linecap="round" stroke-linejoin="round"/><path d="M201.355 133.792c-5.508-17.887-11.901-26.392-19.18-25.515-10.918 1.317-4.987 5.817-16.025 7.515-7.359 1.131 4.376 7.132 35.205 18Z" stroke="#fff" stroke-width="4.4" stroke-linecap="round" stroke-linejoin="round"/><path d="M201.355 133.792c5.507-17.887 11.901-26.392 19.18-25.515 10.918 1.317 4.986 5.817 16.024 7.515 7.359 1.131-4.376 7.132-35.204 18Z" stroke="#01133B" stroke-opacity=".4" stroke-width="6.16" stroke-linecap="round" stroke-linejoin="round"/><path d="M201.355 133.792c5.507-17.887 11.901-26.392 19.18-25.515 10.918 1.317 4.986 5.817 16.024 7.515 7.359 1.131-4.376 7.132-35.204 18Z" stroke="#fff" stroke-width="4.4" stroke-linecap="round" stroke-linejoin="round"/><path fill-rule="evenodd" clip-rule="evenodd" d="M200.895 128.07c3.126 0 6.252 3.126 6.252 6.253 0 3.126-3.126 3.577-6.252 3.577-3.127 0-6.253-.451-6.253-3.577 0-3.127 3.126-6.253 6.253-6.253Z" fill="#fff" stroke="#01133B" stroke-opacity=".4" stroke-width=".88"/><mask id="e" style="mask-type:alpha" maskUnits="userSpaceOnUse" x="236" y="97" width="78" height="58"><path d="m262.275 103.34-26.05 12.144 19.036 39.188 23.793-10.99 2.372 4.889 18.135-9.574c11.898-6.28 16.861-20.732 11.335-33.006l-8.812-8.675-39.809 6.024Z" fill="#fff"/></mask><g mask="url(#e)"><path d="m262.275 103.341-26.05 12.144 19.035 39.187 23.794-10.991 2.372 4.89 18.135-9.574c11.898-6.281 16.861-20.732 11.336-33.007l-8.812-8.674-39.81 6.025Z" fill="#fff"/><path fill-rule="evenodd" clip-rule="evenodd" d="m261.441 102.852 19.988 45.816 43.469-24.593-19.414-42.816-44.043 21.593Z" fill="#EDEEF2"/></g><path d="m265.616 107.253-24.074 13.048 16.886 35.818 23.436-11.365-.44 3.815 17.601-9.085c12.746-6.579 17.741-22.248 11.158-34.998a25.325 25.325 0 0 0-.369-.69" stroke="#01133B" stroke-width="1.32" stroke-linecap="round" stroke-linejoin="round"/><path fill-rule="evenodd" clip-rule="evenodd" d="m245.085 116.083-5.497.979-5.095 1.643a4.071 4.071 0 0 1-5.123-2.621l-.003-.009a4.483 4.483 0 0 1 2.502-5.49l6.608-2.837a12.111 12.111 0 0 1 5.537-.96l17.206 1.073" fill="#fff"/><path d="m245.085 116.083-5.497.979-5.095 1.643a4.071 4.071 0 0 1-5.123-2.621l-.003-.009a4.483 4.483 0 0 1 2.502-5.49l6.608-2.837a12.111 12.111 0 0 1 5.537-.96l17.206 1.073" stroke="#01133B" stroke-width="1.32" stroke-linecap="round" stroke-linejoin="round"/><path fill-rule="evenodd" clip-rule="evenodd" d="m280.18 146.349-24.363 12.222a5.337 5.337 0 0 1-7.147-2.349 5.208 5.208 0 0 1 2.274-7.005l.084-.042 5.479-2.667" fill="#fff"/><path d="m280.18 146.349-24.363 12.222a5.337 5.337 0 0 1-7.147-2.349 5.208 5.208 0 0 1 2.274-7.005l.084-.042 5.479-2.667" stroke="#01133B" stroke-width="1.32" stroke-linecap="round" stroke-linejoin="round"/><path fill-rule="evenodd" clip-rule="evenodd" d="m256.501 146.57-5.603 2.727a5.229 5.229 0 0 1-6.966-2.368 5.128 5.128 0 0 1 2.342-6.9l5.603-2.727" fill="#fff"/><path d="m256.501 146.57-5.603 2.727a5.229 5.229 0 0 1-6.966-2.368 5.128 5.128 0 0 1 2.342-6.9l5.603-2.727" stroke="#01133B" stroke-width="1.32" stroke-linecap="round" stroke-linejoin="round"/><path fill-rule="evenodd" clip-rule="evenodd" d="m251.879 137.304-5.603 2.728a5.228 5.228 0 0 1-6.965-2.369 5.199 5.199 0 0 1 2.309-6.965l5.638-2.844" fill="#fff"/><path d="m251.879 137.304-5.603 2.728a5.228 5.228 0 0 1-6.965-2.369 5.199 5.199 0 0 1 2.309-6.965l5.638-2.844" stroke="#01133B" stroke-width="1.32" stroke-linecap="round" stroke-linejoin="round"/><path fill-rule="evenodd" clip-rule="evenodd" d="m247.262 127.856-5.669 2.718a15.151 15.151 0 0 1-5.23 1.431l-6.736.587a4.89 4.89 0 0 1-5.296-4.444 5.422 5.422 0 0 1 4.371-5.797l7.47-1.443 27.234-14.204" fill="#fff"/><path d="m247.262 127.856-5.669 2.718a15.151 15.151 0 0 1-5.23 1.431l-6.736.587a4.89 4.89 0 0 1-5.296-4.444 5.422 5.422 0 0 1 4.371-5.797l7.47-1.443 27.234-14.204" stroke="#01133B" stroke-width="1.32" stroke-linecap="round" stroke-linejoin="round"/><path d="m270.512 96.44-9.879 3.91 18.821 44.401" stroke="#01133B" stroke-width="1.32" stroke-linecap="round" stroke-linejoin="round"/><path fill-rule="evenodd" clip-rule="evenodd" d="m254.338 102.322 12.044-6.367 30.455 50.683-18.898 7.572-23.601-51.888Z" fill="#EDEEF2" stroke="#01133B" stroke-width="1.32" stroke-linecap="round" stroke-linejoin="round"/><mask id="f" style="mask-type:alpha" maskUnits="userSpaceOnUse" x="89" y="95" width="78" height="61"><path d="m140.263 102.021 26.05 12.144-19.287 41.581-23.794-10.991-2.12 2.496-17.258-9.162c-12.012-6.377-17.279-20.79-12.212-33.418l8.812-8.675 39.809 6.025Z" fill="#fff"/></mask><g mask="url(#f)"><path d="m140.263 102.021 26.05 12.144-19.287 41.581-23.793-10.991-2.12 2.496-17.259-9.162c-12.012-6.377-17.279-20.79-12.212-33.419l8.812-8.674 39.809 6.025Z" fill="#fff"/><path fill-rule="evenodd" clip-rule="evenodd" d="m141.098 101.532-19.989 45.816-43.468-24.593 19.414-42.816 44.043 21.593Z" fill="#EDEEF2"/></g><path d="m140.498 102.34 24.075 13.049-17.735 39.41-23.436-11.365-2.288 3.816-17.601-9.086c-12.745-6.579-17.74-22.247-11.158-34.997.12-.232.243-.462.37-.69" stroke="#01133B" stroke-width="1.32" stroke-linecap="round" stroke-linejoin="round"/><path fill-rule="evenodd" clip-rule="evenodd" d="m158.333 113.883 5.497.979 5.095 1.643a4.071 4.071 0 0 0 5.123-2.621l.003-.009a4.484 4.484 0 0 0-2.501-5.491l-6.608-2.837a12.13 12.13 0 0 0-5.538-.959l-17.206 1.073" fill="#fff"/><path d="m158.333 113.883 5.497.979 5.095 1.643a4.071 4.071 0 0 0 5.123-2.621l.003-.009a4.484 4.484 0 0 0-2.501-5.491l-6.608-2.837a12.13 12.13 0 0 0-5.538-.959l-17.206 1.073" stroke="#01133B" stroke-width="1.32" stroke-linecap="round" stroke-linejoin="round"/><path fill-rule="evenodd" clip-rule="evenodd" d="m123.239 144.149 24.363 12.221a5.337 5.337 0 0 0 7.147-2.348 5.208 5.208 0 0 0-2.359-7.047l-5.479-2.667" fill="#fff"/><path d="m123.239 144.149 24.363 12.221a5.337 5.337 0 0 0 7.147-2.348 5.208 5.208 0 0 0-2.359-7.047l-5.479-2.667" stroke="#01133B" stroke-width="1.32" stroke-linecap="round" stroke-linejoin="round"/><path fill-rule="evenodd" clip-rule="evenodd" d="m146.918 144.37 5.602 2.727a5.228 5.228 0 0 0 6.966-2.368 5.127 5.127 0 0 0-2.298-6.878l-.044-.022-5.603-2.727" fill="#fff"/><path d="m146.918 144.37 5.602 2.727a5.228 5.228 0 0 0 6.966-2.368 5.127 5.127 0 0 0-2.298-6.878l-.044-.022-5.603-2.727" stroke="#01133B" stroke-width="1.32" stroke-linecap="round" stroke-linejoin="round"/><path fill-rule="evenodd" clip-rule="evenodd" d="m151.539 135.104 5.603 2.727a5.228 5.228 0 0 0 6.966-2.368 5.2 5.2 0 0 0-2.31-6.965l-5.637-2.844" fill="#fff"/><path d="m151.539 135.104 5.603 2.727a5.228 5.228 0 0 0 6.966-2.368 5.2 5.2 0 0 0-2.31-6.965l-5.637-2.844" stroke="#01133B" stroke-width="1.32" stroke-linecap="round" stroke-linejoin="round"/><path fill-rule="evenodd" clip-rule="evenodd" d="m156.157 125.656 5.668 2.718a15.15 15.15 0 0 0 5.23 1.43l6.736.588a4.89 4.89 0 0 0 5.296-4.445 5.419 5.419 0 0 0-4.371-5.796l-7.47-1.443-27.234-14.204" fill="#fff"/><path d="m156.157 125.656 5.668 2.718a15.15 15.15 0 0 0 5.23 1.43l6.736.588a4.89 4.89 0 0 0 5.296-4.445 5.419 5.419 0 0 0-4.371-5.796l-7.47-1.443-27.234-14.204M132.027 95.121l9.879 3.91-18.821 44.4" stroke="#01133B" stroke-width="1.32" stroke-linecap="round" stroke-linejoin="round"/><path fill-rule="evenodd" clip-rule="evenodd" d="m147.76 101.002-12.043-6.367-30.455 50.683 18.897 7.572 23.601-51.888Z" fill="#EDEEF2" stroke="#01133B" stroke-width="1.32" stroke-linecap="round" stroke-linejoin="round"/><path fill-rule="evenodd" clip-rule="evenodd" d="m146.84 105.941-16.572 41.406-2.579-.624 17.405-40.782h1.746ZM257.974 107.548l-1.389.001 16.821 42.423 2.655-1.305-18.087-41.119Z" fill="#01133B"/></g></svg>