<svg viewBox="0 0 400 300" fill="none" xmlns="http://www.w3.org/2000/svg"><mask id="a" style="mask-type:alpha" maskUnits="userSpaceOnUse" x="0" y="67" width="400" height="166"><path fill="#E01E67" d="M.947 67.587H400v164.826H.947z"/></mask><g mask="url(#a)"><path d="m79.297 200.062-2.605 7.156L64.14 202.7l-5.85 16.038-16.147-5.812-4.531 12.468-7.188-2.586L37.56 203.2l16.146 5.812 5.85-16.038 19.74 7.088Z" fill="#FFCA36"/><path d="m336.512 183.223-7.899-27.326c-3.746-8.644-7.713-12.384-14.407-17.449a29.06 29.06 0 0 0-19.675-5.875l-18.965 1.317-26.065 1.823c-3.409.38-10.228 2.735-17.037 8.757-6.101 4.788-8.716 6.711-9.261 7.074l20.701 22.581-3.541 59.037 84.165-2.448-10.322-19.861-10.147-23.072 32.453-4.558Z" fill="#FFCD6C"/><rect x="58.489" y="89.429" width="86.131" height="116.616" rx=".968" fill="#fff"/><circle opacity=".2" cx="101.555" cy="124.269" r="19.355" fill="#C4C4C4"/><path d="M118.061 135.811H85.049v33.012h33.012v-33.012Z" fill="#fff" fill-opacity=".01"/><path d="M90.55 166.072v-26.134c0-.76.617-1.376 1.376-1.376h19.257c.76 0 1.376.616 1.376 1.376v26.134l-11.004-5.689-11.004 5.689Z" fill="#5CE0D2"/><path d="M101.521 145.405v8.253M97.394 149.531h8.253" stroke="#fff" stroke-width="2.292" stroke-linecap="round" stroke-linejoin="round"/><path opacity=".2" fill="#C4C4C4" d="M70.586 172.174h61.937v6.774H70.586zM83.651 186.207h35.807v6.774H83.651z"/><circle cx="130.587" cy="181.367" r="6.774" fill="#EFC953"/><path d="M131.618 120.073c-3.258-4.127-1.357-6.968 0-7.873 1.068-1.086 2.443-1.901 20.36 20.09 17.917 21.991 41.546 41.811 43.989 41.811 1.955 0 19.456-15.204 27.962-22.806l19.003 22.806c-5.611 3.529-20.361 13.737-34.477 26.335-17.518 15.633-28.882 2.367-32.233-1.545l-.072-.084c-2.606-3.041-27.067-23.711-31.23-33.666v-21.176c-8.035-3.91-8.234-12.489-7.33-16.29-.633-.815-2.714-3.475-5.972-7.602ZM341.322 239.53c7.15-10.437-1.174-46.026-6.229-62.516-7.15 4.784-24.105 7.429-31.688 8.154.542 2.175 1.842 7.285 2.708 10.329-1.95-2.175-15.618-11.416-22.208-15.765v39.62c5.055 4.621 14.59 11.855 21.125 16.101 7.186 4.67 27.354 17.124 36.292 4.077Z" fill="#E01E67"/><path stroke="#000" stroke-width="1.446" stroke-linecap="round" stroke-linejoin="round" d="m294.43 159.766 11.649 34.948"/><path d="M279.932 173.141h-103.2a4.046 4.046 0 0 0-4.046 4.047v64.973a4.046 4.046 0 0 0 4.046 4.047h103.2a4.047 4.047 0 0 0 4.047-4.047v-64.973a4.047 4.047 0 0 0-4.047-4.047Z" fill="#fff"/><path d="M279.932 170.238h-103.2a4.046 4.046 0 0 0-4.046 4.047v10.469h111.293v-10.469a4.047 4.047 0 0 0-4.047-4.047Z" fill="#FFB7ED"/><path d="M263.437 177.332h4.895" stroke="#211E42" stroke-width=".371" stroke-miterlimit="10" stroke-linecap="round" stroke-linejoin="round"/><path d="M221.8 169.512c0-2.516.242-7.016 4.597-7.016l-.484 7.016H221.8Z" fill="#111"/><path d="M256.373 159.35c17.276-.658 22.855 6.848 23.485 10.684h-5.399c-2.283 5.204-8.908 21.094-13.227 21.094-3.455 0-2.16-7.123-1.08-10.684-1.62 3.561-5.669 10.684-8.908 10.684s-2.61-5.662-1.89-8.493c-1.799 3.105-6.1 9.15-8.908 8.493-2.807-.658-2.429-5.936-1.89-8.493-.989 3.014-3.995 8.712-8.098 7.397-4.103-1.315.99-13.88 4.049-19.998h-8.098c-.9 0-2.7-.822-2.7-4.11 0-3.287 2.88-3.743 4.32-3.561h10.527c1.89-1.004 8.099-3.013 17.817-3.013Z" fill="#E01E67"/><path d="M203.896 170.034h30.611m26.725 21.094c-3.455 0-2.159-7.123-1.08-10.684.583-1.733 1.951-5.605 2.761-7.224m-8.094-2.529c-2.292 4.628-3.018 6.515-3.986 9.224-1.209 3.388-2.951 10.356-.242 11.13m-5.322-23.227c-2.42 4.355-4.228 8.731-5.196 11.44-1.21 3.388-2.952 10.356-.242 11.13" stroke="#000" stroke-width="1.448" stroke-linecap="round" stroke-linejoin="round"/><path d="M301.605 102.807c-1.515-.766-3.1-.569-4.343-.037-.321-11.853-9.233-22.037-21.337-23.56-12.105-1.522-23.367 6.125-26.664 17.519-1.126-.848-2.587-1.354-4.274-1-2.075.436-3.803 1.883-4.357 3.76-1.033 3.468 1.286 6.774 4.618 7.158.703.123 1.508.089 2.129-.177.519-.108 1.12.172 1.1.718 1.66 10.488 9.985 19.17 21.1 20.494 11.141 1.454 21.324-4.883 25.651-14.596.178-.444.799-.71 1.27-.402.628.41 1.332.533 2.035.656 3.332.384 6.426-2.297 6.237-5.779-.02-2.028-1.233-3.941-3.165-4.754Z" fill="#E01E67"/><path d="m284.262 80.856-1.104-1.393c-1.474-1.858-4.082-2.665-6.309-1.656l-.881.32c-1.113.505-2.464.518-3.611.217l-2.894-.883c-1.721-.451-3.565-.2-4.931 1.036l-1.858 1.474c-.799.71-1.94 1.084-3.005 1.172l-.805.034c-2.39.23-4.351 1.861-4.823 4.128-.376 1.433-1.326 2.716-2.671 3.405-1.913 1.214-1.449 3.42-1.6 3.994-.267 1.952-2.008 2.047-1.436 4.771.498.437.969.745 1.337 1.21.71.799 2.007.526 2.362-.361 1.58-3.447 4.492-8.935 7.796-8.68 2.472.158 3.658 1.94 14.069 3.141 10.309 1.358 12.037-.089 14.304.383 3.256.671 4.797 6.714 5.429 10.374.218 1.038 1.393 1.469 2.246 1.019.492-.239 1.345-.689 1.967-.955-.225-1.713.144-1.249.11-2.055.145-1.249-.982-2.097-.47-2.881.82-1.256.91-2.765-.114-3.769l-.497-.437c-.656-.54-.976-1.421-.88-2.254.015-1.222-.62-2.308-1.822-2.868l-.287-.076c-.914-.485-1.65-1.414-1.739-2.48l-.224-1.713c-.198-1.584-1.534-2.794-3.173-2.856l-2.158.047c-.86-.226-1.775-.71-2.328-1.408Z" fill="#000"/><path d="M268.473 197.16h-29.339v36.926h29.339V197.16Z" fill="#55C5FF"/><path d="m239.708 197.85 28.549 35.776M268.015 197.577l-28.549 36.291" stroke="#000" stroke-width=".968" stroke-linecap="round" stroke-linejoin="round"/><path d="M136.877 181.367h16.936v24.678h85.164" stroke="#000" stroke-width="1.446" stroke-linecap="round" stroke-linejoin="round"/></g></svg>