<svg viewBox="0 0 400 300" fill="none" xmlns="http://www.w3.org/2000/svg"><mask id="a" style="mask-type:alpha" maskUnits="userSpaceOnUse" x="15" y="50" width="370" height="200"><path fill="#E01E67" d="M15 50.797h370v198.406H15z"/></mask><g mask="url(#a)"><path fill="#fff" d="M325.979 89.851h23.143v125.838h-23.143zM285.48 75.386h23.143v140.302H285.48zM244.979 97.082h23.143v47.732h-23.143z"/><path d="m189.357 311.922 78.896-107.054 43.3 15.141v12.486c16.789 36.552 64.375 79.87 86.069 96.959l2.125 27.627h-33.471c-31.665-22.739-66.677-65.259-80.224-83.677l-51.801 70.129-44.894-31.611Z" fill="#55C5FF"/><path d="M88.147 90.11c-2.976 0-3.72 1.948-3.72 2.922.426 2.338 3.543 2.745 5.048 2.656 1.86 0 5.897.213 7.172 1.063-2.39 2.125-.797 4.25 0 5.313-2.39.266-1.594 4.25-1.328 5.047-.85.213-.531 2.391-.266 3.453.178 1.063 1.382 3.932 4.782 6.907 4.25 3.719 4.516-.797 5.313-2.656 27.011 20.598 61.895 25.236 72.786 27.095 10.892 1.86 49.689 10.86 56.198 12.306 0-5.047-.266-4.665 0-11.571.212-5.526 4.339-16.634 5.963-21.986a25883.48 25883.48 0 0 1-47.816-4.782c-20.986-2.125-38.784-7.969-43.831-9.297-5.047-1.328-26.033-9.829-36.393-13.548-10.36-3.719-20.19-2.922-23.908-2.922Z" fill="#E01E67"/><path d="M227.623 152.769c.579-5.207 6.509-16.633 9.402-21.696l-2.893 23.143c-1.205-.241-4.195-.868-6.509-1.447Z" fill="#000"/><path d="m95.999 107.207 8.679 7.232M111.486 94.19l-6.782 8.172c-.857.881-2.244 2.981-.935 4.327 1.31 1.346 4.131-.241 5.378-1.202l4.209-3.846M98.502 97.313l6.963 3.864M97.51 102.624l5.785 3.616" stroke="#000" stroke-width="1.341" stroke-linecap="round" stroke-linejoin="round"/><path d="M309.878 82.501s4.79 10.095 15.272 14.754c6.859 3.106 21.483 13.718 20.707 30.153-.777 16.695 17.729 9.707 17.729 26.272 0 21.872-41.283 16.177-55.131-6.341-10.353-16.695-11.259-29.766-11.259-29.766s17.729-18.118 12.682-35.072Z" fill="#000"/><path d="M289.172 118.997c-13.223 0-23.942-10.719-23.942-23.942s10.719-23.942 23.942-23.942 23.942 10.72 23.942 23.942c0 13.223-10.719 23.942-23.942 23.942Z" fill="#E01E67"/><path d="M288.008 71.113c4.529-.647 24.2 3.235 25.106 22.13.906 18.895-15.341 26.982-15.341 26.982l-1.094-12.617c0-.906.646-1.682 1.552-1.682 2.459 0 4.918-1.682 5.436-4.529.388-1.812-.388-3.883-1.811-5.048a5.973 5.973 0 0 0-4.272-1.294c-.647.13-12.424 2.718-14.236-5.565-.647-2.976-3.106-5.177-6.212-5.436-1.811-.129-3.494-1.164-4.529-2.846l-1.294-2.33c5.823-5.695 12.165-7.118 16.695-7.765Z" fill="#000"/><path d="M233.719 143.504c.425-5.525 4.427-17.532 6.375-22.845 11.901 0 29.221 4.25 36.394 6.375l2.656 3.188 10.526-3.924c10.342-3.856 21.922.767 26.766 10.685l12.915 26.445-20.455 28.158c0 8.323-3.719 24.598-18.595 23.111-14.876-1.488-34.179-16.027-41.972-23.111l8.235-22.846-2.922-10.36-19.923-4.25c-.177-1.24-.425-5.1 0-10.626Z" fill="#FFCD6C"/><path d="M316.114 168.768c-4.25.637-13.459-.266-17.533-.797l7.173 19.658-43.034-43.035c-.532-.974-1.966-2.869-3.454-2.656-1.859.266-2.391 2.391-2.391 4.781-1.859.797-3.719 3.985-3.719 6.907s-.797 2.391-2.39 8.501c4.781 19.392 39.049 53.925 45.69 58.707 6.641 4.781 19.658 12.751 32.674 7.969 13.017-4.781 10.095-25.767 8.767-33.736-1.063-6.376-6.287-23.554-8.767-31.346-2.568 1.416-8.766 4.409-13.016 5.047Z" fill="#E01E67"/><path d="M262.409 155.723c-1.771-3.099-5.26-9.669-5.047-11.157-.797 1.594-1.86 3.985-2.657 4.516-.797.532-.797 1.329-.797 2.657s-1.328 5.578-1.859 6.641c-.425.85-.531 1.771-.531 2.125" stroke="#000" stroke-width="1.341" stroke-linecap="round" stroke-linejoin="round"/><path d="M346.621 134.633c-1.928-3.616-12.948-14.673-15.58-10.069-2.479 4.34 11.241 8.864 15.58 10.069Z" stroke="#fff" stroke-width="1.341"/><path d="m74.958 78.629.907-9.234 4.111 7.734L90.17 64.503l-2.116 13.58 11.518-2.76-7.07 7.912" stroke="#E01E67" stroke-width="1.341" stroke-linecap="round" stroke-linejoin="round"/><path stroke="#000" stroke-width="2.681" stroke-linecap="round" d="m61.705 80.065 24.509 35.402"/><path stroke="#000" stroke-width="1.341" stroke-linecap="round" stroke-linejoin="round" d="m295.007 155.363 11.147 33.442M260.891 180.975c6.991 9.401 22.708 29.506 29.651 34.714"/><path d="m130.713 72.242 6.447 6.037 10.91-11.571" stroke="#5CE0D2" stroke-width="4.022" stroke-linecap="round" stroke-linejoin="round"/><path d="M59.116 104.314c-13.018 10.125-18.658 39.632-12.294 56.41" stroke="#5CE0D2" stroke-width="1.341" stroke-linecap="round"/><rect x="75.749" y="169.403" width="148.357" height="96.417" rx="4.022" fill="#fff"/><path d="m46.098 187.33 15.982-4.909-2.964 16.48-5.063-4.339-10 10.298-2.537-2.836 9.644-10.355-5.062-4.339Z" fill="#E01E67"/><path stroke="#5783FC" stroke-width="1.341" stroke-linecap="round" d="M87.992 193.322h124.497"/><circle cx="90.214" cy="182.421" r="2.893" fill="#E01E67"/><circle cx="101.785" cy="182.421" r="2.893" fill="#EFC953"/><circle cx="113.356" cy="182.421" r="2.893" fill="#5CE0D2"/></g></svg>