<svg viewBox="0 0 400 300" fill="none" xmlns="http://www.w3.org/2000/svg"><path d="M202.369 151.851h-13.574a2.913 2.913 0 0 0-2.913 2.913v81.435a4.673 4.673 0 0 0 4.673 4.673h108.626v-76.247a4.674 4.674 0 0 0-4.673-4.674h-89.226v-5.187a2.913 2.913 0 0 0-2.913-2.913Z" fill="#011650"/><path d="M299.183 101.676H98.481v139.196h200.702V101.676ZM74.203 125.145h232.409" stroke="#F6BCD1" stroke-width="1.619" stroke-linecap="round" stroke-linejoin="round"/><path fill="#DFE8FE" d="m341.266 129.588 6.862-6.872 6.871 6.862-6.861 6.872z"/><path d="M222.195 135.665h-24.153a4.063 4.063 0 0 0-4.063 4.063v83.003a5.191 5.191 0 0 0 5.191 5.192h115.864a5.191 5.191 0 0 0 5.192-5.192v-72.74a5.192 5.192 0 0 0-5.192-5.192h-88.776v-5.071a4.063 4.063 0 0 0-4.063-4.063Z" fill="#5783FC"/><path d="M267.624 111.387a.81.81 0 0 1 .809-.81h4.856a.81.81 0 0 1 .809.81v4.855a.81.81 0 0 1-.809.81h-4.856a.81.81 0 0 1-.809-.81v-4.855Z" stroke="#5783FC" stroke-width="1.619"/><path d="M252.247 113.814c0-.447.362-.809.809-.809h6.475a.809.809 0 1 1 0 1.618h-6.475a.809.809 0 0 1-.809-.809Z" fill="#011650"/><path fill-rule="evenodd" clip-rule="evenodd" d="M287.434 110.664a.81.81 0 0 1 1.145 1.144l-2.008 2.008 2.007 2.006a.81.81 0 0 1-1.144 1.145l-2.007-2.007-2.007 2.007a.809.809 0 1 1-1.144-1.145l2.006-2.006-2.007-2.008a.809.809 0 1 1 1.145-1.144l2.007 2.007 2.007-2.007Z" fill="#FC466F"/><path d="M72.585 193.487c11.654 10.913 18.883 36.137 21.041 47.385 5.665-21.3 15.4-61.999 42.083-72.514 17.514-6.901 34.482-2.495 46.938 3.532" stroke="#011650" stroke-width="1.619" stroke-linecap="round" stroke-linejoin="round"/><circle cx="72.588" cy="185.84" r="14.567" fill="#FF3175"/><path d="M219.875 210.119h74.454" stroke="#fff" stroke-width="1.619" stroke-linecap="round"/><rect x="72.588" y="69.304" width="79.309" height="55.031" rx="3.237" fill="#DFE8FE"/><path d="m77.444 72.54 70.407 47.747M147.85 73.35l-71.216 46.937" stroke="#fff" stroke-width="1.619" stroke-linecap="round"/><circle cx="77.443" cy="61.211" r="3.237" fill="#5783FC"/><circle cx="88.774" cy="61.211" r="2.428" stroke="#FC466F" stroke-width="1.619"/><path d="M265.359 61.499c1.212-.32 2.321.773 1.996 1.968l-3.426 12.606c-.325 1.196-1.839 1.596-2.727.721l-9.359-9.229c-.887-.874-.482-2.368.73-2.688l12.786-3.378Z" fill="#5783FC"/></svg>