<svg viewBox="0 0 400 300" fill="none" xmlns="http://www.w3.org/2000/svg"><path d="M288.651 97.387H159.437c-8.443 0-15.968 3.304-21.475 8.81-5.506 5.507-8.81 13.032-8.81 21.475v3.487c0 .367 0 .551.184.918v.551c0 .183 0 .55.183.734 0 .183 0 .367.184.55 0 .184.183.551.183.734.184.551.184.918.368 1.469 0 .183 0 .367.183.367 0 .367.184.551.184.918 0 .183.183.367.183.367.184.367.184.55.367.917 0 .184.184.184.184.368.183.367.183.55.367.917 0 .184 0 .184.183.367.184.367.367.551.367.918.918 1.835 2.02 3.487 3.304 5.139h80.759c9.728 0 18.355 4.589 23.861 11.564h11.563l26.614 25.328v-25.328h10.278c8.443 0 15.969-3.304 21.475-8.811 5.506-5.506 8.81-13.031 8.81-21.474 0-16.703-13.582-30.285-30.285-30.285Z" fill="#EB0747" style="mix-blend-mode:multiply"/><path d="M288.651 97.387H159.437c-8.443 0-15.968 3.304-21.475 8.81-5.506 5.507-8.81 13.032-8.81 21.475v3.487c0 .367 0 .551.184.918v.551c0 .183 0 .55.183.734 0 .183 0 .367.184.55 0 .184.183.551.183.734.184.551.184.918.368 1.469 0 .183 0 .367.183.367 0 .367.184.551.184.918 0 .183.183.367.183.367.184.367.184.55.367.917 0 .184.184.184.184.368.183.367.183.55.367.917 0 .184 0 .184.183.367.184.367.367.551.367.918.918 1.835 2.02 3.487 3.304 5.139h80.759c9.728 0 18.355 4.589 23.861 11.564h11.563l26.614 25.328v-25.328h10.278c8.443 0 15.969-3.304 21.475-8.811 5.506-5.506 8.81-13.031 8.81-21.474 0-16.703-13.582-30.285-30.285-30.285Z" stroke="#EB0747" stroke-width="1.835" stroke-miterlimit="10" stroke-linecap="round" stroke-linejoin="round" style="mix-blend-mode:multiply"/><path d="M157.602 157.957h-.551c-.367 0-.734 0-1.101-.184h-.551c-.367 0-.734-.184-1.101-.184-.184 0-.367 0-.551-.183-.367 0-.734-.184-1.101-.184-.184 0-.367 0-.551-.183-.367-.184-.734-.184-1.101-.367-.184 0-.183 0-.367-.184-1.101-.367-2.019-.734-3.12-1.101-.551-.184-.918-.367-1.469-.734 0 0-.183 0-.183-.184-.367-.183-.918-.367-1.285-.734l-.183-.183c-.368-.184-.735-.551-1.285-.735 0 0-.184 0-.184-.183-.367-.367-.918-.551-1.285-.918-2.202-1.652-5.047-3.671-6.883-5.873H84.46C67.757 145.843 55 159.425 55 176.127c0 16.703 13.582 30.285 30.285 30.285h10.278v25.329l26.614-25.329h94.158c16.702 0 30.284-13.582 30.284-30.285 0-6.974-2.386-13.582-6.424-18.721h-80.759c-.734.551-1.285.551-1.835.551Z" fill="#DFE8FE"/><path d="M143.408 152.267c.367.367.918.551 1.285.918 0 0 .183 0 .183.183.368.184.735.551 1.285.735l.184.183c.367.184.734.367 1.285.734 0 0 .183 0 .183.184.551.183.918.367 1.468.734 1.102.367 2.019.734 3.121 1.101.183 0 .183 0 .367.184.367.183.734.183 1.101.367.183 0 .367 0 .551.183.367 0 .734.184 1.101.184.183 0 .367 0 .551.183.367 0 .734.184 1.101.184h.55c.368 0 .735 0 1.102.184h81.004c-5.506-7.159-14.133-11.564-23.861-11.564h-78.802c2.019 1.652 4.038 3.671 6.241 5.323Z" fill="#011650" stroke="#011650" stroke-width="1.835" stroke-miterlimit="10"/><path d="M183.083 133.087a4.834 4.834 0 1 0 0-9.667 4.834 4.834 0 0 0 0 9.667ZM224.166 133.087a4.834 4.834 0 1 0 0-9.667 4.834 4.834 0 0 0 0 9.667ZM265.25 133.087a4.833 4.833 0 1 0 0-9.667 4.833 4.833 0 0 0 0 9.667Z" fill="#fff"/><path d="M84.001 182.184s31.019-7.525 19.089-15.05c-11.93-7.526-15.418 15.05 20.373 15.05 10.645 0 8.076-6.791 26.981-3.487 29.55 5.139 28.266-7.342 42.031-2.203 13.766 5.14 26.063 6.791 26.063 6.791" stroke="#011650" stroke-width="2.417" stroke-miterlimit="10" stroke-linecap="round"/><path d="M298.379 67.837V86.19M345 122.165h-18.171M336.006 82.704l-15.601 13.398" stroke="#F6BCD1" stroke-width="1.835" stroke-miterlimit="10" stroke-linecap="round" stroke-linejoin="round"/></svg>