<svg viewBox="0 0 400 300" fill="none" xmlns="http://www.w3.org/2000/svg"><mask id="a" style="mask-type:alpha" maskUnits="userSpaceOnUse" x="0" y="58" width="400" height="184"><path fill="#F1F3FF" d="M.334 58.696h399.333V241H.334z"/></mask><g mask="url(#a)"><path fill="#fff" d="M23.52 81.348h91.291v54.706H23.52z"/><path stroke="#000" stroke-width=".967" d="M92.185 93.279v42.552M46.732 110.687v25.144M68.336 106.442v85.104h49.278"/><path d="m33.132 135.831 13.297-24.737c2.66-4.276 3.627-9.141 11.122-10.32 8.826-1.39 9.392 8.839 19.992 7.072 10.599-1.766 15.212-21.585 26.669-24.96 5.804-1.71 12.815-2.18 18.805-1.71" stroke="#24A8FF" stroke-width="1.451"/><path d="M23.52 102.889c3.135-2.166 10.298-4.34 16.583 1.709 6.326 6.088 9.711 10.25 16.241 9.061 14.988-2.731 16.68-21.632 31.627-21.199 11.796.342 15.275 19.919 28.379 19.66 13.104-.259 17.722-14.531 21.711-21.37" stroke="#5CE0D2" stroke-width="1.451"/><circle r="3.868" transform="matrix(-1 0 0 1 122.589 81.19)" fill="#E01E67"/><circle r="3.868" transform="matrix(-1 0 0 1 137.578 91.828)" fill="#55C5FF"/><path d="M23.483 135.379h91.153" stroke="#000" stroke-width=".967"/><path fill-rule="evenodd" clip-rule="evenodd" d="M175.048 110.783c-10.99 0-19.899 8.909-19.899 19.898 0 9.674 6.903 17.735 16.052 19.527l4.78 4.793a.655.655 0 0 0 .928 0l4.78-4.793c9.148-1.793 16.05-9.854 16.05-19.527 0-10.989-8.909-19.898-19.898-19.898h-2.793Z" fill="#5CE0D2"/><path d="M176.363 124.747v13.105M169.811 131.299h13.105" stroke="#fff" stroke-width="3.416" stroke-linecap="round" stroke-linejoin="round"/><path d="M289.639 88.385s4.995 10.528 15.927 15.387c7.154 3.239 22.405 14.307 21.596 31.448-.81 17.411 18.489 10.123 18.489 27.399 0 22.81-43.055 16.871-57.496-6.614-10.798-17.411-11.743-31.043-11.743-31.043s18.491-19.031 13.227-36.577Z" fill="#000"/><path d="M330.952 145.436c-1.929-3.617-10.126-13.743-13.02-8.68-2.631 4.605 8.68 7.474 13.02 8.68Z" stroke="#F1F3FF" stroke-width="1.157"/><path d="M268.044 126.312c-13.79 0-24.969-11.179-24.969-24.969 0-13.79 11.179-24.97 24.969-24.97 13.79 0 24.97 11.18 24.97 24.97s-11.18 24.969-24.97 24.969Z" fill="#E01E67"/><path d="M266.831 76.508c4.724-.675 25.238 3.375 26.183 23.08.945 19.706-16.735 25.374-16.735 25.374l-.405-10.393c0-.944.674-1.754 1.619-1.754 2.564 0 5.129-1.755 5.669-4.724.405-1.89-.404-4.049-1.889-5.264a6.233 6.233 0 0 0-4.455-1.349c-.675.135-12.957 2.834-14.847-5.804-.675-3.105-3.239-5.399-6.478-5.669-1.89-.135-3.644-1.215-4.724-2.97l-1.35-2.429c6.074-5.938 12.688-7.423 17.412-8.098Z" fill="#000"/><path d="m344.863 221.796 15.988 25.753h-89.339l-5.005-22.213 78.356-3.54Z" fill="#000" stroke="#211E42" stroke-width="1.22" stroke-miterlimit="10" stroke-linecap="round" stroke-linejoin="round"/><path d="m289.331 169.315-11.839 55.532-4.638.123 16.477-55.655Z" fill="#000"/><path d="m115.511 148.804 13.548 67.127h83.115v1.709a5.21 5.21 0 0 1-5.248 5.248h-76.525c-4.028 0-7.445-2.808-8.299-6.835l-11.839-59.194c-.976-3.661 1.464-7.323 5.248-8.055Z" fill="#55C5FF"/><path d="M229.281 233.269s8.055 5.492 6.469 7.933h12.693l-19.162-7.933Z" fill="#000"/><path d="M176.313 182.252s-1.953-.122-3.905.244l3.905-.244Z" fill="#fff"/><path d="M176.313 182.252s-1.953-.122-3.905.244" stroke="#211E42" stroke-width="1.22" stroke-miterlimit="10" stroke-linecap="round" stroke-linejoin="round"/><path d="M201.489 184.21s-25.253-13.396-46.994-9.333c-1.866.329-3.075 2.195-2.635 4.062.439 1.647 2.086 2.745 3.733 2.416 8.345-1.318 12.407 0 12.407 0-5.599.988-14.713 6.917-13.395 18.007.219 1.537 1.428 3.075 2.855 3.075 0 0 .549 3.733 3.623 3.843 0 0 1.098 6.695 6.259 7.793 1.098.22 2.306-.22 3.074-1.098 1.098-1.976-.599-4.594-.599-4.594-2.416-5.27.709-5.945 2.246-6.713.549-.22 1.098 0 1.318.549.439 1.427 1.427 3.485 2.964 5.681s3.626 3.626 6.528 5.077l6.758 3.187 11.858-31.952Z" fill="#E01E67"/><path d="m189.884 216.118 11.606-31.43 40.731 11.844 13.058-44.67c2.563-9.641 8.3-14.646 11.839-16.598 12.937-7.201 30.635-2.563 40.399 13.669l37.346 72.985-68.713 3.052-1.953 6.468c-2.93 9.398-14.036 13.792-24.41 9.886h-43.571v-16.965l-16.332-8.241Z" fill="#FFCD6C" stroke="#FFCD6C" stroke-width="1.22" stroke-miterlimit="10" stroke-linecap="round" stroke-linejoin="round"/><path d="M157.46 202.436c-.659-15.591 14.933-16.909 14.933-16.909" stroke="#211E42" stroke-width="1.098" stroke-miterlimit="10" stroke-linecap="round"/><path d="M173.052 191.237c-2.196 0-13.506 2.635-11.969 15.152" stroke="#211E42" stroke-width="1.098" stroke-miterlimit="10" stroke-linecap="round"/><path d="M170.967 180.521c-1.647.11-3.294.549-3.294.549l3.294-.549Z" fill="#fff"/><path d="M170.967 180.521c-1.647.11-3.294.549-3.294.549" stroke="#211E42" stroke-width="1.098" stroke-miterlimit="10" stroke-linecap="round" stroke-linejoin="round"/><path d="M171.045 180.254s-4.721-1.427-11.638.11c0 0 5.819-.659 8.015.439l3.623-.549Z" fill="#000" stroke="#211E42" stroke-width="1.098" stroke-miterlimit="10" stroke-linecap="round" stroke-linejoin="round"/><path d="m200.517 185.307-12.753 30.086 1.976.878 10.777-30.964ZM289.331 180.666l-8.299 43.449-4.76.366 13.059-43.815ZM221.104 230.217s21.237 7.079 17.698 11.229l9.52-.244-27.218-10.985Z" fill="#000"/><path d="m206.217 224.359 43.57 16.965M276.271 224.482l14.646-49.43" stroke="#211E42" stroke-width="1.22" stroke-miterlimit="10" stroke-linecap="round" stroke-linejoin="round"/></g></svg>