<svg viewBox="0 0 400 300" fill="none" xmlns="http://www.w3.org/2000/svg"><rect x="94.413" y="69.627" width="205.237" height="117.759" rx="3.785" fill="#011650" stroke="#011650" stroke-width="2.523"/><circle cx="197.031" cy="174.769" r="4.206" stroke="#FF3175" stroke-width=".841"/><path d="M94.413 73.412a3.785 3.785 0 0 1 3.785-3.785h197.667a3.785 3.785 0 0 1 3.785 3.785v88.74H94.413v-88.74Z" fill="#DFE8FE" stroke="#011650" stroke-width="2.523"/><path d="M160.442 99.488h137.947v61.403H160.442V99.488Z" fill="#5783FC"/><path d="M172.435 111.684c0-.336.272-.609.609-.609h4.876a.609.609 0 1 1 0 1.219h-4.876a.609.609 0 0 1-.609-.61Z" fill="#011650"/><path fill-rule="evenodd" clip-rule="evenodd" d="M199.277 109.31a.61.61 0 0 0-.862.862l1.512 1.512-1.512 1.511a.61.61 0 0 0 .862.862l1.511-1.511 1.512 1.511a.61.61 0 0 0 .862-.862l-1.512-1.511 1.512-1.512a.61.61 0 0 0-.862-.862l-1.512 1.512-1.511-1.512Z" fill="#FC466F"/><path fill="#CFEDFC" d="M169.693 137.339h121.124v23.552H169.693z"/><circle cx="181.05" cy="147.853" r="4.626" fill="#fff"/><path stroke="#011650" stroke-width=".841" d="M190.723 146.171h73.179M190.723 158.788h73.179M190.723 149.535h37.01"/><path d="M181.05 156.265a4.626 4.626 0 0 0-4.626 4.626h9.252a4.626 4.626 0 0 0-4.626-4.626Z" fill="#fff"/><rect x="169.693" y="106.217" width="85.796" height="10.094" rx="5.047" fill="#fff"/><rect x="263.901" y="106.217" width="10.094" height="10.094" rx="5.047" fill="#fff"/><rect x="280.725" y="106.217" width="10.094" height="10.094" rx="5.047" fill="#011650"/><path stroke="#011650" stroke-width=".841" d="M169.693 123.46h121.124"/><path fill="#DFE8FE" d="M174.32 188.648h45.421v45.421H174.32z"/><path d="M220.163 188.648h-45.422l45.422 19.346v-19.346Z" fill="#9EB7F3"/><path d="M93.992 81.824H30.907v23.552" stroke="#011650" stroke-width="1.682"/><circle cx="30.907" cy="128.087" r="24.393" fill="#FF3175"/><path d="M45.206 113.787H16.607v28.598h28.6v-28.598Z" fill="#fff" fill-opacity=".01"/><path d="m24.948 122.128 11.916 11.916M24.948 134.044l11.916-11.916" stroke="#fff" stroke-width="2.383" stroke-linecap="round" stroke-linejoin="round"/><path d="m108.092 172.681-31.154 32.465-13.457-11.928 30.16-34.423.722-.823-.982-.485-26.148-12.917 91.713-43.443-34.761 94.95-14.776-23.265-.575-.905-.742.774Z" fill="#fff" stroke="#FF3175" stroke-width="1.682"/><path stroke="#000" stroke-width=".978" stroke-linecap="round" d="M159.954 90.27v-8.798M170.528 92.369l4.399-7.619M150.356 92.37l-4.399-7.62"/><path d="m312.704 191.633-11.784-20.41c-6.508-11.272-2.645-25.686 8.627-32.194 11.272-6.508 25.686-2.645 32.194 8.627" stroke="#FD6" stroke-width="8.411"/><path opacity=".5" d="m304.697 169.303 11.783 20.41-7.284 4.206-11.784-20.411c-1.363-2.361-2.809-5.046-3.229-7.99l10.514 3.785Z" fill="#011650"/><path d="M289.977 175.893a3.595 3.595 0 0 1 3.595-3.596h54.212a3.596 3.596 0 0 1 3.596 3.596v27.106c0 16.956-13.746 30.701-30.702 30.701-16.956 0-30.701-13.745-30.701-30.701v-27.106Z" fill="#FF3175"/><path fill-rule="evenodd" clip-rule="evenodd" d="M325.304 199.621a7.571 7.571 0 1 0-8.411 0v9.686a4.206 4.206 0 1 0 8.411 0v-9.686Z" fill="#011650"/><path fill-rule="evenodd" clip-rule="evenodd" d="M389.739 69.868c-1.982-2.459-5.011-3.96-8.41-3.96h-28.213l-.055-.065h-17.504c-5.813 0-10.253 4.728-10.253 10.541 0 5.814 4.727 10.54 10.541 10.54h3.577v8.817l9.263-8.816h32.773c5.813 0 10.54-4.727 10.54-10.54 0-2.121-.633-4.144-1.73-5.814h.015l-.115-.15c-.129-.189-.264-.374-.405-.553h-.024Zm-35.248-2.708a24.82 24.82 0 0 0-.791-.686l-.211-.172c.308.3.655.587 1.002.858Z" fill="#5CE0D2"/><path d="M335.397 78.492s10.797-2.619 6.644-5.238c-4.152-2.62-5.366 5.238 7.091 5.238 3.706 0 2.811-2.364 9.391-1.214 10.286 1.79 9.839-2.555 14.63-.766 4.791 1.789 9.071 2.364 9.071 2.364" stroke="#011650" stroke-width=".841" stroke-miterlimit="10" stroke-linecap="round"/><path d="M371.609 113.56c.63-.166 1.206.402 1.037 1.023l-2.432 8.951c-.169.621-.956.829-1.417.375l-6.646-6.553a.83.83 0 0 1 .38-1.397l9.078-2.399Z" fill="#FF3175"/><path d="M93.992 233.229h260.752M65.394 233.229H84.74" stroke="#011650" stroke-width="1.682" stroke-linecap="round"/><circle cx="30.907" cy="81.824" r="4.206" fill="#011650"/><path d="M21.654 200.004c4.206-3.084 12.87-10.935 13.879-17.664 1.262-8.411-5.047-7.57-5.888-6.308-.841 1.261-1.262 7.57 9.673 7.57 8.748 0 15.421-6.729 17.664-10.094" stroke="#011650" stroke-width="1.383" stroke-linecap="round"/></svg>