<svg viewBox="0 0 400 300" fill="none" xmlns="http://www.w3.org/2000/svg"><g clip-path="url(#a)"><mask id="b" style="mask-type:alpha" maskUnits="userSpaceOnUse" x="-1" y="67" width="402" height="166"><path fill="#F1F3FF" d="M-.736 67.239h400.737v165.522H-.736z"/></mask><g mask="url(#b)"><rect x="163.333" y="94.826" width="133.579" height="155.358" rx="4.356" fill="#fff"/><path opacity=".2" fill="#C4C4C4" d="M192.373 123.865h69.693v7.26h-69.693zM192.373 147.096h55.174v7.26h-55.174zM192.373 170.327h91.472v7.26h-91.472z"/><path d="M266.422 100.898h-69.693c0-13.094 9.855-16.192 14.783-16.104h9.504c0-3.761 2.178-10.295 9.833-10.295 7.656 0 10.978 6.732 10.89 10.163 0 0 4.356 0 9.437.132 11.616 0 14.806 10.736 15.246 16.104Z" fill="#55C5FF"/><path d="M117.04 91.118v65.794l-22.388-22.081H45.726a2.904 2.904 0 0 1-2.904-2.904V91.118c0-1.603 1.3-2.904 2.904-2.904h68.41c1.604 0 2.904 1.3 2.904 2.904Z" fill="#5CE0D2"/><path d="M118.322 144.589 80.293 107.48v18.708L51.464 97.359" stroke="url(#c)" stroke-width="3.067"/><path d="M68.946 97.052h-17.48v18.708" stroke="#fff" stroke-width="3.067"/><path d="m161.155 174.683-43.558 34.121-46.462-23.231" stroke="#000" stroke-width="1.452"/><circle cx="71.861" cy="186.299" r="10.164" fill="#EFC953"/><circle cx="118.323" cy="206.626" r="10.164" fill="#E01E67"/><path d="M153.477 190.825c8.189 4.728 18.661 1.922 23.389-6.267l-14.828-8.561 8.561-14.829c-8.19-4.728-18.661-1.922-23.39 6.268-4.728 8.189-1.922 18.661 6.268 23.389Z" fill="#55C5FF"/><path d="M170.599 161.168c-8.19-4.728-18.661-1.922-23.39 6.268a17.045 17.045 0 0 0-2.296 8.561h17.125l8.561-14.829Z" fill="#232525"/><path d="M181.368 183.68c4.728-8.19 1.922-18.662-6.267-23.39l-8.562 14.828 14.829 8.562Z" fill="#FFCD6C"/><path d="M292.818 118.914c-7.648 6.35-14.397 43.423-14.783 52.865l21.558 11.493 57.294 37.864a62.515 62.515 0 0 0-4.535-65.778l-11.004-15.274c-12.99-9.702-40.882-27.519-48.53-21.17Z" fill="#000"/><path d="m285.859 132.941.117 15.762-12.494-6.003 12.377-9.759Z" fill="#5CE0D2"/><path fill-rule="evenodd" clip-rule="evenodd" d="M281.345 137.721c3.233 14.509 17.655 24.124 33.041 21.683 9.683-1.536 17.525-7.496 21.655-15.391a12.16 12.16 0 0 0 5.106.272c6.657-1.056 11.197-7.308 10.141-13.965-1.056-6.656-7.309-11.196-13.965-10.14-.122.019-.244.04-.364.063-5.055-11.69-17.876-18.916-31.446-16.763-7.739 1.228-14.302 5.281-18.734 10.89a12.146 12.146 0 0 0-6.864-.897c-6.657 1.056-11.196 7.308-10.14 13.965.928 5.849 5.869 10.064 11.57 10.283Z" fill="#E01E67"/><path d="m336.253 139.983 11.804 10.446-12.815 5.284 1.011-15.73Z" fill="#5CE0D2"/><path d="m294.615 135.82 21.58-5.959c.704 3.139.01 11.882-8.06 14.401-7.125 2.223-11.761-3.565-13.52-8.442Z" fill="#fff"/><path d="M287.336 91.717c4.457-11.778 20.957-4.973 28.65-.098.414-1.548 2.266-4.412 6.367-3.481 5.127 1.163 4.729 11.111 2.524 15.909 4.435 1.992 13.042 8.058 11.991 16.385l-10.4 6.098c-7.11-7.427-8.522-17.369-8.34-21.412-.566.584-2.455 1.971-5.479 2.846-3.781 1.094-30.885-1.525-25.313-16.247Z" fill="#000"/><path d="M315.787 91.197c1.694 1.936 4.356 5.953 1.452 6.533-2.904.581-2.178-5.082-1.452-7.985" stroke="#F1F3FF" stroke-width="1.452"/><path d="m331.759 210.982 38.476 12.341-1.452 9.438h-37.024v-21.779ZM294.135 169.052c3.212-.357 20.075 2.677 45.503 6.246-.893 4.312-4.818 13.829-13.383 17.398-10.707 4.461-16.06 1.784-20.075 1.338-4.015-.446-16.06-10.26-16.506-10.706-.446-.446.446-13.83 4.461-14.276Z" fill="#E01E67"/><path d="M259.887 176.135c-10.582 4.67-26.654 15.443-30.491 20.327l5.082 25.707 19.821 10.592h85.037l2.131-10.592 28.346 1.766c2.202-2.119 3.59-15.857 0-27.473-6.283-20.327-33.999-27.429-57.656-28.312-23.657-.883-40.181 2.651-52.27 7.985Z" fill="#FFCD6C" stroke="#FFCD6C" stroke-width=".4"/><path d="m339.743 230.583 2.178-8.712 21.779 2.178" stroke="#000" stroke-width="1.452" stroke-linecap="round" stroke-linejoin="round"/><path d="M212.101 90.482c-3.01.498-2.926 13.907-2.508 20.549-5.33 0-12.54 3.114-12.854 10.897-.313 7.784 5.33 15.257 8.465 17.436-5.518 28.644-8.465 75.974-3.135 107.972h46.202c2.609-2.376 6.506-18.652 8.791-29.636.517-2.486-1.229-4.858-3.752-5.144l-20.285-2.3-14.34-73.071c1.045-3.218 4.702-10.601 4.702-15.257 0-5.147-2.612-7.057-4.702-7.783-.941-8.096-3.575-24.161-6.584-23.663Z" fill="#E01E67"/><mask id="d" style="mask-type:alpha" maskUnits="userSpaceOnUse" x="196" y="90" width="62" height="158"><path d="M212.101 90.482c-3.01.498-2.926 13.907-2.508 20.549-5.33 0-12.54 3.114-12.854 10.897-.313 7.784 5.33 15.257 8.465 17.436-5.518 28.644-8.465 75.974-3.135 107.972h46.202c2.609-2.376 6.506-18.652 8.791-29.636.517-2.486-1.229-4.858-3.752-5.144l-20.285-2.3-14.34-73.071c1.045-3.218 4.702-10.601 4.702-15.257 0-5.147-2.612-7.057-4.702-7.783-.941-8.096-3.575-24.161-6.584-23.663Z" fill="#E01E67"/></mask><g mask="url(#d)"><path d="m254.078 232.761 4.133-17.218a4.357 4.357 0 0 0 .035-1.871l-.538-2.69-9.437 21.779h5.807Z" fill="#000"/></g><path d="m216.271 118.057-7.928 1.914v3.827c.82.365 3.171.875 6.014 0-1.531 1.968-2.46 4.101-2.734 4.921l2.734 6.561" stroke="#000" stroke-width="1.452" stroke-linecap="round" stroke-linejoin="round"/><path d="M203.988 118.057c1.452 0 4.356.726 4.356 3.63s-2.904 4.114-4.356 4.356" stroke="#000" stroke-width="1.452" stroke-linecap="round" stroke-linejoin="round"/></g></g><defs><linearGradient id="c" x1="50.518" y1="95.338" x2="117.223" y2="139.595" gradientUnits="userSpaceOnUse"><stop stop-color="#fff"/><stop offset="1" stop-color="#F1F3FF"/></linearGradient><clipPath id="a"><path fill="#fff" d="M0 0h400v300H0z"/></clipPath></defs></svg>