<svg viewBox="0 0 400 300" fill="none" xmlns="http://www.w3.org/2000/svg"><g filter="url(#a)"><path fill-rule="evenodd" clip-rule="evenodd" d="m153.146 25 35.757 25.979a7.961 7.961 0 0 1 1.761 11.12l-24.341 33.503a7.96 7.96 0 0 1-11.12 1.761l-29.316-21.299a7.961 7.961 0 0 1-1.761-11.12L153.146 25Z" fill="#FFC60A"/></g><g filter="url(#b)"><path d="m154.136 42.944 25.608 18.606" stroke="#fff" stroke-width=".796"/></g><g filter="url(#c)"><path d="m149.455 49.386 25.609 18.606" stroke="#fff" stroke-width=".796"/></g><path fill-rule="evenodd" clip-rule="evenodd" d="M221.632 98.168c-6.147 9.81-15.829 16.716-29.046 20.718-4.552 1.378-4.678-4.112-7.423-5.978-1.418-.965-6.169-3.849-10.488 2.789-4.32 6.639 3.955 12.467 5.18 13.191.818.482 2.735.144 5.751-1.014l6.283 35.452-34.714.461c4.751-57.167 15.454-83.772 32.11-79.814 1.477.351 2.854.634 4.13.848 13.108 2.199 13.932-13.581 26.841-10.775 12.909 2.806 8.613 22.693 8.613 22.693 2.774 1.447 5.88 7.19 5.74 12.622-.094 3.62-2.004 8.267-5.73 13.938l-4.331-24.565a1.593 1.593 0 0 0-2.916-.566Z" fill="#143C9B"/><path d="m217.59 115.757 4.316 5.247-3.219 1.3M189.431 124.325a8.548 8.548 0 0 1-6.055 4.381c-4.657.821-9.098-2.29-9.92-6.949a8.563 8.563 0 0 1 14.172-7.842" stroke="#143C9B" stroke-width=".796"/><path d="M178.141 124.325a5.322 5.322 0 1 1 8.428-6.367" stroke="#143C9B" stroke-width=".796"/><path d="M181.375 119.973a5.314 5.314 0 0 1 1.747-4.349M218.537 141.545l4.323 22.096h4.181M181.504 128.752l6.56 37.206-3.19.563" stroke="#143C9B" stroke-width=".796"/><path d="m201.941 144.707 15.905-2.805c7.578-1.336 12.638-8.562 11.302-16.14l-5.781-32.785" stroke="#143C9B" stroke-width=".796"/><path fill-rule="evenodd" clip-rule="evenodd" d="m201.957 145.127 18.116 5.176-1.496-8.53-16.62 3.354Z" fill="#143C9B"/><path d="M217.227 130.235c-1.613-.198-2.849-.947-2.76-1.673.089-.725 1.469-1.153 3.083-.955 1.614.198 2.849.947 2.76 1.673-.089.726-1.469 1.153-3.083.955Z" stroke="#143C9B" stroke-width=".796"/><path fill-rule="evenodd" clip-rule="evenodd" d="M206.935 178.771c9.45 0 17.347-6.651 19.264-15.528h21.149c19.811 0 35.908 15.899 36.228 35.633l.005.599v33.843h-31.853v28.27h-89.985v-28.27h-31.852v-33.843c0-20.01 16.221-36.232 36.232-36.232h21.547c1.917 8.877 9.814 15.528 19.265 15.528Z" fill="#3370FF"/><path d="m265.264 246.856 27.755-61.829a11.942 11.942 0 0 1 10.895-7.052h55.736a.797.797 0 0 1 .282 1.541l-8.471 3.202a39.793 39.793 0 0 1-14.076 2.572h-7.887m1.065-1.741-37.67 79.364c-2.006 4.225-7.236 7.036-13.091 7.036h-10.954c-7.697 0-13.936-4.793-13.936-10.704M147.012 246.856l-27.755-61.829a11.942 11.942 0 0 0-10.895-7.052H52.625a.797.797 0 0 0-.281 1.541l8.47 3.202a39.796 39.796 0 0 0 14.077 2.572h7.887m-1.065-1.741 37.669 79.364c2.007 4.225 7.237 7.036 13.092 7.036h10.954c7.696 0 18.714-4.793 18.714-10.704M326.98 176.183c0-71.356-57.846-129.201-129.203-129.201S68.574 104.827 68.574 176.183" stroke="#143C9B" stroke-width=".796"/><path d="m129.691 208.235 11.149 24.885M283.58 205.846l-12.143 27.473M161.345 211.221v27.671M252.126 211.221v27.671" stroke="#fff" stroke-width=".796"/><path fill-rule="evenodd" clip-rule="evenodd" d="M276.811 111.881h50.17a4.777 4.777 0 0 1 4.777 4.777v4.38h-56.539v-7.565c0-.879.713-1.592 1.592-1.592Z" fill="#14C0FF"/><path d="m293.245 124.245 39.024 20.75a3.981 3.981 0 0 0 5.384-1.646l23.179-43.594a3.981 3.981 0 0 0-1.646-5.383l-39.024-20.75a3.981 3.981 0 0 0-5.384 1.646l-23.179 43.594a3.98 3.98 0 0 0 1.646 5.383Z" fill="#3370FF"/><path d="m332.308 129.232-27.949-14.861M336.046 122.201l-27.949-14.86" stroke="#fff" stroke-width=".796"/><path fill-rule="evenodd" clip-rule="evenodd" d="M275.219 121.039h84.411a6.369 6.369 0 0 1 6.369 6.369v49.373c0 .88-.713 1.592-1.592 1.592h-82.819a6.368 6.368 0 0 1-6.369-6.369v-50.965Z" fill="#14C0FF"/><path fill-rule="evenodd" clip-rule="evenodd" d="m45.92 104.845 84.903 18.047a3.98 3.98 0 0 1 3.066 4.721l-10.265 48.294a3.98 3.98 0 0 1-4.722 3.066l-81.009-17.219a3.98 3.98 0 0 1-3.066-4.721l11.093-52.188Z" fill="#3370FF"/><path d="m91.9 128.865 30.961 6.581M90.244 136.654l30.962 6.581" stroke="#fff" stroke-width=".796"/><path fill-rule="evenodd" clip-rule="evenodd" d="M47.47 99.14h58.531a6.37 6.37 0 0 1 6.37 6.37v66.494a6.37 6.37 0 0 1-6.37 6.37H52.247a6.37 6.37 0 0 1-6.37-6.37v-71.271c0-.88.714-1.592 1.593-1.592Z" fill="#04D6BA"/><path d="M100.426 115.066H56.23v3.982h44.196v-3.982ZM332.156 134.178H287.96v3.981h44.196v-3.981ZM100.426 126.613H56.23v3.981h44.196v-3.981ZM82.11 138.16H56.23v3.981h25.88v-3.981Z" fill="#fff"/><path fill-rule="evenodd" clip-rule="evenodd" d="M270.562 57.925c.094.04.173.115.215.217l6.426 15.733a.4.4 0 0 1-.12.46.396.396 0 0 1-.292.086l-16.895-1.84a.397.397 0 0 1-.351-.34.398.398 0 0 1 .076-.295l10.469-13.893c.27-.17.379-.167.472-.128Z" fill="#fff" stroke="#143C9B" stroke-width=".796"/><path d="M275.418 121.039h74.257M91.866 205.05c-27.739 8.361-32.118 20.107-13.14 35.237.18 0-16.55-6.504 10.499-16.132M320.391 205.05c4.168 1.256 7.809 2.589 10.922 3.998 17.605 7.969 18.345 18.382 2.217 31.239-.185 0 17.516-6.88-12.913-16.961" stroke="#143C9B" stroke-width=".796"/><path fill-rule="evenodd" clip-rule="evenodd" d="M66.728 241.513c0 18.948 61.138 34.309 139.012 34.309 77.875 0 139.81-15.361 139.81-34.309v-19.044c-1.785 28.16-110.518 34.705-139.81 34.705-28.847 0-136.633-5.95-139.012-34.705v19.044Z" fill="#04D6BA"/><defs><filter id="a" x="109.866" y="12.261" width="95.058" height="99.361" filterUnits="userSpaceOnUse" color-interpolation-filters="sRGB"><feFlood flood-opacity="0" result="BackgroundImageFix"/><feBlend in="SourceGraphic" in2="BackgroundImageFix" result="shape"/><feGaussianBlur stdDeviation="6.369" result="effect1_foregroundBlur_741_24938"/></filter><filter id="b" x="152.309" y="41.03" width="29.262" height="22.435" filterUnits="userSpaceOnUse" color-interpolation-filters="sRGB"><feFlood flood-opacity="0" result="BackgroundImageFix"/><feBlend in="SourceGraphic" in2="BackgroundImageFix" result="shape"/><feGaussianBlur stdDeviation=".796" result="effect1_foregroundBlur_741_24938"/></filter><filter id="c" x="147.628" y="47.472" width="29.262" height="22.435" filterUnits="userSpaceOnUse" color-interpolation-filters="sRGB"><feFlood flood-opacity="0" result="BackgroundImageFix"/><feBlend in="SourceGraphic" in2="BackgroundImageFix" result="shape"/><feGaussianBlur stdDeviation=".796" result="effect1_foregroundBlur_741_24938"/></filter></defs></svg>