<svg viewBox="0 0 400 300" fill="none" xmlns="http://www.w3.org/2000/svg"><path d="m171.768 157.282-18.62 8.536" stroke="#143C9B" stroke-width=".775"/><path fill-rule="evenodd" clip-rule="evenodd" d="M109.08 130.782c-3.851 8.692-10.89 15.514-21.115 20.467-3.587 1.738-4.41-2.79-6.927-3.975-1.301-.612-5.611-2.376-8.317 3.685-2.706 6.06 4.908 9.799 6.017 10.237.74.293 2.282-.238 4.628-1.593l10.547 30.631-25.365 8.733c-6.233-51.879-2.197-77.273 12.109-76.181 1.269.097 2.445.15 3.53.16 11.138.101 9.752-13.067 20.806-12.437 11.053.629 10.104 17.652 10.104 17.652 2.485.834 5.809 5.18 6.405 9.694.397 3.009-.575 7.105-2.916 12.288l-6.625-19.242a1.55 1.55 0 0 0-2.881-.119Z" fill="#143C9B"/><path d="m108.342 145.377 4.26 3.776-2.494 1.499M86.159 156.161a7.177 7.177 0 1 1-2.857-8.379" stroke="#143C9B" stroke-width=".775"/><path d="M76.81 157.642a4.461 4.461 0 1 1 6.142-6.376" stroke="#143C9B" stroke-width=".775"/><path d="M78.918 153.615a4.453 4.453 0 0 1 .875-3.828M112.508 166.597l5.116 14.857 3.667-1.263M80.176 160.865l10.307 29.934-2.568.884" stroke="#143C9B" stroke-width=".775"/><path d="m99.184 171.39 11.013-3.792c7.084-2.44 10.85-10.16 8.41-17.244l-8.466-24.59" stroke="#143C9B" stroke-width=".775"/><path fill-rule="evenodd" clip-rule="evenodd" d="m99.311 171.757 15.168 1.753-1.907-6.729-13.26 4.976Z" fill="#143C9B"/><path d="M109.942 157.462c-1.391.049-2.537-.433-2.56-1.075-.022-.642 1.088-1.202 2.479-1.251 1.392-.048 2.538.433 2.56 1.075.023.642-1.087 1.202-2.479 1.251ZM196.014 140.018l7.47 20.358c4.208 11.467-1.173 24.236-12.319 29.233l-53.393 23.937" stroke="#143C9B" stroke-width=".775"/><path d="m194.267 90.552 2.111 66.009c.342 10.698 9.292 19.093 19.99 18.751a19.387 19.387 0 0 0 4.796-.762l44.673-13" stroke="#143C9B" stroke-width=".775"/><path fill-rule="evenodd" clip-rule="evenodd" d="m68.58 198.985 22.198-8.173.08.093c5.814 6.706 15.953 7.533 22.774 1.809a16.248 16.248 0 0 0 5.815-12.457l.796-.294 51.524-23.644 2.33 41.704-23.663 12.412.003 40.347-82.242-.394.384-51.403Z" fill="#04D6BA"/><path fill-rule="evenodd" clip-rule="evenodd" d="m328.485 94.43-3.778 1.39a16.27 16.27 0 0 1-.21 5.602c-1.871 8.803-10.519 14.423-19.317 12.553a16.23 16.23 0 0 1-10.343-7.174l-2.234.821-68.08 24.25 8.339 39.767 21.336-5.433 7.369 25.218 66.915-.196.003-96.797Z" fill="#3370FF"/><path d="M274.05 81.474c4.101-1.575 5.682-7.391 3.532-12.992-2.151-5.602-7.218-8.866-11.318-7.292-4.1 1.574-5.681 7.39-3.531 12.992 2.15 5.6 7.217 8.865 11.317 7.291ZM295.055 73.41c4.7-1.804 6.767-7.807 4.617-13.408-2.15-5.602-7.703-8.68-12.403-6.875-4.701 1.804-6.768 7.807-4.618 13.408 2.15 5.602 7.703 8.68 12.404 6.875ZM280.873 70.128l.353 5.683 2.716-1.043M277.693 68.231l4.708-1.807M307.424 66.15a7.178 7.178 0 1 0-3.198-8.255" stroke="#143C9B" stroke-width=".775"/><path d="M315.536 61.277a4.46 4.46 0 1 0-8.803-.936" stroke="#143C9B" stroke-width=".775"/><path d="M311.333 59.547a4.455 4.455 0 0 0-3.132-2.37M290.324 92.474l5.191 14.76M311.408 67.299l11.455 29.267 1.94-.194M303.612 87.58l-10.874 4.175c-6.995 2.685-14.842-.809-17.528-7.803l-9.319-24.28" stroke="#143C9B" stroke-width=".775"/><path fill-rule="evenodd" clip-rule="evenodd" d="M263.927 35.076c3.783-1.453 7.596-1.565 10.901-.653l12.03-4.635c8.942-3.605 19.113.723 22.718 9.666.526 1.306.892 2.67 1.091 4.064l1.209 9.306c-2.665-.085-4.814.81-6.449 2.684l-4.592-6.549c-3.158 2.597-6.543 4.243-10.154 4.937-3.612.694-6.933.223-9.962-1.411-1.866 2.436-4.579 4.499-7.893 5.771-8.001 3.071-16.478.372-18.935-6.03-2.458-6.4 2.036-14.08 10.036-17.15ZM311.352 67.155l2.674-.611.662 9.304M303.749 87.943l-10.758 11.92-2.599-7.208 13.357-4.712Z" fill="#143C9B"/><path d="M287.75 82.393c1.389-.097 2.478-.695 2.433-1.337-.044-.64-1.207-1.081-2.596-.984-1.389.097-2.478.695-2.434 1.336.045.641 1.208 1.082 2.597.985Z" stroke="#143C9B" stroke-width=".775"/><path d="M224.331 45.16h98.336a6.206 6.206 0 0 1 6.206 6.207v193.208a6.206 6.206 0 0 1-6.206 6.207H74.404a6.207 6.207 0 0 1-6.207-6.207V51.367a6.207 6.207 0 0 1 6.207-6.208h66.721" stroke="#143C9B" stroke-width=".775"/><path fill-rule="evenodd" clip-rule="evenodd" d="M55.391 207.33h66.343a6.201 6.201 0 0 1 6.201 6.202v45.398H49.19v-45.398a6.202 6.202 0 0 1 6.201-6.202ZM267.967 146.031h66.343a6.202 6.202 0 0 1 6.202 6.202v45.398h-78.746v-45.398a6.201 6.201 0 0 1 6.201-6.202Z" fill="#DFE0E4"/><path d="m175.646 165.429-21.515-53.168-2.09-6.469a7.752 7.752 0 0 1 1.75-7.716l5.552-5.858a1.55 1.55 0 0 1 2.644 1.38l-1.801 8.724c-.084.408-.001.831.23 1.177l1.875 2.799" stroke="#143C9B" stroke-width=".775"/><path fill-rule="evenodd" clip-rule="evenodd" d="m187.726 172.606 36.676 6.468a1.552 1.552 0 0 1 1.258 1.796l-8.085 45.856a6.201 6.201 0 0 1-7.184 5.031l-32.095-5.66a1.55 1.55 0 0 1-1.258-1.797l8.892-50.436a1.55 1.55 0 0 1 1.796-1.258ZM271.722 206.571l5.477 28.185a1.55 1.55 0 0 1-1.226 1.818l-23.614 4.59a6.202 6.202 0 0 1-7.272-4.903l.001-.001-4.591-23.619a1.551 1.551 0 0 1 1.226-1.818l28.181-5.478a1.55 1.55 0 0 1 1.818 1.226Z" fill="#FFC500"/><path d="m188.448 222.849 13.318-12.398a1.106 1.106 0 0 0-1.271-1.786l-15.754 8.367a38.773 38.773 0 0 1-10.731 3.806M273.383 229.439l-17.57 4.726a1.106 1.106 0 0 1-.841-2.025l15.443-8.928a38.811 38.811 0 0 0 8.914-7.085M277.492 233.839l-17.805 4.786a1.107 1.107 0 0 1-1.357-.781 1.107 1.107 0 0 1 .516-1.244l12.827-6.626M280.146 238.013l-17.162 4.404a1.109 1.109 0 0 1-1.357-.781 1.108 1.108 0 0 1 .516-1.244l12.575-5.771" stroke="#143C9B" stroke-width=".775"/><path d="m328.872 209.658-30.703 24.947a38.747 38.747 0 0 1-17.857 8.115l-11.03 1.902c-.572.099-1.199-.268-1.401-.818-.165-.451.004-.899.413-1.094l10.045-4.314M179.914 211.209l-10.78 10.584-41.2 8.815M190.001 228.668l13.494-12.566a1.107 1.107 0 0 0 .056-1.564 1.107 1.107 0 0 0-1.328-.221l-12.416 7.368M192.135 233.13l12.829-12.223a1.109 1.109 0 0 0 .056-1.565 1.107 1.107 0 0 0-1.328-.221l-11.557 7.607" stroke="#143C9B" stroke-width=".775"/><path d="m143.062 250.394 35.542-6.848a38.76 38.76 0 0 0 19.795-10.376l6.096-5.973c.392-.385.415-1.03.049-1.442a.936.936 0 0 0-1.164-.204l-9.119 5.541M68.197 63.782h88.444M78.281 59.126a4.268 4.268 0 1 0 0-8.535 4.268 4.268 0 0 0 0 8.535ZM90.695 59.126a4.268 4.268 0 1 0 0-8.535 4.268 4.268 0 0 0 0 8.535ZM103.107 59.126a4.267 4.267 0 0 0 4.267-4.268 4.267 4.267 0 1 0-4.267 4.268ZM301.137 175.517a3.686 3.686 0 1 0-.002-7.372 3.686 3.686 0 0 0 .002 7.372ZM90.308 229.832h-3.494a1.55 1.55 0 0 0-1.55 1.55v3.496c0 .856.694 1.55 1.55 1.55h3.494a1.55 1.55 0 0 0 1.55-1.55v-3.496a1.55 1.55 0 0 0-1.55-1.55Z" stroke="#143C9B" stroke-width=".775"/><path d="m252.646 161.355 1.552 6.208M150.822 202.674v11.639" stroke="#fff" stroke-width=".775"/><path d="m272.728 212.357 10.337-3.387 15.163-11.339" stroke="#143C9B" stroke-width=".775"/><path fill-rule="evenodd" clip-rule="evenodd" d="m160.824 26.298 38.382 13.97a4.65 4.65 0 0 1 2.78 5.961l-.909 2.498-44.21-16.09 1.97-5.413a1.55 1.55 0 0 1 1.987-.926ZM156.59 32.692l62.418 22.719a6.202 6.202 0 0 1 3.707 7.949l-12.817 35.214a1.55 1.55 0 0 1-1.987.927l-65.333-23.78a1.55 1.55 0 0 1-.926-1.986l14.938-41.043Z" fill="#14C0FF"/><path d="m157.047 32.644 43.989 16.231" stroke="#143C9B" stroke-width=".775"/><path fill-rule="evenodd" clip-rule="evenodd" d="m164.783 51.289 21.032 7.654-1.25 3.434-21.032-7.654 1.25-3.434ZM161.8 58.814l35.627 12.965-1.25 3.434-35.627-12.965 1.25-3.434Z" fill="#fff"/><path d="m224.368 145.979.104-59.886-.033-.858a7.748 7.748 0 0 0-2.018-4.924l-8.998-9.867a1.551 1.551 0 0 0-2.606 1.565l3.615 10.151c.05.14.08.287.088.435l.21 3.789M170.021 84.926l-1.826-15.47c-.094-.514.248-.956.764-.989.422-.026.843.233 1.027.632l26.22 71.501" stroke="#143C9B" stroke-width=".775"/><path d="m164.599 88.82-4.192-21.095c-.138-.7.32-1.295 1.024-1.329.577-.028 1.158.332 1.417.879l6.98 15.906M157.667 87.742l-2.165-19.33a1.215 1.215 0 0 1 2.329-.604l6.759 20.998M152.958 99.332a6.092 6.092 0 0 1-.597-2.292l-1.449-24.26c-.041-.693.482-1.358 1.168-1.486.562-.104 1.077.185 1.256.705l4.269 15.448" stroke="#143C9B" stroke-width=".775"/><path clip-rule="evenodd" d="M59.863 65.425c-9.103.976-16.021 2.713-20.753 5.21-4.655 2.458-7.176 5.635-7.564 9.533 5.948-3.813 15.387-5.508 28.317-5.084v-9.66Z" stroke="#143C9B" stroke-width=".775"/><path fill-rule="evenodd" clip-rule="evenodd" d="M31.546 78.228s-1.733 4.615.97 9.699c3.393 6.382 20.707 15.792 60.937 8.341 10.473-1.94 18.426.776 18.426.776l8.34-14.743c-14.482-1.681-29.094.065-43.834 5.238-18.115 6.357-44.172-2.102-44.839-9.311Z" fill="#FFC500"/><path clip-rule="evenodd" d="M336.242 215.865c11.46.976 19.674 2.713 24.642 5.211 4.888 2.457 7.535 5.635 7.943 9.532-8.146-3.813-19.008-5.507-32.585-5.084v-9.659Z" stroke="#143C9B" stroke-width=".775"/><path fill-rule="evenodd" clip-rule="evenodd" d="M368.628 228.668s11.267 32.9-64.934 30.954c-.388-.009 2.344-4.785 8.194-14.327 36.871 2.476 55.784-3.066 56.74-16.627Z" fill="#14C0FF"/></svg>