<svg viewBox="0 0 400 300" fill="none" xmlns="http://www.w3.org/2000/svg"><path clip-rule="evenodd" d="M72.768 110.956c-12.819 1.361-22.559 3.782-29.222 7.264-6.554 3.426-10.104 7.855-10.65 13.289 8.374-5.315 21.665-7.678 39.872-7.087v-13.466Z" stroke="#143C9B" stroke-width=".894"/><path fill-rule="evenodd" clip-rule="evenodd" d="m93.104 55.434 50.771 43.572a1.787 1.787 0 0 1-1.164 3.144l-26.465-.001.001 49.019c0 .987-.801 1.787-1.788 1.787H63.195c-.987 0-1.787-.8-1.787-1.787v-49.019l-27.224.001a1.787 1.787 0 0 1-1.164-3.144l50.77-43.572a7.15 7.15 0 0 1 9.314 0Z" fill="#04D6BA"/><path d="M304.875 148.488c11.953-4.768 19.222-15.77 19.222-29.361 0-17.838-14.542-32.298-32.48-32.298-17.938 0-32.48 14.46-32.48 32.298" stroke="#143C9B" stroke-width=".894"/><path d="M299.817 142.447c9.215-3.483 15.765-12.368 15.765-22.778 0-13.448-10.931-24.35-24.416-24.35-13.485 0-24.416 10.902-24.416 24.35 0 13.449 10.931 24.351 24.416 24.351M206.861 103.535c-5.253-.926-8.489-7.473-7.229-14.623 1.261-7.15 6.542-12.196 11.794-11.27 5.253.927 8.489 7.474 7.229 14.624-1.261 7.15-6.541 12.196-11.794 11.269ZM180.015 98.802c-6.02-1.062-9.877-7.719-8.617-14.869 1.261-7.15 7.163-12.086 13.183-11.024 6.02 1.061 9.877 7.718 8.617 14.868-1.261 7.15-7.163 12.086-13.183 11.025ZM196.124 91.625l.897 6.821-3.472-.612M199.465 88.644l-6.017-1.06M163.632 93.012a8.69 8.69 0 0 1-7.299 2.067c-4.729-.834-7.888-5.333-7.057-10.05.832-4.716 5.34-7.863 10.069-7.03a8.689 8.689 0 0 1 6.176 4.485" stroke="#143C9B" stroke-width=".894"/><path d="M152.855 89.097a5.37 5.37 0 0 1 .155-4.743c1.4-2.628 4.672-3.624 7.308-2.225a5.387 5.387 0 0 1 2.789 3.834" stroke="#143C9B" stroke-width=".894"/><path d="M157.45 86.078a5.381 5.381 0 0 1 3.175-3.53M190.065 120.304l-3.297 18.695 4.629.816M159.158 95.291l-6.642 37.669-3.24-.571" stroke="#143C9B" stroke-width=".894"/><path d="m173.13 117.555 14.682 2.589c8.507 1.5 16.619-4.18 18.119-12.687l5.587-31.681" stroke="#143C9B" stroke-width=".894"/><path fill-rule="evenodd" clip-rule="evenodd" d="M208.15 46.15c-4.834-.853-9.394-.11-13.112 1.732l-15.381-2.732c-11.468-2.219-22.559 5.254-24.773 16.69a21.038 21.038 0 0 0-.357 5.072l.72 11.317c3.148-.714 5.912-.147 8.291 1.7l3.942-8.824c4.357 2.355 8.763 3.529 13.219 3.521 4.455-.008 8.295-1.33 11.518-3.965 2.784 2.46 6.487 4.284 10.724 5.031 10.225 1.803 19.68-3.349 21.118-11.507 1.439-8.158-5.684-16.233-15.909-18.036ZM159.191 95.107l-3.321-.11 1.368 11.189M173.048 118.017l15.047 10.745 1.928-8.227-16.975-2.518Z" fill="#143C9B"/><path d="M191.128 106.935c-1.279.863-2.663 1.048-3.091.413-.428-.634.262-1.848 1.541-2.711 1.28-.862 2.663-1.048 3.091-.413.428.634-.262 1.848-1.541 2.711Z" stroke="#143C9B" stroke-width=".894"/><path fill-rule="evenodd" clip-rule="evenodd" d="M116.977 125.76c1.196.121 2.385.291 3.567.508l29.129 5.36c-.011.289-.016.58-.016.872 0 11.649 8.754 21.561 20.422 21.561 9.53 0 17.586-6.3 20.218-14.956l59.042 10.864c2.9.533 5.74 1.352 8.479 2.445 16.763 6.691 24.292 18.411 22.586 35.16l-2.783 27.32-.011.11-.023.224-46.188 4.362-16.251 44.62H112.334v-62.75l-47.182-7.793 2.845-27.97c2.497-24.554 24.426-42.435 48.98-39.937Z" fill="#3370FF"/><path d="m259.582 117.658 20.608 111.701M302.461 140.892l26.358 90.366c3.982 13.649-3.856 27.94-17.504 31.922a25.747 25.747 0 0 1-7.209 1.029h-23.675a22.344 22.344 0 0 1-17.356-8.272l-29.028-35.803M65.736 193.615 55.05 236.457c-2.987 11.974 4.298 24.102 16.271 27.088a22.31 22.31 0 0 0 5.408.665h163.347a1.787 1.787 0 0 0 .507-3.502l-26.495-7.841a44.628 44.628 0 0 0-10.442-1.781l-22.615-1.135-88.525-26.415" stroke="#143C9B" stroke-width=".894"/><path d="m218.367 253.933-4.103-1.208a47.51 47.51 0 0 0-11.034-1.871l-22.352-1.116-68.687-20.379" stroke="#fff" stroke-width=".894"/><path d="m111.294 201.21-10.304 25.021" stroke="#143C9B" stroke-width=".894"/><path d="M266.974 163.232c22.392 0 40.544-18.104 40.544-40.436s-18.152-40.435-40.544-40.435c-22.392 0-40.544 18.103-40.544 40.435s18.152 40.436 40.544 40.436Z" fill="#FFC500"/><path d="M268.095 132.402c5.444 0 9.858-4.401 9.858-9.829 0-5.429-4.414-9.83-9.858-9.83-5.444 0-9.857 4.401-9.857 9.83 0 5.428 4.413 9.829 9.857 9.829Z" fill="#fff" stroke="#143C9B" stroke-width=".894"/><path d="M266.975 154.296c17.691 0 32.033-14.303 32.033-31.946 0-17.644-14.342-31.947-32.033-31.947-17.692 0-32.034 14.303-32.034 31.947 0 17.643 14.342 31.946 32.034 31.946Z" stroke="#143C9B" stroke-width=".894"/><path d="M265.408 132.402c5.444 0 9.857-4.401 9.857-9.829 0-5.429-4.413-9.83-9.857-9.83-5.444 0-9.857 4.401-9.857 9.83 0 5.428 4.413 9.829 9.857 9.829Z" fill="#fff" stroke="#143C9B" stroke-width=".894"/><path d="m117.893 179.372-6.272 21.874M231.135 221.977l6.272-20.319" stroke="#fff" stroke-width=".894"/><path fill-rule="evenodd" clip-rule="evenodd" d="M32.77 128.828s-2.44 6.477 1.366 13.611c5.377 10.079 22.845 21.539 74.024 18.511l-.047-14.581c-48.954 2.029-74.068-3.818-75.342-17.541Z" fill="#FFC500"/><path clip-rule="evenodd" d="M329.527 202.551c13.326 1.102 22.864 3.169 28.614 6.203 5.657 2.983 8.72 6.842 9.192 11.574-7.228-4.629-18.698-6.687-34.41-6.173l-3.396-11.604Z" stroke="#143C9B" stroke-width=".894"/><path fill-rule="evenodd" clip-rule="evenodd" d="M367.333 217.973s2.106 5.604-1.178 11.778c-4.123 7.751-25.163 19.177-74.048 10.129-12.727-2.355-22.39.942-22.39.942l-10.135-17.902c17.598-2.042 35.353.078 53.265 6.36 22.013 7.72 53.675-2.552 54.486-11.307Z" fill="#14C0FF"/><path clip-rule="evenodd" d="m269.642 53.472 12.592-6.125a1.34 1.34 0 0 1 1.92 1.34l-2.377 23.656a1.34 1.34 0 0 1-2.493.541L269.07 55.352a1.341 1.341 0 0 1 .572-1.88ZM320.734 71.385l-1.619-8.308a1.34 1.34 0 0 0-2.224-.73l-10.609 9.772a1.34 1.34 0 0 0 1.067 2.317l12.229-1.463a1.34 1.34 0 0 0 1.156-1.588ZM303.769 35.7l10.996 6.764a.893.893 0 0 1 .258 1.283l-15.595 21.686a.893.893 0 0 1-1.608-.664l4.598-28.45a.894.894 0 0 1 1.351-.62Z" stroke="#143C9B" stroke-width=".894"/></svg>