<svg viewBox="0 0 400 300" fill="none" xmlns="http://www.w3.org/2000/svg"><g filter="url(#a)"><path d="M250.164 119.737c17.751 0 32.142-14.377 32.142-32.112 0-17.734-14.391-32.111-32.142-32.111-17.752 0-32.143 14.377-32.143 32.111 0 17.735 14.391 32.112 32.143 32.112Z" fill="#FFC60A"/></g><g filter="url(#b)"><path d="M234.283 90.68a3.423 3.423 0 1 0 2.893-6.203 3.424 3.424 0 1 0-2.893 6.204Z" fill="#fff"/></g><g filter="url(#c)"><path d="M247.982 90.68a3.424 3.424 0 1 0-1.657-4.548 3.423 3.423 0 0 0 1.657 4.549Z" fill="#fff"/></g><g filter="url(#d)"><path d="M261.682 90.68a3.422 3.422 0 1 0 2.892-6.203 3.424 3.424 0 0 0-4.55 1.655 3.424 3.424 0 0 0 1.658 4.549Z" fill="#fff"/></g><path d="M219.591 107.116h51.806a6.453 6.453 0 0 1 6.451 6.456v142.036h-204v-128.72M206.298 96.243c-4.405 1.263-9.372-2.58-11.093-8.585-1.722-6.005.453-11.897 4.858-13.16 4.405-1.263 9.372 2.58 11.094 8.585 1.721 6.005-.454 11.897-4.859 13.16ZM183.817 102.689c-5.047 1.447-10.535-2.247-12.256-8.252-1.722-6.004.974-12.046 6.021-13.493 5.047-1.447 10.535 2.248 12.256 8.252 1.722 6.005-.974 12.046-6.021 13.493ZM193.531 91.07l3.26 4.933-2.907.833M194.986 87.51l-5.038 1.446M169 104.371a7.447 7.447 0 0 1-4.849 4.344c-3.96 1.135-8.09-1.151-9.224-5.108-1.135-3.956 1.156-8.084 5.116-9.22a7.449 7.449 0 0 1 6.45 1.14" stroke="#143C9B" stroke-width=".743"/><path d="M159.218 105.402a4.62 4.62 0 0 1-1.666-3.722 4.638 4.638 0 0 1 8.39-2.558" stroke="#143C9B" stroke-width=".743"/><path d="M161.625 101.34a4.626 4.626 0 0 1 1.118-3.922M199.657 115.506l4.161 14.894 4.259-.093M166.41 107.814l6.261 22.53-3.721-.027" stroke="#143C9B" stroke-width=".743"/><path d="m185.565 119.757 12.688-3.638c6.907-1.981 10.901-9.186 8.92-16.093l-7.739-26.991" stroke="#143C9B" stroke-width=".743"/><path fill-rule="evenodd" clip-rule="evenodd" d="M185.683 51.414c-4.048 1.16-7.284 3.451-9.457 6.273l-12.888 3.678c-9.677 2.602-15.416 12.549-12.817 22.217a18.11 18.11 0 0 0 1.634 4.052l4.816 8.472c2.159-1.736 4.503-2.338 7.033-1.807l-.283-8.3c4.246.18 8.085-.572 11.518-2.255 3.432-1.683 5.895-4.149 7.388-7.398 3.073.853 6.615.868 10.163-.15 8.562-2.454 13.913-9.993 11.951-16.836-1.963-6.844-10.495-10.401-19.058-7.946ZM166.367 107.661l-2.602 1.165 5.267 8.129M185.676 120.144l15.648 2.637-1.611-7.081-14.037 4.444Z" fill="#143C9B"/><path d="M195.156 105.659c-1.375.395-2.634.208-2.814-.418-.179-.625.79-1.451 2.165-1.845 1.375-.394 2.634-.207 2.814.418.179.625-.79 1.451-2.165 1.845Z" stroke="#143C9B" stroke-width=".743"/><path fill-rule="evenodd" clip-rule="evenodd" d="m118.326 115.654 9.791 10.235a12.638 12.638 0 0 0 9.133 3.903h33.757-.001l.144.001c1.981 7.891 9.118 13.733 17.619 13.733 8.5 0 15.637-5.842 17.618-13.733l29.577-.001c15.548 0 28.867 9.546 34.416 23.096l13.413 28.516-41.335 21.075v32.34H132.253V200.42l-40.57-46.997 26.643-37.769Z" fill="#04D6BA"/><path d="m108.234 123.144 55.334-37.834M152.55 58.755l6.494-3.186a10.927 10.927 0 0 1 5.655-.751l10.153 1.341c.42.056.799-.256.845-.697a.825.825 0 0 0-.459-.835l-8.089-3.773c-4.807-2.242-10.333-1.774-14.658 1.24l-72.105 49.182c-8.605 5.999-10.965 18.185-5.315 27.448l17.67 23.97" stroke="#143C9B" stroke-width=".743"/><path fill-rule="evenodd" clip-rule="evenodd" d="M167.436 181.361H361.65a2.974 2.974 0 0 1 1.88 5.279l-84.589 69.004a1.483 1.483 0 0 1-.94.335H73.848l89.828-73.279a5.95 5.95 0 0 1 3.76-1.339Z" fill="#3370FF"/><path d="M242.732 157.603v23.016M132.002 184.703v15.592" stroke="#fff" stroke-width=".743"/><path d="m156.34 62.568 4.945-2.081a14.87 14.87 0 0 1 5.768-1.165h15.669l-6.9-3.436" stroke="#143C9B" stroke-width=".743"/><path clip-rule="evenodd" d="M263.006 197.325c.308 0 .587.125.788.327a1.114 1.114 0 0 1-.116 1.678l-9.335 7.05c-.194.146-.43.225-.672.225H154.83a1.113 1.113 0 0 1-1.115-1.115c0-.35.164-.679.443-.89l9.335-7.05c.194-.146.43-.225.672-.225h98.841Z" stroke="#fff" stroke-width=".743"/><path fill-rule="evenodd" clip-rule="evenodd" d="m278.287 90.626-8.443 10.29c28.278-4.17 44.896-2.556 49.854 4.842 0 0 8.042-8.07-11.659-13.921-7.371-1.883-17.288-2.287-29.752-1.211Z" fill="#14C0FF"/><path clip-rule="evenodd" d="m251.55 128.356-6.03 12.913c19.834-2.421 34.777-4.91 44.829-7.466 23.427-5.956 30.556-12.215 30.556-16.948v-13.518c-3.485 7.801-13.134 13.787-28.948 17.957s-29.283 6.524-40.407 7.062Z" stroke="#143C9B" stroke-width=".743"/><path d="M73.965 178.392c-41.948 11.104-53.578 19.598-34.89 25.485 28.033 8.829 55.057-3.01 75.829 19.063" stroke="#143C9B" stroke-width=".743"/><path d="M73.965 195.047c-41.948 5.887-53.578 11.773-34.89 17.659 28.033 8.829 64.535-19.665 85.308 2.408" stroke="#143C9B" stroke-width=".743"/><path fill-rule="evenodd" clip-rule="evenodd" d="M30 197.856v10.636c.84.882 1.512 1.484 2.017 1.806 11.11 7.095 29.099 6.259 53.645-2.007 0 0-.923-.015-28.436-1.806-14.386-.936-23.462-3.813-27.226-8.629Z" fill="#FFC500"/><defs><filter id="a" x="210.587" y="48.079" width="79.153" height="79.093" filterUnits="userSpaceOnUse" color-interpolation-filters="sRGB"><feFlood flood-opacity="0" result="BackgroundImageFix"/><feBlend in="SourceGraphic" in2="BackgroundImageFix" result="shape"/><feGaussianBlur stdDeviation="3.717" result="effect1_foregroundBlur_741_24927"/></filter><filter id="b" x="230.074" y="81.925" width="11.31" height="11.308" filterUnits="userSpaceOnUse" color-interpolation-filters="sRGB"><feFlood flood-opacity="0" result="BackgroundImageFix"/><feBlend in="SourceGraphic" in2="BackgroundImageFix" result="shape"/><feGaussianBlur stdDeviation="1.115" result="effect1_foregroundBlur_741_24927"/></filter><filter id="c" x="243.773" y="81.925" width="11.31" height="11.308" filterUnits="userSpaceOnUse" color-interpolation-filters="sRGB"><feFlood flood-opacity="0" result="BackgroundImageFix"/><feBlend in="SourceGraphic" in2="BackgroundImageFix" result="shape"/><feGaussianBlur stdDeviation="1.115" result="effect1_foregroundBlur_741_24927"/></filter><filter id="d" x="257.473" y="81.925" width="11.31" height="11.308" filterUnits="userSpaceOnUse" color-interpolation-filters="sRGB"><feFlood flood-opacity="0" result="BackgroundImageFix"/><feBlend in="SourceGraphic" in2="BackgroundImageFix" result="shape"/><feGaussianBlur stdDeviation="1.115" result="effect1_foregroundBlur_741_24927"/></filter></defs></svg>