<svg viewBox="0 0 400 300" fill="none" xmlns="http://www.w3.org/2000/svg"><path d="M70.65 81.257c4.593 0 8.316-3.718 8.316-8.304 0-4.587-3.723-8.305-8.316-8.305-4.593 0-8.316 3.718-8.316 8.305 0 4.586 3.723 8.304 8.316 8.304Z" stroke="#fff" stroke-width=".853"/><path clip-rule="evenodd" d="M79.394 89.776c0-4.704-3.915-8.518-8.743-8.518-4.829 0-8.743 3.814-8.743 8.518h17.486Z" stroke="#fff" stroke-width=".853"/><path d="M133.985 55.703h-75.06a6.823 6.823 0 0 0-6.823 6.823v83.461a6.823 6.823 0 0 0 6.823 6.823h75.06a6.823 6.823 0 0 0 6.823-6.823v-83.46a6.823 6.823 0 0 0-6.823-6.824Z" fill="#04D6BA"/><path d="M323.806 182.197c37.251 10.648 47 24.916 31.731 44.508-.151 0 12.807-16.611-24.353-24.277M212.913 99.845c5.49-1.369 8.43-8.54 6.566-16.016-1.864-7.476-7.826-12.428-13.317-11.059-5.49 1.37-8.43 8.54-6.566 16.016 1.864 7.477 7.826 12.428 13.317 11.059ZM240.85 92.889c6.288-1.568 9.875-8.9 8.011-16.376-1.864-7.477-8.473-12.267-14.762-10.699-6.288 1.568-9.875 8.9-8.011 16.377 1.864 7.476 8.473 12.266 14.762 10.698ZM223.334 86.449l-.438 7.262 3.612-.9M219.352 83.609l6.743-1.68M257.678 85.538a9.176 9.176 0 0 0 7.844 1.647c4.922-1.225 7.916-6.203 6.689-11.118-1.227-4.915-6.211-7.905-11.132-6.68a9.164 9.164 0 0 0-6.175 5.183" stroke="#143C9B" stroke-width=".853"/><path d="M268.741 80.62a5.689 5.689 0 0 0-.516-4.993 5.714 5.714 0 0 0-7.867-1.813 5.691 5.691 0 0 0-2.653 4.248" stroke="#143C9B" stroke-width=".853"/><path d="M263.675 77.77a5.695 5.695 0 0 0-3.608-3.493M231.852 116.262l3.343 9.707h-4.964M262.559 87.615l10.029 41.557" stroke="#143C9B" stroke-width=".853"/><path d="m249.494 112.125-16.842 4.193c-7.992 1.991-16.086-2.87-18.085-10.859l-9.147-36.553" stroke="#143C9B" stroke-width=".853"/><path fill-rule="evenodd" clip-rule="evenodd" d="M207.286 39.358c5.032-1.254 9.892-.805 13.946.866l16.004-4.012c11.92-3.183 24.16 3.886 27.34 15.79.464 1.737.716 3.525.751 5.324l.079 11.993c-3.37-.522-6.24.278-8.61 2.402l-4.807-9.02c-4.417 2.804-8.973 4.366-13.669 4.685-4.695.32-8.839-.793-12.431-3.337-2.75 2.8-6.518 4.996-10.927 6.095-10.641 2.654-20.985-2.087-23.105-10.589-2.119-8.501 4.789-17.544 15.429-20.197ZM262.512 87.423l3.492-.358-.61 11.903M249.613 112.605l-15.058 12.436-2.643-8.539 17.701-3.897Z" fill="#143C9B"/><path d="M230.579 102.967c1.691-.422 2.909-1.38 2.72-2.14-.19-.76-1.715-1.034-3.406-.612-1.692.422-2.909 1.38-2.72 2.139.19.76 1.714 1.034 3.406.613Z" stroke="#143C9B" stroke-width=".853"/><path fill-rule="evenodd" clip-rule="evenodd" d="M191.132 256.306v-38.758h-43.074v-45.247l-.356-.21-.073-8.137c-.211-23.55 18.71-42.813 42.26-43.024 1.485-.013 2.97.051 4.448.193l36.705 3.517c2.914 8.937 11.283 15.393 21.152 15.393 8.314 0 16.467-4.581 20.874-11.367l40.106 3.842c18.236 1.747 31.604 17.947 29.856 36.183a33.155 33.155 0 0 1-1.242 6.351l-.159.516-14.026 21.824v58.924H191.132Z" fill="#3370FF"/><path d="M196.671 107.061H84.087a6.822 6.822 0 0 0-6.823 6.823v137.203a6.823 6.823 0 0 0 6.823 6.823H196.67a6.823 6.823 0 0 0 6.823-6.823V113.884a6.823 6.823 0 0 0-6.823-6.823Z" fill="#fff" stroke="#143C9B" stroke-width=".853"/><path d="m77.83 127.952 124.849-.248M90.984 103.332v11.067M187.787 102.34v11.067" stroke="#143C9B" stroke-width=".853" stroke-linecap="square"/><path d="m162.219 107.538.01-10.573a1.706 1.706 0 0 0-2.682-1.4l-1.224.855a11.775 11.775 0 0 0-4.818 7.413l-.718 3.705" stroke="#143C9B" stroke-width=".853"/><path d="m328.028 197.53-35.296 49.137a25.587 25.587 0 0 1-28.62 9.429l-94.694-30.479M284.089 173.562l-25.318 34.951M187.787 188.931l90.1 24.54M264.979 199.589l51.627 13.881" stroke="#fff" stroke-width=".853"/><path d="m203.176 236.523-32.088-9.179" stroke="#143C9B" stroke-width=".853"/><path d="M112.022 246.084c14.721 0 26.654-11.918 26.654-26.62 0-14.701-11.933-26.619-26.654-26.619s-26.655 11.918-26.655 26.619c0 14.702 11.934 26.62 26.655 26.62Z" fill="#FFC500"/><path d="M123.751 217.974h-23.456v2.981h23.456v-2.981Z" fill="#fff"/><path fill-rule="evenodd" clip-rule="evenodd" d="M110.529 231.177v-23.425h2.986v23.425h-2.986Z" fill="#fff"/><path fill-rule="evenodd" clip-rule="evenodd" d="m162.747 189.837 25.689-22.646a2.558 2.558 0 0 1 3.454.064l5.47 5.195a2.558 2.558 0 0 1-.047 3.754l-13 11.735-12.163-3.47-9.403 5.368ZM148.818 204.3l-10.847 9.343-4.61 10.03a1.705 1.705 0 0 0 2.09 2.33l10.906-3.644 6.433-4.674-3.972-13.385Z" fill="#04D6BA"/><path d="m165.197 188.435-9.889-8.212a1.705 1.705 0 0 0-2.774 1.044l-.278 1.749a11.753 11.753 0 0 0 1.99 8.606l2.173 3.094" stroke="#143C9B" stroke-width=".853"/><path d="m203.175 192.897-29.354-7.848a5.114 5.114 0 0 0-4.064.623l-18.766 11.908a5.118 5.118 0 0 0-2.204 5.635l2.264 8.521 4.626 15.666a5.116 5.116 0 0 0 4.907 3.668h23.23M150.307 209.009l10.424-5.701M152.787 217.437l10.425-5.702M155.766 226.36l10.424-5.701" stroke="#143C9B" stroke-width=".853"/><path fill-rule="evenodd" clip-rule="evenodd" d="M123.905 102.599a1.275 1.275 0 0 1 1.279 1.279v9.585a4.031 4.031 0 0 1-1.183 2.858 4.031 4.031 0 0 1-2.858 1.183 4.031 4.031 0 0 1-2.858-1.183 4.031 4.031 0 0 1-1.183-2.858v-9.585a1.28 1.28 0 0 1 1.279-1.279h5.524Z" fill="#fff" stroke="#143C9B" stroke-width=".853"/><path fill-rule="evenodd" clip-rule="evenodd" d="M131.971 102.599a1.277 1.277 0 0 1 1.28 1.279v11.178a4.032 4.032 0 0 1-1.184 2.858 4.03 4.03 0 0 1-2.858 1.183 4.027 4.027 0 0 1-2.857-1.183 4.028 4.028 0 0 1-1.184-2.858v-11.178a1.276 1.276 0 0 1 1.279-1.279h5.524Z" fill="#fff" stroke="#143C9B" stroke-width=".853"/><path fill-rule="evenodd" clip-rule="evenodd" d="M140.038 102.599a1.275 1.275 0 0 1 1.279 1.279v11.178a4.028 4.028 0 0 1-1.184 2.858 4.027 4.027 0 0 1-2.857 1.183 4.03 4.03 0 0 1-2.858-1.183 4.032 4.032 0 0 1-1.184-2.858v-11.178a1.28 1.28 0 0 1 1.28-1.279h5.524Z" fill="#fff" stroke="#143C9B" stroke-width=".853"/><path fill-rule="evenodd" clip-rule="evenodd" d="M147.979 102.599a1.28 1.28 0 0 1 1.279 1.279v9.585a4.031 4.031 0 0 1-1.183 2.858 4.031 4.031 0 0 1-2.858 1.183 4.031 4.031 0 0 1-2.858-1.183 4.031 4.031 0 0 1-1.183-2.858v-9.585a1.28 1.28 0 0 1 1.279-1.279h5.524Z" fill="#fff" stroke="#143C9B" stroke-width=".853"/><path d="M132.396 138.44H91.881a2.559 2.559 0 0 0-2.559 2.559v40.454a2.559 2.559 0 0 0 2.559 2.559h40.515a2.56 2.56 0 0 0 2.559-2.559v-40.454a2.56 2.56 0 0 0-2.559-2.559ZM152.109 184.438h-5.638a2.557 2.557 0 0 1-2.559-2.556v-41.313a2.557 2.557 0 0 1 2.559-2.555h41.368a2.557 2.557 0 0 1 2.559 2.555v25.87" stroke="#143C9B" stroke-width=".853"/><path clip-rule="evenodd" d="M68.734 136.199c-10.008 1.072-17.613 2.979-22.816 5.721-5.118 2.697-7.89 6.185-8.316 10.464 6.54-4.186 16.917-6.046 31.132-5.581v-10.604Z" stroke="#143C9B" stroke-width=".853"/><path fill-rule="evenodd" clip-rule="evenodd" d="M37.602 150.254s-1.905 5.067 1.066 10.648c4.197 7.884 17.834 16.85 57.787 14.481l-.037-11.406c-38.216 1.587-57.821-2.987-58.816-13.723Z" fill="#14C0FF"/><path fill-rule="evenodd" clip-rule="evenodd" d="M363 225.427c0 15.944-10.702 37.693-52.685 39.61-35.255 1.609-96.854-16.611-157.566 8.092l-.491-27.258c24.285-6.247 50.079-8.163 77.382-5.75 75.059 6.635 111.133 18.953 133.36-30.239v15.545Z" fill="#04D6BA"/><path d="M74.49 81.257c4.593 0 8.316-3.718 8.316-8.304 0-4.587-3.723-8.305-8.316-8.305-4.593 0-8.316 3.718-8.316 8.305 0 4.586 3.723 8.304 8.316 8.304Z" stroke="#fff" stroke-width=".853"/><path clip-rule="evenodd" d="M83.233 89.776c0-4.704-3.914-8.518-8.742-8.518-4.829 0-8.743 3.814-8.743 8.518h17.485Z" stroke="#fff" stroke-width=".853"/><path d="M100.504 81.257c4.593 0 8.316-3.718 8.316-8.304 0-4.587-3.723-8.305-8.316-8.305-4.593 0-8.317 3.718-8.317 8.305 0 4.586 3.724 8.304 8.317 8.304Z" stroke="#fff" stroke-width=".853"/><path clip-rule="evenodd" d="M109.247 89.776c0-4.704-3.914-8.518-8.743-8.518-4.828 0-8.742 3.814-8.742 8.518h17.485Z" stroke="#fff" stroke-width=".853"/></svg>