<svg viewBox="0 0 400 300" fill="none" xmlns="http://www.w3.org/2000/svg"><path fill-rule="evenodd" clip-rule="evenodd" d="M215.09 56.52c10.336 9.68 23.951 14.79 40.844 15.33 5.786.185 4.206-6.295 6.845-9.348 1.364-1.578 6.041-6.456 13.21-.027 8.205 8.743-.741 15.458-1.954 16.693-.809.824-3.164 1.167-7.065 1.03l3.09 47.559 37.101 1.546c-10.601-78.478-30.046-111.627-58.336-99.448-1.695.73-3.156 1.64-4.588 2.293-14.719 6.703-20.656-11.55-34.95-4.197-14.293 7.353-2.983 29.331-2.983 29.331-2.805 2.57-4.649 10.285-2.774 16.613 1.25 4.218 4.958 9.068 11.124 14.55l-2.662-30.42a1.845 1.845 0 0 1 3.098-1.505Z" fill="#143C9B"/><path d="m225.647 75.951-3.417 7.509 4.188.513M261.396 77.148a10.392 10.392 0 0 0 8.487 3.233c5.725-.501 9.96-5.544 9.46-11.265-.501-5.72-5.548-9.951-11.273-9.45a10.39 10.39 0 0 0-7.83 4.71" stroke="#143C9B" stroke-width=".922"/><path d="M274.652 73.599a6.45 6.45 0 0 0 .309-5.681 6.47 6.47 0 0 0-12.206.864" stroke="#143C9B" stroke-width=".922"/><path d="M269.486 69.512a6.452 6.452 0 0 0-3.417-4.55M232.644 106.487l.095 21.27-24.292-.001M269.177 80.273l.883 47.926h12.146" stroke="#143C9B" stroke-width=".922"/><path d="m253.121 104.977-20.342 1.78c-8.88.777-16.71-5.793-17.487-14.673l-3.589-41.026" stroke="#143C9B" stroke-width=".922"/><path fill-rule="evenodd" clip-rule="evenodd" d="m253.233 105.475-20.495 11.459-.071-10.168 20.566-1.291Z" fill="#143C9B"/><path d="M229.613 94.55c2.432.837 4.696.666 5.057-.382.361-1.049-1.318-2.577-3.75-3.415-2.432-.837-4.696-.666-5.057.382-.361 1.048 1.318 2.577 3.75 3.414Z" stroke="#143C9B" stroke-width=".922"/><path fill-rule="evenodd" clip-rule="evenodd" d="M318.36 127.492c20.376 0 36.894 16.519 36.894 36.895 0 .488-.009.977-.029 1.465-.139 3.496-.375 6.256-.71 8.281-1.143 6.931-5.235 16.172-12.274 27.724l-11.806 71.526h-158.4V127.492h56.095c2.921 10.947 12.901 19.01 24.762 19.01 11.862 0 21.841-8.063 24.762-19.01h40.706Z" fill="#3370FF"/><path d="m139.699 64.454 15.957 69.114M121.191 187.308 92.955 75.245M139.697 64.505l-8.868-36.631c-.206-.89-1.335-1.39-2.522-1.116-.972.224-1.71.91-1.8 1.672-.248 10.045-.589 16.907-1.024 20.586-.507 4.3-1.857 8.755-4.047 13.367" stroke="#143C9B" stroke-width=".922"/><path clip-rule="evenodd" d="M114.879 52.829a4.137 4.137 0 0 1 3.133.524 4.138 4.138 0 0 1 1.845 2.587l2.484 10.76a4.137 4.137 0 0 1-.525 3.132 4.134 4.134 0 0 1-2.586 1.845l-1.783.412a4.138 4.138 0 0 1-3.133-.525 4.133 4.133 0 0 1-1.844-2.586l-2.485-10.76a4.141 4.141 0 0 1 .525-3.133 4.137 4.137 0 0 1 2.586-1.844l1.783-.412Z" stroke="#143C9B" stroke-width=".922"/><path d="m104.379 55.253-.884.204a4.613 4.613 0 0 0-3.457 5.531l2.277 9.861a4.612 4.612 0 0 0 5.531 3.456l.884-.204a4.611 4.611 0 0 0 3.456-5.53l-2.276-9.862a4.612 4.612 0 0 0-5.531-3.456ZM94.327 57.574l-.884.204a4.612 4.612 0 0 0-3.456 5.531l2.276 9.86a4.612 4.612 0 0 0 5.531 3.457l.884-.204a4.613 4.613 0 0 0 3.457-5.531l-2.277-9.86a4.612 4.612 0 0 0-5.531-3.457Z" stroke="#143C9B" stroke-width=".922"/><path fill-rule="evenodd" clip-rule="evenodd" d="m144.04 85.1-27.036-13.768a1.845 1.845 0 0 1 .123-3.344l2.67-1.122a19.4 19.4 0 0 1 12.937-.74l2.963.864" fill="#fff"/><path d="m144.04 85.1-27.036-13.768a1.845 1.845 0 0 1 .123-3.344l2.67-1.122a19.4 19.4 0 0 1 12.937-.74l2.963.864" stroke="#143C9B" stroke-width=".922"/><path fill-rule="evenodd" clip-rule="evenodd" d="M42.379 116.873h146.735c11.984 0 21.699 9.715 21.699 21.699H35v-14.32a7.38 7.38 0 0 1 7.379-7.379Z" fill="#04D6BA"/><path fill-rule="evenodd" clip-rule="evenodd" d="M261.6 139.034c1.91 0 3.64.774 4.892 2.026a6.899 6.899 0 0 1 2.026 4.891v120.515c0 1.91-.775 3.64-2.026 4.892a6.897 6.897 0 0 1-4.892 2.026H42.379c-1.91 0-3.64-.774-4.892-2.026a6.898 6.898 0 0 1-2.026-4.892V139.034H261.6Z" fill="#fff" stroke="#143C9B" stroke-width=".922"/><path clip-rule="evenodd" d="M136.953 216.596a1.38 1.38 0 0 1 1.383 1.383v6.006c0 .382-.155.728-.405.978-.25.251-.596.406-.978.406h-83.56c-.383 0-.729-.155-.979-.406a1.378 1.378 0 0 1-.405-.978v-6.006a1.38 1.38 0 0 1 1.383-1.383h83.561ZM197.427 236.91a1.383 1.383 0 0 1 1.384 1.383v6.006c0 .382-.155.728-.405.978a1.38 1.38 0 0 1-.979.406H53.392c-.382 0-.728-.155-.978-.406a1.378 1.378 0 0 1-.405-.978v-6.006a1.38 1.38 0 0 1 1.383-1.383h144.035Z" stroke="#143C9B" stroke-width=".922"/><path fill-rule="evenodd" clip-rule="evenodd" d="M48.388 124.26h11.93a3.693 3.693 0 1 1 0 7.387h-11.93a3.694 3.694 0 0 1 0-7.387Z" fill="#fff"/><path d="M51.768 124.174a25.753 25.753 0 0 0-2.529 11.166c0 14.279 11.575 25.855 25.852 25.855 14.278 0 25.852-11.576 25.852-25.855 0-3.969-.895-7.729-2.493-11.09a25.915 25.915 0 0 0-5.15-7.262 25.77 25.77 0 0 0-18.209-7.502 25.77 25.77 0 0 0-18.255 7.548" stroke="#143C9B" stroke-width=".922"/><path d="M148.433 79.551c8.125 0 14.713-6.631 14.713-14.81 0-8.18-6.588-14.812-14.713-14.812-8.126 0-14.713 6.631-14.713 14.811s6.587 14.811 14.713 14.811Z" fill="#FFC500"/><path d="M147.774 65.403c2.668 0 4.831-2.177 4.831-4.863 0-2.686-2.163-4.863-4.831-4.863-2.669 0-4.832 2.177-4.832 4.863 0 2.686 2.163 4.863 4.832 4.863Z" fill="#fff"/><path fill-rule="evenodd" clip-rule="evenodd" d="m143.844 73.735 4.596 21.883 3.373 5.248 1.67-3.409 3.92 3.284 5.743-5.052-5.813-25.385-13.489 3.43Z" fill="#FFC500"/><path fill-rule="evenodd" clip-rule="evenodd" d="m51.321 146.004 50.45-12.573a7.382 7.382 0 0 1 8.945 5.375l9.676 38.792a7.377 7.377 0 0 1-5.372 8.945l-.002-.001-50.449 12.572a7.383 7.383 0 0 1-8.946-5.375l-9.676-38.791a7.376 7.376 0 0 1 5.374-8.944Z" fill="#3370FF"/><path d="M85.091 173.475c4.82-1.201 7.751-6.09 6.547-10.919-1.204-4.829-6.087-7.769-10.906-6.567-4.82 1.201-7.751 6.09-6.547 10.919 1.204 4.829 6.087 7.769 10.906 6.567Z" fill="#fff"/><path fill-rule="evenodd" clip-rule="evenodd" d="m84.197 167.558 11.573 5.27a.923.923 0 0 1-.159 1.734l-19.629 4.905a.923.923 0 0 1-.947-1.468l8.057-10.174a.921.921 0 0 1 1.105-.267Z" fill="#fff"/><path d="M125.881 48.657c-1.485.19-2.445.642-2.636 1.356-.506 1.885 4.542 4.876 11.274 6.68 6.732 1.803 12.599 1.737 13.104-.148m-5.909-4.855a41.039 41.039 0 0 0-5.366-1.824M194.341 185.657l-27.133-16.955a1.583 1.583 0 0 1-.494-2.183c.381-.61 1.12-.89 1.803-.684l32.143 9.709M342.721 201.526l-28.671 51.371c-7.449 13.344-24.304 18.124-37.649 10.676-.143-.08-.286-.161-.428-.244l-80.356-46.747-18.966-11.943a4.639 4.639 0 0 1-1.563-6.216l.27-.474a3.688 3.688 0 0 1 5.193-1.289l4.944 3.155" stroke="#143C9B" stroke-width=".922"/><path d="m342.721 201.526-29.253 52.41c-7.133 12.78-23.276 17.358-36.057 10.225-.138-.077-8.315-4.919-8.452-4.999" stroke="#fff" stroke-width=".922"/><path d="m192.196 194.301-8.109-5.067a3.69 3.69 0 0 1-1.173-5.084l.536-.859a3.69 3.69 0 0 1 5.084-1.173l8.109 5.067" stroke="#143C9B" stroke-width=".922"/><path d="m187.754 201.234-8.109-5.067a3.69 3.69 0 0 1-1.174-5.084l.537-.859a3.69 3.69 0 0 1 5.084-1.174l8.109 5.067M268.074 209.915l-51.239-28.049-13.838-20.661a1.845 1.845 0 0 0-3.318.563l-.402 1.547a17.058 17.058 0 0 0 .738 10.795l.593 1.439" stroke="#143C9B" stroke-width=".922"/><path d="m307.295 174.122-24.929 44.321M267.594 209.671l22.62 13.389M287.444 209.671l38.316 21.699" stroke="#fff" stroke-width=".922"/><path d="M338.982 219.828c7.632 2.214 13.732 5.454 18.301 9.722 4.494 4.198 6.625 9.353 6.394 15.466-5.743-6.514-8.379-9.943-22.49-12.594" stroke="#143C9B" stroke-width=".922"/><path fill-rule="evenodd" clip-rule="evenodd" d="M364.063 241.923s2.967 7.882-1.661 16.564c-6.537 12.266-35.87 28.491-115.582 21.534l14.614-22.859c66.87 6.541 101.079 1.461 102.629-15.239Z" fill="#14C0FF"/></svg>