<svg viewBox="0 0 400 300" fill="none" xmlns="http://www.w3.org/2000/svg"><path fill-rule="evenodd" clip-rule="evenodd" d="M339.919 36.378a6.07 6.07 0 0 1 6.07 6.07v117.889a6.07 6.07 0 0 1-6.07 6.07h-54.6a18.453 18.453 0 0 1 1.239 6.668c0 10.23-8.315 18.523-18.572 18.523s-18.572-8.293-18.572-18.523c0-2.35.439-4.599 1.24-6.668h-54.973a6.07 6.07 0 0 1-6.07-6.07V42.448a6.07 6.07 0 0 1 6.07-6.07h144.238Z" fill="#3370FF"/><path d="M257.362 109.549c11.425 0 20.686-9.176 20.686-20.496 0-11.319-9.261-20.495-20.686-20.495s-20.686 9.176-20.686 20.495c0 11.32 9.261 20.496 20.686 20.496Z" fill="#3370FF" stroke="#fff" stroke-width=".759"/><path fill-rule="evenodd" clip-rule="evenodd" d="M278.428 129.51c0-11.223-9.431-20.321-21.066-20.321-11.634 0-21.065 9.098-21.065 20.321h42.131Z" fill="#3370FF" stroke="#fff" stroke-width=".759"/><path d="M286.21 109.549c11.424 0 20.686-9.176 20.686-20.496 0-11.319-9.262-20.495-20.686-20.495-11.425 0-20.687 9.176-20.687 20.495 0 11.32 9.262 20.496 20.687 20.496Z" fill="#3370FF" stroke="#fff" stroke-width=".759"/><path fill-rule="evenodd" clip-rule="evenodd" d="M307.276 129.51c0-11.223-9.432-20.321-21.066-20.321-11.634 0-21.065 9.098-21.065 20.321h42.131Z" fill="#3370FF" stroke="#fff" stroke-width=".759"/><path fill-rule="evenodd" clip-rule="evenodd" d="M138.38 36.379c6.36 0 12.117 2.572 16.285 6.73 4.167 4.157 6.745 9.901 6.745 16.245a22.849 22.849 0 0 1-5.137 14.467h64.845c1.572 0 2.994.637 4.024 1.667a5.672 5.672 0 0 1 1.667 4.024v59.285a23.948 23.948 0 0 0-6.772-.971 23.852 23.852 0 0 0-16.899 6.984c-4.326 4.315-7.001 10.276-7.001 16.861 0 6.585 2.675 12.546 7.001 16.861a23.852 23.852 0 0 0 16.899 6.984c2.352 0 4.625-.339 6.772-.971v59.285a5.67 5.67 0 0 1-1.667 4.024 5.672 5.672 0 0 1-4.024 1.667H56.384a5.673 5.673 0 0 1-4.024-1.667 5.67 5.67 0 0 1-1.667-4.024V79.512c0-1.572.637-2.995 1.667-4.024a5.673 5.673 0 0 1 4.024-1.667h64.103a22.844 22.844 0 0 1-5.138-14.467c0-6.344 2.578-12.088 6.745-16.245a22.988 22.988 0 0 1 16.286-6.73Z" fill="#fff" stroke="#143C9B" stroke-width=".759"/><path fill-rule="evenodd" clip-rule="evenodd" d="M123.026 88.685c-5.948 11.442-16.111 19.897-30.487 25.366-4.877 1.855-5.431-4.128-8.577-5.954-1.625-.943-6.098-3.333-11.267 3.854-5.168 7.186 5.274 13.302 6.67 13.998.93.464 3.686-.479 8.266-2.83l6.218 24.054c.998 1.577-.128 6.857-3.377 15.838-3.248 8.982-12.826 12.623-28.734 10.923-2.167-68.195 6.014-100.773 24.542-97.736 1.644.269 3.171.471 4.584.607 14.512 1.39 14.218-15.898 28.558-13.83 14.34 2.068 11.146 24.106 11.146 24.106 3.145 1.366 6.979 7.395 7.237 13.334.172 3.96-1.566 9.178-5.213 15.656l-6.746-27.054a1.517 1.517 0 0 0-2.82-.332Z" fill="#143C9B"/><path d="m119.784 108.713 5.12 5.394-3.423 1.668M89.617 120.236a9.388 9.388 0 0 1-6.296 5.248c-5.034 1.255-10.13-1.798-11.382-6.819-1.252-5.022 1.814-10.11 6.848-11.366a9.387 9.387 0 0 1 8.068 1.713" stroke="#143C9B" stroke-width=".759"/><path d="M77.258 121.107a5.804 5.804 0 0 1-1.931-4.75c.227-3.21 3.019-5.632 6.235-5.41a5.826 5.826 0 0 1 4.438 2.56" stroke="#143C9B" stroke-width=".759"/><path d="M80.467 116.107a5.812 5.812 0 0 1 1.582-4.881M122.775 136.79l2.572 19.242M81.275 125.68l10 40.106-3.45.86M104.852 141.519l19.144-4.773c7.116-1.774 11.446-8.98 9.672-16.096l-9.287-37.247" stroke="#143C9B" stroke-width=".759"/><path fill-rule="evenodd" clip-rule="evenodd" d="m104.493 142.011 19.988 5.043-2.126-10.018-17.862 4.975Z" fill="#143C9B"/><path d="M121.82 123.413c1.041-.463 1.684-1.288 1.437-1.843-.247-.554-1.291-.628-2.331-.165-1.041.463-1.685 1.289-1.438 1.843.247.555 1.291.629 2.332.165Z" stroke="#143C9B" stroke-width=".759"/><path d="m82.396 193.646-27.23 11.267" stroke="#fff" stroke-width=".759"/><path fill-rule="evenodd" clip-rule="evenodd" d="M38.456 152.877c2.385-9.77 12.238-15.757 22.009-13.372l16.711 4.079 17.809 4.249c2.292 8.873 11.018 14.715 20.279 13.248a17.992 17.992 0 0 0 10.694-5.858l43.403 10.355a22.767 22.767 0 0 1 13.161 8.8l24.377 33.7-35.84 12.246 1.668 3.327-34.383 10.601-.044 15.669-87.247.012.002-6.152-12.907-83.814a18.209 18.209 0 0 1 .218-6.702l.09-.388Z" fill="#04D6BA"/><path fill-rule="evenodd" clip-rule="evenodd" d="m112.94 146.24-.001-.084a7.585 7.585 0 0 0-3.727-6.48l-5.988-3.538a19.161 19.161 0 0 1-7.765-8.747l-8.027-18.134a.948.948 0 0 0-1.258-.486.964.964 0 0 0-.556.993l2.07 17.375a48.417 48.417 0 0 0 4.682 15.753l2.014 4.79" fill="#fff"/><path d="m112.94 146.24-.001-.084a7.585 7.585 0 0 0-3.727-6.48l-5.988-3.538a19.161 19.161 0 0 1-7.765-8.747l-8.027-18.134a.948.948 0 0 0-1.258-.486.964.964 0 0 0-.556.993l2.07 17.375a48.417 48.417 0 0 0 4.682 15.753l2.014 4.79M95.483 144.136l-17.08 65.772" stroke="#143C9B" stroke-width=".759"/><path d="M112.941 140.489v93.857c0 8.381-6.794 15.175-15.175 15.175H82.718a15.174 15.174 0 0 1-14.052-9.445l-16.834-41.283M81.059 171.155l4.554 11.357M172.532 223.399l-6.647-10.169" stroke="#143C9B" stroke-width=".759"/><path d="m206.224 207.877 10.767 18.983c4.135 7.29 1.577 16.552-5.713 20.686a15.176 15.176 0 0 1-7.487 1.976H77.854a1.518 1.518 0 0 1-.431-2.973l17.573-5.208a37.923 37.923 0 0 1 8.876-1.516l16.024-.806 64.971-19.027" stroke="#143C9B" stroke-width=".759"/><path fill-rule="evenodd" clip-rule="evenodd" d="M56.385 186.948h85.406a6.07 6.07 0 0 1 6.07 6.07v57.532H50.315v-57.532a6.07 6.07 0 0 1 6.07-6.07Z" fill="#DFE0E4"/><path d="M98.518 222.263a4.55 4.55 0 0 0 4.555-4.543 4.55 4.55 0 0 0-4.555-4.542 4.549 4.549 0 0 0-4.555 4.542 4.549 4.549 0 0 0 4.555 4.543ZM345.725 126.86s31.026 13.712 15.048 55.032c-.114 0 8.514-25.798-15.048-41.32" stroke="#143C9B" stroke-width=".759"/><path fill-rule="evenodd" clip-rule="evenodd" d="M324.547 212.836c-37.404-.988-60.874 5.436-70.411 19.271v-24.088c7.183-5.806 17.835-8.956 31.954-9.45 62.237 1.297 72.071-10.738 78.771-29.833-2.291 28.294-15.729 42.993-40.314 44.1Z" fill="#14C0FF"/><path fill-rule="evenodd" clip-rule="evenodd" d="M158.105 73.1h63.013a6.07 6.07 0 0 1 6.07 6.07v59.964a.758.758 0 0 1-1.156.646l-14.284-8.759h-53.643a6.07 6.07 0 0 1-6.07-6.07v-45.78a6.07 6.07 0 0 1 6.07-6.07Z" fill="#FFC500"/><path d="M189.613 119.664c9.643 0 17.46-7.795 17.46-17.412 0-9.617-7.817-17.413-17.46-17.413s-17.461 7.796-17.461 17.413 7.818 17.412 17.461 17.412Z" stroke="#fff" stroke-width="2.276"/><path d="M197.796 101.139H181.43v2.226h16.366v-2.226Z" fill="#fff"/><path fill-rule="evenodd" clip-rule="evenodd" d="M188.498 110.414V94.089h2.232v16.325h-2.232Z" fill="#fff"/></svg>