<svg viewBox="0 0 400 300" fill="none" xmlns="http://www.w3.org/2000/svg"><g filter="url(#a)"><path fill-rule="evenodd" clip-rule="evenodd" d="M264.96 35.227c-11.17 0-20.644 7.042-23.961 16.798a26.122 26.122 0 0 0-8.181-1.303c-12.275 0-22.503 8.42-24.761 19.572h-8.987a9.378 9.378 0 0 0-9.378 9.38 9.378 9.378 0 0 0 9.378 9.378h121.202a9.378 9.378 0 0 0 9.343-10.196l.035.002a21.56 21.56 0 0 0-.073-.363 9.267 9.267 0 0 0-.509-2.083c-3.672-13.034-15.296-21.205-27.027-21.205-4.206 0-8.225 1.012-11.911 2.854-.866-12.751-11.804-22.834-25.17-22.834Z" fill="#FFC500"/></g><path d="m297.916 125.342 9.765-8.563M307.201 118.603l21.182-67.241-.155-18.15a1.795 1.795 0 0 1 1.145-2.264 1.787 1.787 0 0 1 1.789.403l7.731 12.096M338.81 43.089l29.854-6.538a1.109 1.109 0 0 1 .836 2.018M355.75 43.373l18.16-6.254a2.037 2.037 0 0 1 2.5 2.806l-.132.276" stroke="#143C9B" stroke-width=".815"/><path d="m359.703 47.74 16.983-7.773a2.037 2.037 0 0 1 2.813 2.39l-.745 2.722" stroke="#143C9B" stroke-width=".815"/><path d="m360.319 52.453 17.715-7.527a1.222 1.222 0 0 1 1.48 1.824l-1.668 2.39a33.467 33.467 0 0 1-10.254 9.56l-12.331 7.383-16.325 73.702a21.996 21.996 0 0 1-6.577 11.426l-19.242 17.716" stroke="#143C9B" stroke-width=".815"/><path d="M349.732 44.17c6.647 2.142 10.368 5.685 11.162 10.628M247.635 114.787c-4.402.776-8.833-3.482-9.896-9.511-1.063-6.03 1.644-11.546 6.046-12.322 4.402-.776 8.833 3.482 9.896 9.511 1.063 6.029-1.644 11.546-6.046 12.322ZM225.049 118.769c-5.048.89-10.001-3.276-11.064-9.305-1.063-6.029 2.166-11.638 7.214-12.528 5.047-.89 10.001 3.276 11.064 9.305 1.063 6.029-2.167 11.638-7.214 12.528ZM235.716 108.449l2.677 5.162-2.92.515M237.498 105.117l-5.062.893M210.433 118.924a7.293 7.293 0 0 1-5.173 3.748c-3.978.702-7.774-1.962-8.477-5.95-.703-3.987 1.952-7.788 5.931-8.49a7.297 7.297 0 0 1 6.175 1.782" stroke="#143C9B" stroke-width=".815"/><path d="M200.786 118.922a4.56 4.56 0 0 1-1.246-3.814 4.546 4.546 0 0 1 8.445-1.634" stroke="#143C9B" stroke-width=".815"/><path d="M203.547 115.197a4.548 4.548 0 0 1 1.491-3.721M239.199 132.985l2.583 17.91 4.745-.395M207.555 122.025l5.615 31.847-2.726.48" stroke="#143C9B" stroke-width=".815"/><path d="m225.021 135.686 11.269-1.987c7.755-1.368 12.933-8.763 11.566-16.518l-4.544-25.765" stroke="#143C9B" stroke-width=".815"/><path fill-rule="evenodd" clip-rule="evenodd" d="M232.106 68.846c-4.068.717-7.458 2.623-9.865 5.16l-12.946 2.265c-9.704 1.545-16.316 10.682-14.767 20.408.226 1.42.622 2.807 1.181 4.132l3.833 8.786c2.283-1.476 4.631-1.823 7.044-1.041l.57-8.149c4.124.614 7.945.276 11.465-1.015 3.52-1.292 6.173-3.45 7.961-6.473 2.91 1.152 6.364 1.532 9.928.904 8.602-1.517 14.59-8.338 13.374-15.235-1.216-6.897-9.176-11.259-17.778-9.742ZM207.527 121.87l-2.657.871 4.309 8.495M225.09 136.076l14.994 4.197-.85-7.093-14.144 2.896Z" fill="#143C9B"/><path d="M233.098 124.646c-3.093-.714-5.4-2.162-5.152-3.234.247-1.072 2.955-1.362 6.048-.648 3.093.714 5.399 2.162 5.152 3.234-.248 1.072-2.956 1.362-6.048.648Z" stroke="#143C9B" stroke-width=".815"/><path fill-rule="evenodd" clip-rule="evenodd" d="m299.481 122.772-15.511 13.92a40.743 40.743 0 0 1-19.846 9.747l-18.515 3.403-.14.015c-1.121 7.902-7.474 14.333-15.754 15.203-8.281.871-15.833-4.099-18.572-11.595l-26.007 2.733c-13.84 1.454-25.241 9.939-31.025 21.533l-.05-.019-.22.571a39.099 39.099 0 0 0-2.281 5.959l-10.528 27.502 39.587 16.868 1.311 22.526 120.882.014-7.123-61.336 27.446-28.161-23.654-38.883Z" fill="#3370FF"/><path d="m73.94 130.847-3.458-3.058M91.596 51.368l6.555-13.33c.362-1.15-.252-1.686-.605-1.866-.352-.18-1.412-.277-2.306 1.046L69.58 73.17l-37.27 51.912c-5.803 8.082-5.06 19.144 1.77 26.379l12.554 13.299" stroke="#143C9B" stroke-width=".815"/><path d="m97.377 56.573 9.043-19.202c.274-.79-.16-1.556-.971-1.71-.663-.127-1.395.196-1.785.788L89.862 53.53" stroke="#143C9B" stroke-width=".815"/><path d="m103.282 60.494 9.399-20.776a1.426 1.426 0 0 0-.686-1.895 1.419 1.419 0 0 0-1.688.376L96.859 57.17" stroke="#143C9B" stroke-width=".815"/><path d="m108.505 66.135 8.059-21.526c.318-.822-.059-1.865-.841-2.329-.64-.38-1.375-.26-1.793.291l-9.922 16.247M105.28 65.917l13.196 2.645a1.63 1.63 0 0 1 .394 3.062l-6.298 3.075a40.742 40.742 0 0 0-15.867 13.78L68.99 129.443" stroke="#143C9B" stroke-width=".815"/><path fill-rule="evenodd" clip-rule="evenodd" d="M127.613 102.043c5.404 8.004 13.652 13.582 24.746 16.733 3.909 1.11 3.936-3.59 6.253-5.229 1.197-.847 5.213-3.387 9 2.228s-3.196 10.728-4.232 11.367c-.691.425-2.333.165-4.927-.781l-5.176 32.683 27.007 4.277c-2.908-53.288-11.447-78.112-25.617-74.472a53.801 53.801 0 0 1-3.515.788c-11.165 2.081-12.1-11.41-23.086-8.813-10.986 2.598-7.025 19.551-7.025 19.551-2.348 1.28-4.917 6.242-4.717 10.888.133 3.097 1.832 7.044 5.098 11.841l3.233-20.409a1.629 1.629 0 0 1 2.958-.652Z" fill="#143C9B"/><path d="m130.862 116.489-3.61 4.556 2.769 1.064M155.041 123.395a7.295 7.295 0 0 0 5.237 3.656c3.991.632 7.739-2.097 8.372-6.096.634-3.999-2.088-7.754-6.078-8.386a7.3 7.3 0 0 0-6.143 1.89" stroke="#143C9B" stroke-width=".815"/><path d="M164.686 123.223a4.558 4.558 0 0 0 1.179-3.834 4.545 4.545 0 0 0-8.472-1.487" stroke="#143C9B" stroke-width=".815"/><path d="M161.86 119.548a4.551 4.551 0 0 0-1.556-3.695M130.429 138.573l-2.949 18.268-3.361-.396M161.877 127.063l-5.059 31.94 2.734.433" stroke="#143C9B" stroke-width=".815"/><path d="m144.653 141.027-11.302-1.79c-7.777-1.232-13.084-8.536-11.852-16.313l4.093-25.841" stroke="#143C9B" stroke-width=".815"/><path fill-rule="evenodd" clip-rule="evenodd" d="m144.591 141.419-14.918 4.458.725-7.107 14.193 2.649Z" fill="#143C9B"/><path d="M133.731 129.236c3.359-.472 5.945-1.826 5.777-3.024-.168-1.198-3.028-1.786-6.387-1.314-3.359.472-5.945 1.826-5.777 3.024.168 1.198 3.028 1.786 6.387 1.314Z" stroke="#143C9B" stroke-width=".815"/><path fill-rule="evenodd" clip-rule="evenodd" d="m73.734 130.102 17.32 17.188a13.853 13.853 0 0 0 7.252 3.791l25.6 4.704h-.001l.14.016c1.121 7.901 7.474 14.333 15.755 15.203 8.281.87 15.832-4.099 18.571-11.596l26.007 2.733c13.841 1.455 25.241 9.94 31.026 21.534l.049-.02.219.568a39.18 39.18 0 0 1 2.281 5.959l10.529 27.506-39.588 16.869-1.31 22.525-113.484.026 6.495-55.921-35.338-36.603 28.477-34.482Z" fill="#04D6BA"/><path d="m226.717 218.312 13.426 38.737M190.699 233.597l8.156 23.663M189.697 209.749l-2.037 47.448M82.688 182.429l-3.254 24.873" stroke="#fff" stroke-width=".815"/><path d="M296.29 196.701s15.369-.762 31.735 2.65c15.126 3.154 34.176 19.777 18.919 41.388-.141 0 12.612-34.863-49.027-28.543" stroke="#143C9B" stroke-width=".815"/><path fill-rule="evenodd" clip-rule="evenodd" d="M353.25 228.186c0 14.826-9.917 35.051-48.823 36.833-32.67 1.497-89.753-15.446-146.014 7.525l-.454-25.347c22.504-5.809 46.407-7.591 71.708-5.347 69.556 6.17 117.887 24.782 120.938-26.596 1.763 3.262 2.645 7.573 2.645 12.932Z" fill="#FFC500"/><path clip-rule="evenodd" d="M72.924 51.13c-9.548 1.026-16.804 2.851-21.767 5.476-4.882 2.583-7.527 5.922-7.934 10.019 6.239-4.008 16.139-5.788 29.7-5.343V51.13Z" stroke="#143C9B" stroke-width=".815"/><path fill-rule="evenodd" clip-rule="evenodd" d="M43.223 64.586s-1.818 4.85 1.017 10.194c4.004 7.548 21.97 17.534 70.793 13.252l-8.951-14.067c-40.957 4.025-61.91.899-62.859-9.38Z" fill="#14C0FF"/><path fill-rule="evenodd" clip-rule="evenodd" d="M56.25 202.817h83.218c3.6 0 6.518 2.919 6.518 6.518v56.686H49.732v-56.686a6.519 6.519 0 0 1 6.518-6.518Z" fill="#DFE0E4"/><path fill-rule="evenodd" clip-rule="evenodd" d="M90.285 225.651h10.337c1.46 1.549 2.392 3.342 2.798 5.38.608 3.057-2.824 5.043-4.987 4.157-1.297-3.097-4.013-6.276-8.148-9.537Z" fill="#04D6BA"/><path fill-rule="evenodd" clip-rule="evenodd" d="M109.136 231.52c-3.973-1.712-7.257-.856-9.851 2.568-2.595 3.423-5.757 4.034-9.486 1.834v6.357c9.161 0 14.594-1.956 16.296-5.868 1.054-2.527 2.068-4.157 3.041-4.891Z" fill="#143C9B"/><path fill-rule="evenodd" clip-rule="evenodd" d="M86.758 230.787c9.486 8.151 15.81 10.27 18.972 6.357 0 0-6.932 11.616-18.972 3.668v-10.025Z" fill="#3370FF"/><defs><filter id="a" x="181.544" y="27.08" width="156.254" height="70.12" filterUnits="userSpaceOnUse" color-interpolation-filters="sRGB"><feFlood flood-opacity="0" result="BackgroundImageFix"/><feBlend in="SourceGraphic" in2="BackgroundImageFix" result="shape"/><feGaussianBlur stdDeviation="4.074" result="effect1_foregroundBlur_741_24928"/></filter></defs></svg>