<svg viewBox="0 0 400 300" fill="none" xmlns="http://www.w3.org/2000/svg"><path fill-rule="evenodd" clip-rule="evenodd" d="M261.163 222.36c19.823 0 35.93 15.909 36.25 35.655l.005.6H108.061c0-20.023 16.231-36.255 36.254-36.255h37.58c2.101 9.66 10.714 16.895 21.02 16.895 10.307 0 18.92-7.235 21.021-16.895h37.227Z" fill="#143C9B"/><path d="M199.427 97.733c31.005 0 61.825 10.65 92.157 31.324l.919.63-28.048 40.556c-22.811-15.705-44.383-23.235-65.028-23.235-20.213 0-40.372 7.219-60.958 22.291l-.624.459-29.407-39.586c28.947-21.408 59.442-32.439 90.989-32.439Z" fill="#04D6BA"/><path d="M198.516 29c44.294 0 88.63 14.862 132.715 44.012l1.336.887-27.499 40.829c-36.799-24.576-72.215-36.567-106.552-36.567-33.771 0-67.165 11.598-100.647 35.372l-1.015.724L67.996 74.37C109.883 44.322 153.55 29 198.516 29Z" fill="#3370FF"/><path d="m118.371 247.663 30.252-53.617 9.554-45.45a.756.756 0 0 0-1.278-.686l-17.475 17.741-3.893 16.755-59.974 57.144" stroke="#143C9B" stroke-width=".756"/><path d="M111.461 204.988c-33.874 2.812-46.678 20.016-25.759 34.744.158 0-16.006-12.84 7.05-20.016M287.213 204.988c33.874 2.812 46.678 20.016 25.759 34.744-.158 0 16.005-12.84-7.05-20.016" stroke="#143C9B" stroke-width=".756"/><path fill-rule="evenodd" clip-rule="evenodd" d="M75.178 240.721c0 16.765 54.45 30.356 123.805 30.356 69.354 0 124.514-13.591 124.514-30.356V223.87c-1.59 24.917-98.428 30.707-124.514 30.707-25.692 0-121.686-5.264-123.805-30.707v16.851Z" fill="#04D6BA"/><path fill-rule="evenodd" clip-rule="evenodd" d="m273.038 33.91-21.732 33.422 16.441 2.455-25.323 27.946h14.173l-1.701 6.232-12.472 30.023 25.323-20.96 5.291 1.7 4.536-10.763-19.087-7.742L292.503 64.5l-14.929-2.266 19.843-16.24-24.379-12.084Z" fill="#fff"/><path d="m280.03 245.585-29.238-51.539-9.539-45.449a.756.756 0 0 1 1.278-.685l17.447 17.738 3.886 16.755 52.45 52.039" stroke="#143C9B" stroke-width=".756"/><path d="M198.587 157.372c9.053 0 16.391-7.332 16.391-16.377 0-9.045-7.338-16.377-16.391-16.377-9.053 0-16.392 7.332-16.392 16.377 0 9.045 7.339 16.377 16.392 16.377Z" fill="#fff"/><path d="M198.53 111.295c5.354 0 9.694-4.336 9.694-9.685 0-5.35-4.34-9.686-9.694-9.686-5.354 0-9.694 4.337-9.694 9.686s4.34 9.685 9.694 9.685Z" fill="#FFC500"/><path d="M206.315 114.587c4.651-2.657 7.785-7.661 7.785-13.396 0-8.517-6.91-15.421-15.434-15.421-8.525 0-15.435 6.904-15.435 15.421 0 5.676 3.07 10.636 7.641 13.313" stroke="#04D6BA" stroke-width="1.512" stroke-linejoin="round" stroke-dasharray="3.02 3.02"/><path d="M208.49 118.683c5.973-3.412 9.998-9.839 9.998-17.205 0-10.938-8.874-19.804-19.822-19.804-10.947 0-19.822 8.866-19.822 19.804 0 7.29 3.943 13.66 9.814 17.098" stroke="#04D6BA" stroke-width="1.512" stroke-linejoin="round" stroke-dasharray="3.02 3.02"/><path d="m198.428 111.495.317 13.428" stroke="#fff" stroke-width=".756" stroke-linecap="square"/><path d="M198.96 233.324c28.701 0 51.969-23.089 51.969-51.571 0-28.481-23.268-51.57-51.969-51.57-28.702 0-51.97 23.089-51.97 51.57 0 28.482 23.268 51.571 51.97 51.571Z" fill="#fff" stroke="#143C9B" stroke-width=".756"/><path d="M177.374 196.043c4.58-.079 8.205-5.208 8.096-11.453-.109-6.246-3.911-11.245-8.491-11.165-4.58.08-8.205 5.208-8.096 11.454.109 6.246 3.91 11.244 8.491 11.164ZM200.767 195.641c5.249-.092 9.416-5.23 9.307-11.476-.109-6.245-4.453-11.235-9.701-11.143-5.249.092-9.415 5.229-9.306 11.475.109 6.246 4.452 11.235 9.7 11.144ZM188.074 187.368l-1.675 5.673 3.025-.052M185.441 184.39l5.647-.097M215.434 192.925a7.453 7.453 0 0 0 5.91 2.738 7.456 7.456 0 0 0 7.33-7.584 7.465 7.465 0 0 0-13.43-4.35" stroke="#143C9B" stroke-width=".756"/><path d="M225.094 191.051a4.622 4.622 0 0 0 .504-4.048 4.642 4.642 0 0 0-8.775.005" stroke="#143C9B" stroke-width=".756"/><path d="M221.603 187.868a4.624 4.624 0 0 0-2.218-3.426M189.367 212.542l.662 20.511M218.689 195.467l1.303 33.794M204.093 212.489l-12.989.224c-7.303.121-13.327-5.696-13.461-12.999l-.493-27.879" stroke="#143C9B" stroke-width=".756"/><path fill-rule="evenodd" clip-rule="evenodd" d="M183.979 147.13c4.213-.073 7.979 1.171 10.884 3.236l13.406-.25c10.02-.342 18.42 7.496 18.762 17.507a18.144 18.144 0 0 1-.379 4.355l-2.129 9.515c-2.574-1.03-4.993-.921-7.257.328l-2.158-8.024c-4.01 1.413-7.903 1.817-11.679 1.211-3.776-.606-6.854-2.244-9.233-4.916-2.69 1.714-6.074 2.765-9.766 2.829-8.911.156-16.235-5.491-16.359-12.613-.125-7.122 6.998-13.022 15.908-13.178ZM218.918 195.302l2.83.355-2.659 9.317M204.1 212.892l-14.197 7.098-.532-7.247 14.729.149Z" fill="#143C9B"/><path d="M192.028 204.203c1.021-.741 1.155-2.295.302-3.47-.854-1.175-2.373-1.527-3.393-.785-1.02.741-1.155 2.294-.301 3.469.853 1.175 2.372 1.527 3.392.786Z" stroke="#143C9B" stroke-width=".756"/></svg>