<svg viewBox="0 0 400 300" fill="none" xmlns="http://www.w3.org/2000/svg"><path d="M211.3 86.75c20.56 0 36.836 5.978 48.83 17.936 12.164 11.787 18.246 28.016 18.246 48.686 0 20.158-6.424 35.874-19.274 47.148-12.85 11.275-29.384 16.912-49.601 16.912-19.875 0-35.723-5.723-47.545-17.168-11.65-11.445-17.476-27.503-17.476-48.173 0-20.329 6.168-36.301 18.504-47.917 12.336-11.616 28.441-17.425 48.316-17.425Z" fill="#CCC"/><mask id="a" style="mask-type:alpha" maskUnits="userSpaceOnUse" x="144" y="86" width="135" height="132"><path d="M211.3 86.75c20.56 0 36.836 5.978 48.83 17.936 12.164 11.787 18.246 28.016 18.246 48.686 0 20.157-6.424 35.873-19.274 47.148-12.85 11.275-29.384 16.912-49.601 16.912-19.875 0-35.723-5.723-47.545-17.168-11.65-11.446-17.476-27.503-17.476-48.173 0-20.329 6.168-36.301 18.504-47.917 12.336-11.617 28.441-17.425 48.316-17.425Z" fill="#A8FFFC"/></mask><g mask="url(#a)"><path d="M158.404 111.817H178.26l-1.823 5.68-5.151-.002.01 19.812-.002 1.187h-6.427v-20.997h-5.706l-.753.012-.004-5.692ZM211.322 111.819h20.316l-1.824 5.68-5.61-.002.012 19.81-.002 1.201h-6.429v-21.011h-5.706l-.753.012-.004-5.69ZM179.472 120.887v-.581h6.365l.002.581.01 15.936-.02 1.672h-6.32v-.907l-.037-16.701ZM188.901 113.002v-1.258h6.295v1.092l.005 11.333 6.36-6.185 7.59.002-7.97 7.735 8.927 12.775h-7.005l-5.959-8.859-1.889 1.833.004 7.038-6.334-.012v-.571l-.024-24.923ZM254.227 113.002v-1.258h6.294v1.092l.006 11.333 6.359-6.185 7.59.002-7.97 7.735 8.928 12.775h-7.006l-5.959-8.859-1.887 1.833.002 7.038-6.334-.012v-.571l-.023-24.923ZM250.627 123.316a10.99 10.99 0 0 0-2.325-3.444 10.743 10.743 0 0 0-3.817-2.447l-.135-.05c-.075-.028-.152-.053-.229-.079a4.583 4.583 0 0 0-.177-.058c-.061-.02-.121-.037-.182-.055l-.21-.062a.773.773 0 0 0-.08-.019 10.42 10.42 0 0 0-.931-.203l-.032-.006-.333-.051a11.539 11.539 0 0 0-1.28-.103c-.093-.002-.186-.006-.279-.006a11.1 11.1 0 0 0-.26.004 11.045 11.045 0 0 0-1.847.192l-.206.04c-.061.014-.125.026-.186.039a10.997 10.997 0 0 0-3.038 1.182 10.445 10.445 0 0 0-2.196 1.68 10.768 10.768 0 0 0-1.691 2.186 10.912 10.912 0 0 0-1.482 5.539c0 1.015.131 1.99.392 2.923.26.934.627 1.802 1.096 2.608a10.772 10.772 0 0 0 3.891 3.883 10.81 10.81 0 0 0 3.067 1.195c.052.012.105.021.159.031a8.207 8.207 0 0 0 .489.091c.105.016.21.032.315.046.054.008.107.016.161.022a11.33 11.33 0 0 0 1.143.075c.07.002.137.004.207.004.067 0 .134-.002.202-.004a11.32 11.32 0 0 0 1.24-.089c.127-.016.252-.034.377-.055.069-.012.139-.024.208-.038.089-.016.178-.034.267-.052l.167-.035a10.866 10.866 0 0 0 3.03-1.191 10.727 10.727 0 0 0 3.886-3.883 10.933 10.933 0 0 0 1.483-5.531c-.008-1.534-.294-2.961-.864-4.279Zm-4.931 5.702a5.35 5.35 0 0 1-.531 1.266 5.218 5.218 0 0 1-4.35 2.593l.067.002c-.045.002-.089.004-.134.004l-.074-.002-.061.002a5.643 5.643 0 0 1-1.423-.185 5.25 5.25 0 0 1-2.337-1.347 5.18 5.18 0 0 1-.822-1.067 5.39 5.39 0 0 1-.533-1.266 5.232 5.232 0 0 1-.19-1.419 5.276 5.276 0 0 1 1.539-3.751c.319-.32.676-.591 1.067-.817a5.298 5.298 0 0 1 1.837-.64c.277-.044.561-.067.852-.067l.073.002.062-.002c.051 0 .103.002.154.004l-.055.001a5.237 5.237 0 0 1 3.5 1.519 5.277 5.277 0 0 1 1.127 1.672c.278.64.416 1.334.416 2.079.004.494-.059.965-.184 1.419ZM185.86 115.019a3.2 3.2 0 1 1-6.401 0 3.2 3.2 0 0 1 6.401 0Z" fill="#fff"/><path d="M171.223 220.302a11.552 11.552 0 0 0 15.989-3.517l24.6-38.538c3.429-5.388 1.9-12.572-3.504-16.052a11.552 11.552 0 0 0-15.989 3.517l-24.599 38.539c-3.429 5.388-1.864 12.571 3.503 16.051Z" fill="#A4B1FB"/><path d="M184.864 177.699c-1.685-6.085-9.938 1.607-11.783 4.82-8.391 20.531 11.388 36.343 12.638 36.343 0 0 22.494-28.386 22.494-29.457 0-1.071-21.245-4.106-23.349-11.706Z" fill="#8092F9"/><path d="M178.79 222.06c6.336-.823 10.809-6.66 9.989-13.021l-5.852-45.385c-.82-6.361-6.634-10.851-12.97-10.028-6.336.824-10.809 6.66-9.989 13.021l5.852 45.386c.82 6.36 6.634 10.85 12.97 10.027Z" fill="#FE7893"/><path d="M174.989 161.26c1.751.075 3.242-1.309 3.317-3.068l.559-13.994a3.208 3.208 0 0 0-3.056-3.33c-1.752-.074-3.243 1.31-3.318 3.068l-.559 13.994c-.112 1.759 1.267 3.255 3.057 3.33ZM179.983 170.764a3.224 3.224 0 0 0 3.765-2.544l2.609-13.732c.335-1.759-.82-3.442-2.535-3.779a3.223 3.223 0 0 0-3.764 2.544l-2.609 13.732c-.335 1.758.783 3.442 2.534 3.779Z" fill="#FE7893"/><path d="M169.623 161.709c1.752-.262 2.944-1.909 2.683-3.667l-2.05-13.844a3.204 3.204 0 0 0-3.652-2.694c-1.752.262-2.944 1.908-2.683 3.667l2.049 13.844a3.206 3.206 0 0 0 3.653 2.694ZM163.77 169.828c1.751-.299 2.944-1.946 2.646-3.704l-2.236-13.807c-.298-1.758-1.938-2.956-3.69-2.656-1.752.299-2.945 1.945-2.646 3.704l2.236 13.806c.261 1.721 1.938 2.919 3.69 2.657Z" fill="#FE7893"/><path d="m174.839 163.879.857-.187c-.372-1.684-.186-3.068.559-4.116 1.156-1.646 3.317-1.945 3.355-1.945l-.112-.861c-.112 0-2.572.337-3.951 2.32-.894 1.235-1.118 2.843-.708 4.789ZM164.7 157.628c3.056-4.19 8.908-2.207 8.945-2.207l.298-.823c-.074-.038-6.522-2.208-9.951 2.507l.708.523Z" fill="#000"/><path d="M265.708 224.565c-5.628 3.031-12.635.861-15.654-4.789l-21.431-40.372c-3.019-5.65-.857-12.684 4.771-15.715 5.628-3.03 12.635-.86 15.654 4.79l21.431 40.372c3.019 5.649.894 12.684-4.771 15.714Z" fill="#212BF3"/><path d="M190.644 215.773c12.523 3.928 46.887 5.874 56.913 2.282.41-6.81 1.341-31.205 1.863-45.161.187-5.5-3.988-10.14-9.467-10.477-14.349-.86-37.271-2.432-37.271-2.432-5.404-.224-9.951 4.004-10.175 9.392 0 .037-1.379 34.722-1.863 46.396Z" fill="#A4B1FB"/><path d="M211.248 166.551c-7.953-8.926 16.781-5.534 16.781-5.534l18.567 16.172-.53 1.605c-29.819 2.754-26.866-3.316-34.818-12.243Z" fill="#8092F9"/><path d="M219.076 167.022c2.722.089 5.014-2.063 5.102-4.833l1.243-15.757-9.917-.327-1.243 15.757c-.088 2.807 2.093 5.109 4.815 5.16Z" fill="#FE7893"/><path d="M213.465 157.578c-1.564 3.66-1.665 5.712-.829 7.152 1.46 2.514 3.979 2.974 5.664 3.051 2.204.099 3.245-.772 5.723-3.556.486-.547.995-1.23 1.046-2.022.025-.416-.081-.795-.186-1.158-.502-1.739-.59-4.015-.503-5.743.115-2.299.605-4.327.675-6.375.036-1.083.055-2.19-.2-3.168-.928-3.552-6.999-5.651-9.172-1.606-.402.747-.504 1.653-.595 2.512l-.29 2.777c-.283 2.734.045 6.251-1.333 8.136Z" fill="#FE7893"/><path d="M252.797 139.451c1.502-3.825-.402-8.158-4.253-9.679-3.851-1.52-8.19.349-9.692 4.174-1.502 3.826.402 8.159 4.252 9.679 3.851 1.52 8.191-.348 9.693-4.174Z" fill="#882744"/><path d="M239.386 141.129c1.242-.187 2.002-1.995 1.698-4.038-.304-2.044-1.557-3.549-2.799-3.362-1.241.187-2.001 1.995-1.697 4.039.304 2.043 1.557 3.548 2.798 3.361Z" fill="#F8A82E"/><path d="M215.98 125.851c1.225-3.923-.984-8.108-4.934-9.347-3.95-1.239-8.145.937-9.369 4.86-1.225 3.924.984 8.109 4.934 9.347 3.95 1.239 8.145-.937 9.369-4.86Z" fill="#882744"/><path d="M215.284 130.318c1.515-1.4 2.055-3.286 1.204-4.213-.85-.928-2.768-.545-4.283.855-1.516 1.399-2.055 3.285-1.205 4.213.851.927 2.768.544 4.284-.855Z" fill="#F8A82E"/><path d="M237.297 144.309c2.554-7.334-1.19-15.314-8.363-17.824-7.173-2.511-15.059 1.399-17.613 8.732-2.553 7.334 1.191 15.314 8.364 17.824 7.173 2.511 15.059-1.399 17.612-8.732Z" fill="#FE7893"/><path d="M220.548 151.133c-1.226-.351-2.1-1.055-2.585-2.079-1.129-2.298.109-5.442.172-5.583a.77.77 0 0 1 1.009-.415.77.77 0 0 1 .422 1.007c-.012.042-1.051 2.651-.202 4.324.3.631.848 1.037 1.63 1.261.782.224 1.418.156 1.978-.206 1.22-.832 1.702-3.01 1.785-3.781a.749.749 0 0 1 .831-.671.79.79 0 0 1 .699.836c-.015.132-.38 3.502-2.443 4.887-.978.629-2.07.771-3.296.42Z" fill="#010101"/><path d="M236.809 147.126a3.244 3.244 0 0 0 4.056-2.152 3.253 3.253 0 0 0-2.143-4.067 3.244 3.244 0 0 0-4.056 2.152 3.254 3.254 0 0 0 2.143 4.067ZM209.721 137.317a3.243 3.243 0 0 0 4.055-2.152 3.253 3.253 0 0 0-2.143-4.067 3.243 3.243 0 0 0-4.056 2.152 3.254 3.254 0 0 0 2.144 4.067Z" fill="#FE7893"/><path d="M237.365 142.497c2.228-1.256 2.011-5.894-.484-10.361-2.495-4.466-6.324-7.069-8.552-5.813-2.228 1.256-2.011 5.894.484 10.361 2.495 4.466 6.324 7.068 8.552 5.813Z" fill="#882744"/><path d="M222.339 134.381c4.742-1.909 7.817-5.384 6.87-7.761-.947-2.376-5.559-2.755-10.301-.846-4.741 1.909-7.817 5.384-6.869 7.761.947 2.377 5.559 2.756 10.3.846Z" fill="#882744"/><path d="M219.948 153.836c1.357.414 2.921.609 4.711.514l-.056-.862c-5.614.342-9.12-3.031-9.147-3.076l-.614.618c.127.108 1.957 1.871 5.106 2.806Z" fill="#000"/><path d="m247.955 182.988-.464 26.635.895.015.463-26.634-.894-.016Z" fill="#413C3A"/><path d="m196.112 174.026-5.295 37.375.886.127 5.295-37.376-.886-.126ZM231.946 181.851l1.186 8.393.89-.093-1.186-8.393-.89.093Z" fill="#000"/><path d="M264.041 225.343c-6.06 2.041-12.625-1.227-14.661-7.325l-20.107-53.253s12.442-7.614 18.537-9.64c-1.248 2.678-.569 4.319.534 6.605l22.997 48.963a11.528 11.528 0 0 1-7.3 14.65Z" fill="#FE7893"/><path d="M230.412 166.907c-2.142-3.392-3.749-5.89-3.57-8.569.178-2.679 1.292-4.072 2.499-5 0 0 3.613-1.293.493-3.444-1.308-.902-1.274-3.106-.371-4.414a3.547 3.547 0 0 1 4.931-.907l.301.208c-.659-1.197-.67-2.689.094-3.796a3.547 3.547 0 0 1 4.931-.907 9.214 9.214 0 0 1 1.542 1.348c-.799-1.145-.776-2.029.047-3.222a3.547 3.547 0 0 1 4.931-.907c.704.486 1.201 1.273 1.426 2.023l.101.069s4.039 6.201 1.153 12.972c-2.786 6.84-5.944 12.586-15.83 22.402l-2.678-7.856Z" fill="#FE7893"/><path d="M229.834 149.896c-1.308-.902-1.274-3.105-.371-4.414a3.547 3.547 0 0 1 4.93-.907l.403.278m-.101-.069c-.659-1.197-.67-2.69.094-3.797a3.547 3.547 0 0 1 4.931-.906" stroke="#000" stroke-width=".714"/><path d="M231.893 143.888c.069-.101.139-.202.239-.132.101.069 2.405.171 4.24 2.03 1.331 1.513 1.976 3.591 1.863 6.336-.373 4.2-1.661 6.284-1.661 6.284-.07.1-.309.232-.41.163-.101-.069-.232-.309-.163-.409 0 0 1.188-2.153 1.523-6.082.143-2.576-.47-4.484-1.701-5.927-1.633-1.72-3.767-1.854-3.767-1.854-.17.031-.302-.208-.333-.378.201.139.1.069.17-.031ZM239.587 139.838c.07-.101.24-.132.41-.163 0 0 4.974 2.685 3.87 10.096-.842 5.956-1.568 6.793-1.807 6.925-.17.031-.34.062-.371-.108-.032-.17-.063-.34.107-.371 0 0 .656-.736 1.461-6.421 1.096-6.97-3.306-9.41-3.576-9.448-.201-.139-.232-.309-.094-.51-.069.101 0 0 0 0Z" fill="#000"/></g><path fill-rule="evenodd" clip-rule="evenodd" d="M116.092 89.606H65.033c1.904 13.152-4.963 43.739-47.667 60.878v43.739h58.022v21.245h67.483v-21.245h13.747v-46.417H143.05v-39.812h-18.19c-1.477 6.617-4.343 13.601-9.222 19.95-5.419 7.052-13.16 13.116-23.826 17.037v5.079H62.177v-8.927c25.073 0 39.053-8.503 46.666-18.41 3.633-4.728 5.928-9.92 7.249-14.934V89.606Z" fill="#E5E5E5"/><mask id="b" style="mask-type:alpha" maskUnits="userSpaceOnUse" x="17" y="89" width="140" height="127"><path fill-rule="evenodd" clip-rule="evenodd" d="M116.092 89.606H65.033c1.904 13.151-4.963 43.739-47.667 60.878v43.739h58.022v21.245h67.483v-21.245h13.747v-46.417H143.05v-39.812h-18.19c-1.477 6.617-4.343 13.6-9.222 19.95-5.419 7.052-13.16 13.116-23.826 17.037v5.079H62.177v-8.927c25.073 0 39.053-8.503 46.666-18.41 3.633-4.729 5.928-9.921 7.249-14.934V89.606Z" fill="#FEF0D5"/></mask><g mask="url(#b)"><path opacity=".8" d="M15.73 216.458c-5.117-18.855 7.07-61.01 14.265-64.748 28.27-13.782 37.585 26.304 40.326 43.467 2.741 17.162-18.159 36.041-24.555 47.483-6.395 11.442-23.64-2.632-30.037-26.202Z" fill="#CCC"/><path d="M16.607 180.455c7.853 10.8 13.631 15.153 21.796 25.731 2.227 2.885-.786-2.115-1.054-2.576-2.9-5.003-5.861-9.673-8.868-14.609-3.02-4.958-5.667-6.902-8.5-13.138-1.16-2.551-3.44-6.351-4.378-8.676-.166-.411.7.557 1.004.881 3.745 3.974 6.64 8.64 9.73 13.108 3.63 5.252 11.465 12.698 15.667 17.519" stroke="#fff" stroke-width=".357" stroke-linecap="round" stroke-linejoin="round"/><path opacity=".4" d="m30.179 171.761 1.06-.218 26.82-5.528-.918 8.516-7.233 1.488 5.738 27.863.34 1.67-9.025 1.86-.118-.574-5.948-28.958-8.012 1.651-1.054.235-1.65-8.005Z" fill="#fff"/><path opacity=".7" d="M62.357 109.957c0-1.183.96-2.142 2.143-2.142h89.978c1.183 0 2.142.959 2.142 2.142v83.551c0 .395-.32.714-.714.714H63.071a.714.714 0 0 1-.714-.714v-83.551Z" fill="#B2B2B2"/><path d="M62.357 109.957c0-1.183.96-2.142 2.143-2.142h82.48c1.183 0 2.142.959 2.142 2.142v7.498H62.357v-7.498Z" fill="#fff" fill-opacity=".5"/><path d="M66.998 124.954c0-.591.48-1.071 1.071-1.071h68.912a1.071 1.071 0 1 1 0 2.143H68.069c-.591 0-1.071-.48-1.071-1.072ZM66.998 131.74c0-.592.48-1.072 1.071-1.072h48.917a1.072 1.072 0 0 1 0 2.143H68.069c-.591 0-1.071-.48-1.071-1.071Z" fill="#CCC"/><path d="m67.496 111.2 2.845 2.845M70.344 111.199l-2.845 2.846" stroke="#000" stroke-width=".986" stroke-linecap="round"/><rect x="73.565" y="111.275" width="2.712" height="2.712" rx=".247" stroke="#000" stroke-width=".986" stroke-linecap="round"/><path d="M79.513 112.465h2.845" stroke="#000" stroke-width=".986" stroke-linecap="round"/><path d="M165.113 112.772c.186-2.347.015-4.593-2.321-5.915-2.544-1.44-5.696-.601-8.225.434-5.911 2.419-4.621 11.767-6.214 16.924-1.446 4.682-3.347 9.605-5.301 14.152-4.445 10.33-10.909 19.678-17.712 28.571-4.66 6.095-25.475 25.654-12.863 32.709 3.345 1.871 7.723 1.869 11.062-.007 2.421-1.36 4.207-3.544 5.931-5.676 8.263-10.213 18.502-18.931 24.448-30.847 7.383-14.805 9.858-30.862 10.896-47.238.064-1.01.218-2.069.299-3.107Z" fill="#7DB5FF"/><path d="M120.485 141.279c-2.451-5.919-10.312-8.569-16.233-7.718-6.711.965-11.498 5.298-16.11 9.909-3.974 3.973-9.571 9.097-15.448 9.372.174-.007 2.693 5.849 3.181 6.658 1.085 1.804 1.175 1.707 3.26.98 1.69-.59 3.288-1.417 4.983-2-1.378 2.008-2.755 4.013-4.13 6.02-.087.127-.176.258-.19.412-.023.234.135.439.287.616 3.104 3.603 7.442 6.345 12.323 6.159 1.56-.06 3.104-.353 4.665-.397 2.755-.077 5.18.714 7.628 1.893 2.487 1.199 4.313 1.333 7.174.955 8.714-1.144 4.566-8.414 7.965-14.856 1.291-2.447 1.44-7.316 1.668-10.095.205-2.556-.005-5.444-1.023-7.908Z" fill="#010101"/><path d="M125.565 199.935c.149 3.572 0 5.714 0 9.82 0 2.142-.637 6.669-.798 8.391-.295 3.109-3.052 2.445-3.359 5.549l-.02.169c-.126.898-.58 1.506-1.202 1.94-.976.685-2.361.943-3.55 1.246a39.68 39.68 0 0 1-.837.201c-11.052 2.581-22.704.841-33.892-1.261-2.985-.563-7.678-1.307-8.872-4.543-.513-1.375-.428-2.894-.322-4.355.132-1.767.627-3.368 1.108-4.973.495-1.643.978-3.293 1.04-5.132.139-4.02.28-8.065 1.147-12.008.094-.424.226-.841.412-1.243.478-1.032 1.285-1.879 2.05-2.747.11-.122.224-.251.33-.377 1.44-1.69 2.466-2.962 3.424-4.953.714-1.489 1.425-3.658 2.047-5.184.27-3.563-.264-6.42-.62-8.027 4.455-1.071 11.56-2.026 15.395-1.979 4.046.05 8.111.527 12.033 1.549 2.812.732 7.328.43 9.823 0-.713 4.894 1.009 11.119 1.806 14.383.55 2.25 1.328 4.073 2.059 6.64.591 2.075.863 3.646.947 4.931 0 0-.013 1.067-.149 1.963Z" fill="#5D74F8"/><path d="M78.05 209.308a3.645 3.645 0 0 0-.816-.088 4.292 4.292 0 0 0-4.285 4.285 4.294 4.294 0 0 0 3.06 4.11c.38.116.788.175 1.225.175a4.292 4.292 0 0 0 4.285-4.285 4.282 4.282 0 0 0-3.469-4.197Zm-.758 7.607h-.058a3.415 3.415 0 0 1-3.41-3.41 3.396 3.396 0 0 1 3.41-3.41c.583 0 1.137.145 1.603.408 1.078.583 1.807 1.69 1.807 3.002a3.422 3.422 0 0 1-3.352 3.41ZM88.181 195.044a4.128 4.128 0 0 0-.952-.106c-2.754 0-4.998 2.324-4.998 5.177 0 2.325 1.496 4.332 3.57 4.966.442.141.918.212 1.428.212 2.755 0 4.999-2.325 4.999-5.178 0-2.5-1.734-4.613-4.047-5.071Zm-.884 9.192h-.068c-2.176 0-3.978-1.831-3.978-4.121 0-2.289 1.768-4.12 3.978-4.12.68 0 1.326.176 1.87.493a4.119 4.119 0 0 1 2.109 3.627c0 2.254-1.768 4.086-3.91 4.121ZM110.676 202.898a4.198 4.198 0 0 0-.953-.106c-2.754 0-4.998 2.325-4.998 5.178 0 2.324 1.496 4.332 3.57 4.966.442.141.918.211 1.428.211 2.755 0 4.999-2.324 4.999-5.177 0-2.501-1.734-4.614-4.046-5.072Zm-.885 9.193h-.068c-2.176 0-3.978-1.832-3.978-4.121 0-2.289 1.768-4.121 3.978-4.121.681 0 1.327.176 1.871.493a4.121 4.121 0 0 1 2.108 3.628c0 2.254-1.768 4.085-3.911 4.121Z" fill="#fff" fill-opacity=".1"/><path d="M88.063 171.549c-18.389 1.25-25.232 15.651-28.208 23.565 8.213.357 25.673-.25 29.815-5.534 5.177-6.606-1.607-17.495-1.607-18.031Z" fill="#5D74F8"/><path d="m75.199 198.883.926-5.19" stroke="#000" stroke-width=".714" stroke-linecap="round"/><path d="M85.026 183.843c-3.856-5.855-14.223-2.797-18.746-.357 2.738-3.63 9.078-10.806 20.352-12.318 17.318-2.323 27.137-.788 34.635.105 1.25 6.784-9.391 15.773-14.818 17.773-6.784 2.499-16.603 2.117-21.423-5.203Z" fill="#3955F6" style="mix-blend-mode:darken"/><path d="M77.403 179.321a4.004 4.004 0 0 0-.884-.094 4.649 4.649 0 0 0-4.642 4.641 4.653 4.653 0 0 0 3.316 4.453c.41.126.852.189 1.326.189a4.65 4.65 0 0 0 4.641-4.642 4.64 4.64 0 0 0-3.757-4.547Zm-.821 8.242h-.063a3.7 3.7 0 0 1-3.695-3.695 3.679 3.679 0 0 1 3.695-3.694 3.55 3.55 0 0 1 1.736.442c1.169.631 1.958 1.831 1.958 3.252a3.708 3.708 0 0 1-3.631 3.695ZM104.963 186.826a4.301 4.301 0 0 0-.952-.102c-2.755 0-5 2.244-5 4.999a5.009 5.009 0 0 0 3.571 4.794c.442.136.918.204 1.429.204a5.006 5.006 0 0 0 4.998-4.998 4.996 4.996 0 0 0-4.046-4.897Zm-.884 8.875h-.068a3.983 3.983 0 0 1-3.979-3.978 3.962 3.962 0 0 1 3.979-3.979c.68 0 1.326.17 1.87.476 1.258.68 2.108 1.972 2.108 3.503a3.992 3.992 0 0 1-3.91 3.978Z" fill="#fff" fill-opacity=".1"/><path d="M111.99 174.227c.905 3.928.357 5.943-1.261 7.142-2.824 2.091-6.403 1.935-8.72 1.606-3.03-.43-4.155-1.525-6.595-4.82-.478-.648-.942-1.432-.746-2.213.104-.41.374-.752.64-1.08 1.263-1.568 2.142-3.756 2.601-5.455.61-2.259.621-4.345 1.211-6.35.312-1.059.656-2.139 1.33-3.027 2.448-3.226 11.404-3.812 13.007.635.297.822.134 1.725-.03 2.581l-.532 2.764c-.528 2.722-2.149 6.059-.905 8.217ZM116.588 154.274c-.114 1.682 1.204 3.139 2.946 3.251 1.739.111 3.243-1.164 3.354-2.847.114-1.682-1.204-3.139-2.946-3.25-1.739-.112-3.24 1.164-3.354 2.846ZM90.503 152.309c-.114 1.682 1.204 3.139 2.946 3.251 1.739.111 3.243-1.162 3.354-2.847.114-1.682-1.204-3.139-2.946-3.25-1.736-.112-3.24 1.163-3.354 2.846Z" fill="#7DB5FF"/><path d="M98.878 163.516a7.422 7.422 0 0 0 2.574 1.435c3.424 1.099 5.711.561 8.879-1.072-2.366.275-4.799.285-7.053-.516a18.292 18.292 0 0 1-4.053-2.013 80.1 80.1 0 0 1-.347 2.166Z" fill="#1C1C1C"/><path d="M97.128 159.576c-1.019-1.69-1.702-3.623-2.114-5.583-1.201-5.663 1.142-10.42 6.846-13.497 1.387-.75 2.844-1.432 4.417-1.792 5.775-1.315 10.527 1.913 12.164 6.549.895 2.526.815 4.98.238 7.397-.01 1.735-.666 4.152-1.402 5.767-1.66 3.658-5.23 6.412-9.813 6.611-5.062.221-8.342-2.144-10.336-5.452Z" fill="#7DB5FF"/><path d="M106.637 161.455c-1.273-.056-2.285-.539-2.994-1.423-1.628-1.975-1.149-5.321-1.12-5.473a.77.77 0 0 1 .886-.638.768.768 0 0 1 .643.881c-.002.044-.412 2.824.8 4.256.438.544 1.064.813 1.876.849.812.036 1.416-.177 1.877-.66.994-1.093.961-3.324.864-4.094a.748.748 0 0 1 .653-.845.788.788 0 0 1 .873.651c.016.132.438 3.496-1.248 5.323-.808.839-1.837 1.23-3.11 1.173Z" fill="#010101"/><path d="M120.354 150.642c-.079.735-.495 1.499-.946 2.241-.349.578-.723 1.139-.974 1.665-.146.308-.369.648-.738.685-.463.045-.77-.412-.879-.814-.513-1.903.235-3.968.173-5.918-.035-1.067-.285-2.194-1.06-2.956-.801-.787-2.786-1.096-3.762-1.666-2.661-1.556-1.782-5.713-4.1-3.928-1.283.615-2.138 2.678-3.743 3.749-1.425.893-3.349.954-4.757 1.207-.671.119-1.38.08-2.016.318-1.19.442-1.804 1.712-2.099 2.913-.19.767.4 6.36-.456 6.482-.116.015-.23-.04-.329-.097a4.99 4.99 0 0 1-.404-.253c-2.113-1.447-1.905-3.551-1.717-5.789.199-2.34.196-4.596 1.175-6.829.782-1.79 2.222-3.256 4.003-4.388 3.109-1.977 7.259-2.933 10.757-2.799 1.299.05 2.634.653 3.89 1.199.411.178.815.352 1.204.499 2.837 1.062 5.678 4.362 6.28 7.064.147.651.181 1.318.216 1.981.089 1.754.471 3.695.282 5.434Z" fill="#010101"/><path d="M109.748 138.949a.306.306 0 0 1-.154-.33 5.166 5.166 0 0 0-.545-3.59.288.288 0 0 1 .117-.4.306.306 0 0 1 .409.127 5.77 5.77 0 0 1 .607 4.01.294.294 0 0 1-.36.216c-.024-.01-.052-.02-.074-.033Z" fill="#231F20"/><path d="M150.224 94.01c.382-2.85.949-5.779 2.584-8.143.293-.422.706-.866 1.219-.817.743.07.974 1.03 1.006 1.775a98.491 98.491 0 0 1-.082 9.975 22.807 22.807 0 0 1 3.367-10.524c.364-.588.783-1.181 1.4-1.491.617-.31 1.484-.229 1.856.355.24.374.225.853.2 1.297-.2 3.378-.669 6.74-1.395 10.043a49.614 49.614 0 0 1 3.858-8.861c.555-.995 1.781-2.097 2.628-1.34.228.203.347.503.432.796 1.028 3.573-1.888 7.087-2.099 10.8a16.18 16.18 0 0 1 4.229-6.365c.342-.316.726-.63 1.187-.698.85-.124 1.605.68 1.756 1.526.151.847-.136 1.703-.416 2.512-1.647 4.74-3.297 9.479-4.945 14.216-.889 2.556-1.826 5.194-3.684 7.159-2.975 3.152-11.317 4.809-13.244-.263-1.048-2.757-.446-7.017-.481-9.918-.045-4.018.092-8.045.624-12.033Z" fill="#7DB5FF"/><path d="M150.154 102.805c1.015-1.379 4.789-7.824 6.84-7.268 2.571.697-.808 6.077-1.4 7.249-1.149 2.273-1.1 12.705-4.769 12.372-4.999-.454-2.2-10.276-.671-12.353Z" fill="#7DB5FF"/><path d="M150.291 114.967a3.56 3.56 0 0 1-.459-.03.337.337 0 0 1 .089-.67c1.752.231 3.3-1.211 3.999-2.65.6-1.233.832-2.645 1.058-4.01.069-.422.141-.856.223-1.283a24.44 24.44 0 0 1 2.443-6.911l.104-.194c.314-.583.609-1.134.696-1.734.082-.556-.079-1.288-.619-1.578-.868-.47-1.95.466-2.518 1.067a41.45 41.45 0 0 0-5.393 7.099.337.337 0 1 1-.577-.35 42.224 42.224 0 0 1 5.482-7.213c1.209-1.278 2.391-1.703 3.325-1.199.83.45 1.083 1.464.966 2.27-.104.72-.443 1.35-.77 1.959l-.104.19a23.83 23.83 0 0 0-2.374 6.723c-.079.417-.151.849-.22 1.266-.233 1.411-.476 2.873-1.117 4.196-.741 1.523-2.349 3.052-4.234 3.052ZM158.029 117.049h-4.719a.337.337 0 0 1 0-.674h4.719a.337.337 0 0 1 0 .674Z" fill="#231F20"/></g><path d="M163.636 105.427c2.336 1.323 4.453 4.431 4.267 6.778-.082 1.037-.235 2.097-.3 3.107-1.038 16.375-5.459 31.571-12.841 46.376l-28.51 4.326c6.803-8.894 13.199-18.746 17.643-29.077 1.955-4.546 3.855-9.469 5.302-14.152 1.593-5.156.302-14.504 6.214-16.924 2.529-1.034 5.68-1.873 8.225-.434Z" fill="#7DB5FF"/><path d="M156.629 110.099c-1.281.058-2.372-1.018-2.426-2.385l-.409-10.877c-.055-1.367.954-2.53 2.235-2.589 1.282-.058 2.372 1.018 2.427 2.385l.408 10.878c.082 1.367-.926 2.53-2.235 2.588ZM152.712 117.236c-1.333.26-2.61-.635-2.865-1.962l-1.986-10.59c-.255-1.356.624-2.654 1.929-2.914 1.334-.26 2.61.635 2.866 1.962l1.985 10.59c.256 1.356-.595 2.655-1.929 2.914Z" fill="#7DB5FF"/><path d="M160.684 110.372a2.47 2.47 0 0 1-2.085-2.813l1.592-10.62c.203-1.35 1.477-2.268 2.838-2.067a2.47 2.47 0 0 1 2.085 2.813l-1.593 10.621c-.202 1.349-1.477 2.267-2.837 2.066ZM164.811 116.539a2.469 2.469 0 0 1-1.787-2.989l2.491-10.448c.328-1.33 1.637-2.153 2.945-1.824a2.47 2.47 0 0 1 1.786 2.99l-2.491 10.448c-.297 1.303-1.635 2.124-2.944 1.823Z" fill="#7DB5FF"/><path d="m156.637 112.195-.619-.15c.269-1.346.135-2.453-.403-3.291-.833-1.316-2.393-1.555-2.42-1.555l.081-.688c.081 0 1.855.269 2.85 1.855.645.987.806 2.273.511 3.829ZM164.589 107.11c-2.385-3.168-6.951-1.669-6.98-1.669l-.233-.622c.058-.028 5.09-1.669 7.766 1.895l-.553.396Z" fill="#000"/><path d="M120.555 171.55c1.41-.423 9.614-10.461 16.353-20.858a.357.357 0 0 1 .563-.048l14.687 15.897a.348.348 0 0 1 .051.41c-.823 1.466-5.68 9.916-12.016 16.739-6.963 7.498-14.282 14.104-14.282 14.104l-4.999-13.033-.357-13.211Z" fill="#5D74F8"/><path d="M132.814 169.692a4.183 4.183 0 0 0-.952-.106c-2.754 0-4.999 2.325-4.999 5.178 0 2.324 1.497 4.332 3.571 4.966.442.141.918.211 1.428.211 2.755 0 4.999-2.324 4.999-5.177 0-2.501-1.734-4.614-4.047-5.072Zm-.884 9.192h-.068c-2.176 0-3.979-1.831-3.979-4.12 0-2.29 1.769-4.121 3.979-4.121.68 0 1.326.176 1.87.493a4.119 4.119 0 0 1 2.109 3.628c0 2.254-1.769 4.085-3.911 4.12Z" fill="#fff" fill-opacity=".1"/><path fill-rule="evenodd" clip-rule="evenodd" d="M342.11 89.606h-51.059c1.904 13.152-4.963 43.739-47.667 60.878v43.739h58.021v21.245h67.484v-21.245h13.747v-46.417h-13.568v-39.812h-18.19c-1.477 6.617-4.343 13.601-9.222 19.95-5.419 7.052-13.16 13.116-23.826 17.037v5.079h-29.636v-8.927c25.074 0 39.054-8.503 46.667-18.41 3.633-4.728 5.927-9.92 7.249-14.934V89.606Z" fill="#E5E5E5"/><mask id="c" style="mask-type:alpha" maskUnits="userSpaceOnUse" x="243" y="89" width="140" height="127"><path fill-rule="evenodd" clip-rule="evenodd" d="M342.109 89.606H291.05c1.904 13.151-4.963 43.739-47.667 60.878v43.739h58.021v21.245h67.484v-21.245h13.747v-46.417h-13.568v-39.812h-18.19c-1.477 6.617-4.343 13.6-9.222 19.95-5.419 7.052-13.16 13.116-23.826 17.037v5.079h-29.636v-8.927c25.074 0 39.054-8.503 46.667-18.41 3.633-4.729 5.927-9.921 7.249-14.934V89.606Z" fill="#C4C4C4"/></mask><g mask="url(#c)"><path opacity=".8" d="M319.035 168.293c13.465-1.318 36.808 18.372 37.127 25.977.682 29.707-27.497 31.013-39.204 30.377-11.708-.635-17.743-24.25-23.194-32.553-5.452-8.303 8.44-22.153 25.271-23.801Z" fill="#CCC"/><path d="M314.339 155.43c-.124-.298-1.691-4.019-2.459-5.842M292.694 141.637c.02-.323.244-4.354.354-6.329" stroke="#F8A82E" stroke-width="2.856" stroke-linecap="round"/><path d="M268.736 94.605c25.686 1.733 51.45 3.236 77.01 6.431 1.813.227.221 1.349-.346 2.466-2.223 4.377-3.967 8.857-5.717 13.438-.601 1.576-1.708 6.171-3.319 6.708" stroke="#fff" stroke-width=".357" stroke-linecap="round" stroke-linejoin="round"/><path d="M281.946 104.136c36.643-1.051 73.299-.415 109.948-.415" stroke="#fff" stroke-width=".357" stroke-linecap="round" stroke-linejoin="round"/><path d="M305.045 107.122H309.842l-.441 1.372-1.244-.001.002 4.787v.286h-1.553v-5.072h-1.378l-.182.003-.001-1.375ZM317.828 107.122H322.736l-.44 1.372-1.356-.001.003 4.786v.29h-1.554V108.493h-1.378l-.182.003-.001-1.374ZM310.135 109.312v-.14h1.538v.14l.002 3.85-.004.404h-1.527v-.219l-.009-4.035ZM312.412 107.407v-.304h1.521v.263l.001 2.738 1.536-1.494 1.834.001-1.925 1.868 2.156 3.086h-1.692l-1.44-2.14-.456.443.001 1.7-1.53-.003v-.137l-.006-6.021ZM328.193 107.407v-.304h1.521v.263l.001 2.738 1.537-1.494 1.833.001-1.925 1.868 2.157 3.086h-1.693l-1.439-2.14-.456.443v1.7l-1.53-.003v-.137l-.006-6.021ZM327.326 109.899a2.664 2.664 0 0 0-.561-.832 2.61 2.61 0 0 0-.922-.591l-.033-.012-.055-.019a.717.717 0 0 0-.087-.027l-.051-.015a2.434 2.434 0 0 0-.244-.054l-.008-.001-.08-.013a2.892 2.892 0 0 0-.309-.025l-.068-.001-.063.001a2.965 2.965 0 0 0-.446.046l-.05.01-.045.009c-.034.008-.069.016-.103.026a2.66 2.66 0 0 0-.631.26 2.552 2.552 0 0 0-.938.934 2.67 2.67 0 0 0 .41 3.204 2.57 2.57 0 0 0 1.384.719l.045.008.076.011.038.005a2.511 2.511 0 0 0 .277.018l.049.001.049-.001a2.638 2.638 0 0 0 .391-.035l.05-.009a1.494 1.494 0 0 0 .105-.021l.105-.026a2.573 2.573 0 0 0 1.158-.67 2.629 2.629 0 0 0 .766-1.866 2.61 2.61 0 0 0-.209-1.034Zm-1.191 1.378a1.294 1.294 0 0 1-.326.563 1.273 1.273 0 0 1-.853.369h.016l-.032.001h-.033a1.44 1.44 0 0 1-.344-.044 1.253 1.253 0 0 1-.564-.326 1.272 1.272 0 0 1-.374-.906 1.264 1.264 0 0 1 .174-.65 1.261 1.261 0 0 1 1.106-.625l.017.001.015-.001.038.001-.014.001c.155.006.302.038.441.097a1.25 1.25 0 0 1 .677.674c.067.154.101.322.101.502.001.119-.015.233-.045.343ZM311.678 107.895a.773.773 0 1 1-1.546 0 .773.773 0 0 1 1.546 0ZM336.272 109.588a.977.977 0 1 1-1.954-.002.977.977 0 0 1 1.954.002ZM336.27 112.584a.977.977 0 1 1-1.954-.002.977.977 0 0 1 1.954.002Z" fill="#fff"/><path d="M403.083 202.071c2.537 2.438 5.232 4.787 8.406 6.302 3.173 1.514 6.91 2.122 10.235.979 2.081-.716 3.997-2.2 4.75-4.271 1.137-3.125-.576-6.513-2.347-9.327a121.582 121.582 0 0 0-22.514-26.433c-2.683-2.361-5.679-4.695-9.225-5.122h-.002c-6.444-.774-12.939 6.61-12.418 12.952.88 10.672 16.252 18.325 23.115 24.92Z" fill="#FE7893"/><path d="M366.775 138.033c.101.276.09.564-.01.818a1.147 1.147 0 0 1 .537.615 1.146 1.146 0 0 1-.679 1.471l-.44.162a2.507 2.507 0 0 1-1.614 1.989l-.683.252a.764.764 0 0 1-.495.648l-.307.113a.76.76 0 0 1-.796-.171l-.99.365a2.504 2.504 0 0 1-2.517-.468l-.337.124a1.136 1.136 0 0 1-.875-.036 1.137 1.137 0 0 1-.593-.645 1.138 1.138 0 0 1 .01-.817 1.147 1.147 0 0 1-.536-.616 1.147 1.147 0 0 1 .04-.887 1.137 1.137 0 0 1-.605-.65 1.147 1.147 0 0 1 .679-1.471l8.18-3.014a1.144 1.144 0 0 1 1.428 1.567 1.149 1.149 0 0 1 .603.651Z" fill="#87F99F"/><path d="M345.028 138.27c.384 1.661 1.35 3.273 2.881 4.018.547-.329.738-1.02.845-1.65.276-1.63.301-3.303.071-4.94-.148-1.066-.445-2.187-1.247-2.903-3.425-3.05-2.889 4.013-2.55 5.475Z" fill="#231F20"/><path d="M351.263 146.616a3.974 3.974 0 0 0 1.249-5.472 3.96 3.96 0 0 0-5.463-1.251 3.974 3.974 0 0 0-1.249 5.472 3.96 3.96 0 0 0 5.463 1.251ZM378.109 168.808c-2.152 1.535-4.92 2.083-7.599 2.069-3.627-.021-6.979-.048-10.274-1.787-1.572-.83-3.144-1.79-4.178-3.239-1.035-1.448-1.41-3.499-.482-5.017.56-.914 4.173-1.72 4.66-2.675 1.264-2.475-3.339-6.73-4.06-9.161l-.103-.356c-.751-2.634 1.361-5.041 3.158-7.156 1.797-2.114 4.446-3.639 7.28-3.774.913-.043 1.859.063 2.661.488 1.684.893 2.216 3.218 2.968 4.784 1.653 3.456 3.193 6.961 4.721 10.47 1.288 2.954 2.549 5.879 3.712 8.875.993 2.551-.165 4.839-2.464 6.479Z" fill="#FE7893"/><path d="M372.771 138.308a14.946 14.946 0 0 1-1.623 5.449c-2.529 4.812-7.567 7.808-13.023 7.183-7.305-.838-12.594-7.851-11.81-15.666a15.331 15.331 0 0 1 .256-1.64 14.705 14.705 0 0 1 1.766-4.515c2.189-.456 4.333-1.113 6.446-1.869a84.248 84.248 0 0 0 1.522-.563 150.36 150.36 0 0 0 3.706-1.476c1.48-.607 3.043-1.069 4.584-1.586 4.657 2.04 7.901 6.788 8.226 12.241.047.801.033 1.616-.05 2.442Z" fill="#FE7893"/><path d="M360.542 147.162c-1.146.558-2.265.618-3.309.179-2.371-.957-3.544-4.127-3.591-4.274a.77.77 0 0 1 .474-.984.766.766 0 0 1 .985.467c.019.039.984 2.679 2.731 3.358.644.269 1.322.206 2.053-.15.731-.357 1.159-.833 1.335-1.477.353-1.436-.739-3.381-1.191-4.011a.75.75 0 0 1 .171-1.055.787.787 0 0 1 1.078.155c.077.108 2.05 2.863 1.438 5.275-.31 1.122-1.028 1.958-2.174 2.517Z" fill="#300315"/><path d="M374.561 123.654c-.316 1.176-1.224 1.501-1.774 2.403-.511.838-.043 1.404.2 2.401.57 2.339.365 4.76.504 7.142l.017.362c.088 2.186-.198 4.139-1.086 6.229-.268.635-.662 1.315-1.274 1.566a1.276 1.276 0 0 1-.28.081c-.704.121-1.392-.376-1.749-.995-.358-.62-.468-1.345-.63-2.042a13.364 13.364 0 0 0-1.594-3.927c-.227-.374-.596-.788-1.016-.668-.3.086-.457.407-.683.623-.539.515-1.469.367-2.035-.12-.565-.486-.856-1.212-1.126-1.908l-1.473-3.793c-.123-.317-.256-.647-.519-.861-1.465-1.191-3.503 2.007-4.481 2.678-.184.126-.383.247-.605.263-.406.029-.763-.316-.889-.703-.127-.388-.077-.808-.025-1.211a22.12 22.12 0 0 1-5.575 3.602c-.547.246-1.173.471-1.731.249a.872.872 0 0 1-.36-.28c-.278-.359-.321-.912.066-1.136l-2.363-.127c-.376-.021-.839-.104-.951-.464-.129-.42.339-.764.737-.949 1.053-.488 2.059-.726 2.783-1.581.321-.379.602-.792.881-1.209.269-.05.538-.103.806-.158 2.189-.456 4.333-1.113 6.446-1.87.508-.182 1.017-.37 1.522-.562 1.243-.473 2.478-.972 3.706-1.477 1.48-.607 3.043-1.068 4.584-1.585l.307-.104a3.268 3.268 0 0 1 2.592.228c.423.226.851.397 1.274.387.001-1.002.629-1.881 1.23-2.682.292-.389.713-.826 1.179-.688.541.158.585.898.519 1.458l-.319 2.707c.127-1.087 1.74-1.665 2.508-1.975a.569.569 0 0 1 .534.048c.241.162.203.422.143.648Z" fill="#231F20"/><path d="M344.136 125.513c-1.145 2.291-2.29 4.582-.572 7.445l10.309-2.29 16.61-5.728s.573-1.718-3.436-4.582-10.883-2.291-13.174-1.718c-2.291.573-8.591 4.582-9.736 6.873h-.001Z" fill="#231F20"/><path d="M372.987 137.312a3.992 3.992 0 0 0-1.59-5.413 3.98 3.98 0 0 0-5.404 1.592 3.994 3.994 0 0 0 1.59 5.413 3.98 3.98 0 0 0 5.404-1.592ZM358.946 178.325c-1.741 4.318-5.035 7.793-8.329 11.082a313.912 313.912 0 0 1-24.496 22.02c-1.756 1.418-3.547 2.866-5.439 4.1-3.3 2.157-6.898 3.666-11.117 3.246-2.655-.267-5.272-1.464-6.945-3.548-.956-1.191-1.566-2.626-1.84-4.131a10.644 10.644 0 0 1-.078-3.335c.688-5.243 4.692-7.644 8.298-11.039 4.11-3.866 8.265-7.682 12.515-11.393.082-.074.166-.145.249-.22a261.014 261.014 0 0 1 15.587-12.687c4.349-3.266 12.467-12.033 18.565-8.696 4.77 2.611 4.817 10.173 3.03 14.601Z" fill="#FE7893"/><path d="M320.868 206.759c1.448-1.582 2.546-3.448 3.558-5.34 1.548-2.89 2.949-6.268 1.861-9.362-1.487-4.223-4.476-1.38-4.658 1.575-.269 4.368-.48 8.754-.761 13.127Z" fill="#231F20"/><path d="M356.548 173.926a88.257 88.257 0 0 1-8.051 23.566c-.942 1.851-2.612 5.317-4.386 6.394-2.036 1.235-3.822 2.873-5.771 4.234-1.149.804-2.357 1.512-3.705 1.984a140.556 140.556 0 0 1-17.135-24.94c.019.036 1.457-1.126 3.297-2.635 3.076-2.526 7.273-6.025 7.837-6.528 3.606-3.216 6.363-7.258 10.221-10.278 3.61-2.825 7.924-4.939 12.498-5.185 6.608-.356 6.042 8.927 5.195 13.388Z" fill="#FAB933"/><path d="M395.832 185.059a641.936 641.936 0 0 1 1.389 38.203c.001.361-.004.749-.215 1.04-.315.437-.942.407-1.476.477-16.861 2.211-34.114 2.66-52.072-.04-.692-.104-1.464-.024-1.997-.478-.663-.567-.703-1.562-.688-2.434.298-17.668.569-35.352 1.574-53.03.082-1.453.177-2.95.82-4.256.976-1.983 12.482-6.016 12.769-4.588.167.833.214 1.763.745 2.425 3.265 4.065 8.305 5.748 13.68 4.233 3.936-1.108 7.283-5.694 8.333-9.524.171-.625 7.252-.245 7.948-.171 2.075.222 6.445.693 7.64 2.726 4.123 7.014 1.055 17.938 1.55 25.417Z" fill="#FAB933"/><path d="M361.031 151.252a.337.337 0 0 1-.329-.267.337.337 0 0 1 .26-.398 14.194 14.194 0 0 0 8.853-6.005.336.336 0 1 1 .559.373 14.87 14.87 0 0 1-9.273 6.291.423.423 0 0 1-.07.006ZM341.192 204.636a.335.335 0 0 1-.335-.327 157.9 157.9 0 0 1 .688-19.5.336.336 0 1 1 .669.066 156.918 156.918 0 0 0-.685 19.415.338.338 0 0 1-.327.346h-.01Z" fill="#231F20"/><path d="M341.823 185.421a.337.337 0 0 1-.294-.173l-1.613-2.92a.336.336 0 1 1 .588-.325l1.613 2.92a.337.337 0 0 1-.294.498ZM366.914 171.288c-1.452 0-2.902-.216-4.283-.656-3.809-1.212-7.066-4.113-8.711-7.761-.488-1.083-.715-2.02-.694-2.866a.336.336 0 1 1 .672.016c-.019.743.188 1.584.634 2.572 1.568 3.477 4.671 6.242 8.302 7.397 3.631 1.156 7.759.691 11.043-1.243 3.981-2.345 6.737-6.809 7.373-11.942a.337.337 0 0 1 .375-.293.338.338 0 0 1 .292.376c-.661 5.34-3.54 9.99-7.699 12.439-2.196 1.294-4.753 1.961-7.304 1.961Z" fill="#231F20"/><path d="M338.5 208.232c-1.149.804-2.356 1.512-3.705 1.984a140.609 140.609 0 0 1-17.135-24.94c.019.036 1.457-1.126 3.297-2.635a477.96 477.96 0 0 0 17.543 25.591Z" fill="#0FD9D0"/><path d="M321.47 201.924c.054 4.606.109 9.086-.787 13.603-3.3 2.157-6.899 3.666-11.117 3.246-2.656-.267-5.273-1.464-6.945-3.548-.956-1.191-1.566-2.626-1.841-4.131a6.53 6.53 0 0 1-.031-.482c-.024-.952-.04-1.903-.047-2.854-.15-16.628 1.967-33.213 2.278-49.9.103-5.499 3.859-7.051 8.914-7.297 1.208-.059 2.451-.015 3.572.438 3.148 1.27 4.617 5.571 4.642 8.73.068 8.552.987 17.061 1.407 25.596.051 1.04.094 2.081.127 3.122.145 4.509-.221 9.004-.172 13.477Z" fill="#FE7893"/><path d="M320.435 151.556c-.202 2.644-.883 5.305-3.184 6.689-3.552 2.134-8.56 1.694-11.987-.441-1.273-.792-2.419-1.854-3.08-3.201-.497-1.013-.7-2.141-.897-3.251-.489-2.744-.709-5.534-1.273-8.237-.76-3.642-.442-4.977 3.069-5.448 1.485-.199 1.605-2.975 3.103-2.945.538.011.986.43 1.516.525 1.204.217 1.987-1.174 2.953-1.926 1.696-1.32 4.696 1.152 4.575-1.389l-.29-6.094c-.062-1.318-.113-2.699.459-3.888.917-1.909 2.922-2.197 3.75-.298.833 1.909.825 3.981.92 6.02.318 6.769.478 13.398.455 20.187-.006 1.13.009 2.411-.089 3.697Z" fill="#FE7893"/><path d="M313.612 151.623c1.752-.262 2.944-1.908 2.684-3.666l-2.05-13.844a3.205 3.205 0 0 0-3.653-2.694c-1.751.262-2.944 1.908-2.683 3.667l2.05 13.843a3.204 3.204 0 0 0 3.652 2.694Z" fill="#FE7893"/><path d="M317.822 140.501c1.771.024 3.212-1.409 3.237-3.187l.197-13.994a3.207 3.207 0 0 0-3.173-3.247c-1.771-.023-3.212 1.41-3.236 3.187l-.198 13.994a3.207 3.207 0 0 0 3.173 3.247ZM308.978 154.48c1.752-.262 2.945-1.908 2.684-3.667l-2.05-13.844a3.206 3.206 0 0 0-3.652-2.694c-1.752.262-2.945 1.908-2.684 3.667l2.05 13.844a3.206 3.206 0 0 0 3.652 2.694Z" fill="#FE7893"/><path d="M304.072 146.997c-.371 0-.763-.146-1.191-.443-1.824-1.264-2.612-3.594-3.187-5.296a.337.337 0 1 1 .637-.216c.706 2.09 1.415 3.906 2.932 4.958.364.251.665.355.919.315.639-.099.876-1.037.961-1.586.266-1.735.319-3.501.156-5.249a.336.336 0 0 1 .666-.082 9.441 9.441 0 0 0 1.314 3.535c.438.701 1.377 1.603 2.168 1.214.404-.199.665-.681.82-1.518.249-1.331.285-2.687.108-4.03a.337.337 0 0 1 .664-.103l.372 2.122c.117.668.25 1.426.634 2.005.325.49.962.906 1.551.754.691-.179 1.098-.98 1.242-2.448l.44-4.493a.337.337 0 1 1 .669.066l-.44 4.493c-.065.656-.261 2.649-1.742 3.034-.934.242-1.836-.366-2.279-1.034a3.785 3.785 0 0 1-.444-.956c-.031.238-.07.476-.113.713-.125.669-.383 1.605-1.185 1.999-1.115.548-2.354-.373-3.034-1.46a9.953 9.953 0 0 1-.654-1.234 22.246 22.246 0 0 1-.249 2.775c-.195 1.264-.735 2.026-1.522 2.149a1.389 1.389 0 0 1-.213.016Z" fill="#231F20"/><path d="M323.699 147.27c.243-1.524.211-2.946-.167-3.976-.137-.374-.372-.704-.605-1.028-.914-1.278-4.011-7.247-5.856-6.419-2.032.911.221 6.428.312 8.022.095 1.663-.959 3.14-1.885 4.523-1.022 1.526-1.872 3.249-1.152 5.075.569 1.441 1.935 3.003 3.602 2.61 2.882-.681 5.151-5.055 5.751-8.807Z" fill="#FE7893"/><path d="m310.694 154.887-.052-.001c-.658-.028-.955-.399-1.088-.705-.406-.935.165-2.589.694-3.659a4.563 4.563 0 0 0-.668-.46c-1.64-.92-4.802-1.655-6.715-1.239a.335.335 0 0 1-.399-.258.335.335 0 0 1 .257-.4c2.091-.454 5.404.311 7.186 1.309.23.129.453.28.666.449.087-.143.164-.254.226-.327.759-.892 1.718-1.575 2.644-2.234.578-.412 1.175-.838 1.704-1.303l1.924-1.693c-.11-.189-.249-.498-.44-1.03a34.926 34.926 0 0 1-.727-2.34c-.152-.555-.91-3.356-.776-4.059.2-1.043.876-1.89 1.722-2.155a.336.336 0 0 1 .2.642c-.614.193-1.109.836-1.262 1.639-.139.721 1.341 6.192 1.871 6.983a.337.337 0 0 1 .136.578l-2.206 1.94c-.554.488-1.165.924-1.758 1.345-.893.636-1.816 1.293-2.522 2.122a2.649 2.649 0 0 0-.235.346c.919.949 1.458 2.251.98 3.482-.235.614-.79 1.028-1.362 1.028Zm.058-3.876c-.439.95-.856 2.272-.582 2.901.058.134.167.289.501.303.342.016.641-.288.76-.596.347-.895-.017-1.854-.679-2.608Zm6.955-6.903h.001-.001Z" fill="#231F20"/></g><path d="M366.73 138.031c.102.276.09.564-.01.818a1.147 1.147 0 0 1 .537.616 1.145 1.145 0 0 1-.679 1.47l-.439.162a2.51 2.51 0 0 1-1.615 1.989l-.683.252a.764.764 0 0 1-.495.648l-.306.113a.761.761 0 0 1-.797-.171l-.99.365a2.504 2.504 0 0 1-2.517-.468l-.337.124c-.297.11-.609.088-.875-.036a1.138 1.138 0 0 1-.593-.644 1.14 1.14 0 0 1 .01-.818 1.147 1.147 0 0 1-.536-.616 1.147 1.147 0 0 1 .04-.887 1.137 1.137 0 0 1-.605-.65 1.147 1.147 0 0 1 .679-1.471l8.18-3.013a1.144 1.144 0 0 1 1.428 1.566 1.149 1.149 0 0 1 .603.651Z" fill="#87F99F"/><path d="M344.983 138.269c.384 1.661 1.35 3.273 2.881 4.019.547-.33.738-1.021.845-1.651.276-1.63.301-3.303.072-4.94-.149-1.066-.446-2.187-1.248-2.902-3.425-3.051-2.889 4.012-2.55 5.474Z" fill="#000"/><path d="M351.221 146.616a3.974 3.974 0 0 0 1.249-5.472 3.959 3.959 0 0 0-5.463-1.251 3.973 3.973 0 0 0-1.249 5.471 3.96 3.96 0 0 0 5.463 1.252ZM360.192 158.159c-.487.955 5.609.895 13.808 0 3.209-1.247 4.105-1.751 2.817-4.705-1.529-3.509-3.068-7.014-4.721-10.47-.752-1.566-1.284-3.891-2.969-4.784-.801-.425-1.747-.531-2.661-.488-2.833.135-5.482 1.66-7.279 3.774-1.797 2.115-3.909 4.522-3.158 7.156.035.118.068.238.102.356.721 2.431 5.324 6.686 4.061 9.161Z" fill="#FE7893"/><path d="M372.728 138.306a14.952 14.952 0 0 1-1.623 5.449c-2.529 4.812-7.567 7.808-13.023 7.183-7.305-.838-12.594-7.851-11.809-15.666a14.77 14.77 0 0 1 .255-1.64 14.685 14.685 0 0 1 1.766-4.515c2.189-.456 4.333-1.113 6.446-1.87.508-.182 1.017-.37 1.522-.562 1.243-.473 2.478-.972 3.706-1.477 1.48-.607 3.043-1.068 4.584-1.585 4.657 2.04 7.901 6.787 8.226 12.241.047.801.033 1.616-.05 2.442Z" fill="#FE7893"/><path d="M360.497 147.16c-1.145.558-2.265.618-3.309.179-2.371-.958-3.544-4.127-3.591-4.274a.772.772 0 0 1 .474-.985.768.768 0 0 1 .985.468c.019.039.984 2.679 2.731 3.358.644.269 1.322.206 2.053-.151.731-.356 1.159-.832 1.335-1.476.353-1.436-.739-3.382-1.191-4.011a.752.752 0 0 1 .171-1.056.787.787 0 0 1 1.078.156c.077.108 2.05 2.863 1.438 5.275-.31 1.122-1.028 1.958-2.174 2.517Z" fill="#300315"/><path d="M374.514 123.65c-.315 1.176-1.224 1.501-1.774 2.403-.511.838-.043 1.404.2 2.401.57 2.339.365 4.76.504 7.142l.017.362c.088 2.186-.198 4.139-1.085 6.23-.269.634-.663 1.314-1.274 1.565a1.3 1.3 0 0 1-.281.081c-.703.121-1.392-.376-1.749-.995-.358-.62-.468-1.345-.63-2.042a13.364 13.364 0 0 0-1.594-3.927c-.227-.374-.596-.788-1.016-.668-.3.086-.457.407-.683.623-.539.515-1.469.367-2.035-.12-.565-.486-.856-1.211-1.126-1.908l-1.473-3.793c-.122-.317-.256-.647-.519-.861-1.465-1.19-3.503 2.007-4.481 2.678-.184.126-.383.247-.605.263-.406.029-.763-.316-.889-.703-.127-.387-.077-.808-.024-1.211a22.143 22.143 0 0 1-5.576 3.602c-.547.246-1.173.471-1.731.249a.872.872 0 0 1-.36-.28c-.278-.359-.321-.912.066-1.136l-2.363-.127c-.376-.021-.839-.104-.95-.464-.13-.42.338-.764.736-.949 1.053-.488 2.059-.726 2.783-1.581.321-.379.602-.792.882-1.209.268-.049.537-.103.805-.158 2.189-.456 4.333-1.113 6.446-1.869a84.248 84.248 0 0 0 1.522-.563 150.36 150.36 0 0 0 3.706-1.476c1.48-.607 3.043-1.069 4.584-1.586l.307-.104a3.268 3.268 0 0 1 2.592.228c.423.226.851.398 1.274.387.001-1.002.629-1.881 1.23-2.682.292-.389.713-.826 1.18-.688.54.158.584.898.518 1.458l-.319 2.707c.127-1.087 1.741-1.665 2.508-1.975a.569.569 0 0 1 .534.048c.241.162.204.422.143.648Z" fill="#000"/><path d="M344.094 125.512c-1.145 2.29-2.29 4.581-.572 7.445l10.309-2.291 16.611-5.728s.572-1.718-3.437-4.582c-4.009-2.864-10.883-2.291-13.174-1.718-2.291.573-8.591 4.582-9.736 6.873l-.001.001Z" fill="#000"/><path d="M372.944 137.311a3.992 3.992 0 0 0-1.59-5.413 3.98 3.98 0 0 0-5.404 1.592 3.994 3.994 0 0 0 1.59 5.413 3.98 3.98 0 0 0 5.404-1.592Z" fill="#FE7893"/><path d="M360.985 151.25a.336.336 0 0 1-.068-.665 14.195 14.195 0 0 0 8.852-6.005.336.336 0 1 1 .559.373 14.87 14.87 0 0 1-9.273 6.291.414.414 0 0 1-.07.006Z" fill="#231F20"/><path fill-rule="evenodd" clip-rule="evenodd" d="M243.069 164.209a4.264 4.264 0 0 1 4.259-4.265h27.059a4.258 4.258 0 0 1 4.254 4.265l-.066 25.722a4.264 4.264 0 0 1-4.259 4.264h-20.597l-7.304 7.315a2.002 2.002 0 0 1-3.418-1.419l.072-35.882Z" fill="#333"/><path fill-rule="evenodd" clip-rule="evenodd" d="M261.216 171.675c-1.059-.101-2.112.448-2.932 1.784-.273.444-.822.666-1.299.455l-2.88-1.275c-.477-.211-.696-.772-.447-1.23 1.441-2.655 4.128-5.123 8.033-4.751a7.6 7.6 0 0 1 6.842 8.281c-.23 2.433-1.903 4.3-3.558 5.426-1.433.975-3.255 1.68-5.074 1.742-.521.018-.903-.448-.854-.968l.297-3.136c.049-.519.517-.906 1.026-1.021a5.305 5.305 0 0 0 1.77-.784c.997-.679 1.344-1.38 1.378-1.737a2.556 2.556 0 0 0-2.302-2.786Z" fill="#F8A82E"/><path d="M257.733 185.549c.144-1.513 1.469-2.458 2.916-2.32 1.48.14 2.632 1.323 2.488 2.835-.144 1.511-1.502 2.488-2.982 2.347-1.447-.138-2.566-1.35-2.422-2.862Z" fill="#F8A82E"/><path d="m285.634 108.055 3.88-4.167 4.588 22.689-2.063 3.61a.437.437 0 0 1-.764-.009l-5.706-10.555a.445.445 0 0 1-.052-.208v-11.062c0-.111.041-.217.117-.298Z" fill="#B2B2B2"/><path d="m300.579 126.726 2.175-4.351-8.346 2.976-3.034 4.431c-.245.359.127.817.528.651l8.453-3.498a.435.435 0 0 0 .224-.209Z" fill="#CCC"/><path fill-rule="evenodd" clip-rule="evenodd" d="M299.007 104.325a.437.437 0 0 0-.438-.437h-8.937a.437.437 0 0 0-.437.437v11.827l-.001.001 4.663 9.994c.102.217.36.312.578.213l8.131-3.718c.22-.1.317-.36.216-.579l-3.736-8.172a.437.437 0 0 1-.039-.181v-9.385Z" fill="#fff"/><path d="M289.419 116.633a.437.437 0 0 1 .291-.609l8.943-2.236a.438.438 0 0 1 .504.244l3.45 7.635a.876.876 0 0 1-.434 1.156l-7.342 3.356a.874.874 0 0 1-1.156-.425l-4.256-9.121Z" fill="#F1F1F1"/><path d="m299.505 120.227-.934.346.48 1.295-1.503.556-.479-1.295-3.005 1.114-.449-1.212 1.85-5.412 1.117-.414 1.528 4.125 1.046-.387.349 1.284Zm-4.227.152 1.33-.492-.638-1.723-.692 2.215Z" fill="#C4C4C4"/><path d="M276.233 128.28c.323-.022 4.349-.317 6.322-.462M281.645 138.057c.244-.211 3.28-2.873 4.767-4.177" stroke="#F8A82E" stroke-width="2.856" stroke-linecap="round"/><path d="m125.912 197.616-.357-6.962" stroke="#000" stroke-width=".714" stroke-linecap="round"/><rect x="205.535" y="141.379" width="7.141" height="22.852" rx=".357" fill="#fff" stroke="#D1D7DD" stroke-width=".714"/><path d="M212.101 101.639a7.808 7.808 0 0 1-10.817-2.274c-2.361-3.62-1.342-8.472 2.27-10.834a7.808 7.808 0 0 1 10.817 2.273c2.359 3.618 1.345 8.47-2.27 10.835Z" fill="#FE2C55"/><path d="M169.679 116.636a7.809 7.809 0 0 1-10.817-2.273 7.835 7.835 0 0 1 2.27-10.835 7.808 7.808 0 0 1 10.817 2.274c2.359 3.617 1.345 8.47-2.27 10.834Z" fill="#25F4EE"/><path d="M73.78 96.055h5.421l-.498 1.55h-1.406l.002 5.409v.324h-1.755v-5.732h-1.557l-.206.003v-1.554ZM88.225 96.053h5.546l-.498 1.551H91.74l.003 5.407v.328h-1.755v-5.735H88.43l-.205.003-.001-1.553ZM79.531 98.53v-.159h1.738v.159l.003 4.35-.005.456h-1.725v-.247l-.01-4.56ZM82.106 96.377v-.344h1.718v.299l.001 3.094 1.736-1.689h2.072l-2.175 2.112 2.437 3.488h-1.913l-1.626-2.419-.516.501.001 1.921-1.729-.003v-.156l-.006-6.804ZM99.938 96.377v-.344h1.718v.299l.001 3.094 1.736-1.689h2.073l-2.176 2.112 2.437 3.488h-1.913l-1.626-2.419-.515.501v1.921l-1.729-.003v-.156l-.007-6.804ZM98.954 99.193a2.931 2.931 0 0 0-1.577-1.568l-.1-.04-.036-.014-.063-.021a1.176 1.176 0 0 0-.098-.031l-.058-.017-.021-.005a2.869 2.869 0 0 0-.553-.092c-.05-.004-.1-.006-.15-.007l-.077-.002a2.758 2.758 0 0 0-.233.009c-.117.008-.23.023-.342.045l-.056.01-.05.011a3.005 3.005 0 0 0-.83.322 2.94 2.94 0 0 0-1.466 2.567 3.003 3.003 0 0 0 .406 1.51 2.941 2.941 0 0 0 1.9 1.387c.014.004.029.006.043.009l.084.016.05.009.086.012.044.006a2.538 2.538 0 0 0 .312.021l.056.001.055-.001a2.54 2.54 0 0 0 .339-.025 1.73 1.73 0 0 0 .16-.025l.073-.014.045-.01.119-.029a2.953 2.953 0 0 0 1.308-.757 2.985 2.985 0 0 0 .866-2.109 2.945 2.945 0 0 0-.236-1.168Zm-1.346 1.557a1.446 1.446 0 0 1-.66.86 1.389 1.389 0 0 1-.673.193l.019.001-.037.001-.02-.001-.017.001a1.546 1.546 0 0 1-.388-.051 1.38 1.38 0 0 1-.346-.144 1.39 1.39 0 0 1-.516-.515 1.465 1.465 0 0 1-.147-1.121 1.448 1.448 0 0 1 .37-.636 1.405 1.405 0 0 1 .792-.397c.076-.012.153-.019.233-.019H96.254a.99.99 0 0 1 .042.001h-.015a1.432 1.432 0 0 1 1.377 1.438c.001.136-.016.265-.05.389ZM81.277 96.927a.874.874 0 1 1-1.748 0 .874.874 0 0 1 1.748 0ZM109.063 98.84a1.104 1.104 0 1 1-2.208 0 1.104 1.104 0 0 1 2.208 0ZM109.063 102.226a1.104 1.104 0 1 1-2.209 0 1.104 1.104 0 0 1 2.209 0ZM42.819 163.693l.987-.683.948 1.369 1.589-1.1-.948-1.369 3.177-2.2-.887-1.281-6.628-1.913-1.18.817 3.02 4.362-1.106.766 1.028 1.232Zm3.072-4.071-1.406.974-1.261-1.823 2.667.849Z" fill="#fff"/><path d="M175.248 104.152c3.456-1.645 6.756-3.051 11.132-3.157 1.684-.041 1.979.74 1.813 1.309-.218.958-1.958 2.101-3.746 2.609-1.056.301-.875-.614-.862-1.051.347-1.526 4.222-6.921 18.365-7.438" stroke="#FE2C55" stroke-width=".714" stroke-linecap="round" stroke-linejoin="round"/><path d="M218.933 183.155c1.563 0 2.874.504 3.934 1.513 1.06.995 1.59 2.428 1.59 4.299 0 1.844-.543 3.304-1.63 4.379-1.074 1.061-2.379 1.592-3.914 1.592-1.509 0-2.806-.517-3.894-1.552-1.087-1.035-1.63-2.495-1.63-4.379 0-1.831.536-3.264 1.61-4.299 1.074-1.035 2.385-1.553 3.934-1.553Zm0 9.335c.707 0 1.325-.299 1.855-.896.544-.61.816-1.459.816-2.547 0-1.115-.265-1.964-.795-2.548-.53-.597-1.162-.896-1.896-.896-.693 0-1.305.292-1.835.876-.53.571-.795 1.393-.795 2.468 0 1.141.258 2.017.775 2.627.516.611 1.141.916 1.875.916Z" fill="#fff"/></svg>