<svg viewBox="0 0 400 300" fill="none" xmlns="http://www.w3.org/2000/svg"><path d="M238.955 233.213a2.046 2.046 0 0 1-2.046-2.046V206.48c0-1.13-.917-2.046-2.047-2.046H165.09c-1.13 0-2.046.916-2.046 2.046v24.687c0 1.13-.916 2.046-2.046 2.046H148.45c-1.13 0-2.046.916-2.046 2.046v1.808c0 1.13.916 2.046 2.046 2.046h103.052c1.13 0 2.046-.916 2.046-2.046v-1.808c0-1.13-.916-2.046-2.046-2.046h-12.547Z" fill="#D6D6D6"/><path d="M300.088 61.212H99.87a6.25 6.25 0 0 0-6.268 6.26v141.284a6.251 6.251 0 0 0 6.268 6.261h200.263a6.252 6.252 0 0 0 6.269-6.261V67.472c-.046-3.468-2.841-6.26-6.314-6.26Z" fill="#E5E5E5"/><path d="M203.856 199.569c2.705 3.873-1.534 8.152-5.412 5.404-.135-.09-.225-.225-.315-.315-2.706-3.873 1.533-8.152 5.411-5.404.135.045.225.18.316.315Z" fill="#E5E5E5"/><path d="M294.329 185.806h-188.67a1.816 1.816 0 0 1-1.834-1.825V74.071c0-1.02.811-1.826 1.834-1.826h188.67c1.024 0 1.835.806 1.835 1.825v109.911c0 1.019-.853 1.825-1.835 1.825Z" fill="#fff"/><path d="M137.892 82.784c0 1.948-1.572 3.506-3.536 3.506-1.965 0-3.537-1.558-3.537-3.506 0-1.948 1.572-3.506 3.537-3.506 1.964 0 3.536 1.558 3.536 3.506ZM116.972 82.785c0 1.948-1.572 3.506-3.536 3.506-1.965 0-3.537-1.558-3.537-3.506 0-1.948 1.572-3.507 3.537-3.507 1.964 0 3.536 1.559 3.536 3.507ZM127.484 82.784c0 1.948-1.572 3.506-3.537 3.506-1.964 0-3.536-1.558-3.536-3.506 0-1.948 1.572-3.506 3.536-3.506 1.867 0 3.537 1.558 3.537 3.506Z" fill="#D6D6D6"/><rect x="186.661" y="44.068" width="90.085" height="158.803" rx="9.384" transform="rotate(14.757 186.661 44.068)" fill="#1E4BFF"/><rect x="190.396" y="52.492" width="78.571" height="128.867" rx="5.865" transform="rotate(14.757 190.396 52.492)" fill="#fff"/><circle cx="192.812" cy="197.54" r="6.559" transform="rotate(14.757 192.812 197.54)" fill="#fff"/><path fill-rule="evenodd" clip-rule="evenodd" d="M193.816 163.95c8.558 6.527 20.788 4.881 27.315-3.677 6.528-8.558 4.882-20.787-3.676-27.315-8.558-6.527-20.788-4.881-27.315 3.677-6.528 8.558-4.882 20.787 3.676 27.315Zm-5.138 6.737c12.279 9.366 29.825 7.004 39.19-5.275 9.366-12.279 7.004-29.825-5.275-39.191-12.279-9.366-29.825-7.004-39.191 5.275-9.365 12.279-7.003 29.825 5.276 39.191Z" fill="#C4C4C4" stroke="#FDD73D" stroke-width="8.296"/><path fill-rule="evenodd" clip-rule="evenodd" d="M280.034 61.943c.729.556.869 1.597.313 2.326l-4.903 6.428-6.681 8.759.001.002-5.909 7.747h-.002l-34.965 45.841a1.658 1.658 0 0 1-2.325.313l-5.109-3.897a1.66 1.66 0 0 1-.314-2.326l33.959-44.522a1.659 1.659 0 0 0-.313-2.326l-12.519-9.548a1.659 1.659 0 0 1-.313-2.326l3.897-5.11a1.66 1.66 0 0 1 2.326-.312l12.519 9.549c.728.555 1.77.415 2.325-.313l4.669-6.12a1.66 1.66 0 0 0-.313-2.327l-12.521-9.549a1.66 1.66 0 0 1-.313-2.325l3.897-5.11a1.66 1.66 0 0 1 2.326-.313l20.268 15.46Z" fill="#FDD73D" stroke="#FDD73D" stroke-width="3.319"/><path d="m168.138 113.897 7.45-28.44c-3.967-4.191-9.923-8.442-14.347-11.778-13.966-10.533-24.191 2.647-14.644 15.435l21.541 24.783ZM135.379 158.362l-.165.344a10.658 10.658 0 0 0 5 14.246l10.31 4.954a10.66 10.66 0 0 0 14.247-5l.165-.344a10.658 10.658 0 0 0-5-14.246l-10.31-4.954a10.66 10.66 0 0 0-14.247 5Z" fill="#FE5274"/><path d="m144.787 138.772-.165.344a10.66 10.66 0 0 0 5 14.247l10.31 4.953a10.658 10.658 0 0 0 14.247-4.999l.165-.344a10.658 10.658 0 0 0-5-14.247l-10.31-4.953a10.659 10.659 0 0 0-14.247 4.999Z" fill="#FE5274"/><path d="m154.197 119.182-.166.344a10.658 10.658 0 0 0 5 14.246l10.311 4.954a10.657 10.657 0 0 0 14.246-5l.165-.343a10.659 10.659 0 0 0-4.999-14.247l-10.311-4.954a10.658 10.658 0 0 0-14.246 5Z" fill="#FE5274"/><path d="M146.92 151.96a1.911 1.911 0 0 0 .892 2.544l11.301 5.535c.945.454 2.09.052 2.544-.893a1.912 1.912 0 0 0-.893-2.544l-11.3-5.535a1.912 1.912 0 0 0-2.544.893ZM156.329 132.366a1.911 1.911 0 0 0 .893 2.544l11.3 5.535c.945.454 2.09.052 2.544-.893a1.912 1.912 0 0 0-.893-2.544l-11.3-5.535a1.912 1.912 0 0 0-2.544.893Z" fill="#000"/><path fill-rule="evenodd" clip-rule="evenodd" d="M220.708 255.597c25.507-1.261 48.645-14.54 62.782-35.036-12.265-27.984-21.855-58.383-24.624-73.549-4.485-24.561-10.681-27.594-19.3-24.957-12.867 3.936-8.803 50.254-5.821 60.274 0 0-2.622 6.138-4.669 18.926-2.047 12.789.383 18.096.383 18.096l-45.178-11.507c15.477 17.598 27.298 33.664 36.427 47.753Z" fill="#FE5274"/><path d="M255.689 144.307c-4.817-3.237-12.836-11.471-6.375-18.508" stroke="#000" stroke-width="2.346" stroke-linecap="round"/><path d="m136.36 127.802-7.212.701c-.253.051-.471-.078-.661-.272l-4.624-5.58c-.459-.576-1.392-.187-1.307.544l.702 7.212c.05.253-.078.471-.273.662l-5.58 4.623c-.576.459-.187 1.392.545 1.307l7.212-.702c.253-.05.47.078.661.273l4.623 5.58c.459.576 1.393.187 1.307-.544l-.701-7.213c-.051-.252.078-.47.272-.661l5.58-4.623c.576-.459.187-1.393-.544-1.307Z" fill="#386CF4"/></svg>