<svg viewBox="0 0 400 300" fill="none" xmlns="http://www.w3.org/2000/svg"><path d="m267.509 100.073-3.034-31.023c4.855-3.723 11.802-7.175 16.993-9.926 16.386-8.687 24.882 6.825 12.744 18.613l-26.703 22.336Z" fill="#FE5274"/><circle cx="189.254" cy="165.107" r="95.357" fill="#E5E5E5"/><path d="M172.02 195.757 156.543 58.303a6.865 6.865 0 0 1 6.092-7.595l93.258-9.974a6.865 6.865 0 0 1 7.561 6.133l14.054 138.46a6.866 6.866 0 0 1-6.163 7.527l-91.836 8.968a6.865 6.865 0 0 1-7.489-6.065Z" fill="#25F4EE"/><path d="M191.932 200.765 175.139 48.581l20.51-1.716 16.02 154.473-19.737-.573ZM248.344 182.529l-1.928-17.451a2.288 2.288 0 0 1 2.015-2.525l13.727-1.572a2.288 2.288 0 0 1 2.537 2.04l1.83 17.869a2.289 2.289 0 0 1-2.083 2.514l-13.63 1.154a2.288 2.288 0 0 1-2.468-2.029Z" fill="#B2F9F4"/><path d="m294.355 152.112.115.388a11.3 11.3 0 0 1-7.621 14.077l-11.624 3.458a11.3 11.3 0 0 1-14.077-7.621l-.115-.388a11.3 11.3 0 0 1 7.621-14.077l11.624-3.458a11.3 11.3 0 0 1 14.077 7.621Z" fill="#FE5274"/><path d="m287.786 130.026.115.388a11.3 11.3 0 0 1-7.621 14.076l-11.624 3.459a11.3 11.3 0 0 1-14.077-7.621l-.115-.388a11.3 11.3 0 0 1 7.621-14.077l11.624-3.458a11.3 11.3 0 0 1 14.077 7.621Z" fill="#FE5274"/><path d="m281.214 107.944.116.388a11.3 11.3 0 0 1-7.622 14.076l-11.624 3.459a11.301 11.301 0 0 1-14.077-7.621l-.115-.388a11.3 11.3 0 0 1 7.621-14.077l11.624-3.458a11.3 11.3 0 0 1 14.077 7.621Z" fill="#FE5274"/><path d="M283.347 143.48a2.028 2.028 0 0 1-1.361 2.514l-12.758 3.901a2.027 2.027 0 0 1-2.513-1.361 2.027 2.027 0 0 1 1.361-2.514l12.757-3.901a2.027 2.027 0 0 1 2.514 1.361ZM276.777 121.388a2.028 2.028 0 0 1-1.361 2.514l-12.758 3.901a2.027 2.027 0 0 1-2.514-1.361 2.028 2.028 0 0 1 1.361-2.514l12.758-3.901a2.028 2.028 0 0 1 2.514 1.361Z" fill="#000"/><path fill-rule="evenodd" clip-rule="evenodd" d="M167.204 258.28c-25.115-6.34-46.265-22.645-58.999-44.463 23.021-30.855 45.243-73.741 52.093-93.15 8.81-24.962 15.804-27.098 24.386-22.894 12.811 6.277.796 54.086-4.005 64.076 0 0 1.717 6.866 1.717 20.596 0 13.731-3.433 18.88-3.433 18.88l49.225-4.476c-28.177 23.289-47.514 44.434-60.984 61.431Z" fill="#FE5274"/><path d="M265.466 236.735c17.234-18.489 23.607-36.698 24.414-48.115.057-.815 2.265-1.329 2.548-.563 5.769 15.606 7.212 35.623-25.466 50.814-1.324.615-2.491-1.069-1.496-2.136ZM145.013 71.931c-23.715 8.742-37.609 22.127-43.473 31.956-.419.702-2.621.166-2.529-.646 1.881-16.531 9.611-35.051 45.629-33.89 1.459.046 1.742 2.075.373 2.58ZM307.67 208.76c-3.387-15.488-10.081-25.919-15.904-31.528-.588-.567.444-2.819 1.221-2.564 10.675 3.5 21.074 11.391 17.277 34.125-.24 1.44-2.282 1.393-2.594-.033Z" fill="#E5E5E5"/><path d="M163.782 117.236c5.586-2.582 15.36-9.858 9.775-18.308" stroke="#000" stroke-width="2.288" stroke-linecap="round"/></svg>