<svg viewBox="0 0 400 300" fill="none" xmlns="http://www.w3.org/2000/svg"><path d="m173.64 159.45 11.51-41.83a22.288 22.288 0 0 1 21.49-16.37h50.09c13.33 18.85 1.2 40.64 1.2 40.64l-35.46.53-3.6 17h-45.23" fill="#0C296E"/><path d="M219.54 192.58h21.94a22.791 22.791 0 0 0 22.21-17.67l7.28-33h34s12.14-21.79-1.2-40.64H250a22.284 22.284 0 0 0-21.49 16.37l-11.79 41.86 2.82 33.08Z" fill="#0C296E"/><path d="M250 101.25a22.288 22.288 0 0 0-21.49 16.37l-11.79 41.88M296.56 141.89c9.42-17.35 3.22-34.44-2-40.64" stroke="#fff" stroke-width=".8" stroke-linecap="round" stroke-linejoin="round"/><path d="M349.52 101.71A358.977 358.977 0 0 1 333.85 140c-2.52 5-5.66 7.51-11.6 7-3.41-.28-7.34-1.88-11.71-5.14 11.11 6.05 15.57 1.74 17.7-2.64 4.74-9.75 13.15-29.76 16.83-40 4.34-12.05-6.7-17-10.52-18.26 1.11.16 2.28.37 3.51.65a17.609 17.609 0 0 1 8.57 4.94c3 3.18 5.58 7.1 2.89 15.16Z" fill="#0C296E" stroke="#0C296E" stroke-width=".8" stroke-linecap="round" stroke-linejoin="round"/><path d="m298.85 101.43 9.68.07a65.688 65.688 0 0 1 8.13-14.5c3.12-4.05 8.34-7.32 17.88-6" stroke="#0C296E" stroke-width=".8" stroke-linecap="round" stroke-linejoin="round"/><path d="M311.51 95.08s.11 3.62 5 7.8c5.46 4.69 15.4 8.25 24.2 7.75" fill="#fff"/><path d="M311.51 95.08s.11 3.62 5 7.8c5.46 4.69 15.4 8.25 24.2 7.75M316.14 141.89h-14.83M325.4 81.3s-11.53-6.77-21.95 0-12.57 19.94-12.57 19.94" stroke="#0C296E" stroke-width=".8" stroke-linecap="round" stroke-linejoin="round"/><path d="M292.73 95.08a17.09 17.09 0 0 0 10.88 6.35l-10.88-6.35Z" fill="#fff"/><path d="M292.73 95.08a17.09 17.09 0 0 0 10.88 6.35" stroke="#0C296E" stroke-width=".8" stroke-linecap="round" stroke-linejoin="round"/><path d="M235.41 176s4.82.86 7.89-10.79c3.07-11.65 3.8-14.12 3.8-14.12l8.35-4 4.13-19.9a9.938 9.938 0 0 1 9.74-7.92h32.13M270.97 141.89l2.07-8.69" stroke="#fff" stroke-width=".8" stroke-linecap="round" stroke-linejoin="round"/><path d="M130 193.67c-52.27-2.94-71.87-14.79-66.95-28.8.63-3.61.92-4.28 3.69-2.2 28.17 21.16 67.38 14.91 103.58 16.86L130 193.67Z" fill="#3370FF"/><path d="M74.53 140.33a57.17 57.17 0 0 1 20.69-3.4s.22 7.24.31 13.72c-25.94 1.69-33 11.24-32.93 19.62l-.13-17.14c.1-4.84 4.85-10.19 12.06-12.8Z" fill="#fff" stroke="#0C296E" stroke-width=".8" stroke-linecap="round" stroke-linejoin="round"/><path d="M268.6 233c1.5-.14 47-2.75 68.32-23.07 2.66-2.53 3.88 4.49 4.42 8.23.65 14-28.07 22.26-68.75 29.34-1.97-7.99-3.99-14.5-3.99-14.5Z" fill="#3370FF"/><path d="M310.54 141.89h-30.57v112.89h30.57V141.89Z" fill="#E0E2E4" stroke="#0C296E" stroke-width=".8" stroke-linecap="round" stroke-linejoin="round"/><path d="M301.31 192.52H84.49v62.25h216.82v-62.25Z" fill="#F2F2F2"/><path d="M301.31 192.52h-25.13v62.25h25.13v-62.25Z" fill="#E0E2E4"/><path d="m338.67 178.45 10.9-13.25 7.54 16.62-18.44-3.37Z" fill="#FFC60A"/><path d="M301.31 192.52h-25.13v62.25h25.13v-62.25Z" fill="#E0E2E4" stroke="#0C296E" stroke-width=".8" stroke-linecap="round" stroke-linejoin="round"/><path d="M310.54 141.89v112.89H84.49v-61.36" stroke="#0C296E" stroke-width=".8" stroke-linecap="round" stroke-linejoin="round"/><path d="M330.07 190.25c-14.63-6.09-35.2-6.42-35.2-6.42s-.1 6.18-.24 13.09c35.83 1.88 47.13 13.52 46.66 22.73l.47-15.92c.02-5.05-5.37-10.85-11.69-13.48Z" fill="#00D6B9"/><path d="M213.9 157.5h-51.21l8.57-37.23 48.82-2.2 2.39 2.2-8.57 37.23Z" fill="#fff" stroke="#0C296E" stroke-width=".8" stroke-linecap="round" stroke-linejoin="round"/><path d="M211.51 155.29h-51.86l8.57-37.22h51.86l-8.57 37.22Z" fill="#fff" stroke="#0C296E" stroke-width=".8" stroke-linecap="round" stroke-linejoin="round"/><path d="M206.88 151.68h-40.97l6.78-29.41h40.96l-6.77 29.41Z" fill="#00D6B9"/><path d="M214.31 155.29h-72.28v4.16h72.28v-4.16Z" fill="#0C296E"/><path d="M185.77 41.92H81.55v47.91h46.37l5.74 9.94 5.74-9.94h46.37V41.92Z" fill="#FFC60A"/><path d="m104.82 71.13 5.32-.55a4.557 4.557 0 0 0 1.35 2.86 3.66 3.66 0 0 0 2.58 1.05 3.587 3.587 0 0 0 2.83-1.36 6.181 6.181 0 0 0 1.16-4.13 5.613 5.613 0 0 0-1.15-3.85 3.836 3.836 0 0 0-3-1.28 5.442 5.442 0 0 0-4.12 2l-4.33-.63 2.74-14.49h14.11v5h-10.06l-.84 4.73a8.159 8.159 0 0 1 9.67 1.69 9.306 9.306 0 0 1 2.47 6.71 10.049 10.049 0 0 1-2 6.14 8.845 8.845 0 0 1-7.55 3.75 9.359 9.359 0 0 1-6.29-2.07 8.517 8.517 0 0 1-2.89-5.57ZM135.4 50.33a7.61 7.61 0 0 1 6.33 2.89c1.813 2.28 2.72 6.06 2.72 11.34s-.913 9.066-2.74 11.36a7.603 7.603 0 0 1-6.31 2.85 7.997 7.997 0 0 1-6.55-3.12c-1.66-2.08-2.49-5.794-2.49-11.14 0-5.24.913-9.014 2.74-11.32a7.596 7.596 0 0 1 6.3-2.86Zm0 4.43a2.67 2.67 0 0 0-1.73.62 4.144 4.144 0 0 0-1.18 2.21 30.498 30.498 0 0 0-.55 7 30.25 30.25 0 0 0 .49 6.73 4.729 4.729 0 0 0 1.24 2.44 2.729 2.729 0 0 0 3.45 0 4.143 4.143 0 0 0 1.18-2.21c.454-2.304.639-4.654.55-7a30.31 30.31 0 0 0-.49-6.73 4.801 4.801 0 0 0-1.24-2.45 2.63 2.63 0 0 0-1.72-.61ZM166 73.33v5h-18.67c.209-1.89.834-3.71 1.83-5.33a35.469 35.469 0 0 1 6-6.68 37.822 37.822 0 0 0 4.43-4.56 5.87 5.87 0 0 0 1.1-3.27 3.708 3.708 0 0 0-1-2.74 4.079 4.079 0 0 0-5.31 0 5.18 5.18 0 0 0-1.14 3.34l-5.24-.52c.313-2.94 1.313-5.05 3-6.33a10.001 10.001 0 0 1 6.27-1.92 9.06 9.06 0 0 1 6.48 2.22 7.297 7.297 0 0 1 2.25 5.54 9.639 9.639 0 0 1-.67 3.58 14.573 14.573 0 0 1-2.14 3.56 34.032 34.032 0 0 1-3.5 3.55c-1.687 1.546-2.753 2.573-3.2 3.08a9.275 9.275 0 0 0-1.09 1.48H166Z" fill="#0C296E"/><path d="M139.27 159.45h79.61a16.548 16.548 0 0 1 15.275 10.219A16.552 16.552 0 0 1 235.41 176a16.54 16.54 0 0 1-16.54 16.54h-87.64a16.172 16.172 0 0 1-15.38-11.17l-12-44.45a14.39 14.39 0 0 1 13.68-18.83h30.75v23.62h-14.14l5.13 17.74Z" fill="#fff"/><path d="M108.83 121c-2.11 20.17 25.82 20.84 25.82 20.84S105 147.33 105 125.41M131.17 192.52v-12.77a20.26 20.26 0 0 1 20.26-20.26h-5a20.262 20.262 0 0 0-20.26 20.26v12.77h5ZM178.14 192.52v-12.77a20.26 20.26 0 0 1 20.26-20.25h-5a20.263 20.263 0 0 0-20.26 20.26v12.77l5-.01Z" fill="#00D6B9"/><path d="M215.76 159.75c8.85 0 14.9 7.72 14.9 16.57a16 16 0 0 1-16 16s17.45 7.25 23 .72c5.55-6.53 8.48-26.59 4.2-31.48-8.78-9.96-26.1-1.81-26.1-1.81Z" fill="#00D6B9" stroke="#0C296E" stroke-width=".8" stroke-linecap="round" stroke-linejoin="round"/><path d="M139.27 159.45h79.61a16.548 16.548 0 0 1 15.275 10.219A16.552 16.552 0 0 1 235.41 176v0a16.54 16.54 0 0 1-16.54 16.54h-87.64a16.172 16.172 0 0 1-15.38-11.17l-12-44.45a14.39 14.39 0 0 1 13.68-18.83h30.75v23.62h-14.14l5.13 17.74ZM139.27 159.45h-7.21" stroke="#0C296E" stroke-width=".8" stroke-linecap="round" stroke-linejoin="round"/><path d="M148.21 117.08h-7.7v26.21h7.7v-26.21Z" fill="#00D6B9" stroke="#0C296E" stroke-width=".8" stroke-linecap="round" stroke-linejoin="round"/><path d="M148.76 141.79a8.703 8.703 0 0 0 1 3.11c1 2-.28 6.91 3.71 6.93 5.77 0 2.25-10 2.25-10s2.93.27 3 2.7v8.21c0 1.46.57 3.2 3.06 3.2 2.13 0 2.78-1.74 2.78-3.2v-8.59c2.11 1.72 5.06-.59 4.75-1.69a1.81 1.81 0 0 0 2.94-1.4 1.649 1.649 0 0 0 2.24-1.63v-8a10.997 10.997 0 0 0-11-11h-14.7" fill="#fff"/><path d="M148.76 141.79a8.703 8.703 0 0 0 1 3.11c1 2-.28 6.91 3.71 6.93 5.77 0 2.25-10 2.25-10s2.93.27 3 2.7v8.21c0 1.46.57 3.2 3.06 3.2 2.13 0 2.78-1.74 2.78-3.2v-8.59c2.11 1.72 5.06-.59 4.75-1.69a1.81 1.81 0 0 0 2.94-1.4 1.649 1.649 0 0 0 2.24-1.63v-8a10.997 10.997 0 0 0-11-11h-14.7M172.18 141.07v-6.84M169.06 142.47v-8.24M164.49 144.16v-9.7" stroke="#0C296E" stroke-width=".8" stroke-linecap="round" stroke-linejoin="round"/><path d="m159.54 112.51 5.6-17.71M167.12 115.42l8.16-9.09M151.59 111.14l-.94-13.3" stroke="#00D6B9" stroke-width="2" stroke-miterlimit="10"/><path d="M56.41 123.52a8.53 8.53 0 1 0 0-17.06 8.53 8.53 0 0 0 0 17.06Z" fill="#FFC60A"/><path d="M110.51 206.26H58.53v16.3h51.98v-16.3Z" fill="#fff" stroke="#0C296E" stroke-width=".8" stroke-linecap="round" stroke-linejoin="round"/><path d="M98.45 212.22H86.92v4.37h11.53v-4.37ZM67.57 216.36a1.95 1.95 0 1 0 0-3.9 1.95 1.95 0 0 0 0 3.9Z" fill="#0C296E"/><path d="M110.51 222.51H58.53v16.3h51.98v-16.3Z" fill="#fff" stroke="#0C296E" stroke-width=".8" stroke-linecap="round" stroke-linejoin="round"/><path d="M98.45 228.48H86.92v4.37h11.53v-4.37ZM67.57 232.61a1.95 1.95 0 1 0 0-3.9 1.95 1.95 0 0 0 0 3.9Z" fill="#0C296E"/><path d="M110.51 238.69H58.53v16.3h51.98v-16.3Z" fill="#fff" stroke="#0C296E" stroke-width=".8" stroke-linecap="round" stroke-linejoin="round"/><path d="M98.45 244.66H86.92v4.37h11.53v-4.37ZM67.57 248.8a1.95 1.95 0 1 0 0-3.9 1.95 1.95 0 0 0 0 3.9Z" fill="#0C296E"/><path d="M110.51 206.26h-7.42v16.26h7.42v-16.26ZM110.51 222.53h-7.42v16.26h7.42v-16.26Z" fill="#E0E2E4" stroke="#0C296E" stroke-width=".8" stroke-linecap="round" stroke-linejoin="round"/><path d="M110.51 238.77h-7.42v16.26h7.42v-16.26Z" fill="#E0E2E4" stroke="#0C296E" stroke-width=".8" stroke-linecap="round" stroke-linejoin="round"/><path d="M112.33 241.95s56.84-.26 56.84 8.84c0 6-20.95 1.82-21.77 8-.82 6.18 42.41 4.85 60.65 4.14" stroke="#0C296E" stroke-width=".8" stroke-linecap="round" stroke-linejoin="round"/><path d="M230.3 259.61h-8.43v2.45h8.43v-2.45ZM230.3 264.53h-8.43v2.45h8.43v-2.45Z" fill="#E0E2E4"/><path d="M221.87 257.13h-7.24v12.79h7.24v-12.79Z" fill="#E0E2E4" stroke="#0C296E" stroke-width=".8" stroke-linecap="round" stroke-linejoin="round"/><path d="M214.68 269.92c-2.76-1.9-9.31-3.31-9.31-3.31v-6.17s6.67-1.45 9.31-3.31v12.79Z" fill="#E0E2E4" stroke="#0C296E" stroke-width=".8" stroke-linecap="round" stroke-linejoin="round"/><path d="M262 77.09s.44 6.41-9.68 7.23c-.25-3.27.12-19.24.12-19.24l6.82 1.07L262 77.09Z" fill="#3370FF"/><path d="M234.84 49c12.73.29 19.49 2.74 23.29 6.2a11.632 11.632 0 0 1 3.71 8.4c.09 4.66-.05 9.31.17 14-1.87-8.64-9.51-13.73-27.5-14.28.14-5.38.26-8.83.33-14.32Z" fill="#fff" stroke="#0C296E" stroke-width=".8" stroke-miterlimit="10"/><path d="M239.2 54.06s13-.24 18.66 6.87l-18.66-6.87Z" fill="#fff"/><path d="M239.2 54.06s13-.24 18.66 6.87" stroke="#0C296E" stroke-width=".8" stroke-linecap="round" stroke-linejoin="round"/><path d="M239.2 58.91s7.54-.25 12.54 3.19l-12.54-3.19Z" fill="#fff"/><path d="M239.2 58.91s7.54-.25 12.54 3.19" stroke="#0C296E" stroke-width=".8" stroke-linecap="round" stroke-linejoin="round"/><path d="M157.734 199.45c6.272-5.067 7.25-14.259 2.183-20.532-5.067-6.272-14.259-7.25-20.532-2.183-6.272 5.067-7.25 14.259-2.183 20.532 5.067 6.272 14.259 7.25 20.532 2.183Z" fill="#fff" stroke="#0C296E" stroke-width=".8" stroke-linecap="round" stroke-linejoin="round"/><path d="M156.95 184.12c.27 12.94-18.81 15.9-21.51 12.79a10.44 10.44 0 0 1-1.9-4 1.65 1.65 0 0 1 .82-.95c.08.23.52 1.27.67 1.72 5.1 2.55 18.04.32 21.92-9.56Z" fill="#00D6B9"/><path d="M156.94 184.51a12.466 12.466 0 0 0-12.278-9.061 12.46 12.46 0 0 0-5.272 1.301" fill="#fff"/><path d="M156.94 184.51a12.466 12.466 0 0 0-12.278-9.061 12.46 12.46 0 0 0-5.272 1.301" stroke="#0C296E" stroke-width=".8" stroke-linecap="round" stroke-linejoin="round"/><path d="M156.032 190.451c2.098-.164 3.631-2.44 3.424-5.083-.206-2.643-2.074-4.652-4.172-4.488-2.098.164-3.631 2.439-3.425 5.082.207 2.643 2.075 4.653 4.173 4.489Z" fill="#fff" stroke="#0C296E" stroke-width=".8" stroke-linecap="round" stroke-linejoin="round"/><path d="M157.592 190.259c2.065-.162 3.574-2.399 3.371-4.998-.203-2.599-2.041-4.575-4.106-4.414-2.065.162-3.574 2.399-3.371 4.998.203 2.599 2.042 4.575 4.106 4.414Z" fill="#fff" stroke="#0C296E" stroke-width=".8" stroke-linecap="round" stroke-linejoin="round"/><path d="M157.646 188.389c1.139-.089 1.961-1.473 1.834-3.092-.126-1.619-1.153-2.859-2.293-2.77-1.14.089-1.961 1.474-1.834 3.093.126 1.618 1.153 2.858 2.293 2.769Z" fill="#00D6B9"/><path d="M144.131 186.739a1.1 1.1 0 1 0-.47-2.149 1.1 1.1 0 0 0 .47 2.149ZM137.339 186.371a1.1 1.1 0 1 0-.47-2.149 1.1 1.1 0 0 0 .47 2.149Z" fill="#0C296E"/><path d="M178.71 192.52 208.4 226a19.998 19.998 0 0 0 27.91.81L260 203.72l-20.1-19.15-15 13.46-16.56-19.37a5.689 5.689 0 0 1 .49-7.22" fill="#fff"/><path d="M219.36 231.78c17.24-8.93 5.53-33.75 5.53-33.75s16.2 20.91.63 33.88" fill="#00D6B9"/><path d="M178.71 192.52 208.4 226a19.998 19.998 0 0 0 27.91.81L260 203.72l-20.1-19.15-15 13.46-16.56-19.37a5.689 5.689 0 0 1 .49-7.22" stroke="#0C296E" stroke-width=".8" stroke-linecap="round" stroke-linejoin="round"/><path d="m241.88 182.11 7.32-6.49a7.455 7.455 0 0 1 5-1.82c3.66.06 9.85.72 14 4.16 5.46 4.53 7.53 8.87 8 14.57h-6.9l-8.23 9.24" fill="#fff"/><path d="m241.88 182.11 7.32-6.49a7.455 7.455 0 0 1 5-1.82c3.66.06 9.85.72 14 4.16 5.46 4.53 7.53 8.87 8 14.57h-6.9l-8.23 9.24" stroke="#0C296E" stroke-width=".8" stroke-linecap="round" stroke-linejoin="round"/><path d="M235 187.73c-.13.13.54.73 1 .34 6.55 1 16.62 9.64 19.34 20.06-.56.34.08 1.53.49 1.36 2.62-2.4 3.67-3.13 5.71-5.12-.44-7.18-9.18-21.51-20.91-22.31-2.49 2.19-3.17 3.09-5.63 5.67Z" fill="#00D6B9" stroke="#0C296E" stroke-width=".8" stroke-linecap="round" stroke-linejoin="round"/><path d="m205.265 187.567-11.585 9.016 5.509 7.079 11.585-9.016-5.509-7.079Z" fill="#00D6B9"/></svg>