<svg viewBox="0 0 400 300" fill="none" xmlns="http://www.w3.org/2000/svg"><path d="m395.68 151.24-.06-.02" stroke="#0C296E" stroke-width=".8" stroke-linecap="round" stroke-linejoin="round"/><path d="M172.39 52.52A17.384 17.384 0 0 0 183.84 64a17.378 17.378 0 0 0-11.45 11.45A17.38 17.38 0 0 0 160.94 64a17.384 17.384 0 0 0 11.45-11.45v-.03Z" fill="#FFC60A"/><path d="M366.19 264.09s-14.5-19.43-35.49-18.62c-24.12.93-28.53-3.34-35.7-10.85-7.17-7.51-23.94-27.72-52.56-11.5-9.37 5.31-24.9 20.89-45.36 9.37-26.74-15.06-95.55-72.95-158.45 31.51l327.56.09Z" fill="#F0F1F2"/><path d="M265.75 266.13c-5.12 0-10.24 0-15.66-.1s-11.15-.11-16.89-.11h-9.96c-7.13.16-10.62-4.29-11.41-12.52-1.49-15.62-20.07-16.4-35.83-16.4-2.31 0-4.64 0-7 .06-2.36.06-4.61.06-6.87.06-2.87 0-5.22-.05-7.37-.16-34.28-1.75-54.18-7.32-59.94-16.21-1.75-2.7-1.59-4.27-1.88-8.77.35-1.84.36-6 1.87-6 .62 0 10 16.51 68.56 16.73 9.2 0 20.61 1.16 30.31 1.88 10.46.77 19.23 5.17 20.65 20.1.6 6.3 2.3 8.09 7.59 10.34 12.74 5.42 52.48 11.06 52.48 11.06l-8.65.04Z" fill="#3370FF"/><path d="M104.25 191.91a57.321 57.321 0 0 1 18.94-2.82s.2 7.7.29 13.08c-21.7.15-30.21 7.63-30.15 14.58l-.12-14.22c.1-4.02 4.44-8.46 11.04-10.62Z" fill="#fff" stroke="#0C296E" stroke-width=".8" stroke-linecap="round" stroke-linejoin="round"/><path d="M71.718 224.302c2.075-6.334-1.378-13.152-7.713-15.228-6.334-2.075-13.152 1.378-15.228 7.713-2.075 6.334 1.378 13.152 7.713 15.228 6.334 2.075 13.152-1.378 15.228-7.713Z" fill="#fff"/><path fill-rule="evenodd" clip-rule="evenodd" d="M57.13 228.37c-8.28-.58-6.93-7.1-10-5.68-1.52.72-.57 4.78 5 8.79 4.25 3.07 7.22 4.78 8.75 4.65 4.64-.4 3.94-7.23-3.75-7.76Zm3.2-22.4a1.54 1.54 0 0 0-1.33 2.22c.76 2 3.53 3.5 6.2 3.16 5.5-.7 8.28 7.94 8.28 7.94a1.214 1.214 0 0 0 1.6.33C74.68 209.45 60.32 206 60.32 206l.01-.03Zm4 12.71c-11.16-.76-6.19-10.53-13.41-8.47-1.27.36-4 4.18-1.05 7.81 2.47 3 6.86 1 10 3.08 4.41 2.83 4.15 8 9.76 7.81 4.64-.17 6.06-9.46-5.29-10.23h-.01Z" fill="#E3E4E5"/><path d="M71.718 224.302c2.075-6.334-1.378-13.152-7.713-15.228-6.334-2.075-13.152 1.378-15.228 7.713-2.075 6.334 1.378 13.152 7.713 15.228 6.334 2.075 13.152-1.378 15.228-7.713Z" stroke="#0C296E" stroke-width=".8" stroke-miterlimit="10"/><path d="M276.6 149.51a72.113 72.113 0 0 1-96.437 25.349 72.113 72.113 0 0 1-29.563-95.23 76.995 76.995 0 0 0-24.528 67.093 77.004 77.004 0 0 0 76.958 66.873 77.002 77.002 0 0 0 75.86-68.115c-.75 1.35-1.49 2.7-2.29 4.03Z" fill="#FFC60A"/><path d="m233.38 56.46-25.94-15.55 30.92 8.27-4.98 7.28ZM242.84 42.68l-35.4-1.77 39.67-4.37-4.27 6.14Z" fill="#00D6B9"/><path d="m242.84 42.68-35.4-1.77 30.92 8.27 7.06 2.21-2.58-8.71Z" fill="#0C296E"/><path d="M328.52 105.08c-2.36-11.87-18.14-36.64-42.52-39.94-14.38-1.95-14.1 8.47-8.49 11.74 8.21 4.79 12.6-1.39 13.08-6.51 1.22-12.74-21.7-22.8-43.39-23.52" stroke="#00B798" stroke-width=".8" stroke-linecap="round" stroke-linejoin="round" stroke-dasharray="4 4"/><path d="m290.03 183.959-.447.053c-5.643.666-9.679 5.781-9.013 11.425l4.356 36.914c.666 5.644 5.781 9.679 11.425 9.013l.447-.053c5.644-.666 9.679-5.781 9.013-11.425l-4.356-36.914c-.666-5.644-5.781-9.679-11.425-9.013Z" fill="#fff" stroke="#0C296E" stroke-width=".8" stroke-linecap="round" stroke-linejoin="round"/><path d="m289.95 184 9.4 79.76" stroke="#0C296E" stroke-width=".8" stroke-linecap="round" stroke-linejoin="round"/><path d="M318.99 239.88c10.896 0 19.73-8.834 19.73-19.73 0-10.897-8.834-19.73-19.73-19.73-10.897 0-19.73 8.833-19.73 19.73 0 10.896 8.833 19.73 19.73 19.73Z" fill="#E3E4E5"/><path d="M318.99 220.15v44.6" stroke="#0C296E" stroke-width=".8" stroke-miterlimit="10"/><path d="M319.21 193.39a5.75 5.75 0 1 0 0-11.5 5.75 5.75 0 0 0 0 11.5ZM273.41 250.46a5.75 5.75 0 1 0 0-11.5 5.75 5.75 0 0 0 0 11.5Z" fill="#00D6B9"/><path d="M355.68 105.1h-51.15v42.04h51.15V105.1Z" fill="#FFC60A"/><path d="m321.47 139.79 1.74-7.61h-3.38v-2.66h4l1.48-6.48h-5.46v-2.66h6.06l1.74-7.66h3l-1.74 7.66h6.3l1.74-7.66h3l-1.74 7.66h3.46V123h-4.07l-1.5 6.48h5.56v2.66h-6.16l-1.74 7.61h-3l1.72-7.61h-6.28l-1.74 7.61-2.99.04Zm5.34-10.27h6.28l1.5-6.48h-6.3l-1.48 6.48Z" fill="#fff"/><path d="M92.18 80.39s-2.06 7.42 9.63 10.82c1.08-3.78 4.5-22.63 4.5-22.63L98 68.2l-5.82 12.19Z" fill="#3370FF"/><path d="M130.82 54c-15-2.73-23.54-1.48-28.85 1.67a13.932 13.932 0 0 0-6.38 9C94.37 70.07 93.41 75.57 92 81c4.27-9.69 14.48-13.83 35.73-10.14 1.17-6.38 1.86-10.47 3.09-16.86Z" fill="#fff" stroke="#0C296E" stroke-width=".8" stroke-miterlimit="10"/><path d="M124.49 58.83s-15.23-3.42-23.57 3.57l23.57-3.57Z" fill="#fff"/><path d="M124.49 58.83s-15.23-3.42-23.57 3.57" stroke="#0C296E" stroke-width=".8" stroke-linecap="round" stroke-linejoin="round"/><path d="M123.32 64.52s-8.79-2.11-15.5.73l15.5-.73Z" fill="#fff"/><path d="M123.32 64.52s-8.79-2.11-15.5.73M273.92 107.81a33.823 33.823 0 0 0 7.17-5.57c5.32-5.83 9.43-8.82 18.08-8.79 6.63 0 9.87 2.55 15.29 4.7 3.42 1.24 4.75 10.66-9.59 6.56-5-1.54-8-.53-10.82 2.09-2 1.88-2.22 5.1.59 5.5 3.43.49 11.83-2.71 9.95 7.75 0 0-6.26-1.61-8.42 2a10.143 10.143 0 0 1-6.47 5.27 5.345 5.345 0 0 0-2.75 2.66" stroke="#0C296E" stroke-width=".8" stroke-linecap="round" stroke-linejoin="round"/><path d="m181.534 233.643-43.919-.322-.211 28.76 43.919.321.211-28.759Z" fill="#fff" stroke="#0C296E" stroke-width=".8" stroke-linecap="round" stroke-linejoin="round"/><path d="M153.78 256.68c-.07 9-7.34 4.81-16.35 4.75-9.01-.06-16.35 4-16.28-5a16.315 16.315 0 1 1 32.63.24v.01Z" fill="#fff" stroke="#0C296E" stroke-width=".8" stroke-linecap="round" stroke-linejoin="round"/><path d="m181.364 256.872-60.189-.441-.054 7.429 60.188.442.055-7.43Z" fill="#0C296E"/><path d="m54.65 164.8 8.44-39.74 26.17 5.59-.92 4.32 6.58 1.41-7.52 35.41-32.75-6.99Z" fill="#fff" stroke="#0C296E" stroke-width=".8" stroke-linecap="round" stroke-linejoin="round"/><path d="M65.91 125.52s-.75-16.24 7.82-14.41c8.57 1.83 18.69 4.73 15.53 19.54-5.69-1.21-23.35-5.13-23.35-5.13Z" fill="#fff" stroke="#0C296E" stroke-width=".8" stroke-linecap="round" stroke-linejoin="round"/><path d="m61.983 166.37 11.754-55.254-7.326-1.558-11.754 55.253 7.326 1.559Z" fill="#0C296E"/><path d="M246.11 115.36 235.47 142l-7.91 19.88c0 .06 0 .12-.08.18-2 4.37-12.43 4.38-16.92 2.59l-37.72-15-.62-.25 4.3-10.79 12.94-32.41a12.43 12.43 0 0 1 16.13-6.93l40.52 16.09Z" fill="#fff" stroke="#0C296E" stroke-width=".8" stroke-linecap="round" stroke-linejoin="round"/><path d="m198.25 114.71-6.84 18.42 21.23 9 6.6-18.91-20.99-8.51Z" fill="#00D6B9" stroke="#0C296E" stroke-width=".8" stroke-linecap="round" stroke-linejoin="round"/><path d="m203.41 161.89-4.55.41" stroke="#0C296E" stroke-width=".8" stroke-miterlimit="10"/><path d="m202.4 116.5-3.08 8.13 4.15 1.72-3.93 10.04" stroke="#0C296E" stroke-width=".8" stroke-linecap="round" stroke-linejoin="round"/><path d="M212.62 127.42c-.55 1.51-1.92 2.29-3.08 1.83a2.867 2.867 0 0 1-1.32-3.51c.44-1.6 1.84-2.59 3.12-2.13 1.28.46 1.86 2.22 1.28 3.81ZM209.48 134.91a1.931 1.931 0 0 1-.895 1.214 1.932 1.932 0 0 1-1.495.206 2.23 2.23 0 0 1-1-2.72 1.988 1.988 0 0 1 .851-1.352 2.007 2.007 0 0 1 1.569-.298 2.25 2.25 0 0 1 .97 2.95Z" fill="#fff"/><path d="m165.32 148.02-64.24-11.4-7.38 36.91 48.85 8.64 22.77-34.15Z" fill="#0C296E"/><path d="M209.65 194.22c-15.63-.8-27.88-2.2-27.88-2.2l-.77 38.52-43.28-.86s-.13-19.28-.37-50.23c-.1-14.08 2.85-19 7.58-24.22 5.12-5.65 12.29-8.67 20.35-7.22l6.8 1.4.71.16 37.72 15c4.49 1.79 14.91 1.78 16.92-2.59 4.85 6.89 3.68 33.34-17.78 32.24Z" fill="#0C296E"/><path d="M137.44 181c-.1-14.08 2.8-20.53 7.53-25.76 5.12-5.65 12.29-9 20.35-7.58" stroke="#fff" stroke-width=".8" stroke-miterlimit="10"/><path d="M235.1 105.474c7.306-3.652 10.268-12.536 6.616-19.842-3.652-7.306-12.536-10.269-19.842-6.616-7.307 3.652-10.269 12.536-6.616 19.842 3.652 7.306 12.536 10.268 19.842 6.616Z" fill="#fff"/><path d="M235.09 105.45a12.636 12.636 0 0 1-10.524-2.05 12.632 12.632 0 0 1-5.156-9.4s2-6 6.8-6.63c4.8-.63 14.39-.08 16.38 2.07 1.99 2.15 2.23 9.17.68 11.25-1.55 2.08-8.18 4.76-8.18 4.76Z" fill="#fff" stroke="#0C296E" stroke-width=".8" stroke-miterlimit="10"/><path d="M235.1 105.474c7.306-3.652 10.268-12.536 6.616-19.842-3.652-7.306-12.536-10.269-19.842-6.616-7.307 3.652-10.269 12.536-6.616 19.842 3.652 7.306 12.536 10.268 19.842 6.616Z" stroke="#0C296E" stroke-width=".8" stroke-miterlimit="10"/><path d="M219.37 93.33c4.17-15.33 23.63-9.9 24.38-5.17.35 1 1.09 3.93.83 4.53a1.143 1.143 0 0 1-.83.6V91.7c-4.06-4.08-17.42-6.47-24.38 1.63Z" fill="#00D6B9"/><path d="M225.007 93.557c.372-2.675-1.048-5.082-3.171-5.377-2.122-.294-4.144 1.635-4.515 4.31-.371 2.675 1.049 5.083 3.171 5.377 2.123.295 4.144-1.635 4.515-4.31Z" fill="#fff" stroke="#0C296E" stroke-width=".8" stroke-miterlimit="10"/><path d="M223.144 93.389c.363-2.615-1.028-4.968-3.107-5.257-2.079-.288-4.058 1.598-4.421 4.212-.363 2.615 1.028 4.969 3.107 5.257 2.079.289 4.058-1.597 4.421-4.212Z" fill="#fff" stroke="#0C296E" stroke-width=".8" stroke-miterlimit="10"/><path d="M221.271 92.984c.222-1.598-.512-3.02-1.639-3.176-1.127-.156-2.22 1.012-2.442 2.61-.221 1.597.513 3.018 1.64 3.175 1.126.156 2.22-1.012 2.441-2.61Z" fill="#00D6B9"/><path d="M232.56 96.78a1.12 1.12 0 1 0 0-2.24 1.12 1.12 0 0 0 0 2.24ZM239.19 98.62a1.12 1.12 0 1 0 0-2.24 1.12 1.12 0 0 0 0 2.24Z" fill="#0C296E"/><path d="M191.92 102.25a12.343 12.343 0 0 0-2.47 3.87l-12.94 32.41-.33.13a15.866 15.866 0 0 1-11.52.16L148.91 133l6.18-22.89 17.41 5.48 19.41-13.32.01-.02Z" fill="#fff"/><path d="M170 141.61c-10.46-17.78 3-27.53 6-28.42-10.46.92-17.65 14.3-11.61 25.5a16.364 16.364 0 0 0 5.61 2.92Z" fill="#00D6B9"/><path d="M191.92 102.25a12.343 12.343 0 0 0-2.47 3.87l-12.94 32.41-.33.13a15.866 15.866 0 0 1-11.52.16L148.91 133l6.18-22.89 17.41 5.48 19.41-13.32.01-.02Z" stroke="#0C296E" stroke-width=".8" stroke-miterlimit="10"/><path d="M152.71 135.44c.08-.15.36-.77-.16-1-2-6.14.52-17.31 7.28-22.93.5.29 1.13-.58.81-.83-3.48-1.25-4.46-1.72-6.23-2.3-5.08 2.71-11.12 13.55-8.38 25 2.13.55 3.79 1.21 6.68 2.06Z" fill="#00D6B9" stroke="#0C296E" stroke-width=".8" stroke-linecap="round" stroke-linejoin="round"/><path d="M220.52 161.72s11.21-28.39 15.42-37.42c4.21-9.03 7.68-9.45 7.68-9.45l-4-1.65s-3.47.42-7.68 9.45c-4.21 9.03-15.85 38.52-15.85 38.52" fill="#00D6B9"/><path d="M232.28 134.55a9.716 9.716 0 0 0 5.63 7.77l8.35 2.87c9.07 2.79 16.08 2.58 23.07-1.63a118.78 118.78 0 0 0 17.33-12.86c-15.06-8.63-13.8-22.75-13.8-22.75l-17.61 11-11-4.36" fill="#fff"/><path d="M255.81 147.46c-11.83-10.9-2.41-26.84 1.65-29.53-9.41 3.11-15.91 17.86-9.28 27.45.9 1.28 3.08 3.02 7.63 2.08Z" fill="#00D6B9"/><path d="M232.28 134.55a9.716 9.716 0 0 0 5.63 7.77l8.35 2.87c9.07 2.79 16.08 2.58 23.07-1.63a118.78 118.78 0 0 0 17.33-12.86c-15.06-8.63-13.8-22.75-13.8-22.75l-17.61 11-11-4.36" stroke="#0C296E" stroke-width=".8" stroke-miterlimit="10"/><path d="M288.18 130.62c-.07-.16-.35-.79-.85-.52-5.89-2.32-13.42-12.53-13.72-22.81.59-.19.26-1.44-.17-1.37-3 1.68-4.57 2.86-6.89 4.28-1.13 6.78 4.44 20.4 15.64 25.6 1.7-1.52 3.66-3.27 5.99-5.18Z" fill="#00D6B9" stroke="#0C296E" stroke-width=".8" stroke-linecap="round" stroke-linejoin="round"/><path d="M154.41 108.35a8.578 8.578 0 0 1-1.37-3.29c-.77-5.69-7.28-9-8.85-10.71-3.23-3.47-6 .37-5.27 3.73.3 1.43 3.4 3.08 4.61 4.16" fill="#fff"/><path d="M154.41 108.35a8.578 8.578 0 0 1-1.37-3.29c-.77-5.69-7.28-9-8.85-10.71-3.23-3.47-6 .37-5.27 3.73.3 1.43 3.4 3.08 4.61 4.16" stroke="#0C296E" stroke-width=".8" stroke-linecap="round" stroke-linejoin="round"/><path d="m228.44 159.74-.72 1.8-.07.18c-2 4.37-12.43 4.38-16.93 2.59l-37.73-15-.61-.25 1.88-4.72 37.45 15.32s10.32 4 16.67.1l.06-.02Z" fill="#00D6B9" stroke="#0C296E" stroke-width=".8" stroke-linecap="round" stroke-linejoin="round"/><path d="M201.76 98.36s-3.85.9-8.07 9.94c-3.9 8.39-13.92 33.79-15.33 37.38l-3.8-1.51 15.12-38a12.43 12.43 0 0 1 12.08-7.81Z" fill="#00D6B9"/><path d="m182.717 225.489-46.641-.928-.203 10.198 46.641.928.203-10.198ZM95.276 175.363l8.413-39.412-8.938-1.908-8.413 39.412 8.938 1.908Z" fill="#0C296E"/><path d="M140.69 98.39a16.342 16.342 0 0 0-7.82-3c-3.18-.27-6.71 1.83-5.44 5.93a4.008 4.008 0 0 0-3 1.74 4.402 4.402 0 0 0 .52 5.84c-2.38.77-3.42 5-.94 6.78-3.65 4.39-1.49 7.87 9 10.22 4.05.91 5.17-4 3.65-5 4.68.24 4.48-5.85 2.82-6.55 4.52-1.19 3.2-6.38 1.35-7.41 1.17.27 5.56-4.03-.14-8.55Z" fill="#fff" stroke="#0C296E" stroke-width=".8" stroke-linecap="round" stroke-linejoin="round"/><path d="M127.43 101.28s7.78 1.3 13.35 5.67l-13.35-5.67Z" fill="#fff"/><path d="M127.43 101.28s7.78 1.3 13.35 5.67" stroke="#0C296E" stroke-width=".8" stroke-linecap="round" stroke-linejoin="round"/><path d="M124.92 108.85s8.3 1.66 14.51 5.51l-14.51-5.51Z" fill="#fff"/><path d="M124.92 108.85s8.3 1.66 14.51 5.51" stroke="#0C296E" stroke-width=".8" stroke-linecap="round" stroke-linejoin="round"/><path d="M124 115.63s8.2 1.39 12.64 5.27L124 115.63Z" fill="#fff"/><path d="M124 115.63s8.2 1.39 12.64 5.27M312.43 105.43c7.45 1.75 8.26-6.34 4.88-8.08a61.198 61.198 0 0 0-9.4-4.35c-4.95-1.46-8.83-.8-14.91 1.07" stroke="#0C296E" stroke-width=".8" stroke-linecap="round" stroke-linejoin="round"/><path d="m219.55 123.37 2.14 1.05-6.56 18.44-2.74-.96" fill="#0C296E"/><path d="m219.55 123.37 2.14 1.05-6.56 18.44-2.74-.96" stroke="#0C296E" stroke-width=".8" stroke-miterlimit="10"/><path d="M181.77 183.48v8.53" stroke="#fff" stroke-width=".8" stroke-linecap="round" stroke-linejoin="round"/><path d="m95.68 175.16 8.19-38.55M136.08 224.55l46.64.93" stroke="#fff" stroke-width=".8" stroke-miterlimit="10"/></svg>