<svg viewBox="0 0 400 300" fill="none" xmlns="http://www.w3.org/2000/svg"><path d="M294.24 175.24h-72.72a9.41 9.41 0 0 1 0-18.82h14.33a18.825 18.825 0 0 0 0-37.65H86.58a18.826 18.826 0 1 0 0 37.65h62.65a9.409 9.409 0 1 1 0 18.82h-22.41a18.82 18.82 0 1 0 0 37.64h167.42a18.82 18.82 0 0 0 0-37.64Z" fill="#F0F1F2"/><path d="M188.95 269.05c34.573 0 62.6-28.027 62.6-62.6s-28.027-62.6-62.6-62.6-62.6 28.027-62.6 62.6 28.027 62.6 62.6 62.6Z" fill="#fff"/><path fill-rule="evenodd" clip-rule="evenodd" d="M186.23 250.12c-41.75 10.52-45.65-23.81-58.22-11.92-6.34 6 4.9 24.49 38.72 35.31 25.9 8.29 43.28 11.89 50.64 8.77 22.11-9.38 7.63-41.93-31.14-32.16Zm12.17-96.84c26-12.34 53.64 25.79 53.64 25.79s4 3.22 8.42-1c-18.25-49.57-94.65-43.54-94.65-43.54s-10 4.49-3.08 13.14 23.09 11.6 35.67 5.62v-.01Zm7.72 37.43c-56.25 14.26-47.52-41.89-79.78-20.11-5.7 3.84-13.08 27.08 7.44 40.21 17 10.9 35.51-5.91 54.35-1 26.32 6.85 33.42 32.79 60.7 22.74 22.53-8.29 14.49-56.33-42.71-41.83v-.01Z" fill="#00D6B9"/><path d="M188.95 269.05c34.573 0 62.6-28.027 62.6-62.6s-28.027-62.6-62.6-62.6-62.6 28.027-62.6 62.6 28.027 62.6 62.6 62.6Z" stroke="#0C296E" stroke-width=".8" stroke-linecap="round" stroke-linejoin="round"/><path d="M332.498 241.786c14.566-10.936 17.508-31.61 6.572-46.175-10.937-14.566-31.61-17.508-46.176-6.572-14.566 10.936-17.508 31.61-6.572 46.175 10.937 14.566 31.61 17.508 46.176 6.572Z" fill="#fff"/><path fill-rule="evenodd" clip-rule="evenodd" d="M325.36 234.7c-14.26 17.63-26.76 4.41-28.29 13.39-.77 4.53 9.81 8.77 27.48 2.63 13.53-4.7 22-8.68 24.1-12.32 6.35-10.95-10.04-20.08-23.29-3.7ZM283.08 199c5.67 1.44 13.38-2.43 16.79-8.93 7-13.41 30.75-6.1 30.75-6.1a3.321 3.321 0 0 0 3.24-3.07c-23.36-15.11-53.64 11.59-53.64 11.59s-2.81 5.06 2.86 6.51Zm30.34 18.13c13.25-5.44 24.44 3.24 32.76-9.62 6.86-10.61-11.71-28.31-31.22-4.12-19.19 23.79-33.26-2.62-40 16.76-1.18 3.42 3.05 15.54 15.85 14.59 10.65-.8 13.12-13.74 22.61-17.62v.01Z" fill="#E0E2E4"/><path d="M332.498 241.786c14.566-10.936 17.508-31.61 6.572-46.175-10.937-14.566-31.61-17.508-46.176-6.572-14.566 10.936-17.508 31.61-6.572 46.175 10.937 14.566 31.61 17.508 46.176 6.572Z" stroke="#0C296E" stroke-width=".8" stroke-linecap="round" stroke-linejoin="round"/><path d="M97.398 224.99c5.283-17.431-4.566-35.845-21.997-41.128-17.432-5.282-35.845 4.566-41.128 21.997-5.283 17.432 4.566 35.845 21.997 41.128 17.432 5.283 35.845-4.565 41.128-21.997Z" fill="#fff"/><path fill-rule="evenodd" clip-rule="evenodd" d="M57.8 237c-22.65-1.08-19.37-19-27.53-14.91-4.11 2.05-1.27 13.1 14.12 23.72 11.79 8.13 20 12.61 24.19 12.16C81.16 256.66 78.84 238 57.8 237Zm7.37-61.37s-5.75.73-3.56 6.15 9.87 9.36 17.12 8.26c15-2.26 23.1 21.2 23.1 21.2a3.31 3.31 0 0 0 4.39.8c-1.62-27.73-41.05-36.37-41.05-36.37v-.04Zm11.73 34.51c-30.53-1.41-17.55-28.37-37.14-22.33-3.46 1.07-10.73 11.65-2.4 21.41 6.92 8.1 18.8 2.45 27.55 7.8 12.22 7.47 11.83 21.63 27.12 20.74 12.63-.76 15.92-26.19-15.13-27.62Z" fill="#E0E2E4"/><path d="M97.398 224.99c5.283-17.431-4.566-35.845-21.997-41.128-17.432-5.282-35.845 4.566-41.128 21.997-5.283 17.432 4.566 35.845 21.997 41.128 17.432 5.283 35.845-4.565 41.128-21.997Z" stroke="#0C296E" stroke-width=".8" stroke-linecap="round" stroke-linejoin="round"/><path d="m334.79 157.41 16.26-4.87-2.98 17.82-13.28-12.95Z" fill="#fff" stroke="#0C296E" stroke-width=".8" stroke-miterlimit="10"/><path d="M129.18 43.17s-3.49 20.52-3.49 66.36c0 16-14.45 14.42-15.42 1.93-1.21-15.59-19-18.34-17 24.55" stroke="#0C296E" stroke-width=".8" stroke-linecap="round" stroke-linejoin="round"/><path d="M225 162.36c-5 2.65-10.22 5.4-10.22 5.4l-4.94 38.6s-10.23-9.06-23.67-11.75a25.511 25.511 0 0 0-15.44 1.79s-4.94-6.44-13.07-7.83a35.775 35.775 0 0 0-14.65.77s4.14-22.94 5.18-30.64c1.42-10.55 4.69-19.77 13.55-25.25l11-7.33 62.65 1.82c7.44 19-4.56 31.33-10.39 34.42Z" fill="#0C296E"/><path d="m235.44 127.93-.71-61.83c-.85-2.39-6.38-3.71-8.91-3.55l-47.64 2.81c-6.19.4-5.92 7.23-5.81 19.22l.11 41.79s29.93 6.24 40.16 6.39c5.93.08 16.91-.88 22.8-4.83Z" fill="#fff"/><path d="M179.26 65.64s-2.46 1.29-2.69 8.63c-.21 6.81-.49 44.13-.4 47l-3.29-.25-.45-46.31c-.08-3.05 1.36-7.33 3.61-9.05a21.618 21.618 0 0 1 3.22-.02ZM222.51 62.55c-7.14 1.59-10.17 8.48-10.86 15.06L209 99.93c-.15-2.59.08-14.2.81-25.81.8-12.47 12.7-11.57 12.7-11.57Z" fill="#00D6B9"/><path d="m235.44 127.93-.71-61.83c-.85-2.39-6.38-3.71-8.91-3.55l-47.64 2.81c-6.19.4-5.92 7.23-5.81 19.22l.11 41.79s29.93 6.24 40.16 6.39c5.93.08 16.91-.88 22.8-4.83Z" stroke="#0C296E" stroke-width=".8" stroke-linecap="round" stroke-linejoin="round"/><path d="M210.296 59.688c5.497-5.922 5.152-15.178-.769-20.675-5.922-5.497-15.179-5.153-20.676.769-5.497 5.921-5.153 15.178.769 20.675s15.179 5.153 20.676-.769Z" fill="#fff" stroke="#0C296E" stroke-width=".8" stroke-linecap="round" stroke-linejoin="round"/><path d="M207.92 53.33c-1.44-16.13-19.73-16-21.72-11.68-.6.83-2.13 3.43-2 4.07 0 .37.62.75.8.79.07-.23.25-1.09.38-1.55 4.92-2.76 18.18-1.27 22.54 8.37Z" fill="#00D6B9"/><path d="M207.7 53.93a12.491 12.491 0 0 1-7.506 7.511 12.497 12.497 0 0 1-10.574-.971" fill="#fff"/><path d="M207.7 53.93a12.491 12.491 0 0 1-7.506 7.511 12.497 12.497 0 0 1-10.574-.971" stroke="#0C296E" stroke-width=".8" stroke-linecap="round" stroke-linejoin="round"/><path d="M210.108 53.093c.391-2.644-.993-5.04-3.091-5.35-2.098-.31-4.116 1.582-4.507 4.227-.391 2.644.993 5.04 3.091 5.35 2.098.31 4.116-1.583 4.507-4.227Z" fill="#0C296E" stroke="#0C296E" stroke-width=".8" stroke-miterlimit="10"/><path d="M211.769 53.432c.382-2.584-.973-4.925-3.027-5.229-2.055-.303-4.03 1.545-4.412 4.13-.382 2.584.974 4.925 3.028 5.229 2.054.303 4.029-1.545 4.411-4.13Z" fill="#fff" stroke="#0C296E" stroke-width=".8" stroke-linecap="round" stroke-linejoin="round"/><path d="M211.068 53.102c.239-1.58-.471-2.998-1.586-3.167-1.116-.169-2.214.975-2.453 2.555-.24 1.58.47 2.999 1.586 3.168 1.115.169 2.213-.975 2.453-2.556Z" fill="#00D6B9"/><path d="M195.801 52.183a1.1 1.1 0 1 0-2.113-.617 1.1 1.1 0 0 0 2.113.617ZM189.002 52.084a1.1 1.1 0 1 0-2.111-.618 1.1 1.1 0 0 0 2.111.618Z" fill="#0C296E"/><path d="m183.03 80.2.21 15.74 17.69-.07.03-16.02-17.93.35Z" fill="#00D6B9" stroke="#0C296E" stroke-width=".8" stroke-linecap="round" stroke-linejoin="round"/><path d="m186.6 80.29.05 6.67 3.56-.1-.03 8.8" stroke="#0C296E" stroke-width=".8" stroke-linecap="round" stroke-linejoin="round"/><path d="M197.27 84.61a1.917 1.917 0 0 1-.289 1.62 1.914 1.914 0 0 1-1.44.794 1.912 1.912 0 0 1-2.001-2.194 2.229 2.229 0 0 1 1.7-2.63c1.09-.08 2 1.03 2.03 2.41ZM197.1 91.25a1.484 1.484 0 0 1-.712 1.689 1.48 1.48 0 0 1-2.178-1.519 1.719 1.719 0 0 1 1.31-2c.84-.1 1.55.76 1.58 1.83Z" fill="#fff"/><path d="m201.24 79.85 1.87.07-.14 15.66-2.3.2" fill="#0C296E"/><path d="m201.24 79.85 1.87.07-.14 15.66-2.3.2" stroke="#0C296E" stroke-width=".8" stroke-miterlimit="10"/><path d="M171.41 188.63c-7.45-5-23.15-5.92-28.7-1.75l-1.17 6.78s13.4-4.94 28.22 3.71" fill="#0C296E"/><path d="M170.94 188.61c-7.45-5-22.69-5.89-28.23-1.72" stroke="#fff" stroke-width=".8" stroke-linecap="round" stroke-linejoin="round"/><path d="m199 136.74-10.27 5.95a35.536 35.536 0 0 0-14.91 25.76l-4.3 30.55" stroke="#fff" stroke-width=".8" stroke-linecap="round" stroke-linejoin="round"/><path d="M235.47 127.76c-5.89 4-16.87 4.91-22.8 4.83-10.23-.14-40.16-6.14-40.16-6.14v-6.06l39.81 5.56s12.71 1 23.08-5.19l.07 7Z" fill="#00D6B9" stroke="#0C296E" stroke-width=".8" stroke-linecap="round" stroke-linejoin="round"/><path d="M177.82 65.4c-3.5.24-7 .67-11.54 7.58-2.13 3.27-5.61 10.43-9.14 17-2.77 5.14-7.67 16.42-7.67 16.42" stroke="#0C296E" stroke-width=".8" stroke-linecap="round" stroke-linejoin="round"/><path d="m202.3 139.15-13.55-21.5 20.37-17.38L211.74 78c.86-8.15 5.31-16.8 16.76-15.21 10.63 1.47 11.83 11.2 10.93 21.91l-1.25 16c-.86 8.05-2.72 14.37-10.68 20.91-15.39 12.59-25.2 17.54-25.2 17.54Z" fill="#fff"/><path d="M234 114.47c-3.33-13.64-18.17-19.51-24.73-13.93v-2.78c8.42-6.12 24.49-.4 27 12.09l-2.27 4.62Z" fill="#00D6B9"/><path d="m202.3 139.15-13.55-21.5 20.37-17.38L211.74 78c.86-8.15 5.31-16.8 16.76-15.21 10.63 1.47 11.83 11.2 10.93 21.91l-1.25 16c-.86 8.05-2.72 14.37-10.68 20.91-15.39 12.59-25.2 17.54-25.2 17.54Z" stroke="#0C296E" stroke-width=".8" stroke-linecap="round" stroke-linejoin="round"/><path d="m232.38 81.99-11.69-.58.3-6.04 11.68.48-.29 6.14Z" fill="#00D6B9"/><path d="m171.74 120.77-7.73 3.6a11.863 11.863 0 0 1-4.446 1.297 11.863 11.863 0 0 1-8.662-2.74 11.854 11.854 0 0 1-2.892-3.617 11.863 11.863 0 0 1-1.297-4.446 11.863 11.863 0 0 1 2.74-8.662 11.854 11.854 0 0 1 3.617-2.892l7.73-3.6s-4.68 6.25.39 14.51a14.453 14.453 0 0 0 10.55 6.55Z" fill="#fff" stroke="#0C296E" stroke-width=".8" stroke-linecap="round" stroke-linejoin="round"/><path d="m192.93 143.56-3.98 2.51-66.94-106.33 4.13-2.6 66.79 106.42Z" fill="#E0E2E4"/><path d="M181.83 123.25c4.37-2.83 7.86-3.35 10.58 0l6.77 8.31c2.85 3.5 4.42 8.81 1.24 11.84a37.087 37.087 0 0 1-10.93 7.25c-3.79 1.7-7.42-1.68-5.26-4-5.46 2.9-8.3-2.63-5-4.68-.62.39-3.74 1.73-5.43-.55-1.36-1.84-.9-4 .82-4.75-2.77 1.13-5.52-3.8-1.87-6.57 2.43-1.91 6.69-5.3 9.08-6.85Z" fill="#fff" stroke="#0C296E" stroke-width=".8" stroke-linecap="round" stroke-linejoin="round"/><path d="m189.22 143.35-5.67 3.85M185.23 138.19l-6.04 3.76M182.95 131.88l-8.59 4.91" stroke="#0C296E" stroke-width=".8" stroke-linecap="round" stroke-linejoin="round"/><path d="M191.27 114.33c.14.13.65.66.22 1.12.22 7.07 7 17.79 16.08 21 .41-.49 1.37.18 1.14.55-3.11 2.58-4 3.23-5.6 4.49-6.23-.89-16.47-9.77-17.94-22.6 1.99-1.31 3.45-2.6 6.1-4.56Z" fill="#00D6B9" stroke="#0C296E" stroke-width=".8" stroke-linecap="round" stroke-linejoin="round"/><path d="M210.4 203.43s-.42 3.1-1.23 9.72l-.34-.46c-7.15-9.54-17-12.85-25-13.77-4.129-.464-8.3-.39-12.41.22-1.21.19-1.9.35-1.9.35l1.18-6.64c8.75-6.46 35.71-.85 39.7 10.58Z" fill="#0C296E"/><path d="M210.4 203.43c-4-11.41-31.2-17-40-10.58" stroke="#fff" stroke-width=".8" stroke-linecap="round" stroke-linejoin="round"/><path d="m214.81 167.76 3.76-7.59" stroke="#0C296E" stroke-width=".8" stroke-linecap="round" stroke-linejoin="round"/><path d="m221 132.12-.17 2.45a9.382 9.382 0 0 1-4.8 6.79l-4.77 2.58.1 8.24a11.125 11.125 0 0 0-7.83 8.85c-2.32 11-5.42 32.22-5.42 32.22" stroke="#fff" stroke-width=".8" stroke-linecap="round" stroke-linejoin="round"/><path d="M155.1 203.32a13.223 13.223 0 0 1-.37 3.05 9.268 9.268 0 0 1-1.33 3c-1.43 2.09-3.59 3.42-5.82 4.88-4.23 2.78.73-6.1-5.47-5.6-10.64.84-15.49-1.14-19.65-2h-.17v-1.47a13.013 13.013 0 0 1 1.23-5c2-4.29 6.22-7.81 11.61-9.53a24.249 24.249 0 0 1 5.46-1.07 18.784 18.784 0 0 1 8.22.83c4.6 1.76 6.4 6.09 6.29 12.91Z" fill="#fff" stroke="#0C296E" stroke-width=".8" stroke-linecap="round" stroke-linejoin="round"/><path d="M176.33 205.58c-.37.67-1.37 2.84-1.41 7.5 0 4.1-.63 8.89-3.48 11.75l.23-.29a5.704 5.704 0 0 0 .86-2.26c.95-1.4 2.83-6.13-.37-7.7-4.48-2.19-10.93-5.19-17.44-8.2.242-.999.366-2.022.37-3.05.11-6.81-1.69-11.15-6.3-12.92 8.85 1 19.66 4.65 27.54 15.17Z" fill="#fff" stroke="#0C296E" stroke-width=".8" stroke-linecap="round" stroke-linejoin="round"/><path d="M122.94 204c4.35-5 12.77-2.9 18.88 0 9.21 4.31 21.55 9.9 28.69 13.41 3.22 1.58 2 6 1.1 7.12-3.6 4.68-9.39 4.39-15.86 1.4l-30.25-13.16c-3.66-1.71-4.67-6.35-2.56-8.77Z" stroke="#fff" stroke-width=".8" stroke-linecap="round" stroke-linejoin="round"/><path d="m170.08 122.79-2.66 1.6a7.994 7.994 0 0 1-6.069.915 8.01 8.01 0 0 1-4.931-3.655l-5.53-9.21a8.194 8.194 0 0 1-.841-6.051 8.194 8.194 0 0 1 3.581-4.949 51.638 51.638 0 0 1 12.14-5.78 3.742 3.742 0 0 1 4.651 2.507c.189.628.209 1.295.059 1.933 3.52-1.18 6 4.31 2 6.45a2.85 2.85 0 0 1 3.69 1.14c1.2 2 .17 3.6-1.26 4.55 2.89.01 5.49 4.57-4.83 10.55Z" fill="#fff" stroke="#0C296E" stroke-width=".8" stroke-linecap="round" stroke-linejoin="round"/><path d="m159.6 106.13 10.94-6.17M162.48 112.58l10.12-6.1M165.9 117.44l9.01-5.19" stroke="#0C296E" stroke-width=".8" stroke-linecap="round" stroke-linejoin="round"/><path d="m93.29 130.13 3.6 7.29a12.578 12.578 0 0 0 9.47 6.88l8 1.17-5.82 5.67a12.565 12.565 0 0 0-3.142 5.134 12.567 12.567 0 0 0-.398 6.006l1.37 8-7.19-3.78a12.574 12.574 0 0 0-11.71 0l-7.19 3.78 1.37-8A12.578 12.578 0 0 0 78 151.14l-5.82-5.67 8-1.17a12.582 12.582 0 0 0 9.47-6.88l3.64-7.29Z" fill="#FFC60A"/><path d="M47.35 108.58s-.53 7.78 11.75 8.78C59.4 113.39 59 94 59 94l-8.28 1.3-3.37 13.28Z" fill="#3370FF"/><path d="M80.31 74.52c-15.46.35-23.66 3.32-28.28 7.53a14.111 14.111 0 0 0-4.51 10.2c-.1 5.65.06 11.31-.2 17 2.27-10.49 11.55-16.67 33.39-17.33-.17-6.6-.31-10.79-.4-17.4Z" fill="#fff" stroke="#0C296E" stroke-width=".8" stroke-miterlimit="10"/><path d="M75 80.62S59.21 80.33 52.36 89L75 80.62Z" fill="#fff"/><path d="M75 80.62S59.21 80.33 52.36 89" stroke="#0C296E" stroke-width=".8" stroke-linecap="round" stroke-linejoin="round"/><path d="M75 86.5s-9.15-.31-15.23 3.88L75 86.5Z" fill="#fff"/><path d="M75 86.5s-9.15-.31-15.23 3.88" stroke="#0C296E" stroke-width=".8" stroke-linecap="round" stroke-linejoin="round"/><path d="M285.13 156.43c10.4 0 18.83-8.431 18.83-18.83 0-10.4-8.43-18.83-18.83-18.83-10.399 0-18.83 8.43-18.83 18.83 0 10.399 8.431 18.83 18.83 18.83Z" fill="#F0F1F2"/><path d="M297.72 60.53a17.008 17.008 0 0 0 11.2 11.2 16.996 16.996 0 0 0-11.2 11.2 17.008 17.008 0 0 0-11.2-11.2 16.996 16.996 0 0 0 11.2-11.2Z" fill="#FFC60A"/><path d="M188 211.31a13.223 13.223 0 0 1-.37 3.05 9.268 9.268 0 0 1-1.33 3c-1.43 2.09-3.59 3.42-5.82 4.88-4.23 2.78.73-6.1-5.47-5.6-10.64.84-15.49-1.14-19.65-2h-.17v-1.47a12.995 12.995 0 0 1 1.23-5c2-4.29 6.22-7.81 11.61-9.53a24.36 24.36 0 0 1 5.46-1.07 18.784 18.784 0 0 1 8.22.83c4.61 1.76 6.41 6.1 6.29 12.91Z" fill="#fff" stroke="#0C296E" stroke-width=".8" stroke-linecap="round" stroke-linejoin="round"/><path d="M209.24 213.57c-.37.67-1.37 2.84-1.41 7.5 0 4.1-.63 8.89-3.48 11.75l.23-.29a5.698 5.698 0 0 0 .86-2.26c.95-1.4 2.83-6.13-.37-7.7-4.48-2.19-10.93-5.19-17.44-8.2.241-.998.366-2.022.37-3.05.11-6.81-1.69-11.15-6.3-12.92 8.85 1 19.66 4.65 27.54 15.17Z" fill="#fff" stroke="#0C296E" stroke-width=".8" stroke-linecap="round" stroke-linejoin="round"/><path d="M155.86 212c4.35-5 12.77-2.9 18.88 0 9.21 4.31 21.55 9.9 28.69 13.41 3.22 1.58 2 6 1.1 7.12-3.6 4.68-9.39 4.39-15.86 1.4l-30.25-13.16c-3.67-1.72-4.67-6.36-2.56-8.77Z" stroke="#fff" stroke-width=".8" stroke-linecap="round" stroke-linejoin="round"/><path d="M312.63 143.83s.58 8.43-12.74 9.52C299.56 149 300 128 300 128l9 1.41 3.63 14.42Z" fill="#3370FF"/><path d="M276.9 106.92c16.75.38 25.64 3.6 30.65 8.16a15.302 15.302 0 0 1 4.89 11.05c.11 6.13-.07 12.26.22 18.38-2.46-11.36-12.52-18.06-36.19-18.79.19-7.09.34-11.64.43-18.8Z" fill="#00D6B9"/></svg>