<svg viewBox="0 0 400 300" fill="none" xmlns="http://www.w3.org/2000/svg"><path d="M365.61 265.19s-14.73-16.19-36.07-15.52c-24.52.77-29-2.78-36.29-9-7.29-6.22-24.33-23.1-53.42-9.58-9.52 4.42-22.57 8.63-43.36-1-27.17-12.54-108.35-53.38-163.76 35l332.9.1Z" fill="#F0F1F2"/><path d="M99.26 235.26c1.86 18.19 21 23.46 40.57 29.95-12 .15-18.13.09-31.38-.05-3 0-8.49-.79-8.82-6.8l-.37-23.1Z" fill="#3370FF"/><path d="M99.27 236.8s-.58-16.35 18.72-24c30.22-12 139.77-53.73 189.92-87.22 19.78-13.21 16.36-20.32 16.36-20.32s14.46 14.79 5.31 23.46C300.27 156.51 228 191.66 138.17 224.3c-45.05 16.37-37.25 27.7-37.25 27.7l-1.65-15.2Z" stroke="#0C296E" stroke-width=".8" stroke-linecap="round" stroke-linejoin="round"/><path d="M294.49 88.23c17.79.63 29.53 3.4 34 7.49a13.726 13.726 0 0 1 4.39 9.92c.1 5.5-.24 11.18 0 16.68 0-11.3-17.57-16-38.82-16.61.21-6.38.35-11.04.43-17.48Z" fill="#3370FF"/><path d="M301.52 93.54s18.91.46 26.67 8.91M301.52 99.26s13.53.5 19.44 4.57" stroke="#0C296E" stroke-width=".8" stroke-linecap="round" stroke-linejoin="round"/><path d="M231.38 107.67a36.002 36.002 0 0 1 36 36v61.83a11.729 11.729 0 0 1-11.73 11.73h-60.24v-73.6a36 36 0 0 1 36-36l-.03.04Z" fill="#E0E2E4" stroke="#0C296E" stroke-width=".8" stroke-linecap="round" stroke-linejoin="round"/><path d="M224.52 107.67a36 36 0 0 1 36 36v65.12a8.43 8.43 0 0 1-8.43 8.43h-63.5v-73.59a36 36 0 0 1 36-36l-.07.04Z" fill="#fff" stroke="#0C296E" stroke-width=".8" stroke-linecap="round" stroke-linejoin="round"/><path d="M251.65 199.53h-81.89a8.83 8.83 0 0 0-8.83 8.83v.01a8.83 8.83 0 0 0 8.83 8.83h81.89a8.83 8.83 0 0 0 8.83-8.83v-.01a8.83 8.83 0 0 0-8.83-8.83Z" fill="#E0E2E4" stroke="#0C296E" stroke-width=".8" stroke-linecap="round" stroke-linejoin="round"/><path d="m227.78 217.19 8.23 47.28M252.26 217.19l8.23 47.28M178.66 217.19l-8.23 47.28M199.53 217.19l-8.23 47.28" stroke="#0C296E" stroke-width=".8" stroke-linecap="round" stroke-linejoin="round"/><path d="M192.2 234.48h-38.52v28.92h38.52v-28.92Z" fill="#fff" stroke="#0C296E" stroke-width=".8" stroke-miterlimit="10"/><path d="M168 254.86c0 7.9-6.41 4.27-14.31 4.27s-14.31 3.63-14.31-4.27a14.307 14.307 0 0 1 14.305-13.931 14.31 14.31 0 0 1 14.305 13.931h.01Z" fill="#fff" stroke="#0C296E" stroke-width=".8" stroke-miterlimit="10"/><path d="M192.38 255.94h-53.46v9h53.46v-9Z" fill="#0C296E" stroke="#0C296E" stroke-width=".8" stroke-miterlimit="10"/><path d="M220.39 234.48h-38.52v28.92h38.52v-28.92Z" fill="#fff" stroke="#0C296E" stroke-width=".8" stroke-miterlimit="10"/><path d="M196.22 254.86c0 7.9-6.41 4.27-14.31 4.27s-14.31 3.63-14.31-4.27a14.311 14.311 0 0 1 24.289-9.873 14.307 14.307 0 0 1 4.321 9.873h.01Z" fill="#fff" stroke="#0C296E" stroke-width=".8" stroke-miterlimit="10"/><path d="M220.93 255.94h-53.46v9h53.46v-9Z" fill="#0C296E" stroke="#0C296E" stroke-width=".8" stroke-miterlimit="10"/><path d="M228.72 199.77h-8.39l.12 34.71h-66.9V180a16.35 16.35 0 0 1 16.35-16.35h87.22v7.68a28.403 28.403 0 0 1-17.522 26.275 28.418 28.418 0 0 1-10.878 2.165Z" fill="#0C296E"/><path d="M197.4 164.17s-15.53.18-15.53 18.53v51.79M153.77 226.22h66.65M240.9 163.71c0 4.72-.89 4.69-10.86 4.69-2.4 4.27-5.07 9.9-5.07 9.9h-12.11c-2.22 0-4.349.882-5.919 2.451a8.374 8.374 0 0 0-2.451 5.919v39.54" stroke="#fff" stroke-width=".8" stroke-linecap="round" stroke-linejoin="round"/><path d="m339.26 155.19 11.69-7.53 1.7 14.7-13.39-7.17ZM96.54 200.59a7.83 7.83 0 1 0-.001-15.661 7.83 7.83 0 0 0 .001 15.661Z" fill="#FFC60A"/><path d="M160.13 140.75c-.07-4.88-.15-7.58-.21-11.64a11.903 11.903 0 0 1 3.392-8.527A11.911 11.911 0 0 1 171.76 117l32.84-.19c28.34-.23 51.49 19.18 51.68 47.52h-96.36l.21-23.58Z" fill="#fff" stroke="#0C296E" stroke-width=".8" stroke-linecap="round" stroke-linejoin="round"/><path d="M135.88 131.18H123a16.13 16.13 0 1 0 0 32.26h9.1" fill="#fff"/><path d="M135.88 131.18H123a16.13 16.13 0 0 0-16.13 16.13A16.132 16.132 0 0 0 123 163.44h9.1" stroke="#0C296E" stroke-width=".8" stroke-miterlimit="10"/><path d="M195.47 133.78h-10.94l-4.3-4.05h10.44l4.8 4.05Z" fill="#00D6B9"/><path d="m231.34 123.55-52.3.64c-8.14 0-11.91.25-15.27 8.1 0 0 .73-4.43 1-5.45 1-3.61 2.38-6.68 14.29-6.62l44.12-.19a43.024 43.024 0 0 1 4.88 1.88 35.443 35.443 0 0 1 3.28 1.64Z" fill="#00D6B9"/><path d="M168.221 133.9c1.188-9.631-5.657-18.401-15.287-19.588-9.631-1.188-18.401 5.657-19.589 15.287-1.187 9.631 5.657 18.401 15.288 19.588 9.631 1.188 18.401-5.656 19.588-15.287Z" fill="#fff" stroke="#0C296E" stroke-width=".8" stroke-miterlimit="10"/><path d="M151.11 132.57c-8.64.51-15.05 6-16.75 8.43a29.47 29.47 0 0 1-1.75-4.45c4.07-6.44 13.66-7.64 17.94-7.39l.56 3.41Z" fill="#00D6B9"/><path d="M156.337 132.156a5.57 5.57 0 1 0-11.056-1.364 5.57 5.57 0 0 0 11.056 1.364Z" fill="#fff" stroke="#0C296E" stroke-width=".8" stroke-miterlimit="10"/><path d="M154.323 131.908a3.54 3.54 0 1 0-7.027-.867 3.54 3.54 0 0 0 7.027.867Z" fill="#00D6B9"/><path d="M150.207 143.814a1.45 1.45 0 1 0-2.877-.355 1.45 1.45 0 0 0 2.877.355Z" fill="#0C296E"/><path d="M155.77 134s5.89 3.93 7.19 10.42" stroke="#0C296E" stroke-width=".8" stroke-miterlimit="10"/><path d="M124.92 163.5c-6.06-1.51-9.36-7.71-5.51-14.73 3.85-7.02 16.8-11.84 21.07-10 4.27 1.84 14.23 2.55 14.23 2.55v22.11l-29.79.07Z" fill="#fff" stroke="#0C296E" stroke-width=".8" stroke-miterlimit="10"/><path d="M155.17 138.82h35.76a12 12 0 0 1 0 24h-35.76v-24Z" fill="#fff"/><path d="M187.8 163.19c13.69-1.1 12.2-24.39-.84-24.39 0 0 6.94-4.29 12-1.93 5.06 2.36 15.24 16.27 9.14 21.13-7.66 6.14-21.14 5.66-21.14 5.66" fill="#00D6B9"/><path d="M155.17 138.82h35.76a12 12 0 0 1 12 12 12 12 0 0 1-12 12h-35.76v-24Z" stroke="#0C296E" stroke-width=".8" stroke-miterlimit="10"/><path d="M161.28 138.3h-7.73v25.15h7.73V138.3Z" fill="#00D6B9" stroke="#0C296E" stroke-width=".8" stroke-linecap="round" stroke-linejoin="round"/><path d="M193.7 126.28a18.23 18.23 0 0 1 0 36.46" stroke="#0C296E" stroke-width=".8" stroke-linecap="round" stroke-linejoin="round"/><path d="M123 131.56s7.27-.83 10.7 7.77c-.53-5.17-3.16-7.8-5.9-7.8l-4.8.03Z" fill="#00D6B9"/><path d="M167.57 255.94v9.51" stroke="#fff" stroke-width=".8" stroke-linecap="round" stroke-linejoin="round"/><path d="m285.13 233 15.43-8 10.25 19.75-33.71 17.5-1.38-2.66a10.81 10.81 0 0 1-.712-8.252A10.81 10.81 0 0 1 280.34 245l4.79-12Z" fill="#fff" stroke="#0C296E" stroke-width=".8" stroke-miterlimit="10"/><path d="M310.816 244.682 277.1 262.188l1.839 3.542 33.715-17.507-1.838-3.541Z" fill="#0C296E" stroke="#0C296E" stroke-width=".8" stroke-miterlimit="10"/><path d="M290.88 230.28v-9h8.68v9c0 5.03-8.68 4.8-8.68 0Z" fill="#00D6B9"/><path d="M295.22 228.09a9.3 9.3 0 1 0 0-18.6 9.3 9.3 0 0 0 0 18.6Z" fill="#00D6B9" stroke="#0C296E" stroke-width=".8" stroke-linecap="round" stroke-linejoin="round"/><path d="m287.897 171.891-.418 1.367a9.19 9.19 0 0 1-11.474 6.104l-10.167-3.106 5.789-18.946 10.137 3.097a9.195 9.195 0 0 1 6.133 11.484Z" fill="#00D6B9"/><path d="M257 177.33h-.06" stroke="#040000" stroke-width=".8" stroke-linejoin="round"/><path d="m260.212 137.253-10.25 11.115 18.93 17.456 10.25-11.115-18.93-17.456Z" fill="#00D6B9"/><path d="m248.93 149.18 12.5-13.18-13-12.33c-4.75-4.52-9.64-11.28-14.86-5.83-.68.71-3.16 5.52 2.54 8.79 6.69 3.83 6.62 6.18 7.06 7.21 0 0-9.26-7.31-11.84-1.6-1.46 3.25 2.23 5.14 3.74 6.1 2.12 1.35 6.1 6 8.88 4.27-.83 1.52 2.8 4.39 4.98 6.57Z" fill="#fff" stroke="#0C296E" stroke-width=".8" stroke-miterlimit="10"/><path d="M243.21 133.87s5.42 3.42.78 8.77l-.78-8.77Z" fill="#fff"/><path d="M243.21 133.87s5.42 3.42.78 8.77" stroke="#0C296E" stroke-width=".8" stroke-miterlimit="10"/><path d="m320.06 143-3.75.78-.87.18-45.83 9.49-.45.09-3.4.71h-.2V193a27.262 27.262 0 0 0 27.26 27.26A27.26 27.26 0 0 0 320.08 193v-50h-.02Z" fill="#00D6B9"/><path d="M316.42 146c.17 3.55-15.21 13-29.93 13-14.72 0-19.93-2.58-19.93-8.85 0-18.52 13.24-27.42 28-27.42a24.852 24.852 0 0 1 23.63 15.81c1.07 2.67-1.92 4.38-1.77 7.46Z" fill="#fff" stroke="#0C296E" stroke-width=".8" stroke-miterlimit="10"/><path d="M320.06 143c-.3 5.87-10.29 13.94-24 17.18-14.78 3.5-28.84.4-30.33-5.89a6.857 6.857 0 0 1-.2-1.62c.039-.71.115-1.418.23-2.12.13-1 .9-.85.9-.85.035.153.078.303.13.45a6.789 6.789 0 0 0 2.79 3.32c4.8 3.27 14.68 4.33 25.32 1.8 9.36-2.21 16.9-6.81 20.51-11.29 1.83-2.26 2.66-4.49 2.21-6.38a.335.335 0 0 1 .11-.08.848.848 0 0 1 1.078.141.86.86 0 0 1 .192.339c.35 1.33.57 2.17.93 3.68.106.432.15.876.13 1.32Z" fill="#00D6B9"/><path d="M320.06 143c-.3 5.87-10.29 13.94-24 17.18s-26.88.8-29.84-4.63" stroke="#0C296E" stroke-width=".8" stroke-linecap="round" stroke-linejoin="round"/><path d="M281.68 136.05h-.35a2.18 2.18 0 0 0-2.18 2.18v4.96a2.18 2.18 0 0 0 2.18 2.18h.35a2.18 2.18 0 0 0 2.18-2.18v-4.96a2.18 2.18 0 0 0-2.18-2.18Z" fill="#0C296E"/><path d="M282.58 218a27.2 27.2 0 0 0 10 1.88 27.133 27.133 0 0 0 14-3.86" stroke="#0C296E" stroke-width=".8" stroke-linecap="round" stroke-linejoin="round"/><path d="M281.68 136.05h-.35a2.18 2.18 0 0 0-2.18 2.18v4.96a2.18 2.18 0 0 0 2.18 2.18h.35a2.18 2.18 0 0 0 2.18-2.18v-4.96a2.18 2.18 0 0 0-2.18-2.18Z" fill="#0C296E"/><path d="M286.47 195.62h11.48v-21.09h-11.48v21.09Z" fill="#00D6B9" stroke="#0C296E" stroke-width=".8" stroke-linecap="round" stroke-linejoin="round"/><path d="M291.81 165h1.34a8.58 8.58 0 0 1 8.58 8.58v9.91h-18.5v-9.91a8.58 8.58 0 0 1 8.58-8.58ZM284.32 198.78h-.59a3.79 3.79 0 0 0-3.79 3.79v7.79a3.79 3.79 0 0 0 3.79 3.79h.59a3.79 3.79 0 0 0 3.79-3.79v-7.79a3.79 3.79 0 0 0-3.79-3.79Z" fill="#fff" stroke="#0C296E" stroke-width=".8" stroke-miterlimit="10"/><path d="M283.23 204.66v5.09a9.23 9.23 0 0 0 .615 3.632 9.24 9.24 0 0 0 5.02 5.189 9.252 9.252 0 0 0 12.855-8.821v-14.34h-18.49v3.46a7.196 7.196 0 0 1 0 5.79Z" fill="#fff" stroke="#0C296E" stroke-width=".8" stroke-miterlimit="10"/><path d="m266.5 149.66-.38 16.06" stroke="#0C296E" stroke-width=".8" stroke-linecap="round" stroke-linejoin="round"/><path d="M330.48 163.7H75.43v8.3h255.05v-8.3Z" fill="#F2F2F2"/><path d="M61.93 265.12 75.43 172h255.1l13.49 93.12" stroke="#0C296E" stroke-width=".8" stroke-linecap="round" stroke-linejoin="round"/><path d="M78.59 140.9c12.929 0 23.41-10.481 23.41-23.41S91.519 94.08 78.59 94.08c-12.93 0-23.41 10.481-23.41 23.41s10.48 23.41 23.41 23.41Z" fill="#00D6B9"/><path d="M90.4 104.37c6.025 0 10.91-4.885 10.91-10.91 0-6.026-4.885-10.91-10.91-10.91s-10.91 4.884-10.91 10.91c0 6.025 4.885 10.91 10.91 10.91Z" fill="#FFC60A"/><path d="M90.4 99.54a6.08 6.08 0 1 0 0-12.16 6.08 6.08 0 0 0 0 12.16ZM94.54 89.02l-8.22 8.94" stroke="#fff" stroke-width=".8" stroke-linecap="round" stroke-linejoin="round"/><path d="M90.4 109.1H66.78v20.89H90.4V109.1Z" fill="#fff" stroke="#0C296E" stroke-width=".8" stroke-miterlimit="10"/><path d="M90.4 109.1H66.78v6.02H90.4v-6.02Z" fill="#00D6B9" stroke="#0C296E" stroke-width=".8" stroke-linecap="round" stroke-linejoin="round"/><path d="M72.47 106.96v4.29M84.71 106.96v4.29M72.17 119.07h12.84M72.17 122.42h12.84M72.17 125.77h7.55" stroke="#0C296E" stroke-width=".8" stroke-linecap="round" stroke-linejoin="round"/><path d="M275.82 39.53h-58.43v53.16h58.43V39.53Z" fill="#FFC60A"/><path d="M259.31 64.33h-27.02v4.79h27.02v-4.79Z" fill="#fff"/><path d="M248.18 80.23V53.21h-4.79v27.02h4.79Z" fill="#fff"/><path d="M217.28 39.9h-92.97v52.42h92.97V39.9Z" fill="#fff" stroke="#0C296E" stroke-width=".8" stroke-linecap="round" stroke-linejoin="round"/><path fill-rule="evenodd" clip-rule="evenodd" d="M201.57 80.56a1.461 1.461 0 0 1-1.51 1.4h-11.24a1.779 1.779 0 0 0 1.47-1.71s0-6.38-5-8.7a9.477 9.477 0 0 0-3.34-1v-2.76s-1.17-.83-1.53-3.44c-.73.2-1-.8-1-1.43 0-.63-.42-2.53.47-2.35a15.797 15.797 0 0 1-.25-3c.22-2.14 2.44-4.38 5.86-4.54 4 .16 5.61 2.4 5.83 4.54a15.885 15.885 0 0 1-.26 3c.89-.17.5 1.74.46 2.35-.04.61-.29 1.63-1 1.43-.36 2.61-1.53 3.44-1.53 3.44v2.76s.74.39 3.86 1.6 2.14.3 4.68 1.48c4 1.86 4 7 4 7l.03-.07ZM140 80.56s0-5.12 4-7c2.54-1.18 1.56-.28 4.68-1.48 3.12-1.2 3.86-1.6 3.86-1.6v-2.76s-1.17-.83-1.53-3.44c-.73.2-1-.8-1-1.43 0-.63-.43-2.52.46-2.35a15.969 15.969 0 0 1-.26-3c.22-2.14 1.81-4.38 5.83-4.54 3.42.16 5.63 2.4 5.86 4.54a15.717 15.717 0 0 1-.25 3c.89-.17.51 1.74.47 2.35-.04.61-.28 1.63-1 1.43-.36 2.61-1.53 3.44-1.53 3.44v2.76a9.475 9.475 0 0 0-3.34 1c-5 2.32-5 8.7-5 8.7a1.778 1.778 0 0 0 1.53 1.82h-11.24a1.46 1.46 0 0 1-1.51-1.4l-.03-.04Z" fill="#E0E2E4"/><path fill-rule="evenodd" clip-rule="evenodd" d="M178.93 71.12c3.43 1.32 2.35.33 5.15 1.63 4.42 2 4.42 7.67 4.42 7.67a1.59 1.59 0 0 1-.5 1.144 1.604 1.604 0 0 1-1.17.436h-32.06a1.602 1.602 0 0 1-1.66-1.54s0-5.63 4.42-7.67c2.79-1.29 1.72-.24 5.15-1.57a40.972 40.972 0 0 0 4.24-1.78v-3s-1.28-.91-1.68-3.78c-.8.22-1.07-.88-1.12-1.58-.05-.7-.47-2.78.52-2.59a17.313 17.313 0 0 1-.27-3.34c.25-2.36 2.68-4.82 6.44-5 4.42.18 6.16 2.64 6.41 5a17.402 17.402 0 0 1-.29 3.34c1-.19.55 1.91.51 2.59-.04.68-.31 1.79-1.12 1.57-.4 2.87-1.69 3.78-1.69 3.78v3s.87.36 4.3 1.69Z" fill="#E0E2E4"/><path d="M345.43 66.88h-10a1.722 1.722 0 0 1-1.589-1.715 1.723 1.723 0 0 1 1.589-1.715h1.23a3.428 3.428 0 0 0 3.43-3.43 3.427 3.427 0 0 0-3.43-3.43h-21.14a3.428 3.428 0 0 0-3.43 3.43 3.427 3.427 0 0 0 3.43 3.43H324a1.718 1.718 0 0 1 1.707 2.403 1.704 1.704 0 0 1-1.01.936 1.716 1.716 0 0 1-.697.09h-2.44a3.428 3.428 0 0 0-3.43 3.43 3.427 3.427 0 0 0 3.43 3.43h23.88a3.428 3.428 0 0 0 3.168-4.744 3.424 3.424 0 0 0-1.862-1.857 3.435 3.435 0 0 0-1.316-.258Z" fill="#F0F1F2"/></svg>