<svg viewBox="0 0 400 300" fill="none" xmlns="http://www.w3.org/2000/svg"><path d="M112.39 169.34s-34.83-.5-44.55-15c-1.67-2.49-3.34 1.33-3.67 5.12-3.72 14.82 18.6 24 45.68 27.57.77-8.9 2.54-17.69 2.54-17.69Z" fill="#3370FF"/><path d="M72.37 134.16c11.7-6.79 28.57-6.15 28.57-6.15s.57 9.56.57 16.5c-26.68 2.06-36.68 11.93-37.35 20.63l-.54-19.51c-.14-5.03 3.81-8.63 8.75-11.47Z" fill="#fff" stroke="#0C296E" stroke-width=".8" stroke-linecap="round" stroke-linejoin="round"/><path d="m45.92 245.16 263.21.1" stroke="#0C296E" stroke-width=".8" stroke-miterlimit="10"/><path d="M187.19 128.68c16.022 0 29.01-12.988 29.01-29.01 0-16.022-12.988-29.01-29.01-29.01-16.022 0-29.01 12.988-29.01 29.01 0 16.022 12.988 29.01 29.01 29.01Z" fill="#fff"/><path d="M187.19 128.68c16.022 0 29.01-12.988 29.01-29.01 0-16.022-12.988-29.01-29.01-29.01-16.022 0-29.01 12.988-29.01 29.01 0 16.022 12.988 29.01 29.01 29.01Z" stroke="#0C296E" stroke-width=".8" stroke-miterlimit="10"/><path d="M187.19 121.79c14.89 0 26.96-8.592 26.96-19.19s-12.07-19.19-26.96-19.19-26.96 8.592-26.96 19.19 12.07 19.19 26.96 19.19Z" fill="#fff" stroke="#0C296E" stroke-width=".8" stroke-linecap="round" stroke-linejoin="round"/><path d="M187.11 84.6c14 0 25.59 7.62 26.92 17.37.086-.684.13-1.372.13-2.06 0-11.62-12.11-22.64-27.05-22.64-14.94 0-27.05 11-27.05 22.64.001.688.044 1.376.13 2.06 1.33-9.75 12.87-17.37 26.92-17.37Z" fill="#00D6B9"/><path d="M158.75 110.89a4.098 4.098 0 0 1-4.08-4.08V98.7a4.1 4.1 0 0 1 4.08-4.08 4.1 4.1 0 0 1 4.08 4.08v8.1a4.101 4.101 0 0 1-4.08 4.09ZM215.62 94.62h-.49a3.84 3.84 0 0 0-3.84 3.84v8.59a3.84 3.84 0 0 0 3.84 3.84h.49a3.84 3.84 0 0 0 3.84-3.84v-8.59a3.84 3.84 0 0 0-3.84-3.84Z" fill="#fff" stroke="#0C296E" stroke-width=".8" stroke-miterlimit="10"/><path d="M180.51 99.36a2.04 2.04 0 1 0 0-4.08 2.04 2.04 0 0 0 0 4.08ZM193.32 99.36a2.04 2.04 0 1 0 0-4.08 2.04 2.04 0 0 0 0 4.08Z" fill="#0C296E"/><path d="m96.61 244.45 14.82-95.7c.78-13.23 11.67-20.06 21.56-20.06H241c9.89 0 16.9 6.07 21.56 16.14 0 0 5.77 8.91 11.46 60.24.83 7.54 4.69 39.67-20.56 39.67-25.41 0-53.82.1-53.82.1l-103.03-.39Z" fill="#fff"/><path d="M271.31 149.93h-19.98v14.83h19.98v-14.83Z" fill="#00D6B9"/><path d="m96.61 244.45 14.82-95.7c.78-13.23 11.67-20.06 21.56-20.06H241c9.89 0 16.9 6.07 21.56 16.14 0 0 5.77 8.91 11.46 60.24.83 7.54 4.69 39.67-20.56 39.67-25.41 0-53.82.1-53.82.1l-103.03-.39Z" stroke="#0C296E" stroke-width=".8" stroke-miterlimit="10"/><path d="M211.55 170.03h-45.1v26.13h45.1v-26.13Z" fill="#00D6B9" stroke="#0C296E" stroke-width=".8" stroke-linecap="round" stroke-linejoin="round"/><path d="M198.42 183.75a5.01 5.01 0 1 0 0-10.02 5.01 5.01 0 0 0 0 10.02ZM198.42 193.19a3.33 3.33 0 1 0 0-6.66 3.33 3.33 0 0 0 0 6.66Z" fill="#fff"/><path d="M175.59 170.03v13.07h5.18v13.06" stroke="#0C296E" stroke-width=".8" stroke-linecap="round" stroke-linejoin="round"/><path d="M227 129.19c-3.28 6.22-3.63 22.28-3.63 22.28v51.27H237V167.1s-1.3-31.44 4-37.91M147 129.19c3.28 6.22 3.63 22.28 3.63 22.28v92.78h-13.65V167.1s1.3-31.44-4-37.91" fill="#00D6B9"/><path d="M266.55 202.74h-70.97v42.64h70.97" fill="#fff"/><path d="M266.55 202.74h-70.97v42.64h70.97" stroke="#0C296E" stroke-width=".8" stroke-miterlimit="10"/><path d="M210.88 203.13h-14.94v41.9h14.94v-41.9Z" fill="#00D6B9"/><path d="M324.96 141.44h-28.62a5.04 5.04 0 0 0-5.04 5.04v.06a5.04 5.04 0 0 0 5.04 5.04h28.62a5.04 5.04 0 0 0 5.04-5.04v-.06a5.04 5.04 0 0 0-5.04-5.04Z" fill="#FFC60A"/><path d="M339.38 147.77h-28.62a5.04 5.04 0 0 0-5.04 5.04v.06a5.04 5.04 0 0 0 5.04 5.04h28.62a5.04 5.04 0 0 0 5.04-5.04v-.06a5.04 5.04 0 0 0-5.04-5.04Z" stroke="#0C296E" stroke-width=".8" stroke-linecap="round" stroke-linejoin="round"/><path d="M106.71 236.88a24.682 24.682 0 0 1-8.4-16.956A24.695 24.695 0 0 1 104.38 202l49.25-56.81 37.17 32.51-29 33.63-20.27 23.18a24.688 24.688 0 0 1-34.82 2.37Z" fill="#fff"/><path d="M107.39 198.25c-10.06 16.81 6.33 49.15 35.45 34.35 0 0 10.88 12.94-5.6 16.13-16.48 3.19-42 12.4-43.59-10.45-1.59-22.85-12-43.91 13.73-40" fill="#00D6B9"/><path d="M106.71 236.88a24.682 24.682 0 0 1-8.4-16.956A24.695 24.695 0 0 1 104.38 202l49.25-56.81 37.17 32.51-29 33.63-20.27 23.18a24.688 24.688 0 0 1-34.82 2.37Z" stroke="#0C296E" stroke-width=".8" stroke-miterlimit="10"/><path d="m190.363 177.881-36.759-32.157-7.888 9.016 36.759 32.158 7.888-9.017Z" fill="#00D6B9"/><path d="M187.29 174.71s10.72-9.21 15.44-15.23c2.87-3.65.14-5.91.14-5.91s5-3.51.54-7.94c4.45-5.26-1.08-8.21-1.08-8.21a15.866 15.866 0 0 0 4.26-3.42c7.07-7.95-.3-13.42-3.72-11-6.53 5.39-17.83 9-22.93 8.69-5.1-.31-6-2.84-8.58-7.73-2.58-4.89-6.36-6.78-9.89-3.87-3.53 2.91-.68 8.86 1.74 13.75 2.42 4.89.18 6.16.18 6.16l-7.12 7.62 31.02 27.09Z" fill="#fff" stroke="#0C296E" stroke-width=".8" stroke-linecap="round" stroke-linejoin="round"/><path d="M202.33 137.42s-7 4.37-9.58 5.79l9.58-5.79Z" fill="#fff"/><path d="M202.33 137.42s-7 4.37-9.58 5.79" stroke="#0C296E" stroke-width=".8" stroke-miterlimit="10"/><path d="M203.41 145.63s-5.68 3.56-8.66 5.15l8.66-5.15Z" fill="#fff"/><path d="M203.41 145.63s-5.68 3.56-8.66 5.15" stroke="#0C296E" stroke-width=".8" stroke-miterlimit="10"/><path d="M202.87 153.57s-5.37 3.14-7.37 4.53l7.37-4.53Z" fill="#fff"/><path d="M202.87 153.57s-5.37 3.14-7.37 4.53" stroke="#0C296E" stroke-width=".8" stroke-miterlimit="10"/><path d="M122.41 61.73h-60a16.49 16.49 0 0 0-16.49 16.48A16.49 16.49 0 0 0 62.41 94.7h45.41L122 107.08V94.7h.42a16.49 16.49 0 0 0 16.49-16.49 16.482 16.482 0 0 0-4.837-11.657 16.49 16.49 0 0 0-11.663-4.822Z" fill="#FFC60A"/><path d="M75.48 82.74a4.53 4.53 0 1 0 0-9.06 4.53 4.53 0 0 0 0 9.06ZM92.41 82.74a4.53 4.53 0 1 0 0-9.06 4.53 4.53 0 0 0 0 9.06ZM109.34 82.74a4.53 4.53 0 1 0 0-9.06 4.53 4.53 0 0 0 0 9.06Z" fill="#fff"/><path d="M347.48 53.55h-88.02c-7.826 0-14.17 6.344-14.17 14.17v36.37c0 7.826 6.344 14.17 14.17 14.17h88.02c7.826 0 14.17-6.344 14.17-14.17V67.72c0-7.826-6.344-14.17-14.17-14.17Z" fill="#00D6B9"/><path d="M290.68 110.04c13.332 0 24.14-10.808 24.14-24.14s-10.808-24.14-24.14-24.14-24.14 10.808-24.14 24.14 10.808 24.14 24.14 24.14Z" fill="#fff"/><path d="M309.11 131.88c-12 3.79-23.77 3.62-35.78.17l-.4-.12a6.003 6.003 0 0 1-4.1-4.17 74.157 74.157 0 0 1 .08-37.19 3.999 3.999 0 0 1 3.51-3.47 85.759 85.759 0 0 1 37.46.09A3.764 3.764 0 0 1 312.8 90l.07.36a92.932 92.932 0 0 1 .08 37.48 5.324 5.324 0 0 1-3.67 4l-.17.04Z" fill="#00D6B9"/><path d="M308.1 84.87c0 3.77-7.66 7.8-17.1 7.8-9.44 0-17.1-3.78-17.1-7.8 0-8.67 7.66-15.7 17.1-15.7 9.44 0 17.1 7.03 17.1 15.7Z" fill="#fff" stroke="#0C296E" stroke-width=".8" stroke-miterlimit="10"/><path d="M308.09 83.73c0 3.77-7.65 7.8-17.08 7.8-9.43 0-17.08-3.78-17.08-7.8 0 0-.63-.28-.7.41a19.867 19.867 0 0 0-.15 2.51c0 4.22 8 8.19 17.93 8.19s17.93-4.23 17.93-8.19v-2.48c-.08-.6-.77-.52-.85-.44Z" fill="#00D6B9"/><path d="M273.92 83.73s-.63-.28-.7.41a19.867 19.867 0 0 0-.15 2.51c0 4.22 8 8.19 17.93 8.19s17.93-4.23 17.93-8.19v-2.48c0-.61-.73-.52-.81-.44" stroke="#0C296E" stroke-width=".8" stroke-linecap="round" stroke-linejoin="round"/><path d="M285.76 77.6h-1.37a.85.85 0 0 0-.85.85v4.38c0 .47.381.85.85.85h1.37a.85.85 0 0 0 .85-.85v-4.38a.85.85 0 0 0-.85-.85ZM297.62 77.6h-1.37a.85.85 0 0 0-.85.85v4.38c0 .47.38.85.85.85h1.37a.85.85 0 0 0 .85-.85v-4.38a.85.85 0 0 0-.85-.85Z" fill="#0C296E"/><path d="M290.68 110.04c13.332 0 24.14-10.808 24.14-24.14s-10.808-24.14-24.14-24.14-24.14 10.808-24.14 24.14 10.808 24.14 24.14 24.14Z" stroke="#0C296E" stroke-width=".8" stroke-miterlimit="10"/><path d="M348.89 72.99h-24.33v4.81h24.33v-4.81ZM348.89 83.49h-24.33v4.81h24.33v-4.81ZM339.41 94h-14.85v4.81h14.85V94Z" fill="#fff"/><path d="M246.5 100.47c7.588 0 13.74-6.151 13.74-13.74 0-7.588-6.152-13.74-13.74-13.74-7.589 0-13.74 6.152-13.74 13.74 0 7.589 6.151 13.74 13.74 13.74Z" fill="#FFC60A"/><path d="M252.56 85.52h-4.86v-4.85h-2.41v4.85h-4.85v2.41h4.85v4.86h2.41v-4.86h4.86v-2.41Z" fill="#fff"/><path d="M135.19 224.19H62.97v21.02h72.22v-21.02Z" fill="#0C296E" stroke="#0C296E" stroke-width=".8" stroke-miterlimit="10"/><path d="M135.18 224.19h-19.61v21.02h19.61v-21.02Z" fill="#fff" stroke="#0C296E" stroke-width=".8" stroke-linecap="round" stroke-linejoin="round"/><path d="M104.03 232.13H71.09v5.14h32.94v-5.14Z" fill="#fff"/><path d="M115.46 229.69h9.8M135.07 235.05h-11.22M119.35 240.28h10.17" stroke="#0C296E" stroke-width=".8" stroke-miterlimit="10"/><path d="M121.85 203.11H49.63v21.02h72.22v-21.02Z" fill="#00D6B9" stroke="#0C296E" stroke-width=".8" stroke-miterlimit="10"/><path d="M69.24 203.11H49.63v21.02h19.61v-21.02Z" fill="#fff" stroke="#0C296E" stroke-width=".8" stroke-linecap="round" stroke-linejoin="round"/><path d="M116.27 211.05H83.33v5.14h32.94v-5.14Z" fill="#fff"/><path d="M49.63 208.89h9.81M69.24 214.25H58.02M53.53 219.48h10.16" stroke="#0C296E" stroke-width=".8" stroke-miterlimit="10"/><path d="M355.5 234.72c-1.67 11.74-28.17 10.71-39.08 10.66-.16-4.22 1.07-9.88.93-14.25 20.2.24 32.1-1.91 35.82-7.68 2.06.79 2.25 6.32 2.33 11.27Z" fill="#3370FF"/><path d="M320.75 235.3H243.7l24.78-52.2h77.05l-24.78 52.2Z" fill="#F0F1F2"/><path d="M345.53 183.1h-77.05l-24.78 52.2" stroke="#0C296E" stroke-width=".8" stroke-linecap="round" stroke-linejoin="round"/><path d="M320.75 235.3H216.2v9.95h104.55v-9.95Z" fill="#0C296E" stroke="#0C296E" stroke-width=".8" stroke-miterlimit="10"/><path d="M243.7 235.3v9.15" stroke="#0C296E" stroke-width=".8" stroke-linecap="round" stroke-linejoin="round"/><path d="M320.75 235.3h-76.37v9.95h76.37v-9.95Z" fill="#E0E2E4" stroke="#0C296E" stroke-width=".8" stroke-linecap="round" stroke-linejoin="round"/><path d="M303 196.89c21.27-.21 38.21 3.15 46.54 9.4a14.93 14.93 0 0 1 6.13 12c0 5.59-.23 11.18-.14 16.77.58-12.15-21.07-21.64-53.12-22.51.21-7.33.44-8.88.59-15.66ZM153.1 223.44c0 4.51 3.12 5.67 6 4.58-4.68.58-5.62 10.47 2.84 9.36-1.17 1.17-2.51 7.39 4.39 7.39 6.19 0 29.27-.06 29.27-.06v-36.43a79.742 79.742 0 0 0-14.67-3.28c-6.82-.67-14.21 1.94-14.21 1.94s-7.19 1.53-9.77 4c-2.58 2.47-1.31 7 .62 7-1.49.64-4.47 2.51-4.47 5.5Z" fill="#fff" stroke="#0C296E" stroke-width=".8" stroke-linecap="round" stroke-linejoin="round"/><path d="m159.08 228.02 12.86-1.87M161.92 237.37l12.17-1.03M157.56 217.93l14.46-2.62" stroke="#0C296E" stroke-width=".8" stroke-linecap="round" stroke-linejoin="round"/></svg>