<svg viewBox="0 0 400 300" fill="none" xmlns="http://www.w3.org/2000/svg"><path d="M247.35 126.88c48.36-3 64.33-13.22 61.94-32-.58-3.68.88-6.08-1-3.34-16.15 23.05-64.73 16.34-98.23 18.33l37.29 17.01Z" fill="#3370FF"/><path d="m115.83 203 .07 15.41c-8.72 1.4-22.56 4-28.52 5.65-17.21 4.68-26.35 8.68-27.2 18.05.06-9.61 0-11.71 0-15.61 0-17.5 34.39-22.06 55.65-23.5Z" fill="#0C296E"/><path d="m113.95 252.99-33.18.15-.06-11.86 3.25-25.3 26.47-.11 3.47 25 .05 12.12Z" fill="#fff" stroke="#0C296E" stroke-width=".8" stroke-linecap="round" stroke-linejoin="round"/><path d="m113.92 245.491-33.19.145.033 7.51 33.19-.145-.033-7.51Z" fill="#0C296E"/><path d="M80.71 240.67c2.78-3.47 9.15-5.92 16.57-6 7.42-.08 13.8 2.36 16.62 5.8" fill="#fff"/><path d="M80.71 240.67c2.78-3.47 9.15-5.92 16.57-6 7.42-.08 13.8 2.36 16.62 5.8" stroke="#0C296E" stroke-width=".8" stroke-linecap="round" stroke-linejoin="round"/><path d="M91.15 216.78 91 204.54l11.85-.14.14 12.25c.01 3.27-11.81 3.41-11.84.13Z" fill="#00D6B9"/><path d="m174.82 214.95-26.81 19.55-6.99-9.57-12.18-22.41 21.38-15.6 17.46 18.24 7.14 9.79Z" fill="#fff" stroke="#0C296E" stroke-width=".8" stroke-linecap="round" stroke-linejoin="round"/><path d="m170.394 208.903-26.817 19.555 4.425 6.068 26.817-19.555-4.425-6.068Z" fill="#0C296E"/><path d="M140.66 224.43c.22-4.45 4-10.16 9.94-14.53 5.94-4.37 12.57-6.18 16.87-5" fill="#fff"/><path d="M140.66 224.43c.22-4.45 4-10.16 9.94-14.53 5.94-4.37 12.57-6.18 16.87-5" stroke="#0C296E" stroke-width=".8" stroke-linecap="round" stroke-linejoin="round"/><path d="M135.21 198.85 128 189l9.58-7 7.22 9.9c1.91 2.61-7.66 9.59-9.59 6.95Z" fill="#00D6B9"/><path d="M103.062 208.26c6.009-3.628 7.94-11.44 4.312-17.45-3.628-6.009-11.44-7.939-17.45-4.312-6.01 3.628-7.94 11.441-4.312 17.45 3.628 6.01 11.44 7.94 17.45 4.312ZM132.899 190.249c6.009-3.627 7.94-11.44 4.312-17.449-3.628-6.01-11.44-7.94-17.45-4.312-6.009 3.628-7.94 11.44-4.312 17.45 3.628 6.009 11.441 7.939 17.45 4.311Z" fill="#00D6B9" stroke="#0C296E" stroke-width=".8" stroke-linecap="round" stroke-linejoin="round"/><path d="m55.353 137.372 37.24-22.482a12.148 12.148 0 0 1 16.68 4.122l20.115 33.318a28.782 28.782 0 0 1-9.763 39.513l-8.741 5.277a28.815 28.815 0 0 1-21.801 3.305 28.819 28.819 0 0 1-17.753-13.079l-20.1-33.293a12.15 12.15 0 0 1 4.123-16.681Z" fill="#00D6B9"/><path d="M134.23 169.47a26.62 26.62 0 0 1-12.83 21.17l-12.4 7.48a26.648 26.648 0 0 1-25 1.36" stroke="#0C296E" stroke-width=".8" stroke-linecap="round" stroke-linejoin="round"/><path d="M94 110.5c3 4.94-3.86 16.29-16.24 23.76-12.38 7.47-25.41 8.57-28.59 3.3-6.86-11.37-2.39-26.64 10-34.11 12.39-7.47 27.95-4.32 34.83 7.05Z" fill="#fff" stroke="#0C296E" stroke-width=".8" stroke-linecap="round" stroke-linejoin="round"/><path d="m125.348 146.352 11.412-6.889-14.347-23.765-11.412 6.889 14.347 23.765Z" fill="#00D6B9" stroke="#0C296E" stroke-width=".8" stroke-linecap="round" stroke-linejoin="round"/><path d="M113.15 133.4 131 122.62l-5-8.36a11.094 11.094 0 0 0-11.16-5.233c-1.44.219-2.823.719-4.07 1.473l-5.13 3.1s-3.22 1.95 1.11 9.13l6.4 10.67ZM123.12 147.41 140 137.25l10 16.6c3.67 6.08 4.72 13.66-2.74 17-3 1.35-7.13-.38-6-5.1 1-4.27.45-9.38-3.27-8.73 0 0 4.15 11.85-2.49 13.24-3.78.79-5-3.42-5.7-5.24-.93-2.56-3.44-8.35-.91-10.87-1.78.59-4.01-3.93-5.77-6.74Z" fill="#fff" stroke="#0C296E" stroke-width=".8" stroke-linecap="round" stroke-linejoin="round"/><path d="M138 157s-2.35-6.54-9.1-2.87L138 157Z" fill="#fff"/><path d="M138 157s-2.35-6.54-9.1-2.87" stroke="#0C296E" stroke-width=".8" stroke-linecap="round" stroke-linejoin="round"/><path d="M67.675 117.808a2.35 2.35 0 0 0-4.024 2.429l1.917 3.176a2.35 2.35 0 1 0 4.024-2.429l-1.917-3.176ZM82.336 110.533a2.35 2.35 0 0 0-4.023 2.429l1.917 3.176a2.35 2.35 0 0 0 4.024-2.429l-1.918-3.176Z" fill="#0C296E"/><path d="M92.93 108.8c3 4.94-3.86 16.28-16.23 23.74-12.37 7.46-25.39 8.57-28.57 3.3 0 0-1 .14-.6 1.09a30.598 30.598 0 0 0 1.79 3.41c3.34 5.53 17 4.38 30-3.46s20.16-19.74 17-24.92c-.8-1.32-1.26-2.06-2-3.22a.845.845 0 0 0-.71-.331.853.853 0 0 0-.68.391Z" fill="#00D6B9"/><path d="M49.32 140.34c3.34 5.53 17 4.38 30-3.46s20.16-19.74 17-24.92" stroke="#0C296E" stroke-width=".8" stroke-linecap="round" stroke-linejoin="round"/><path d="M287.22 50.12H96.91v203.56h190.31V50.12Z" fill="#fff" stroke="#0C296E" stroke-width=".8" stroke-linecap="round" stroke-linejoin="round"/><path d="M189.49 210.15c29.956 0 54.24-24.284 54.24-54.24 0-29.956-24.284-54.24-54.24-54.24-29.956 0-54.24 24.284-54.24 54.24 0 29.956 24.284 54.24 54.24 54.24ZM226.45 116.29l-73.33 79.78" stroke="#FFC60A" stroke-width="20" stroke-miterlimit="10"/><path d="M253.63 65.28H130.51c-4.462 0-8.08 3.616-8.08 8.075 0 4.46 3.618 8.075 8.08 8.075h123.12a8.077 8.077 0 0 0 8.08-8.075 8.077 8.077 0 0 0-8.08-8.075Z" fill="#F2F2F2" stroke="#0C296E" stroke-width=".8" stroke-linecap="round" stroke-linejoin="round"/><path d="M113.57 227.54h152.5M113.57 240.07h59.98" stroke="#0C296E" stroke-width=".8" stroke-linecap="round" stroke-linejoin="round"/><path d="M298.2 266.74h30.01v-34.97H298.2v34.97Z" fill="#fff" stroke="#0C296E" stroke-width=".8" stroke-miterlimit="10"/><path d="M310.63 246.73c0-11 8.8-14.38 19.11-14.38 5.8 0 14.56.71 17.86 3.59 0 3.94-.08 6-.08 10.79 0 11-7.92 20-18.23 20s-18.66-8.95-18.66-20Z" fill="#fff" stroke="#0C296E" stroke-width=".8" stroke-miterlimit="10"/><path d="M298.2 241.04h49.68v-10.19H298.2v10.19Z" fill="#0C296E"/><path d="M276.67 266.74h30.01v-34.97h-30.01v34.97Z" fill="#fff" stroke="#0C296E" stroke-width=".8" stroke-miterlimit="10"/><path d="M289.1 246.73c0-11 8.8-14.38 19.11-14.38 5.8 0 14.56.71 17.86 3.59 0 3.94-.08 6-.08 10.79 0 11-7.92 20-18.23 20s-18.66-8.95-18.66-20Z" fill="#fff" stroke="#0C296E" stroke-width=".8" stroke-miterlimit="10"/><path d="M276.68 241.04h49.68v-10.19h-49.68v10.19Z" fill="#0C296E"/><path d="M326.07 241.04v-10.19" stroke="#fff" stroke-width=".8" stroke-miterlimit="10"/><path d="M333 148.9a6.487 6.487 0 0 0-6.786-6.227A6.487 6.487 0 0 0 323 143.7a13.286 13.286 0 0 0-17.79-5.64 17.131 17.131 0 0 0-29.48 10.83l57.27.01Z" fill="#F0F1F2"/><path d="M86.06 171.71c-1.3-2.26-.8-4.25 1.73-6.47a48.388 48.388 0 0 1 5.14-3.69c1.61-1 6.45-3 6.45-3 2.84-1.1 5.17-.52 6.47 1.73a4.75 4.75 0 0 1-1.73 6.47l-11.59 6.69a4.75 4.75 0 0 1-6.47-1.73Z" fill="#fff" stroke="#0C296E" stroke-width=".8" stroke-linecap="round" stroke-linejoin="round"/><path d="m84.85 169.67 6.67 12.13-19.25 10.54a11.07 11.07 0 0 1-14.69-3.82L47.1 171.84l12.5-7.45 8.5 14.08 16.75-8.8Z" fill="#00D6B9" stroke="#0C296E" stroke-width=".8" stroke-linecap="round" stroke-linejoin="round"/><path d="m67.09 171.89-16.41 9.9-4.68-7.67a10.19 10.19 0 0 1 3.46-14l4.72-2.85s3-1.79 6.94 4.81l5.97 9.81Z" fill="#fff" stroke="#0C296E" stroke-width=".8" stroke-linecap="round" stroke-linejoin="round"/><path d="m68.1 178.47-3.41 15" stroke="#0C296E" stroke-width=".8" stroke-linecap="round" stroke-linejoin="round"/><path d="m325.22 194.72 10.39-13.66 8.17 16.33-18.56-2.67Z" fill="#3370FF"/><path d="M331.56 79.74a7.28 7.28 0 1 0 0-14.561 7.28 7.28 0 0 0 0 14.56Z" fill="#00D6B9"/><path d="m79.187 171.064 17.167-7.464a9.827 9.827 0 0 1 7.516-.131 9.819 9.819 0 0 1 .316 18.145l-17.167 7.464-7.832-18.014Z" fill="#fff" stroke="#0C296E" stroke-width=".803" stroke-linecap="round" stroke-linejoin="round"/><path d="M298 71.1a72.206 72.206 0 0 0-21.61-4.57s-.21 8.36-.29 15c24 1.73 33.19 12.21 33.12 20.77l.13-15.3A17.44 17.44 0 0 0 298 71.1Z" fill="#fff" stroke="#0C296E" stroke-width=".8" stroke-linecap="round" stroke-linejoin="round"/><path d="M64.69 58.05a15.46 15.46 0 0 0 10.18 10.19 15.461 15.461 0 0 0-10.18 10.18A15.46 15.46 0 0 0 54.5 68.24a15.459 15.459 0 0 0 10.19-10.19Z" fill="#FFC60A"/><path d="M60.35 240.48c0 9.79 13.1 13.16 20.54 13.26 17.28.24 61 1 80.27-.28-60.75-6.27-83.2-12.65-93.7-17.65-5.08-2.42-7.12-5.41-7.12-8.06l.01 12.73Z" fill="#3370FF"/><path d="M185.81 149.36c5.59 17.55 47 18.6 53.91 21.9 2.43 1.15-8.68 4.62-14.11 6.35-21 6.69-44.11-7.08-51.66-30.76-7.55-23.68 3.39-48.16 24.33-55 8.25-2.69 18.73-4.95 15.61-1.56-6.53 7.11-37.49 29.54-28.08 59.07Z" fill="#E0E2E4" stroke="#0C296E" stroke-width=".8" stroke-linecap="round" stroke-linejoin="round"/><path d="M206 89.76c-20.89 6.66-31.74 31.17-24.23 54.74 7.51 23.57 30.54 37.29 51.43 30.63s31.74-31.17 24.23-54.74C249.92 96.82 226.85 83.1 206 89.76Zm24.42 68.8c-12.86 4.1-27-4.34-31.65-18.84-4.65-14.5 2.05-29.59 14.91-33.68s27 4.34 31.65 18.84c4.65 14.5-2.1 29.59-14.96 33.68h.05Z" fill="#fff" stroke="#0C296E" stroke-width=".8" stroke-linecap="round" stroke-linejoin="round"/><path d="M226.38 191.66h74.89v-4.87h-74.89v4.87Z" fill="#00D6B9" stroke="#0C296E" stroke-width=".8" stroke-linecap="round" stroke-linejoin="round"/><path d="m218.76 191.96.05.69" stroke="#0C296E" stroke-width=".8" stroke-miterlimit="10"/><path d="M183.49 229a37.779 37.779 0 0 0 37.77 37.77h55.61s.17-35.28.17-36.38c26.42.35 30.55-25 24.11-39.17l-62.87.43-16.7.25c-.95 0-1.89 0-2.82.08a37.997 37.997 0 0 0-23 9.53A36.578 36.578 0 0 0 183.49 229Z" fill="#0C296E"/><path d="M282.6 230.85h-10.13c-5.18 10.56-5.72 23.21 0 36.25h10.13c-5.6-10.1-5.93-26.1 0-36.25Z" fill="#0C296E"/><path d="M272.47 230.71c-6.43 10.92-5.18 26 0 36.39" stroke="#F7F7F7" stroke-width=".8" stroke-miterlimit="10"/><path d="M247.35 194.34c0 5.35-3.79 10-8.64 10.76l-7.71 1.2-4.21 10.37h-15.28a13.322 13.322 0 0 0-10.87 5.09c-8.54 10.52-.62 26.29 12.94 26.29h54.53M278 230.56h-60" stroke="#F7F7F7" stroke-width=".8" stroke-miterlimit="10"/><path d="M184.79 222.54c2.37-12.27 9.11-20.73 19.75-26.57l-9-22.68s-6.63 2.75-8.59 5.84c-5 7.95-9.1 13.19-10.91 19.8-2.49 9.15 4.55 19.96 8.75 23.61Z" fill="#fff" stroke="#0C296E" stroke-width=".8" stroke-miterlimit="10"/><path d="M225.46 176.24c-1.17 3.08-1.2 3.92-5.47 9.16-5.87 7.19-19 12.85-19 12.85A31.508 31.508 0 0 1 190 174.69c3.83-2.27 11.62-10.77 13.66-17.13l7.63-21.73a13.48 13.48 0 0 1 12.92-9.63h48.66a19.762 19.762 0 0 1 19.37 15.87l9 44.72h-74.85l-.93-10.55Z" fill="#fff"/><path d="m295.82 186.8-6.33-36.73c-2.64-22.77-17.55-23.86-17.53-23.86l7.13.68c7.45 2.11 12.08 5.13 14.86 21.7l7.15 38.55" fill="#00D6B9"/><path d="M225.46 176.24c-1.17 3.08-1.2 3.92-5.47 9.16-5.87 7.19-19 12.85-19 12.85A31.508 31.508 0 0 1 190 174.69c3.83-2.27 11.62-10.77 13.66-17.13l7.63-21.73a13.48 13.48 0 0 1 12.92-9.63h48.66a19.762 19.762 0 0 1 19.37 15.87l9 44.72h-74.85l-.93-10.55Z" stroke="#0C296E" stroke-width=".8" stroke-miterlimit="10"/><path d="M192.4 171.87c.12.14.58.69.17 1.11-1 4.6.56 19.79 13.72 22.82-3 1.54-3.66 1.71-6.37 3.13-9.57-1-15.38-14.6-12.63-22.32 2.19-2.01 3.33-3.18 5.11-4.74Z" fill="#00D6B9"/><path d="M192.61 173c-.81 3.62-.26 19.77 13.47 22.71" stroke="#0C296E" stroke-width=".8" stroke-linecap="round" stroke-linejoin="round"/><path d="m225.46 176.24 8.27-22.07" stroke="#0C296E" stroke-width=".8" stroke-miterlimit="10"/><path d="M223.06 180.79c-14.43-.54-21.17-14.56-20.13-20.82a17.603 17.603 0 0 1-2.45 4.26c-.93 7.64 6.15 20.89 19.43 20.89a27.198 27.198 0 0 0 3.15-4.33ZM240.18 186.65l-2.28-37.21c-.84-11.66-2.63-22.74-11.91-23h5.73c5.83.15 9.83 5.27 10.79 22.05l3.17 38.17" fill="#00D6B9"/><path d="M250.732 126.508c8.893-1.86 14.594-10.576 12.735-19.469-1.86-8.893-10.576-14.594-19.469-12.735-8.893 1.86-14.594 10.576-12.735 19.469 1.86 8.892 10.576 14.594 19.469 12.735Z" fill="#fff" stroke="#0C296E" stroke-width=".8" stroke-miterlimit="10"/><path d="M243.36 113.6s-1.31 6.24-6.67 9.35" stroke="#0C296E" stroke-width=".8" stroke-miterlimit="10"/><path d="M241.93 113.8c-6.84-3.06-8.75-11.18-8.41-14.68 1.4-1.34 2.47-1.88 3.61-3-1.32 5.21 3.31 13.57 7.66 16.14l-2.86 1.54Z" fill="#00D6B9"/><path d="M242.588 117.621c2.625-.154 4.608-2.736 4.431-5.769-.178-3.032-2.449-5.366-5.073-5.212-2.625.153-4.608 2.736-4.431 5.769.178 3.032 2.449 5.366 5.073 5.212Z" fill="#0C296E"/><path d="M241.532 117.473c2.486-.146 4.366-2.593 4.197-5.465-.168-2.872-2.32-5.083-4.806-4.938-2.487.146-4.366 2.593-4.198 5.465.168 2.873 2.32 5.083 4.807 4.938Z" fill="#fff" stroke="#0C296E" stroke-width=".8" stroke-miterlimit="10"/><path d="M238.21 113c.037.395.155.779.348 1.126a2.876 2.876 0 0 0 3.012 1.444 3.342 3.342 0 0 0 2.2-3.92 2.867 2.867 0 0 0-.348-1.127 2.876 2.876 0 0 0-3.012-1.443 3.336 3.336 0 0 0-2.2 3.92Z" fill="#00D6B9"/></svg>