<svg viewBox="0 0 400 300" fill="none" xmlns="http://www.w3.org/2000/svg"><path d="M105.63 218.45c10.455 0 18.93-8.475 18.93-18.93s-8.475-18.93-18.93-18.93-18.93 8.475-18.93 18.93 8.475 18.93 18.93 18.93ZM324.75 180.61h-73.09a9.46 9.46 0 0 1 0-18.92h14.4a18.924 18.924 0 0 0 18.92-18.92 18.921 18.921 0 0 0-18.92-18.92H116a18.919 18.919 0 0 0-13.378 32.298A18.92 18.92 0 0 0 116 161.69h63a9.459 9.459 0 1 1 0 18.92h-22.53a18.919 18.919 0 0 0-13.378 32.298 18.92 18.92 0 0 0 13.378 5.542h168.28a18.924 18.924 0 0 0 18.92-18.92 18.92 18.92 0 0 0-18.92-18.92Z" fill="#F0F1F2"/><path d="m293.22 251.82-15.45-7.07s.48-22.77 3.14-29.81c2.66-7.04 10.85-9.06 10.85-9.06l4.37 2 15.29 9.58-18.2 34.36Z" fill="#fff" stroke="#0C296E" stroke-width=".8" stroke-linecap="round" stroke-linejoin="round"/><path d="M162.61 207.2s2.93 19.12 17.53 26.16c18 8.69 54.85-7.56 54.85-7.56l42.79 18.95s-1-22.75 14-38.87l-5.15-2.49s6.4-2.22 12.53-4.5a1525.62 1525.62 0 0 0-9.52-37.31l-77.45 22.21" fill="#0C296E"/><path d="m141.85 155.09 36-14.32s8.5-3.64 15.17 6.76L212 184.3s-12.78 13.3-18.18 16c-7.12 3.61-31.2 6.86-31.2 6.86L154 185.6l-12.15-30.51Z" fill="#fff"/><path d="m199.34 159.14 10.85 20.72.1.19-2.77 4.66c-1.49-3.78-14-26.82-18.09-35.65-.15-.31-.29-.61-.44-.89-2.09-4.07-4.52-6-6.5-6.89a7.535 7.535 0 0 0-3.78-.74 5.003 5.003 0 0 1 2.41-.43c4.79-.25 10.65 4.2 11.82 7.15l6.42 11.87" fill="#00D6B9"/><path d="m141.85 155.09 36-14.32s8.5-3.64 15.17 6.76L212 184.3s-12.78 13.3-18.18 16c-7.12 3.61-31.2 6.86-31.2 6.86L154 185.6l-12.15-30.51Z" stroke="#0C296E" stroke-width=".8" stroke-linecap="round" stroke-linejoin="round"/><path d="m236.93 121.31-9.38 24.55c-2.64 6.19-5.58 6.95-11.94 9.15l-15.85 5.19-6.34-11.43c-2.58-5.74-9.33-9.18-14.13-8.46l24.14-7.31 9.36-19.86 10.65 8.69 13.49-.52Z" fill="#fff"/><path d="M226.88 148.33c-18.66 4.59-24.57-15.16-23.16-17.61-4.3 7.46 2.71 23.43 18.51 22.91.01 0 4.44-2.33 4.65-5.3Z" fill="#00D6B9"/><path d="m236.93 121.31-9.38 24.55c-2.64 6.19-5.58 6.95-11.94 9.15l-15.85 5.19-6.34-11.43c-2.58-5.74-9.33-9.18-14.13-8.46l24.14-7.31 9.36-19.86 10.65 8.69 13.49-.52Z" stroke="#0C296E" stroke-width=".8" stroke-linecap="round" stroke-linejoin="round"/><path d="M303.4 228.15c7.61 3.59 7-4.23 10.62-11.84 3.62-7.61 10-12.13 2.4-15.72a15.234 15.234 0 0 0-11.799-.769 15.246 15.246 0 0 0-9.298 19.713 15.242 15.242 0 0 0 8.097 8.616h-.02Z" fill="#fff" stroke="#0C296E" stroke-width=".8" stroke-linecap="round" stroke-linejoin="round"/><path d="m298.689 254.398 24.012-50.845-6.275-2.964-24.013 50.845 6.276 2.964Z" fill="#0C296E" stroke="#0C296E" stroke-width=".8" stroke-linecap="round" stroke-linejoin="round"/><path d="M98.454 237.772c6.842-6.842 6.842-17.935 0-24.777-6.842-6.842-17.935-6.842-24.777 0-6.842 6.842-6.842 17.935 0 24.777 6.842 6.842 17.935 6.842 24.777 0Z" fill="#00D6B9"/><path d="M88.43 211.89a13.707 13.707 0 0 1 10.78 9.64M103.4 242a23.87 23.87 0 1 1-33.76-33.76" stroke="#0C296E" stroke-width=".8" stroke-linecap="round" stroke-linejoin="round"/><path d="M101.671 207.595a2.18 2.18 0 1 0-3.085-3.083 2.18 2.18 0 0 0 3.085 3.083Z" fill="#FFC60A"/><path d="M90.654 235.099a3.16 3.16 0 1 0-4.47-4.469 3.16 3.16 0 0 0 4.47 4.469Z" fill="#0C296E"/><path d="M75.007 208.932a4.28 4.28 0 1 0-6.053-6.053 4.28 4.28 0 0 0 6.053 6.053Z" fill="#FFC60A"/><path d="M170.908 138.815c4.464-8.641 1.078-19.265-7.563-23.728-8.641-4.464-19.264-1.078-23.728 7.563-4.464 8.641-1.078 19.264 7.563 23.728 8.641 4.464 19.265 1.078 23.728-7.563Z" fill="#fff" stroke="#0C296E" stroke-width=".8" stroke-linecap="round" stroke-linejoin="round"/><path d="M147.26 138.17c-4.94-18.84 15.82-26.14 19.82-22.08 1 .69 3.81 3 4 3.78a1.615 1.615 0 0 1-.59 1.23c-.17-.23-.73-1.13-1.07-1.59-6.74-1.12-21.14 5.98-22.16 18.66Z" fill="#00D6B9"/><path d="M147.76 138.76a15 15 0 0 0 23.13 0" fill="#fff"/><path d="M147.76 138.76a15 15 0 0 0 23.13 0" stroke="#0C296E" stroke-width=".8" stroke-linecap="round" stroke-linejoin="round"/><path d="M151.507 141.749c2.249-1.207 2.839-4.481 1.319-7.313s-4.574-4.15-6.823-2.944c-2.248 1.207-2.838 4.481-1.319 7.313 1.52 2.832 4.575 4.15 6.823 2.944Z" fill="#fff" stroke="#0C296E" stroke-width=".8" stroke-linecap="round" stroke-linejoin="round"/><path d="M149.632 142.751c2.2-1.18 2.778-4.382 1.292-7.151s-4.474-4.056-6.673-2.876c-2.2 1.18-2.778 4.382-1.292 7.151s4.473 4.057 6.673 2.876Z" fill="#fff" stroke="#0C296E" stroke-width=".8" stroke-linecap="round" stroke-linejoin="round"/><path d="M148.325 140.735c1.192-.64 1.422-2.531.513-4.225-.909-1.693-2.612-2.548-3.804-1.908-1.193.64-1.423 2.532-.514 4.225.909 1.694 2.612 2.548 3.805 1.908Z" fill="#00D6B9"/><path d="M162.374 132.221a1.33 1.33 0 1 0-1.568-2.148 1.33 1.33 0 0 0 1.568 2.148ZM170.042 129.344a1.33 1.33 0 1 0-1.568-2.148 1.33 1.33 0 0 0 1.568 2.148Z" fill="#0C296E"/><path d="M145.66 154s4 .31 8.4 9.82c4.11 8.83 15.7 37.1 17.2 40.88l4.74-.87-17.71-42.25c-1.62-4.06-4.48-8.42-8.42-9.41-.59-.08-3.08 1.21-4.21 1.83Z" fill="#00D6B9"/><path d="M220.38 92.44c-.17-5.53-6.05-5.58-5.89-1.46.25 6.34-2.95 11.3-1.14 15.86 1.26 3.17.13 4.87.13 4.87" fill="#fff"/><path d="M220.38 92.44c-.17-5.53-6.05-5.58-5.89-1.46.25 6.34-2.95 11.3-1.14 15.86 1.26 3.17.13 4.87.13 4.87" stroke="#0C296E" stroke-width=".8" stroke-linecap="round" stroke-linejoin="round"/><path d="M219.43 95.58a12.102 12.102 0 0 1 2.87-6.13c1.78-2 5.23-2.69 6.89.42a3.399 3.399 0 0 1 2.82-.67c1.72.44 3 1.54 3 3.56 1.81-.85 4.65.89 4.16 3.14 3.64-.51 4.8 3.25.17 9.69-1.77 2.46-4.91.72-4.56-.51-2.49 2.51-5.69-.54-5.13-1.75-3.26 1.78-5.5-1.54-5-3.07-.65.82-5.82.92-5.22-4.68Z" fill="#fff" stroke="#0C296E" stroke-width=".8" stroke-linecap="round" stroke-linejoin="round"/><path d="M229.19 89.87a18.156 18.156 0 0 0-4.61 10.39l4.61-10.39Z" fill="#fff"/><path d="M229.19 89.87a18.156 18.156 0 0 0-4.61 10.39" stroke="#0C296E" stroke-width=".8" stroke-linecap="round" stroke-linejoin="round"/><path d="M235 92.76c-1.69 1.62-4.21 4.53-5.35 10.57L235 92.76Z" fill="#fff"/><path d="M235 92.76c-1.69 1.62-4.21 4.53-5.35 10.57" stroke="#0C296E" stroke-width=".8" stroke-linecap="round" stroke-linejoin="round"/><path d="M239.12 95.9a17.004 17.004 0 0 0-4.39 9.18l4.39-9.18Z" fill="#fff"/><path d="M239.12 95.9a17.004 17.004 0 0 0-4.39 9.18" stroke="#0C296E" stroke-width=".8" stroke-linecap="round" stroke-linejoin="round"/><path d="M212.17 183.78s-3 10.72-22.06 19.42c-6.76 3.08-25.88 7.63-27.7 3.69l-1.24-3.11.15-.06c4.22 2 17.71.67 30.85-6.62C208.61 188 209.9 180 210 179.53l.18.33.1.19 1.89 3.73Z" fill="#00D6B9" stroke="#0C296E" stroke-width=".8" stroke-linecap="round" stroke-linejoin="round"/><path d="m142.36 154.88-9.73 3.9-19.21-12s2.45 15.22-13 24c2.55 2.38 14.87 11 22.95 15.91 7.15 4.33 11.95 2.79 19.65-.46l16.23-6.63" fill="#fff"/><path d="M131.6 190.67c10.83-17.13 1.09-32.43-1.85-33.92 10 2.91 14.59 20.64 7.9 32.82-.01 0-3.35.65-6.05 1.1Z" fill="#00D6B9"/><path d="m142.36 154.88-9.73 3.9-19.21-12s2.45 15.22-13 24c2.55 2.38 14.87 11 22.95 15.91 7.15 4.33 11.95 2.79 19.65-.46l16.23-6.63" stroke="#0C296E" stroke-width=".8" stroke-linecap="round" stroke-linejoin="round"/><path d="M239.36 119c-.17-.08-.84-.39-1.13.15-6.73 2-19.15-.85-25.3-8 .32-.52-.64-1.19-.9-.87-1.37 3.63-1.68 4.63-2.32 6.48 3 5.38 14.82 11.91 27.4 9.24.59-2.28 1.31-4 2.25-7Z" fill="#00D6B9" stroke="#0C296E" stroke-width=".8" stroke-linecap="round" stroke-linejoin="round"/><path d="M242.4 98s.71 8.5-1.35 13.75c-1.23 3.13-3.08 4.51-2.77 7.34" fill="#fff"/><path d="M242.4 98s.71 8.5-1.35 13.75c-1.23 3.13-3.08 4.51-2.77 7.34" stroke="#0C296E" stroke-width=".8" stroke-linecap="round" stroke-linejoin="round"/><path d="M152.04 88.76c14.337 0 25.96-11.623 25.96-25.96 0-14.337-11.623-25.96-25.96-25.96-14.337 0-25.96 11.622-25.96 25.96 0 14.337 11.623 25.96 25.96 25.96Z" fill="#0C296E"/><path d="M158.841 64.902c1.303-3.292-.467-7.08-3.953-8.46-3.487-1.38-7.37.169-8.673 3.46-1.303 3.292.467 7.08 3.953 8.46 3.487 1.38 7.37-.169 8.673-3.46ZM138.492 62.267c.346-2.517-1.086-4.793-3.198-5.083-2.112-.29-4.104 1.515-4.45 4.032-.346 2.517 1.086 4.793 3.198 5.083 2.112.29 4.104-1.516 4.45-4.032ZM158.539 82.239c2.541-.631 4.215-2.694 3.74-4.608-.475-1.913-2.92-2.953-5.461-2.322-2.54.632-4.215 2.694-3.739 4.608.475 1.913 2.92 2.953 5.46 2.322ZM169.552 52.688c.925-1.602-.524-4.17-3.236-5.736-2.712-1.566-5.66-1.536-6.585.066-.925 1.602.523 4.17 3.235 5.736 2.712 1.566 5.661 1.536 6.586-.066ZM145.193 48.415c2.026-.935 3.191-2.726 2.603-4-.588-1.273-2.707-1.547-4.733-.612-2.026.936-3.191 2.727-2.603 4 .588 1.274 2.707 1.547 4.733.612ZM172.818 66.971c.274-1.997-.657-3.774-2.079-3.97-1.423-.195-2.798 1.266-3.073 3.263-.274 1.997.657 3.774 2.08 3.97 1.422.195 2.798-1.266 3.072-3.263ZM144.086 80.184c1.135-.88 1.052-2.885-.184-4.478-1.236-1.592-3.157-2.17-4.292-1.289-1.134.88-1.052 2.886.185 4.478 1.236 1.592 3.157 2.17 4.291 1.289Z" fill="#fff"/><path d="M220.38 92.44c6.5-14.9-9-17.93-10.25-7.53-1 8.5-2 13.45-9.53 17.64M157.06 88.07s-1.73 20.87 13.52 22.07c8.46.66 9.32-13.1 23.32-6.81" stroke="#0C296E" stroke-width=".8" stroke-linecap="round" stroke-linejoin="round"/><path d="m331.04 190.61-9.23-37.84-22.88 4.88.8 3.57-5.75 1.44 8.43 34.06 28.63-6.11ZM319.34 153.16s.65-14.2-6.84-12.6c-7.49 1.6-16.34 4.14-13.58 17.09 4.98-1.06 20.42-4.49 20.42-4.49Z" fill="#fff" stroke="#0C296E" stroke-width=".8" stroke-linecap="round" stroke-linejoin="round"/><path d="m312.5 140.57 12.14 51.4 6.4-1.36-12.13-51.41-6.41 1.37Z" fill="#0C296E" stroke="#0C296E" stroke-width=".8" stroke-linecap="round" stroke-linejoin="round"/><path d="m286.31 162.28 9.34 38.06 7.69-2.18-9.21-37.96-7.82 2.08Z" fill="#0C296E"/><path d="M286.61 203.38a50.996 50.996 0 0 0-14.46 38.8" stroke="#fff" stroke-width=".8" stroke-linecap="round" stroke-linejoin="round"/><path d="M94.15 168.91a29.123 29.123 0 0 1 6.93 2.24s14.42-9 12.62-23.25c0 0-3.86-7.06-9.49-11.22-2.95-2.18-8-8.74-8.71-9.36-1.63-1.44-8.67 1.66-5.91 8.24a11.714 11.714 0 0 0 5.06 6s-8.44-5.71-15.92-6.19c0 0-14 13.22-7.93 18.85 6.92 6.47 15.41 13.35 23.35 14.69Z" fill="#fff" stroke="#0C296E" stroke-width=".8" stroke-linecap="round" stroke-linejoin="round"/><path d="M99 170.78c-.14-.11.33-.31.85-.52 7.32-3 13.85-13 13.74-22.73 0-.62-.25-1.44.17-1.37 2.94 1.68 3.93 2.21 6.39 3.56 1.08 7.46-3.65 20.91-15.65 25.51-1.57-1.23-3.35-2.63-5.5-4.45Z" fill="#00D6B9" stroke="#0C296E" stroke-width=".8" stroke-linecap="round" stroke-linejoin="round"/><path d="M191.28 202.8s1.06 7.28 8 8c4.3.427 8.626.52 12.94.28l5.11 5.68s8.76-2 12.09-2.54 6-1.72 13.1 1.52c9 4.1 30.48 13.71 30.48 13.71" stroke="#fff" stroke-width=".8" stroke-linecap="round" stroke-linejoin="round"/><path d="M222.75 100.64s2.7 5 .28 8.55l-.28-8.55Z" fill="#fff"/><path d="M222.75 100.64s2.7 5 .28 8.55" stroke="#0C296E" stroke-width=".8" stroke-linecap="round" stroke-linejoin="round"/><path d="m196.38 93.46-3.23-12.51M202.55 92.33l.67-8.01M190.59 95.74l-5.6-6.43" stroke="#00D6B9" stroke-width="2" stroke-miterlimit="10"/><path d="m338.06 123.98 17.28-5.18-3.17 18.93-14.11-13.75Z" stroke="#0C296E" stroke-width=".8" stroke-linecap="round" stroke-linejoin="round"/><path d="M244.09 46.2a16.854 16.854 0 0 0 11.1 11.1 16.852 16.852 0 0 0-11.1 11.1A16.845 16.845 0 0 0 233 57.3a16.853 16.853 0 0 0 11.1-11.1h-.01ZM349.89 230a15.78 15.78 0 0 0 10.4 10.4 15.78 15.78 0 0 0-10.4 10.4 15.78 15.78 0 0 0-10.4-10.4 15.78 15.78 0 0 0 10.4-10.4Z" fill="#FFC60A"/><path d="M188.37 255a41.5 41.5 0 0 1 32.681-4.876 41.482 41.482 0 0 1 25.879 20.546M242.29 262.89a30.744 30.744 0 0 1 34.93 5.83" stroke="#0C296E" stroke-width=".8" stroke-linecap="round" stroke-linejoin="round"/><path d="M270.18 271.78c5.43-3.47 11.65-4.75 17.59-3.05a20.215 20.215 0 0 1 10.15 6.83" stroke="#0C296E" stroke-width=".8" stroke-linecap="round" stroke-linejoin="round"/><path d="m167.55 163.09 7.79 15.14 18.04-8.52-7.85-14.55-17.98 7.93Z" fill="#00D6B9" stroke="#0C296E" stroke-width=".8" stroke-linecap="round" stroke-linejoin="round"/><path d="m171.03 161.63 3.52 6.81 3.64-1.72 4.04 8.15" stroke="#0C296E" stroke-width=".8" stroke-linecap="round" stroke-linejoin="round"/><path d="m167.47 163.12-1.61 1.02 7.72 14.88 2.04-.95" fill="#0C296E"/><path d="m167.47 163.12-1.61 1.02 7.72 14.88 2.04-.95" stroke="#0C296E" stroke-width=".8" stroke-miterlimit="10"/><path d="M183.174 164.476c1.067-.604 1.394-2.045.73-3.217-.664-1.173-2.068-1.634-3.135-1.03-1.066.605-1.393 2.045-.729 3.217.664 1.173 2.067 1.634 3.134 1.03ZM186.015 169.203c.851-.481 1.125-1.604.614-2.508-.512-.903-1.616-1.245-2.467-.763-.85.481-1.125 1.604-.614 2.508.512.903 1.616 1.245 2.467.763Z" fill="#fff"/><path d="M289.25 204.26c-5.88-3-17.86-7.74-28.84-12.66-12.79-5.73-19.76-7.41-31.94-5.71l-12.07 2" stroke="#fff" stroke-width=".8" stroke-linecap="round" stroke-linejoin="round"/><path d="m286.31 162.28 9.34 38.06" stroke="#fff" stroke-width=".8" stroke-miterlimit="10"/><path d="M71.117 158.692c13.66-.728 24.144-12.392 23.417-26.053-.728-13.661-12.393-24.145-26.053-23.417-13.661.728-24.145 12.392-23.417 26.053.728 13.661 12.392 24.145 26.053 23.417Z" fill="#FFC60A"/><path fill-rule="evenodd" clip-rule="evenodd" d="M65.12 125.15a24.9 24.9 0 0 0-10.7 13.7l3.79 1.07a21.18 21.18 0 0 1 22.54-13.85l.86-4.39a24.888 24.888 0 0 0-16.49 3.47Zm3.82 6.95a17.818 17.818 0 0 0-7.29 8.79l4.23 1.19a14.375 14.375 0 0 1 13.36-8.31l.82-4.22c-3.89-.394-7.8.502-11.13 2.55h.01Zm4 7a9.556 9.556 0 0 0-3.56 3.92l5.67 1.6a1.892 1.892 0 0 0 2.38-1.46l1.07-5.46a9.576 9.576 0 0 0-5.59 1.44l.03-.04Z" fill="#fff"/><path d="m67.618 121.109-4.332 1.253 7.928 27.396 4.332-1.254-7.928-27.395Z" fill="#FFC60A"/><path d="m65.99 121.589-3.141.909 7.108 24.562 3.141-.909-7.108-24.562ZM98.48 149.74c-7.08-2.39-4.74-9.54-4.74-9.54a11.714 11.714 0 0 1-5.06-6c-2.75-6.58 4.29-9.69 5.91-8.24.71.62 5.76 7.18 8.71 9.36 5.63 4.16 9.49 11.22 9.49 11.22" fill="#fff"/><path d="M98.48 149.74c-7.08-2.39-4.74-9.54-4.74-9.54a11.714 11.714 0 0 1-5.06-6c-2.75-6.58 4.29-9.69 5.91-8.24.71.62 5.76 7.18 8.71 9.36 5.63 4.16 9.49 11.22 9.49 11.22" stroke="#0C296E" stroke-width=".8" stroke-linecap="round" stroke-linejoin="round"/><path d="M137.28 261.86c-1.36-.9-7.8-6.75-4.6-17.45l10.24 7.17s-2.45 9.6 4.35 15.81c1.16 1.07-7.1-3.61-9.99-5.53Z" fill="#3370FF"/><path d="M137.57 262c5.41 2.58 11.47 5.11 23.17-5.8 5 3.45 6.85 5 11.51 8.12-7.74 7-13.21 7.81-16.55 7.69-3.69-.13-8.13-3.48-11.25-5.51l-7-4.6" fill="#0C296E"/><path d="M308.78 119.53s.57 8.38-12.66 9.46c-.32-4.28.15-25.16.15-25.16l8.92 1.4 3.59 14.3Z" fill="#3370FF"/><path d="M273.29 82.86c16.64.38 25.48 3.58 30.45 8.11a15.2 15.2 0 0 1 4.85 11c.11 6.09-.07 12.18.22 18.27-2.44-11.29-12.44-17.95-36-18.66.19-7.09.39-11.58.48-18.72Z" fill="#fff" stroke="#0C296E" stroke-width=".8" stroke-miterlimit="10"/><path d="M279 89.42s17-.31 24.39 9l-24.39-9Z" fill="#fff"/><path d="M279 89.42s17-.31 24.39 9" stroke="#0C296E" stroke-width=".8" stroke-linecap="round" stroke-linejoin="round"/><path d="M279 95.76s9.85-.33 16.4 4.18L279 95.76Z" fill="#fff"/><path d="M279 95.76s9.85-.33 16.4 4.18" stroke="#0C296E" stroke-width=".8" stroke-linecap="round" stroke-linejoin="round"/></svg>