<svg viewBox="0 0 400 300" fill="none" xmlns="http://www.w3.org/2000/svg"><path d="M155 223.136v1.038h5.022v-1.038H155Zm4.686 0v.26c-.61 4.747-2.625 8.503-5.068 10.136.244.199.595.611.779.886 2.641-1.954 4.671-5.71 5.373-11.084l-.702-.244-.183.046h-.199Zm-4.656 2.687c1.741 2.259 3.725 5.343 4.55 7.267l.9-.764c-.824-1.877-2.87-4.885-4.625-7.129l-.825.626Zm7.588-2.122v1.053h5.19v-1.053h-5.19Zm-.031-2.29c-.305 2.229-.855 4.351-1.832 5.71.26.152.733.473.931.656.993-1.496 1.619-3.771 1.985-6.229l-1.084-.137Zm4.962 2.29v.183c-.184 1.023-.52 2.29-.81 3.069l.901.29c.382-.84.763-2.199 1.038-3.374l-.748-.214-.198.046h-.183Zm-2.718 3.496-.946.153c.595 3.801 1.801 6.732 4.396 8.091.168-.306.504-.748.764-.977-2.458-1.115-3.68-3.878-4.214-7.267Zm-.962-1.527v1.069c0 2.244-.29 5.526-4.183 7.938.26.184.626.535.81.794 4.121-2.595 4.457-6.198 4.457-8.717v-1.084h-1.084Zm16.106-2.122h2.458v6.84c0 .183-.061.244-.244.244-.199 0-.779.015-1.45-.015.137.259.29.702.351.977.916 0 1.526-.016 1.893-.168.397-.184.504-.489.504-1.023v-7.847h-4.535v10.885h1.023v-9.893Zm-5.816 8.259c1.206-.351 2.809-.824 4.305-1.267l-.137-.977c-.825.229-1.649.458-2.413.672v-6.672c.993-.381 2.046-.839 2.871-1.328l-.84-.839c-.565.442-1.542.961-2.443 1.374l-.641-.184v7.924c-.366.107-.702.183-.992.259l.29 1.038Zm-.626-7.495c-.428-.764-1.435-1.817-2.336-2.535l-.87.58c.885.749 1.862 1.832 2.259 2.596l.947-.641Zm-.351 3.099h-2.931v1.068h1.877v3.939a22.554 22.554 0 0 1-2.061 1.756l.596 1.053a42.765 42.765 0 0 0 2.061-1.985c.946 1.206 2.336 1.756 4.351 1.832 1.725.061 5.022.031 6.747-.046.046-.32.229-.824.367-1.068-1.863.122-5.42.168-7.145.091-1.786-.076-3.145-.595-3.862-1.74v-4.9Zm15.846-6.015c-.885 2.305-2.366 4.58-3.908 6.03.214.244.534.84.641 1.099a15.98 15.98 0 0 0 1.68-1.985v8.901h1.083v-10.534a24.574 24.574 0 0 0 1.573-3.175l-1.069-.336Zm2.153 7.48v-2.259h2.717v1.572c0 .229 0 .458-.015.687h-2.702Zm6.641-2.259v2.259h-2.825c.016-.229.016-.458.016-.687v-1.572h2.809Zm1.084 3.221v-4.183h-3.893v-1.496h4.396v-1.038h-4.396v-1.618h-1.115v1.618h-4.213v1.038h4.213v1.496h-3.771v4.183h3.695c-.107.84-.336 1.649-.825 2.351-.809-.565-1.465-1.237-1.923-2.03l-.947.305a8.178 8.178 0 0 0 2.214 2.473c-.718.641-1.725 1.16-3.221 1.542.244.229.565.702.687.946 1.588-.473 2.687-1.114 3.45-1.862 1.557.931 3.465 1.527 5.618 1.847.153-.336.427-.778.672-1.023-2.168-.259-4.092-.778-5.618-1.618.61-.885.885-1.878 1.007-2.931h3.97Zm9.404-.199v-2.534h4.106v2.534h-4.106Zm-4.84 0c.046-.564.061-1.129.061-1.633v-.901h3.649v2.534h-3.71Zm3.71-6.045v2.443h-3.649v-2.443h3.649Zm5.236 2.443h-4.106v-2.443h4.106v2.443Zm1.115-3.527h-11.114v5.496c0 2.122-.153 4.809-1.832 6.702.244.137.702.519.87.748 1.16-1.298 1.679-3.038 1.908-4.733h3.817v4.504h1.13v-4.504h4.106v3.099c0 .291-.107.382-.412.397-.275 0-1.313.016-2.382-.03.153.305.336.794.382 1.099 1.435.015 2.321 0 2.84-.183.488-.199.687-.535.687-1.267V222.51Zm16.121 6.839c-.779-.671-2.244-1.541-3.542-2.244a33.465 33.465 0 0 0 3.374-3.068l-1.038-.55c-.733.901-1.924 2.031-2.977 2.916a80.965 80.965 0 0 1-.122-4.061h-8.962v1.145h7.847c.168 7.068.87 11.45 4.092 11.45 1.084 0 1.435-.748 1.587-3.145-.259-.107-.61-.397-.87-.656-.061 1.709-.229 2.641-.656 2.641-1.649.015-2.443-2.229-2.794-5.847 1.298.732 2.717 1.633 3.45 2.305l.611-.886Zm14.182-1.16-.015.168c-.198 2.87-.412 4.076-.748 4.382-.168.122-.336.137-.641.137-.367 0-1.359 0-2.321-.092.229.306.367.764.397 1.1.931.045 1.847.061 2.336.03.534-.03.87-.122 1.191-.458.458-.458.687-1.695.916-4.748.03-.183.045-.519.045-.519h-1.16Zm-6.885-6.748v13.969h1.16v-13.969h-1.16Zm4.565 1.176c.977.641 2.244 1.572 2.855 2.183l.717-.885c-.641-.565-1.939-1.466-2.901-2.061l-.671.763Zm-10.03 5.572v1.084h12.839v-1.084h-12.839Zm.992-4.122v1.099h9.16v3.741h1.145v-4.84h-10.305Z" fill="#000"/><path d="M274.5 110.201v28.4c-7.6-3.5-29.1-6.2-56.3-7.1v-28.4c27.2.9 48.7 3.6 56.3 7.1Z" fill="#fff" stroke="#0C296E" stroke-width=".5" stroke-miterlimit="10" stroke-linecap="round" stroke-linejoin="round"/><path d="M225.6 113.9s21.8-.8 41.6 5.6l-41.6-5.6Z" fill="#fff"/><path d="M225.6 113.9s21.8-.8 41.6 5.6" stroke="#0C296E" stroke-width=".5" stroke-miterlimit="10" stroke-linecap="round" stroke-linejoin="round"/><path d="M225.5 119.301s21.8-.8 41.6 5.6l-41.6-5.6Z" fill="#fff"/><path d="M225.5 119.301s21.8-.8 41.6 5.6" stroke="#0C296E" stroke-width=".5" stroke-miterlimit="10" stroke-linecap="round" stroke-linejoin="round"/><path d="M225.7 124.1s9-.6 18.7 1.3l-18.7-1.3Z" fill="#fff"/><path d="M225.7 124.1s9-.6 18.7 1.3" stroke="#0C296E" stroke-width=".5" stroke-miterlimit="10" stroke-linecap="round" stroke-linejoin="round"/><path d="m220.8 155.801-3.2-6.2 3.8-5.8 6.9.4 3.2 6.1-3.8 5.9-6.9-.4Z" fill="#FFC60A"/><path d="M202.8 140.801h-14.5v15.2h14.5v-15.2Z" fill="#fff" stroke="#0C296E" stroke-width=".5" stroke-miterlimit="10" stroke-linecap="round" stroke-linejoin="round"/><path d="M222.1 133.5a7 7 0 1 0 0-14 7 7 0 0 0 0 14ZM169.3 133.5a7 7 0 1 0 0-14 7 7 0 0 0 0 14Z" fill="#fff" stroke="#0C296E" stroke-width=".5" stroke-miterlimit="10"/><path d="M196.3 146.5c12.647 0 22.9-10.252 22.9-22.9 0-12.647-10.253-22.9-22.9-22.9-12.647 0-22.9 10.253-22.9 22.9 0 12.648 10.253 22.9 22.9 22.9Z" fill="#fff" stroke="#0C296E" stroke-width=".5" stroke-miterlimit="10"/><path d="M169.8 119.3s3.4-26.3 26.8-25.8c21.9.5 25.6 20.5 26.5 25.3 0 0-7.3 7.1-17.8-2.8 0 0-8.4 11.1-19-.3 0-.1-7.1 12.4-16.5 3.6ZM197.3 90.1c7.511 0 13.6-6.088 13.6-13.6 0-7.51-6.089-13.6-13.6-13.6-7.511 0-13.6 6.09-13.6 13.6 0 7.511 6.089 13.6 13.6 13.6Z" fill="#0C296E"/><path d="M192.2 76.4a1.9 1.9 0 1 0 0-3.8 1.9 1.9 0 0 0 0 3.8ZM202.3 76.4a1.9 1.9 0 1 0 0-3.8 1.9 1.9 0 0 0 0 3.8Z" fill="#fff"/><path d="M200.7 77.8c0 1.4-1.2 2.6-2.6 2.6h-1.5c-1.4 0-2.6-1.2-2.6-2.6" stroke="#fff" stroke-width="1.055" stroke-miterlimit="10" stroke-linecap="round" stroke-linejoin="round"/><path d="m226.2 81.6-3.2 4.3M229.1 85.501l-4.6 2.8M165.4 76.9l3.2 4.3M162.5 80.8l4.5 2.8" stroke="#0C296E" stroke-miterlimit="10" stroke-linecap="round" stroke-linejoin="round"/><path d="M183.9 126.5s4.1-4.1 8.2 0h-8.2Z" fill="#fff"/><path d="M183.9 126.5s4.1-4.1 8.2 0" stroke="#0C296E" stroke-width=".5" stroke-miterlimit="10" stroke-linecap="round" stroke-linejoin="round"/><path d="M200.6 126.5s4.1-4.1 8.2 0h-8.2Z" fill="#fff"/><path d="M200.6 126.5s4.1-4.1 8.2 0" stroke="#0C296E" stroke-width=".5" stroke-miterlimit="10" stroke-linecap="round" stroke-linejoin="round"/><path d="M192.7 130.1h8.2v1.3c0 2.3-1.8 4.1-4.1 4.1s-4.2-1.9-4.1-4.3v-1.1Z" fill="#fff" stroke="#0C296E" stroke-width=".5" stroke-miterlimit="10" stroke-linecap="round" stroke-linejoin="round"/><path d="m185 129.1-1 1.9M187.5 129.1l-1 1.9M206.2 129.1l-1 1.9M208.7 129.1l-1 1.9" stroke="#0C296E" stroke-width=".5" stroke-miterlimit="10" stroke-linecap="round" stroke-linejoin="round"/><path d="M188.3 153.8c2.8 1.5 8.4 3.4 14.8-.1 1.2-.7 2.6-.9 4-.5 4.7 1.3 16.6 5.9 22.2 9.6 7.3 4.8 9.5 15.4 9.5 15.4l-.5 24.3h-83.9v-24.8s3.2-11 12.7-16.6c6.7-3.9 13.5-6.5 17.1-7.8 1.3-.4 2.8-.2 4.1.5Z" fill="#fff" stroke="#0C296E" stroke-width=".5" stroke-miterlimit="10" stroke-linecap="round" stroke-linejoin="round"/><path d="M254.4 171.5v34.4H141.9l-.3-.3-16-16.9 16-16.9.3-.3h112.5Z" fill="#00D6B9"/><path d="m161.873 193.908-3.137-11.472h1.412l2.398 9.344h.112l2.442-9.344h1.569l2.442 9.344h.112l2.397-9.344h1.412l-3.137 11.472h-1.434l-2.532-9.142h-.089l-2.532 9.142h-1.435Zm15.517.179c-.829 0-1.544-.183-2.145-.549a3.679 3.679 0 0 1-1.384-1.546c-.321-.664-.482-1.437-.482-2.319 0-.881.161-1.658.482-2.33.325-.676.777-1.203 1.356-1.58.582-.381 1.262-.571 2.039-.571.448 0 .891.075 1.327.224.437.149.835.392 1.194.728.358.333.644.773.857 1.322.213.549.319 1.225.319 2.028v.56h-6.632v-1.143h5.288c0-.485-.098-.918-.292-1.299a2.188 2.188 0 0 0-.818-.902c-.351-.22-.765-.331-1.243-.331-.527 0-.982.131-1.367.393a2.565 2.565 0 0 0-.879 1.008 2.953 2.953 0 0 0-.309 1.333v.762c0 .65.112 1.201.337 1.652.227.449.543.79.946 1.026.404.231.872.347 1.406.347.348 0 .661-.049.941-.146.284-.101.529-.25.734-.448a2.03 2.03 0 0 0 .476-.751l1.278.359a2.848 2.848 0 0 1-.678 1.143 3.31 3.31 0 0 1-1.177.762 4.363 4.363 0 0 1-1.574.268Zm6.896-11.651v11.472h-1.322v-11.472h1.322Zm5.917 11.651c-.807 0-1.501-.19-2.084-.571a3.718 3.718 0 0 1-1.344-1.574c-.314-.668-.471-1.432-.471-2.291 0-.874.161-1.645.482-2.314.325-.672.777-1.197 1.355-1.574.583-.381 1.263-.571 2.039-.571a3.86 3.86 0 0 1 1.636.336 3.13 3.13 0 0 1 1.193.941c.31.403.503.874.577 1.412h-1.322c-.101-.392-.325-.74-.672-1.042-.343-.306-.807-.46-1.389-.46-.515 0-.967.135-1.356.404-.384.265-.685.64-.902 1.126-.212.481-.319 1.047-.319 1.697 0 .665.105 1.244.314 1.737.213.493.511.875.896 1.148.388.273.844.409 1.367.409.343 0 .655-.06.935-.179.28-.12.518-.292.712-.516.194-.224.332-.493.414-.806h1.322a3.052 3.052 0 0 1-1.714 2.336c-.478.235-1.034.352-1.669.352Zm8.811 0c-.776 0-1.458-.184-2.044-.554-.583-.37-1.038-.887-1.367-1.552-.325-.665-.487-1.441-.487-2.33 0-.896.162-1.679.487-2.347.329-.669.784-1.188 1.367-1.558.586-.369 1.268-.554 2.044-.554.777 0 1.457.185 2.039.554.587.37 1.042.889 1.367 1.558.329.668.493 1.451.493 2.347 0 .889-.164 1.665-.493 2.33a3.713 3.713 0 0 1-1.367 1.552c-.582.37-1.262.554-2.039.554Zm0-1.187c.59 0 1.076-.151 1.457-.454.381-.302.663-.7.846-1.193a4.568 4.568 0 0 0 .274-1.602c0-.575-.091-1.111-.274-1.608a2.705 2.705 0 0 0-.846-1.204c-.381-.306-.867-.46-1.457-.46-.59 0-1.075.154-1.456.46a2.705 2.705 0 0 0-.846 1.204 4.618 4.618 0 0 0-.274 1.608c0 .575.091 1.109.274 1.602.183.493.465.891.846 1.193.381.303.866.454 1.456.454Zm5.917 1.008v-8.604h1.277v1.344h.112c.18-.459.469-.816.869-1.07.399-.257.879-.386 1.439-.386.568 0 1.04.129 1.418.386.381.254.677.611.89 1.07h.09c.22-.444.551-.797.991-1.058.441-.266.97-.398 1.586-.398.769 0 1.398.241 1.888.723.489.478.733 1.223.733 2.235v5.758h-1.322v-5.758c0-.635-.173-1.089-.521-1.362a1.93 1.93 0 0 0-1.226-.409c-.605 0-1.074.183-1.406.549-.333.363-.499.822-.499 1.378v5.602h-1.344v-5.893c0-.489-.159-.883-.477-1.182-.317-.302-.726-.454-1.226-.454-.344 0-.665.092-.964.275a2.073 2.073 0 0 0-.717.762 2.252 2.252 0 0 0-.269 1.115v5.377h-1.322Zm17.318.179c-.829 0-1.544-.183-2.145-.549a3.679 3.679 0 0 1-1.384-1.546c-.321-.664-.482-1.437-.482-2.319 0-.881.161-1.658.482-2.33.325-.676.777-1.203 1.356-1.58.582-.381 1.262-.571 2.039-.571.448 0 .89.075 1.327.224a3.28 3.28 0 0 1 1.193.728c.359.333.645.773.857 1.322.213.549.32 1.225.32 2.028v.56h-6.633v-1.143h5.288c0-.485-.097-.918-.291-1.299a2.188 2.188 0 0 0-.818-.902c-.351-.22-.765-.331-1.243-.331-.527 0-.983.131-1.367.393a2.576 2.576 0 0 0-.88 1.008 2.966 2.966 0 0 0-.308 1.333v.762c0 .65.112 1.201.336 1.652.228.449.544.79.947 1.026.403.231.872.347 1.406.347.347 0 .661-.049.941-.146.284-.101.529-.25.734-.448.205-.202.364-.452.476-.751l1.277.359c-.134.433-.36.814-.678 1.143a3.296 3.296 0 0 1-1.176.762 4.367 4.367 0 0 1-1.574.268Z" fill="#fff"/><path d="M265.4 171.9c4.2 14.8-12.1 22.3-8.3 13.7 3.8-8.6 16.2 5.4 2.5 19.1-13.7 13.7-34.7 8.9-34.7 8.9" stroke="#0C296E" stroke-width=".5" stroke-miterlimit="10" stroke-dasharray="2.39 2.39"/><path d="M190.7 141.201v24.8c-26.5-.8-47-3.6-52-7v-24.7c5 3.4 25.5 6.1 52 6.9Z" fill="#fff" stroke="#0C296E" stroke-width=".5" stroke-miterlimit="10" stroke-linecap="round" stroke-linejoin="round"/><path d="m166.4 151.7-6.5-3.7v7.5l6.5-3.8Z" fill="#0C296E"/><path d="M162.3 158a6.3 6.3 0 1 0 0-12.6 6.3 6.3 0 0 0 0 12.6Z" stroke="#0C296E" stroke-width=".5" stroke-miterlimit="10"/><path d="M239.5 140.6a1.4 1.4 0 1 0 0-2.8 1.4 1.4 0 0 0 0 2.8ZM148.5 104.4a1.6 1.6 0 1 0 0-3.2 1.6 1.6 0 0 0 0 3.2ZM246 153.8l-3.5 1.3 2.9 2.4.6-3.7Z" fill="#fff" stroke="#0C296E" stroke-width=".5" stroke-miterlimit="10" stroke-linecap="round" stroke-linejoin="round"/><path d="M263.8 143.301v2.3M263.8 147.101v2.3M260.8 146.301h2.3M264.5 146.301h2.4M161.2 95.8v1.6M161.2 98.4v1.6M159.2 97.9h1.5M161.7 97.9h1.6" stroke="#0C296E" stroke-width=".5" stroke-miterlimit="10" stroke-linecap="round" stroke-linejoin="round"/></svg>