<svg viewBox="0 0 400 300" fill="none" xmlns="http://www.w3.org/2000/svg"><rect x="124.488" y="69.811" width="30.042" height="52.958" rx="3.071" transform="rotate(-11.217 124.488 69.811)" fill="#fff" stroke="#000" stroke-width="1.536" stroke-linejoin="round"/><rect x="164.045" y="56.626" width="30.042" height="52.958" rx="3.071" transform="rotate(7.481 164.045 56.626)" fill="#fff" stroke="#000" stroke-width="1.536" stroke-linejoin="round"/><rect x="210.463" y="58.124" width="23.983" height="42.277" rx="3.071" transform="rotate(12.712 210.463 58.124)" fill="#fff" stroke="#000" stroke-width="1.536" stroke-linejoin="round"/><path d="m233.354 183.607-11.85-18.87c-4.373.019-9.811 1.104-13.949 1.818-13.065 2.253-11.086 14.74.932 16.098l24.867.954Z" fill="#7DB5FF"/><path d="M221.504 164.737c-4.373.019-9.811 1.104-13.949 1.818-13.065 2.253-11.086 14.74.932 16.098l24.867.954" stroke="#000" stroke-width="1.536" stroke-linecap="round"/><rect x="202.468" y="138.144" width="68.273" height="120.351" rx="6.143" transform="rotate(-32.05 202.468 138.144)" fill="#fff" stroke="#000" stroke-width="1.536" stroke-linejoin="round"/><path d="M288.664 160.112c7.768 13.414 3.19 30.584-10.223 38.352-13.414 7.767-30.584 3.19-38.352-10.223-7.767-13.414-3.19-30.585 10.223-38.352 13.414-7.768 30.585-3.191 38.352 10.223Z" fill="#FF7043" stroke="#000" stroke-width="1.536"/><path fill-rule="evenodd" clip-rule="evenodd" d="M257.81 160.355c.42-.197.928-.215 1.357.027.338.191.556.503.658.652.136.201.274.443.408.692.203.38.435.852.682 1.354l.235.476c.69 1.395 1.494 2.942 2.379 4.062.886 1.122 2.202 2.294 3.365 2.926.347.188.634.303.857.366a4.433 4.433 0 0 0-.069-.138l-.012-.024c-.301-.602-.751-1.498-.924-2.473-.178-1.006-.047-2.652.172-3.921.111-.646.263-1.298.455-1.796.087-.222.233-.557.482-.838.128-.145.375-.38.756-.504a1.47 1.47 0 0 1 1.184.105c.412.232.717.642.905.91.224.319.461.709.692 1.097l.128.215c.444.745.9 1.512 1.391 2.14.615.787 1.139 1.08 1.839 1.471.234.131.487.272.769.447 1.182.729 2.273 1.768 3.288 4.244 2.184 5.327-1.379 11.931-7.037 15.303-2.704 1.612-6.008 2.62-9.147 2.59-3.161-.031-6.221-1.123-8.216-3.786-1.846-2.464-2.47-4.973-2.544-6.875-.036-.942.062-1.769.237-2.391a3.15 3.15 0 0 1 .406-.918 1.81 1.81 0 0 1 .572-.544c.356-.21.859-.317 1.342-.112.236.1.428.25.543.344.135.111.274.241.409.371.148.143.327.324.513.511l.4.4c.684.678 1.436 1.364 2.18 1.795.123.071.241.134.353.19a54.165 54.165 0 0 1-1.172-1.975c-1.073-1.918-2.28-4.483-2.365-6.973-.06-1.744.268-3.987.679-5.732.205-.872.445-1.682.696-2.278.117-.278.279-.614.501-.888.106-.131.318-.366.653-.522Zm1.831 19.772-.001-.003.001.003Zm8.565-9.158h.002-.002Zm-9.683-6.558c-.382 1.623-.664 3.634-.614 5.088.064 1.892 1.023 4.047 2.077 5.932.425.759.845 1.44 1.204 2.023l.227.368c.195.319.376.62.508.869.066.125.133.26.186.394.04.101.128.334.126.615-.004.633-.35 1.199-.898 1.544-.475.301-1.005.38-1.437.381-.881.001-1.9-.321-2.922-.912-.951-.55-1.819-1.339-2.491-1.997l.002.075c.057 1.474.546 3.53 2.093 5.594 1.462 1.952 3.723 2.813 6.269 2.838 2.569.024 5.358-.812 7.654-2.181 4.896-2.917 7.418-8.279 5.842-12.125-.851-2.074-1.644-2.722-2.373-3.172-.154-.095-.328-.191-.516-.295-.765-.423-1.773-.979-2.698-2.163-.5-.639-.96-1.384-1.352-2.038-.125.984-.155 1.94-.07 2.421.108.609.407 1.231.73 1.875l.028.054c.138.276.297.593.401.873.057.152.12.352.146.572a1.61 1.61 0 0 1-.181.962c-.252.464-.62.86-1.105 1.129a2.938 2.938 0 0 1-1.431.355c-.867-.002-1.729-.337-2.462-.735-1.499-.814-3.044-2.213-4.08-3.525-1.05-1.33-1.948-3.08-2.629-4.458a156.9 156.9 0 0 1-.216-.437l-.018.076Z" fill="#fff"/><path d="M273.002 149.366c-4.5 9.151 23.2 30.932 30.283 34.482 0 0 2.032 4.633 8.036 12.397 6.004 7.765 10.197 9.175 10.197 9.175l-29.793 18.994c37.66 1.223 46.456 3.563 61.843 8.523l15.934-50.458c-27.128-.564-55.867-19.964-72.699-30.831-15.897-10.263-20.787-8.412-23.801-2.282Z" fill="#7DB5FF"/><path d="m303.285 183.848.344-.686c.16.08.287.214.359.378l-.703.308Zm-30.283-34.482-.689-.339.689.339Zm23.801 2.282.416-.645-.416.645Zm72.699 30.831.016-.768a.769.769 0 0 1 .717.999l-.733-.231Zm-15.934 50.458.732.231a.762.762 0 0 1-.38.451.764.764 0 0 1-.587.049l.235-.731Zm-61.843-8.523-.025.767a.768.768 0 0 1-.388-1.415l.413.648Zm29.793-18.994.245-.727a.768.768 0 0 1 .167 1.375l-.412-.648Zm-18.577-20.886c-3.639-1.823-12.399-8.215-19.676-15.276-3.642-3.534-6.957-7.278-9.08-10.742-1.062-1.732-1.847-3.426-2.213-5.014-.366-1.593-.322-3.126.341-4.475l1.378.678c-.462.939-.536 2.088-.222 3.452.315 1.368 1.012 2.904 2.025 4.557 2.026 3.304 5.236 6.944 8.841 10.442 7.219 7.006 15.85 13.28 19.294 15.006l-.688 1.372Zm-30.628-35.507c.779-1.584 1.713-2.965 2.974-3.941 1.279-.99 2.843-1.523 4.796-1.494 3.825.058 9.184 2.278 17.136 7.411l-.833 1.29c-7.945-5.129-12.979-7.115-16.326-7.166-1.634-.024-2.851.413-3.833 1.173-1.001.775-1.808 1.924-2.536 3.405l-1.378-.678Zm24.906 1.976c8.428 5.441 19.781 12.981 32.413 19.236 12.638 6.258 26.486 11.194 39.886 11.472l-.032 1.535c-13.728-.285-27.814-5.331-40.535-11.631-12.727-6.302-24.16-13.896-32.565-19.322l.833-1.29Zm73.016 31.707L354.3 233.168l-1.464-.462 15.934-50.458 1.465.462Zm-16.902 50.958c-7.682-2.476-13.682-4.286-22.451-5.635-8.783-1.351-20.36-2.24-39.182-2.852l.05-1.535c18.838.612 30.489 1.504 39.366 2.869 8.891 1.367 14.982 3.207 22.688 5.691l-.471 1.462Zm-62.021-9.902 29.793-18.993.825 1.295-29.792 18.993-.826-1.295Zm30.206-18.346-.246.728-.001-.001h-.002a.014.014 0 0 0-.006-.002l-.016-.006-.051-.019a8.57 8.57 0 0 1-.782-.36 16.994 16.994 0 0 1-2.198-1.397c-1.862-1.369-4.461-3.715-7.503-7.648l1.215-.939c2.963 3.831 5.462 6.073 7.198 7.35a15.513 15.513 0 0 0 1.997 1.272c.226.117.395.194.503.24.054.023.093.038.116.047l.022.008.002.001h-.001l-.001-.001h-.001l-.245.727Zm-10.805-8.705c-3.021-3.908-5.048-7.033-6.323-9.189a46.966 46.966 0 0 1-1.377-2.483 25.167 25.167 0 0 1-.323-.652l-.079-.17-.021-.046-.005-.013a.008.008 0 0 1-.002-.004l-.001-.001.703-.309.703-.309.001.001.003.008.016.035.07.15c.064.135.163.34.302.61.277.542.711 1.35 1.332 2.401 1.243 2.102 3.234 5.175 6.216 9.032l-1.215.939Z" fill="#000"/><path d="m239.014 225.77.104.27a8.078 8.078 0 0 0 10.465 4.627l8.085-3.127a8.078 8.078 0 0 0 4.628-10.465l-.104-.27a8.078 8.078 0 0 0-10.465-4.627l-8.086 3.127a8.078 8.078 0 0 0-4.627 10.465Z" fill="#7DB5FF" stroke="#000" stroke-width="1.536"/><path d="m233.074 210.407.105.269a8.077 8.077 0 0 0 10.465 4.628l8.085-3.127a8.08 8.08 0 0 0 4.628-10.466l-.105-.269a8.078 8.078 0 0 0-10.465-4.628l-8.085 3.128a8.078 8.078 0 0 0-4.628 10.465Z" fill="#7DB5FF" stroke="#000" stroke-width="1.536"/><path d="m227.13 195.046.104.269a8.078 8.078 0 0 0 10.465 4.628l8.086-3.127a8.078 8.078 0 0 0 4.627-10.465l-.104-.27a8.078 8.078 0 0 0-10.465-4.627l-8.085 3.127a8.077 8.077 0 0 0-4.628 10.465Z" fill="#7DB5FF" stroke="#000" stroke-width="1.536"/><rect x="331.977" y="235.497" width="66.784" height="28.576" rx="8.894" transform="rotate(-75.51 331.977 235.497)" fill="#FDEB5A" stroke="#000" stroke-width="1.536"/><path d="M261.505 118.833c-1.434-.522-2.804-1.631-3.391-3.131-.196-.326-.261-.652-.392-1.043l-4.106.975 4.052 16.428c.392 1.826-.715 3.715-2.605 4.17-.586.196-1.173.13-1.695-.001-1.238-.326-2.282-1.239-2.608-2.608-.458-1.891.714-3.846 2.604-4.301.326-.065.717-.065 1.043-.129l-.784-3.26-.196-.978c-.326.065-.717.065-1.043.13-4.171 1.04-6.711 5.275-5.665 9.448.588 2.542 2.414 4.498 4.761 5.412 1.435.523 3.064.719 4.628.329 4.171-1.04 6.711-5.275 5.665-9.447l-2.091-8.345a11.03 11.03 0 0 0 6.193.46l-.85-3.194-.261-.913c-1.043.391-2.151.325-3.259-.002ZM295.699 120.816c-1.076.208-2.329.032-3.245-.674-.241-.128-.402-.304-.627-.497l-2.167 2.119 8.569 8.614c.916.979.934 2.551-.061 3.53-.289.337-.675.514-1.044.626-.883.257-1.863.081-2.571-.641-.98-.995-.982-2.631.014-3.61.176-.161.417-.305.594-.466l-1.688-1.716-.483-.53c-.176.161-.417.305-.594.466a5.592 5.592 0 0 0 .007 7.91c1.302 1.348 3.149 1.877 4.932 1.572 1.076-.209 2.152-.691 2.971-1.509a5.593 5.593 0 0 0-.007-7.911l-4.372-4.363a7.916 7.916 0 0 0 3.982-2.007l-1.704-1.652-.499-.465c-.497.626-1.204.995-2.007 1.204Z" fill="#25F4EE"/><path opacity=".5" d="M144.281 77.493c-.885.172-1.915.027-2.668-.553-.198-.106-.33-.25-.515-.409l-1.781 1.741 7.043 7.082c.754.804.768 2.097-.05 2.902-.238.277-.554.422-.858.514-.726.211-1.532.066-2.113-.527-.806-.818-.807-2.163.011-2.968.145-.132.343-.25.488-.382l-1.388-1.411-.396-.435c-.145.132-.343.25-.488.382a4.597 4.597 0 0 0 .005 6.503c1.07 1.107 2.589 1.542 4.055 1.291.884-.171 1.769-.567 2.441-1.24a4.597 4.597 0 0 0-.005-6.502l-3.594-3.587a6.508 6.508 0 0 0 3.273-1.65l-1.401-1.358-.409-.382c-.409.514-.99.818-1.65.99Z" fill="#25F4EE"/><path d="M222.644 225.959c-10.918 7.36-42.1 12.288-60.589-16.921-5.077-8.021 9.084-11.442 9.039-.628-.046 10.813-33.161 12.451-37.885-8.974" stroke="#000" stroke-width="1.536" stroke-dasharray="2.3 2.3"/><path fill-rule="evenodd" clip-rule="evenodd" d="M78.657 135.228 63.19 193.759c-3.642 13.779 5.114 27.77 19.1 30.517 12.495 2.455 24.805-5.002 28.417-17.212l2.941-9.94 6.811-26.852a15.51 15.51 0 0 0-1.582-11.537l-1.47-2.561a11.263 11.263 0 0 1 1.102-12.801c5.609-6.755 1.673-17.045-7.012-18.333l-9.141-1.356 2.103-8.117a10.098 10.098 0 0 0-3.557-10.819 10.117 10.117 0 0 0-7.601-1.991 10.03 10.03 0 0 0-8.354 7.7l-6.022 23.277c-.127.493-.216.992-.267 1.494Z" fill="#9B5D2E"/><path d="m63.189 193.759-.743-.196.743.196Zm15.468-58.531.742.196.016-.058.006-.06-.764-.078Zm3.632 89.048.148-.753-.148.753Zm28.417-17.212.737.218-.737-.218Zm2.941-9.94.736.218.005-.014.003-.015-.744-.189Zm6.811-26.852.745.189-.745-.189Zm-1.582-11.537.666-.383-.666.383Zm-1.47-2.561-.666.382.666-.382Zm1.102-12.801-.59-.49.59.49Zm-7.012-18.333-.113.759.113-.759Zm-9.141-1.356-.743-.193-.214.827.845.126.112-.76Zm2.103-8.117-.737-.214-.003.011-.003.01.743.193Zm.329-3.988-.762.09.762-.09Zm-1.251-3.807-.668.38.668-.38Zm-2.635-3.024.468-.609-.468.609Zm-11.368-.643.398.657-.398-.657Zm-2.94 2.709.623.45-.622-.45Zm-1.647 3.643.744.192.002-.01.003-.011-.749-.171Zm-6.022 23.277-.743-.192.743.192Zm-14.993 60.221 15.468-58.531-1.484-.392-15.469 58.531 1.485.392Zm18.506 29.568c-13.55-2.662-22.034-16.217-18.506-29.568l-1.485-.392c-3.755 14.208 5.274 28.634 19.695 31.467l.296-1.507Zm27.533-16.677c-3.5 11.83-15.427 19.055-27.533 16.677l-.296 1.507c12.883 2.53 25.577-5.158 29.302-17.748l-1.473-.436Zm2.941-9.94-2.941 9.94 1.473.436 2.94-9.94-1.472-.436Zm6.803-26.823-6.811 26.853 1.488.377 6.812-26.852-1.489-.378Zm-1.504-10.966a14.745 14.745 0 0 1 1.504 10.966l1.489.378a16.287 16.287 0 0 0-1.661-12.109l-1.332.765Zm-1.47-2.561 1.47 2.561 1.332-.765-1.47-2.561-1.332.765Zm1.178-13.673a12.029 12.029 0 0 0-1.178 13.673l1.332-.765a10.492 10.492 0 0 1 1.027-11.927l-1.181-.981Zm-6.535-17.084c8.093 1.2 11.761 10.789 6.535 17.084l1.181.981c5.991-7.216 1.787-18.208-7.491-19.584l-.225 1.519Zm-9.14-1.355 9.14 1.355.225-1.519-9.14-1.355-.225 1.519Zm.855-.567 2.104-8.117-1.487-.386-2.103 8.117 1.486.386Zm2.098-8.096c.404-1.392.524-2.852.354-4.293l-1.525.181a9.297 9.297 0 0 1-.304 3.684l1.475.428Zm.354-4.293a10.887 10.887 0 0 0-1.347-4.096l-1.335.76a9.337 9.337 0 0 1 1.157 3.517l1.525-.181Zm-1.347-4.096a10.888 10.888 0 0 0-2.834-3.253l-.935 1.218c.99.76 1.817 1.71 2.434 2.795l1.335-.76Zm-2.834-3.253a10.893 10.893 0 0 0-3.875-1.899l-.389 1.486a9.351 9.351 0 0 1 3.329 1.631l.935-1.218Zm-3.875-1.899a10.866 10.866 0 0 0-4.304-.243l.22 1.52a9.325 9.325 0 0 1 3.695.209l.39-1.486Zm-4.304-.243a10.818 10.818 0 0 0-4.054 1.451l.795 1.314a9.277 9.277 0 0 1 3.479-1.245l-.22-1.52Zm-4.054 1.451a10.789 10.789 0 0 0-3.165 2.917l1.245.899a9.245 9.245 0 0 1 2.715-2.502l-.795-1.314Zm-3.165 2.917a10.797 10.797 0 0 0-1.773 3.921l1.497.342a9.259 9.259 0 0 1 1.521-3.364l-1.245-.899Zm-1.768 3.9-6.022 23.277 1.487.384 6.022-23.277-1.487-.384Zm-6.022 23.277a10.822 10.822 0 0 0-.288 1.608l1.528.156c.047-.464.13-.925.247-1.38l-1.487-.384Z" fill="#000"/><rect x="101.913" y="96.329" width="39.407" height="71.96" rx="3.071" transform="rotate(17.551 101.913 96.329)" fill="#fff" stroke="#000" stroke-width="1.536" stroke-linejoin="round"/><path d="M121.362 150.921c-4.217-.588-7.279-4.472-6.868-8.711a7.5 7.5 0 0 1 8.446-6.763l12.816 1.606c4.351.545 7.521 4.558 7.046 8.919a7.586 7.586 0 0 1-8.642 6.733l-12.798-1.784Z" fill="#9B5D2E" stroke="#000" stroke-width="1.536"/><path d="M118.347 164.314c-4-.557-6.883-4.272-6.43-8.285a7.034 7.034 0 0 1 8.047-6.21l13.325 1.927c3.954.572 6.799 4.242 6.366 8.213a7 7 0 0 1-7.975 6.214l-13.333-1.859ZM117.806 180.171c-4.281-.56-7.306-4.492-6.749-8.773a7.764 7.764 0 0 1 8.761-6.696l9.02 1.236a7.806 7.806 0 0 1 6.68 8.71 7.737 7.737 0 0 1-8.685 6.703l-9.027-1.18Z" fill="#9B5D2E" stroke="#000" stroke-width="1.536"/><rect x="55.359" y="193.559" width="64.488" height="27.593" rx="8.894" transform="rotate(13.814 55.36 193.559)" fill="#00897B" stroke="#000" stroke-width="1.536"/><path d="M125.783 121.221c-.291-1.38-.09-2.996.799-4.189.161-.312.384-.523.627-.816l-2.769-2.744-10.907 11.199c-1.24 1.198-3.263 1.253-4.542-.007-.44-.365-.675-.857-.827-1.33-.349-1.131-.142-2.395.772-3.32 1.26-1.282 3.365-1.317 4.645-.057.21.224.401.531.611.755l2.173-2.207.672-.631c-.21-.224-.401-.531-.611-.755a7.197 7.197 0 0 0-10.176.17c-1.707 1.703-2.35 4.091-1.921 6.378.291 1.38.932 2.754 2.002 3.79 2.852 2.764 7.414 2.687 10.176-.17l5.524-5.714a10.187 10.187 0 0 0 2.662 5.082l2.091-2.226.588-.651c-.815-.627-1.304-1.528-1.589-2.557Z" fill="#25F4EE"/><path d="M331.927 102.94c.189-.784 1.305-.784 1.493 0l2.815 11.699a10.232 10.232 0 0 0 5.076 6.603l8.466 4.582a.768.768 0 0 1 0 1.351l-8.466 4.583a10.227 10.227 0 0 0-5.076 6.603l-2.815 11.698c-.188.785-1.304.785-1.493 0l-2.814-11.698a10.227 10.227 0 0 0-5.076-6.603l-8.466-4.583a.768.768 0 0 1 0-1.351l8.466-4.582a10.232 10.232 0 0 0 5.076-6.603l2.814-11.699Z" fill="#FDEB5A" stroke="#000" stroke-width="1.536" stroke-linejoin="round"/><path d="M34.005 153.314c.196-.773 1.294-.773 1.49 0l.316 1.253a10.23 10.23 0 0 0 5.23 6.587l1.459.752a.768.768 0 0 1 0 1.365l-1.459.752a10.23 10.23 0 0 0-5.23 6.587l-.317 1.253c-.195.773-1.293.773-1.489 0l-.316-1.253a10.229 10.229 0 0 0-5.23-6.587l-1.46-.752a.768.768 0 0 1 0-1.365l1.46-.752a10.229 10.229 0 0 0 5.23-6.587l.316-1.253Z" fill="#FE2C55" stroke="#000" stroke-width="1.536" stroke-linejoin="round"/><path d="M54.512 120.901c-.675-16.071 8.72-49.645 51.7-55.38" stroke="#000" stroke-width="1.536" stroke-dasharray="2.3 2.3"/><circle cx="50.106" cy="142.921" r="4.607" fill="#fff" stroke="#000" stroke-width="1.536"/></svg>