<svg viewBox="0 0 400 300" fill="none" xmlns="http://www.w3.org/2000/svg"><path d="M336.511 202.741a5.402 5.402 0 1 0-1.652-10.678 5.402 5.402 0 0 0 1.652 10.678Z" fill="#fff" stroke="#000" stroke-width="1.544"/><mask id="a" fill="#fff"><path d="m360.045 156.818-3.573 2.268-3.751 2.41c-1.315.851-2.631 1.685-3.928 2.552l-2.851 1.981-3.467 2.38c-.584.397-1.166.81-1.715 1.239-2.018 1.538-4.125 2.964-6.127 4.502l-4.565 3.571c-2.551 1.95-5.011 4.029-7.543 6.028-3.388 2.627-6.6 5.446-9.809 8.315-1.604 1.451-3.311 2.858-4.911 4.376-1.873 1.766-3.797 3.534-5.686 5.301l-3.82 3.752a338.323 338.323 0 0 0-6.019 6.021c-1.74 1.759-3.39 3.631-5.129 5.408-1.738 1.776-3.058 3.213-4.553 4.843-2.161 2.383-4.357 4.734-6.448 7.18-.399.5-1.167.476-1.652.06a18.28 18.28 0 0 0-.753-.612c-1.235-.889-3.534-1.875-6.366-1.681-2.832.193-4.015 1.083-6.434 3.095-.556.462-1.416.484-1.973.007-.558-.478-1.241-1.177-2.182-2.269a.52.52 0 0 1-.035-.735 2.604 2.604 0 0 0 .386-2.029 2.198 2.198 0 0 0-.419-.954 2.201 2.201 0 0 0-1.836-.854 2.188 2.188 0 0 0-1 .292c-.358.219-.593.197-.827-.127a4.548 4.548 0 0 0-.586-.691 1.147 1.147 0 0 1-.492-.774 1.15 1.15 0 0 1 .227-.888 2.223 2.223 0 0 0-.521-2.771 2.074 2.074 0 0 0-2.609-.275c-.293.165-.477.174-.691-.1a23.332 23.332 0 0 0-1.013-1.19.624.624 0 0 1-.227-.449.612.612 0 0 1 .183-.47 2.44 2.44 0 0 0-.138-2.823 2.14 2.14 0 0 0-2.628-.659c-.69.268-.69.268-1.187-.31l-.782-.933a.491.491 0 0 1-.177-.352.477.477 0 0 1 .142-.367 2.403 2.403 0 0 0 .445-1.864 2.214 2.214 0 0 0-1.104-1.623 2.206 2.206 0 0 0-1.961-.103c-.687.335-.705.303-1.168-.261l-.373-.434a3.425 3.425 0 0 1-.59-.775c-.152-.361.257-.548.376-.855a2.454 2.454 0 0 0-.504-2.789 1.99 1.99 0 0 0-2.524-.245c-.326.166-.533.095-.776-.13-.244-.225-.575-.558-.787-.886a1.368 1.368 0 0 1 .032-1.539 2.21 2.21 0 0 0-1.95-3.254 2.108 2.108 0 0 0-1.055.353.527.527 0 0 1-.211.122.524.524 0 0 1-.617-.283 36.902 36.902 0 0 0-2.391-3.015c-.231-.273-.274-.472-.036-.735a11.702 11.702 0 0 0 3.879-6.987 12.492 12.492 0 0 0-1.824-9.255c-.706-1.088-.704-1.055.152-2.034 1.143-1.295 2.268-2.606 3.409-3.917l3.002-3.362 3.386-3.698 2.452-2.598 3.183-3.404c.542-.562 1.101-1.125 1.594-1.652 2.032-1.957 3.975-3.995 6.025-5.92 1.599-1.551 3.346-3.144 5.027-4.733a270.976 270.976 0 0 1 12.957-11.432c1.867-1.548 3.714-3.145 5.634-4.645 1.92-1.5 3.934-3.123 5.935-4.66 2.002-1.538 4.055-3.045 6.091-4.567 2.035-1.523 4.483-3.183 6.716-4.782 2.233-1.599 4.941-3.406 7.422-5.067 3.243-2.185 6.486-4.352 9.937-6.396.44-.256.861-.544 1.283-.816.422-.272.57-.329 1.028.134a11.857 11.857 0 0 0 11.701 3.348 10.938 10.938 0 0 0 4.38-2.206c.483-.392.5-.393.908.073.781.916 1.53 1.851 2.328 2.75.301.337.381.601.047.969a1.956 1.956 0 0 0-.043 2.564 2.246 2.246 0 0 0 2.468.801 1.208 1.208 0 0 1 1.035-.122 1.211 1.211 0 0 1 .752.721c.066.085.137.165.213.241.498.595.498.595.059 1.22a2.143 2.143 0 0 0 .006 2.528 2.508 2.508 0 0 0 2.62.843c.907-.295.907-.295 1.495.43l.319.369c.534.644.534.644.065 1.337a2.056 2.056 0 0 0 0 2.395 2.266 2.266 0 0 0 2.161 1.05c.244-.024.483-.081.712-.169.692-.235.691-.251 1.135.28l.374.45c.214.274.543.493.627.84.084.348-.326.535-.463.81a2.26 2.26 0 0 0 .121 2.472 2.402 2.402 0 0 0 2.484.817c.135-.026.263-.077.378-.152a.568.568 0 0 1 .831.21c.143.194.319.37.479.563.269.268.498.573.681.905.1.346-.323.585-.476.894a2.357 2.357 0 0 0 1.761 3.257c.47.082.953.02 1.387-.179a.593.593 0 0 1 .237-.107.608.608 0 0 1 .66.315c.305.403.643.805.996 1.19a.446.446 0 0 1 .034.702 2.093 2.093 0 0 0-.046 2.48 2.327 2.327 0 0 0 2.888 1.183c.624-.249.918-.045 1.292.405.768.984 1.601 1.932 2.386 2.915.409.482.394.517-.144.828a10.18 10.18 0 0 0-4.218 4.157 9.216 9.216 0 0 0 .213 9.518l.548.944Z"/></mask><path d="m360.045 156.818-3.573 2.268-3.751 2.41c-1.315.851-2.631 1.685-3.928 2.552l-2.851 1.981-3.467 2.38c-.584.397-1.166.81-1.715 1.239-2.018 1.538-4.125 2.964-6.127 4.502l-4.565 3.571c-2.551 1.95-5.011 4.029-7.543 6.028-3.388 2.627-6.6 5.446-9.809 8.315-1.604 1.451-3.311 2.858-4.911 4.376-1.873 1.766-3.797 3.534-5.686 5.301l-3.82 3.752a338.323 338.323 0 0 0-6.019 6.021c-1.74 1.759-3.39 3.631-5.129 5.408-1.738 1.776-3.058 3.213-4.553 4.843-2.161 2.383-4.357 4.734-6.448 7.18-.399.5-1.167.476-1.652.06a18.28 18.28 0 0 0-.753-.612c-1.235-.889-3.534-1.875-6.366-1.681-2.832.193-4.015 1.083-6.434 3.095-.556.462-1.416.484-1.973.007-.558-.478-1.241-1.177-2.182-2.269a.52.52 0 0 1-.035-.735 2.604 2.604 0 0 0 .386-2.029 2.198 2.198 0 0 0-.419-.954 2.201 2.201 0 0 0-1.836-.854 2.188 2.188 0 0 0-1 .292c-.358.219-.593.197-.827-.127a4.548 4.548 0 0 0-.586-.691 1.147 1.147 0 0 1-.492-.774 1.15 1.15 0 0 1 .227-.888 2.223 2.223 0 0 0-.521-2.771 2.074 2.074 0 0 0-2.609-.275c-.293.165-.477.174-.691-.1a23.332 23.332 0 0 0-1.013-1.19.624.624 0 0 1-.227-.449.612.612 0 0 1 .183-.47 2.44 2.44 0 0 0-.138-2.823 2.14 2.14 0 0 0-2.628-.659c-.69.268-.69.268-1.187-.31l-.782-.933a.491.491 0 0 1-.177-.352.477.477 0 0 1 .142-.367 2.403 2.403 0 0 0 .445-1.864 2.214 2.214 0 0 0-1.104-1.623 2.206 2.206 0 0 0-1.961-.103c-.687.335-.705.303-1.168-.261l-.373-.434a3.425 3.425 0 0 1-.59-.775c-.152-.361.257-.548.376-.855a2.454 2.454 0 0 0-.504-2.789 1.99 1.99 0 0 0-2.524-.245c-.326.166-.533.095-.776-.13-.244-.225-.575-.558-.787-.886a1.368 1.368 0 0 1 .032-1.539 2.21 2.21 0 0 0-1.95-3.254 2.108 2.108 0 0 0-1.055.353.527.527 0 0 1-.211.122.524.524 0 0 1-.617-.283 36.902 36.902 0 0 0-2.391-3.015c-.231-.273-.274-.472-.036-.735a11.702 11.702 0 0 0 3.879-6.987 12.492 12.492 0 0 0-1.824-9.255c-.706-1.088-.704-1.055.152-2.034 1.143-1.295 2.268-2.606 3.409-3.917l3.002-3.362 3.386-3.698 2.452-2.598 3.183-3.404c.542-.562 1.101-1.125 1.594-1.652 2.032-1.957 3.975-3.995 6.025-5.92 1.599-1.551 3.346-3.144 5.027-4.733a270.976 270.976 0 0 1 12.957-11.432c1.867-1.548 3.714-3.145 5.634-4.645 1.92-1.5 3.934-3.123 5.935-4.66 2.002-1.538 4.055-3.045 6.091-4.567 2.035-1.523 4.483-3.183 6.716-4.782 2.233-1.599 4.941-3.406 7.422-5.067 3.243-2.185 6.486-4.352 9.937-6.396.44-.256.861-.544 1.283-.816.422-.272.57-.329 1.028.134a11.857 11.857 0 0 0 11.701 3.348 10.938 10.938 0 0 0 4.38-2.206c.483-.392.5-.393.908.073.781.916 1.53 1.851 2.328 2.75.301.337.381.601.047.969a1.956 1.956 0 0 0-.043 2.564 2.246 2.246 0 0 0 2.468.801 1.208 1.208 0 0 1 1.035-.122 1.211 1.211 0 0 1 .752.721c.066.085.137.165.213.241.498.595.498.595.059 1.22a2.143 2.143 0 0 0 .006 2.528 2.508 2.508 0 0 0 2.62.843c.907-.295.907-.295 1.495.43l.319.369c.534.644.534.644.065 1.337a2.056 2.056 0 0 0 0 2.395 2.266 2.266 0 0 0 2.161 1.05c.244-.024.483-.081.712-.169.692-.235.691-.251 1.135.28l.374.45c.214.274.543.493.627.84.084.348-.326.535-.463.81a2.26 2.26 0 0 0 .121 2.472 2.402 2.402 0 0 0 2.484.817c.135-.026.263-.077.378-.152a.568.568 0 0 1 .831.21c.143.194.319.37.479.563.269.268.498.573.681.905.1.346-.323.585-.476.894a2.357 2.357 0 0 0 1.761 3.257c.47.082.953.02 1.387-.179a.593.593 0 0 1 .237-.107.608.608 0 0 1 .66.315c.305.403.643.805.996 1.19a.446.446 0 0 1 .034.702 2.093 2.093 0 0 0-.046 2.48 2.327 2.327 0 0 0 2.888 1.183c.624-.249.918-.045 1.292.405.768.984 1.601 1.932 2.386 2.915.409.482.394.517-.144.828a10.18 10.18 0 0 0-4.218 4.157 9.216 9.216 0 0 0 .213 9.518l.548.944Z" fill="#0C9CAD" stroke="#000" stroke-width="2.644" mask="url(#a)"/><path d="m258.668 145.802 45.417 51.49" stroke="#fff" stroke-width=".836" stroke-miterlimit="10"/><path d="m270.037 213.692-2.663-.004a.258.258 0 0 1-.136-.029.26.26 0 0 1-.104-.093l-1.482-2.239a.289.289 0 0 0-.136-.1.279.279 0 0 0-.169-.005.282.282 0 0 0-.207.247l.012 2.662a.26.26 0 0 1-.029.137.266.266 0 0 1-.093.104l-2.205 1.497a.287.287 0 0 0-.002.453.285.285 0 0 0 .161.058l2.663.005a.266.266 0 0 1 .24.122l1.499 2.238a.27.27 0 0 0 .449.01.266.266 0 0 0 .046-.168l-.014-2.696a.27.27 0 0 1 .123-.224l2.204-1.497a.282.282 0 0 0 .003-.452.282.282 0 0 0-.162-.059M261.473 159.79l-1.616 1.201a.249.249 0 0 1-.217.011l-1.996-.757a.218.218 0 0 0-.248.072.22.22 0 0 0-.004.258l1.189 1.718a.182.182 0 0 1 .01.2l-.743 1.945a.237.237 0 0 0 .202.292.236.236 0 0 0 .13-.023l1.617-1.184a.182.182 0 0 1 .2-.01l1.929.76a.216.216 0 0 0 .25-.059.214.214 0 0 0 .051-.125.216.216 0 0 0-.031-.131l-1.207-1.733a.22.22 0 0 1-.01-.2l.743-1.945a.237.237 0 0 0-.079-.241.232.232 0 0 0-.252-.028M252.765 170.961l-2.629.681a.304.304 0 0 1-.267.013l-2.016-1.845a.288.288 0 0 0-.351-.042.283.283 0 0 0-.12.333l.682 2.663a.282.282 0 0 1 .012.251l-1.809 2.047a.27.27 0 0 0-.065.349.27.27 0 0 0 .339.107l2.63-.664a.3.3 0 0 1 .267-.014l2.032 1.844a.286.286 0 0 0 .443-.116.273.273 0 0 0 .012-.174l-.682-2.663a.297.297 0 0 1-.036-.124.292.292 0 0 1 .023-.127l1.81-2.047a.287.287 0 0 0 .04-.339.284.284 0 0 0-.315-.133ZM290.669 196.105h-1.726a.192.192 0 0 1-.083-.029.204.204 0 0 1-.062-.062l-.951-1.454a.184.184 0 0 0-.197-.065.182.182 0 0 0-.129.163l-.017 1.753a.162.162 0 0 1-.091.144l-1.438.987a.174.174 0 0 0-.063.088.176.176 0 0 0-.002.109.186.186 0 0 0 .061.09.185.185 0 0 0 .101.039h1.726a.2.2 0 0 1 .083.028.196.196 0 0 1 .062.063l.961 1.459c.022.03.053.052.088.064a.184.184 0 0 0 .199-.06.177.177 0 0 0 .038-.101l.009-1.759a.19.19 0 0 1 .09-.145l1.448-.981a.186.186 0 0 0 .07-.091.188.188 0 0 0 .001-.115.183.183 0 0 0-.178-.125ZM268.208 193.585c.215.274.36.597.423.941.12.493.117 1.009-.009 1.5a3.052 3.052 0 0 1-.713 1.313 2.979 2.979 0 0 1-4.063.412 3.736 3.736 0 0 1-.959-1.129 3.177 3.177 0 0 1-.249-2.002c.098-.469.299-.909.589-1.288a3.13 3.13 0 0 1 1.083-.9c-.951-.946-1.858-1.94-2.825-2.916a6.693 6.693 0 0 0-1.949 2.215 6.773 6.773 0 0 0-.817 2.851 6.872 6.872 0 0 0 1.547 4.855c.3.338.622.654.966.945a6.792 6.792 0 0 0 2.83 1.387 6.728 6.728 0 0 0 3.142-.045 6.506 6.506 0 0 0 3.249-1.959 6.72 6.72 0 0 0 1.551-2.726 6.791 6.791 0 0 0 .152-3.143 7.12 7.12 0 0 0-1.673-3.414c-1.856-1.894-3.739-3.756-5.609-5.634.55-.109 1.092-.258 1.621-.446a9.496 9.496 0 0 0 3.288-2.083l-2.582-2.592a6.361 6.361 0 0 1-3.841 1.577 5.603 5.603 0 0 1-3.783-1.571c-.817.849-1.669 1.608-2.483 2.533l11.114 11.319Z" fill="#45D2E3"/><path d="m279.026 152.561 1.864-3.544 8.698 11.161 4.079-3.179-13.086-16.791-4.226 8.925 2.671 3.428Zm15.708-9.546c-2.126-2.728-2.887-5.151-1.361-6.34 1.426-1.112 3.317-.131 5.715 2.947 2.36 3.028 2.849 5.1 1.423 6.212-1.527 1.189-3.671-.116-5.777-2.819Zm-4.004 3.12c4.369 5.606 8.63 6.79 12.784 3.553 4.079-3.179 3.947-7.581-.422-13.187-1.95-2.502-3.807-4.111-5.956-5.011-2.124-.919-4.483-.488-6.786 1.306-4.154 3.237-4.027 7.684.38 13.339Zm18.947-27.998 4.56 22.832 2.352-1.833-4.535-22.852-2.377 1.853Zm-1.719 6.207c-.722-.926-1.652-1.449-2.809-1.592-1.178-.169-2.232.13-3.158.852-.926.721-1.473 1.67-1.617 2.828-.118 1.138.181 2.193.902 3.119.722.925 1.671 1.473 2.804 1.636 1.138.118 2.192-.18 3.118-.902.926-.721 1.473-1.671 1.636-2.804.144-1.157-.155-2.211-.876-3.137Zm-2.152 1.677c.526.675.391 1.585-.285 2.112-.676.527-1.566.416-2.093-.26-.526-.675-.435-1.591.24-2.117.676-.527 1.65-.361 2.138.265Zm15.348 8.391c1.138.119 2.192-.18 3.118-.901.926-.722 1.473-1.671 1.637-2.804.143-1.158-.156-2.212-.877-3.138-.722-.926-1.671-1.473-2.829-1.617-1.157-.143-2.212.155-3.138.877-.926.722-1.473 1.671-1.616 2.829-.119 1.138.18 2.192.901 3.118.722.926 1.671 1.473 2.804 1.636Zm-.989-4.417a1.513 1.513 0 0 1 1.701-1.327 1.513 1.513 0 0 1 1.326 1.702 1.64 1.64 0 0 1-1.701 1.326 1.64 1.64 0 0 1-1.326-1.701Zm-24.746 43.498c1.891 2.427 4.38 3.866 7.453 4.247 3.072.381 5.787-.367 8.214-2.259 2.453-1.911 3.867-4.38 4.223-7.433.381-3.072-.406-5.838-2.298-8.265-1.911-2.452-4.381-3.866-7.453-4.247-3.047-.401-5.807.342-8.259 2.253-2.428 1.892-3.822 4.386-4.203 7.458-.356 3.053.412 5.793 2.323 8.246Zm12.391-2.216c-1.276.995-2.703 1.383-4.281 1.165-1.578-.219-2.887-.969-3.881-2.245-.995-1.276-1.402-2.728-1.229-4.312.155-1.608.88-2.897 2.156-3.892 1.276-.995 2.703-1.383 4.326-1.159 1.603.199 2.911.949 3.906 2.225.994 1.277 1.402 2.729 1.203 4.332-.174 1.583-.924 2.892-2.2 3.886Zm13.817-15.111 5.43-4.232-2.808-3.604-5.43 4.232-2.574-3.303 6.856-5.344-2.847-3.653-11.086 8.639 13.437 17.242 4.229-3.296-5.207-6.681Zm13.636-10.627 5.431-4.232-2.808-3.604-5.431 4.232-2.574-3.303 6.857-5.344-2.848-3.653-11.085 8.639 13.436 17.242 4.229-3.296-5.207-6.681Z" fill="#fff"/><path d="m272.751 127.146-57.736 21.26.82 35.601 55.489-22.925 1.427-33.936Z" fill="#FFAC00"/><mask id="b" style="mask-type:alpha" maskUnits="userSpaceOnUse" x="215" y="127" width="59" height="58"><path d="m273.294 127.964-57.736 21.26.82 35.601 55.489-22.925 1.427-33.936Z" fill="#FFAC00"/></mask><g mask="url(#b)" fill-rule="evenodd" clip-rule="evenodd" fill="#fff"><path d="M251.69 129.695a.932.932 0 0 1 1.202-.543c2.489.941 4.528 2.025 6.101 3.584 1.589 1.574 2.64 3.57 3.265 6.229.289 1.229.269 2.458.252 3.545-.003.2-.006.394-.007.583-.008 1.266.064 2.367.574 3.439 1.494 3.141 4.998 3.935 8.91 3.102a17.527 17.527 0 0 0 5.477-2.214c1.639-1.018 2.922-2.22 3.632-3.408a.934.934 0 0 1 1.602.958c-.912 1.525-2.454 2.919-4.25 4.034a19.369 19.369 0 0 1-6.073 2.455c-4.221.898-8.925.199-10.983-4.125-.701-1.474-.763-2.935-.755-4.252.001-.223.004-.441.007-.653.016-1.088.029-2.053-.202-3.037-.562-2.39-1.47-4.05-2.762-5.331-1.307-1.295-3.069-2.264-5.448-3.164a.931.931 0 0 1-.542-1.202Z"/><path d="M249.795 131.72a.933.933 0 0 1 1.315.109c.399.471.834.948 1.292 1.447l.061.066c.435.475.887.968 1.324 1.476.913 1.059 1.802 2.228 2.396 3.536.714 1.57 1.188 3.426.996 5.191-.197 1.812-1.098 3.502-3.045 4.59-1.844 1.03-4.558 1.365-6.516 1.145-2.265-.255-3.546-1.648-4.685-2.888-.217-.235-.428-.465-.641-.681-.899-.914-1.89-2.172-2.736-3.513-.84-1.334-1.575-2.808-1.914-4.154a.932.932 0 1 1 1.809-.455c.272 1.078.895 2.363 1.684 3.614.783 1.243 1.693 2.393 2.487 3.2.294.298.558.58.804.843 1.122 1.199 1.879 2.009 3.401 2.18 1.68.189 3.977-.127 5.397-.92 1.364-.762 1.961-1.885 2.1-3.162.144-1.324-.21-2.834-.839-4.219-.485-1.066-1.238-2.076-2.111-3.09-.418-.485-.853-.959-1.292-1.439l-.056-.06a50.238 50.238 0 0 1-1.34-1.502.932.932 0 0 1 .109-1.314ZM263.336 129.967a.934.934 0 0 1 1.305.192l.302.404c.52.691.976 1.299 1.458 2.145.287.503.454 1.046.575 1.533.06.241.112.483.16.706l.003.011c.049.231.095.441.145.64.135.535.235 1.121.326 1.648.051.295.098.571.147.81.149.734.345 1.383.728 2.009.707 1.155 1.852 2.193 3.021 2.477.26.063 1.014.104 1.743-.004.357-.054.635-.133.811-.22a.594.594 0 0 0 .091-.052.934.934 0 0 1 1.798.492c-.146.663-.663 1.036-1.064 1.234-.42.207-.911.324-1.361.391-.885.132-1.894.109-2.457-.028-1.821-.441-3.318-1.918-4.173-3.316-.544-.888-.796-1.776-.966-2.612a31.868 31.868 0 0 1-.18-.997c-.078-.458-.15-.887-.273-1.376-.059-.235-.111-.475-.16-.7v-.003a23.91 23.91 0 0 0-.149-.659c-.107-.427-.224-.777-.386-1.061-.419-.736-.799-1.243-1.315-1.929l-.321-.429a.933.933 0 0 1 .192-1.306Zm10.843 12.277-.005.005.005-.005ZM255.063 150.46l.101-.015c2.678-.391 4.625.057 6.215.913 1.204.647 2.202 1.539 3.09 2.332.235.209.461.412.682.601 1.096.94 2.149 1.67 3.592 1.923 1.453.256 3.438.05 6.41-1.19a.932.932 0 1 1 .719 1.721c-3.16 1.319-5.523 1.646-7.452 1.307-1.94-.341-3.306-1.334-4.484-2.345-.279-.24-.544-.476-.802-.706-.864-.769-1.648-1.468-2.639-2-1.199-.645-2.71-1.035-4.958-.724-1.707.677-2.619 1.781-3.087 3.12-.494 1.416-.509 3.151-.273 5.024.207 1.638.592 3.292.952 4.838l.149.643c.196.851.376 1.668.492 2.398.113.717.177 1.421.101 2.026a.933.933 0 1 1-1.851-.232c.042-.337.013-.832-.093-1.503a34.652 34.652 0 0 0-.467-2.269l-.147-.634c-.358-1.537-.767-3.293-.987-5.033-.25-1.979-.272-4.054.363-5.873.653-1.871 1.983-3.41 4.278-4.285l.096-.037Z"/><path d="m260.285 168.337.034.136a.933.933 0 0 1-1.809.455l-.049-.191c-.328-1.299-.842-3.331-.839-5.172.001-.971.144-1.987.606-2.845.486-.899 1.293-1.565 2.462-1.825 2.17-.482 3.949.709 5.259 2.044 1.012 1.032 1.902 2.315 2.6 3.323.205.295.393.567.563.801a.934.934 0 0 1-1.511 1.095c-.212-.292-.428-.604-.652-.927-.687-.991-1.443-2.079-2.332-2.985-1.176-1.198-2.323-1.796-3.522-1.53-.631.141-.992.458-1.225.89-.255.473-.381 1.138-.382 1.961-.003 1.6.459 3.431.797 4.77ZM232.402 140.372a.933.933 0 0 1 1.289.282c.496.774 1.652 1.97 3.168 3.488l.557.556c1.346 1.345 2.86 2.856 4.218 4.384 1.538 1.73 2.948 3.558 3.696 5.267.749 1.711.941 3.596-.495 5.04-.657.661-1.592 1.151-2.646 1.529-1.065.382-2.326.676-3.703.906-2.753.459-6.069.675-9.418.78-2.941.092-5.936.099-8.628.106l-1.115.003c-2.99.009-5.475.033-7.018.19a.933.933 0 1 1-.188-1.856c1.654-.168 4.244-.191 7.2-.2l1.118-.003c2.695-.006 5.661-.014 8.572-.105 3.325-.104 6.542-.317 9.17-.756 1.315-.219 2.457-.49 3.38-.821.936-.336 1.576-.709 1.953-1.088.634-.638.733-1.551.109-2.977s-1.867-3.072-3.381-4.776c-1.319-1.483-2.79-2.952-4.14-4.3l-.561-.561c-1.454-1.456-2.788-2.815-3.418-3.799a.934.934 0 0 1 .281-1.289Z"/><path d="M226.729 140.588a.932.932 0 0 1 1.276.334c.242.413.667 1.012 1.21 1.765l.2.277c.484.67 1.03 1.424 1.555 2.198.598.882 1.186 1.813 1.645 2.707.45.877.816 1.797.9 2.641.064.647.125 1.27.089 1.811-.038.573-.187 1.145-.611 1.646-.404.477-.975.791-1.647 1.036-.676.247-1.547.457-2.642.672-2.286.449-5.913.463-9.319.38-1.54-.038-3.034-.095-4.372-.147-1.689-.064-3.13-.12-4.107-.114a.933.933 0 0 1-.011-1.866c1.003-.006 2.524.052 4.266.119 1.339.051 2.807.107 4.269.143 3.441.084 6.863.057 8.914-.345 1.074-.211 1.828-.399 2.362-.594.537-.197.76-.368.863-.489.083-.099.152-.239.174-.564.023-.356-.016-.814-.085-1.504-.048-.492-.287-1.161-.703-1.974-.408-.796-.949-1.655-1.529-2.511-.508-.749-1.036-1.479-1.522-2.151a86.875 86.875 0 0 1-.201-.279c-.527-.729-1.011-1.408-1.308-1.915a.932.932 0 0 1 .334-1.276ZM215.072 167.206c-.619.206-1.252.412-1.749.489a.934.934 0 0 1-.287-1.843c.312-.049.784-.196 1.447-.416l.238-.08a38.182 38.182 0 0 1 1.932-.605c1.513-.417 3.418-.766 4.98-.097 1.32.565 2.544 1.324 3.437 2.534.898 1.218 1.39 2.797 1.422 4.872.034 2.132-.832 4.839-1.734 7.217-.402 1.059-.825 2.087-1.202 3.004l-.156.379c-.421 1.025-.757 1.859-.942 2.451a.934.934 0 0 1-1.78-.557c.214-.684.584-1.6.996-2.602l.157-.382c.378-.919.79-1.921 1.183-2.955.909-2.397 1.64-4.794 1.613-6.526-.028-1.788-.445-2.961-1.059-3.793-.62-.841-1.512-1.431-2.669-1.927-.913-.391-2.243-.235-3.75.181a35.6 35.6 0 0 0-1.834.575l-.243.081ZM235.357 165.277c-1.573.28-2.618.974-3.052 2.248-.24.705-.345 1.717-.336 2.954.009 1.22.127 2.583.29 3.953.142 1.2.316 2.386.475 3.472l.066.451c.173 1.185.324 2.259.367 3.018a.932.932 0 1 1-1.862.107c-.038-.661-.175-1.645-.351-2.856a130.616 130.616 0 0 1-.548-3.972c-.166-1.4-.293-2.84-.303-4.16-.009-1.303.095-2.565.436-3.568.729-2.143 2.522-3.134 4.492-3.484 1.942-.345 4.202-.106 6.234.304l.016.003c6.25 1.378 8.583 3.52 9.537 5.877.341.843.493 1.711.613 2.401.034.194.066.374.098.536.16.795.347 1.234.749 1.543a.932.932 0 1 1-1.137 1.479c-.964-.741-1.261-1.764-1.441-2.654a30.182 30.182 0 0 1-.131-.711c-.115-.654-.221-1.253-.48-1.894-.622-1.537-2.236-3.436-8.201-4.753-1.948-.393-3.933-.578-5.531-.294Z"/><path d="M238.998 173.802c-.265.943-.188 2.148.071 3.285a.932.932 0 0 1-1.819.414c-.292-1.28-.432-2.834-.048-4.204.403-1.436 1.396-2.665 3.242-3.063 1.79-.385 3.357.088 4.692 1.182.205.168.446.331.731.523l.302.206c.375.258.834.586 1.163.969a.932.932 0 1 1-1.414 1.216c-.151-.175-.418-.381-.806-.647-.074-.052-.154-.105-.237-.162-.3-.203-.643-.434-.921-.662-.941-.771-1.938-1.055-3.117-.801-1.07.231-1.593.868-1.839 1.744Z"/></g><path d="m272.751 127.147-59.845-4.595-20.022-1.536-76.386 23.046 98.517 4.345 57.736-21.26Z" fill="#E35A2F"/><path d="m120.661 177.37 95.173 6.637-.819-35.602-98.517-4.345 4.163 33.31Z" fill="#FF7043"/><path d="m214.81 148.186 1.417 36.196" stroke="#000" stroke-width="1.544"/><mask id="c" style="mask-type:alpha" maskUnits="userSpaceOnUse" x="118" y="144" width="100" height="41"><path d="m122.722 178.178 95.172 6.636-.819-35.601-98.516-4.346 4.163 33.311Z" fill="#FF7043"/></mask><g mask="url(#c)"><path fill-rule="evenodd" clip-rule="evenodd" d="m134.519 188.338-5.282-47.728 3.709-.41 5.282 47.728-3.709.41Zm12.899 1.563-5.282-47.728 3.708-.41 5.282 47.728-3.708.41Zm14.703 1.071-4.377-47.955 3.716-.34 4.377 47.956-3.716.339Zm12.894 1.499-2.796-49.316 3.725-.211 2.796 49.316-3.725.211Zm13.575.423-2.569-48.411 3.726-.198 2.569 48.412-3.726.197Zm12.897 1.542-2.119-50.448 3.728-.156 2.119 50.448-3.728.156Z" fill="#fff"/></g><path d="m236.022 140.606-82.935-6.977 5.987-1.507 81.999 6.416-5.051 2.068Z" fill="#FFAC00"/><path d="m116.231 145.295 97.061 3.203a4.62 4.62 0 0 0 1.758-.285l56.353-20.82" stroke="#000" stroke-width="1.544"/><path d="m272.553 126.969-79.414-5.641-76.099 23.113 4.04 32.588 95.154 7.696 55.247-24.203 1.072-33.553Z" stroke="#000" stroke-width="1.544"/><path d="M199.017 134.222c-7.954-3.618-44.527-7.463-30.793-26.676 15.67-21.921 29.361 19.845 30.793 26.676ZM199.537 134.206c8.647-1.44 40.258-3.642 35.031-13.755-8.371-16.198-32.954 8.089-35.031 13.755Z" stroke="#FFAC00" stroke-width="3.087" stroke-linejoin="round"/><rect x="72.368" y="105.586" width="111.709" height="63.944" rx="5.445" transform="rotate(37.62 72.368 105.586)" fill="#000"/><path d="M73.441 158.913c2.549 11.627 14.854 34.573 43.687 33.347" stroke="#FF7043" stroke-width="4.084" stroke-linecap="round" stroke-linejoin="round"/><path d="M78.862 130.229c-.645-.387-1.295-.546-1.958-.467-.653.087-1.188.402-1.612.956-.46.62-.957 1.752.237 3.316l.587.866c.301.432.368.807.338.908a.74.74 0 0 1-.092.16c-.298.389-.832.32-1.289-.03-.535-.41-.596-.874-.327-1.285l-1.643-1.26c-.887 1.158-.676 2.554.52 3.672l-.887 1.157.749.574.894-1.167c.628.388 1.273.574 1.942.547.67-.028 1.232-.338 1.701-.95.753-.983.652-2.14-.292-3.466l-.582-.832c-.321-.447-.391-.778-.205-1.021.246-.321.682-.326 1.12.009.466.358.543.741.223 1.159l1.624 1.244c.887-1.157.702-2.487-.307-3.507l.82-1.069-.749-.574-.812 1.06ZM82.03 138.897l3.01.703-6.647 8.674 3.17 2.429 10.001-13.049-7.493-1.421-2.042 2.664Zm.84 16.605c2.918-.141 5.198-1.264 6.853-3.423l-2.742-2.101c-.85 1.108-1.652 1.913-2.397 2.361-.725.463-1.636.846-2.712 1.163l.998 2Zm14.708-2.62c1.625-2.12 3.287-3.161 4.473-2.252 1.109.85.744 2.454-1.089 4.846-1.803 2.353-3.257 3.122-4.366 2.272-1.186-.909-.628-2.765.982-4.866Zm-3.112-2.385c-3.338 4.357-3.393 7.772-.165 10.246 3.17 2.43 6.434 1.474 9.773-2.883 1.49-1.944 2.331-3.646 2.585-5.427.273-1.767-.508-3.446-2.297-4.817-3.229-2.474-6.527-1.514-9.895 2.881Zm14.849 11.38c1.625-2.119 3.287-3.161 4.473-2.251 1.109.849.744 2.453-1.089 4.845-1.803 2.353-3.257 3.122-4.366 2.272-1.186-.909-.628-2.765.982-4.866Zm-3.112-2.384c-3.338 4.356-3.393 7.771-.165 10.245 3.17 2.43 6.434 1.474 9.773-2.882 1.49-1.945 2.331-3.647 2.585-5.428.273-1.766-.508-3.446-2.297-4.817-3.229-2.474-6.527-1.513-9.896 2.882Zm14.849 11.38c1.625-2.12 3.287-3.161 4.473-2.252 1.109.849.744 2.453-1.089 4.845-1.803 2.353-3.257 3.122-4.366 2.273-1.186-.91-.628-2.766.982-4.866Zm-3.112-2.385c-3.338 4.356-3.393 7.771-.165 10.246 3.17 2.429 6.434 1.473 9.773-2.883 1.49-1.945 2.331-3.647 2.585-5.428.273-1.766-.508-3.445-2.297-4.817-3.229-2.474-6.527-1.513-9.896 2.882Z" fill="#fff"/><path d="M136.114 123.652c-2.827-13.401-12.137-41.939-26.76-48.879M300.784 72.242c-8.677-.601-27.679 6.743-27.412 29.193.074 6.164 9.129 3.495 5.221-2.58-3.907-6.075-22.797 3.749-17.716 17.349" stroke="#000" stroke-width="1.544" stroke-dasharray="2.32 2.32"/><path d="M248.307 91.543c.016-.065.042-.09.061-.104a.195.195 0 0 1 .114-.033c.05 0 .09.015.115.033.019.014.045.04.061.104l.137.553a15.642 15.642 0 0 0 7.889 10.087.093.093 0 0 1 .042.038.112.112 0 0 1 .014.055.113.113 0 0 1-.014.056.093.093 0 0 1-.042.038 15.64 15.64 0 0 0-7.889 10.086l-.137.553c-.016.066-.042.091-.061.104a.199.199 0 0 1-.115.034.195.195 0 0 1-.114-.034c-.019-.013-.045-.038-.061-.104l-.137-.553a15.64 15.64 0 0 0-7.889-10.086.093.093 0 0 1-.042-.038.113.113 0 0 1-.014-.056c0-.022.006-.041.014-.055a.093.093 0 0 1 .042-.038 15.642 15.642 0 0 0 7.889-10.087l-.749-.185.749.185.137-.553Z" fill="#FDEB5A" stroke="#000" stroke-width="1.544" stroke-linejoin="round"/><circle cx="118.036" cy="116.926" r="4.616" fill="#25F4EE" stroke="#000" stroke-width="1.544" stroke-linejoin="round"/><path d="M229.185 93.015a9.158 9.158 0 0 0 3.862-5.121 9.158 9.158 0 0 0 3.862 5.12 9.158 9.158 0 0 0-3.862 5.122 9.158 9.158 0 0 0-3.862-5.121Zm4.086 6.017Z" fill="#8021F3" stroke="#000" stroke-width="1.544" stroke-linejoin="round"/></svg>