<svg viewBox="0 0 400 300" fill="none" xmlns="http://www.w3.org/2000/svg"><rect width="89.702" height="144.903" rx="6.9" transform="matrix(-1 0 0 1 343.195 82.01)" stroke="#000" stroke-width="1.38"/><mask id="a" style="mask-type:alpha" maskUnits="userSpaceOnUse" x="253" y="82" width="91" height="145"><rect width="89.621" height="144.097" rx="6.9" transform="matrix(-1 0 0 1 343.154 82.63)" fill="#C4C4C4"/></mask><g mask="url(#a)"><path d="M274.875 168.385c2.244 1.743 5.54.653 6.302-2.086l1.745-6.274c.034-.169-.068-.372-.239-.406-.17-.034-.375.067-.409.237l-1.738 6.249c-.635 2.282-3.382 3.191-5.252 1.738-.137-.101-.375-.101-.478.068-.102.135-.102.372.069.474Z" fill="#fff"/><path d="M280.023 125.977c0 6.735 6.07 50.228 19.437 66.948 7.332 9.172 18.721 2.673 23.018-4.739 8.082-14.012-2.933-45.557-6.718-63.157-2.66-12.421-7.979-17.938-17.834-17.938s-17.903 8.461-17.903 18.886Z" fill="#0A0B0E"/><path d="M157.603 95.856c.068.17.136.339.204.542 8.116 19.36 19.267 36.046 33.146 49.55 11.185 10.899 22.574 19.157 38.362 26.231 19.602 8.782 42.662 9.554 55.353 9.188 4.715-.135 8.021-5.183 6.519-9.654l-2.128-6.337c-1.944-5.821-7.195-9.917-13.367-10.458-.171 0-16.164-.61-35.294-9.613-11.014-5.178-20.972-12.117-29.565-20.646-10.81-10.695-19.573-23.963-26.087-39.464-3.103-7.379-11.628-10.865-19.062-7.785-7.263 3.046-10.775 11.17-8.081 18.446Z" fill="#7DB5FF"/><path d="M241.607 151.6c1.599-2.696 4.993-3.532 7.938-2.462 14.86 5.399 26.06 5.813 26.214 5.813 6.138.541 11.39 4.637 13.367 10.458l1.985 5.91c1.542 4.591-1.989 9.951-6.83 10.076-10.429.269-27.495-.245-43.964-5.165-2.657-.793-4.519-3.213-4.376-5.983.281-5.446 1.719-11.989 5.666-18.647ZM337.039 240.308c1.259-5.389-.238-10.824-2.21-15.107-.677-1.469.719-3.722 2.111-4.545 1.566-.926 2.784.242 3.521 1.906 1.686 3.804 3.899 8.322 6.421 13.12 1.548 2.945-.562 6.521-3.888 6.521h-4.551c-.944 0-1.624-.976-1.404-1.895Z" fill="#FDEB5A"/><path d="M336.389 240.106c-.282 1.291-1.524 2.098-2.846 2.098h-.103a3.299 3.299 0 0 1-2.9-1.721 432.81 432.81 0 0 1-5.029-9.516c-.801-2.328.395-4.889 2.652-5.871l.402-.177c2.423-1.069 5.358-.236 6.347 2.22 1.556 3.867 2.523 8.451 1.477 12.967ZM332.777 222.032c-.169.056-.256.246-.415.326a93.461 93.461 0 0 1-7.68 3.433.916.916 0 0 1-1.182-.542.889.889 0 0 0-1.012-.556l-14.568 3.079c-.321.068-.786-.377-.931-.673-.182-.369.122-.534.5-.697l26.669-11.51c1.546-.667 3.242-.097 3.79 1.495.402 1.167.149 2.786-.909 3.42a72.939 72.939 0 0 1-3.68 2.048c-.18.094-.389.113-.582.177Z" fill="#FDEB5A"/><path d="M323.548 225.309a.915.915 0 0 1-.544 1.17 88.102 88.102 0 0 1-13.347 3.783c-.604.121-1.283-.335-1.549-.891-.388-.809.158-1.63 1.036-1.816l13.337-2.818a.922.922 0 0 1 1.067.572Z" fill="#FDEB5A"/><path d="m338.881 218.647.005-.003c.169-.098.371-.064.472.07.099.164.071.36-.055.464l-.014.011c-.091.088-.249.043-.296-.075-.049-.123-.095-.25-.149-.368-.014-.03.013-.076.037-.099ZM333.254 222.167c-.042-.082-.055-.196.027-.238a63.755 63.755 0 0 0 5.186-2.992.34.34 0 0 1 .494.158c.066.15.022.33-.115.419-.754.49-2.439 1.545-4.91 2.859-.237.125-.562.033-.682-.206ZM332.662 222.493a.137.137 0 0 1 .02.029l.017.032a.37.37 0 0 1-.15.494c-2.226 1.137-4.972 2.383-8.158 3.605a.314.314 0 0 1-.413-.193c-.062-.179.019-.391.196-.459 3.219-1.235 5.989-2.495 8.226-3.642.087-.044.199.059.262.134Z" fill="#300315"/><path d="M309.228 231.021a.33.33 0 0 1-.365-.183.355.355 0 0 1 .25-.497 89.151 89.151 0 0 0 14.452-4.095.317.317 0 0 1 .414.193c.062.179-.018.39-.196.457a90.01 90.01 0 0 1-14.555 4.125ZM336.392 240.106c1.432-6.215-.909-12.494-3.338-16.915a.342.342 0 0 1 .147-.473.338.338 0 0 1 .449.14c2.472 4.525 4.926 11.02 3.39 17.451-.151.596-.301 1.166-.498 1.687a.325.325 0 0 1-.306.208.344.344 0 0 1-.32-.461c.178-.497.347-1.048.476-1.637ZM332.765 222.044a.24.24 0 0 1 .07-.043c.108-.044.119.098.018.154-.098.054-.183-.015-.105-.095l.017-.016Z" fill="#300315"/><path d="m332.673 222.506-.019-.041c-.049-.122.048-.228.163-.291l.069-.038c.123-.067.304-.093.367.031.018.037.039.074.061.111a.312.312 0 0 1-.132.449.359.359 0 0 1-.47-.147 1.667 1.667 0 0 1-.039-.074Z" fill="#300315"/><path d="m287.791 228.739-10.238-22.678c-.394-.874-.978-1.648-1.653-2.33-11.175-11.283-6.861-29.04-2.854-37.514a7.69 7.69 0 0 0 .615-1.842l1.793-9.394c11.185.847 46.377-.981 46.377-.981 1.83 17.92 10.573 45.395 13.981 55.62.826 2.478.226 5.233-1.694 7.003-17.354 16.007-34.63 16.351-41.664 15.661-2.096-.206-3.797-1.625-4.663-3.545Z" fill="#FDEB5A"/><path d="M296.869 144.152c-8.588 0-15.549-6.592-15.549-14.723 0-8.132 6.961-14.723 15.549-14.723s15.55 6.591 15.55 14.723c0 8.131-6.962 14.723-15.55 14.723Z" fill="#7DB5FF"/><path d="M296.869 164.052c3.171 0 5.729-2.538 5.729-5.686V141.56a5.73 5.73 0 0 0-11.458 0v16.806c0 3.114 2.592 5.686 5.729 5.686ZM313.579 134.335c-2.053 0-3.717-1.651-3.717-3.689 0-2.037 1.664-3.689 3.717-3.689s3.717 1.652 3.717 3.689c0 2.038-1.664 3.689-3.717 3.689Z" fill="#7DB5FF"/><path d="M305.984 123.561c-2.102-3.08-2.352-6.554-.559-7.76 1.793-1.205 4.951.315 7.053 3.395 2.101 3.08 2.351 6.554.558 7.759-1.793 1.206-4.951-.314-7.052-3.394Z" fill="#0A0B0E"/><path d="M280.723 126.905c-1.739-3.019 2.287-8.549 8.99-12.353 6.704-3.804 13.548-4.44 15.287-1.421 1.738 3.018-2.287 8.549-8.991 12.352-6.704 3.804-13.548 4.441-15.286 1.422Z" fill="#0A0B0E"/><path d="M326.296 213.942c-12.174-22.271-17.937-40.446-18.175-41.225-2.387-7.649 1.909-15.772 9.582-18.141 7.706-2.37 15.856 1.895 18.277 9.51.149.473 11.561 35.9 35.572 65.586 3.889 4.807.618 12.531-5.565 12.531h-18.118c-2.161 0-4.204-1.008-5.479-2.754-5.713-7.827-11.094-16.369-16.094-25.507Z" fill="#7DB5FF"/><path d="M317.499 154.611c7.912-2.437 16.334 1.93 18.789 9.816.093.275 3.794 11.791 11.38 27.241 1.471 2.997.704 6.677-2.129 8.443-5.28 3.29-11.87 6.155-19.424 6.928-2.578.263-4.958-1.253-6.089-3.586-8.239-16.991-12.191-29.528-12.382-30.159-2.489-7.886 1.91-16.246 9.855-18.683Z" fill="#FDEB5A"/><path d="M268.975 165.679c0-.203.136-.338.341-.338a.34.34 0 0 1 .341.338c.063 2.132 1.15 3.538 1.771 4.191a.344.344 0 0 1 .083.332c-.068.239-.365.323-.537.144-.699-.726-1.917-2.288-1.999-4.667ZM271.941 170.723a.31.31 0 0 1-.273.136.435.435 0 0 1-.186-.059c-.012-.006-.011-.002-.021-.011-.044-.041-.087-.107-.071-.165l.071-.246c.047-.165.274-.199.41-.096.016.012.012.005.029.014.147.077.17.268.041.427Z" fill="#300315"/><path d="M358.765 233.397a6.9 6.9 0 0 0-5.345-8.165l-120.916-25.238a6.9 6.9 0 0 0-8.164 5.345l-18.612 89.17a6.9 6.9 0 0 0 5.345 8.164l120.916 25.238a6.9 6.9 0 0 0 8.164-5.345l18.612-89.169Z" fill="#000"/></g><rect width="89.702" height="144.903" rx="6.9" transform="matrix(-1 0 0 1 343.195 82.01)" stroke="#000" stroke-width="1.38"/><mask id="b" fill="#fff"><path fill-rule="evenodd" clip-rule="evenodd" d="M349.772 99.692c8.186 0 14.822 6.636 14.822 14.822 0 8.185-6.636 14.821-14.822 14.821h-10.488l-7.39 6.318-1.294-6.952c-6.088-1.843-10.52-7.498-10.52-14.187 0-8.186 6.636-14.822 14.821-14.822h14.871Z"/></mask><path fill-rule="evenodd" clip-rule="evenodd" d="M349.772 99.692c8.186 0 14.822 6.636 14.822 14.822 0 8.185-6.636 14.821-14.822 14.821h-10.488l-7.39 6.318-1.294-6.952c-6.088-1.843-10.52-7.498-10.52-14.187 0-8.186 6.636-14.822 14.821-14.822h14.871Z" fill="#fff"/><path d="m339.284 129.335-.897-1.049.388-.331h.509v1.38Zm-7.39 6.318.897 1.049-1.816 1.553-.438-2.35 1.357-.252Zm-1.294-6.952.4-1.321.803.244.154.825-1.357.252Zm32.614-14.187c0-7.424-6.018-13.442-13.442-13.442v-2.76c8.948 0 16.202 7.254 16.202 16.202h-2.76Zm-13.442 13.441c7.424 0 13.442-6.018 13.442-13.441h2.76c0 8.947-7.254 16.201-16.202 16.201v-2.76Zm-10.488 0h10.488v2.76h-10.488v-2.76Zm-8.287 6.649 7.39-6.318 1.794 2.098-7.39 6.318-1.794-2.098Zm.96-6.155 1.294 6.951-2.714.505-1.294-6.951 2.714-.505Zm-10.497-13.935c0 6.064 4.018 11.194 9.54 12.866l-.8 2.642c-6.654-2.015-11.5-8.194-11.5-15.508h2.76Zm13.441-13.442c-7.423 0-13.441 6.018-13.441 13.442h-2.76c0-8.948 7.254-16.202 16.201-16.202v2.76Zm14.871 0h-14.871v-2.76h14.871v2.76Z" fill="#FE7893" mask="url(#b)"/><circle r="2.39" transform="matrix(-1 0 0 1 350.576 114.422)" fill="#2F0079"/><circle r="2.39" transform="matrix(-1 0 0 1 342.666 114.422)" fill="#2F0079"/><path d="M337.775 127.287a12.868 12.868 0 0 1-12.865-12.865 12.868 12.868 0 0 1 12.865-12.865v25.73Z" fill="url(#c)"/><circle r="2.39" transform="matrix(-1 0 0 1 334.279 114.422)" fill="#2F0079"/><path d="M319.735 195.172c-2.234-5.053-8.595-18.62-9.361-22.187s-3.059-11.624 5.221-16.454" stroke="#000" stroke-width="1.38" stroke-linecap="round"/><path d="M365.31 210.911c0 14.177-11.493 25.669-25.669 25.669-14.177 0-25.67-11.492-25.67-25.669s11.493-25.669 25.67-25.669c14.176 0 25.669 11.492 25.669 25.669Z" fill="#FF7043" stroke="#000" stroke-width="1.38"/><path fill-rule="evenodd" clip-rule="evenodd" d="M340.776 196.967c.423.037.833.255 1.061.643.18.306.21.653.222.818.016.221.015.475.006.734-.013.393-.046.873-.08 1.384l-.033.483c-.093 1.42-.165 3.013.021 4.304.187 1.293.691 2.824 1.322 3.856.189.308.363.53.511.682l.008-.14.002-.025c.037-.614.092-1.529.402-2.38.32-.877 1.177-2.119 1.932-3.023.384-.46.803-.906 1.183-1.212.17-.137.439-.334.764-.442.169-.056.471-.129.83-.053.415.089.719.338.889.626.219.372.272.836.299 1.134.031.355.039.772.044 1.185l.003.229c.01.793.019 1.608.12 2.33.126.904.407 1.376.781 2.007.125.21.261.438.404.705.601 1.119.988 2.44.657 4.864-.713 5.214-6.557 8.807-12.578 8.883-2.877.036-5.953-.68-8.422-2.142-2.487-1.472-4.408-3.738-4.767-6.759-.331-2.795.325-5.066 1.138-6.604.403-.762.859-1.372 1.283-1.783.2-.194.452-.403.741-.541.138-.065.387-.165.702-.168.378-.003.825.143 1.113.527.141.186.224.393.272.52.056.15.107.316.154.481.051.181.11.406.172.64.044.167.088.337.132.499.231.85.511 1.737.903 2.419.065.113.129.216.192.312a49.008 49.008 0 0 1-.022-2.099c.03-2.009.249-4.592 1.323-6.601.752-1.406 2.039-3.031 3.163-4.223.562-.596 1.123-1.127 1.594-1.483.22-.166.502-.358.804-.474.143-.054.419-.143.755-.113Zm-7.609 16.481c-.003.019-.004.016 0-.003v.003Zm10.972-3.321h.001-.001Zm-4.657-9.625c-1.045 1.109-2.19 2.571-2.816 3.744-.816 1.527-1.045 3.671-1.074 5.645-.012.795.008 1.526.025 2.152l.011.395c.008.342.013.662.004.92a3.817 3.817 0 0 1-.033.397 1.51 1.51 0 0 1-.183.544c-.293.499-.826.788-1.417.811-.514.02-.97-.161-1.311-.358-.698-.402-1.357-1.124-1.894-2.06-.5-.871-.826-1.893-1.057-2.721l-.032.06c-.63 1.192-1.185 3.043-.907 5.385.263 2.214 1.657 3.931 3.66 5.117 2.02 1.196 4.61 1.812 7.054 1.781 5.209-.065 9.661-3.151 10.176-6.916.277-2.031-.054-2.906-.424-3.596a12.33 12.33 0 0 0-.273-.47c-.412-.685-.954-1.587-1.144-2.948-.103-.734-.125-1.534-.135-2.231-.55.721-1.012 1.463-1.165 1.883-.194.531-.242 1.161-.281 1.818l-.004.055c-.017.282-.036.606-.082.875a2.252 2.252 0 0 1-.147.519 1.468 1.468 0 0 1-.584.679 2.56 2.56 0 0 1-1.39.386 2.678 2.678 0 0 1-1.295-.375c-.686-.398-1.214-1.058-1.611-1.709-.814-1.33-1.395-3.145-1.614-4.657-.221-1.534-.129-3.33-.037-4.732l.029-.444-.049.051Z" fill="#fff"/><path d="M162.209 216.522c7.96 6.925 32.271 13.906 49.842-7.505 4.825-5.879-6.1-9.99-7.126-1.387-1.026 8.603 25.146 13.158 31.007-3.415" stroke="#000" stroke-width="1.38" stroke-dasharray="2.07 2.07"/><path d="M296.484 139.97c.909 0 1.887-.331 2.795-.862 1.468-.929 2.306-2.389 2.446-4.047l.07-.597-11.04-1.394.07.796c0 .2.489 4.91 4.611 6.038.35 0 .699.066 1.048.066Zm3.844-4.445c-.28.995-.909 1.924-1.817 2.521-.839.597-1.887.797-2.655.597-2.376-.597-3.215-2.852-3.494-4.113l7.966.995Z" fill="#000"/><path d="M271.215 124.114c-.716-.575-1.281-1.472-1.326-2.44-.048-.224-.022-.422-.021-.67l-2.528-.24-.872 10.144c-.13 1.115-1.127 1.978-2.292 1.871-.371-.002-.693-.153-.965-.329-.642-.426-1.06-1.148-.981-1.991.106-1.166 1.152-2.052 2.316-1.946.199.026.421.102.62.128l.184-2.008.078-.595c-.199-.027-.421-.102-.62-.128a4.686 4.686 0 0 0-5.056 4.285c-.157 1.562.504 3.03 1.665 4.006.716.575 1.606 1.002 2.572 1.083a4.687 4.687 0 0 0 5.057-4.286l.424-5.158a6.636 6.636 0 0 0 3.439 1.461l.134-1.984.028-.571c-.669.021-1.288-.231-1.856-.632Z" fill="#6AFEF9"/><path d="M275.47 93.24c-1.418-.516-2.772-1.612-3.353-3.095-.194-.322-.259-.644-.388-1.031l-4.059.964 4.006 16.242c.387 1.805-.707 3.673-2.576 4.123-.579.193-1.159.128-1.675-.001-1.225-.323-2.256-1.226-2.579-2.58-.453-1.869.706-3.801 2.575-4.251.322-.064.709-.064 1.031-.129l-.776-3.222-.194-.967c-.322.064-.708.064-1.031.128-4.123 1.029-6.634 5.216-5.6 9.341.581 2.514 2.387 4.448 4.707 5.352 1.418.516 3.03.71 4.576.325 4.124-1.029 6.634-5.216 5.601-9.341l-2.068-8.25c1.87.71 3.996.905 6.123.455l-.84-3.158-.258-.902c-1.031.386-2.127.32-3.222-.002Z" fill="#25F4EE"/><path d="M172.261 102.882c-.069-.203-.137-.372-.205-.541-2.694-7.277.818-15.4 8.082-18.446 7.434-3.08 15.959.406 19.062 7.784 6.513 15.502 15.277 28.77 26.086 39.465 8.594 8.529 14.434 13.308 25.448 18.487l-11.04 26.22c-15.788-7.074-23.103-12.519-34.288-23.418-13.879-13.504-25.03-30.191-33.145-49.551Z" fill="#7DB5FF"/><path d="M245.569 146.87c17.118 7.588 30.752 8.12 30.921 8.12 6.09.567 11.3 4.857 13.262 10.955l5.143 16.168c-.779-.036-31.024 3.652-57.885-6.311-.44-7.481.845-18.33 8.559-28.932Z" fill="#FDEB5A"/><path d="M189.379 89.275a4.008 4.008 0 0 1-5.115-2.403l-5.797-16.11c-.75-2.065.341-4.333 2.421-5.078a4.008 4.008 0 0 1 5.115 2.403l5.797 16.111c.75 2.065-.341 4.333-2.421 5.077ZM180.887 90.866c-1.978.981-4.365.203-5.354-1.76l-7.706-15.299a3.933 3.933 0 0 1 1.773-5.314c1.978-.981 4.365-.203 5.354 1.76l7.706 15.299c1.023 1.929.205 4.332-1.773 5.314ZM180.479 101.123l-7.059 3.689-9.923-18.649c-1.023-1.93-.273-4.332 1.671-5.348 1.943-1.015 4.364-.27 5.387 1.659l9.924 18.649ZM193.573 100.41c-2.114-.643-3.274-2.877-2.626-4.975l5.115-16.348c.648-2.098 2.899-3.249 5.013-2.606 2.114.643 3.273 2.877 2.625 4.976l-5.115 16.347a4.019 4.019 0 0 1-5.012 2.606Z" fill="#7DB5FF"/><path d="M271.972 168.951c-2.488 5.381-5.972 18.565 0 28.252 1.105 1.614 3.649 5.166 4.976 6.457l4.147 8.072" stroke="#000" stroke-width="1.38" stroke-linecap="round"/><circle r="4.83" transform="matrix(-1 0 0 1 74.026 212.422)" fill="#fff" stroke="#000" stroke-width="1.38"/><rect width="61.089" height="100.617" rx="3.928" transform="matrix(-1 0 0 1 105.444 90.99)" fill="#fff" stroke="#000" stroke-width="1.38"/><mask id="d" style="mask-type:alpha" maskUnits="userSpaceOnUse" x="43" y="90" width="64" height="103"><rect width="61.089" height="100.617" rx="3.928" transform="matrix(-1 0 0 1 105.444 90.99)" fill="#fff" stroke="#000" stroke-width="1.38"/></mask><g mask="url(#d)"><path d="M89.473 160.257H60.94c-11.588 0-20.982 9.394-20.982 20.981 0 11.588 9.394 20.982 20.982 20.982h28.535c11.587 0 20.981-9.394 20.981-20.982 0-11.587-9.394-20.981-20.982-20.981Z" fill="#979797"/><path d="M79.809 149.445v11.719a4.46 4.46 0 0 1-.821 2.622c-.822 1.326-2.338 2.179-4.044 2.179a4.85 4.85 0 0 1-4.043-2.179c-.474-.759-.79-1.643-.79-2.622v-11.719h9.698ZM65.065 151.213a6.055 6.055 0 0 1-.758.063c-.031 0-.063 0-.095-.031-.157.031-.316 0-.473-.032a3.815 3.815 0 0 1-3.222-3.791c0-1.927 1.421-3.506 3.285-3.79.158-.032.379-.032.537-.032h.031c.158 0 .316.032.474.032h.063v.031a2.34 2.34 0 0 0-.126.443c-.063.221-.158.442-.158.663-.126.442-.19.948-.221 1.421-.032.285-.032.601-.032.885a9.933 9.933 0 0 0 .695 4.138ZM90.044 147.454a3.842 3.842 0 0 1-3.222 3.79c-.158.032-.316.064-.474.032-.032.032-.063.032-.095.032-.252 0-.537-.032-.758-.064 0-.031.032-.031.032-.031.094-.316.22-.632.316-.948.094-.316.19-.663.252-1.011a11.983 11.983 0 0 0 .095-3.632c-.031-.158-.031-.285-.063-.411-.032-.253-.095-.505-.158-.758 0-.063-.032-.126-.063-.19a2.345 2.345 0 0 0-.127-.442c0-.063-.031-.095-.031-.158h.063c.158-.031.316-.031.474-.031h.031c.285 0 .537.031.822.094 1.642.38 2.906 1.896 2.906 3.728Z" fill="#9B5D2E"/><circle cx="75.445" cy="146.781" r="11.561" fill="#9B5D2E"/><path d="M60.728 141.171c0-2.508 1.548-6.963 8.407-8.55 3.558-.819 5.311.563 6.291 1.434.929-.973 2.218-1.741 4.796-1.741 2.321 0 4.384.819 5.983 2.458 3.765 3.737 3.404 5.324 3.404 6.041l-4.848 6.093c-.103.153-.31.051-.361-.103-.155-1.689-.98-7.424-4.23-9.062-.463 0-1.34.051-1.65.307-.876.666-2.269.922-3.042.973-.98.051-1.753-.205-2.475-.819-.516-.461-1.754-.614-2.682-.256-2.94 1.075-4.59 7.219-5.054 9.062-.052.256-.361.307-.567.103-1.135-1.434-3.972-5.94-3.972-5.94Z" fill="#000"/><path d="M72.59 136.614s-4.28 3.328-2.166 8.755c-2.012-.153-5.209-6.246-1.032-8.243 2.734-1.28 3.198-.512 3.198-.512ZM78.625 137.177s4.28 3.328 2.166 8.755c2.011-.154 5.209-6.247 1.032-8.243-2.734-1.331-3.198-.512-3.198-.512Z" fill="#000"/><rect width="61.089" height="100.617" rx="3.928" transform="matrix(-1 0 0 1 105.444 90.99)" stroke="#000" stroke-width="1.38"/></g><rect width="41.518" height="69.643" rx="3.928" transform="scale(-1 1) rotate(15.357 -622.095 -415.961)" fill="#fff"/><path opacity=".5" d="M123.097 160.471c-.919.455-2.094.606-3.095.197-.25-.056-.438-.176-.689-.294l-1.43 2.449 9.867 5.65c1.069.656 1.474 2.07.819 3.2-.177.376-.481.631-.787.824-.733.451-1.661.535-2.478.058-1.132-.654-1.538-2.131-.883-3.261.12-.188.301-.378.421-.567l-1.949-1.13-.566-.359c-.12.189-.302.379-.421.568a5.234 5.234 0 0 0 1.966 7.136c1.509.893 3.308.913 4.841.196.919-.455 1.77-1.157 2.306-2.098a5.234 5.234 0 0 0-1.966-7.137l-5.027-2.853a7.42 7.42 0 0 0 3.096-2.798l-1.947-1.069-.565-.296c-.294.688-.84 1.196-1.513 1.584Z" fill="#25F4EE"/><mask id="e" style="mask-type:alpha" maskUnits="userSpaceOnUse" x="92" y="149" width="60" height="79"><rect width="41.958" height="69.93" rx="3.928" transform="scale(-1 1) rotate(15.357 -620.818 -417.417)" fill="#fff" stroke="#000" stroke-width="1.38"/></mask><g mask="url(#e)"><path d="m135.542 203.614-18.088 4.968c-8.04 2.208-12.767 10.516-10.559 18.556 2.208 8.04 10.516 12.767 18.556 10.559l18.087-4.968c8.04-2.208 12.768-10.515 10.56-18.555-2.209-8.04-10.516-12.768-18.556-10.56Z" fill="#FBCD98"/><path d="m128.084 197.037 2.257 8.22c.189.687.16 1.362-.071 1.997-.32 1.089-1.219 1.98-2.416 2.308a3.523 3.523 0 0 1-3.256-.75c-.478-.44-.87-1-1.059-1.687l-2.258-8.22 6.803-1.868ZM118.084 201.117c-.171.071-.342.142-.52.191-.022.006-.044.012-.072-.004a.885.885 0 0 1-.339.069 2.775 2.775 0 0 1-2.99-2.038 2.795 2.795 0 0 1 1.574-3.292c.105-.053.26-.095.371-.126l.022-.006c.111-.03.228-.038.338-.069l.045-.012.006.022a1.71 1.71 0 0 0-.004.335c-.001.167-.025.34.017.495-.003.335.05.702.119 1.04.033.206.094.427.148.627a7.23 7.23 0 0 0 1.285 2.768ZM134.878 193.669a2.796 2.796 0 0 1-1.53 3.28c-.104.052-.209.105-.326.113-.016.028-.038.034-.06.04a4.026 4.026 0 0 1-.544.102c-.006-.022.016-.028.016-.028.005-.24.033-.486.039-.726.005-.24.005-.501-.018-.757a8.762 8.762 0 0 0-.633-2.567c-.053-.105-.077-.193-.123-.276-.071-.171-.164-.336-.257-.501-.012-.044-.047-.083-.081-.121a1.709 1.709 0 0 0-.174-.286c-.012-.044-.04-.06-.052-.104l.044-.013c.105-.052.215-.083.326-.113l.022-.006c.2-.055.383-.081.595-.092 1.225-.05 2.403.77 2.756 2.055Z" fill="#7DB5FF"/><circle cx="124.508" cy="196.009" r="8.41" transform="rotate(-15.357 124.508 196.009)" fill="#7DB5FF"/><path d="M122.55 189.033c2.438-.694 3.859-3.228 3.172-5.661a4.573 4.573 0 0 0-5.659-3.149 4.594 4.594 0 0 0-3.172 5.661 4.574 4.574 0 0 0 5.659 3.149Z" fill="#000340"/><path d="M131.493 191.404a5.73 5.73 0 0 1-1.82.877c-2.76.785-5.655-.528-6.923-2.974.2 2.75-1.557 5.385-4.316 6.17-.201.057-.407.091-.608.148a7.254 7.254 0 0 1-1.642.059 1.346 1.346 0 0 1 .001-.336l-.006-.022c.149-3.474 2.479-6.632 5.996-7.631l.022-.007a.514.514 0 0 1 .184-.028c3.358-.883 6.821.484 8.736 3.179.041.06.089.143.13.203.034.038.041.06.053.105a.433.433 0 0 1 .089.142c.057.032.069.077.104.115Z" fill="#000340"/><rect width="41.958" height="69.93" rx="3.928" transform="scale(-1 1) rotate(15.357 -620.818 -417.417)" stroke="#000" stroke-width="1.38"/></g><path d="M158.231 161.845c.179-.688 1.157-.688 1.336 0l.987 3.801a9.194 9.194 0 0 0 4.778 5.907l3.216 1.611a.69.69 0 0 1 0 1.234l-3.216 1.612a9.192 9.192 0 0 0-4.778 5.906l-.987 3.801c-.179.689-1.157.689-1.336 0l-.988-3.801a9.189 9.189 0 0 0-4.778-5.906l-3.216-1.612a.69.69 0 0 1 0-1.234l3.216-1.611a9.19 9.19 0 0 0 4.778-5.907l.988-3.801Z" fill="#FDEB5A" stroke="#000" stroke-width="1.38" stroke-linejoin="round"/><path d="m110.316 129.209-7.624.023c-1.016.003-1.266 1.275-1.264 1.91 2.555 4.439 5.725 2.523 6.996 2.519 1.27-.003 3.17-1.915 3.166-3.186-.003-1.016-.851-1.268-1.274-1.266ZM121.262 123.109c-.788.002-1.393-.355-1.873-1.076-.515-.771-.831-1.909-.835-3.147l-.021-6.803c-.021-6.662-5.416-12.103-12.12-12.082-6.705.021-12.066 5.495-12.045 12.157l.021 6.803c.004 1.238-.305 2.378-.815 3.152-.476.724-1.079 1.085-1.866 1.087a1.727 1.727 0 0 0-1.733 1.721 1.727 1.727 0 0 0 1.743 1.709l29.554-.091a1.727 1.727 0 0 0 1.733-1.721c-.002-.947-.783-1.712-1.743-1.709Z" fill="#FE5274"/><path d="M111.543 131.624a1.696 1.696 0 0 0-.081-1.669 1.744 1.744 0 0 0-1.482-.809l-6.954.022a1.743 1.743 0 0 0-1.476.818 1.696 1.696 0 0 0-.071 1.669m10.063-.03-.001.002-.002.004-.004.008-.01.019-.024.044a4.444 4.444 0 0 1-.297.453 5.102 5.102 0 0 1-.886.902c-.828.657-2.073 1.24-3.799 1.245-1.726.006-2.975-.569-3.806-1.221a5.095 5.095 0 0 1-.892-.897 4.36 4.36 0 0 1-.23-.333c-.028-.045-.051-.085-.07-.118l-.024-.044-.01-.019-.004-.008-.002-.004-.001-.001m17.909-9.624c.48.721 1.085 1.078 1.873 1.076.96-.003 1.741.762 1.743 1.709a1.727 1.727 0 0 1-1.733 1.721l-29.554.091a1.727 1.727 0 0 1-1.743-1.709 1.727 1.727 0 0 1 1.733-1.721c.787-.002 1.39-.363 1.866-1.087.51-.774.819-1.914.815-3.152l-.02-6.803c-.022-6.662 5.34-12.136 12.044-12.157 6.704-.02 12.099 5.42 12.12 12.082l.021 6.803c.004 1.238.32 2.376.835 3.147Z" stroke="#000" stroke-width="1.38"/><path opacity=".5" d="M67.626 103.053c-1.154-.59-2.191-1.668-2.529-2.992-.13-.295-.152-.577-.22-.92l-3.561.391 1.69 14.262c.14 1.579-.99 3.054-2.63 3.239-.514.103-1.002-.013-1.427-.178-1.01-.405-1.793-1.284-1.924-2.471-.188-1.64 1.005-3.164 2.644-3.349.281-.021.61.02.892 0l-.319-2.828-.063-.844c-.28.021-.61-.021-.892 0a6.61 6.61 0 0 0-5.761 7.364c.229 2.203 1.562 4.043 3.443 5.058 1.154.591 2.506.927 3.864.762a6.61 6.61 0 0 0 5.761-7.364l-.886-7.247a9.358 9.358 0 0 0 5.167 1.036l-.38-2.779-.125-.796c-.919.219-1.845.048-2.745-.344Z" fill="#6AFEF9"/><path d="m115.916 89.327-1.178 8.244M124.454 94.168l-5.575 5.421" stroke="#000" stroke-width="1.38" stroke-linecap="round"/><defs><linearGradient id="c" x1="324.91" y1="114.422" x2="338.156" y2="114.422" gradientUnits="userSpaceOnUse"><stop stop-color="#fff"/><stop offset="1" stop-color="#C4C4C4" stop-opacity="0"/></linearGradient></defs></svg>