<svg viewBox="0 0 400 300" fill="none" xmlns="http://www.w3.org/2000/svg"><path d="m60.186 185.064-9.209-27.365 127.72-42.976 9.208 27.365c-6.15 4.103-9.338 10.662-7.389 16.454 1.949 5.793 8.454 9.09 15.833 8.64l9.208 27.366-127.72 42.976-9.207-27.365c6.15-4.103 9.338-10.662 7.389-16.454-1.95-5.793-8.454-9.09-15.833-8.641Z" stroke="#000" stroke-width="1.564" stroke-linejoin="round" stroke-dasharray="2.35 2.35"/><path fill="#fff" stroke="#000" stroke-width="1.564" stroke-dasharray="2.35 2.35" d="m207.122 93.886 101.385 52.375-34.677 67.127-101.385-52.375z"/><path d="m257.987 121.441.359-.694-1.39-.718-.359.694 1.39.718Zm-35.414 65.145-.358.694 1.389.718.359-.695-1.39-.717Zm34.024-65.863-.531 1.03 1.389.717.532-1.029-1.39-.718Zm-1.595 3.088-1.063 2.058 1.39.718 1.063-2.059-1.39-.717Zm-2.126 4.116-1.063 2.058 1.389.718 1.063-2.058-1.389-.718Zm-2.127 4.117-1.063 2.058 1.39.717 1.063-2.058-1.39-.717Zm-2.126 4.116-1.063 2.058 1.389.718 1.063-2.058-1.389-.718Zm-2.127 4.116-1.063 2.058 1.39.718 1.063-2.058-1.39-.718Zm-2.126 4.117-1.063 2.058 1.389.718 1.063-2.059-1.389-.717Zm-2.126 4.116-1.064 2.058 1.39.718 1.063-2.058-1.389-.718Zm-2.127 4.116-1.063 2.059 1.389.717 1.063-2.058-1.389-.718Zm-2.126 4.117-1.064 2.058 1.39.718 1.063-2.058-1.389-.718Zm-2.127 4.116-1.063 2.058 1.389.718 1.063-2.058-1.389-.718Zm-2.126 4.117-1.064 2.058 1.39.718 1.063-2.059-1.389-.717Zm-2.127 4.116-1.063 2.058 1.389.718 1.063-2.058-1.389-.718Zm-2.126 4.116-1.064 2.059 1.39.717 1.063-2.058-1.389-.718Zm-2.127 4.117-1.063 2.058 1.389.718 1.063-2.059-1.389-.717Zm-2.126 4.116-1.064 2.058 1.39.718 1.063-2.058-1.389-.718Zm-2.127 4.116-.532 1.03 1.39.717.531-1.029-1.389-.718Z" fill="#000"/><path d="m255.749 89.849 5.388 24.191-22.02-11.375c-7.166-3.702-8.453-13.41-2.498-18.852 6.577-6.01 17.193-2.66 19.13 6.036Z" fill="#fff" stroke="#000" stroke-width="1.564" stroke-linejoin="round" stroke-dasharray="2.35 2.35"/><path d="m283.715 104.295-22.848 9.605 22.02 11.376c7.166 3.702 15.829-.867 16.821-8.872 1.095-8.842-7.78-15.562-15.993-12.109Z" fill="#fff" stroke="#000" stroke-width="1.564" stroke-linejoin="round" stroke-dasharray="2.35 2.35"/><path d="M330.14 147.966c.189-.804 1.333-.804 1.522 0l3.307 14.073a10.414 10.414 0 0 0 5.091 6.728l9.887 5.479a.781.781 0 0 1 0 1.368l-9.887 5.479a10.416 10.416 0 0 0-5.091 6.728l-3.307 14.074c-.189.804-1.333.804-1.522 0l-3.307-14.074a10.416 10.416 0 0 0-5.091-6.728l-9.887-5.479a.782.782 0 0 1 0-1.368l9.887-5.479a10.414 10.414 0 0 0 5.091-6.728l3.307-14.073Z" fill="#FE5274" stroke="#000" stroke-width="1.564" stroke-linejoin="round"/><path d="m114.615 100.649 24.218 6.489-21.414 79.92-9.027-14.748-15.191 8.259 21.414-79.92Z" fill="#00897B" stroke="#000" stroke-width="1.564" stroke-linejoin="round"/><path d="m144.004 100.649-24.218 6.489 21.414 79.92 9.027-14.748 15.191 8.259-21.414-79.92Z" fill="#00897B" stroke="#000" stroke-width="1.564" stroke-linejoin="round"/><circle cx="129.953" cy="101.431" r="39.877" fill="#FDEB5A" stroke="#000" stroke-width="1.564" stroke-linejoin="round"/><circle cx="117.337" cy="94.175" r="6.037" fill="#000"/><path d="M107.275 108.261v0c9.852 17.016 34.419 17.016 44.27 0v0M147.523 88.138l-12.073 6.037 10.061 6.037" stroke="#000" stroke-width="1.564" stroke-linecap="round" stroke-linejoin="round"/><circle cx="303.533" cy="195.26" r="4.691" fill="#8021F3" stroke="#000" stroke-width="1.564"/><path d="M63.109 106.936c.099-.395.66-.395.759 0l.166.664a19.14 19.14 0 0 0 9.75 12.329.301.301 0 0 1 0 .535 19.139 19.139 0 0 0-9.75 12.33l-.166.663c-.1.395-.66.395-.76 0l-.166-.663a19.138 19.138 0 0 0-9.75-12.33.301.301 0 0 1 0-.535 19.139 19.139 0 0 0 9.75-12.329l.167-.664Z" fill="#25F4EE" stroke="#000" stroke-width="1.564" stroke-linejoin="round"/><circle cx="162.756" cy="218.611" r="22.902" transform="rotate(20.131 162.756 218.611)" fill="#fff" stroke="#000" stroke-width="1.564" stroke-dasharray="2.35 2.35"/><path d="M171.612 218.059c-.425.371-1.188.995-2.285 1.87a8.976 8.976 0 0 0-.736.656 2.882 2.882 0 0 0-.423.529c-.094.155-.17.32-.231.491-.098.29-.189.581-.274.875-.226.887-.756 1.3-1.591 1.237a1.503 1.503 0 0 1-1.06-.523c-.274-.316-.388-.765-.345-1.346.055-.727.21-1.347.468-1.863a4.83 4.83 0 0 1 .968-1.338c.389-.374.909-.816 1.56-1.325a27.33 27.33 0 0 0 1.239-1.009 3.71 3.71 0 0 0 .662-.779c.186-.291.295-.624.318-.969a2.338 2.338 0 0 0-.612-1.808c-.46-.513-1.082-.8-1.865-.86-.917-.069-1.611.122-2.081.569-.47.448-.889 1.127-1.26 2.039-.357.958-.931 1.405-1.724 1.345a1.558 1.558 0 0 1-1.143-.601c-.295-.366-.428-.748-.398-1.146.062-.823.379-1.636.95-2.441.573-.806 1.368-1.449 2.385-1.928 1.017-.481 2.177-.672 3.477-.574 1.208.091 2.258.402 3.149.935s1.559 1.217 2.003 2.051c.444.835.632 1.72.561 2.654-.055.735-.248 1.369-.578 1.902a6.009 6.009 0 0 1-1.134 1.357Zm-5.49 6.849c.525.04.953.261 1.283.659.33.4.476.871.435 1.416-.045.607-.269 1.068-.67 1.386a1.868 1.868 0 0 1-1.341.421 1.935 1.935 0 0 1-1.293-.612c-.354-.371-.507-.864-.461-1.478.041-.545.259-.989.654-1.334a1.836 1.836 0 0 1 1.393-.458Z" fill="#000"/><path d="M206.285 220.523c5.073 10.566 26.331 27.935 52.451 12.673 7.172-4.191-1.984-13.021-6.499-4.399-4.514 8.623 19.573 24.209 32.12 9.201" stroke="#000" stroke-width="1.564" stroke-dasharray="2.35 2.35"/><path d="M321.661 101.241a6.153 6.153 0 1 0-1.882-12.162 6.153 6.153 0 0 0 1.882 12.162Z" fill="#fff" stroke="#000" stroke-width="1.564"/></svg>