<svg viewBox="0 0 400 300" fill="none" xmlns="http://www.w3.org/2000/svg"><path fill="#FDEB5A" stroke="#000" stroke-width="1.549" d="m104.539 172.163 8.523-8.044 2.984 3.163-8.523 8.043z"/><path fill="#8021F3" stroke="#000" stroke-width="1.549" d="m137.021 166.845 24.606-23.223 2.984 3.162-24.606 23.223zM203.1 62.779l24.607-23.223 2.984 3.162-24.606 23.223z"/><path fill="#25F4EE" stroke="#000" stroke-width="1.549" d="m213.684 94.494 24.606-23.223 2.984 3.162-24.606 23.223z"/><path fill="#FDEB5A" stroke="#000" stroke-width="1.549" d="m260.418 70.269 11.203-10.574 2.985 3.163-11.204 10.573z"/><path fill="#FE5274" stroke="#000" stroke-width=".737" d="m195.22 81.966 11.794-11.13 3.541 3.752-11.794 11.13z"/><path fill="#FF7043" stroke="#000" stroke-width="1.549" d="m234.081 58.132 24.606-23.223 4.886 5.178-24.605 23.222z"/><path fill="#FE5274" stroke="#000" stroke-width="1.549" d="m105.503 155.728 24.606-23.223 4.918 5.212-24.605 23.222z"/><rect x="119.444" y="125.322" width="114.677" height="56.057" rx="28.028" transform="rotate(-41.839 119.444 125.322)" fill="#59B2A9" stroke="#000" stroke-width="1.549"/><path d="M200.63 149.632v-35.468a9.585 9.585 0 0 0-2.371-6.31l-2.789-3.187" stroke="#000" stroke-width="1.549" stroke-linecap="round"/><path d="m174.888 135.435-.001-.005.001-.005.001-.001.003-.002 1.069-.595a6.75 6.75 0 0 0 3.29-4.362l.479-2.049.002-.006-4.844 7.025Zm0 0h.001l.003.002 1.069.595a6.75 6.75 0 0 1 3.29 4.362l.479 2.05.002.005m-4.844-7.014 4.844 7.014m0 0h-.002l.003.003-.001-.003Zm0 0a.013.013 0 0 0 .006.001l.007-.001m-.013 0 4.856-7.024m-4.843 7.024-.001.003.003-.003h-.002Zm0 0 .001-.005.48-2.05a6.75 6.75 0 0 1 3.29-4.362l1.069-.595.003-.002m0 0 .001-.005-.001-.005m0 .01ZM179.745 128.41h.001l.001.001-.003-.004.001.003Z" fill="#25F4EE" stroke="#000" stroke-width=".737" stroke-linejoin="round"/><path d="m224.868 138.052.187.317-.187-.317-.04.023a6.751 6.751 0 0 0-3.16 4.36l-.11.496-.001.006H221.544l-.002-.006-.109-.496a6.75 6.75 0 0 0-3.161-4.36l-.186.315.186-.315-.039-.023-.003-.003-.001-.004.001-.005.003-.003.039-.023-.187-.317.187.317a6.75 6.75 0 0 0 3.161-4.36l.109-.496.002-.005.006-.001.007.001.001.005.11.496a6.751 6.751 0 0 0 3.16 4.36l.04.023.003.003.001.005-.001.004-.003.003Z" fill="#FDEB5A" stroke="#000" stroke-width=".737" stroke-linejoin="round"/><path d="m217.124 144.248.187.318-.187-.318-.04.024a6.751 6.751 0 0 0-3.16 4.36l-.11.495-.001.006-.007.001-.006-.001-.002-.006-.109-.495a6.75 6.75 0 0 0-3.161-4.36l-.186.315.186-.315-.039-.024-.003-.002-.001-.005.001-.005.003-.002.039-.023-.187-.318.187.318a6.752 6.752 0 0 0 3.161-4.36l.109-.496.002-.006.006-.001.007.001.001.006.11.496a6.754 6.754 0 0 0 3.16 4.36l.04.023.003.002.001.005-.001.005-.003.002Z" fill="#FF7043" stroke="#000" stroke-width=".737" stroke-linejoin="round"/><circle cx="142.763" cy="214.868" r="28.342" fill="#59B2A9" stroke="#000" stroke-width="1.549"/><circle cx="200.998" cy="214.868" r="28.748" fill="#EDEDED" stroke="#000" stroke-width=".737" stroke-dasharray="1.47 1.47"/><circle cx="200.998" cy="178.749" r="28.342" fill="#FF7043" stroke="#000" stroke-width="1.549"/><circle cx="259.231" cy="214.868" r="28.748" fill="#EDEDED" stroke="#000" stroke-width=".737" stroke-dasharray="1.47 1.47"/><circle cx="317.465" cy="214.868" r="28.748" fill="#EDEDED" stroke="#000" stroke-width=".737" stroke-dasharray="1.47 1.47"/><circle cx="84.529" cy="214.868" r="28.342" fill="#59B2A9" stroke="#000" stroke-width="1.549"/><path fill-rule="evenodd" clip-rule="evenodd" d="M201.856 162.907c.443.04.874.279 1.114.704.189.335.22.715.233.895.017.243.015.521.006.804-.014.431-.048.957-.085 1.516l-.034.529c-.097 1.555-.173 3.299.022 4.713.197 1.416.726 3.092 1.389 4.223.197.337.381.58.536.747l.009-.154.001-.027c.039-.673.097-1.675.422-2.606.336-.961 1.236-2.321 2.029-3.311.403-.504.843-.992 1.242-1.327.179-.15.461-.366.803-.484.176-.061.494-.141.87-.058.437.097.756.37.934.685.23.408.286.916.314 1.242.033.389.041.846.047 1.298l.003.251c.01.868.02 1.761.126 2.551.132.99.427 1.507.82 2.198.131.23.273.479.424.772.631 1.225 1.037 2.672.689 5.326-.748 5.71-6.884 9.644-13.206 9.727-3.021.04-6.25-.744-8.843-2.345-2.612-1.612-4.628-4.093-5.005-7.401-.348-3.061.341-5.548 1.195-7.232.423-.835.902-1.502 1.346-1.952.211-.213.476-.442.779-.593.145-.072.406-.181.737-.184.397-.003.866.157 1.169.576.147.205.235.431.285.571.059.163.112.346.161.526.055.198.117.445.181.701.046.182.093.369.14.547.242.93.536 1.902.947 2.649.068.123.136.236.202.34a56.656 56.656 0 0 1-.023-2.298c.031-2.2.262-5.028 1.389-7.228.789-1.54 2.141-3.319 3.321-4.625.59-.652 1.179-1.233 1.674-1.623.231-.183.527-.392.844-.519.15-.06.439-.157.793-.124Zm-1.359 3.871c-1.098 1.215-2.299 2.815-2.957 4.1-.857 1.672-1.097 4.019-1.128 6.181a57.45 57.45 0 0 0 .027 2.357l.011.432c.009.375.014.726.004 1.008a3.75 3.75 0 0 1-.035.434 1.682 1.682 0 0 1-.191.596c-.308.546-.867.863-1.488.888-.54.022-1.018-.175-1.377-.391-.733-.441-1.424-1.232-1.989-2.256-.525-.954-.867-2.073-1.109-2.98a2.067 2.067 0 0 1-.034.066c-.662 1.305-1.244 3.332-.952 5.897.276 2.424 1.739 4.304 3.842 5.603 2.122 1.309 4.841 1.984 7.407 1.951 5.47-.072 10.144-3.452 10.685-7.574.291-2.224-.056-3.183-.446-3.939-.082-.159-.18-.329-.286-.514-.433-.75-1.002-1.738-1.201-3.227-.108-.805-.132-1.681-.142-2.444-.578.79-1.063 1.602-1.223 2.062-.204.582-.254 1.271-.296 1.991l-.003.061c-.018.308-.038.662-.086.957-.026.16-.07.365-.154.568-.08.192-.251.513-.614.744a2.61 2.61 0 0 1-1.46.423 2.724 2.724 0 0 1-1.359-.411c-.72-.436-1.275-1.158-1.692-1.871-.854-1.457-1.464-3.445-1.694-5.1-.233-1.679-.136-3.646-.04-5.182l.032-.486-.052.056Z" fill="#FEFFFF"/><path d="m197.877 115.646.019-.017c1.733-1.501 1.928-4.126.383-5.822a.76.76 0 0 1-.037-.043c-.13-.166-.328-.335-.575-.537-.961-.773-2.222-1.037-3.427-.799a1.335 1.335 0 0 0-.199.045l-.012.004a2.85 2.85 0 0 1-.317.072c-1.838.365-3.867-.179-5.258-1.648h-.001v-.001h-.001v-.001h-.001v-.001h-.001v-.001h-.001v-.001h-.001v-.001h-.001v-.001l-.001-.001h-.001v-.001h-.001v-.001l-.001-.001h-.001v-.001h-.001v-.001l-.001-.001h-.001v-.001h-.001v-.001l-.001-.001h-.001v-.001l-.001-.001-.001-.001h-.001v-.001l-.001-.001-.001-.001h-.001v-.001l-.001-.001-.001-.001-.001-.001-.001-.001-.001-.001-.001-.001-.001-.001-.001-.001-.001-.001-.001-.001-.001-.001-.001-.001-.001-.001v-.001h-.001l-.001-.001-.001-.001v-.001h-.001l-.001-.001-.001-.001v-.001h-.001l-.001-.001v-.001h-.001v-.001h-.001l-.001-.001v-.001h-.001v-.001h-.001l-.001-.001v-.001h-.001v-.001h-.001l-.001-.001v-.001h-.001v-.001h-.001v-.001h-.001v-.001h-.001v-.001h-.001v-.001h-.001v-.001h-.001v-.001h-.001v-.001h-.001v-.001h-.001v-.001l-.001-.001h-.001v-.001h-.001v-.001l-.001-.001h-.001v-.001h-.001v-.001l-.001-.001h-.001v-.001h-.001v-.001l-.001-.001h-.001v-.001l-.001-.001-.001-.001h-.001v-.001l-.001-.001-.001-.001h-.001v-.001l-.001-.001-.001-.001h-.001v-.001l-.001-.001-.001-.001-.001-.001-.001-.001-.001-.001-.001-.001-.001-.001-.001-.001-.001-.001-.001-.001v-.001h-.001l-.001-.001-.001-.001v-.001h-.001l-.001-.001-.001-.001v-.001h-.001l-.001-.001-.001-.001v-.001h-.001l-.001-.001v-.001h-.001v-.001h-.001v-.001h-.001v-.001h-.001v-.001h-.001v-.001h-.001v-.001h-.001v-.001h-.001v-.001h-.001v-.001h-.001v-.001h-.001v-.001h-.001v-.001h-.001v-.001h-.001v-.001h-.001v-.001h-.001v-.001h-.001v-.001h-.001v-.001h-.001v-.001l-.001-.001h-.001v-.001h-.001v-.001l-.001-.001h-.001v-.001h-.001v-.001l-.001-.001h-.001v-.001l-.001-.001-.001-.001h-.001v-.001l-.001-.001-.001-.001h-.001v-.001l-.001-.001-.001-.001h-.001v-.001l-.001-.001-.001-.001-.001-.001-.001-.001-.001-.001-.001-.001-.001-.001-.001-.001-.001-.001-.001-.001v-.001h-.001l-.001-.001-.001-.001v-.001h-.001l-.001-.001-.001-.001v-.001h-.001v-.001h-.001l-.001-.001v-.001h-.001v-.001h-.001v-.001h-.001v-.001h-.001v-.001h-.001v-.001h-.001v-.001h-.001v-.001h-.001v-.001h-.001v-.001h-.001v-.001h-.001v-.001h-.001v-.001h-.001v-.001h-.001v-.001h-.001v-.001h-.001v-.001h-.001v-.001h-.001v-.001h-.001v-.001h-.001v-.001h-.001v-.001l-.001-.001h-.001v-.001h-.001v-.001l-.001-.001h-.001v-.001h-.001v-.001l-.001-.001h-.001v-.001h-.001v-.001l-.001-.001h-.001v-.001l-.001-.001-.001-.001h-.001v-.001l-.001-.001-.001-.001h-.001v-.001l-.001-.001-.001-.001-.001-.001-.001-.001-.001-.001-.001-.001-.001-.001-.001-.001v-.001h-.001l-.001-.001-.001-.001v-.001h-.001l-.001-.001v-.001c-.014-.014-.028-.028-.04-.044-.946-1.122-1.418-2.484-1.372-3.863a.778.778 0 0 1-.063-.327 7.827 7.827 0 0 1 1.49-4.348l.016-.023a8.79 8.79 0 0 1 1.181-1.263l.004-.003a7.734 7.734 0 0 1 8.672-.956.81.81 0 0 1 .253.124c.342.195.674.432.977.69a.88.88 0 0 1 .051.047h.001l.001.002.001.001.001.001.001.001.001.001h.001l.001.002.001.001.001.001.001.001.001.001h.001l.001.002.001.002h.001l.001.001.001.001.001.001h.001v.002h.001l.001.002h.001l.001.001.001.001.001.001.001.002h.001l.001.001.001.001.001.001.001.001v.001h.001l.001.002h.001l.001.002h.001l.001.001v.001l.001.001h.001l.001.002h.001l.001.002h.001l.001.001v.001l.001.001.001.001h.001l.001.002h.001l.001.002h.001v.001l.001.001.001.001.001.001h.001l.001.002h.001l.001.002.001.001.001.001.001.001.001.001h.001l.001.002h.001v.002h.001l.001.001.001.001.001.001.001.001.001.001h.001l.001.002.001.002h.001l.001.001.001.001.001.001.001.001.001.001.001.002h.001l.001.002h.001l.001.001.001.001.001.001.001.001v.001l.001.001h.001l.001.002h.001l.001.002h.001l.001.001.001.001v.001l.001.001.001.001.001.001h.001l.001.002h.001l.001.002h.001l.001.001v.001l.001.001.001.001.001.001.001.001h.001l.001.002h.001l.001.002h.001v.002h.001l.001.001.001.001.001.001.001.001h.001l.001.002h.001l.001.002.001.001.001.001.001.001.001.001.001.001.001.001.001.001.001.001h.001v.002h.001l.001.002h.001l.001.001.001.001.001.001.001.001.001.001.001.001v.001h.001l.001.002h.001l.001.002h.001l.001.002h.001l.001.001.001.001.001.001v.001l.001.001.001.001h.001l.001.002h.001l.001.002h.001l.001.001.001.001.001.001v.001l.001.001.001.001.001.001.001.001h.001l.001.002h.001l.001.002h.001l.001.002.001.001.001.001.001.001.001.001.001.001.001.001.001.001h.001l.001.002h.001v.002h.001l.001.002h.001l.001.001.001.001.001.001.001.001.001.001.001.001.001.001h.001v.002h.001l.001.002h.001l.001.002h.001l.001.001.001.001.001.001.001.001.001.001v.001l.001.001.001.001h.001l.001.002h.001l.001.002h.001l.001.001.001.002h.001l.001.001v.001l.001.001.001.001.001.001.001.001h.001l.001.002h.001l.001.002h.001l.001.002h.001v.001l.001.001.001.001.001.001.001.001.001.001.001.001.001.001h.001l.001.002h.001l.001.002.001.002h.001l.001.001.001.001.001.001.001.001.001.001.001.001.001.001h.001v.002h.001l.001.002h.001l.001.002h.001l.001.001.001.001.001.001.001.001.001.001.001.001v.001h.001l.001.002h.001l.001.002h.001l.001.002h.001l.001.002h.001l.001.001.001.001v.001l.001.001.001.001.001.001h.001l.001.002h.001l.001.002h.001l.001.001.001.001v.001l.001.001.001.001.001.001.001.001.001.001.001.001h.001l.001.002h.001l.001.002.001.001.001.001.001.001.001.001.001.001.001.001.001.001.001.001h.001l.001.002.001.002h.001l.001.001.001.002h.001l.001.001.001.001.001.001.001.001.001.001.001.002h.001l.001.002h.001l.001.001.001.002h.001l.001.001.001.001.001.001v.001l.001.001h.001l.001.002h.001l.001.002h.001l.001.001.001.001.001.001v.001l.001.001.001.001.001.001h.001l.001.002h.001l.001.002h.001l.001.001v.001l.001.001.001.001.001.001.001.001.001.001h.001l.001.002h.001l.001.002.001.002h.001l.001.001.001.001.001.001.001.001.001.001h.001l.001.002.001.002h.001l.001.001.001.001.001.001.001.001.001.001.001.001.001.002h.001l.001.002h.001l.001.001.001.001.001.001.001.001v.001h.001l.001.002h.001l.001.002h.001l.001.001.001.001.001.001v.001l.001.001h.001l.001.002h.001l.001.002h.001l.001.001.001.001v.001l.001.001.001.001h.001l.001.002h.001l.001.002h.001v.001l.001.001.001.001.001.001.001.001h.001l.001.002h.001v.002h.001l.001.001.001.001.001.001.001.001h.001l.001.002.001.002h.001l.001.001.001.001.001.001.001.001h.001v.002h.001l.001.002h.001l.001.001.001.001.001.001h.001v.002h.001l.001.002h.001l.001.001.001.001.001.001v.001h.001l.001.002h.001l.001.002h.001l.001.001v.001l.001.001h.001l.001.002h.001l.001.001.001.001v.001l.001.001h.001l.001.002h.001l.001.002h.001v.001l.001.001.001.001h.001l.001.002h.001l.001.001v.001l.001.001.001.001h.001l.001.002h.001v.001a.47.47 0 0 1 .036.04c1.531 1.788 1.579 4.01.532 5.921l-.012.022c-.142.239-.306.5-.464.749l-.003.006a24.97 24.97 0 0 0-.443.716.768.768 0 0 1-.07.099c-.456.993-.473 1.995.076 2.88a2.123 2.123 0 0 0 .374.5c.271.276.436.441.652.587l.015.011c1.148.818 2.741.767 3.893-.204.189-.169.526-.559.863-.975.323-.399.599-.762.656-.84 1.644-2.321 2.642-4.469 2.868-6.448.22-1.94-.294-3.779-1.811-5.55a9.322 9.322 0 0 0-1.393-1.282.776.776 0 0 1 .17-1.34l14.911-6.051.016-.006-22.857 29.627Zm0 0a.766.766 0 0 0-.181.129l-.005.004-.053.039-.013.01a1.816 1.816 0 0 0-.158.126c-2.082 1.55-4.753 1.947-7.164 1.283a.765.765 0 0 0-.108-.022c-7.45-.95-14.412-6.299-21.44-14.228l-10.171-12.313 15.753-14.345 4.354 2.137a.864.864 0 0 0 .042.019c4.505 1.889 9.922 1.213 13.928-1.458l.014-.01.171-.12a.797.797 0 0 0 .05-.037l13.673-11.322a.85.85 0 0 0 .049-.044l.028-.027a3.552 3.552 0 0 1 4.972.399c1.056 1.237 1.106 3.007.214 4.32a.776.776 0 0 0 .993 1.125c.644-.328 1.474-.363 2.33-.114.854.247 1.662.757 2.218 1.406m-19.496 43.043 19.496-43.043m0 0c1.25 1.472 1.084 3.684-.361 4.972l-1.268.922-1.49.942a.775.775 0 0 0 .673 1.385l3.817-1.348a3.42 3.42 0 0 1 4.013.904l-5.384-7.777Zm3.367 13.413 2.018-5.636c1.24 1.463 1.075 3.614-.375 4.843a1.247 1.247 0 0 1-.2.158 9.606 9.606 0 0 1-.127.083l-.03.02-.066.041c-.127.063-.398.175-.683.286-.144.057-.278.108-.377.146l-.117.044-.032.012-.008.003h-.003Z" fill="#FBB793" stroke="#000" stroke-width="1.549" stroke-linejoin="round"/><path d="m211.334 71.301-19.781 11.947M213.601 80.443l-18.772 8.627" stroke="#000" stroke-width="1.549" stroke-miterlimit="10" stroke-linecap="round"/><rect x="212.377" y="69.731" width="1.474" height="3.686" rx=".737" transform="rotate(56.698 212.377 69.731)" fill="#000"/><rect x="214.627" y="79.336" width="1.474" height="3.686" rx=".737" transform="rotate(66.002 214.627 79.336)" fill="#000"/><path d="m75.802 214.919 8.063 8.615 12.31-15.688M131.805 214.919l8.063 8.615 12.31-15.688" stroke="#000" stroke-width="1.474" stroke-linecap="round" stroke-linejoin="round"/><g filter="url(#a)"><path d="M87.368 131.41v134.776H8.362V131.41h79.006Z" fill="#fff" fill-opacity=".4"/></g><g filter="url(#b)"><path d="M311.993 266.186V119.017h79.006v147.169h-79.006Z" fill="#fff" fill-opacity=".4"/></g><defs><filter id="a" x="-8.266" y="114.782" width="112.263" height="168.033" filterUnits="userSpaceOnUse" color-interpolation-filters="sRGB"><feFlood flood-opacity="0" result="BackgroundImageFix"/><feGaussianBlur in="BackgroundImage" stdDeviation="8.314"/><feComposite in2="SourceAlpha" operator="in" result="effect1_backgroundBlur_146_2542"/><feBlend in="SourceGraphic" in2="effect1_backgroundBlur_146_2542" result="shape"/></filter><filter id="b" x="295.364" y="102.389" width="112.263" height="180.426" filterUnits="userSpaceOnUse" color-interpolation-filters="sRGB"><feFlood flood-opacity="0" result="BackgroundImageFix"/><feGaussianBlur in="BackgroundImage" stdDeviation="8.314"/><feComposite in2="SourceAlpha" operator="in" result="effect1_backgroundBlur_146_2542"/><feBlend in="SourceGraphic" in2="effect1_backgroundBlur_146_2542" result="shape"/></filter></defs></svg>