<svg viewBox="0 0 400 300" fill="none" xmlns="http://www.w3.org/2000/svg"><mask id="a" fill="#fff"><path fill-rule="evenodd" clip-rule="evenodd" d="m122.443 183.11-8.906 12.515 25.892 18.445 9.34-11.432 21.559-10.746a5.703 5.703 0 0 0 3.101-5.932 5.703 5.703 0 0 0-3.839-4.584 5.704 5.704 0 0 0 .284-6.501 5.7 5.7 0 0 0-6.541-2.411 5.696 5.696 0 0 0 1.064-4.225 5.716 5.716 0 0 0-.821-2.22 5.707 5.707 0 0 0-7.25-2.106l-21.225 10.042-.302-11.991a4.848 4.848 0 0 0-4.946-4.724 4.854 4.854 0 0 0-3.142 1.248 4.85 4.85 0 0 0-1.561 2.998l-2.707 21.624Z"/></mask><path fill-rule="evenodd" clip-rule="evenodd" d="m122.443 183.11-8.906 12.515 25.892 18.445 9.34-11.432 21.559-10.746a5.703 5.703 0 0 0 3.101-5.932 5.703 5.703 0 0 0-3.839-4.584 5.704 5.704 0 0 0 .284-6.501 5.7 5.7 0 0 0-6.541-2.411 5.696 5.696 0 0 0 1.064-4.225 5.716 5.716 0 0 0-.821-2.22 5.707 5.707 0 0 0-7.25-2.106l-21.225 10.042-.302-11.991a4.848 4.848 0 0 0-4.946-4.724 4.854 4.854 0 0 0-3.142 1.248 4.85 4.85 0 0 0-1.561 2.998l-2.707 21.624Z" fill="#DD9C74"/><path d="m113.537 195.625-1.02-.726a1.252 1.252 0 0 0 .294 1.746l.726-1.02Zm8.906-12.515 1.02.726c.12-.169.196-.365.222-.57l-1.242-.156Zm16.986 30.96-.727 1.02a1.252 1.252 0 0 0 1.696-.228l-.969-.792Zm9.34-11.432-.558-1.12a1.249 1.249 0 0 0-.411.328l.969.792Zm21.559-10.746-.559-1.121.559 1.121Zm2.95-3.57-1.206-.337 1.206.337Zm-.67-4.582 1.058-.669v-.001l-1.058.67Zm-3.018-2.364-.996-.758a1.25 1.25 0 0 0 .6 1.946l.396-1.188Zm.954-1.918 1.206.337-1.206-.337Zm-.67-4.583-1.061.665.002.004 1.059-.669Zm-3.228-2.443.352-1.202-.352 1.202Zm-3.313.032-1.005-.746a1.252 1.252 0 0 0 1.381 1.941l-.376-1.195Zm.913-1.863 1.206.338-1.206-.338Zm.151-2.362 1.239-.181-1.239.181Zm-.821-2.22 1.058-.668-.001-.002-1.057.67Zm-3.227-2.423-.349 1.202.349-1.202Zm-4.023.317-.533-1.133-.002.001.535 1.132Zm-21.225 10.042-1.251.031a1.249 1.249 0 0 0 1.787 1.1l-.536-1.131Zm-.302-11.991-1.252.031v.001l1.252-.032Zm-1.497-3.384.865-.905-.865.905Zm-3.449-1.34-.027-1.252h-.001l.028 1.252Zm-3.142 1.248.84.929-.84-.929Zm-1.561 2.998 1.243.155-1.243-.155Zm-10.593 34.865 8.906-12.515-2.041-1.452-8.905 12.515 2.04 1.452Zm25.598 16.699-25.891-18.444-1.453 2.039 25.891 18.445 1.453-2.04Zm7.645-11.204-9.341 11.432 1.939 1.584 9.341-11.431-1.939-1.585Zm1.528 1.913 21.558-10.747-1.117-2.241-21.558 10.747 1.117 2.241Zm21.558-10.746a6.963 6.963 0 0 0 2.261-1.796l-1.931-1.595c-.397.48-.889.871-1.447 1.149l1.117 2.242Zm2.261-1.796a6.966 6.966 0 0 0 1.337-2.558l-2.412-.674a4.456 4.456 0 0 1-.856 1.637l1.931 1.595Zm1.337-2.558a6.972 6.972 0 0 0 .184-2.881l-2.478.363c.09.616.05 1.244-.118 1.844l2.412.674Zm.184-2.881a6.956 6.956 0 0 0-1.002-2.707l-2.117 1.337c.332.526.55 1.117.641 1.733l2.478-.363Zm-1.002-2.708a6.96 6.96 0 0 0-3.68-2.882l-.792 2.376a4.449 4.449 0 0 1 2.355 1.845l2.117-1.339Zm-4.328-3.949a4.443 4.443 0 0 1-.744 1.497l1.993 1.516a6.963 6.963 0 0 0 1.163-2.339l-2.412-.674Zm.118-1.844c.09.616.05 1.244-.118 1.844l2.412.674a6.955 6.955 0 0 0 .184-2.881l-2.478.363Zm-.641-1.733c.332.526.551 1.117.641 1.733l2.478-.363a6.97 6.97 0 0 0-1.001-2.707l-2.118 1.337Zm-2.521-1.911a4.45 4.45 0 0 1 2.519 1.907l2.122-1.329a6.95 6.95 0 0 0-3.937-2.981l-.704 2.403Zm-2.585.026a4.446 4.446 0 0 1 2.585-.026l.704-2.403a6.95 6.95 0 0 0-4.04.04l.751 2.389Zm-.669-3.395a4.447 4.447 0 0 1-.712 1.454l2.011 1.492a6.948 6.948 0 0 0 1.113-2.271l-2.412-.675Zm.118-1.844a4.45 4.45 0 0 1-.118 1.844l2.412.675a6.955 6.955 0 0 0 .184-2.881l-2.478.362Zm-.641-1.732c.332.526.551 1.116.641 1.732l2.478-.362a6.944 6.944 0 0 0-1.002-2.707l-2.117 1.337Zm-2.517-1.89a4.45 4.45 0 0 1 2.518 1.892l2.115-1.341a6.958 6.958 0 0 0-3.935-2.956l-.698 2.405Zm-3.14.248a4.459 4.459 0 0 1 3.14-.248l.698-2.405a6.957 6.957 0 0 0-4.905.387l1.067 2.266Zm-21.223 10.04 21.225-10.041-1.071-2.264-21.225 10.042 1.071 2.263Zm-2.09-13.09.303 11.99 2.503-.063-.302-11.99-2.504.063Zm-1.11-2.51a3.593 3.593 0 0 1 1.11 2.509l2.504-.062a6.099 6.099 0 0 0-1.884-4.258l-1.73 1.811Zm-2.558-.994c.951-.02 1.87.337 2.558.994l1.73-1.811a6.101 6.101 0 0 0-4.341-1.687l.053 2.504Zm-2.328.925a3.593 3.593 0 0 1 2.329-.925l-.055-2.504a6.1 6.1 0 0 0-3.953 1.571l1.679 1.858Zm-1.158 2.224a3.589 3.589 0 0 1 1.158-2.224l-1.679-1.858a6.095 6.095 0 0 0-1.964 3.772l2.485.31Zm-2.708 21.625 2.708-21.625-2.485-.311-2.708 21.624 2.485.312Z" fill="#000" mask="url(#a)"/><mask id="b" fill="#fff"><path d="m91.1 228.355 14.805-32.431a9.356 9.356 0 0 1 12.181-1.225l20.296 14.261a9.365 9.365 0 0 1 2.37 12.931l-17.474 16.048"/></mask><path d="m91.1 228.355 14.805-32.431a9.356 9.356 0 0 1 12.181-1.225l20.296 14.261a9.365 9.365 0 0 1 2.37 12.931l-17.474 16.048" fill="#FF6000"/><path d="m105.905 195.924-.91-.86-.143.151-.087.189 1.14.52Zm12.181-1.225-.721 1.025h.001l.72-1.025Zm20.296 14.261-.72 1.025.002.001.718-1.026Zm2.37 12.931.847.922.107-.098.082-.12-1.036-.704Zm-48.513 6.984 14.805-32.431-2.279-1.04-14.804 32.431 2.278 1.04Zm14.575-32.09a8.107 8.107 0 0 1 5.078-2.496l-.25-2.492a10.607 10.607 0 0 0-6.647 3.267l1.819 1.721Zm5.078-2.496a8.097 8.097 0 0 1 5.473 1.435l1.441-2.049a10.61 10.61 0 0 0-7.164-1.878l.25 2.492Zm5.474 1.435 20.296 14.261 1.44-2.049-20.296-14.261-1.44 2.049Zm20.298 14.262a8.109 8.109 0 0 1 3.323 5.179l2.463-.451a10.612 10.612 0 0 0-4.349-6.779l-1.437 2.051Zm3.323 5.179a8.113 8.113 0 0 1-1.27 6.022l2.071 1.408a10.614 10.614 0 0 0 1.662-7.881l-2.463.451Zm-1.082 5.804-17.474 16.048 1.694 1.844 17.474-16.048-1.694-1.844Z" fill="#000" mask="url(#b)"/><path d="M112.146 201.371h.001l20.296 14.261.001.001a8.735 8.735 0 0 1 2.211 12.065v.001l-18.298 27.003a10.243 10.243 0 0 1-14.669 2.408l-23.43-17.796a10.24 10.24 0 0 1-3.26-12.096 10.245 10.245 0 0 1 2.57-3.643l23.168-21.028.017-.016.017-.018a8.728 8.728 0 0 1 11.376-1.142Z" fill="#FFAC00" stroke="#000" stroke-width="1.252"/><path d="m168.601 181.758-17.182 6.968M164.334 172.357l-17.182 6.968" stroke="#000" stroke-width="1.252" stroke-linecap="round"/><mask id="c" fill="#fff"><path d="m252.595 114.493-3.486 1.98-3.659 2.107c-1.284.745-2.567 1.474-3.835 2.234l-2.788 1.743-3.39 2.091c-.571.349-1.141.713-1.68 1.093-1.98 1.363-4.04 2.614-6.004 3.977l-4.484 3.169c-2.503 1.727-4.927 3.58-7.415 5.355-3.327 2.329-6.495 4.848-9.664 7.414-1.584 1.299-3.264 2.551-4.848 3.914-1.854 1.584-3.755 3.168-5.624 4.753l-3.787 3.374a318.095 318.095 0 0 0-5.973 5.419c-1.727 1.584-3.375 3.279-5.101 4.879-1.727 1.6-3.042 2.9-4.532 4.373-2.154 2.155-4.341 4.278-6.432 6.496-.401.454-1.126.396-1.565-.02a17.332 17.332 0 0 0-.685-.614c-1.127-.898-3.257-1.937-5.945-1.884-2.688.053-3.848.84-6.23 2.631-.547.413-1.362.394-1.867-.084-.506-.477-1.12-1.17-1.959-2.247a.497.497 0 0 1-.146-.349.49.49 0 0 1 .146-.348 2.471 2.471 0 0 0 .459-1.902 2.083 2.083 0 0 0-1.092-1.576 2.082 2.082 0 0 0-1.918-.008c-.349.19-.571.158-.776-.158a4.438 4.438 0 0 0-.523-.682 1.084 1.084 0 0 1-.43-.754 1.084 1.084 0 0 1 .255-.83 2.106 2.106 0 0 0-.364-2.646 1.967 1.967 0 0 0-2.456-.38c-.285.143-.459.143-.649-.127-.19-.269-.586-.792-.903-1.172a.597.597 0 0 1-.144-.197.595.595 0 0 1 0-.477.601.601 0 0 1 .144-.198 2.316 2.316 0 0 0 0-2.677 2.033 2.033 0 0 0-2.456-.745c-.665.222-.665.222-1.109-.348l-.697-.919a.46.46 0 0 1 0-.681 2.265 2.265 0 0 0 .507-1.743 2.095 2.095 0 0 0-1.873-1.898 2.092 2.092 0 0 0-.947.123c-.666.286-.682.254-1.093-.301l-.333-.427a3.25 3.25 0 0 1-.523-.761c-.127-.348.269-.507.396-.792a2.33 2.33 0 0 0-.348-2.662 1.884 1.884 0 0 0-2.377-.348c-.317.142-.509.066-.729-.159-.22-.224-.517-.554-.704-.875a1.304 1.304 0 0 1 .102-1.454 2.095 2.095 0 0 0-.675-2.848 2.09 2.09 0 0 0-1.02-.32 1.992 1.992 0 0 0-1.014.285.487.487 0 0 1-.437.105.499.499 0 0 1-.339-.295 34.944 34.944 0 0 0-2.123-2.963c-.206-.269-.238-.459 0-.697a11.087 11.087 0 0 0 3.992-6.432 11.833 11.833 0 0 0-1.299-8.841c-.618-1.061-.618-1.03.238-1.917 1.14-1.172 2.265-2.361 3.406-3.549l2.994-3.042 3.375-3.343 2.44-2.345 3.169-3.073c.538-.507 1.093-1.014 1.584-1.489 2.012-1.759 3.945-3.597 5.973-5.324 1.584-1.394 3.311-2.82 4.975-4.246a255.489 255.489 0 0 1 12.785-10.219c1.838-1.378 3.66-2.804 5.545-4.135 1.886-1.33 3.866-2.772 5.83-4.135 1.965-1.362 3.977-2.693 5.973-4.04 1.997-1.346 4.389-2.804 6.575-4.214 2.187-1.41 4.833-2.995 7.257-4.452 3.168-1.917 6.337-3.818 9.696-5.593.427-.221.839-.475 1.251-.713.412-.237.555-.285.967.175a11.229 11.229 0 0 0 10.916 3.707 10.37 10.37 0 0 0 4.246-1.885c.475-.349.491-.349.855.11.697.903 1.363 1.822 2.076 2.71.269.332.332.586 0 .919a1.852 1.852 0 0 0-.159 2.424 2.125 2.125 0 0 0 2.298.871 1.155 1.155 0 0 1 1.663.65c.059.082.122.162.19.237.444.586.444.586 0 1.157a2.028 2.028 0 0 0-.111 2.392 2.375 2.375 0 0 0 2.44.919c.872-.238.872-.238 1.394.475l.286.365c.475.633.475.633 0 1.267a1.948 1.948 0 0 0-.111 2.266 2.137 2.137 0 0 0 1.996 1.093c.232-.011.461-.054.681-.127.666-.19.666-.206 1.062.317l.332.444c.19.269.491.49.555.824.063.332-.333.49-.475.744a2.133 2.133 0 0 0 0 2.345 2.28 2.28 0 0 0 2.313.887 1 1 0 0 0 .364-.127.539.539 0 0 1 .776.238c.127.19.286.365.428.555a3.8 3.8 0 0 1 .602.887c.079.332-.332.538-.491.824a2.239 2.239 0 0 0 .368 2.503 2.232 2.232 0 0 0 2.468.554.571.571 0 0 1 .84.238c.269.396.57.792.887 1.172.05.04.09.091.117.149a.421.421 0 0 1 0 .368.417.417 0 0 1-.117.149 1.98 1.98 0 0 0-.158 2.345 2.198 2.198 0 0 0 2.677 1.251c.602-.206.871 0 1.204.444.681.966 1.426 1.901 2.123 2.868.364.475.349.507-.174.776a9.645 9.645 0 0 0-4.183 3.739 8.736 8.736 0 0 0-.237 9.015l.475.919Z"/></mask><path d="m252.595 114.493-3.486 1.98-3.659 2.107c-1.284.745-2.567 1.474-3.835 2.234l-2.788 1.743-3.39 2.091c-.571.349-1.141.713-1.68 1.093-1.98 1.363-4.04 2.614-6.004 3.977l-4.484 3.169c-2.503 1.727-4.927 3.58-7.415 5.355-3.327 2.329-6.495 4.848-9.664 7.414-1.584 1.299-3.264 2.551-4.848 3.914-1.854 1.584-3.755 3.168-5.624 4.753l-3.787 3.374a318.095 318.095 0 0 0-5.973 5.419c-1.727 1.584-3.375 3.279-5.101 4.879-1.727 1.6-3.042 2.9-4.532 4.373-2.154 2.155-4.341 4.278-6.432 6.496-.401.454-1.126.396-1.565-.02a17.332 17.332 0 0 0-.685-.614c-1.127-.898-3.257-1.937-5.945-1.884-2.688.053-3.848.84-6.23 2.631-.547.413-1.362.394-1.867-.084-.506-.477-1.12-1.17-1.959-2.247a.497.497 0 0 1-.146-.349.49.49 0 0 1 .146-.348 2.471 2.471 0 0 0 .459-1.902 2.083 2.083 0 0 0-1.092-1.576 2.082 2.082 0 0 0-1.918-.008c-.349.19-.571.158-.776-.158a4.438 4.438 0 0 0-.523-.682 1.084 1.084 0 0 1-.43-.754 1.084 1.084 0 0 1 .255-.83 2.106 2.106 0 0 0-.364-2.646 1.967 1.967 0 0 0-2.456-.38c-.285.143-.459.143-.649-.127-.19-.269-.586-.792-.903-1.172a.597.597 0 0 1-.144-.197.595.595 0 0 1 0-.477.601.601 0 0 1 .144-.198 2.316 2.316 0 0 0 0-2.677 2.033 2.033 0 0 0-2.456-.745c-.665.222-.665.222-1.109-.348l-.697-.919a.46.46 0 0 1 0-.681 2.265 2.265 0 0 0 .507-1.743 2.095 2.095 0 0 0-1.873-1.898 2.092 2.092 0 0 0-.947.123c-.666.286-.682.254-1.093-.301l-.333-.427a3.25 3.25 0 0 1-.523-.761c-.127-.348.269-.507.396-.792a2.33 2.33 0 0 0-.348-2.662 1.884 1.884 0 0 0-2.377-.348c-.317.142-.509.066-.729-.159-.22-.224-.517-.554-.704-.875a1.304 1.304 0 0 1 .102-1.454 2.095 2.095 0 0 0-.675-2.848 2.09 2.09 0 0 0-1.02-.32 1.992 1.992 0 0 0-1.014.285.487.487 0 0 1-.437.105.499.499 0 0 1-.339-.295 34.944 34.944 0 0 0-2.123-2.963c-.206-.269-.238-.459 0-.697a11.087 11.087 0 0 0 3.992-6.432 11.833 11.833 0 0 0-1.299-8.841c-.618-1.061-.618-1.03.238-1.917 1.14-1.172 2.265-2.361 3.406-3.549l2.994-3.042 3.375-3.343 2.44-2.345 3.169-3.073c.538-.507 1.093-1.014 1.584-1.489 2.012-1.759 3.945-3.597 5.973-5.324 1.584-1.394 3.311-2.82 4.975-4.246a255.489 255.489 0 0 1 12.785-10.219c1.838-1.378 3.66-2.804 5.545-4.135 1.886-1.33 3.866-2.772 5.83-4.135 1.965-1.362 3.977-2.693 5.973-4.04 1.997-1.346 4.389-2.804 6.575-4.214 2.187-1.41 4.833-2.995 7.257-4.452 3.168-1.917 6.337-3.818 9.696-5.593.427-.221.839-.475 1.251-.713.412-.237.555-.285.967.175a11.229 11.229 0 0 0 10.916 3.707 10.37 10.37 0 0 0 4.246-1.885c.475-.349.491-.349.855.11.697.903 1.363 1.822 2.076 2.71.269.332.332.586 0 .919a1.852 1.852 0 0 0-.159 2.424 2.125 2.125 0 0 0 2.298.871 1.155 1.155 0 0 1 1.663.65c.059.082.122.162.19.237.444.586.444.586 0 1.157a2.028 2.028 0 0 0-.111 2.392 2.375 2.375 0 0 0 2.44.919c.872-.238.872-.238 1.394.475l.286.365c.475.633.475.633 0 1.267a1.948 1.948 0 0 0-.111 2.266 2.137 2.137 0 0 0 1.996 1.093c.232-.011.461-.054.681-.127.666-.19.666-.206 1.062.317l.332.444c.19.269.491.49.555.824.063.332-.333.49-.475.744a2.133 2.133 0 0 0 0 2.345 2.28 2.28 0 0 0 2.313.887 1 1 0 0 0 .364-.127.539.539 0 0 1 .776.238c.127.19.286.365.428.555a3.8 3.8 0 0 1 .602.887c.079.332-.332.538-.491.824a2.239 2.239 0 0 0 .368 2.503 2.232 2.232 0 0 0 2.468.554.571.571 0 0 1 .84.238c.269.396.57.792.887 1.172.05.04.09.091.117.149a.421.421 0 0 1 0 .368.417.417 0 0 1-.117.149 1.98 1.98 0 0 0-.158 2.345 2.198 2.198 0 0 0 2.677 1.251c.602-.206.871 0 1.204.444.681.966 1.426 1.901 2.123 2.868.364.475.349.507-.174.776a9.645 9.645 0 0 0-4.183 3.739 8.736 8.736 0 0 0-.237 9.015l.475.919Z" fill="#FF7043" stroke="#000" stroke-width="2.504" mask="url(#c)"/><path d="m157.184 99.395 40.595 50.811" stroke="#fff" stroke-width=".792" stroke-miterlimit="10"/><path d="m164.814 164.151-2.519-.127a.25.25 0 0 1-.222-.127l-1.299-2.186a.267.267 0 0 0-.284-.114.269.269 0 0 0-.207.225l-.111 2.519a.26.26 0 0 1-.033.128.265.265 0 0 1-.094.094l-2.154 1.315a.265.265 0 0 0-.101.128.271.271 0 0 0 .227.363l2.519.127a.25.25 0 0 1 .222.127l1.315 2.186a.258.258 0 0 0 .287.122.25.25 0 0 0 .137-.092.26.26 0 0 0 .052-.157l.11-2.551a.256.256 0 0 1 .127-.206l2.155-1.315a.269.269 0 0 0-.127-.491M159.198 112.758l-1.585 1.062a.242.242 0 0 1-.206 0l-1.853-.808a.209.209 0 0 0-.128-.011.208.208 0 0 0-.158.187.204.204 0 0 0 .032.125l1.046 1.679a.181.181 0 0 1 .028.095c0 .034-.01.067-.028.096l-.792 1.806a.213.213 0 0 0-.002.125.215.215 0 0 0 .066.106.22.22 0 0 0 .237.038l1.584-1.046a.176.176 0 0 1 .19 0l1.791.808a.203.203 0 0 0 .238-.044.21.21 0 0 0 .055-.115.21.21 0 0 0-.024-.126l-1.062-1.695a.208.208 0 0 1 0-.19l.793-1.806a.222.222 0 0 0-.302-.27M150.441 122.925l-2.519.523a.293.293 0 0 1-.127.03.296.296 0 0 1-.127-.03l-1.822-1.838a.266.266 0 0 0-.155-.085.266.266 0 0 0-.293.161.266.266 0 0 0-.011.178l.523 2.55a.273.273 0 0 1 0 .238l-1.806 1.854a.248.248 0 0 0-.101.148.258.258 0 0 0 .023.179.251.251 0 0 0 .315.116l2.519-.507a.295.295 0 0 1 .254 0l1.838 1.838a.267.267 0 0 0 .313.033.268.268 0 0 0 .13-.286l-.522-2.551a.26.26 0 0 1-.028-.119.26.26 0 0 1 .028-.119l1.806-1.853a.27.27 0 0 0-.238-.46ZM185.143 148.463l-1.633-.08a.185.185 0 0 1-.133-.093l-.833-1.419a.17.17 0 0 0-.183-.07.17.17 0 0 0-.13.147l-.097 1.658a.153.153 0 0 1-.092.133l-1.407.867a.179.179 0 0 0-.064.08.172.172 0 0 0 .142.233l1.633.079a.184.184 0 0 1 .132.093l.842 1.425a.172.172 0 0 0 .183.071.172.172 0 0 0 .13-.148l.088-1.664a.199.199 0 0 1 .031-.077.173.173 0 0 1 .062-.055l1.415-.862a.173.173 0 0 0 .076-.191.165.165 0 0 0-.06-.091.165.165 0 0 0-.102-.036ZM164.009 145.042c.19.269.313.582.356.91a2.916 2.916 0 0 1-.812 2.629 2.84 2.84 0 0 1-1.893.866c-.716.037-1.42-.2-1.971-.664a3.575 3.575 0 0 1-.855-1.112 3.014 3.014 0 0 1-.142-1.907c.114-.439.325-.846.616-1.191a2.98 2.98 0 0 1 1.066-.802c-.856-.939-1.668-1.921-2.538-2.888a6.34 6.34 0 0 0-1.947 2.005 6.428 6.428 0 0 0-.904 2.66 6.504 6.504 0 0 0 1.24 4.665c.268.333.558.647.87.938a6.422 6.422 0 0 0 2.613 1.443 6.37 6.37 0 0 0 2.975.103 6.169 6.169 0 0 0 3.165-1.705 6.366 6.366 0 0 0 1.593-2.506 6.44 6.44 0 0 0 .289-2.967 6.749 6.749 0 0 0-1.426-3.308c-1.668-1.877-3.364-3.726-5.046-5.589a11.022 11.022 0 0 0 1.553-.347 9.012 9.012 0 0 0 3.208-1.819l-2.324-2.571a6.019 6.019 0 0 1-3.706 1.314 5.304 5.304 0 0 1-3.507-1.661c-.813.766-1.654 1.444-2.466 2.282l9.993 11.222Z" fill="#FFC8B7"/><path d="m186.789 108.291.866-6.342c.241-2.007-.145-3.757-1.166-5.206-1.02-1.45-2.367-2.267-4.081-2.457-1.714-.19-3.296.225-4.746 1.246-3.244 2.283-3.956 5.761-2.137 9.442l3.919-1.95c-.747-1.532-.802-2.706.501-3.623 1.179-.83 2.128-.58 2.612.109.294.418.394 1.082.301 1.993l-1.229 12.405 1.556 2.211 11.33-7.973-2.491-3.539-5.235 3.684Zm14.881-13.964c.415.59.501 1.338.274 2.269-.202.914-.742 1.661-1.577 2.25-.983.691-2.28.832-3.909.398l-1.491 4.357c1.304.442 2.725.581 4.18.403 1.454-.179 2.726-.67 3.832-1.448 2.089-1.47 3.337-3.194 3.778-5.231.44-2.038.041-3.962-1.204-5.731-1.159-1.647-2.626-2.635-4.343-2.934-1.717-.298-3.334.068-4.784 1.088-1.105.779-1.905 1.783-2.35 2.978l-1.196-2.43 6.685-4.704-2.404-3.416-9.782 6.884 4.88 9.648 2.37-.235c.318-1.95 1.247-3.45 2.771-4.522 1.573-1.107 3.284-1.025 4.27.376Zm9.216-21.812 3.262 21.813 2.31-1.626-3.237-21.83-2.335 1.643Zm-1.913 5.793c-.639-.909-1.495-1.446-2.584-1.635-1.106-.214-2.117.02-3.026.66-.91.64-1.471 1.513-1.661 2.602-.164 1.071.07 2.082.71 2.992.64.909 1.513 1.47 2.577 1.677 1.071.165 2.083-.07 2.992-.71.909-.64 1.471-1.512 1.677-2.576.189-1.089-.045-2.1-.685-3.01Zm-2.113 1.488c.467.663.297 1.518-.367 1.985-.663.467-1.501.322-1.968-.342-.467-.663-.338-1.525.325-1.992.664-.468 1.578-.266 2.01.349Zm14.134 8.647c1.072.165 2.083-.07 2.992-.71.91-.64 1.471-1.512 1.678-2.576.189-1.089-.045-2.1-.685-3.01-.64-.909-1.513-1.47-2.602-1.66-1.088-.189-2.1.045-3.009.685-.909.64-1.471 1.513-1.66 2.602-.165 1.071.069 2.082.709 2.992.64.91 1.513 1.47 2.577 1.677Zm-.732-4.225a1.433 1.433 0 0 1 1.671-1.176 1.432 1.432 0 0 1 1.176 1.67 1.553 1.553 0 0 1-1.671 1.177 1.554 1.554 0 0 1-1.176-1.671Zm-29.459 43.247c1.678 2.384 3.966 3.86 6.855 4.362 2.89.502 5.493-.08 7.877-1.758 2.408-1.695 3.86-3.967 4.337-6.838.503-2.89-.115-5.542-1.792-7.926-1.696-2.408-3.967-3.86-6.856-4.362-2.865-.52-5.51.056-7.918 1.751-2.384 1.677-3.818 3.973-4.321 6.862-.477 2.872.123 5.5 1.818 7.909Zm11.826-1.525c-1.254.882-2.622 1.184-4.104.904-1.483-.279-2.687-1.049-3.569-2.302-.882-1.254-1.201-2.647-.963-4.137.22-1.514.965-2.7 2.219-3.583 1.253-.882 2.621-1.183 4.146-.896 1.507.262 2.711 1.032 3.593 2.285.882 1.253 1.201 2.646.939 4.153-.238 1.49-1.008 2.694-2.261 3.576Zm13.769-13.66 5.333-3.753-2.491-3.539-5.333 3.753-2.283-3.244 6.734-4.739-2.525-3.588-10.887 7.662 11.917 16.933 4.153-2.923-4.618-6.562Zm13.392-9.425 5.333-3.754-2.491-3.539-5.333 3.754-2.283-3.244 6.734-4.74-2.525-3.588-10.887 7.663 11.917 16.932 4.153-2.923-4.618-6.561Z" fill="#fff"/><path d="m146.611 76.668-.383-.495-.726.56.787.472.002.002.009.005.035.021.048.03.093.056c.123.077.304.19.534.336.46.293 1.113.72 1.884 1.25 1.543 1.064 3.55 2.542 5.417 4.21 1.875 1.677 3.57 3.509 4.531 5.275.961 1.763 1.123 3.315.231 4.61-2.497 3.597-7.638 6.02-12.294 7.545a59.135 59.135 0 0 1-7.892 1.977c-.221.039-.393.067-.508.086l-.131.02-.033.005-.008.001h-.001v.001h-.001l-.082.011-.076.033-74.762 32.328-11.936-31.137.047-.02 1.74-.732a8036.31 8036.31 0 0 0 26.349-11.143c15.17-6.45 32.007-13.676 38.625-16.764l.027-.013.027-.016c8.534-5.057 26.917-15.346 37.96-21.022h.001c.952-.492 2.268-.987 3.669-.89 1.363.093 2.893.751 4.305 2.732l.001.002c.252.35.323.879.083 1.678-.239.796-.757 1.752-1.507 2.822-1.496 2.135-3.813 4.586-6.261 6.92-2.442 2.328-4.989 4.516-6.928 6.123a151.07 151.07 0 0 1-3.024 2.443l-.175.137-.045.035-.011.008-.003.002h-.001l.383.496Z" fill="#F4AF89" stroke="#000" stroke-width="1.252"/><path d="M104.134 80.538C87.475 87.763 60.379 95.55 49.902 98.462a3.953 3.953 0 0 0-2.368 1.826 3.876 3.876 0 0 0-.393 2.938v.001l9.314 35.277.001.004c.153.59.442 1.137.846 1.597.404.46.912.821 1.483 1.054a4.004 4.004 0 0 0 3.546-.263l41.803-60.358Zm0 0c2.975 10.928 7.646 21.537 12.153 31.585l-12.153-31.585Z" fill="#5CAFCC" stroke="#000" stroke-width="1.252"/><path d="M114.283 115.914h-.001l-7.327 4.204a4.028 4.028 0 0 1-1.646.519 3.97 3.97 0 0 1-1.703-.22 4.155 4.155 0 0 1-1.484-.926 4.442 4.442 0 0 1-1.012-1.486l-1.387-3.322c-3.524-8.517-7.094-17.358-8.94-26.629a4.693 4.693 0 0 1 .325-2.837 4.358 4.358 0 0 1 1.873-2.04 2325.52 2325.52 0 0 0 8.148-4.46 4.01 4.01 0 0 1 3.632-.116c.576.268 1.09.672 1.502 1.182.412.51.71 1.114.871 1.766l.001.002c2.483 9.898 5.77 19.577 9.08 28.887l.001.001a4.683 4.683 0 0 1 .001 3.128 4.38 4.38 0 0 1-1.934 2.347Z" fill="#1C6377" stroke="#000" stroke-width="1.252"/><path d="M174.734 73.433c0 14.59-11.827 26.417-26.417 26.417-14.589 0-26.416-11.827-26.416-26.417 0-14.59 11.827-26.417 26.416-26.417 14.59 0 26.417 11.827 26.417 26.417Z" fill="#BBD8FF" stroke="#000" stroke-width="1.252"/><path d="m134.473 76.783-16.689 11.212-6.912-8.577 19.521-15.58a3.687 3.687 0 0 1 2.867-.76 3.714 3.714 0 0 1 2.5 1.607l.839 1.263a7.838 7.838 0 0 1 .013 8.68 7.764 7.764 0 0 1-2.139 2.155Z" fill="#F4AF89"/><path d="M110.039 79.258c3.12-1.04 20.353-15.42 20.353-15.42a3.683 3.683 0 0 1 2.867-.76 3.683 3.683 0 0 1 2.5 1.606l.84 1.264a7.837 7.837 0 0 1 1.169 5.863 7.846 7.846 0 0 1-1.156 2.817 7.768 7.768 0 0 1-2.14 2.155l-15.279 9.132" stroke="#000" stroke-width="1.252" stroke-linecap="round"/><circle cx="142.731" cy="72.758" r="2.878" transform="rotate(-19.82 142.731 72.758)" fill="#000"/><path d="M140.494 80.704v0c7.17 6.04 18.189 2.068 19.857-7.157v0M155.293 65.171l-4.44 4.66 5.489 1.081" stroke="#000" stroke-width="1.503" stroke-linecap="round" stroke-linejoin="round"/><path d="m261.031 139.88.388-.492h-.001l-.003-.002-.01-.009-.044-.035a147.573 147.573 0 0 1-3.129-2.582c-1.896-1.609-4.387-3.799-6.775-6.13-2.394-2.336-4.659-4.789-6.122-6.926-.733-1.072-1.24-2.029-1.473-2.827-.235-.803-.165-1.337.083-1.691l.001-.001c1.378-1.97 2.869-2.625 4.194-2.721 1.363-.099 2.646.388 3.577.878v.001c10.792 5.682 28.767 15.987 37.117 21.05l.026.016.028.013c10.628 5.086 48.409 21.423 61.383 27.018a4.44 4.44 0 0 1 2.4 5.633l-8.533 22.817-.001.002a4.446 4.446 0 0 1-5.943 2.482l-68.785-30.447-.077-.034-.083-.012h-.001l-.001-.001-.008-.001-.032-.005-.052-.008a49.776 49.776 0 0 1-2.397-.463 56.615 56.615 0 0 1-5.888-1.615c-4.55-1.529-9.572-3.954-12.01-7.553-.883-1.3-.725-2.86.213-4.625.938-1.768 2.596-3.601 4.431-5.279 1.828-1.67 3.792-3.151 5.303-4.216a61.112 61.112 0 0 1 2.368-1.587l.138-.087.034-.021.009-.005.002-.001v-.001l.765-.469-.704-.556-.388.492Z" fill="#DD9C74" stroke="#000" stroke-width="1.252"/><circle cx="256.262" cy="138.621" r="26.591" transform="rotate(41.089 256.262 138.621)" fill="#20AEBF" stroke="#000" stroke-width="1.233"/><path fill-rule="evenodd" clip-rule="evenodd" d="M260.91 124.941c.404.126.757.431.896.871.11.347.064.703.04.872a7.744 7.744 0 0 1-.152.743c-.098.394-.233.873-.377 1.381l-.136.481c-.397 1.415-.811 3.009-.907 4.351-.097 1.346.065 2.996.458 4.171.117.35.239.611.351.795l.038-.14.007-.024c.169-.613.42-1.526.905-2.321.502-.819 1.606-1.895 2.537-2.651.474-.384.979-.748 1.415-.977.196-.103.501-.246.842-.288a1.53 1.53 0 0 1 .82.12c.387.176.63.49.733.817.133.421.085.902.047 1.208-.046.365-.128.788-.212 1.206l-.047.232c-.161.802-.328 1.628-.385 2.378-.072.94.1 1.475.329 2.189.077.239.16.497.242.797.345 1.255.438 2.67-.408 5.05-1.82 5.117-8.296 7.529-14.186 6.351-2.815-.562-5.661-1.926-7.755-3.917-2.109-2.005-3.494-4.694-3.192-7.819.279-2.892 1.409-5.05 2.534-6.434.557-.685 1.134-1.206 1.635-1.533.238-.155.529-.313.841-.392.148-.038.412-.087.72-.023.37.075.774.316.973.763.097.218.134.444.153.583.022.162.036.341.046.517.011.193.02.433.03.682l.022.532c.042.906.123 1.861.359 2.631.038.127.079.245.12.355.113-.608.252-1.343.431-2.125.462-2.023 1.233-4.585 2.714-6.391 1.036-1.264 2.642-2.636 3.996-3.607.677-.484 1.339-.904 1.875-1.165.251-.122.567-.257.886-.311a1.64 1.64 0 0 1 .762.042Zm-2.025 3.302c-1.259.902-2.691 2.14-3.555 3.194-1.125 1.372-1.811 3.49-2.265 5.478a52.723 52.723 0 0 0-.439 2.179l-.075.401a16.72 16.72 0 0 1-.194.931 4.016 4.016 0 0 1-.118.393 1.618 1.618 0 0 1-.295.511c-.394.443-.976.625-1.558.524-.506-.087-.912-.363-1.202-.634-.594-.552-1.081-1.418-1.404-2.475-.3-.984-.397-2.084-.444-2.968l-.044.054c-.872 1.072-1.812 2.826-2.046 5.249-.221 2.291.769 4.316 2.467 5.931 1.713 1.629 4.106 2.79 6.498 3.268 5.096 1.019 10.104-1.171 11.418-4.866.709-1.993.575-2.946.362-3.721-.045-.163-.102-.34-.165-.531-.254-.778-.588-1.801-.48-3.215.058-.763.208-1.576.349-2.282-.692.614-1.303 1.267-1.543 1.659-.303.497-.485 1.122-.666 1.778l-.015.055a9.11 9.11 0 0 1-.269.867 2.355 2.355 0 0 1-.255.493 1.505 1.505 0 0 1-.716.564 2.483 2.483 0 0 1-1.44.1 2.598 2.598 0 0 1-1.182-.648c-.583-.545-.956-1.321-1.204-2.061-.506-1.514-.682-3.468-.569-5.041.114-1.594.592-3.389.983-4.787l.125-.442-.059.042Z" fill="#fff"/><path d="m276.66 139.885 15.82 10.551 6.56-8.062-18.511-14.653a3.509 3.509 0 0 0-4.062-.213c-.408.26-.758.602-1.028 1.004l-.801 1.194a7.323 7.323 0 0 0 2.022 10.179Z" fill="#DD9C74"/><path d="M288.624 148.444c-.802-.535-13.755-9.209-14.291-10.011a7.323 7.323 0 0 1-1.094-5.51 7.332 7.332 0 0 1 1.099-2.645l.801-1.194a3.51 3.51 0 0 1 3.806-1.435c.468.124.905.343 1.284.644l18.511 14.653" stroke="#000" stroke-width="1.252" stroke-linecap="round"/><path d="m297.58 178.384 15.79-29.544a3.756 3.756 0 0 1 4.632-1.746l38.435 14.413a3.757 3.757 0 0 1 2.181 4.881l-11.701 30.015a3.757 3.757 0 0 1-4.741 2.181L299.652 183.7a3.757 3.757 0 0 1-2.072-5.316Z" fill="#FDEB5A" stroke="#000" stroke-width="1.252" stroke-linecap="round"/><path d="m296.417 179.023 16.987-30.372a3.758 3.758 0 0 1 4.467-1.73l11.752 3.918a3.756 3.756 0 0 1 2.183 5.221l-15.397 31.306a3.757 3.757 0 0 1-4.655 1.873l-13.342-4.852a3.756 3.756 0 0 1-1.995-5.364Z" fill="#EAC432" stroke="#000" stroke-width="1.252" stroke-linecap="round"/><path d="M184.697 182.271c7.312-8.609 25.798-24.176 41.247-17.575" stroke="#000" stroke-width="1.252"/><path d="m113.078 132.635-.001.004-.283 1.471a4.81 4.81 0 0 1-2.217 3.192l-.743.453-.002.001h-.001v.004l.001.003v.001l.002.001.776.393a4.803 4.803 0 0 1 2.461 3.008l.398 1.444.001.004h.005l.004-.001.001-.004.284-1.47a4.8 4.8 0 0 1 2.217-3.192l.743-.453.002-.001v-.008m-3.648-4.85 3.648 4.85m-3.648-4.85H113.087m-.009 0h.009m3.639 4.85h-.001l-.002-.001-.776-.393a4.808 4.808 0 0 1-2.461-3.009l-.398-1.443-.001-.004m3.639 4.85-3.639-4.85" fill="#25F4EE" stroke="#000" stroke-width=".524" stroke-linejoin="round"/><path d="m212.877 175.82-.003.003-3.03 3.353a4.803 4.803 0 0 1-3.549 1.583l-3.053.009h-.003l-.002.003-.001.003m9.641-4.954-9.641 4.954m9.641-4.954.004.002.004.002m-.008-.004.001-.002-.003.001.002.001Zm0 0-8.706 15.747m-.935-10.793v.001l.001.002-.22.137.22-.137 1.616 2.59a4.804 4.804 0 0 1 .547 3.848l-1.228 4.348-.001.004m-.935-10.793.935 10.793m0 0-.001-.001.001.003v-.002Zm0 0a.014.014 0 0 0 .004.003l.004.002m0 0-.002.001.004-.001h-.002Zm0 0 .003-.003 3.03-3.353a4.803 4.803 0 0 1 3.549-1.583l3.053-.009h.002l.001-.001m0 0Zm0 0 .002-.002.001-.004m0 0-.001-.002-1.616-2.59a4.804 4.804 0 0 1-.547-3.848l1.228-4.349.001-.004m0 0 .001.002v-.001l-.001-.003v.002Z" fill="#FDEB5A" stroke="#000" stroke-width=".524" stroke-linejoin="round"/><circle cx="232.903" cy="166.599" r="2.504" fill="#FF7043"/><circle cx="101.424" cy="142.808" r="2.504" fill="#20AEBF"/><path d="M187.197 173.486c5.426-7.095 19.785-22.038 33.809-25.043M115.198 178.495c1.044-7.722 1.503-24.793-5.009-31.305" stroke="#000" stroke-width="1.252" stroke-dasharray="1.88 1.88"/></svg>