<svg viewBox="0 0 400 300" fill="none" xmlns="http://www.w3.org/2000/svg"><path d="M210.592 220.698c-6.398 3.306-12.283 7.877-17.939 12.78-2.6 2.254-5.157 4.583-7.694 6.894l-.669.609c-2.759 2.512-5.496 4.993-8.255 7.334-11.048 9.378-22.311 16.417-36.182 14.151-14.235-2.326-25.562-11.091-34.68-22.706-9.12-11.618-15.998-26.049-21.338-39.622-9.058-23.024-5.109-48.142 3.516-71.442 7.627-20.606 21.788-37.571 40.867-48.431 18.823-10.715 40.637-15.074 61.652-9.95 21.342 5.205 36.301 21.289 51.38 37.566 5.449 5.882 12.026 11.613 18.672 17.365l.714.617c6.421 5.556 12.873 11.14 18.452 16.934 11.583 12.03 19.267 24.83 15.163 39.966-4.102 15.133-17.703 20.973-34.081 24.842-4.085.965-8.328 1.805-12.624 2.637l-1.636.316c-3.759.726-7.548 1.457-11.284 2.272-8.556 1.864-16.878 4.17-24.034 7.868Z" fill="#FF7043" stroke="#000" stroke-width=".997"/><path d="M355.444 97.909a2.723 2.723 0 0 0-1.276-1.376c-.533-.285-1.115-.205-1.664.11-1.55.93-15.454 8.937-24.125 17.654-2.972-.068-5.943.581-8.721 1.919-13.307 7.327-22.106 27.284-22.494 28.054-.516 1.265-.096 2.878.986 3.565.436.298.937.348 1.324.295l.291-.041c.565-.197 1.001-.615 1.308-1.254 0 0 8.525-19.084 20.54-25.755.646-.328 1.211-.525 1.873-.736-3.633 5.873-2.809 10.415-.709 12.752 2.099 2.337 5.895 2.649 9.738.447 2.019-1.114 3.876-2.683 5.507-4.46 4.133-4.391 3.552-7.892 2.373-9.997-1.18-2.106-3.505-3.218-5.573-3.887 6.298-5.167 12.871-9.774 19.734-13.706.549-.314.872-.836 1.082-1.462.097-.73 0-1.433-.194-2.122Zm-20.54 27.187c-4.65 4.939-8.365 5.213-9.302 4.148-.468-.532-.468-2.681 1.55-5.944.904-1.318 1.825-2.52 2.858-3.617 3.279.144 5.976 1.085 6.622 2.19.242.325-.274 1.59-1.728 3.223ZM196.284 42.811a8.41 8.41 0 1 1-16.623 2.571 8.41 8.41 0 0 1 16.623-2.57ZM263.894 209.029a8.41 8.41 0 1 1-16.624 2.57 8.41 8.41 0 0 1 16.624-2.57Z" fill="#FE5274" stroke="#000" stroke-width=".997"/><path d="M173.862 66.36a7.343 7.343 0 1 1-14.513 2.245 7.343 7.343 0 1 1 14.513-2.245Z" fill="#fff" stroke="#000" stroke-width=".997"/><path d="M252.818 58.811c.12-.513.851-.513.971 0l1.269 5.425a17.394 17.394 0 0 0 8.476 11.237l2.829 1.575a.499.499 0 0 1 0 .871l-2.829 1.575a17.394 17.394 0 0 0-8.476 11.236l-1.269 5.425c-.12.514-.851.514-.971 0l-1.269-5.425a17.394 17.394 0 0 0-8.476-11.236l-2.829-1.575a.499.499 0 0 1 0-.871l2.829-1.575a17.394 17.394 0 0 0 8.476-11.237l1.269-5.425ZM278.963 80.115c.091-.378.629-.378.72 0l.126.523a14.017 14.017 0 0 0 6.956 9.048.3.3 0 0 1 0 .527 14.018 14.018 0 0 0-6.956 9.048l-.126.523c-.091.378-.629.378-.72 0l-.126-.523a14.015 14.015 0 0 0-6.956-9.048.3.3 0 0 1 0-.527 14.014 14.014 0 0 0 6.956-9.048l.126-.523ZM316.158 175.406c.091-.379.63-.379.721 0l.125.522a14.02 14.02 0 0 0 6.956 9.049.299.299 0 0 1 0 .526 14.017 14.017 0 0 0-6.956 9.049l-.125.522c-.091.379-.63.379-.721 0l-.125-.522a14.017 14.017 0 0 0-6.956-9.049.299.299 0 0 1 0-.526 14.02 14.02 0 0 0 6.956-9.049l.125-.522Z" fill="#FDEB5A" stroke="#000" stroke-width=".997" stroke-linejoin="round"/><path d="M277.132 108.49a.194.194 0 0 1 .07-.118.22.22 0 0 1 .127-.038.22.22 0 0 1 .126.038c.026.02.055.053.07.118l.101.441a11.337 11.337 0 0 0 5.456 7.323.14.14 0 0 1 0 .245 11.337 11.337 0 0 0-5.456 7.323l-.101.441a.188.188 0 0 1-.07.118.212.212 0 0 1-.126.039.213.213 0 0 1-.127-.039.188.188 0 0 1-.07-.118l-.101-.441a11.337 11.337 0 0 0-5.456-7.323.14.14 0 0 1 0-.245 11.337 11.337 0 0 0 5.456-7.323l.101-.441Z" fill="#8021F3" stroke="#000" stroke-width=".997" stroke-linejoin="round"/><path d="M96.72 39.336c15.291 5.818 46.273 24.134 47.869 50.862M260.695 49.237c-18.76 10.49-55.862 26.975-54.191 8.991 2.088-22.48 37.955 8.027 10.18 41.505" stroke="#000" stroke-width=".997" stroke-dasharray="1.99 1.99"/><rect x="123.747" y="148.457" width="144.605" height="82.774" rx="7.978" transform="rotate(-19.822 123.747 148.457)" fill="#000"/><path d="M175.69 148.274c-1.421.705-2.444 1.677-3.058 2.942-.591 1.256-.641 2.565-.142 3.95.576 1.522 2.018 3.693 6.152 3.356l2.205-.053c1.11-.044 1.853.265 1.996.433.059.089.127.202.179.347.351.972-.38 1.84-1.522 2.251-1.336.482-2.229.062-2.652-.883l-4.107 1.48c1.043 2.891 3.76 4.108 7.106 3.259l1.042 2.892 1.871-.674-1.051-2.916c1.405-.671 2.469-1.604 3.183-2.822.714-1.219.804-2.569.253-4.1-.885-2.454-3.053-3.594-6.481-3.43l-2.138.085c-1.159.06-1.827-.193-2.046-.801-.289-.802.199-1.581 1.292-1.975 1.167-.421 1.934-.121 2.31.924l4.058-1.463c-1.042-2.891-3.612-4.079-6.571-3.452l-.963-2.673-1.871.675.955 2.648ZM211.87 162.128c.497 1.378.263 2.89-.681 4.593-.886 1.682-2.345 2.857-4.297 3.561-2.298.828-4.915.408-7.873-1.316l-5.259 7.736c2.317 1.566 5.027 2.601 7.972 3.032 2.946.431 5.701.152 8.285-.78 4.882-1.759 8.254-4.467 10.211-8.222 1.956-3.755 2.207-7.74.717-11.875-1.387-3.848-3.732-6.572-6.936-8.078-3.203-1.506-6.567-1.657-9.956-.435-2.584.931-4.691 2.469-6.204 4.572l-1.038-5.401 15.622-5.631-2.878-7.983-22.858 8.238 4.383 21.524 4.77.811c1.669-3.652 4.294-6.09 7.855-7.374 3.676-1.325 6.985-.246 8.165 3.028Z" fill="#fff"/><path d="M177.601 191.67c14.46 5.319 48.068 7.879 66.817-24.433" stroke="#FF7043" stroke-width="5.984" stroke-linecap="round" stroke-linejoin="round"/><mask id="a" fill="#fff"><path d="m103.366 110.822 9.416-3.007c.525-.259 1.071-.463 1.672-.688 11.848-4.43 31.774-8.395 45.682 8.996.696.86 1.411 1.775 1.922 2.642.552.976.933 1.829 1.307 2.996l6.951 22.918c1.047 3.466-.799 7.019-4.068 7.93-3.05.83-6.248-.899-7.392-3.957l.837 2.737c1.109 3.63-.73 7.367-3.999 8.278-2.593.721-5.369-.544-6.84-2.981l-.824-1.87c.19.676.49 1.31.824 1.87l.775 2.573c1.108 3.631-.73 7.368-3.999 8.279-2.757.782-5.615-.702-7.038-3.343.938 3.507-.887 7.115-4.101 8.006-3.215.89-6.631-1.255-7.664-4.852l-3.896-13.915-13.503 8.16-3.243 1.648c-6.006 2.246-12.506.507-16.61-3.809l-11.142 3.809 1.996-13.525 2.42-9.281a100.73 100.73 0 0 1 6.831-18.524l3.65-7.529 10.036-3.561Z"/></mask><path d="m103.366 110.822 9.416-3.007c.525-.259 1.071-.463 1.672-.688 11.848-4.43 31.774-8.395 45.682 8.996.696.86 1.411 1.775 1.922 2.642.552.976.933 1.829 1.307 2.996l6.951 22.918c1.047 3.466-.799 7.019-4.068 7.93-3.05.83-6.248-.899-7.392-3.957l.837 2.737c1.109 3.63-.73 7.367-3.999 8.278-2.593.721-5.369-.544-6.84-2.981l-.824-1.87c.19.676.49 1.31.824 1.87l.775 2.573c1.108 3.631-.73 7.368-3.999 8.279-2.757.782-5.615-.702-7.038-3.343.938 3.507-.887 7.115-4.101 8.006-3.215.89-6.631-1.255-7.664-4.852l-3.896-13.915-13.503 8.16-3.243 1.648c-6.006 2.246-12.506.507-16.61-3.809l-11.142 3.809 1.996-13.525 2.42-9.281a100.73 100.73 0 0 1 6.831-18.524l3.65-7.529 10.036-3.561Z" fill="#FBB793"/><path d="m103.366 110.822-.334-.94.015-.006.015-.004.304.95Zm9.416-3.007.44.895-.066.032-.071.023-.303-.95Zm47.354 8.308-.775.627-.003-.004.778-.623Zm1.922 2.642.859-.506.005.008.004.007-.868.491Zm1.307 2.996.95-.304.002.008.002.007-.954.289Zm6.951 22.918.954-.29v.001l-.954.289Zm-4.068 7.93.268.961-.006.002-.262-.963Zm-7.392-3.957-.953.291a.996.996 0 0 1 1.888-.64l-.935.349Zm.837 2.737.954-.292-.954.292Zm-3.999 8.278.268.961h-.001l-.267-.961Zm-7.664-4.851-.96.27a.997.997 0 0 1 1.873-.672l-.913.402Zm1.599 4.443-.954.291-.001-.003.955-.288Zm-3.999 8.279-.272-.96.004-.001.268.961Zm-7.038-3.343-.964.257a.998.998 0 0 1 1.842-.73l-.878.473Zm-11.765 3.154-.959.276-.002-.007.961-.269Zm-3.896-13.915-.516-.854 1.122-.678.354 1.263-.96.269Zm-13.503 8.16.515.854-.031.019-.032.016-.452-.889Zm-3.243 1.648.452.889-.05.026-.052.02-.35-.935Zm-16.61-3.809-.322-.944.605-.207.44.464-.722.687Zm-11.142 3.809.323.944-1.548.529.239-1.618.986.145Zm14.898-48.859-.898-.435.179-.368.385-.137.334.94Zm-12.902 35.334-.987-.146.008-.053.014-.053.965.252Zm9.251-27.805.897.435-.897-.435Zm-6.83 18.524-.966-.251.965.251Zm20.212-30.564 9.416-3.007.607 1.9-9.416 3.007-.607-1.9Zm9.279-2.952c.578-.284 1.172-.505 1.764-.727l.698 1.869c-.609.227-1.107.415-1.581.648l-.881-1.79Zm1.764-.727c11.918-4.456 32.463-8.633 46.81 9.307l-1.557 1.246c-13.469-16.841-32.776-13.088-44.555-8.684l-.698-1.869Zm46.807 9.303c.693.858 1.452 1.825 2.005 2.763l-1.718 1.012c-.469-.796-1.141-1.659-1.838-2.521l1.551-1.254Zm2.014 2.778c.585 1.035.993 1.95 1.389 3.183l-1.9.609a13.936 13.936 0 0 0-1.225-2.81l1.736-.982Zm1.393 3.198 6.951 22.917-1.909.579-6.95-22.917 1.908-.579Zm6.951 22.918c1.194 3.952-.897 8.105-4.754 9.18l-.535-1.921c2.681-.747 4.281-3.7 3.38-6.682l1.909-.577Zm-4.76 9.182c-3.58.973-7.276-1.063-8.588-4.571l1.869-.698c.975 2.607 3.675 4.029 6.196 3.344l.523 1.925Zm-6.7-5.212.837 2.737-1.908.583-.836-2.737 1.907-.583Zm.837 2.737c1.244 4.076-.789 8.445-4.685 9.531l-.536-1.921c2.641-.736 4.286-3.841 3.313-7.027l1.908-.583Zm-4.686 9.531c-3.084.857-6.292-.661-7.961-3.426l1.707-1.031c1.274 2.109 3.617 3.12 5.72 2.536l.534 1.921Zm-8.02-3.54-.824-1.87 1.826-.804.823 1.87-1.825.804Zm1.049-2.543c.161.573.42 1.127.72 1.63l-1.713 1.022a8.844 8.844 0 0 1-.927-2.111l1.92-.541Zm.818 1.853.776 2.573-1.91.576-.775-2.573 1.909-.576Zm.775 2.57c1.244 4.075-.789 8.445-4.686 9.531l-.535-1.922c2.641-.736 4.286-3.841 3.313-7.027l1.908-.582Zm-4.681 9.529c-3.292.934-6.588-.859-8.188-3.829l1.756-.946c1.246 2.313 3.666 3.487 5.888 2.856l.544 1.919Zm-6.347-4.56c1.056 3.948-.972 8.165-4.798 9.225l-.533-1.922c2.603-.722 4.225-3.72 3.404-6.788l1.927-.515Zm-4.798 9.225c-3.835 1.062-7.732-1.513-8.889-5.537l1.917-.551c.911 3.168 3.845 4.884 6.439 4.166l.533 1.922Zm-8.891-5.544-3.896-13.915 1.921-.538 3.896 13.915-1.921.538Zm-2.419-13.331-13.504 8.161-1.031-1.707 13.503-8.161 1.032 1.707Zm-13.567 8.196-3.243 1.648-.904-1.778 3.243-1.648.904 1.778Zm-3.345 1.694c-6.395 2.39-13.313.538-17.682-4.057l1.446-1.374c3.837 4.037 9.919 5.663 15.537 3.562l.699 1.869Zm-16.636-3.8-11.143 3.809-.645-1.887 11.142-3.81.645 1.888Zm3.098-46.934 10.035-3.561.667 1.879-10.035 3.562-.667-1.88Zm-4.214 8.034 3.65-7.529 1.795.87-3.65 7.529-1.795-.87Zm-11.336 41.62 1.995-13.526 1.973.292-1.995 13.525-1.973-.291Zm2.017-13.632 2.42-9.28 1.93.503-2.42 9.281-1.93-.504Zm11.113-27.118a99.759 99.759 0 0 0-6.763 18.341l-1.93-.503a101.719 101.719 0 0 1 6.899-18.708l1.794.87Z" fill="#000" mask="url(#a)"/><path d="M150.877 124.363s4.151 10.272 7.659 24.146M140.904 132.341s4.152 10.272 7.659 24.146M130.931 140.319s4.152 10.272 7.659 24.146" stroke="#000" stroke-width=".997" stroke-miterlimit="10" stroke-linecap="round"/></svg>