<svg viewBox="0 0 400 300" fill="none" xmlns="http://www.w3.org/2000/svg"><g clip-path="url(#a)"><path d="M195.211 51.428c-1.67-2.005-2.31-3.999-2.247-5.904.351-10.5 16.791-13.895 27.204-12.507 12.273 1.637 16.365 9.82 21.274 26.593 4.91 16.774-9.001 27.412-21.274 10.638-4.455-6.089-16.774-9.001-24.957-18.82Z" fill="#45D2E3" stroke="#000" stroke-width=".816" stroke-linecap="round" stroke-linejoin="round"/><path fill-rule="evenodd" clip-rule="evenodd" d="M111.393 99.8c16.265-20.787 35.343-43.482 61.711-44.645 25.286-1.116 39.977 26.095 61.628 39.203 26.697 16.162 66.789 16.074 77.868 45.249 11.839 31.177-2.665 68.454-25.44 92.815-21.174 22.65-54.647 24.574-85.62 25.984-27.271 1.241-54.42-2.62-76.552-18.602-22.613-16.331-40.535-40.138-43.231-67.901-2.611-26.887 12.99-50.828 29.636-72.103Z" fill="#0C9CAD"/><mask id="b" style="mask-type:alpha" maskUnits="userSpaceOnUse" x="81" y="54" width="237" height="206"><path fill-rule="evenodd" clip-rule="evenodd" d="M111.393 99.8c16.265-20.787 35.343-43.483 61.711-44.646 25.286-1.116 39.977 26.095 61.628 39.203 26.697 16.163 66.789 16.074 77.868 45.25 11.839 31.176-2.665 68.453-25.44 92.815-21.174 22.649-54.647 24.573-85.62 25.983-27.271 1.241-54.42-2.62-76.552-18.602-22.613-16.331-40.535-40.138-43.231-67.901-2.611-26.887 12.99-50.828 29.636-72.103Z" fill="#1C6264" stroke="#000" stroke-width=".816"/></mask><g mask="url(#b)"><path d="M210.143 281.527 44.596-40.043l-76.654 84.251 242.201 237.319Z" fill="#45D2E3"/><path d="m183.96 281.527 165.546-321.57 76.654 84.251-242.2 237.319Z" fill="#45D2E3"/><path d="m-48.423 194.596 259.384 82.021L17.065 83.512l-65.488 111.084Z" fill="#AEF6FF"/><path d="m442.525 194.596-259.383 82.021L377.037 83.512l65.488 111.084Z" fill="#AEF6FF"/></g><path clip-rule="evenodd" d="M111.393 99.8c16.265-20.787 35.343-43.482 61.711-44.645 25.286-1.116 39.977 26.095 61.628 39.203 26.697 16.162 66.789 16.074 77.868 45.249 11.839 31.177-2.665 68.454-25.44 92.815-21.174 22.65-54.647 24.574-85.62 25.984-27.271 1.241-54.42-2.62-76.552-18.602-22.613-16.331-40.535-40.138-43.231-67.901-2.611-26.887 12.99-50.828 29.636-72.103Z" stroke="#000" stroke-width=".816"/><path fill="#fff" stroke="#000" stroke-width=".816" d="m166.524 188.512-13.339-24.255-5.493 3.02 13.339 24.256z"/><circle cx="177.411" cy="172.703" r="10.229" fill="#25F4EE" stroke="#000" stroke-width=".816" stroke-linejoin="round"/><circle cx="207.277" cy="99.468" r="9.002" fill="#FF7043" stroke="#000" stroke-width=".816" stroke-linejoin="round"/><path fill="#25F4EE" stroke="#000" stroke-width=".816" d="m192.913 238.21-16.82-30.587-5.494 3.02 16.82 30.588z"/><path fill="#8021F3" stroke="#000" stroke-width=".816" d="m139.262 135.229-24.523-44.592-5.493 3.02 24.523 44.593z"/><path fill="#FE5274" stroke="#000" stroke-width=".816" d="m182.949 246.326-21.577-23.955-4.658 4.195 21.577 23.956z"/><path fill="#FDEB5A" stroke="#000" stroke-width=".816" d="m121.206 185.452-22.022-24.45-4.658 4.196 22.022 24.45z"/><path fill="#25F4EE" stroke="#000" stroke-width=".816" d="m90.932 153.542-22.022-24.45-4.658 4.196 22.022 24.45z"/><path d="m163.037 220.142 18.198-5.33a5.37 5.37 0 0 1 5.796 1.917l.231.305a8.154 8.154 0 0 1 1.362 3.791l.015.16a7.088 7.088 0 0 1-4.099 6.477l-10.707 4.978a9.996 9.996 0 0 0-5.729 8.046l-.494 4.834-.095.929a25.011 25.011 0 0 1-3.196 9.916l-1.645-.344a111.167 111.167 0 0 1-30.267-11.111l1.369-3.188a35.35 35.35 0 0 0 2.451-19.378l-.124-.803a12.618 12.618 0 0 0-3.401-6.839l-11.21-11.584a5.206 5.206 0 0 1-.9-5.98 3.34 3.34 0 0 1 3.317-1.808l.413.042c.487.05.965.167 1.421.348l1.057.421.871-1.158a5.347 5.347 0 0 1 8.468-.104l2.376 3.004.784-1.571a4.246 4.246 0 0 1 1.516-1.682l.041-.026a4.994 4.994 0 0 1 1.957-.728 5.184 5.184 0 0 1 5.623 3.365l6.961 19.228a6.259 6.259 0 0 0 7.64 3.873Z" fill="#FBB793" stroke="#000" stroke-width=".816" stroke-linejoin="round"/><path d="M159.096 223.723c-3.065.302-9.35-.471-15.041-7.799-4.611-5.936-11.209-15.615-16.849-19.602" stroke="#000" stroke-width=".816" stroke-linecap="round"/><path d="M138.406 197.252c2.134 4.302 6.557 13.473 7.182 15.745" stroke="#000" stroke-width=".816" stroke-linecap="round"/><path fill="#FF7043" stroke="#000" stroke-width=".816" d="m197.602 247.329 22.374-40.685 5.493 3.021-22.374 40.685zM260.608 119.843l20.14-36.622 5.493 3.02-20.14 36.623z"/><path fill="#8021F3" stroke="#000" stroke-width=".816" d="m224.604 193.324 15.536-28.25 5.493 3.02-15.536 28.25z"/><path fill="#FDEB5A" stroke="#000" stroke-width=".816" d="m262.095 193.861 21.577-23.955 4.658 4.195-21.577 23.956z"/><path fill="#fff" stroke="#000" stroke-width=".816" d="m290.904 164.312 25.555-28.372 4.658 4.196-25.555 28.372z"/><path d="m237.498 219.648-18.657-5.539a5.37 5.37 0 0 0-5.803 1.896l-.286.376a8.336 8.336 0 0 0-1.407 3.869l-.016.163a7.244 7.244 0 0 0 4.166 6.635l11.037 5.182a9.994 9.994 0 0 1 5.699 8.066l.5 5.067.193 1.961a16.728 16.728 0 0 0 2.991 8.02l6.081-.967a92.182 92.182 0 0 0 22.951-6.799l3.698-1.644-1.931-4.978a35.344 35.344 0 0 1-1.954-18.339l.275-1.731a12.61 12.61 0 0 1 3.426-6.825l11.562-11.861a5.321 5.321 0 0 0 .941-6.108 3.414 3.414 0 0 0-3.383-1.861l-.422.042a5.43 5.43 0 0 0-1.453.35l-1.083.427-.885-1.187a5.465 5.465 0 0 0-8.654-.139l-2.44 3.062-.796-1.608a4.323 4.323 0 0 0-1.543-1.725l-.042-.027a5.104 5.104 0 0 0-1.996-.751 5.297 5.297 0 0 0-5.759 3.417l-7.187 19.626a6.394 6.394 0 0 1-7.823 3.93Z" fill="#FBB793" stroke="#000" stroke-width=".816" stroke-linejoin="round"/><path d="M239.281 219.967c3.088.61 9.558.445 16.072-6.445 5.277-5.582 12.948-14.775 19.079-18.273" stroke="#000" stroke-width=".816" stroke-linecap="round"/><path d="M263.079 196.368c-2.596 4.165-8.003 13.056-8.864 15.306" stroke="#000" stroke-width=".816" stroke-linecap="round"/><rect x="133.777" y="96.604" width="134.297" height="76.873" rx="6.525" transform="rotate(.153 133.777 96.604)" fill="#000"/><path d="M173.799 146.707c10.935 9.23 39.457 22.126 66.073-.129" stroke="#FF7043" stroke-width="4.894" stroke-linecap="round" stroke-linejoin="round"/><path d="M157.985 116.153c-.896.102-1.63.425-2.202.983-.558.558-.837 1.248-.837 2.085.015.925.367 2.364 2.642 2.98l1.19.397c.601.19.939.499.983.616.015.059.03.132.03.22 0 .588-.558.911-1.248.911-.808 0-1.204-.397-1.248-.984h-2.481c0 1.747 1.218 2.921 3.171 3.112v1.747h1.13v-1.761c.881-.088 1.63-.382 2.246-.896.617-.514.925-1.218.925-2.143 0-1.483-.939-2.511-2.804-3.083l-1.16-.367c-.631-.191-.939-.455-.939-.822 0-.485.411-.808 1.072-.808.704 0 1.057.308 1.057.94h2.451c0-1.747-1.145-2.878-2.848-3.113v-1.615h-1.13v1.601ZM167.353 121.508l3.377-1.527v13.096h4.786v-19.702l-8.163 4.111v4.022Zm12.904 15.18c2.672-2.261 4.023-4.991 4.023-8.25h-4.14c0 1.673-.177 3.024-.558 3.993-.353.969-.94 1.996-1.733 3.083l2.408 1.174Zm12.079-13.213c0-3.2.822-5.402 2.613-5.402 1.674 0 2.496 1.791 2.496 5.402 0 3.553-.822 5.344-2.496 5.344-1.791 0-2.613-2.172-2.613-5.344Zm-4.698 0c0 6.578 2.437 9.866 7.311 9.866 4.786 0 7.194-3.288 7.194-9.866 0-2.936-.44-5.167-1.497-7.046-1.028-1.88-2.995-2.907-5.697-2.907-4.874 0-7.311 3.318-7.311 9.953Zm22.418 0c0-3.2.823-5.402 2.614-5.402 1.673 0 2.495 1.791 2.495 5.402 0 3.553-.822 5.344-2.495 5.344-1.791 0-2.614-2.172-2.614-5.344Zm-4.697 0c0 6.578 2.437 9.866 7.311 9.866 4.786 0 7.193-3.288 7.193-9.866 0-2.936-.44-5.167-1.497-7.046-1.028-1.88-2.995-2.907-5.696-2.907-4.874 0-7.311 3.318-7.311 9.953Zm22.418 0c0-3.2.822-5.402 2.613-5.402 1.674 0 2.496 1.791 2.496 5.402 0 3.553-.822 5.344-2.496 5.344-1.791 0-2.613-2.172-2.613-5.344Zm-4.698 0c0 6.578 2.437 9.866 7.311 9.866 4.786 0 7.194-3.288 7.194-9.866 0-2.936-.441-5.167-1.498-7.046-1.027-1.88-2.995-2.907-5.696-2.907-4.874 0-7.311 3.318-7.311 9.953Z" fill="#fff"/><path d="m135.674 86.049-.001.006-.999 4.012a7.473 7.473 0 0 1-3.786 4.815l-2.494 1.305-.002.001-.001.001h-.001m7.284-10.14L128.39 96.2m7.284-10.152.007-.001h.007a.01.01 0 0 1 .002.007l.999 4.012a7.473 7.473 0 0 0 3.786 4.815l2.494 1.305.002.001.001.001h.001v.002l.001.004-.001.004v.002l-7.299-10.152Zm-7.284 10.14v.002l-.001.004.001.004v.002m0 0Zm7.284 10.141-.001-.001h-.001a.014.014 0 0 1 .004.003l-.001-.002h-.001Z" fill="#25F4EE" stroke="#000" stroke-width=".816" stroke-linejoin="round"/><path d="m258.41 60.694-.001.006-1.657 6.709a7.47 7.47 0 0 1-3.768 4.817l-4.314 2.276c-.002 0-.003.001-.003.002h-.001m9.744-13.81-9.744 13.821m9.744-13.82.007-.002.007.001a.01.01 0 0 1 .002.006l1.657 6.709a7.47 7.47 0 0 0 3.768 4.817l4.314 2.276c.002 0 .003.001.003.002h.001l.001.002v.008l-.001.001-9.759-13.82Zm-9.744 13.81h-.001V74.515l.001.001m0 0Zm9.744 13.81h-.002l.004.003-.002-.002Z" fill="#FDEB5A" stroke="#000" stroke-width=".816" stroke-linejoin="round"/><path d="m108.67 134.382-.002.006-.377 1.567a7.47 7.47 0 0 1-3.708 4.823l-.762.413-.003.002-.001.001m4.853-6.812-4.853 6.823m4.853-6.823.007-.001.007.001.002.006.377 1.567a7.47 7.47 0 0 0 3.707 4.823l.763.413a.012.012 0 0 1 .003.002l.001.001m-4.867-6.812 4.867 6.812m-9.72 0Zm0 0-.001.005.001.006m0 0h.001l.003.002.762.413a7.47 7.47 0 0 1 3.708 4.823l.377 1.567.002.007m-4.853-6.812 4.853 6.812m0 0h.014l.002-.007.377-1.567a7.47 7.47 0 0 1 3.707-4.823l.763-.413.003-.002h.001l-4.867 6.812Zm4.867-6.823Z" fill="#fff" stroke="#000" stroke-width=".816" stroke-linejoin="round"/><path d="M77.58 72.195a.096.096 0 0 0-.002.007l-.594 2.469a7.471 7.471 0 0 1-3.707 4.823l-1.365.738a.043.043 0 0 0-.003.002l-.001.006v.006m5.672-8.05-5.671 8.05m5.67-8.05.008-.001h.007m-.014 0h.014m-5.685 8.05v.001l.003.002 1.364.738a7.471 7.471 0 0 1 3.708 4.823l.594 2.47.002.006m-5.671-8.04 5.67 8.04m0 0a.033.033 0 0 0 .015 0 .04.04 0 0 0 .002-.006l.594-2.47a7.471 7.471 0 0 1 3.707-4.823l1.364-.738a.018.018 0 0 0 .004-.002l.001-.006v-.005m-5.686 8.05 5.685-8.05m0 0v-.001l-.004-.002-1.364-.738a7.471 7.471 0 0 1-3.707-4.823l-.594-2.47a.04.04 0 0 0-.002-.006m5.671 8.04-5.671-8.04M266.593 159.693l-.001.006-.999 4.012a7.474 7.474 0 0 1-3.786 4.816l-2.494 1.304-.002.002h-.001l-.001.001m7.284-10.141-7.284 10.152m7.284-10.152.007-.001.007.001.002.006.999 4.012a7.471 7.471 0 0 0 3.786 4.816l2.494 1.304.002.001.001.001.001.001v.001l.001.004-.001.005v.001l-7.299-10.152Zm-7.284 10.141v.001l-.001.004.001.005v.001m0 0Zm7.284 10.141h-.002c.002 0 .003.002.004.003l-.001-.002-.001-.001Z" fill="#FF7043" stroke="#000" stroke-width=".816" stroke-linejoin="round"/><circle cx="292.374" cy="103.559" r="4.911" fill="#25F4EE" stroke="#000" stroke-width=".816" stroke-linejoin="round"/><circle cx="325.924" cy="97.831" r="1.638" fill="#25F4EE" stroke="#000" stroke-width=".816" stroke-linejoin="round"/><circle cx="109.904" cy="123.199" r="6.547" fill="#FF7043" stroke="#000" stroke-width=".816" stroke-linejoin="round"/><circle cx="287.875" cy="152.245" r="3.683" fill="#8021F3" stroke="#000" stroke-width=".816" stroke-linejoin="round"/><path d="M291.965 135.882c2.591-8.182 12.192-26.838 29.866-36.003" stroke="#000" stroke-width=".816"/><path d="M81.998 89.24c6.818 6.478 19.089 26.262 13.63 53.573M283.784 186.204c7.364-2.046 22.666-4.909 24.957 0 2.864 6.137-20.047 7.364 0-24.138" stroke="#000" stroke-width=".816" stroke-dasharray="1.22 1.22"/></g><defs><clipPath id="a"><path fill="#fff" d="M0 0h400v300H0z"/></clipPath></defs></svg>