<svg viewBox="0 0 400 300" fill="none" xmlns="http://www.w3.org/2000/svg"><mask id="a" style="mask-type:alpha" maskUnits="userSpaceOnUse" x="31" y="31" width="338" height="238"><path d="M368.9 31H31v237.9h337.9V31Z" fill="#fff"/></mask><g mask="url(#a)" fill-rule="evenodd" clip-rule="evenodd"><path d="M307.9 80.9c-.2 2.9-.7 6.8-2.5 9.2-.4.5.1 1.3.7 1.1 4.2-1.2 12-4.1 16.2-10.3h37.5c1.9 0 3.5-1.6 3.5-3.5V44.7c-.1-1.9-1.6-3.5-3.6-3.5h-59.3c-1.9 0-3.5 1.6-3.5 3.5v32.7c0 1.9 1.6 3.5 3.5 3.5h7.5Z" fill="#F5F5F5"/><path d="M353.7 53.5c0-.8-.7-1.5-1.5-1.5h-42.7c-.8 0-1.5.7-1.5 1.5s.7 1.5 1.5 1.5h42.7c.9 0 1.5-.7 1.5-1.5ZM353.7 65.2c0-.8-.7-1.5-1.5-1.5h-42.7c-.8 0-1.5.7-1.5 1.5s.7 1.5 1.5 1.5h42.7c.9 0 1.5-.7 1.5-1.5ZM162.698 37.4v49.5c0 2.6 2 4.6 4.5 4.6h57.4c2.5-.1 4.5-2.1 4.5-4.6V37.4c0-3-2.4-5.4-5.4-5.4h-55.8c-3 0-5.4 2.4-5.2 5.4Z" fill="#fff"/><path d="M230.2 86.9V37.4c0-3.5-2.9-6.4-6.4-6.4H168c-3.5 0-6.4 2.9-6.4 6.4v49.4c0 3.1 2.4 5.6 5.5 5.6h57.4c3.1 0 5.5-2.5 5.7-5.5Zm-66.7-49.5v49.5c0 2 1.6 3.6 3.5 3.6h57.4c2 0 3.6-1.6 3.6-3.6V37.4c0-2.4-2-4.4-4.4-4.4h-55.7c-2.4 0-4.4 2-4.4 4.4Z" fill="#EDEDED"/><path d="M162.597 37.4v8.2h66.5v-8.2c0-3-2.4-5.4-5.4-5.4h-55.8c-3 0-5.4 2.4-5.3 5.4Z" fill="#EBEBEB"/><path d="M170.9 37c-1.3 0-2.4 1.1-2.4 2.4 0 1.4 1.1 2.5 2.4 2.5 1.4 0 2.5-1.1 2.5-2.4 0-1.4-1.1-2.5-2.5-2.5ZM178.3 37c-1.3 0-2.4 1.1-2.4 2.4 0 1.4 1.1 2.5 2.4 2.5 1.4 0 2.5-1.1 2.5-2.4 0-1.4-1-2.5-2.5-2.5ZM185.8 37c-1.3 0-2.4 1.1-2.4 2.4 0 1.4 1.1 2.5 2.4 2.5 1.4 0 2.5-1.1 2.5-2.4 0-1.4-1.1-2.5-2.5-2.5Z" fill="#fff"/><path d="M181.3 58.2v21.7c0 2.2 1.8 4 4 4h21.6c2.2 0 4-1.8 4-4V58.3c0-2.2-1.8-4-4-4h-21.6c-2.2 0-4 1.7-4 3.9Z" fill="#F5F5F5"/><path d="M184.2 83.897H208c1.6 0 2.9-1.3 2.9-2.9v-9l-6.9-6.4c-.8-.7-2-.7-2.7.1v.1l-5.4 6.2-5.3-2.5c-1-.5-2.1-.3-2.9.4l-6.4 5.5v5.6c0 1.6 1.3 2.9 2.9 2.9ZM194.7 59.4c-1.5 0-2.7 1.2-2.7 2.7 0 1.5 1.2 2.7 2.7 2.7 1.5 0 2.7-1.2 2.7-2.7 0-1.5-1.2-2.7-2.7-2.7Z" fill="#EBEBEB"/><path d="m65.2 164.4.9-4.3c1.5-.4 2.9-1.1 4.3-1.9l3.7 2.3 5-5.2-2.4-3.7c.7-1.4 1.3-2.9 1.7-4.4l4.3-1.1-.1-7.2-4.3-.9c-.5-1.5-1.1-2.9-1.9-4.3l2.3-3.7-5.2-5-3.7 2.4c-1.4-.7-2.9-1.3-4.4-1.7l-1-4.3-7.3.1-.9 4.3c-1.5.4-2.9 1.1-4.3 1.9l-3.8-2.2-5 5.2 2.4 3.7c-.7 1.4-1.3 2.9-1.7 4.4l-4.3 1 .1 7.2 4.5.8c.4 1.5 1.1 2.9 1.9 4.3l-2.3 3.8 5.2 5 3.7-2.4c1.4.7 2.9 1.3 4.4 1.7l1 4.3 7.2-.1Zm-9.299-15.999c3.1 3 8 2.9 11-.2s2.9-8-.2-11c-3-3-7.9-2.9-11 .2-3 3.1-2.9 8 .2 11Z" fill="#F5F5F5"/><path d="M183.4 206.5V81.8c0-4.2-3.4-7.6-7.6-7.6H77c-4.2 0-7.6 3.4-7.6 7.6v124.8c0 4.2 3.4 7.6 7.6 7.6h98.8c4.2 0 7.6-3.4 7.6-7.7ZM71.4 81.8v124.7c0 3.1 2.5 5.6 5.6 5.6h98.8c3.1 0 5.6-2.5 5.6-5.6V81.8c0-3.1-2.5-5.6-5.6-5.6H77c-3.1 0-5.6 2.5-5.6 5.6Z" fill="#142D6E"/><path d="M191.4 194.5V74.2c0-4.4-3.6-8-8-8h-95c-4.4 0-8 3.6-8 8v120.3c0 4.4 3.6 8 8 8h95c4.5 0 8-3.6 8-8Z" fill="#03D5B7"/><path d="M108.7 77.1V57.8c0-.6-.4-1-1-1s-1 .4-1 1v19.3c0 .6.4 1 1 1 .5 0 1-.4 1-1ZM136.9 77.1V57.8c0-.6-.4-1-1-1s-1 .4-1 1v19.3c0 .6.4 1 1 1s1-.4 1-1ZM165.2 77.1V57.8c0-.6-.4-1-1-1s-1 .4-1 1v19.3c0 .6.4 1 1 1 .5 0 1-.4 1-1Z" fill="#142D6E"/><path d="M54.2 228.2h45.5v-45.5H54.2v45.5Z" fill="#fff"/><path d="M100.7 228.2v-45.5c0-.6-.4-1-1-1H54.2c-.6 0-1 .4-1 1v45.5c0 .6.4 1 1 1h45.5c.5 0 1-.4 1-1Zm-2-1v-43.5H55.2v43.5h43.5Z" fill="#142D6E"/><path d="m77.004 219.399 15.2-28.6c.3-.5.1-1.1-.4-1.4-.5-.3-1.1-.1-1.4.4l-14.7 27.8-13.1-7.5c-.5-.2-1.1-.1-1.4.4-.2.5-.1 1.1.4 1.4l14 8c.2.1.3.1.5.1.1 0 .2-.1.3-.1.3-.1.5-.3.6-.5Z" fill="#FFC412"/><path d="M152.9 107.7c0-.6-.4-1-1-1h-57c-.6 0-1 .4-1 1s.4 1 1 1h57c.6 0 1-.4 1-1ZM177.2 129c0-.6-.4-1-1-1H94.9c-.6 0-1 .4-1 1s.4 1 1 1h81.3c.5 0 1-.4 1-1ZM257.297 165.196c9.2 0 12.4-9.9 12.5-10.1v-.6l-7.8-29.1c1.9-.1 5.4-.7 7.6-2.9 1.4-1.4 2-3.2 1.9-5.3 0-.1 0-3.3-2.1-5.2.6-4 3-27.3-16-32.5-9.8-2.6-17.8-2.2-23.9 1.4-4.9 2.9-8.3 7.7-9.9 14-3.7 14.5-6.7 32.1 3.6 40.3 6.3 5.1 12 4.2 15.8 3.7.3 0 .5-.1.8-.1l3.7 11.5c.1.6 3.4 13.5 12.8 14.9h1Zm2.5-40.292c-.1-.3 0-.6.2-.9.2-.2.5-.4.8-.4 0 0 5 .1 7.4-2.4 1-1 1.4-2.3 1.3-3.9 0-.1 0-2.8-1.7-4-.3-.2-.5-.6-.4-1 .2-1 4.5-25.7-14.6-30.7-9.3-2.5-16.8-2.1-22.4 1.2-5.6 3.3-8 8.7-9 12.7-2.1 8.2-7.6 29.8 2.9 38.2 5.7 4.5 10.6 3.8 14.3 3.3l1.8-.3c.4 0 .8.3 1 .7l4 12.4c0 .2 3.1 12.2 11.1 13.4 7.5.6 10.7-6.8 11.3-8.3l-8-30Z" fill="#142D6E"/><path d="M202.3 121.4s9.3 9.6 18.4 10.5c.1 0-6.2-11.7-2.8-27.2l-15.6 16.7ZM264.8 111.802s1.8.3 2.8 1.3c2.7 2.6 6.3 8.3-6.2 11.7l2.7 13s19.6 6 30.8-3.2c0 0 2-69.3-42.5-64.1 0 0-25.8-9.9-36.5 20.2 0 0 15.4 9.4 28-2.5 0 0-3 20.8 11.5 22.2 0 0-3.8 7.6-.6 9.4 3 1.8 6.1.5 10-8Z" fill="#142D6E"/><path d="M267.7 119.4c-2.6 0-4.7 2.1-4.7 4.7s2.1 4.7 4.7 4.7 4.7-2.1 4.7-4.7-2.1-4.7-4.7-4.7Z" fill="#FFC412"/><path d="M221.3 97.1c-3.65 0-6.6 2.951-6.6 6.601s2.95 6.6 6.6 6.6c3.65 0 6.6-2.95 6.6-6.6 0-3.65-2.95-6.6-6.6-6.6Z" fill="#fff"/><path d="M228.9 103.6c0-4.2-3.4-7.6-7.6-7.6-4.2 0-7.6 3.4-7.6 7.6 0 4.2 3.4 7.6 7.6 7.6 4.2 0 7.6-3.4 7.6-7.6Zm-13.2.1c0 3.1 2.5 5.6 5.6 5.6 3.1 0 5.6-2.5 5.6-5.6 0-3.1-2.5-5.6-5.6-5.6-3.1 0-5.6 2.5-5.6 5.6Z" fill="#142D6E"/><path d="M219.736 101.525a1.7 1.7 0 1 0 .72 3.323 1.7 1.7 0 1 0-.72-3.323ZM215.995 100.396c.4-.4.3-1-.1-1.4l-2.7-2.3c-.4-.4-1-.3-1.4.1-.4.4-.3 1 .1 1.4l2.7 2.3c.2.1.5.2.7.2.3 0 .5-.1.7-.3ZM218.203 99.004c.5-.2.7-.8.5-1.3l-1.8-4.3c-.2-.5-.8-.7-1.3-.5-.5.2-.7.8-.5 1.3l1.8 4.3c.1.4.5.6.9.6.1 0 .2 0 .4-.1Z" fill="#142D6E"/><path d="M239.2 101.2c-3.65 0-6.6 2.95-6.6 6.6 0 3.65 2.95 6.6 6.6 6.6 3.65 0 6.6-2.95 6.6-6.6 0-3.65-2.95-6.6-6.6-6.6Z" fill="#fff"/><path d="M246.8 107.8c0-4.2-3.4-7.6-7.6-7.6-4.2 0-7.6 3.4-7.6 7.6 0 4.2 3.4 7.6 7.6 7.6 4.2 0 7.6-3.4 7.6-7.6Zm-13.2 0c0 3.1 2.5 5.6 5.6 5.6 3.1 0 5.6-2.5 5.6-5.6 0-3.1-2.5-5.6-5.6-5.6-3.1 0-5.6 2.5-5.6 5.6Z" fill="#142D6E"/><path d="M237.641 105.224a1.7 1.7 0 1 0 2.021 1.302 1.698 1.698 0 0 0-2.021-1.302ZM246.195 104.696l2.7-2.3c.4-.4.5-1 .1-1.4-.4-.4-1-.5-1.4-.1l-2.7 2.3c-.4.4-.5 1-.1 1.4.2.2.5.3.8.3.2 0 .4-.1.6-.2ZM244 102.701l1.8-4.3c.3-.5 0-1.1-.5-1.3-.5-.3-1.1 0-1.3.5l-1.8 4.3c-.3.5 0 1.1.5 1.3.1.1.3.1.4.1.4 0 .7-.3.9-.6ZM227.398 112.098c-1 .2-1.8.1-2.3-.3-.3-.2-.5-.5-.5-.9s1.3-1.1 2.4-1.4c.3-.1.6-.4.7-.7l2-6.1c.2-.6-.1-1.1-.6-1.3-.6-.2-1.1.1-1.3.6l-1.8 5.6c-1.1.4-3.5 1.4-3.3 3.4.1 1 .5 1.8 1.2 2.3.7.5 1.6.8 2.7.8.4 0 .7 0 1.1-.1.5 0 .9-.6.8-1.1 0-.5-.6-.9-1.1-.8ZM243.599 98.097c.3-.5.2-1.1-.3-1.4-4.5-2.9-8.4-.7-8.6-.6-.5.3-.7.9-.4 1.4.3.5.9.7 1.4.4.1-.1 3.1-1.7 6.5.5.1.1.3.2.5.2.3 0 .7-.2.9-.5ZM228.199 95.097c.3-.5.2-1.1-.3-1.4-4.5-2.9-8.4-.7-8.6-.6-.5.3-.7.9-.4 1.4.3.5.9.7 1.4.4.1-.1 3.1-1.7 6.5.5.1.1.3.2.5.2.3 0 .6-.1.9-.5ZM227.1 123c1 0 1.9-.4 2.6-1.2.9-1.1 1.4-2.8 1.3-4.6-.1-.5-.5-.9-1.1-.9-.5.1-.9.5-.9 1.1.1 1.2-.2 2.4-.8 3.1-.3.4-.7.6-1.2.6-.3 0-.4-.1-.6-.2-.5-.5-.7-1.8-.7-2.2 0-.6-.5-1-1-1-.6 0-1 .4-1 1 0 .2.1 2.4 1.4 3.6.5.4 1.2.7 1.9.7h.1Z" fill="#142D6E"/><path d="m255.8 71.5.8-1.9-3.8-.9-2.1 1.3 5.1 1.5Z" fill="#E2A40A"/><path d="M265.6 111.496s13.6-12.6 2.1-41.1c-.1-.1-5.3-7.4-14.9-1.7 0 0 22.4 16.6 12.8 42.8Z" fill="#FFC412"/><path d="M316.904 201.205c13.5-11.2 14-29.9 14-30.7.1-.4-.1-.7-.4-.9-18.5-12.4-60.1-19.2-61.9-19.5-.5-.1-1 .3-1.1.8-.1.5.3 1 .8 1.1.5.1 42.2 7 60.7 18.9-.2 3.1-1.7 18.6-12.8 28.3l-25.2-9.2c-.4-.2-.7-.1-1 .1-.3.2-.4.6-.4.9l4.3 42.8c.1.5.5.9 1 .9l.1.2c.6-.1 1-.6.9-1.1l-4.2-41.3 24.2 8.9c.3.1.7 0 1-.2Z" fill="#142D6E"/><path d="M321 196.597c-.5-.2-1.1.1-1.3.6-.2.5.1 1.1.6 1.3l10.5 3.9-29.8 29.2c-1-2.6-3.2-7.3-6.2-7.2-.6 0-1 .4-1 1s.5 1 1 1h.1c1.6 0 3.8 4.4 4.7 7.4.1.4.4.6.7.7h.2c.2 0 .5-.1.6-.5l32.1-31.4c.3-.2.4-.6.3-.9 0-.3-.3-.6-.6-.7l-11.9-4.4ZM271.996 236.7c.2.2.5.3.7.3.2 0 .5-.1.7-.2.3-.4.3-1-.1-1.4-2-1.8-1.3-2.9-1.1-3.3.5-.8 1.4-1.3 2.5-1.4 10.2-.7 18.6 4 18.7 4 .5.3 1.1.1 1.4-.4.3-.5.1-1.1-.4-1.4-.4-.2-9-5-19.8-4.3-1.8.1-3.3.9-4.1 2.3-.6 1-1.3 3.2 1.5 5.8Z" fill="#142D6E"/><path d="M272.005 235.696c-.2.2-1.9 1.9-1.6 3.9.2 1.2 1.1 2.3 2.7 3.1.1.1.3.1.4.1.4 0 .7-.2.8-.7.2-.5 0-1.1-.5-1.3-1-.4-1.5-1-1.6-1.6-.1-.7.5-1.6.9-2 7.1-3.4 16.3 1.9 16.4 2 .5.3 1.1.2 1.4-.3.3-.5.2-1.1-.3-1.4-.4-.2-10.3-6-18.4-2 0 .1-.1.1-.2.2Z" fill="#142D6E"/><path d="M271.205 244.797c.2 1.2 1.1 2.3 2.7 3.1.1.1.3.1.4.1.3 0 .7-.2.8-.7.2-.5 0-1.1-.5-1.3-1-.4-1.5-1-1.6-1.6-.1-.7.5-1.6.9-2 7.1-3.4 16.3 1.9 16.4 2 .5.3 1.1.2 1.4-.3.3-.5.2-1.1-.3-1.4-.4-.2-10.3-6-18.4-2 0 .1-.1.1-.2.2-.2.2-1.9 1.9-1.6 3.9Z" fill="#142D6E"/><path d="M329.504 170.401c-.1.5.2 1 .7 1.2 20.2 5.9 32.9 14.3 35.9 23.7 1.7 5.1.3 10.5-4 16-13.4 16.8-54.1 46.1-60 49.3-5.6 3-10.7-3.1-10.9-3.4-.2-.3-5.4-6.3-10.2-5.8-3.9.3-5.4-.8-5.4-.8-.1 0-.1-.1-.2-.1-1.4-.7-1.2-1.3-1.1-1.6.2-.6.7-1.1 1.4-1.3 5.4-1.9 11.9 2 12 2 .5.3 1.1.2 1.4-.3.3-.5.2-1.1-.3-1.4-.3-.2-7.4-4.3-13.7-2.1-1.3.4-2.3 1.4-2.6 2.6-.2.7-.5 2.6 2.1 3.9.5.3 2.5 1.5 6.7 1.1 3.2-.4 7.2 3.5 8.5 5 1.6 2 5.2 4.9 9.3 4.9 1.3 0 2.7-.3 3.9-.9 6-3.2 47.1-32.8 60.6-49.8 4.8-6 6.3-12.1 4.4-17.9-3.2-10.1-16.5-18.9-37.3-25-.5-.1-1 .2-1.2.7ZM195.9 191.002c.9-5.6 4.3-24.8 9.5-37 5.8-13.6 38.4-4.1 38.7-4 .5.1 1-.2 1.2-.7.1-.5-.2-1-.7-1.2-1.4-.4-34.6-10.1-41.1 5.2-6.2 14.6-9.9 38.9-9.9 39.1 0 .3.1.7.4.9.3.2.7.2 1 .1.1 0 10.1-4.3 20.6 6.2.2.2.4.3.7.3.3 0 .5-.1.8-.4.4-.4.4-1 0-1.4-9-9-17.7-8-21.2-7.1Z" fill="#142D6E"/><path d="M214.7 268.8c.4-.1 10-2.9 11.8-20.7 0-.6-.4-1-.9-1.1-.6-.1-1 .4-1.1.9-1.3 12.7-6.6 17-9.1 18.4l2.2-91.9c0-.5-.4-1-1-1-.5 0-1 .4-1 1l-2.2 93.5c0 .3.2.6.4.8.2.1.4.2.6.2.1 0 .2 0 .3-.1Z" fill="#142D6E"/><path d="M271.901 242.401c.6-.1.9-.7.8-1.2-.1-.6-.7-.9-1.2-.8-28.1 5.5-54.8-2.6-55.1-2.7-.6-.1-1.1.2-1.3.7-.1.6.2 1.1.7 1.3.2.1 15.4 4.7 35 4.7 6.7 0 13.9-.6 21.1-2ZM271.901 249.001c.6-.1.9-.7.8-1.2-.1-.6-.7-.9-1.2-.8-28.1 5.5-54.8-2.6-55.1-2.7-.6-.1-1.1.2-1.3.7-.1.6.2 1.1.7 1.3.2.1 15.4 4.7 35 4.7 6.7 0 13.9-.5 21.1-2Z" fill="#142D6E"/><path d="M239.7 256.7v-13.8c0-.6-.4-1-1-1s-1 .4-1 1v13.8c0 .6.4 1 1 1 .5 0 1-.5 1-1ZM247.8 258.4v-13.8c0-.6-.4-1-1-1s-1 .4-1 1v13.8c0 .6.4 1 1 1s1-.4 1-1ZM292.897 265.698c.6-.1 1-.6.9-1.1-.1-.6-.6-1-1.1-.9-18.8 2.3-23.6-13.6-23.8-14.3-.1-.5-.7-.9-1.2-.7-.5.1-.9.7-.7 1.2.1.2 4.8 16 22.1 16 1.2 0 2.5-.1 3.8-.2ZM196.903 214.603c.5 0 .9-.6.8-1.1-.3-2.4-9.2-58.6-12.9-66.6-.2-.5-.8-.7-1.3-.5-.5.2-.7.8-.5 1.3 3.6 7.8 12.7 65.5 12.8 66.1.1.4.5.8 1 .8h.1Z" fill="#142D6E"/><path d="M156.199 144.996c-2.7-4.8-6.4-11.4-5.6-12.9 0-.1.1-.2.4-.2 2.7-.3 3.7 1.2 6 4.9.7 1.1 1.4 2.4 2.4 3.8 1.6 2.3 3.4 3.6 5.3 3.8 2.2.2 3.7-1 3.8-1.1.4-.4.5-1 .1-1.4-.4-.4-1-.5-1.4-.1 0 0-.9.8-2.2.6-1.3-.2-2.7-1.2-3.9-3-1-1.4-1.7-2.6-2.4-3.7-2.2-3.6-3.8-6.2-7.9-5.9-1.2.1-1.7.7-2 1.2-1.2 2.3 1.3 7.1 5.6 14.8 1.2 2.1 2.4 4.3 3.4 6.3 4.6 9.1 10.5 63.2 10.6 63.7.1.3 2.5 30.7 25.9 31.7h1.2c17.2 0 21.1-12.5 21-12.6.1-.5-.2-1-.7-1.2-.5-.1-1 .2-1.2.7-.1.1-3.6 11.7-20.3 11.2-21.6-.9-23.9-29.6-23.9-29.9-.2-2.3-6-55-10.8-64.4-1-2.1-2.2-4.2-3.4-6.3Z" fill="#142D6E"/><path d="m193.354 162.763 10.135-12.381-60.203-49.28-10.135 12.381 60.203 49.28ZM210.9 167.1c5.7-7-2.6-12.5-2.6-12.5L198.2 167s7 7.1 12.7.1Z" fill="#FFC412"/><path d="m197.473 167.771 11.844-14.47-3.482-2.85-11.845 14.47 3.483 2.85ZM193.56 164.602l11.845-14.471-3.482-2.85-11.845 14.47 3.482 2.851Z" fill="#A6A6A6"/><path d="m126.4 97.6 1.7 4 5.1 11.9 2.8.2s-.8-2.6-.8-2.7l2.8.2s-.8-2.6-.8-2.7l2.8.2-.8-2.7 2.8.2-.8-2.7 2.8.2c.1.1-.7-2.6-.7-2.6l-12.7-2.6-4.2-.9Z" fill="#FFC727"/><path d="m139.2 106 2.8.2-.8-2.7 2.8.2c.1.1-.7-2.6-.7-2.6l-12.7-2.6-4.2-.9 1.7 4 5.1 11.9 2.8.2s-.8-2.6-.8-2.7l2.8.2s-.8-2.6-.8-2.7l2.8.2-.8-2.7Z" fill="#fff"/><path d="m126.4 97.6 1.7 3.9 2.5-3.1-4.2-.8ZM186.505 135.3c0-.4-.9-9.8-9.4-12.1-3.2-.8-5.7-.6-7.4.6-2 1.4-2.2 3.7-2.2 3.8-.1.6.3 1.1.9 1.1.6.1 1.1-.3 1.1-.9 0 0 .1-1.4 1.3-2.3 1.2-.9 3.2-1 5.7-.3 7.2 2 8 10 8 10.3 0 .5.5.9 1 .9.6 0 1.1-.5 1-1.1Z" fill="#142D6E"/><path d="M168.202 128.096c.4 0 .8-.3 1-.6.2-.5-.1-1.1-.6-1.3-.7-.3-2.3-1.1-2.5-2 0-.3.2-.7.7-1.2 5.1-3 9 .8 9.2 1 .4.4 1 .4 1.4 0 .4-.4.4-1 0-1.4-.1-.1-5.3-5.1-11.7-1.3-.1 0-.2.1-.2.1-1.4 1.2-1.5 2.3-1.4 3.1.4 2.2 3.4 3.4 3.7 3.5.2.1.3.1.4.1Z" fill="#142D6E"/><path d="M161.105 121.896c.6 1.8 3.1 2.6 3.4 2.7h.3c.4 0 .8-.3 1-.6.1-.5-.2-1-.7-1.2-.6-.2-1.9-.8-2.1-1.5 0-.1-.2-.4.3-1.1 3.3-3 8.9.6 9 .6.5.3 1.1.2 1.4-.3.3-.5.2-1.1-.3-1.4-.3-.2-7.1-4.5-11.6-.3l-.1.1c-.9 1.3-.8 2.3-.6 3Z" fill="#142D6E"/><path d="M169.997 118.304c.4.3 1.1.2 1.4-.2.3-.4.2-1.1-.2-1.4-.3-.3-7.6-5.7-12.5-1.4-.1 0-.1.1-.2.2-.9 1.5-.8 2.6-.5 3.3.7 1.8 2.9 2.3 3.2 2.4h.2c.5 0 .9-.3 1-.6.2-.5-.2-1.1-.7-1.2-.3-.1-1.5-.5-1.8-1.2-.1-.4 0-.8.3-1.4 3.7-3.1 9.7 1.5 9.8 1.5Z" fill="#142D6E"/><path d="M104.8 254.5c0-7-5.7-12.7-12.7-12.7-7 0-12.7 5.7-12.7 12.7 0 7 5.7 12.7 12.7 12.7 7 0 12.7-5.7 12.7-12.7Zm-22.4.1c0 5.4 4.3 9.7 9.7 9.7 5.3 0 9.7-4.3 9.7-9.7 0-5.4-4.4-9.7-9.7-9.7-5.3 0-9.7 4.3-9.7 9.7Z" fill="#03D5B7"/><path d="M82.802 45.202c.4-.2.6-.8.4-1.3l-5.9-11.8c-.2-.4-.8-.6-1.3-.4-.4.2-.6.8-.4 1.3l5.9 11.8c.1.2.4.4.6.5.2.1.5.1.7-.1ZM80.497 64.897c1.4-4-.8-8.3-4.8-9.7-4-1.4-8.3.8-9.7 4.8-1.4 4 .8 8.4 4.8 9.7 4 1.3 8.4-.9 9.7-4.8Zm-12.695-4.294c-1 3 .6 6.2 3.6 7.2s6.2-.6 7.2-3.6-.6-6.2-3.6-7.2-6.2.6-7.2 3.6ZM31.9 92.205l35 2.5c.6.1 1.1-.3 1.1-.9.1-.6-.3-1.1-.9-1.1l-35-2.5c-.6-.1-1.1.3-1.1.9 0 .5.3.9.7 1 .1 0 .1.1.2.1Z" fill="#FFC412"/><path d="M144.401 257.401c.3-.5.2-1.1-.3-1.4l-16-10.7c-.5-.3-1.1-.2-1.4.3-.3.5-.2 1.1.3 1.4l15.9 10.7c.2.1.4.2.6.2.4 0 .7-.2.9-.5ZM361.404 98.301l-24.3 4.9c-.4.1-.7.4-.8.8-.1.4.1.8.4 1l29.2 19.4c.2.1.4.2.6.2.2 0 .4 0 .6-.2.3-.2.5-.6.4-1l-4.9-24.3c-.1-.6-.7-.9-1.2-.8ZM365 121.4l-4.2-21-21 4.3 25.2 16.7Z" fill="#03D5B7"/></g></svg>