<svg viewBox="0 0 400 300" fill="none" xmlns="http://www.w3.org/2000/svg"><mask id="a" style="mask-type:alpha" maskUnits="userSpaceOnUse" x="31" y="30" width="339" height="241"><path d="M369.4 30H31v240.1h338.4V30Z" fill="#fff"/></mask><g mask="url(#a)" fill-rule="evenodd" clip-rule="evenodd"><path d="M130.6 207.7c.6 0 1-.1 1-.2s-.4-.2-1-.2-1 .1-1 .2.4.2 1 .2ZM126.6 207.7c.6 0 1-.1 1-.2s-.5-.2-1-.2c-.6 0-1 .1-1 .2s.5.2 1 .2ZM122.7 207.7c.6 0 1-.1 1-.2s-.5-.2-1-.2c-.6 0-1 .1-1 .2s.4.2 1 .2ZM118.7 207.7c.6 0 1-.1 1-.2s-.5-.2-1-.2c-.6 0-1 .1-1 .2s.5.2 1 .2ZM114.8 207.7c.6 0 1-.1 1-.2s-.5-.2-1-.2c-.6 0-1 .1-1 .2s.4.2 1 .2ZM110.8 207.7c.6 0 1-.1 1-.2s-.5-.2-1-.2c-.6 0-1 .1-1 .2s.4.2 1 .2ZM106.8 207.7c.6 0 1-.1 1-.2s-.4-.2-1-.2-1 .1-1 .2.4.2 1 .2ZM102.9 207.7c.6 0 1-.1 1-.2s-.5-.2-1-.2c-.6 0-1 .1-1 .2s.4.2 1 .2ZM98.9 207.7c.6 0 1-.1 1-.2s-.5-.2-1-.2c-.6 0-1 .1-1 .2s.5.2 1 .2ZM95 207.7c.6 0 1-.1 1-.2s-.5-.2-1-.2c-.6 0-1 .1-1 .2s.4.2 1 .2ZM91 207.7c.6 0 1-.1 1-.2s-.5-.2-1-.2c-.6 0-1 .1-1 .2s.4.2 1 .2ZM87 207.7c.6 0 1-.1 1-.2s-.5-.2-1-.2c-.6 0-1 .1-1 .2s.5.2 1 .2ZM83 207.5v.3h.2c.4 0 .8-.1.8-.2 0-.09-.22-.17-.6-.19v-.01c0-.6-.1-1-.2-1s-.2.4-.2 1.1ZM83 203.4c0 .6.1 1 .2 1s.2-.4.2-1-.1-1-.2-1-.2.4-.2 1ZM83 199.5c0 .6.1 1 .2 1s.2-.5.2-1c0-.6-.1-1-.2-1s-.2.4-.2 1ZM83 195.5c0 .6.1 1 .2 1s.2-.4.2-1-.1-1-.2-1-.2.4-.2 1ZM83 191.5c0 .6.1 1 .2 1s.2-.4.2-1-.1-1-.2-1-.2.4-.2 1ZM83 187.6c0 .6.1 1 .2 1s.2-.5.2-1c0-.6-.1-1-.2-1s-.2.4-.2 1ZM83 183.6c0 .6.1 1 .2 1s.2-.4.2-1-.1-1-.2-1-.2.4-.2 1ZM83 179.7c0 .6.1 1 .2 1s.2-.4.2-1-.1-1-.2-1-.2.4-.2 1ZM83 175.7c0 .6.1 1 .2 1s.2-.4.2-1-.1-1-.2-1-.2.4-.2 1ZM83 171.7c0 .6.1 1 .2 1s.2-.5.2-1c0-.6-.1-1-.2-1s-.2.5-.2 1ZM83 167.8c0 .6.1 1 .2 1s.2-.4.2-1-.1-1-.2-1-.2.4-.2 1ZM83 163.8c0 .6.1 1 .2 1s.2-.4.2-1-.1-1-.2-1-.2.4-.2 1ZM83.4 159.8c0-.17-.07-.41-.09-.6.13 0 .19-.02.19-.1 0 0-.1 0-.3-.1h-.1v.1c-.1.2-.1.5-.1.7 0 .6.1 1 .2 1s.2-.5.2-1ZM86.5 158.9c-.6 0-1 .1-1 .2s.5.2 1 .2c.6 0 1-.1 1-.2l-1-.2ZM90.4 158.9c-.6 0-1 .1-1 .2s.5.2 1 .2c.6 0 1-.1 1-.2 0 0-.4-.1-1-.2ZM94.4 158.9c-.6 0-1 .1-1 .2s.4.2 1 .2 1-.1 1-.2l-1-.2ZM98.4 158.9c-.6 0-1 .1-1 .2s.5.2 1 .2c.6 0 1-.1 1-.2l-1-.2ZM102.3 158.9c-.6 0-1 .1-1 .2s.5.2 1 .2c.6 0 1-.1 1-.2 0 0-.4-.1-1-.2ZM106.3 158.9c-.6 0-1 .1-1 .2s.5.2 1 .2c.6 0 1-.1 1-.2l-1-.2ZM110.2 158.9c-.6 0-1 .1-1 .2s.5.2 1 .2c.6 0 1-.1 1-.2 0 0-.4-.1-1-.2ZM114.2 158.9c-.6 0-1 .1-1 .2s.5.2 1 .2c.6 0 1-.1 1-.2l-1-.2ZM118.2 158.9c-.6 0-1 .1-1 .2s.4.2 1 .2 1-.1 1-.2c0 0-.4-.2-1-.2ZM122.1 158.9c-.6 0-1 .1-1 .2s.4.2 1 .2 1-.1 1-.2c0 0-.4-.2-1-.2ZM126.1 158.9c-.6 0-1 .1-1 .2s.5.2 1 .2c.6 0 1-.1 1-.2l-1-.2ZM130 158.9c-.6 0-1 .1-1 .2s.5.2 1 .2c.6 0 1-.1 1-.2 0 0-.4-.1-1-.2ZM131.8 161.6c0-.6-.1-1-.2-1s-.2.5-.2 1c0 .6.1 1 .2 1s.2-.5.2-1ZM131.8 165.5c0-.6-.1-1-.2-1s-.2.5-.2 1c0 .6.1 1 .2 1s.2-.4.2-1ZM131.8 169.5c0-.6-.1-1-.2-1s-.2.4-.2 1 .1 1 .2 1 .2-.4.2-1ZM131.8 173.4c0-.6-.1-1-.2-1s-.2.5-.2 1c0 .6.1 1 .2 1s.2-.4.2-1ZM131.8 177.4c0-.6-.1-1-.2-1s-.2.5-.2 1c0 .6.1 1 .2 1s.2-.4.2-1ZM131.8 181.4c0-.6-.1-1-.2-1s-.2.4-.2 1 .1 1 .2 1 .2-.4.2-1ZM131.8 185.3c0-.6-.1-1-.2-1s-.2.4-.2 1 .1 1 .2 1 .2-.4.2-1ZM131.8 189.3c0-.6-.1-1-.2-1s-.2.5-.2 1c0 .6.1 1 .2 1s.2-.5.2-1ZM131.8 193.3c0-.6-.1-1-.2-1s-.2.4-.2 1 .1 1 .2 1 .2-.4.2-1ZM131.8 197.2c0-.6-.1-1-.2-1s-.2.4-.2 1 .1 1 .2 1 .2-.4.2-1ZM131.8 201.2c0-.6-.1-1-.2-1s-.2.5-.2 1c0 .6.1 1 .2 1s.2-.5.2-1ZM131.8 205.1c0-.6-.1-1-.2-1s-.2.4-.2 1 .1 1 .2 1 .2-.4.2-1Z" fill="#E0E0E0"/><path d="M129.8 208.8h3.6v-3.6h-3.6v3.6ZM81.4 209.3H85v-3.6h-3.6v3.6ZM129.8 160.6h3.6V157h-3.6v3.6ZM81.4 161H85v-3.6h-3.6v3.6Z" fill="#E0E0E0"/><path d="M99.403 215.097c-1.4 2.8-3.5 5.1-6.2 6.8-1.7 1.1-3.9 1.8-5.7.9-2.5-1.2-3-4.5-3.2-7.3-.3-5.2-.7-10.5-1-15.7-.2-2.8-.4-5.7-1.4-8.3-1.1-2.6-3.2-4.9-5.9-5.5-2.7-.6-5.9 1.2-6.3 4-.2 1.2.2 2.3.2 3.5 0 1.2-.4 2.5-1.5 2.9-1.1.4-2.3-.3-3.2-1.1-3.1-2.6-5.3-6.1-7.4-9.6-2.1-3.5-4.1-7.1-7-10-2.9-2.9-6.6-5.1-10.7-5-4 0-8.1 2.8-8.9 6.8-.8 4 1.8 7.9 4.6 10.9 4.1 4.5 8.7 8.4 13.9 11.5.9.6 1.9 1.2 2.3 2.2.7 1.8-.9 3.8-2.7 4.5-2 .8-4.3.8-6.5 1.2-2.2.4-4.4 1.5-5.2 3.7-.9 2.9 1.7 5.8 4.2 7.6 5 3.6 10.6 6.3 16.5 8 2.1.6 4.3 1.1 6.1 2.5 1.8 1.3 2.9 3.8 2.1 5.8-.9 2-3.4 2.9-5.6 2.6-2.2-.3-4.2-1.3-6.3-1.9-4-1.2-8.9-.6-11.1 2.9-1.5 2.3-1.4 5.4-.4 7.9 1 2.5 2.8 4.7 4.7 6.6 6.7 6.8 15 12.1 24.1 14.6 9.1 2.5 17.5 2.9 26.2-1 13.8-11.1 15.7-30.1 14-47-.3-2.8-.2-5.8-1.7-8.2-1.5-2.4-4.8-3.8-7.2-2.5-2 1.1-2.8 3.6-3.8 5.7Z" fill="#F5F5F5"/><path d="M35.3 173.7c-.1 0-.2-.1-.3-.2.1.1.2.1.3.2Zm45.4 57c4.4 8.5 8.4 17.3 11.9 26.3 3.1 8.3 2.1 4.9 3.2 11.5h.3c-1.1-6.7 0-3.3-3.1-11.7-3.4-9-7.4-17.8-11.9-26.3l-3.5-6.7c-1.1-2.2-2.3-4.4-3.5-6.5-2.4-4-5-7.8-7.8-11.5-2.7-3.6-5.3-6.8-7.8-9.9-2.5-3-4.9-5.8-7.2-8.3-3.6-3.9-7.5-7.4-11.7-10.7-1.5-1.2-2.6-2-3.4-2.6.8.6 1.9 1.5 3.4 2.7 4.1 3.3 8 6.9 11.5 10.8 2.3 2.5 4.6 5.2 7.1 8.3 2.5 3.1 5.1 6.4 7.8 9.9 2.8 3.7 5.4 7.5 7.7 11.5 1.2 2.1 2.4 4.2 3.5 6.5l3.5 6.7Z" fill="#E0E0E0"/><path d="M74.104 216c-.2.4-.2.8-.1 1.2.1-.4.2-.8.2-1.2.1-.8.2-1.9.3-3.3.2-2.8.3-6.7.5-11 .1-4.3.3-8.2.6-11 .1-1.4.2-2.5.3-3.3.1-.4.1-.8.1-1.2l-.3 1.2c-.1.8-.3 1.9-.5 3.3-.3 2.8-.6 6.7-.7 11-.1 4.3-.2 8.1-.3 11 0 1.3-.1 2.4-.1 3.3Z" fill="#E0E0E0"/><path d="M68.8 216.2c1.6.3 3 .6 3.9.8.5.1.9.2 1.4.2-.4-.2-.9-.3-1.4-.4-.9-.3-2.2-.6-3.8-.9-3.3-.7-7.8-1.5-12.9-2.1-4.3-.5-8.7-.8-13-.9-1.7 0-3 0-4 .1-.6-.1-1.1-.1-1.5 0 .5.1 1 .1 1.5.1.9 0 2.3 0 3.9.1 3.3.1 7.9.5 13 1 5 .6 9.6 1.3 12.9 2ZM104.8 215.6c-1.4 4.2-3.3 10.2-5.2 16.8-1.9 6.6-3.7 12.5-5 16.8-.7 2.1-1.2 3.8-1.6 5.1-.2.6-.3 1-.4 1.4-.1.1-.1.3-.1.5.1-.1.2-.3.2-.5l.5-1.3c.5-1.2 1.1-2.9 1.8-5 1.4-4.2 3.3-10.2 5.2-16.8 1.9-6.6 3.7-12.5 5-16.8.6-2.1 1.2-3.8 1.6-5.1.2-.6.3-1 .4-1.4.1-.2.1-.3.1-.5-.1.1-.2.3-.2.5-.1.4-.3.8-.5 1.3-.5 1.2-1.1 2.9-1.8 5ZM50.6 245.9c4.4 1.1 10.5 2.7 17.3 4.4 6.7 1.8 12.9 3.3 17.3 4.3 2.2.5 4 .9 5.3 1.1l1.4.3c.2 0 .3.1.5.1-.2-.1-.3-.1-.5-.2l-1.4-.4-5.2-1.3c-4.4-1.1-10.5-2.7-17.3-4.4-6.7-1.8-12.9-3.3-17.3-4.3-2.2-.5-4-.9-5.3-1.1l-1.5-.3h-.4c.2.1.3.1.5.1l1.4.4 5.2 1.3Z" fill="#E0E0E0"/><path d="M354.299 235.198c-1.4 3-3.7 9-1.8 14.2 4.6-2 9.5-5 12.4-9 1.6-2.1 2.7-4.5 3.2-7 .5-2.6-.1-5.3-1.6-7.4-3.4-2.8-10.1 4.5-12.2 9.2ZM364.1 262.399c1.3 0 2.5-.4 3.6-1s1.7-1.8 1.7-3.1c-.1-1.3-1.2-2.4-2.3-3.1-2.4-1.7-5.4-2.3-8.3-1.8-2.9.6-5.2 2.7-6.1 5.5 3 3.1 7.2 3.7 11.4 3.5Z" fill="#F5F5F5"/><path d="M347.7 261.7c-1.1.6-2 1.4-2.8 2.3-.8.7-1.5 1.6-2.1 2.5.8-.7 1.6-1.5 2.5-2.3.9-.8 1.8-1.6 2.8-2.2 1.2-.8 2.4-1.5 3.7-2.2 2.3-1.2 4.9-1.8 7.5-1.9 2 0 3.2.3 3.2.3s-.2-.1-.8-.3c-.8-.2-1.6-.3-2.4-.3-2.7-.1-5.4.6-7.8 1.8-1.3.7-2.6 1.5-3.8 2.3Z" fill="#E0E0E0"/><path d="M351.8 250.6c-2.8 5.1-5.5 9.7-7.4 13l-2.3 3.9c-.3.5-.6 1-.8 1.5.4-.5.7-.9 1-1.4.6-.9 1.4-2.2 2.4-3.8 2.1-3.3 4.8-7.9 7.6-13s5.3-9.8 7-13.2c.8-1.7 1.5-3.1 2-4.1l.6-1.5c-.3.4-.6.9-.7 1.4l-2.2 4c-1.9 3.5-4.4 8.1-7.2 13.2Z" fill="#E0E0E0"/><path d="M341.7 240.596c-1.1-1.1-2.6-2.2-4-1.7-1.4.5-1.9 2.4-1.9 3.9.1 6.6 4.2 12.5 10.3 15l.2-.3c1.3-6-.4-12.3-4.6-16.9Z" fill="#F5F5F5"/><path d="M343 247.6c-.6-.9-1-1.6-1.4-2l-.6-.6c.5 1 1 2 1.6 2.9 1.4 2.3 2.3 4.7 2.9 7.2.3 1.4.4 2.8.2 4.2-.2 1.1-.5 2.2-.9 3.3-.8 1.8-1.4 2.9-1.4 2.9.1 0 .3-.2.6-.7.5-.7.9-1.4 1.2-2.1.5-1.1.8-2.2 1-3.4.2-1.5.2-3-.1-4.4-.6-2.6-1.6-5.1-3.1-7.3ZM365.5 130.5c.7 0 1.2-.1 1.2-.2s-.5-.2-1.2-.2-1.2.1-1.2.2.5.2 1.2.2ZM360.8 130.5c.7 0 1.2-.1 1.2-.2s-.5-.2-1.2-.2-1.2.1-1.2.2.5.2 1.2.2ZM356 130.5c.7 0 1.2-.1 1.2-.2s-.5-.2-1.2-.2-1.2.1-1.2.2.5.2 1.2.2ZM351.3 130.5c.7 0 1.2-.1 1.2-.2s-.5-.2-1.2-.2-1.2.1-1.2.2.5.2 1.2.2ZM346.5 130.5c.7 0 1.2-.1 1.2-.2s-.5-.2-1.2-.2-1.2.1-1.2.2.5.2 1.2.2ZM341.8 130.5c.7 0 1.2-.1 1.2-.2s-.5-.2-1.2-.2-1.2.1-1.2.2.5.2 1.2.2ZM337 130.5c.7 0 1.2-.1 1.2-.2s-.5-.2-1.2-.2-1.2.1-1.2.2.5.2 1.2.2ZM332.3 130.5c.7 0 1.2-.1 1.2-.2s-.5-.2-1.2-.2-1.2.1-1.2.2.5.2 1.2.2ZM327.5 130.5c.7 0 1.2-.1 1.2-.2s-.5-.2-1.2-.2-1.2.1-1.2.2.6.2 1.2.2ZM322.8 130.5c.7 0 1.2-.1 1.2-.2s-.5-.2-1.2-.2-1.2.1-1.2.2.5.2 1.2.2ZM318.1 130.5c.7 0 1.2-.1 1.2-.2s-.5-.2-1.2-.2-1.2.1-1.2.2.5.2 1.2.2ZM313.3 130.5c.7 0 1.2-.1 1.2-.2s-.5-.2-1.2-.2-1.2.1-1.2.2.5.2 1.2.2ZM308.5 130.1v.4h.2c.6 0 1-.1 1-.2 0-.09-.31-.18-.8-.2 0-.7-.1-1.2-.2-1.2s-.2.6-.2 1.2ZM308.5 125.4c0 .7.1 1.2.2 1.2s.2-.5.2-1.2-.1-1.2-.2-1.2-.2.5-.2 1.2ZM308.5 120.7c0 .7.1 1.2.2 1.2s.2-.5.2-1.2-.1-1.2-.2-1.2-.2.5-.2 1.2ZM308.5 115.9c0 .7.1 1.2.2 1.2s.2-.5.2-1.2-.1-1.2-.2-1.2-.2.5-.2 1.2ZM308.5 111.2c0 .7.1 1.2.2 1.2s.2-.5.2-1.2-.1-1.2-.2-1.2-.2.5-.2 1.2ZM308.5 106.4c0 .7.1 1.2.2 1.2s.2-.5.2-1.2-.1-1.2-.2-1.2-.2.6-.2 1.2ZM308.5 101.7c0 .7.1 1.2.2 1.2s.2-.5.2-1.2-.1-1.2-.2-1.2-.2.5-.2 1.2ZM308.5 96.9c0 .7.1 1.2.2 1.2s.2-.5.2-1.2-.1-1.2-.2-1.2-.2.6-.2 1.2ZM308.5 92.2c0 .7.1 1.2.2 1.2s.2-.5.2-1.2-.1-1.2-.2-1.2-.2.5-.2 1.2ZM308.5 87.5c0 .7.1 1.2.2 1.2s.2-.5.2-1.2-.1-1.2-.2-1.2-.2.5-.2 1.2ZM308.5 82.7c0 .7.1 1.2.2 1.2s.2-.5.2-1.2-.1-1.2-.2-1.2-.2.5-.2 1.2ZM308.5 78c0 .7.1 1.2.2 1.2s.2-.5.2-1.2-.1-1.2-.2-1.2-.2.5-.2 1.2ZM308.8 72.5c.22 0 .3-.01.3-.1 0-.1-.2-.1-.4-.2h-.1v.2c-.1.2-.1.5-.1.8 0 .7.1 1.2.2 1.2s.2-.6.2-1.2c0-.18-.08-.43-.1-.7ZM312.6 72.2c-.7 0-1.2.1-1.2.2s.5.2 1.2.2 1.2-.1 1.2-.2-.5-.2-1.2-.2ZM317.4 72.2c-.7 0-1.2.1-1.2.2s.5.2 1.2.2 1.2-.1 1.2-.2-.5-.2-1.2-.2ZM322.1 72.2c-.7 0-1.2.1-1.2.2s.5.2 1.2.2 1.2-.1 1.2-.2-.5-.2-1.2-.2ZM326.9 72.2c-.7 0-1.2.1-1.2.2s.5.2 1.2.2 1.2-.1 1.2-.2-.6-.2-1.2-.2ZM331.6 72.2c-.7 0-1.2.1-1.2.2s.5.2 1.2.2 1.2-.1 1.2-.2-.5-.2-1.2-.2ZM336.4 72.2c-.7 0-1.2.1-1.2.2s.5.2 1.2.2 1.2-.1 1.2-.2-.6-.2-1.2-.2ZM341.1 72.2c-.7 0-1.2.1-1.2.2s.5.2 1.2.2 1.2-.1 1.2-.2-.5-.2-1.2-.2ZM345.8 72.2c-.7 0-1.2.1-1.2.2s.5.2 1.2.2 1.2-.1 1.2-.2-.5-.2-1.2-.2ZM350.6 72.2c-.7 0-1.2.1-1.2.2s.5.2 1.2.2 1.2-.1 1.2-.2-.5-.2-1.2-.2ZM355.3 72.2c-.7 0-1.2.1-1.2.2s.5.2 1.2.2 1.2-.1 1.2-.2-.5-.2-1.2-.2ZM360.1 72.2c-.7 0-1.2.1-1.2.2s.5.2 1.2.2 1.2-.1 1.2-.2-.6-.2-1.2-.2ZM364.8 72.2c-.7 0-1.2.1-1.2.2s.5.2 1.2.2 1.2-.1 1.2-.2-.5-.2-1.2-.2ZM366.9 75.3c0-.7-.1-1.2-.2-1.2s-.2.5-.2 1.2.1 1.2.2 1.2.2-.5.2-1.2ZM366.9 80c0-.7-.1-1.2-.2-1.2s-.2.5-.2 1.2.1 1.2.2 1.2.2-.5.2-1.2ZM366.9 84.8c0-.7-.1-1.2-.2-1.2s-.2.5-.2 1.2.1 1.2.2 1.2.2-.5.2-1.2ZM366.9 89.5c0-.7-.1-1.2-.2-1.2s-.2.5-.2 1.2.1 1.2.2 1.2.2-.5.2-1.2ZM366.9 94.2c0-.7-.1-1.2-.2-1.2s-.2.5-.2 1.2.1 1.2.2 1.2.2-.5.2-1.2ZM366.9 99c0-.7-.1-1.2-.2-1.2s-.2.5-.2 1.2.1 1.2.2 1.2.2-.5.2-1.2ZM366.9 103.7c0-.7-.1-1.2-.2-1.2s-.2.5-.2 1.2.1 1.2.2 1.2.2-.5.2-1.2ZM366.9 108.5c0-.7-.1-1.2-.2-1.2s-.2.5-.2 1.2.1 1.2.2 1.2.2-.6.2-1.2ZM366.9 113.2c0-.7-.1-1.2-.2-1.2s-.2.5-.2 1.2.1 1.2.2 1.2.2-.5.2-1.2ZM366.9 118c0-.7-.1-1.2-.2-1.2s-.2.5-.2 1.2.1 1.2.2 1.2.2-.6.2-1.2ZM366.9 122.7c0-.7-.1-1.2-.2-1.2s-.2.5-.2 1.2.1 1.2.2 1.2.2-.5.2-1.2ZM366.9 127.4c0-.7-.1-1.2-.2-1.2s-.2.5-.2 1.2.1 1.2.2 1.2.2-.5.2-1.2Z" fill="#E0E0E0"/><path d="M364.5 131.9h4.3v-4.3h-4.3v4.3ZM306.6 132.5h4.3v-4.3h-4.3v4.3ZM364.5 74.1h4.3v-4.3h-4.3v4.3ZM306.6 74.5h4.3v-4.3h-4.3v4.3Z" fill="#E0E0E0"/><path d="M284.5 226.3v28.9c0 1.6-1.7 2.9-3.7 2.9H125c-2 0-3.7-1.3-3.7-2.9V147.7c0-1.6 1.7-2.9 3.7-2.9h155.8c2 0 3.7 1.3 3.7 2.9v49.6c0 .5.4.9.9.9s.9-.4.9-.9v-49.6c0-2.6-2.5-4.7-5.5-4.7H125c-3 0-5.5 2.1-5.5 4.7v107.5c0 2.6 2.5 4.7 5.5 4.7h155.7c3.1 0 5.5-2.1 5.6-4.7v-28.9c0-.5-.4-.9-.9-.9s-.9.4-.9.9Z" fill="#142D6E"/><path d="M105.4 129.1c.4-.4.4-1 0-1.4l-9.3-9.3c-.4-.4-1-.4-1.4 0-.4.4-.4 1 0 1.4l9.3 9.3c.2.2.4.3.7.3.2 0 .5-.1.7-.3Z" fill="#FFC412"/><path d="M120.8 145.8v9.6h165v-8c0-1.5-1.2-2.7-2.7-2.7H121.8c-.6 0-1 .5-1 1.1Z" fill="#142D6E"/><path d="M126.8 149.3c-.8 0-1.5.7-1.5 1.5s.7 1.6 1.5 1.6 1.6-.7 1.6-1.5c0-.9-.6-1.6-1.6-1.6Z" fill="#03D5B7"/><path d="M132.4 149.3c-.8 0-1.5.7-1.5 1.5s.7 1.6 1.5 1.6 1.6-.7 1.6-1.5c0-.9-.7-1.6-1.6-1.6Z" fill="#FFC412"/><path d="M136.9 149.7c-.6.7-.6 1.7 0 2.3l.1.1c.6.5 1.5.5 2.1-.1.6-.7.6-1.7 0-2.3-.7-.6-1.6-.6-2.2 0Z" fill="#fff"/><path d="M140.2 101.8V58.5c0-2.5-2.1-4.6-4.6-4.6H67.1c-2.5 0-4.6 2.1-4.6 4.6v43.3c0 2.5 2.1 4.6 4.6 4.6h68.5c2.5 0 4.6-2.1 4.6-4.6Z" fill="#EBEBEB"/><path d="M66.7 64.4h68.6v-6.3H66.7v6.3Z" fill="#fff"/><path d="M70.4 61.304c-.1-.4-.4-.8-.8-.7-.4.1-.7.4-.7.8v.1c.1.4.4.7.8.7.4-.1.7-.4.7-.8v-.1ZM72.6 60.5c-.4.1-.7.3-.7.7-.1.4.2.8.6.8.4.1.8-.2.8-.6 0-.4-.3-.8-.7-.9ZM76.2 61.3c-.1-.4-.4-.7-.8-.7-.4.1-.7.4-.7.8v.1c.1.4.4.7.8.7.4-.1.7-.4.7-.8v-.1ZM73.2 95.1H83v-8.4h-9.8v8.4Z" fill="#fff"/><path d="M88.3 95h9.8V81.8h-9.8V95Z" fill="#C7C7C7"/><path d="M103.3 95.1h9.8V76.5h-9.8v18.6Z" fill="#FAFAFA"/><path d="M118.4 95.3h9.8V70.7h-9.8v24.6Z" fill="#E0E0E0"/><path d="M72.1 103.4h59.2v-5.6H72.1v5.6Z" fill="#fff"/><path d="M248.002 109.396v-.2l.9-7.4c2.8 1.4 5.9 2.3 13.1.2 12-3.5 14.5-21.2 16-31.7l.2-1.1c.8-5.9-.4-11.2-3.6-15.4-4-5.2-10.7-8.5-20-9.7-18.1-2.4-24.2 18.2-25.2 22-2.5.9-3.6 3.6-3.6 3.7-.9 1.9-1 3.7-.3 5.4 1.1 2.8 4.2 4.6 5.7 5.3l-6.6 24.7c-.2.6-2.4 9.1 6.4 12 1.4.4 3.2.7 5 .7 1.2 0 2.5-.2 3.9-.6 3.1-1.2 6.9-4.3 8.1-7.9Zm-17.006-42.4c-.1.4-.4.7-.8.8-1.9.4-2.8 2.7-2.8 2.7-.7 1.4-.7 2.6-.3 3.8 1.2 2.9 5.4 4.6 5.4 4.6.5.2.7.7.6 1.2l-6.6 25.6c-.1.3-2.1 7.3 5 9.6 3 .7 5.7.8 7.3.1 3.1-1.2 6.1-4 6.9-6.6l1.1-8.7c0-.3.2-.6.5-.8.3-.2.6-.1.9 0 2.9 1.5 5.4 2.8 12.9.7 10.8-3.1 13.2-20 14.6-30.1l.2-1.1c.5-3.8.4-9.2-3.2-13.9-3.6-4.7-9.9-7.7-18.6-8.9-18-2.4-23.1 20.8-23.1 21Z" fill="#142D6E"/><path d="M263.8 100.1c8.1 2.4 19.4-2.5 19.4-2.5l-7.4-19.7c-.9 17.1-12 22.2-12 22.2ZM241.9 69.6c12.8 3.9 17.6-14.9 17.6-14.9 6.5 14.6 23 12 23 12 1.4-29.4-24.1-30-24.2-30-36.1-20.1-58.7 39.7-58.7 39.7 6 17 29.5 16.4 29.5 16.4l2.6-13c-9.5-7.2-4.4-10.8-1.2-12.1 1.2-.4 2.8-.1 2.8-.1.4 8.5 2.7 10.8 5.8 10.3 3.4-.5 2.8-8.3 2.8-8.3Z" fill="#142D6E"/><path d="M224.998 76.17a4.305 4.305 0 0 0 2.336 5.614 4.307 4.307 0 0 0 5.615-2.336 4.307 4.307 0 0 0-2.337-5.615 4.306 4.306 0 0 0-5.614 2.337Z" fill="#FFC412"/><path d="M267.673 73.564a6.099 6.099 0 0 0 3.315 7.965 6.098 6.098 0 0 0 7.964-3.315 6.098 6.098 0 0 0-3.315-7.964 6.098 6.098 0 0 0-7.964 3.314Z" fill="#fff"/><path d="M279.805 78.705c1.5-3.6-.21-7.7-3.81-9.2-3.59-1.5-7.69.2-9.19 3.8-.7 1.7-.7 3.7 0 5.4.7 1.7 2.1 3.1 3.8 3.8.89.3 1.8.5 2.7.5 2.79 0 5.39-1.7 6.5-4.3Zm-8.408 1.893c2.6 1.1 5.6-.2 6.6-2.8 1.1-2.6-.2-5.6-2.8-6.6-2.6-1.1-5.5.2-6.6 2.8-1.1 2.6.2 5.6 2.8 6.6Z" fill="#142D6E"/><path d="M272.707 77.872c-.5.724-.317 1.726.407 2.226.725.5 1.726.316 2.226-.408s.317-1.726-.407-2.226a1.605 1.605 0 0 0-2.226.408ZM280.197 75.498l3.1-1c.5-.2.8-.8.6-1.3-.2-.5-.8-.8-1.3-.6l-3.1 1c-.5.2-.8.8-.6 1.3.1.4.5.7.9.7.1 0 .2 0 .4-.1ZM278.9 73.1l3-3.1c.4-.4.4-1 0-1.4-.4-.4-1-.4-1.4 0l-3 3.1c-.4.4-.4 1 0 1.4.2.2.4.3.7.3.3 0 .6-.1.7-.3Z" fill="#142D6E"/><path d="M250.954 70.743a6.099 6.099 0 0 0 3.315 7.964 6.098 6.098 0 0 0 7.964-3.315 6.098 6.098 0 0 0-3.314-7.964 6.1 6.1 0 0 0-7.965 3.315Z" fill="#fff"/><path d="M263.105 75.895c1.5-3.59-.2-7.7-3.8-9.2-1.7-.7-3.7-.7-5.4 0-1.7.7-3.11 2.1-3.8 3.8-.7 1.7-.7 3.7 0 5.4.7 1.7 2.1 3.1 3.8 3.8.89.3 1.8.5 2.7.5 2.7 0 5.4-1.7 6.5-4.3Zm-8.51-7.495c-1.3.5-2.2 1.5-2.7 2.8-.5 1.3-.5 2.6 0 3.9.5 1.3 1.5 2.2 2.8 2.7 2.6 1.1 5.6-.2 6.6-2.8 1.1-2.6-.2-5.6-2.8-6.6-.6-.3-1.3-.4-1.9-.4-.7 0-1.3.1-2 .4Z" fill="#142D6E"/><path d="M256.489 74.95c-.5.724-.316 1.725.408 2.225s1.725.317 2.225-.407.317-1.726-.407-2.226a1.605 1.605 0 0 0-2.226.407ZM252.901 68.402c.4-.2.6-.8.4-1.3l-1.5-2.9c-.2-.4-.8-.6-1.3-.4-.4.2-.6.8-.4 1.3l1.5 2.9c.2.4.5.6.9.6.2 0 .3-.1.4-.2ZM256.2 67v-4.3c0-.5-.4-1-1-1s-1 .4-1 1V67c0 .5.4 1 1 1 .5 0 1-.4 1-1ZM269.701 81.705c.9-1.7-.7-3.4-1.6-4.1l.4-5.4c.1-.6-.3-1.1-.9-1.1-.6-.1-1.1.3-1.1.9l-.5 5.9c0 .4.1.7.4.9.9.6 1.7 1.6 1.5 1.9-.2.3-.4.5-.7.6-.5.2-1.2 0-2-.5-.5-.3-1.1-.2-1.4.3-.3.5-.2 1.1.3 1.4.9.6 1.9.9 2.7.9.3 0 .6-.1 1-.1.8-.3 1.5-.8 1.9-1.6Z" fill="#142D6E"/><path d="M264.404 66.105c.5-.3.5-1 .2-1.4-.1-.2-2.7-3.5-7.6-2.6-.5.1-.9.7-.8 1.2.1.5.7.9 1.2.8 3.6-.7 5.5 1.7 5.6 1.8.2.3.5.4.8.4.2 0 .4 0 .6-.2ZM278.604 69.105c.5-.3.5-1 .2-1.4-.1-.2-2.7-3.5-7.6-2.6-.5.1-.9.7-.8 1.2.1.5.7.9 1.2.8 3.6-.7 5.5 1.7 5.6 1.8.2.3.5.4.8.4.2 0 .4-.1.6-.2ZM264.101 87c-.2.4-.8 1.4-1.4 1.6-.2.1-.3.1-.5 0-.4-.2-.7-.5-.8-.9-.2-.7-.1-1.8.4-2.8.3-.4 0-1-.4-1.3-.4-.3-1.1-.1-1.3.4-.8 1.5-.9 3.1-.5 4.4.4.9 1 1.6 1.9 2 .4.1.7.2 1.1.2.3 0 .7 0 .8-.1 1.5-.6 2.4-2.5 2.5-2.7.2-.5 0-1.1-.5-1.3-.5-.2-1.1 0-1.3.5Z" fill="#142D6E"/><path d="m258.7 35-3.5-.5-.1 1.8 4.9.6-1.3-1.9Z" fill="#E2A40A"/><path d="M245.501 31.201c-19.9 20.3-12.7 35.8-12.7 35.8 1-25.7 25.9-32 25.9-32-6.1-8.2-13.2-3.8-13.2-3.8Z" fill="#FFC412"/><path d="M342.5 97.5c0-6.7-5.5-12.2-12.2-12.2-6.7 0-12.2 5.5-12.2 12.2 0 6.7 5.5 12.2 12.2 12.2 6.8 0 12.2-5.5 12.2-12.2Zm-22.4.1c0 5.6 4.6 10.2 10.2 10.2s10.2-4.6 10.2-10.2-4.5-10.2-10.2-10.2c-5.6 0-10.2 4.6-10.2 10.2Z" fill="#03D5B7"/><path d="M260 157.7c0-4.3-3.4-7.7-7.7-7.7-4.3 0-7.7 3.4-7.7 7.7 0 4.3 3.5 7.7 7.7 7.7 4.3 0 7.7-3.4 7.7-7.7Zm-13.4 0c0 3.1 2.5 5.7 5.7 5.7 3.1 0 5.7-2.5 5.7-5.7 0-3.1-2.5-5.7-5.7-5.7-3.1 0-5.7 2.5-5.7 5.7ZM84.097 131.397c.2-.5-.2-1.1-.7-1.2l-34.1-8.2c-.5-.2-1 .2-1.2.7-.2.5.2 1.1.7 1.2l34.1 8.2h.2c.4 0 .8-.3 1-.7Z" fill="#FFC412"/><path d="M366.101 122.501c.3-.5.2-1.1-.3-1.4l-16-10.7c-.5-.3-1.1-.2-1.4.3-.3.5-.2 1.1.3 1.4l16 10.7c.2.1.4.2.6.2.4 0 .7-.1.8-.5Z" fill="#03D5B7"/><path d="M282.997 120.897c-3.2-3.4-5.8-5.3-11.9-7.8-6.7-2.7-13.4-5.2-17.5-6.7-.8-.3-1.7-.6-2.6-.8l-2.8-.7c-.5-.2-1.1.2-1.2.7-.2.5.2 1.1.7 1.2l2.8.7c.8.2 1.6.4 2.4.7 4.1 1.5 10.8 4 17.4 6.7 5.9 2.4 8.1 4.1 11.3 7.3l21 20.8c-1.2 2.3-6 10.8-17.1 16.6-.5.3-.7.9-.4 1.4.2.3.5.5.9.5.2 0 .3-.1.4 0 13.5-7.1 18.1-17.8 18.3-18.2.2-.4.1-.8-.2-1.1l-21.5-21.3Z" fill="#142D6E"/><path d="M304 145.595c-.4-.4-1-.3-1.4.1-.4.4-.3 1 .1 1.4.3.2 23.3 19.7 29.7 28.3l.4.5c4.4 5.9 11.7 15.9 9.6 25-1.2 4.9-4.9 9.1-11.2 12.4-19.9 10.5-67.2 14.4-76.5 15.1-1.3.1-2.5-.4-3.3-1.2-.3-.3-.6-.7-.6-1.2 0-.4.3-.8.7-1.2.4-.4.4-1 0-1.4-.4-.4-1-.4-1.4 0-.8.8-1.3 1.7-1.3 2.6 0 1 .4 1.9 1.2 2.7 1.1 1.2 2.7 1.8 4.4 1.8.2 0 .3 0 .6-.1 9.3-.7 57-4.6 77.2-15.3 6.9-3.6 11-8.2 12.2-13.7 2.3-10-5.4-20.4-10-26.6l-.4-.5c-6.5-8.9-29-27.9-30-28.7Z" fill="#142D6E"/><path d="M231.4 204.203c2 1.7 6.3 3.4 14.9 3.4 4.4 0 10-.4 16.9-1.8.5 0 .9-.6.8-1.1 0-.5-.6-.9-1.1-.8-21.8 3.4-28.4.2-30.3-1.4-.9-.7-1.3-1.4-1.3-2.2 0-1.5.3-2.5 1.1-3.2 2-1.8 7.4-2.1 15.8-.9.9.2 1.9.3 2.9.5 3.4.6 7.1 1.1 10.9 1.5 15 1.5 31.9 1.1 35.9-3.3.8-.9 1.1-1.9.9-3-1.4-7.4-11.5-12.3-11.9-12.5-.5-.2-1.1 0-1.3.5-.2.5 0 1.1.5 1.3.1 0 9.6 4.7 10.8 11.1.1.5 0 .9-.4 1.3-2.9 3.2-17.6 4.3-34.2 2.7-3.8-.4-7.4-.9-10.7-1.5-1.1-.2-2.1-.4-3-.5-9.3-1.3-14.8-.9-17.4 1.4-1.7 1.5-1.8 3.5-1.8 4.8.1.9.4 2.4 2 3.7Z" fill="#142D6E"/><path d="M242.195 207.003c-.1.2-1.6 3.8.8 6.5 1.5 1.7 4.3 2.6 8.3 2.6 4.1 0 9.4-.9 15.9-2.7.5-.1.8-.7.7-1.2-.1-.5-.7-.8-1.2-.7-15.9 4.4-20.7 2.3-22.2.7-1.6-1.8-.5-4.3-.5-4.4.2-.5 0-1.1-.5-1.3-.5-.2-1.1 0-1.3.5Z" fill="#142D6E"/><path d="M246.596 216.603c.2-.5 0-1.1-.5-1.3-.5-.2-1.1 0-1.3.5-.1.2-1.6 3.8.8 6.5 1.5 1.7 4.3 2.6 8.3 2.6 4.1 0 9.4-.9 15.9-2.7.5-.1.8-.7.7-1.2-.1-.5-.7-.8-1.2-.7-15.9 4.4-20.7 2.3-22.2.7-1.6-1.8-.5-4.3-.5-4.4ZM268.395 196.095c-5.2-5-10.3-7.3-15.1-6.9-5.6.4-8.7 4.3-8.8 4.5-.3.4-.2 1.1.2 1.4.4.3 1.1.2 1.4-.2.1 0 2.7-3.4 7.4-3.7 4.2-.4 8.8 1.8 13.5 6.3.2.2.5.3.7.3.2 0 .5-.1.7-.3.4-.4.4-1 0-1.4ZM123.903 124.205c9-4.7 38.9-20.7 48.1-27.1 10.4-7.1 24.1-3.7 24.2-3.7l30.1 8.7c.5.1 1-.2 1.2-.7.1-.5-.2-1-.7-1.2l-30.2-8.7c-.6-.2-14.7-3.7-25.8 4-9.2 6.3-39 22.3-47.9 27-3 1.6-5.4 4-6.7 6.9-1.7 3.7-2.4 9.2 3.9 14.3.2.1.4.2.6.2.3 0 .6-.1.8-.4.4-.4.3-1.1-.1-1.4-4.2-3.5-5.3-7.5-3.3-11.9 1.1-2.5 3.2-4.6 5.8-6ZM256.7 143v-12c0-.6-.4-1-1-1s-1 .4-1 1v12c0 .6.4 1 1 1 .5 0 1-.5 1-1Z" fill="#142D6E"/><path d="M166.597 127.497c.1-.6-.3-1.1-.9-1.1-14.4-1.3-19.2-14.2-19.4-14.7-.2-.5-.8-.8-1.3-.6-.5.2-.8.8-.6 1.3.1.1 5.4 14.6 21.2 16 .5 0 .9-.4 1-.9Z" fill="#142D6E"/><path d="M217 138.1c1.8.6 7.2 3 7.9 5.2.7 2 2.4 3.5 4.2 3.7h.3c1.3 0 2.4-.7 3.2-1.9.6-1.2.8-2.6.3-4-4.4-13-27.3-13.3-28.3-13.3l-62.6-.5c-.6 0-1 .5-1 1s.4 1 1 1l62.6.5c.2 0 22.5.2 26.4 11.9.2.8.2 1.7-.2 2.4s-.9 1-1.5.9c-1-.1-2.1-1.1-2.5-2.3-1.2-3.8-9-6.5-9.1-6.5-.6-.2-1.1.1-1.3.6-.2.6.1 1.1.6 1.3Z" fill="#142D6E"/><path d="m215.201 141.201-6.2-4c-.5-.3-1.1-.2-1.4.3-.3.5-.2 1.1.3 1.4l6.2 4c3.1 2 5.5 2.5 7.4 2.5 2.3 0 3.6-.8 3.7-.9.5-.3.6-.9.3-1.4-.3-.5-.9-.6-1.4-.3-.1 0-3.3 2-8.9-1.6Z" fill="#142D6E"/><path d="M214.299 143.799c.4-.3.5-1 .2-1.4-.3-.4-1-.5-1.4-.2-.1 0-3.2 1.8-11.8-2.8-.5-.3-1.1-.1-1.4.4-.3.5-.1 1.1.4 1.4 5 2.7 8.4 3.4 10.6 3.4 2.2 0 3.2-.7 3.4-.8ZM166.501 129.001l5.8-8.6c.3-.5.2-1.1-.3-1.4-.5-.3-1.1-.2-1.4.3l-5.8 8.6c-.3.5-.2 1.1.3 1.4.2.1.4.2.6.2.3 0 .7-.2.8-.5Z" fill="#142D6E"/><path d="M255.1 266.8h48.5v-32h-48.5v32Z" fill="#EBEBEB"/><path d="M262.298 246.295c2.1.4 4.1-.9 4.5-3 .4-2.1-.9-4.1-3-4.5-.5-.1-1-.1-1.5 0-1.6.3-2.7 1.5-3 3-.4 2.1.9 4.1 3 4.5Z" fill="#fff"/><path d="m303.6 259.9-16.2-17.2-16.3 17.2h32.5Z" fill="#C7C7C7"/><path d="m283.9 260-14.4-11.3-14.4 11.3h28.8Z" fill="#DBDBDB"/><path d="M255.1 266.8h48.5v-6.9h-48.5v6.9Z" fill="#DBDBDB"/><path d="M219.9 218.8v-63c0-1.3-1.1-2.4-2.4-2.4h-53.8c-1.3 0-2.4 1.1-2.4 2.4v63c0 1.3 1.1 2.4 2.4 2.4h53.8c1.3 0 2.4-1.1 2.4-2.4Z" fill="#03D5B7"/><path d="M199.1 181.595c.3-.4.2-1.1-.2-1.4-.4-.3-1.1-.2-1.4.2-.4.5-.8.9-1.3 1.3-.3.2-.4.5-.4.8 0 .3.2.6.4.8l1.5 1.2c.2.1.5.2.7.2.3 0 .6-.1.9-.4.4-.4.3-1-.1-1.4-.2-.2-.5-.4-.7-.6.2-.2.4-.4.6-.7ZM200.101 178.505c.4 0 .8-.3.8-.7.3-.9.4-1.8.4-2.8 0-.6 0-1.1-.1-1.6 0-.5-.6-.9-1.1-.8-.5 0-.9.6-.8 1.1.1.4.1.9.1 1.3 0 .8-.1 1.5-.3 2.3-.1.5.2 1.1.7 1.2h.3ZM181.1 178.405c.5-.1.8-.7.7-1.2-.2-.7-.3-1.5-.3-2.3 0-.4 0-.9.1-1.3.1-.5-.3-1-.8-1.1-.5-.1-1 .3-1.1.8-.1.5-.1 1.1-.1 1.6 0 .9.2 1.9.4 2.8.2.4.6.7 1 .7h.1ZM199.403 170.603c.4-.3.6-.9.3-1.4-.8-1.3-1.8-2.3-3-3.2-.5-.4-1.1-.3-1.4.2-.4.5-.3 1.1.2 1.4 1 .7 1.9 1.6 2.5 2.6.2.3.6.5.9.5.2 0 .4 0 .5-.1ZM183.001 170.196c.7-1 1.5-1.9 2.5-2.6.4-.3.5-.9.2-1.4-.3-.4-.9-.5-1.4-.2-1.2.9-2.2 1.9-3 3.2-.3.5-.2 1.1.3 1.4.1.1.3.1.5.1.4 0 .7-.2.9-.5ZM193.501 165.405c.1-.6-.3-1.1-.8-1.2-1.4-.3-3-.3-4.4 0-.6.1-.9.7-.8 1.2.1.6.7.9 1.2.8 1.2-.2 2.4-.2 3.6 0h.2c.5 0 .9-.3 1-.8ZM183.595 180.495c-.3-.5-1-.5-1.4-.2-.5.3-.5 1-.2 1.4.2.2.4.5.6.7-.3.2-.5.4-.7.6-.4.4-.5 1-.1 1.4.2.2.5.3.8.3.3 0 .5-.1.8-.1l1.5-1.2c.2-.2.4-.5.4-.8 0-.3-.2-.6-.4-.8-.5-.4-.9-.8-1.3-1.3ZM175.797 196.803c.2-1.2.6-2.4 1.1-3.5.2-.5 0-1.1-.5-1.3-.5-.2-1.1 0-1.3.5-.6 1.2-1 2.5-1.3 3.8-.2.5.2 1.1.7 1.2h.2c.4 0 .8-.3 1.1-.7ZM178.601 189.895c.7-1 1.4-2 2.2-2.9.4-.4.3-1-.1-1.4-.4-.4-1-.3-1.4.1-.9 1-1.7 2.1-2.4 3.2-.3.5-.2 1.1.3 1.4.1.2.3.2.5.2.3 0 .6-.2.9-.6ZM175 201.305c.1-.3.1-.6.1-.9.1-.6-.3-1.1-.9-1.1-.6-.1-1.1.3-1.1.9-.1.7-.1 1.4-.1 2.1 0 .6.4 1 1 1h2c.6 0 1-.4 1-1s-.4-1-1-1h-1ZM201.9 202.3c0-.6-.4-1-1-1h-4.2c-.6 0-1 .4-1 1s.4 1 1 1h4.2c.6 0 1-.4 1-1ZM193.6 202.3c0-.6-.4-1-1-1h-4.2c-.6 0-1 .4-1 1s.4 1 1 1h4.2c.6 0 1-.4 1-1ZM185.3 202.3c0-.6-.4-1-1-1h-4.2c-.6 0-1 .4-1 1s.4 1 1 1h4.2c.6 0 1-.4 1-1ZM205.1 201.297c-.6 0-1 .4-1 1s.4 1 1 1h2c.5 0 1-.5 1-1 0-.7 0-1.4-.1-2.1-.1-.5-.5-1-1.1-.9-.5.1-.9.5-.9 1.1.1.3.1.6.1.9h-1ZM206.603 197.404c.5-.1.8-.7.7-1.2-.3-1.3-.7-2.6-1.2-3.8-.2-.5-.8-.7-1.3-.5-.5.2-.7.8-.5 1.3.4 1.1.8 2.3 1.1 3.5.1.5.5.8 1 .8.1 0 .1 0 .2-.1ZM203.995 190.396c.5-.3.6-.9.3-1.4-.7-1.1-1.5-2.2-2.4-3.2-.4-.4-1-.5-1.4-.1-.4.4-.5 1-.1 1.4.8.9 1.6 1.9 2.2 2.9.1.3.5.5.8.5.2 0 .4-.1.6-.1ZM213.6 207.6v-.6c0-.7-.6-1.3-1.3-1.3h-43.5c-.6 0-1.2.6-1.2 1.3v.6c0 .7.5 1.3 1.2 1.3h43.5c.6 0 1.2-.5 1.3-1.3ZM213.6 214.9v-.6c0-.7-.6-1.3-1.3-1.3h-43.5c-.6 0-1.2.6-1.2 1.3v.6c0 .7.5 1.3 1.2 1.3h43.5c.6 0 1.2-.6 1.3-1.3Z" fill="#fff"/><path d="m217 209.9 1.2-4.7 6.7 6.1 2-2.3-6.7-6 4.3-1.9-14-5.2 6.5 14Z" fill="#FFC412"/><path d="M98.1 267.3h48.5v-83.1H98.1v83.1Z" fill="#fff"/><path d="M98.1 191.2h48.5v-7H98.1v7ZM117.6 206.201l-11.2-8.4c-.3-.3-.8-.3-1.1-.1-.3.2-.5.6-.5 1l1 13.6c0 .4.3.8.7.9h.3c.3 0 .6-.2.9-.4l3.5-4.6 5.9-.2c.4 0 .8-.3.9-.7.1-.4-.1-.8-.4-1.1Zm-10 3.299 2.2-2.9c.2-.2.5-.4.8-.4l3.5-.1-7.2-5.4.7 8.8Z" fill="#FFC412"/><path d="M128.2 197.801c-.3-.3-.8-.3-1.1-.1-.3.2-.5.6-.5 1l1 13.6c0 .4.3.8.7.9h.3c.3 0 .6-.2.9-.4l3.5-4.6 5.9-.2c.4 0 .8-.3.9-.7.1-.4-.1-.8-.4-1.1l-11.2-8.4Zm1.2 11.699 2.2-2.9c.2-.2.5-.4.8-.4l3.5-.1-7.2-5.4.7 8.8Z" fill="#142D6E"/><path d="M147.8 264.1v-77.3c0-2-1.6-3.6-3.6-3.6h-43.8c-2 0-3.6 1.6-3.6 3.6v77.3c0 2 1.6 3.6 3.6 3.6h43.9c1.9 0 3.5-1.6 3.5-3.6Zm-49-77.3v77.3c0 .9.7 1.6 1.6 1.6h43.8c.9 0 1.6-.7 1.6-1.6v-77.3c0-.9-.7-1.6-1.6-1.6h-43.8c-.9 0-1.6.7-1.6 1.6Z" fill="#142D6E"/><path d="M141.5 229.5c0-4.9-3.9-8.8-8.8-8.8s-8.8 3.9-8.8 8.8 4 8.8 8.8 8.8c4.8 0 8.8-3.9 8.8-8.8Zm-15.6.1c0 3.8 3 6.8 6.8 6.8s6.8-3 6.8-6.8-3.1-6.8-6.8-6.8c-3.7 0-6.8 3-6.8 6.8ZM120.2 256.3v-11c0-.6-.4-1-1-1h-14.8c-.6 0-1 .4-1 1v11c0 .6.4 1 1 1h14.8c.5 0 1-.4 1-1Zm-2-1v-9h-12.8v9h12.8Z" fill="#FFC412"/><path d="M119.295 236.495c.4-.3.5-1 .1-1.4l-11.5-14c-.3-.4-1-.5-1.4-.1-.4.3-.5 1-.1 1.4l11.5 14c.2.3.5.4.8.4.2 0 .4 0 .6-.3ZM127.595 255.296l11.5-8.8c.5-.3.5-1 .2-1.4-.3-.5-1-.5-1.4-.2l-11.5 8.8c-.5.3-.5 1-.2 1.4.2.3.5.4.8.4.2 0 .4-.1.6-.2ZM157.896 80.603c.2.2.4.3.7.3.1 0 .3 0 .4-.1l32.8-12.6c.3-.1.6-.5.6-.9s-.2-.7-.6-.9l-22.7-10.1c-.5-.2-1.1 0-1.3.5l-10.1 22.7c-.2.4-.1.8.2 1.1ZM160.5 78.1l28.3-10.9-19.6-8.7-8.7 19.6Z" fill="#03D5B7"/></g></svg>