<svg viewBox="0 0 400 300" fill="none" xmlns="http://www.w3.org/2000/svg"><mask id="a" style="mask-type:alpha" maskUnits="userSpaceOnUse" x="32" y="31" width="337" height="238"><path d="M368.5 31H32v237.2h336.5V31Z" fill="#fff"/></mask><g mask="url(#a)"><path fill-rule="evenodd" clip-rule="evenodd" d="M103.3 175.7c-2.6-1.7-5.5-3-8.6-3.6l-.5-5.8h-8l-.5 5.9c-3 .6-5.9 1.8-8.4 3.4l-4.7-4-5.7 5.7 3.9 4.6c-1.7 2.4-2.9 5.2-3.6 8.2l-6.2.5v8l5.9.5c.5 3.1 1.6 6 3.2 8.5l-3.9 4.5 5.7 5.7 4.3-3.6c2.5 1.9 5.4 3.2 8.6 3.9l.4 5.5h8l.4-5.2c3.3-.5 6.4-1.7 9.1-3.5l4 3.4 5.7-5.7-3.3-3.9c1.9-2.7 3.3-5.7 3.9-9l5.5-.4v-8l-5.2-.4c-.6-3.3-1.9-6.3-3.7-8.9l3.6-4.2-5.7-5.7-4.2 3.6Zm-13 8.3c-6.1 0-11 4.9-11 11s4.9 11 11 11c6 0 10.9-4.9 10.9-10.9 0-6.1-4.8-11.1-10.9-11.1ZM348.8 220.4l-.2 2.8c-1.5.3-2.9.9-4.1 1.7l-2.3-1.9-2.8 2.8 1.9 2.2c-.8 1.2-1.4 2.5-1.7 4l-3 .2v3.9l2.9.2c.2 1.5.8 2.9 1.6 4.1l-1.9 2.2 2.8 2.8 2.1-1.8c1.2.9 2.6 1.6 4.2 1.9l.2 2.7h3.9l.2-2.5c1.6-.2 3.1-.8 4.4-1.7l1.9 1.7 2.8-2.8-1.6-1.9c.9-1.3 1.6-2.8 1.9-4.4l2.5-.3v-3.9l-2.5-.2c-.3-1.6-.9-3.1-1.8-4.3l1.7-2-2.8-2.7-2 1.7c-1.2-.8-2.7-1.4-4.2-1.7l-.2-2.8h-3.9Zm2 8.6c-2.9 0-5.3 2.4-5.3 5.3s2.4 5.3 5.3 5.3 5.3-2.4 5.3-5.3c0-3-2.4-5.3-5.3-5.3ZM337 90.8s-5.6-10.2-12-10.2-14.2 7.7-14.2 7.7-3.6-14.2-15.2-14.2-19.1 20.5-19.1 20.5h75.7c-6.3-9.3-15.2-3.8-15.2-3.8ZM305 47.2c-4-.7-8.4 2.9-8.4 2.9s-1.9-7.6-8.1-7.6c-6.2 0-14.1 11.5-14.1 11.5h35.4s-.7-6.1-4.8-6.8ZM131.5 83.7s-4-7.9-9.1-7.9-11.6 6-11.6 6-4.8-17-14.9-15.7c-10.1 1.3-19.5 22.4-19.5 22.4h68.9c-3.5-10.2-13.8-4.8-13.8-4.8ZM66.3 56.198s-4.5-11.8-13.2-11.6c-8.7.2-16.7 15.5-16.7 15.5H83c-3.2-14.7-16.7-3.9-16.7-3.9Z" fill="#EBEBEB"/><path fill-rule="evenodd" clip-rule="evenodd" d="M217.898 137.804s-3.9 1.3-5.8 3.8c-8.3-11.6-15.9-22-20.5-26.7-10.8-11.2-15.1-6-12.8 6.1 4.3 22.9 24.7 94.9 46.8 102.9h.1c5.7 2.2 13.9 1.7 18.5-4.2 4.4-5.6 20.9-28.6 28.6-55.4 2.4-5.9 6.2-19.6-4.3-32.8-5.7-7.2-19.3-20.2-46.8-18.4-6.5.4-15.5 5.7-4.6 8.8 4.7 1.4 8.6 1.6 12 2-9 1-18.4 3.6-18.5 8.7-.1 5.3 7.3 5.2 7.3 5.2ZM222.9 157.2c.7 1.1 1.5 2.2 2.2 3.2.3-1.2.5-2.4.7-3.5-1 .1-2 .2-2.9.3Zm-5.7-8.1c0 .1.1.1.1.2.2-.1.3-.2.3-.2h-.4Z" fill="#fff"/><path fill-rule="evenodd" clip-rule="evenodd" d="M177.496 121.199c4.5 23.9 24.9 95.6 47.5 103.8h.1c2.1.8 4.5 1.3 7 1.3 4.7 0 9.6-1.7 12.8-5.8.8-1 20.2-25.7 28.8-55.7 2.4-5.7 6.6-20.2-4.4-34-7.6-9.5-22-20.5-47.8-18.8-4.1.3-10.3 2.6-10.7 6-.2 2.1 1.8 3.8 5.9 5 1.6.5 3.2.8 4.6 1.1-6 1.4-11.8 3.9-11.9 8.5 0 1.6.5 2.9 1.6 4 .9.8 2 1.4 3.1 1.7-.7.4-1.4.9-2 1.5-9.5-13.3-15.9-21.7-19.8-25.7-5.3-5.5-9.5-7.6-12.4-6.1-2.9 1.5-3.7 6.2-2.4 13.2ZM271.6 163.9c2.7-6.5 5.8-19.3-4.1-31.8-7.2-9.1-21.1-19.6-45.9-18-4.2.3-8.5 2.5-8.7 4-.1.6 1 1.7 4.3 2.7 3.6 1.1 6.8 1.4 9.6 1.7.8.1 1.5.2 2.2.3.6.1 1 .6 1 1.1 0 .6-.4 1-1 1.1-10.7 1.2-17.4 4.1-17.5 7.6 0 1 .3 1.8.9 2.4 1.7 1.7 5.2 1.6 5.2 1.6.5 0 1 .4 1.1.9.1.5-.2 1.1-.7 1.2 0 0-3.6 1.2-5.3 3.4-.2.3-.5.4-.9.4s-.7-.2-.9-.5c-9.8-13.8-16.5-22.5-20.4-26.6-3.5-3.5-6.6-5.6-8.6-5.6-.4 0-.7.1-1 .2-1.4.7-2.5 4-1.2 10.8 5.1 27 25.6 94.7 46.1 102.1h.1c5.3 2 12.9 1.6 17.3-3.9.8-1 19.9-25.4 28.4-55v-.1Zm-46.499-2.4c.1 0 .2 0 .2-.1.5-.1.8-.5.9-.9.3-1.3.5-2.4.7-3.5 0-.3-.1-.6-.3-.9-.2-.3-.6-.4-.9-.4-1 .1-2 .2-2.9.3-.4.1-.7.3-.9.7-.2.4-.1.8.1 1.1l2.2 3.2c.2.3.5.5.9.5Zm-7.2-11.3c.1 0 .2-.1.2-.1.4-.3.6-.8.5-1.3-.1-.5-.6-.8-1.1-.8h-.3c-.4 0-.7.3-.9.7-.2.3-.1.9.1 1.2.2.3.5.5.9.5.2 0 .5-.1.6-.2Z" fill="#142D6E"/><path fill-rule="evenodd" clip-rule="evenodd" d="M228.698 157.697s-25.2-33.4-38.2-45.4c-13.6-12.4-20.2-10.7-13.9 12.9 6.3 23.7 11.5 37.1 11.5 37.1l40.6-4.6Z" fill="#fff"/><path fill-rule="evenodd" clip-rule="evenodd" d="M175.696 104.201c-3.4 2.1-3.5 9-.2 21.3 6.3 23.5 11.5 37.1 11.6 37.2.1.4.5.7 1 .7h.2l40.6-4.6c.4-.1.7-.3.9-.7.2-.4.1-.8-.1-1.1-.3-.3-25.5-33.6-38.4-45.5-7.4-6.8-12.5-9.2-15.6-7.3Zm1.102 1.899c-1.1.7-3.2 3.8.8 18.8 5.4 20.1 10 33 11.2 36.2l37.8-4.3c-5.1-6.7-25.7-33.4-36.9-43.7-6.6-6-10-7.3-11.7-7.3-.6 0-.9.1-1.2.3Z" fill="#142D6E"/><path fill-rule="evenodd" clip-rule="evenodd" d="M181.7 108.002c-5.3-5.9-17-11-27.7-3.1-41.8 30.9-66.7 128.1-66.7 128.1l109.3-3.9c.3-.3-1.5-106.1-14.9-121.1Z" fill="#fff"/><path fill-rule="evenodd" clip-rule="evenodd" d="M153.301 104.097c-41.7 30.7-66.9 127.7-67.1 128.7-.1.4 0 .7.2 1 .2.2.6.4.9.4l109.3-3.8c.3-.1.6-.2.8-.4.3-.4.6-.6 0-17.8-.3-9.1-.9-23.1-2-38.2-2.8-37.8-7.1-60.2-12.9-66.7-5.2-5.7-17.7-11.7-29.2-3.2Zm1.399 1.703C116.4 134 92.1 219.7 88.8 231.9l106.8-3.8c.1-11-2.6-105.8-14.7-119.3-3-3.4-8.7-6.8-15.1-6.8-3.6 0-7.4 1.1-11.1 3.8Z" fill="#142D6E"/><path fill-rule="evenodd" clip-rule="evenodd" d="M247.705 75.704c1.4-.2 2.4-1.6 2.2-3-.2-1.4-1.6-2.4-3-2.2-1.4.2-2.4 1.5-2.2 3 .2 1.4 1.6 2.4 3 2.2Z" fill="#fff"/><path fill-rule="evenodd" clip-rule="evenodd" d="M222.502 200.905c.6-.3.9-.9.6-1.5-6.5-14.8 3-38.4 3.1-38.6.2-.6 0-1.3-.6-1.5-.6-.2-1.3 0-1.5.6-.4 1-10 24.6-3 40.29.2.5.6.7 1 .7.1 0 .3 0 .4.01Z" fill="#142D6E"/><path fill-rule="evenodd" clip-rule="evenodd" d="M33.098 258.797c1.1 2.9 6.9 1.2 6.9 1.2s-3.8 2.3-2.9 4.5c2 5 15.9 1.5 21.9.4 2.2-.4 7-1.6 12-3 .5 2.2 2.9 3.9 9.9 3.9 8.5 0 25.5.4 28.7-1.6 3-1.9 7.1-13.4 8.2-20.1 5.5-15.7 34.4-92.9 38.7-122.3 2.7-17.4-8.6-13.2-15.6-3.9-15.2 20.4-44.2 78.1-53.8 97.4-2.6 5.2-6.2 10-10.7 13.7 0 0-.1 0-.1.1-3.7 3-39.5 10.4-38.7 17.2 0 .3.1.6.3.8-2.9 1.3-4.9 2.8-4.9 4.6.1 2.7 3.7 2 3.7 2s-4.6 1.8-3.6 5.1Z" fill="#fff"/><path fill-rule="evenodd" clip-rule="evenodd" d="M84.896 267.004c12.3.1 22.7 0 25.5-1.7 3.7-2.3 7.7-14.9 8.7-20.8.7-2.1 1.8-5.1 3.2-8.9 9.5-26.3 31.7-87.9 35.5-113.6 1.3-8.9-1.1-11.9-3.3-12.8-4.3-1.8-10.5 3-14.4 8.2-15.4 20.6-45.1 79.9-53.9 97.6-2.7 5.3-6.2 9.8-10.4 13.4l-.1.1c-1.1.8-6.3 2.4-11.7 4.1-16.4 5-28 9-27.4 14-3.1 1.5-4.7 3.2-4.6 5.2 0 1.2.6 1.9 1.1 2.3.1.1.3.2.5.3-1.2 1.1-2 2.7-1.4 4.7.6 2 2.6 2.5 4.4 2.5-.6.9-1 2.1-.5 3.3 1 2.5 4.1 3.3 7.8 3.3 4.2 0 9.2-1 13.4-1.6.7-.1 1.5-.3 2.1-.4 1.8-.4 5.6-1.3 11.1-2.8 1.2 2.4 4.7 3.6 10.6 3.6h3.8Zm-44.3-6.006c-.9.6-2.8 2.1-2.4 3.2 1.5 3.6 13 1.3 18.5.1.8-.2 1.5-.3 2.2-.4 1.9-.4 6-1.4 12-3 .3-.1.6 0 .9.1.3.2.4.4.5.7.2.7.7 3 8.9 3h3.8c8.1 0 21.799.1 24.299-1.4s6.5-12.3 7.7-19.3v-.2c.7-2 1.8-5.1 3.2-9 9.5-26.2 31.701-87.7 35.401-113.2.8-5.7.1-9.5-2-10.4-2.7-1.1-7.9 2.2-11.8 7.5-15.301 20.5-44.9 79.6-53.7 97.3-2.8 5.6-6.5 10.3-10.9 14.1l-.1.1c-1.4 1.1-5.4 2.3-12.4 4.5-9.2 2.8-26.3 8.1-25.9 11.7 0 .1.1.2.1.2.2.3.3.6.2 1-.1.3-.3.6-.6.7-2.8 1.2-4.3 2.5-4.2 3.6 0 .4.1.6.3.7.5.4 1.7.3 2.1.2.6-.1 1.1.2 1.3.8.2.6-.1 1.1-.7 1.4 0 0-3.6 1.5-2.9 3.7.4 1.4 3.9.9 5.4.5 0-.3.1-.3.2-.3.4 0 .8.3 1 .7.2.5 0 1.1-.4 1.4Z" fill="#142D6E"/><path fill-rule="evenodd" clip-rule="evenodd" d="M38.298 248.1c.2 0 14.2-4.4 20.3-4.8.6-.1 1-.6 1-1.2-.1-.6-.6-1-1.2-1-6.3.4-20.2 4.7-20.8 4.9-.6.2-.9.8-.7 1.4.2.5.6.8 1.1.8.1 0 .2 0 .3-.1ZM37.402 254.6c.1 0 7.5-3.3 16.6-3.8.6-.1 1.1-.6 1-1.2-.1-.6-.6-1-1.2-1-9.6.5-17.1 3.9-17.4 4-.6.3-.9.9-.6 1.5.2.5.6.7 1 .7.2 0 .4 0 .6-.2ZM41.2 260.7s6.5-3.5 20.1-4.5c.6-.1 1-.6 1-1.2-.1-.6-.6-1-1.2-1-14.2 1-20.8 4.6-21.1 4.8-.5.3-.7 1-.4 1.5.2.4.6.6 1 .6.2 0 .3-.1.6-.2ZM71 261.903c.6-.1.9-.7.8-1.3 0 0-.2-1.1.7-2.2 1-1.1 4-3 12.6-2.5.6.1 1.2-.4 1.2-1 .1-.6-.4-1.2-1-1.2-7.3-.5-12.1.6-14.4 3.3-1.3 1.6-1.4 3.4-1.2 4.2.1.6.6.9 1.1.9.1 0 .2 0 .2-.2Z" fill="#142D6E"/><path fill-rule="evenodd" clip-rule="evenodd" d="M159.1 125.399c4.2-24-2.5-25.1-15-11.6-11.9 13-34.2 48.5-34.2 48.5l40.9 1.1s4-13.8 8.3-38Z" fill="#fff"/><path fill-rule="evenodd" clip-rule="evenodd" d="M151.7 163.905c.1-.2 4.2-14.2 8.4-38.1 2.2-12.5 1.6-19.4-2-21.2-3.2-1.6-8.1 1.2-14.9 8.6-11.8 12.9-34.1 48.2-34.3 48.6-.2.3-.2.7 0 1.1.2.4.6.6 1 .6l40.9 1.1c.5 0 .9-.4.9-.7Zm-1.8-1.61c.9-3.3 4.4-16.5 8.1-37 2.7-15.3.3-18.2-.8-18.8-1-.5-4.2-.7-12.3 8.1-10.2 11.2-28.4 39.5-33 46.7l38 1ZM197.7 229.097c0-.6-.6-1.1-1.2-1-.6 0-1.1.6-1 1.2l.4 3.7-76.4 4.9c-.6.1-1 .6-1 1.2 0 .5.5 1 1.1 1l77.6-5c.3 0 .6-.2.8-.4.2-.2.3-.5.3-.8l-.6-4.8Z" fill="#142D6E"/><path fill-rule="evenodd" clip-rule="evenodd" d="M227.9 258.6h121.5l5.1-91H227.9v91Z" fill="#EAAD15"/><path fill-rule="evenodd" clip-rule="evenodd" d="m271.3 173.9-2.8-8.7h-47.2l.1 8.7 1 84.6h127l-1-84.6h-77.1Z" fill="#FFC412"/><path fill-rule="evenodd" clip-rule="evenodd" d="M192.8 176v-9.6H240l2.7 9.6h77.1v92.2h-127V176Z" fill="#00BC9C"/><path fill-rule="evenodd" clip-rule="evenodd" d="m226.8 183.7-4.4-8.8h-47.1l1.6 8.8 15.9 84.5h127l-15.9-84.5h-77.1ZM65.6 147.4c0-7-5.7-12.7-12.7-12.7-7 0-12.7 5.7-12.7 12.7 0 7 5.7 12.7 12.7 12.7 7 0 12.7-5.7 12.7-12.7Zm-22.4.1c0 5.4 4.3 9.7 9.7 9.7 5.3 0 9.7-4.3 9.7-9.7 0-5.4-4.3-9.7-9.7-9.7-5.3 0-9.7 4.3-9.7 9.7Z" fill="#03D5B7"/><path fill-rule="evenodd" clip-rule="evenodd" d="M100.598 141.797c.2-.5-.2-1.1-.7-1.2l-12.8-3.3c-.5-.2-1.1.2-1.2.7-.2.5.2 1.1.7 1.2l12.8 3.3h.3c.4 0 .9-.3.9-.7ZM364.703 160.796c1.7-1.1 3-2.7 3.5-4.7s.2-4-.8-5.8c-2.1-3.6-6.9-4.8-10.5-2.7-1.7 1.1-3 2.7-3.5 4.7s-.2 4 .8 5.8c1.1 1.7 2.7 3 4.7 3.5.6.1 1.3.2 1.9.2 1.4 0 2.7-.4 3.9-1ZM357.9 149.2c-1.3.8-2.2 2-2.6 3.5-.4 1.5-.2 3 .6 4.3.8 1.3 2 2.2 3.5 2.6 1.5.4 3 .2 4.3-.6 1.3-.8 2.2-2 2.6-3.5.4-1.5.2-3-.6-4.3-1-1.8-2.9-2.8-4.9-2.8-1 0-2 .3-2.9.8ZM78.1 134.6l24.9-24.7c.4-.4.4-1 0-1.4-.4-.4-1-.4-1.4 0l-24.9 24.7c-.4.4-.4 1 0 1.4.2.2.4.3.7.3.2 0 .5-.1.7-.3Z" fill="#FFC412"/><path fill-rule="evenodd" clip-rule="evenodd" d="M189.398 41.704c-1.7 1.8-3.3 3.7-4.6 5.7-2.5 1.1-4.8 2.7-6.6 4.9-2.5 2.9-5 8.8-6.8 15.3-.9-1.2-2-1.6-3.3-1.9-7.9-1.9-10.4 9-4.9 13.7.5.6 4.5 4 5.2 4.2-.2 2.9-.1 5.5.3 7.5-3 6-6.4 12.6-6.3 12.9 1.1 8.4 7.2 20.6 13.3 21.5 5.9.9 10.8-14.6 10.9-15.2.4-1.1.9-2.1 1.4-3.2 3.6.3 14.3 1.2 17.8-1.7 5.1-4.1 11-38.9 11.3-42.9.5-4.8.1-8.9-1.1-11-5-8.6-16.7-12.4-26.6-9.8Z" fill="#fff"/><path fill-rule="evenodd" clip-rule="evenodd" d="M188.395 40.902c-1.6 1.7-3.1 3.6-4.5 5.6-2.6 1.2-4.9 2.9-6.7 5-2.2 2.6-4.6 7.7-6.5 14-.7-.5-1.6-.7-2.4-.9-3.5-.9-6.6.5-8.2 3.6-1.7 3.4-1.4 8.8 2.3 12 .5.5 3.2 2.9 4.8 4-.1 2.6 0 4.9.3 6.7l-1.5 3.1c-4.8 9.6-4.8 9.7-4.7 10.2 1.1 8.3 7.3 21.5 14.3 22.5h.6c5.9 0 10.3-12.1 11.2-16 .3-.7.7-1.5 1.1-2.4 6.7.4 14.7.6 17.9-2 5.6-4.6 11.4-40.4 11.7-43.7.2-3.8.2-8.9-1.4-11.7-5-8.8-17-13.2-27.8-10.3-.2.1-.4.2-.5.3ZM169.7 91.598l-1.7 3.4c-1.9 3.8-4 8.1-4.4 9.1 1.1 8.4 7.1 19.6 12.3 20.3 3.3.5 7.3-7.1 9.7-14.4v-.1c.4-1 .9-2.1 1.5-3.3.2-.4.6-.6 1.1-.6h.5c3.4.2 13.6 1 16.6-1.5 4.4-3.5 10.5-36.9 10.9-42.1.3-4.9-.1-8.6-1.1-10.4-4.4-7.7-15.4-11.8-25-9.3-1.6 1.6-3 3.4-4.3 5.3-.1.2-.3.3-.5.4-2.5 1.1-4.6 2.6-6.2 4.6-2.2 2.6-4.7 8.1-6.6 14.9-.1.4-.4.7-.9.8-.4.1-.8-.1-1.1-.4-.6-.8-1.4-1.1-2.7-1.5-3.4-.8-5 1.2-5.7 2.4-1.4 2.7-1.1 6.9 1.8 9.3l.1.1c.6.6 4.1 3.7 4.8 4 .5.2.7.6.7 1.1-.2 2.9-.1 5.3.3 7.2.1.2 0 .5-.1.7Z" fill="#142D6E"/><path fill-rule="evenodd" clip-rule="evenodd" d="M192.901 78.795c2.8.8 4.1-5.2 1.6-5.9-2.9-.8-4.4 5.1-1.6 5.9ZM207.602 82c2.8.5 4-5.5 1-6-2.5-.4-3.8 5.6-1 6ZM194.601 94.2c.1-.6-.3-1.2-.9-1.3-3.4-.6-4-2.3-4-2.4-.1-.6-.7-.9-1.3-.8-.6.1-.9.7-.8 1.3.1.2.9 3.2 5.8 4.1h.2c.5 0 1-.4 1-.9Z" fill="#142D6E"/><path fill-rule="evenodd" clip-rule="evenodd" d="M199.1 89.5s4.2 1.2 4.9-.8c.7-2-3.3-3.4-3.3-3.4l3.5-12.4-5.1 16.6Z" fill="#fff"/><path fill-rule="evenodd" clip-rule="evenodd" d="M199.401 88.301c-.6-.1-1.2.2-1.4.8-.1.6.2 1.2.8 1.4.3.1 1.5.4 2.8.4 1.4 0 3-.4 3.5-2.1.2-.7.2-1.4-.1-2-.6-1.1-1.9-1.9-2.9-2.4l3.2-11.4c.1-.6-.2-1.2-.8-1.4-.6-.1-1.2.2-1.4.8l-3.5 12.4c-.2.6.1 1.2.7 1.4.9.3 2.3 1 2.6 1.7v.3c-.2.6-2.2.5-3.5.1ZM190.299 69.601c3.3-2 7.1-.4 7.1-.4.6.2 1.3 0 1.5-.6.2-.6 0-1.3-.6-1.5-.2-.1-4.9-2.1-9.2.5-.5.3-.7 1-.4 1.5.2.3.6.5 1 .5.1 0 .3-.1.6 0ZM214.097 73.097c.5-.4.5-1.1.1-1.6-2.4-2.8-5.9-3.2-6-3.2-.6-.1-1.1.4-1.2 1-.1.6.4 1.1 1 1.2 0 0 2.7.3 4.6 2.4.2.3.5.4.8.4.2 0 .5 0 .7-.2Z" fill="#142D6E"/><path fill-rule="evenodd" clip-rule="evenodd" d="M201 76.5c0-4.9-4.1-9-9-9s-9 4-9 9c0 4.9 4 9 9 9s9-4 9-9Zm-15.8 0c0 3.7 3.1 6.8 6.8 6.8 3.7 0 6.8-3.1 6.8-6.8 0-3.7-3.1-6.8-6.8-6.8-3.8 0-6.8 3.1-6.8 6.8ZM217.504 82.8c1.3-4.5-.8-9-4.6-10.1-3.8-1.1-7.9 1.7-9.2 6.2-1.3 4.5.8 9 4.6 10.1.6.1 1.1.2 1.7.2 3.2 0 6.4-2.6 7.5-6.4Zm-8.607 3.9c2.6.7 5.5-1.3 6.5-4.6.9-3.3-.4-6.6-3.1-7.3-.4-.1-.7-.2-1.1-.2-2.3 0-4.6 1.9-5.4 4.8-.9 3.3.4 6.6 3.1 7.3Z" fill="#FFC412"/><path fill-rule="evenodd" clip-rule="evenodd" d="M185.405 74.295c.2-.6 0-1.29-.6-1.5l-10-4.2c-.6-.19-1.3 0-1.5.6-.2.6 0 1.3.6 1.5l10 4.21c.1.1.3.1.4.1.39 0 .8-.3 1.1-.71ZM205.497 79.996c.4-.4.5-1.1.1-1.6-2.4-2.8-6-1.7-6.2-1.7-.5.2-.9.9-.7 1.4.2.5.8.9 1.4.7 0 0 2.4-.7 3.9 1 .2.3.5.4.8.4.2 0 .5 0 .7-.2Z" fill="#FFC412"/><path fill-rule="evenodd" clip-rule="evenodd" d="M195.899 54.9s12.3 14.1 24.5 9c10.2-4.3 11.9-23.4 8.7-27.2-1.8-2.1-5.5-1.8-8.3.9 0-.1-.1-.1-.1-.2-1.2-2.2-4-3-6.2-1.7-2.2 1.2-4.2 2.9-5.6 5 0 0-7.5-4.1-14.1-5.7-.9-.2-1.8-.6-2.7-.9-.9-.3-1.8-.4-2.8-.4-4.3 0-7.9 3.1-8.7 7.3-.7-.2-1.5-.3-2.3-.3-4.5 0-7.5 3.2-8.7 7.6-2.6 8-3.9 26.8 2.4 28.1 4.8 1.1 10.6-16.6 10.6-16.6 5 1.5 10.5-.5 13.3-4.9ZM243.398 151.398c-.2-.6-.8-1-1.4-.8-.6.2-1 .8-.8 1.4l9 34.2c.3 1.2-.4 2.5-1.7 2.9-.7.2-1.3.1-1.9-.2-.6-.3-1-.9-1.2-1.5l-9.5-34.3c-.2-.6-.8-1-1.4-.8-.6.2-1 .8-.8 1.4l9.5 34.3c.3 1.2 1.1 2.2 2.2 2.8.7.4 1.4.6 2.2.6.4 0 .8 0 1.6-.1 2.4-.8 3.8-3.3 3.2-5.7l-9-34.2Z" fill="#142D6E"/><g opacity=".3"><path fill-rule="evenodd" clip-rule="evenodd" d="M258.299 64.103c-4.3-19.9-24-32.5-43.9-28.1-19.9 4.4-32.4 24-28 43.9 4.3 19.9 24 32.5 43.9 28.1 19.9-4.4 32.5-24 28-43.9Z" fill="#fff" opacity=".3"/><path fill-rule="evenodd" clip-rule="evenodd" d="M239.8 104.5 190 89.7c9.7 17.7 31.9 24.4 49.8 14.8ZM259.3 72.8c.1-2.9-.2-5.9-.9-8.7-.7-3.3-1.9-6.4-3.5-9.4l-50.3-15c-5.5 3-10.2 7.4-13.5 12.8l68.2 20.3ZM250.696 95.6c1.5-1.9 2.9-3.9 4.1-6l-69.2-20.6c-.2 2.5-.1 4.9.2 7.3l64.9 19.3ZM258.8 77.9c.1-.4.1-.9.2-1.3l-69.7-20.7c-.2.3-.4.7-.6 1.1l70.1 20.9ZM247.4 44.9c-.8-.8-1.7-1.4-2.5-2.1l-25.3-7.5c-1.1 0-2.2.2-3.3.3l31.1 9.3Z" fill="#EBEBEB" opacity=".3"/></g><path fill-rule="evenodd" clip-rule="evenodd" d="M213.602 32.002c-22.1 4.9-36.1 26.7-31.2 48.9 4.9 22.1 26.7 36.1 48.8 31.2 22.1-4.9 36.1-26.8 31.2-48.9-4.9-22.1-26.7-36.1-48.8-31.2Zm44.802 32.001c-4.4-19.9-24.1-32.5-44-28.1-19.9 4.4-32.5 24.1-28.1 44 4.4 19.9 24.1 32.5 44 28.1 19.9-4.4 32.4-24 28.1-44Z" fill="#03D5B7"/><path fill-rule="evenodd" clip-rule="evenodd" d="m237.725 54.925-.42-.42c-.5-.5-1.1-.9-1.7-1.3-.6-.4-1.3-.9-1.9-1.3-.3-.2-.6-.4-.9-.5-.03-.02-.05-.03-.07-.05 0 .01-.03 0-.13-.05l-.6-.3c-1.7-.8-3.5-1.5-5.3-2h-.3l-.8-.2c-.5-.1-1.1-.2-1.6-.3-1.1-.2-2.3-.3-3.4-.3-1.3-.2-2.3-1.4-2.1-2.7.2-1.3 1.4-2.3 2.7-2.1 7.3.2 14.3 3 19.7 8 3.6 3.4 6.4 7.5 8.2 12.1.4 1 .8 2.1 1 3.1.2 1.3-.7 2.6-2 2.8-1.1 0-2.4-.9-2.6-2.2-.1-.3-.3-.9-.5-1.4-.6-1.7-1.4-3.3-2.3-4.8-.07-.14-.18-.27-.28-.4.02.06 0 .06-.12-.1l-.3-.4c-.3-.5-.7-1-1-1.4-.8-1-1.6-2-2.5-3l-.7-.7-.08-.08Zm0 0c.19.15.177.132.123.086-.053-.047-.148-.122-.123-.087Z" fill="#03D5B7"/><path fill-rule="evenodd" clip-rule="evenodd" d="M218.897 138.699c2-.3 20.2-2.5 23.7-8.4.3-.5.1-1.2-.4-1.5-.5-.3-1.2-.1-1.5.4-2.5 4.2-16.8 6.7-22.1 7.3-.6 0-1.1.6-1 1.2.1.6.5 1 1.1 1h.2Z" fill="#142D6E"/><path fill-rule="evenodd" clip-rule="evenodd" d="M224.298 154.1c9.7.3 22.9-2.8 27.1-9.5l-31.6 2.1s-5.2 7.1 4.5 7.4Z" fill="#fff"/><path fill-rule="evenodd" clip-rule="evenodd" d="M225.802 155.199c10.1 0 22.4-3.4 26.6-10 .3-.5.1-1.2-.4-1.5-.5-.3-1.2-.1-1.5.4-3.7 6.1-16.2 9.3-26.1 9-2.5-.1-4.1-.7-4.6-1.7-.6-1.3.5-3.3 1-4 .4-.5.3-1.2-.2-1.6-.5-.4-1.2-.3-1.6.2-.3.4-2.5 3.6-1.2 6.3.8 1.8 3 2.8 6.5 2.9h1.5Z" fill="#142D6E"/><path fill-rule="evenodd" clip-rule="evenodd" d="M220.398 146.3c9.7.3 22.9-2.8 27.1-9.5l-31.6 2.1s-5.2 7.1 4.5 7.4Z" fill="#fff"/><path fill-rule="evenodd" clip-rule="evenodd" d="M216.602 137.999c-.5-.4-1.2-.3-1.6.2-.3.4-2.5 3.6-1.2 6.3.8 1.8 3 2.8 6.5 2.9h1.5c10.2 0 22.5-3.4 26.6-10 .3-.5.1-1.2-.4-1.5-.5-.3-1.2-.1-1.5.4-3.7 6.1-16.2 9.3-26.1 9-2.5-.1-4.1-.7-4.6-1.7-.6-1.3.5-3.3 1-4 .4-.5.3-1.2-.2-1.6Z" fill="#142D6E"/><path fill-rule="evenodd" clip-rule="evenodd" d="M322.1 108.2c-14.2 0-25.8 11.5-25.8 25.8 0 10.5 6.3 19.5 15.3 23.5l4.9 14 9.7-12.1c12.3-2 21.7-12.6 21.7-25.4 0-14.2-11.5-25.8-25.8-25.8Z" fill="#fff"/><path fill-rule="evenodd" clip-rule="evenodd" d="m310.3 158.8 4.6 13.3c.2.6.7 1 1.3 1.1h.3c.5 0 1-.3 1.4-.6l9.3-11.6c13.1-2.4 22.5-13.6 22.5-27 0-15.2-12.3-27.5-27.5-27.5s-27.5 12.4-27.5 27.5c0 10.6 6.1 20.2 15.6 24.8Zm-12.2-24.9c0 9.5 5.6 18.1 14.2 22 .4.2.8.6.9 1l3.9 11.1 7.7-9.7c.3-.3.6-.6 1.1-.6 11.7-1.9 20.3-11.8 20.3-23.7 0-13.3-10.8-24.1-24.1-24.1s-24 10.8-24 24ZM152.7 244.1l-.3-12.9c0-.6-.5-1.1-1.1-1.1-.6 0-1.1.5-1.1 1.1l.3 12.9c0 .6.5 1.1 1.1 1.1.7-.1 1.1-.6 1.1-1.1ZM163.7 243.9l-.3-13.3c0-.6-.5-1.1-1.1-1.1-.6 0-1.1.5-1.1 1.1l.3 13.3c0 .6.5 1.1 1.1 1.1.7 0 1.1-.5 1.1-1.1ZM136 258.297c6.5-7.8 5.1-20.3 5-20.8 0-.6-.6-1.1-1.2-1-.6 0-1.1.6-1 1.2 0 .1 1.4 12.1-4.5 19.1-2.6 3.1-6.3 4.8-11 5.1-.6.1-1 .6-1 1.2s.5 1.1 1.1 1.1c5.4-.3 9.7-2.2 12.6-5.9Z" fill="#142D6E"/><path fill-rule="evenodd" clip-rule="evenodd" d="M321.5 125.303c.6-.5 1.4-.8 2.2-.7.7 0 1.3.3 1.8.7.4.4.6 1 .5 1.6 0 .6-.5 1.3-1.6 2.1-1.3.9-2.6 1.9-3.8 3-.5.6-1 1.3-1.3 2-.4.9-.6 1.9-.6 2.9v.7l7 .4c0-.8.3-1.6.5-2.2.4-.6 1.2-1.3 2.5-2.2 1.9-1.2 3.2-2.4 3.8-3.3.7-.9 1-1.9 1.1-3 .1-2.6-.9-4.6-3-6.3-1.6-1.2-3.7-1.9-6.4-2.1-3.4-.2-6 .4-7.8 1.9-1.9 1.6-3 3.8-3.3 6.2l7.1 1.3c.3-1.5.7-2.5 1.3-3ZM317.9 146l7.5.5.4-6.6-7.5-.5-.4 6.6Z" fill="#FFC412"/><path fill-rule="evenodd" clip-rule="evenodd" d="m331.396 54.1 24.1 25.5c.2.2.4.3.7.3.1 0 .2 0 .4-.1.3-.1.6-.5.6-.9l.7-24.8c0-.5-.4-1-1-1l-24.8-.7c-.4 0-.7.2-.9.6-.2.4-.1.8.2 1.1ZM355.2 76.5l.6-21.4-21.4-.6 20.8 22Z" fill="#03D5B7"/></g></svg>