<svg viewBox="0 0 400 300" fill="none" xmlns="http://www.w3.org/2000/svg"><path d="m70.647 156.26 93.829 95.278 181.57-165.519" stroke="#DEDFEA" stroke-width="34"/><path d="m317.673 191.402-44.066 10.485 12.398 20.828 40.523-9.28-8.855-22.033Z" fill="#FFC7DE" stroke="#000" stroke-width=".866" stroke-miterlimit="10"/><path d="m234.362 159.878 20.687 60.855c1.913 5.667 7.793 8.997 13.673 7.722l48.032-10.414-7.084-24.796-34.005 7.864-9.777-45.411-31.526 4.18Z" fill="#fff" stroke="#000" stroke-width=".866" stroke-miterlimit="10"/><path d="m265.601 277.834-3.471-25.788h-22.245l3.4 25.788h22.316Z" fill="#FFC7DE" stroke="#000" stroke-width=".866" stroke-miterlimit="10"/><path d="m263.762 163.136-6.092 51.079 8.43 58.872h-25.929l-9.847-53.771a42.025 42.025 0 0 1-.425-10.343l1.912-45.837h31.951Z" fill="#fff" stroke="#000" stroke-width=".866" stroke-miterlimit="10" stroke-linecap="round" stroke-linejoin="round"/><path d="m243.288 277.833-17.357 9.139a3.56 3.56 0 0 0-1.912 3.188v.567c0 .496.425.921.921.921h41.656a.933.933 0 0 0 .921-1.063l-1.984-12.752h-22.245Z" fill="#B6BBE2" stroke="#000" stroke-width=".866" stroke-miterlimit="10"/><path d="M224.019 290.16h43.427" stroke="#000" stroke-width=".433" stroke-miterlimit="10"/><path d="m265.036 274.432-22.387-.637-.071-.709 22.316.071.142 1.275Z" fill="#000"/><path d="m321.146 214.568 13.885 13.815c.921.921 2.338 1.275 3.613.921l.567-.142c.496-.142.779-.708.638-1.133l-12.044-38.752c-.212-.638-.85-.992-1.558-.78l-12.044 3.755 6.943 22.316Z" fill="#B6BBE2" stroke="#000" stroke-width=".866" stroke-miterlimit="10"/><path d="m338.646 229.303-12.681-40.806" stroke="#000" stroke-width=".433" stroke-miterlimit="10"/><path d="m300.813 152.792 2.197 8.431s2.196 8.43 2.833 12.398c.496 3.329-2.479 3.046-3.046 2.125 0 0 .85 3.259-1.204 4.038-1.488.567-2.976-.354-3.472-1.7 0 0 .284 1.983-1.912 2.409-1.559.283-2.693-.921-3.188-2.338-.921-2.834-3.047-9.777-3.047-9.777s-1.275 3.755-2.054 5.809c-1.063 2.834-4.534 2.055-4.322-.85.142-2.621 2.621-11.335 2.621-11.335l-1.416-4.534 16.01-4.676Z" fill="#FFC7DE" stroke="#000" stroke-width=".866" stroke-miterlimit="10" stroke-linecap="round" stroke-linejoin="round"/><path d="m302.799 175.745-2.763-10.272M298.053 178.154l-2.905-10.131M289.975 168.379s4.392-.142 4.888-5.668" stroke="#000" stroke-width=".866" stroke-miterlimit="10" stroke-linecap="round" stroke-linejoin="round"/><path d="m108.05 277.834 3.471-25.787h22.245l-3.4 25.787H108.05ZM71.278 258.776l19.553-17.074 16.79 14.665-19.482 17.144-16.86-14.735Z" fill="#FFC7DE" stroke="#000" stroke-width=".866" stroke-miterlimit="10"/><path d="m259.158 118.575 15.798 9.068 9.493 32.022 19.341-4.605-14.169-42.011c-1.063-3.046-3.33-5.597-6.235-6.943l-36.13-17.286 11.902 29.755Z" fill="#FF006C" stroke="#000" stroke-width=".866" stroke-miterlimit="10"/><path d="m139.147 149.887 10.698 58.588c1.062 5.88-.851 11.831-5.172 16.011L99.899 267.63l-18.065-18.774 36.981-33.084-7.156-49.662" fill="#fff"/><path d="m139.147 149.887 10.698 58.588c1.062 5.88-.851 11.831-5.172 16.011L99.899 267.63l-18.065-18.774 36.981-33.084-7.156-49.662" stroke="#000" stroke-width=".866" stroke-miterlimit="10" stroke-linecap="round" stroke-linejoin="round"/><path d="m108.826 167.6 7.155 46.615-8.43 58.872h25.929l9.847-53.771c.567-3.401.709-6.872.425-10.343l-2.975-41.373h-31.951Z" fill="#fff" stroke="#000" stroke-width=".866" stroke-miterlimit="10" stroke-linecap="round" stroke-linejoin="round"/><path d="M183.003 31.718c-.212.496-.638.85-1.204.992-2.196.425-3.897 1.984-5.03 4.747a16.064 16.064 0 0 0-1.063 4.463c-.071.921-.85 1.559-1.7 1.488-.921-.071-1.559-.85-1.488-1.7 0-.142.142-2.622 1.275-5.385 1.559-3.825 4.109-6.163 7.439-6.8.85-.142 1.7.424 1.842 1.274.142.284.071.638-.071.921Z" fill="#FFC7DE" stroke="#000" stroke-width=".866" stroke-miterlimit="10"/><path d="M181.302 27.963c-.142.283-.284.496-.567.709-.212.141-4.888 3.542-6.234 12.256-.142.85-.992 1.487-1.842 1.346-.85-.142-1.488-.992-1.346-1.842 1.558-10.202 7.368-14.24 7.58-14.453.709-.495 1.771-.283 2.267.425.283.496.354 1.063.142 1.559Z" fill="#FFC7DE" stroke="#000" stroke-width=".866" stroke-miterlimit="10"/><path d="M175.281 33.277s-.708 3.4.283 3.259l-.566 1.487s-.425-2.267.283-4.746Z" fill="#000"/><path d="M175.351 37.103s-.284 1.416.921 1.983L175.847 41s-.638-1.771-.921-2.975l.425-.921Z" fill="#000"/><path d="M180.38 38.804c-.85-.142-1.7.354-1.984 1.204l-1.204 3.826c-1.204-2.48-2.338-5.314-2.409-7.51.284-6.022 2.763-9.068 2.905-9.21a1.31 1.31 0 0 0 .354-.85c.071-.496-.142-1.063-.567-1.417-.708-.567-1.7-.496-2.267.213-.141.142-2.479 2.904-3.329 8.218-.213 1.417-.638 2.834-1.134 4.18-1.133 2.904-10.414 36.343-10.414 36.343L146.8 79.61l4.392 18.774 18.561-8.076c1.701-.709 2.905-2.268 3.259-4.039l8.856-45.198c.141-1.134-.496-2.055-1.488-2.267Z" fill="#FFC7DE" stroke="#000" stroke-width=".866" stroke-miterlimit="10" stroke-linecap="round" stroke-linejoin="round"/><path d="M125.403 81.31c7.512 0 13.602-6.09 13.602-13.602 0-7.512-6.09-13.602-13.602-13.602-7.512 0-13.602 6.09-13.602 13.602 0 7.512 6.09 13.602 13.602 13.602Z" fill="#FFC7DE" stroke="#000" stroke-width=".866" stroke-miterlimit="10"/><path d="M120.374 54.886c-2.48.779-10.485 5.596-8.289 16.152.921 4.392 4.322 6.589 4.322 6.589 5.242-1.63 5.455-9.21 5.88-9.14 2.834.568 5.738-1.841 7.58-5.525 1.984-3.967 1.134-7.935 1.134-7.935-1.559-.425-4.747-1.983-10.627-.141Z" fill="#000"/><path d="M120.798 73.375a3.826 3.826 0 1 0 0-7.652 3.826 3.826 0 0 0 0 7.652Z" fill="#FFC7DE"/><path d="M135.818 59.206s-4.959-1.062-6.801-2.763l1.629-1.346c-.071 0 3.826 1.842 5.172 4.11Z" fill="#000"/><path d="m118.956 68.913 3.117.708" stroke="#000" stroke-width=".866" stroke-miterlimit="10" stroke-linecap="round" stroke-linejoin="round"/><path d="M239.674 81.74c7.161 0 12.965-5.805 12.965-12.965s-5.804-12.964-12.965-12.964c-7.16 0-12.964 5.804-12.964 12.964s5.804 12.965 12.964 12.965Z" fill="#FFC7DE" stroke="#000" stroke-width=".866" stroke-miterlimit="10"/><path d="M244.774 56.66c2.338.778 9.847 5.596 7.51 15.585-.992 4.18-4.251 6.234-4.251 6.234-4.959-1.7-5.03-8.855-5.384-8.785-2.692.496-5.384-1.841-7.085-5.384-1.842-3.825-.921-7.58-.921-7.58 1.417-.496 4.464-1.913 10.131-.07Z" fill="#000"/><path d="M243.997 74.3a3.684 3.684 0 1 0 0-7.367 3.684 3.684 0 0 0 0 7.368Z" fill="#FFC7DE"/><path d="M229.898 60.485s4.747-.85 6.518-2.48l-1.488-1.346c.071.071-3.684 1.7-5.03 3.826Z" fill="#000"/><path d="m245.765 70.049-2.975.637" stroke="#000" stroke-width=".866" stroke-miterlimit="10" stroke-linecap="round" stroke-linejoin="round"/><path d="M192.635 56.231a268.076 268.076 0 0 1-1.629-8.218c-.496-2.48-.85-7.013-3.472-12.54-.566-1.133-.354-2.408.567-2.975.921-.566 2.621-.283 3.471 1.205-.354-.85-.85-2.409-.07-3.188.85-.85 2.55-.921 3.896.78-.071-.851 1.913-1.843 3.401-.426 1.275 1.204 2.904 4.18 2.904 4.18s1.063-1.559 2.692 0c1.346 1.275 3.472 6.447 2.267 12.964l1.559 6.022-15.586 2.196Z" fill="#FFC7DE" stroke="#000" stroke-width=".866" stroke-miterlimit="10" stroke-linecap="round" stroke-linejoin="round"/><path d="M195.326 31.294s2.126 2.976 3.613 7.722l-3.613-7.722Z" fill="#fff"/><path d="M195.326 31.294s2.126 2.976 3.613 7.722" stroke="#000" stroke-width=".866" stroke-miterlimit="10" stroke-linecap="round" stroke-linejoin="round"/><path d="M201.632 35.048s1.7 3.4 2.692 7.155l-2.692-7.155Z" fill="#fff"/><path d="M201.632 35.048s1.7 3.4 2.692 7.155M191.501 33.632s1.629 2.338 2.905 6.517M197.239 31.506l1.559-.283M192.989 31.435l1.842-.496M189.376 33.915l1.488-.78M203.4 35.9l1.205-.284" stroke="#000" stroke-width=".866" stroke-miterlimit="10" stroke-linecap="round" stroke-linejoin="round"/><path d="M106.558 107.948v61.138h36.484v-61.563l15.303-7.368-7.935-22.174s-23.662 9.493-31.313 12.752c-7.368 3.188-12.539 9.21-12.539 17.215ZM245.13 87.97l-29.046-9.705-6.447-29.471-18.207 3.967 6.73 34.36c1.063 5.454 4.959 9.918 10.202 11.76l18.986 6.73 3.471 57.596h38.114s-3.825-34.997-4.959-46.615c-1.417-12.965-7.58-24.442-18.844-28.622Z" fill="#FF006C" stroke="#000" stroke-width=".866" stroke-miterlimit="10" stroke-linecap="round" stroke-linejoin="round"/><path d="m227.278 105.68 10.698 3.755" stroke="#000" stroke-width=".866" stroke-miterlimit="10" stroke-linecap="round" stroke-linejoin="round"/><path d="m130.361 277.834 17.357 9.139a3.558 3.558 0 0 1 1.913 3.188v.566a.938.938 0 0 1-.921.921h-41.656a.932.932 0 0 1-.921-1.062l1.983-12.752h22.245ZM91.398 270.536l1.842 13.106 3.117 2.267c1.417 1.063 2.267 2.692 2.267 4.464v.495c0 .496-.354.851-.85.851h-7.226c-.567 0-1.063-.213-1.417-.638l-23.803-26.85c-.284-.354-.284-.85.07-1.134l12.186-9.705 13.814 17.144Z" fill="#B6BBE2" stroke="#000" stroke-width=".866" stroke-miterlimit="10"/><path d="M165.996 132.035h10.485l-2.196 22.741a1.624 1.624 0 0 1-1.63 1.488h-13.46c-.85 0-1.559-.638-1.63-1.488l-2.196-22.741h10.627Z" fill="#FF006C" stroke="#000" stroke-width=".866" stroke-miterlimit="10" stroke-linecap="round" stroke-linejoin="round"/><path d="M165.998 124.242h11.052l1.487 7.793h-25.149l1.487-7.793h11.123Z" fill="#fff" stroke="#000" stroke-width=".866" stroke-miterlimit="10" stroke-linecap="round"/><path d="M166 122.046h6.872c.992 0 1.842.85 1.842 1.842v.354h-17.428v-.354c0-.992.85-1.842 1.842-1.842H166Z" fill="#DEDFEA" stroke="#000" stroke-width=".866" stroke-miterlimit="10"/><path d="m155.443 132.035 20.899 1.275.142-1.275h-21.041Z" fill="#000"/><path d="M164.086 112.481c-.637-.709-1.487-1.063-2.337-1.134a1.731 1.731 0 0 1-1.559-1.417c-.142-.85-.638-1.629-1.417-2.196a3.514 3.514 0 0 0-4.18.213 3.392 3.392 0 0 0 0 5.029c.638.567 1.346.851 2.126.851.708 0 1.346.566 1.487 1.346.071.779.496 1.487 1.063 2.054 1.488 1.346 3.826 1.063 4.959-.567.921-1.275.85-3.046-.142-4.179ZM150.127 101.501a1.984 1.984 0 1 0 0-3.967 1.984 1.984 0 0 0 0 3.967Z" fill="#fff" stroke="#000" stroke-width=".866" stroke-miterlimit="10" stroke-linecap="round"/><path d="M176.127 143.583c1.275-1.913 1.346-4.321.284-6.376l-.142-.212-20.262.07-.566-3.613s-1.134.709-1.771 1.346c-.78.709-1.417 1.913-1.417 1.913l-19.766-3.684.071-19.836-22.67 8.714v17.782c0 5.101 3.896 9.422 8.997 9.918l33.58 3.33 3.613 1.417c.992.283 2.055.425 3.117.425h13.248c1.346 0 2.622-.921 2.834-2.267.213-.851.142-1.772-.071-2.693v-.07l.354-.709c.851-1.558.921-3.4.284-5.101l.283-.354Z" fill="#FFC7DE" stroke="#000" stroke-width=".866" stroke-miterlimit="10"/><path d="M133.696 106.602v19.907h-25.008v-19.907" fill="#FF006C"/><path d="M133.696 106.602v19.907h-25.008v-19.907" stroke="#000" stroke-width=".866" stroke-miterlimit="10" stroke-linecap="round" stroke-linejoin="round"/><path d="m253.772 71.535 26.638 4.392-5.951 13.744-20.687-18.136ZM117.254 149.463l25.575 5.243v-2.409l-25.575-2.834ZM109.18 169.015l.283 2.621 33.226-1.7-.212-.78-33.297-.141Z" fill="#000"/><path d="m177.122 43.835-2.196 3.684" stroke="#000" stroke-width=".866" stroke-miterlimit="10" stroke-linecap="round" stroke-linejoin="round"/><path d="m110.457 126.58 21.82 1.204.071-1.204h-21.891Z" fill="#000"/><path d="M149.635 290.161h-43.428M98.553 290.372h-7.438a2.03 2.03 0 0 1-1.559-.708l-23.733-26.921" stroke="#000" stroke-width=".433" stroke-miterlimit="10"/><path d="m108.613 274.432 22.458-.638v-.708l-22.245.071-.213 1.275ZM259.725 213.931l2.763 14.239-3.046-1.487-1.771-12.469 6.093-51.079-4.039 50.796ZM285.443 159.523l16.365-2.693-.354-.991-16.011 3.684Z" fill="#000"/><path d="M59.873 291.647h250.86M326.034 291.647h6.801M175.421 12.662l4.463 7.226M189.377 8.483l-1.275 10.556M195.113 22.298l7.51-3.613" stroke="#000" stroke-width=".866" stroke-miterlimit="10" stroke-linecap="round" stroke-linejoin="round"/></svg>