<svg viewBox="0 0 400 300" fill="none" xmlns="http://www.w3.org/2000/svg"><path d="M206.518 105.547H66.561v142.838h139.957V105.547Z" fill="#B6BBE2" stroke="#000" stroke-width="1.108" stroke-miterlimit="10" stroke-linecap="round" stroke-linejoin="round"/><path d="M206.517 128.928H66.56v122.117h139.957V128.928Z" fill="#fff" stroke="#000" stroke-width="1.108" stroke-miterlimit="10" stroke-linecap="round" stroke-linejoin="round"/><path d="M192.443 119.621a2.66 2.66 0 1 0 0-5.318 2.66 2.66 0 0 0 0 5.318ZM178.15 119.621a2.66 2.66 0 1 0 0-5.318 2.66 2.66 0 0 0 0 5.318Z" fill="#000"/><path d="M206.629 124.829h-27.925v119.567h27.925V124.829Z" fill="#000" stroke="#000" stroke-width="1.108" stroke-miterlimit="10" stroke-linecap="round" stroke-linejoin="round"/><path d="M333.843 97.347H180.81v23.271h153.033v-23.27Z" fill="#B6BBE2" stroke="#000" stroke-width="1.108" stroke-miterlimit="10" stroke-linecap="round" stroke-linejoin="round"/><path d="M333.843 120.728H185.907v116.908h147.936V120.728ZM319.77 111.421a2.66 2.66 0 1 0 0-5.318 2.66 2.66 0 0 0 0 5.318ZM305.475 111.421a2.66 2.66 0 1 0 0-5.318 2.66 2.66 0 0 0 0 5.318Z" fill="#fff" stroke="#000" stroke-width="1.108" stroke-miterlimit="10" stroke-linecap="round" stroke-linejoin="round"/><path d="m66.56 220.017 59.617-49.866-21.719-19.724c-4.765-4.433-5.43-11.747-1.441-16.955 4.433-5.762 12.744-6.649 18.284-1.995l11.636 9.863 61.501-7.535 3.546 29.919c-1.219 5.984-3.213 11.746-6.095 17.065-2.881 5.43-6.759 10.306-11.192 14.517l-64.826 55.628h-49.2v-30.917h-.111Z" fill="#FFC7DE" stroke="#000" stroke-width="1.108" stroke-miterlimit="10" stroke-linecap="round" stroke-linejoin="round"/><path d="m175.49 149.762-6.871-55.628c-.665-5.763 3.325-10.97 9.087-11.747 5.762-.665 10.97 3.325 11.746 9.087l6.649 56.626" fill="#000"/><path d="m175.49 149.762-6.871-55.628c-.665-5.763 3.325-10.97 9.087-11.747 5.762-.665 10.97 3.325 11.746 9.087l6.649 56.626" stroke="#000" stroke-width="1.108" stroke-miterlimit="10" stroke-linecap="round" stroke-linejoin="round"/><path d="m163.631 142.891-7.313-59.396c-.776-6.094 3.657-11.746 9.751-12.522 6.095-.775 11.746 3.657 12.522 9.752l7.314 59.396" fill="#FFC7DE"/><path d="m163.631 142.891-7.313-59.396c-.776-6.094 3.657-11.746 9.751-12.522 6.095-.775 11.746 3.657 12.522 9.752l7.314 59.396" stroke="#000" stroke-width="1.108" stroke-miterlimit="10" stroke-linecap="round" stroke-linejoin="round"/><path d="m150.113 137.794-7.314-59.396c-.776-6.094 3.657-11.746 9.752-12.522 6.094-.775 11.746 3.657 12.522 9.752l7.313 59.396" fill="#FFC7DE"/><path d="m150.113 137.794-7.314-59.396c-.776-6.094 3.657-11.746 9.752-12.522 6.094-.775 11.746 3.657 12.522 9.752l7.313 59.396" stroke="#000" stroke-width="1.108" stroke-miterlimit="10" stroke-linecap="round" stroke-linejoin="round"/><path d="m133.157 141.784-6.759-57.29c-.776-6.096 3.657-11.747 9.751-12.523 6.095-.776 11.747 3.657 12.522 9.752l7.314 59.396" fill="#FFC7DE"/><path d="m133.157 141.784-6.759-57.29c-.776-6.096 3.657-11.747 9.751-12.523 6.095-.776 11.747 3.657 12.522 9.752l7.314 59.396" stroke="#000" stroke-width="1.108" stroke-miterlimit="10" stroke-linecap="round" stroke-linejoin="round"/><path d="M143.796 129.483s5.097 24.933 6.538 24.933c1.44 0 41.333 9.863 41.333 9.863l2.881-22.274-11.192-10.638-39.56-1.884Z" fill="#FFC7DE"/><path d="M158.978 166.495s1.44-26.041-25.82-24.711l25.82 24.711Z" fill="#FFC7DE"/><path d="m191.779 179.681-29.698-27.704c-4.765-4.432-5.43-11.746-1.441-16.954 4.433-5.763 12.744-6.649 18.284-1.995l11.636 9.863 27.371-28.258-26.152 65.048Z" fill="#000" stroke="#000" stroke-width="1.108" stroke-miterlimit="10" stroke-linecap="round" stroke-linejoin="round"/><path d="m333.842 207.938-76.572-67.485-37.233-32.801-25.155 32.579-11.635-9.862c-5.541-4.654-13.852-3.768-18.285 1.994-3.989 5.209-3.324 12.522 1.441 16.955l94.856 88.54 72.472-.222v-29.698h.111Z" fill="#FFC7DE" stroke="#000" stroke-width="1.108" stroke-miterlimit="10" stroke-linecap="round" stroke-linejoin="round"/><path d="m237.435 148.653-6.87-55.628c-.665-5.763 3.324-10.97 9.086-11.746 5.763-.665 10.971 3.324 11.746 9.086l5.763 49.977" fill="#FFC7DE"/><path d="m237.435 148.653-6.87-55.628c-.665-5.763 3.324-10.97 9.086-11.746 5.763-.665 10.971 3.324 11.746 9.086l5.763 49.977" stroke="#000" stroke-width="1.108" stroke-miterlimit="10" stroke-linecap="round" stroke-linejoin="round"/><path d="m224.579 141.782-7.314-59.395c-.776-6.095 3.657-11.747 9.752-12.522 6.094-.776 11.746 3.657 12.521 9.751l7.314 59.396" fill="#FFC7DE"/><path d="m224.579 141.782-7.314-59.395c-.776-6.095 3.657-11.747 9.752-12.522 6.094-.776 11.746 3.657 12.521 9.751l7.314 59.396" stroke="#000" stroke-width="1.108" stroke-miterlimit="10" stroke-linecap="round" stroke-linejoin="round"/><path d="M210.173 136.685 202.86 77.29c-.776-6.095 3.657-11.747 9.751-12.522 6.095-.776 11.746 3.656 12.522 9.751l7.314 59.396" fill="#FFC7DE"/><path d="M210.173 136.685 202.86 77.29c-.776-6.095 3.657-11.747 9.751-12.522 6.095-.776 11.746 3.656 12.522 9.751l7.314 59.396" stroke="#000" stroke-width="1.108" stroke-miterlimit="10" stroke-linecap="round" stroke-linejoin="round"/><path d="m195.213 140.675-6.76-57.29c-.775-6.095 3.657-11.747 9.752-12.523 6.095-.775 11.746 3.657 12.522 9.752l7.314 59.396" fill="#FFC7DE"/><path d="m195.213 140.675-6.76-57.29c-.775-6.095 3.657-11.747 9.752-12.523 6.095-.775 11.746 3.657 12.522 9.752l7.314 59.396" stroke="#000" stroke-width="1.108" stroke-miterlimit="10" stroke-linecap="round" stroke-linejoin="round"/><path d="M205.851 128.374s5.097 24.933 6.538 24.933c1.44 0 41.333 9.863 41.333 9.863l3.546-22.828-8.2-9.973-43.217-1.995Z" fill="#FFC7DE"/><path d="m333.842 207.938-79.675-69.812" stroke="#000" stroke-width="1.108" stroke-miterlimit="10" stroke-linecap="round" stroke-linejoin="round"/><path d="m126.178 169.376 2.327 2.881-26.706 17.841 24.379-20.722Z" fill="#000"/><path d="m131.053 174.584-4.875-4.432" stroke="#000" stroke-width="1.108" stroke-miterlimit="10" stroke-linecap="round" stroke-linejoin="round"/><path d="M30.878 191.317c3.325-4.322 8.533-6.981 14.406-6.981h79.121c10.084 0 18.284 8.2 18.284 18.284s-8.2 18.284-18.284 18.284h-6.206v15.293l-16.068-15.293H45.284C35.2 220.904 27 212.704 27 202.62c0-4.322 1.44-8.2 3.878-11.303Z" fill="#DEDFEA" stroke="#000" stroke-width="1.108" stroke-miterlimit="10" stroke-linecap="round" stroke-linejoin="round"/><path d="M43.842 205.944s18.727-4.543 11.524-9.087c-7.203-4.543-9.308 9.087 12.3 9.087 6.428 0 4.877-4.1 16.29-2.105 17.841 3.102 17.065-4.433 25.376-1.33 8.311 3.213 15.736 4.1 15.736 4.1" stroke="#000" stroke-width="1.108" stroke-miterlimit="10"/><path d="M350.462 249.05c-3.324 4.322-8.533 6.981-14.406 6.981h-79.12c-10.084 0-18.285-8.2-18.285-18.284s8.201-18.284 18.285-18.284h6.205v-15.292l16.068 15.292h56.847c10.084 0 18.284 8.2 18.284 18.284 0 4.211-1.44 8.2-3.878 11.303Z" fill="#FF006C" stroke="#000" stroke-width="1.108" stroke-miterlimit="10" stroke-linecap="round" stroke-linejoin="round"/><path d="M319.323 241.182a2.549 2.549 0 1 0 0-5.097 2.549 2.549 0 0 0 0 5.097ZM296.493 241.182a2.549 2.549 0 1 0 0-5.097 2.549 2.549 0 0 0 0 5.097ZM273.557 241.182a2.548 2.548 0 1 0 0-5.097 2.548 2.548 0 0 0 0 5.097Z" fill="#fff" stroke="#000" stroke-width="1.108" stroke-miterlimit="10" stroke-linecap="round" stroke-linejoin="round"/><path d="M344.256 201.512v11.082M372.403 234.424h-11.082M366.862 210.599l-9.308 7.979" stroke="#FF006C" stroke-width="1.108" stroke-miterlimit="10" stroke-linecap="round" stroke-linejoin="round"/><path d="m148.784 41.497 16.29 15.07M182.139 20l2.327 30.695M208.29 51.248l11.081-14.405" stroke="#000" stroke-width="1.108" stroke-miterlimit="10" stroke-linecap="round" stroke-linejoin="round"/><path d="M307.247 66.098h27.371M290.292 75.96h44.325M317.331 85.823h17.287M84.29 280.3H65.784M103.35 270.438H65.784M103.35 260.465H65.784" stroke="#DEDFEA" stroke-width="1.108" stroke-miterlimit="10"/></svg>