<svg viewBox="0 0 400 300" fill="none" xmlns="http://www.w3.org/2000/svg"><path d="M289.779 99.79c-.844 0-1.603.169-2.279.422-2.025-10.97-11.56-19.24-23.121-19.24-11.561 0-21.096 8.27-23.121 19.24a6.446 6.446 0 0 0-2.279-.422c-3.206 0-5.907 2.616-5.907 5.907a5.87 5.87 0 0 0 5.907 5.907 5.562 5.562 0 0 0 2.7-.675c2.785 9.957 11.814 17.214 22.616 17.214 10.801 0 19.914-7.257 22.615-17.214.844.422 1.772.675 2.7.675 3.207 0 5.907-2.616 5.907-5.907s-2.532-5.907-5.738-5.907ZM306.067 179.955h-83.288v-.59c0-22.362 18.143-40.421 40.421-40.421h2.362c22.362 0 40.421 18.143 40.421 40.421v.59h.084ZM131.556 99.79c-.844 0-1.603.169-2.278.422-2.025-10.97-11.561-19.24-23.122-19.24-11.56 0-21.096 8.27-23.121 19.24a6.44 6.44 0 0 0-2.278-.422c-3.207 0-5.907 2.616-5.907 5.907a5.87 5.87 0 0 0 5.907 5.907c1.012 0 1.94-.253 2.7-.675 2.785 9.957 11.814 17.214 22.615 17.214 10.801 0 19.915-7.257 22.615-17.214.844.422 1.772.675 2.7.675 3.207 0 5.907-2.616 5.907-5.907s-2.531-5.907-5.738-5.907ZM147.844 179.955H64.557v-.59c0-22.362 18.142-40.421 40.42-40.421h2.363c22.362 0 40.42 18.143 40.42 40.421v.59h.084Z" stroke="#DEDFEA" stroke-width=".844" stroke-miterlimit="10"/><path d="M324.714 99.79a6.44 6.44 0 0 0-2.278.422c-2.025-10.97-11.561-19.24-23.121-19.24-11.561 0-21.097 8.27-23.122 19.24a6.436 6.436 0 0 0-2.278-.422c-3.207 0-5.907 2.616-5.907 5.907a5.87 5.87 0 0 0 5.907 5.907 5.565 5.565 0 0 0 2.7-.675c2.785 9.957 11.814 17.214 22.615 17.214 10.801 0 19.915-7.257 22.615-17.214.844.422 1.772.675 2.701.675 3.206 0 5.907-2.616 5.907-5.907s-2.532-5.907-5.739-5.907ZM341.001 179.955h-83.288v-.59c0-22.362 18.143-40.421 40.42-40.421h2.363c22.362 0 40.42 18.143 40.42 40.421v.59h.085Z" stroke="#DEDFEA" stroke-width=".844" stroke-miterlimit="10" stroke-dasharray="1.69 1.69"/><path d="M247.672 42.155h-147.42v213.831h147.505V43.336c-.085-.337-.085-.759-.085-1.18Z" fill="#fff" stroke="#000" stroke-width=".844" stroke-miterlimit="10"/><path d="M100.168 256.998c0 11.224 9.114 20.337 20.337 20.337h106.831c11.223 0 20.337-9.113 20.337-20.337v-1.012H100.168v1.012ZM227.335 23H120.504c-10.801 0-19.661 8.438-20.252 19.155h147.42C246.997 31.523 238.137 23 227.335 23Z" fill="#B6BBE2" stroke="#000" stroke-width=".844" stroke-miterlimit="10"/><path d="M233.496 54.223H114.26v130.712h119.236V54.223Z" fill="#DEDFEA" stroke="#000" stroke-width=".844" stroke-miterlimit="10" stroke-linecap="round" stroke-linejoin="round"/><path d="M197.719 101.394c-.76 0-1.435.168-2.11.421-1.856-10.294-10.886-18.058-21.687-18.058-10.801 0-19.83 7.763-21.687 18.058-.675-.253-1.35-.421-2.109-.421a5.474 5.474 0 0 0-5.485 5.485 5.475 5.475 0 0 0 5.485 5.485c.928 0 1.772-.254 2.531-.675 2.616 9.282 11.139 16.201 21.265 16.201 10.126 0 18.649-6.835 21.265-16.201.76.421 1.603.675 2.532.675a5.475 5.475 0 0 0 5.485-5.485c.084-3.038-2.447-5.485-5.485-5.485ZM218.73 184.934h-89.701v-3.713c0-22.362 18.143-40.42 40.421-40.42h8.776c22.362 0 40.42 18.143 40.42 40.42v3.713h.084Z" fill="#fff" stroke="#000" stroke-width=".844" stroke-miterlimit="10" stroke-linecap="round" stroke-linejoin="round"/><path d="M113.752 206.453h120.333M113.752 215.988h34.26M145.396 265.86h61.433" stroke="#000" stroke-width=".844" stroke-miterlimit="10"/><path d="M171.894 34.647a1.857 1.857 0 1 0 0-3.714 1.857 1.857 0 0 0 0 3.714Z" fill="#000"/><path d="M100.083 62.24h-2.954v23.797h2.954V62.24ZM100.083 93.462h-2.954v23.796h2.954V93.462Z" fill="#DEDFEA" stroke="#000" stroke-width=".844" stroke-miterlimit="10" stroke-linecap="round" stroke-linejoin="round"/><path d="m144.975 173.12 5.653-11.56" stroke="#000" stroke-width=".844" stroke-miterlimit="10" stroke-linecap="round" stroke-linejoin="round"/><path d="M318.303 277.336h10.126M60 277.336h237.459" stroke="#000" stroke-width=".844" stroke-miterlimit="10"/><path d="m175.184 185.693-38.395-15.948-2.11 4.303c-3.375 7.679-3.122 13.502-1.688 20.928l3.798 24.64h43.88l-5.485-33.923Z" fill="#B6BBE2" stroke="#000" stroke-width=".844" stroke-miterlimit="10"/><path d="M141.344 277.25h56.707c0-2.194-.929-4.219-2.532-5.738l-7.595-6.751-7.257-45.146h-43.88l6.92 45.23-1.435 7.258c-.591 1.687-.928 3.375-.928 5.147Z" fill="#FFC7DE" stroke="#000" stroke-width=".844" stroke-miterlimit="10"/><path d="m175.184 185.693-38.395-15.948-2.11 4.303c-3.375 7.679-3.122 13.502-1.688 20.928l3.798 24.64h43.88l-5.485-33.923Z" fill="#B6BBE2" stroke="#000" stroke-width=".844" stroke-miterlimit="10"/><path d="M142.275 272.104c-.59 1.688-.843 3.375-.843 5.147h56.706c0-2.194-.928-4.219-2.531-5.738l-7.595-6.751H143.71h44.302-44.302l-1.435 7.342Z" fill="#DEDFEA" stroke="#000" stroke-width=".844" stroke-miterlimit="10" stroke-linecap="round" stroke-linejoin="round"/><path d="m137.717 137.678-19.24 11.982-9.536-3.797c-1.012-.506-2.109-.084-2.7.844l-.253-.084a2.093 2.093 0 0 0-2.785.928c-.084.253-.169.422-.169.675-.253-.169-.506-.253-.675-.338-.759-.422-1.772-.253-2.362.338-.844.844-.76 2.11.084 2.953l11.645 10.717v.085l-8.354 1.265c-1.097.169-2.025 1.097-2.11 2.194a2.27 2.27 0 0 0 2.279 2.279l9.029-.085c3.122 0 6.16-.675 8.438-2.025l27.004-15.358-10.295-12.573Z" fill="#FFC7DE" stroke="#000" stroke-width=".844" stroke-miterlimit="10"/><path d="M210.12 159.873a3.038 3.038 0 1 0 0-6.076 3.038 3.038 0 0 0 0 6.076Z" fill="#B6BBE2" stroke="#000" stroke-width=".844" stroke-miterlimit="10"/><path d="m180.5 158.437 3.544 20.506c.76 4.557 4.726 7.848 9.282 7.848 3.882 0 7.426-2.448 8.776-6.076 3.376-8.861 9.198-24.387 9.198-24.387l1.519-2.532c1.013-1.688 1.013-3.713.085-5.4l-2.11-6.667c-1.266-3.122-4.894-3.122-7.341-2.025l-.591.253-.253.084c-1.435-1.519-3.207-.843-4.304.591a5.79 5.79 0 0 0-1.181 4.219l.506 4.642-4.557 7.594c0-.084-12.573 1.35-12.573 1.35Z" fill="#FFC7DE" stroke="#000" stroke-width=".844" stroke-miterlimit="10"/><path d="m204.635 140.21-4.557-9.282c9.114-6.245 12.574-18.312 7.595-28.607-5.485-11.307-18.987-16.033-30.294-10.548-11.308 5.485-16.033 18.987-10.548 30.294 5.316 11.055 18.48 15.864 29.619 10.886l4.472 9.198a1.97 1.97 0 0 0 1.772 1.097c.338 0 .675-.085 1.013-.253 1.097-.507 1.519-1.773.928-2.785Zm-35.273-19.409c-4.725-9.873-.59-21.77 9.283-26.496 9.873-4.726 21.771-.591 26.496 9.282 4.726 9.873.591 21.771-9.282 26.497-9.873 4.725-21.687.59-26.497-9.283Z" fill="#B6BBE2" stroke="#000" stroke-width=".844" stroke-miterlimit="10"/><path d="M170.543 120.213a3.376 3.376 0 1 0 0-6.752 3.376 3.376 0 0 0 0 6.752ZM194.93 128.145a3.375 3.375 0 1 0 0-6.75 3.375 3.375 0 0 0 0 6.75Z" fill="#FFC7DE" stroke="#000" stroke-width=".844" stroke-miterlimit="10"/><path d="M182.865 133.544c7.223 0 13.079-5.856 13.079-13.079 0-7.224-5.856-13.08-13.079-13.08-7.224 0-13.08 5.856-13.08 13.08 0 7.223 5.856 13.079 13.08 13.079Z" fill="#000" stroke="#000" stroke-width=".844" stroke-miterlimit="10"/><path d="m164.046 277.251-10.211-76.537-3.122-1.013" stroke="#000" stroke-width=".844" stroke-miterlimit="10"/><path d="m145.988 151.686-11.392 22.278 40.589 11.729 7.257-17.72 16.117-4.557s-2.025-10.295-3.037-14.177c-2.701-10.885-9.367-17.974-19.493-21.096-9.536-3.038-19.915-1.688-28.438 3.544l-9.873 6.076 8.27 13.923Z" fill="#FF006C" stroke="#000" stroke-width=".844" stroke-miterlimit="10"/><path d="m145.986 151.687 7.004-12.489M198.559 163.415l1.35 8.608M102.783 148.226l9.367 6.076M105.992 146.707l9.198 4.979M118.14 149.661l-1.013.675" stroke="#000" stroke-width=".844" stroke-miterlimit="10" stroke-linecap="round" stroke-linejoin="round"/><path d="M141.516 275.141h55.694" stroke="#000" stroke-width=".844" stroke-miterlimit="10"/><path d="m182.441 167.973 2.87-6.666" stroke="#000" stroke-width=".844" stroke-miterlimit="10" stroke-linecap="round" stroke-linejoin="round"/><path d="m185.31 161.307-1.181 15.948-1.941-8.438 3.122-7.51ZM134.596 173.964l40.926 14.936-.337-3.207-40.589-11.729Z" fill="#000"/><path d="m210.457 216.664-7.004 4.81 7.004 5.063M282.943 226.536l7.089-4.81-7.089-5.063M204.297 221.558h84.807" stroke="#FF006C" stroke-width=".844" stroke-miterlimit="10" stroke-linecap="round" stroke-linejoin="round"/></svg>