<svg viewBox="0 0 400 300" fill="none" xmlns="http://www.w3.org/2000/svg"><path d="M293.941 41H185.09v55.027h108.851V41Z" fill="#fff" stroke="#000" stroke-width=".752" stroke-miterlimit="10"/><path d="M212.828 82.496c7.722 0 13.982-6.26 13.982-13.982 0-7.722-6.26-13.982-13.982-13.982-7.722 0-13.982 6.26-13.982 13.982 0 7.722 6.26 13.982 13.982 13.982ZM222.677 58.591l-19.771 19.771" stroke="#FF006C" stroke-width="1.503" stroke-miterlimit="10"/><path d="M250.04 54.682h38.263M250.04 64.755h38.263" stroke="#000" stroke-width=".752" stroke-miterlimit="10"/><path d="m337.843 143.161-2.857-2.856c-3.608-3.609-9.472-3.609-13.08 0l-2.857 2.856c-3.608 3.609-9.472 3.609-13.08 0l-2.857-2.856c-3.608-3.609-9.472-3.609-13.08 0l-2.856 2.856c-3.609 3.609-9.472 3.609-13.081 0l-2.781-2.856c-3.608-3.609-9.472-3.609-13.08 0l-2.857 2.856c-3.608 3.609-9.472 3.609-13.08 0l-2.857-2.856c-3.608-3.609-9.472-3.609-13.08 0l-2.857 2.856c-3.608 3.609-9.472 3.609-13.08 0l-2.856-2.856c-3.609-3.609-9.472-3.609-13.081 0l-2.856 2.856c-3.609 3.609-9.472 3.609-13.081 0l-2.856-2.856c-3.609-3.609-9.472-3.609-13.08 0l-9.397 9.396" stroke="#DEDFEA" stroke-width=".752" stroke-miterlimit="10"/><path d="M337.843 146.319a3.157 3.157 0 1 0 0-6.314 3.157 3.157 0 0 0 0 6.314Z" fill="#fff" stroke="#DEDFEA" stroke-width=".752" stroke-miterlimit="10"/><path d="m248.31 240.662-2.856-2.856c-3.609-3.609-9.472-3.609-13.08 0l-2.857 2.856c-3.608 3.608-9.472 3.608-13.08 0l-2.857-2.856c-3.608-3.609-9.472-3.609-13.08 0l-2.857 2.856c-3.608 3.608-9.472 3.608-13.08 0l-2.781-2.856c-3.609-3.609-9.472-3.609-13.081 0l-2.856 2.856c-3.609 3.608-9.472 3.608-13.08 0l-2.857-2.856c-3.608-3.609-9.472-3.609-13.08 0l-2.857 2.856c-3.608 3.608-9.472 3.608-13.08 0l-2.857-2.856c-3.608-3.609-9.472-3.609-13.08 0l-2.857 2.856c-3.608 3.608-9.471 3.608-13.08 0l-2.856-2.856c-3.609-3.609-9.472-3.609-13.08 0l-9.397 9.396" stroke="#DEDFEA" stroke-width=".752" stroke-miterlimit="10"/><path d="M148.704 119.632c-2.781 7.893-7.893 23.454-13.381 39.241.226.075-51.418.075-51.418.075-3.985 11.576 41.345 28.34 38.037 38.038-.902 2.631-19.019-9.397-19.845-7.067-3.083 9.021 12.103 29.393 12.103 29.393h111.708c7.367 0 13.982-4.661 16.463-11.652l28.716-82.089c2.03-5.864-2.33-11.953-8.494-11.953H157.199c-3.834 0-7.292 2.405-8.495 6.014Z" fill="#DEDFEA" stroke="#000" stroke-width=".752" stroke-miterlimit="10"/><path d="m166.296 187.965 7.968-6.014c1.654-1.202-12.027-25.032-22.627-28.115-3.383-.977-14.057 6.465-22.477 12.705 7.969 2.405 20.598 1.203 37.136 21.424Z" fill="#B6BBE2" stroke="#000" stroke-width=".752" stroke-miterlimit="10"/><path d="M214.483 158.197h41.42c5.413 0 9.021 5.713 6.616 10.599l-20.372 41.947c-2.481 5.112-7.668 8.344-13.381 8.344l-112.16.075" fill="#DEDFEA"/><path d="M214.483 158.197h41.42c5.413 0 9.021 5.713 6.616 10.599l-20.372 41.947c-2.481 5.112-7.668 8.344-13.381 8.344l-112.16.075" stroke="#000" stroke-width=".752" stroke-miterlimit="10"/><path d="m195.913 181.801 3.759-2.781 10.374-18.268c.752-1.202 5.112 3.759 7.818 6.691l35.181 25.033c1.128.827 2.707.601 3.609-.376l16.237-17.892a2.568 2.568 0 0 0-.075-3.533c-.676-.751-1.729-.977-2.706-.676l-10.524 3.683-34.28-28.641c-7.893-6.766-14.283-2.932-19.244.526-6.089 4.21-23.003 16.388-23.003 16.388l12.854 19.846ZM85.484 170.976c7.308 0 13.231-5.923 13.231-13.23s-5.924-13.231-13.23-13.231c-7.308 0-13.231 5.924-13.231 13.231 0 7.307 5.923 13.23 13.23 13.23Z" fill="#FFC7DE" stroke="#000" stroke-width=".752" stroke-miterlimit="10"/><path d="M72.705 161.43c.526 2.48 4.435 10.599 14.809 9.472 4.285-.451 6.766-3.534 6.766-3.534-1.128-5.262-8.345-6.089-8.27-6.465.827-2.706-1.202-5.713-4.585-7.818-3.608-2.33-7.517-1.879-7.517-1.879-.677 1.353-2.406 4.285-1.203 10.224Z" fill="#000"/><path d="M86.837 166.09a3.759 3.759 0 1 0 0-7.518 3.759 3.759 0 0 0 0 7.518Z" fill="#FFC7DE"/><path d="M78.266 146.921s-1.428 4.736-3.307 6.314l-1.128-1.654c0-.075 2.105-3.608 4.435-4.66Z" fill="#000"/><path d="m86.085 164.061.902-2.932" stroke="#000" stroke-width=".752" stroke-miterlimit="10" stroke-linecap="round" stroke-linejoin="round"/><path d="m191.253 194.129-4.736 8.42c-1.879 3.382-5.487 5.487-9.396 5.487h-55.855c-3.909 0-7.517-2.105-9.396-5.487l-23.304-41.572c-.977-1.729-11.427 1.654-9.397 5.263l27.138 47.058c2.105 3.684 6.014 6.014 10.223 6.014h65.251c4.21 0 8.119-2.33 10.224-6.014l7.743-13.381" fill="#fff"/><path d="m191.253 194.129-4.736 8.42c-1.879 3.382-5.487 5.487-9.396 5.487h-55.855c-3.909 0-7.517-2.105-9.396-5.487l-23.304-41.572c-.977-1.729-11.427 1.654-9.397 5.263l27.138 47.058c2.105 3.684 6.014 6.014 10.223 6.014h65.251c4.21 0 8.119-2.33 10.224-6.014l7.743-13.381" stroke="#000" stroke-width=".752" stroke-miterlimit="10"/><path d="m199.824 199.843 19.395-33.603c2.029-3.608-.602-8.043-4.736-8.043a5.435 5.435 0 0 0-4.736 2.781l-18.568 33.152" fill="#fff"/><path d="m199.824 199.843 19.395-33.603c2.029-3.608-.602-8.043-4.736-8.043a5.435 5.435 0 0 0-4.736 2.781l-18.568 33.152" stroke="#000" stroke-width=".752" stroke-miterlimit="10"/><path d="M81.048 242.317a1.638 1.638 0 0 1 1.052-1.278c2.18-.902 3.534-3.007 4.06-6.089.376-2.556 0-4.811 0-4.886a1.696 1.696 0 0 1 1.428-1.955 1.697 1.697 0 0 1 1.955 1.428c0 .075.45 2.782 0 5.864-.677 4.36-2.782 7.367-6.09 8.795-.902.376-1.879 0-2.255-.902-.225-.301-.225-.676-.15-.977ZM79.47 217.735l.752 12.479c.075.751.676 1.353 1.428 1.353.601 0 1.127-.451 1.278-1.053l1.578-6.164-5.036-6.615Z" fill="#FFC7DE" stroke="#000" stroke-width=".752" stroke-miterlimit="10"/><path d="M83.68 245.699a2.54 2.54 0 0 1 .45-.902c.226-.226 4.21-4.811 3.534-14.133-.076-.977.6-1.804 1.578-1.804.977-.075 1.804.601 1.804 1.579.827 10.975-4.21 16.538-4.36 16.763-.676.677-1.729.752-2.405.076a1.771 1.771 0 0 1-.602-1.579Z" fill="#FFC7DE" stroke="#000" stroke-width=".752" stroke-miterlimit="10"/><path d="m79.169 214.126.15 2.33c.301 4.36 1.955 8.42 4.736 11.803 1.88 2.255 3.759 4.961 4.36 7.292 1.128 6.239-.676 10.073-.751 10.223-.15.301-.226.602-.15.977.074.527.375 1.053.901 1.354.827.451 1.88.075 2.33-.752.076-.226 1.805-3.609 1.504-9.247-.075-1.503 0-3.082.226-4.585.45-3.233 1.203-7.367.676-13.306l-.601-6.54" fill="#FFC7DE"/><path d="m79.169 214.126.15 2.33c.301 4.36 1.955 8.42 4.736 11.803 1.88 2.255 3.759 4.961 4.36 7.292 1.128 6.239-.676 10.073-.751 10.223-.15.301-.226.602-.15.977.074.527.375 1.053.901 1.354.827.451 1.88.075 2.33-.752.076-.226 1.805-3.609 1.504-9.247-.075-1.503 0-3.082.226-4.585.45-3.233 1.203-7.367.676-13.306l-.601-6.54" stroke="#000" stroke-width=".752" stroke-miterlimit="10"/><path d="M88.64 238.858s-.075-3.683-1.052-3.307l.225-1.729s.978 2.255.827 5.036ZM87.665 234.874s-.076-1.503-1.429-1.804v-2.105s1.053 1.654 1.654 2.857l-.225 1.052ZM83.68 227.883l-.226.677s-.977-2.781-3.683-5.187l-.226-4.736s.977 4.736 4.135 9.246Z" fill="#000"/><path d="m184.111 219.313 14.584 40.218M236.282 217.508l16.313 42.022M140.362 219.313l-16.163 40.218M114.2 219.313l-17.215 40.218" stroke="#000" stroke-width=".752" stroke-miterlimit="10"/><path d="m190.502 188.04-24.131-7.517" stroke="#565656" stroke-width=".752" stroke-miterlimit="10"/><path d="m161.335 177.741-21.951-3.383-12.103-8.194c-7.442-5.863-11.652-7.367-18.417-7.743-3.158-.15-7.367 0-12.554.977l13.08 29.844 37.737 18.794 14.208-30.295Z" fill="#fff" stroke="#000" stroke-width=".752" stroke-miterlimit="10"/><path d="M171.633 208.112c7.968 0 12.253-.075 12.253-.075l20.147 50.366a1.899 1.899 0 0 0 1.729 1.128h31.197c1.278 0 2.18-1.278 1.804-2.481-.3-.752-.676-1.503-1.353-1.879-3.308-1.88-12.103-4.962-12.103-4.962l-15.711-48.712c-1.804-5.488-6.164-9.773-11.652-11.427l-14.434-4.21s-5.938 2.331-9.02 8.871c-2.932 6.014-2.857 13.381-2.857 13.381Z" fill="#FFC7DE" stroke="#000" stroke-width=".752" stroke-miterlimit="10"/><path d="M171.633 208.037c0-18.343 11.727-22.101 11.727-22.101l5.487 1.578 7.067-5.713-12.78-19.846-21.8 15.787c-15.712 7.592-14.358 30.295-14.358 30.295h24.657Z" fill="#DEDFEA" stroke="#000" stroke-width=".752" stroke-miterlimit="10"/><path d="M165.244 202.925c-4.736 0-8.119 5.262-13.306-.075-13.757-13.983-21.951-10.224-29.769-14.058-2.781-1.353-6.615-9.096-7.818-12.329-5.037-13.005-11.953-18.342-18.042-17.139-7.592 1.578-11.727 3.007-15.786 5.262-4.51 2.481-6.615 5.713-7.142 9.547-.676 5.112-.45 20.447 1.053 31.272 1.127 7.894 7.517 14.734 15.486 14.734h3.307l-3.307-38.188 9.922-3.232 4.661 10.299c6.54 11.802 19.32 19.094 36.535 19.094 12.629 0 30.295 0 37.136-.076-.151.076-6.24-5.111-12.93-5.111Z" fill="#FF006C" stroke="#000" stroke-width=".752" stroke-miterlimit="10"/><path d="m183.361 185.935-15.937-4.886" stroke="#000" stroke-width=".752" stroke-miterlimit="10"/><path d="m132.918 193.528-18.267-5.939c-.977-.3-1.504-1.353-1.128-2.255l2.707-8.269c.3-.977 1.353-1.504 2.255-1.128l18.267 5.939-3.834 11.652Z" fill="#fff" stroke="#000" stroke-width=".752" stroke-miterlimit="10"/><path d="M130.963 177.967s-6.916 5.112-8.945 12.629c-.301 1.203 0 2.706 1.127 3.158 1.579.601 2.932-.527 2.932-.527s.526 1.729 3.082 1.504c.902 1.127 2.03 1.203 3.533.676.677.451 1.429.677 2.556.376 2.556-.751 4.285-4.736 4.436-7.141l6.013-5.187-14.734-5.488Z" fill="#FFC7DE" stroke="#000" stroke-width=".752" stroke-miterlimit="10" stroke-linecap="round" stroke-linejoin="round"/><path d="m131.039 178.869-.601-.601a.952.952 0 0 1 0-1.353l5.938-4.812-8.72-5.788s5.864.827 9.547.075c7.743-1.654 18.418-5.412 24.206.301 3.533 3.533 2.18 8.645-.601 10.9-1.278.902-2.857 2.03-4.586 3.157-7.367 4.887-18.643 4.06-25.183-1.879Z" fill="#FF006C" stroke="#000" stroke-width=".752" stroke-miterlimit="10"/><path d="m136.376 172.179 3.834-3.082M100.293 176.764h2.406M63.684 259.531h230.332M300.631 259.531h5.037" stroke="#000" stroke-width=".752" stroke-miterlimit="10"/><path d="M100.294 176.764s-9.698-.752-14.434 1.278c0 0 4.51 33.077 15.11 38.263 9.923.827 31.348-8.569 31.348-8.569s-24.206-6.089-32.024-30.972Z" fill="#B6BBE2" stroke="#000" stroke-width=".752" stroke-miterlimit="10"/><path d="m182.76 208.187 2.781 10.9h2.631l-4.285-11.051-1.127.151Z" fill="#000" stroke="#000" stroke-width=".752" stroke-miterlimit="10"/><path d="m168.176 181.199 22.702 4.36-2.029 1.955-20.673-6.315ZM118.184 178.794a.677.677 0 1 0 0-1.354.677.677 0 0 0 0 1.354Z" fill="#000"/><path d="M250.04 74.754h14.809M89.769 181.951l2.555 1.203M100.594 191.573l-.978 1.955M93.527 196.46l1.504-3.383M102.247 203.977l4.586-1.504M102.247 212.171l2.18-3.608M99.692 178.794l-1.052 2.405M116.155 203.977l-.225 1.879M110.366 211.269l2.255-.451M108.261 191.724l-1.202 1.428M94.58 208.563l1.88.376M121.267 208.111l-.301 3.759M151.561 153.836l-1.353 2.556M145.173 159.098l.752 1.955M161.034 160.828l-.752 1.428M154.645 160.452l1.578-.151M163.364 171.502h1.729" stroke="#000" stroke-width=".752" stroke-miterlimit="10"/><path d="M143.669 185.184s5.638.526 10.073-1.053l2.556-3.307s-5.939 3.382-11.426 3.307l-1.203 1.053Z" fill="#000"/><path d="M62.782 149.25a2.33 2.33 0 1 0 0-4.66 2.33 2.33 0 0 0 0 4.66Z" fill="#DEDFEA"/><path d="M63.157 250.359a3.157 3.157 0 1 0 .001-6.314 3.157 3.157 0 0 0 0 6.314Z" fill="#fff" stroke="#DEDFEA" stroke-width=".752" stroke-miterlimit="10"/><path d="M93.904 108.281s-17.29 2.33-14.433-4.36c3.232-7.518 18.567-9.623 16.613-2.932-2.48 8.419-26.386 2.48-17.29-3.458 7.442-4.887 16.012 1.278 9.923 9.396-4.06 5.488-6.766 9.472-1.955 12.179 4.962 2.781 3.834 13.381 3.834 13.381" fill="#fff"/><path d="M93.904 108.281s-17.29 2.33-14.433-4.36c3.232-7.518 18.567-9.623 16.613-2.932-2.48 8.419-26.386 2.48-17.29-3.458 7.442-4.887 16.012 1.278 9.923 9.396-4.06 5.488-6.766 9.472-1.955 12.179 4.962 2.781 3.834 13.381 3.834 13.381" stroke="#000" stroke-width=".752" stroke-miterlimit="10" stroke-linecap="round" stroke-linejoin="round"/></svg>