<svg viewBox="0 0 400 300" fill="none" xmlns="http://www.w3.org/2000/svg"><path d="M303.515 52.677H93.69v103.962h209.825V52.677ZM122.915 242.334H84.95v-2.826h36.804l1.161 2.826Z" fill="#D2E9FE"/><path d="M122.473 239.508H84.509v-1.385h36.799l1.165 1.385Z" fill="#398CFF"/><path d="M104.962 167.785h-3.715v18.292h3.715v-18.292Z" fill="#93B9FF"/><path d="M102.187 167.785h-2.161v7.651h2.161v-7.651ZM106.066 167.785h-2.16v7.651h2.16v-7.651Z" fill="#D2E9FE"/><path d="m124.379 256.075-19.007-88.62 2.06-.445 19.008 88.62-2.061.445ZM81.935 257.521l19.567-90.176-2.06-.445-19.762 90.931 2.255-.31Z" fill="#D2E9FE"/><path d="M111.722 166.4H94.485v1.495h17.237V166.4Z" fill="#398CFF"/><path d="M328.632 257.831H71.468" stroke="#1E294A" stroke-width=".945" stroke-miterlimit="10" stroke-linecap="round"/><path d="M284.678 82.84h34.849a6.763 6.763 0 0 1 6.751 6.766 6.765 6.765 0 0 1-6.751 6.766h-37.48l-4.13 8.146V89.606a6.763 6.763 0 0 1 6.761-6.766Z" fill="#AABCFF" style="mix-blend-mode:multiply"/><path d="M286.062 87.626h31.319M286.022 91.626h18.543" stroke="#D2E9FE" stroke-width=".34" stroke-miterlimit="10"/><path d="M120.869 78.24h-18.257v18.257h18.257V78.24ZM142.751 78.285h-18.257v18.257h18.257V78.285Z" fill="#93B9FF"/><path d="M230.117 78.22h-78.889v18.257h78.889V78.22Z" fill="#fff"/><path d="M107.407 62.568h182.386" stroke="#fff" stroke-width=".39" stroke-miterlimit="10" stroke-linecap="round"/><path d="M325.232 102.268a5.766 5.766 0 1 0 0-11.532 5.766 5.766 0 0 0 0 11.532Z" fill="#2C60FF" style="mix-blend-mode:multiply"/><path d="m216.375 130.531-13.956 29.088H173.73v2.331h30.364l14.337-30.474a1.128 1.128 0 0 0-.77-1.58 1.125 1.125 0 0 0-1.286.635Z" fill="#2C60FF"/><path d="M132.235 161.92h115.094a1.91 1.91 0 0 1 1.91 1.91v.36a1.91 1.91 0 0 1-1.91 1.91H132.235V161.92ZM319.692 185.562a3.12 3.12 0 1 0 0-6.24 3.12 3.12 0 0 0 0 6.24Z" fill="#93B9FF"/><path d="M313.646 175.056c7.465 0 13.517-6.052 13.517-13.517s-6.052-13.516-13.517-13.516-13.516 6.051-13.516 13.516 6.051 13.517 13.516 13.517Z" fill="#D2E9FE"/><path d="M289.277 165.83c2.406 0 4.356-10.561 4.356-23.588 0-13.027-1.95-23.587-4.356-23.587-2.405 0-4.355 10.56-4.355 23.587s1.95 23.588 4.355 23.588Z" fill="#3C64F5" style="mix-blend-mode:multiply"/><path d="M274.442 201.81c3.342-1.089 4.52-6.675 2.63-12.475-1.891-5.801-6.133-9.62-9.476-8.53-3.342 1.089-4.52 6.674-2.629 12.475 1.89 5.8 6.132 9.619 9.475 8.53ZM143.167 114.559h33.154a6.444 6.444 0 0 1 6.441 6.441 6.442 6.442 0 0 1-6.441 6.436h-35.659l-3.931 7.75V121a6.44 6.44 0 0 1 6.436-6.441Z" fill="#93B9FF"/><path d="M144.481 119.115h29.814M144.446 122.92h17.647" stroke="#fff" stroke-width=".425" stroke-miterlimit="10" stroke-linecap="round"/><path d="M174.279 82.68a.767.767 0 0 1-.5-.105l-27.353-16.687a.778.778 0 0 1 .223-1.417.776.776 0 0 1 .587.092l27.348 16.692a.766.766 0 0 1 .36.818.768.768 0 0 1-.655.607h-.01Z" fill="#1E294A"/><path d="M160.508 71.904c-.31.555.385 1.22.84 1.665a7.618 7.618 0 0 0 1.575 1.11c1.05.605 2.1 1.216 3.19 1.756.951.418 1.867.91 2.741 1.47a4.504 4.504 0 0 1 1.85 2.42c-1.165-.5-2.06-1.455-3.095-2.18a4.138 4.138 0 0 0-3.001-.86.375.375 0 0 0-.225.6 27.378 27.378 0 0 0 4.366 4.785c.475.385 1 .74 1.43 1.156.95.88 1.65 2 2.665 2.805 1.81 1.425 4.396 1.605 6.126 3.13.15-.72 1.105-2.57 1.14-1.835l2.285-2.545s-1.075-.71-3.39-4.58c-2.315-3.871-4.001-5.291-4.501-6.002-.5-.71-5.355-2.62-5.995-2.75-.64-.13-2.851 1.5-2.851 1.5s-4.195-2-4.4-1.97c-.205.03-.44-.215-.75.325Z" fill="#AABCFF"/><path d="M166.363 73.96s3.731 1.105 5.066 1.71" stroke="#1E294A" stroke-width=".22" stroke-miterlimit="10" stroke-linecap="round"/><path d="M186.51 85.74c-7.371-2.62-10.681 2.296-10.681 2.296a168.268 168.268 0 0 0 3.16 3.945 34.74 34.74 0 0 1 10.432-4.89 18.653 18.653 0 0 0-2.911-1.35Z" fill="#2C60FF"/><path d="m232.237 232.463-.5 1.245a21.918 21.918 0 0 0 3.001-.71c-.845-.585-2.501-.535-2.501-.535Z" fill="#1E294A"/><path d="M266.335 226.347c-.375.405-.865.93-1.11 1.175 0 0 2.19-11.216-2.405-19.712-4.596-8.496-8.171-15.067-8.171-15.067l-1.795-9.851s-2.376-15.042-2.161-25.728l-9.676-22.813s-15.502.965-19.682-.45c0 0-2.62 63.508-3.581 76.509-.37 4.611-1.265 16.187-1.6 24.068 0 0 9.111.31 15.502-.77l.05-.03s6.306-11.001 6.001-21.638l-.17-.07 2.39-6.275s9.276 20.862 13.747 29.408c7.145-3.145 11.026-6.881 12.661-8.756Z" fill="#1E294A"/><path d="M237.671 176.861s-3.635 4.076-4.6 6.301c-.965 2.225 2.895-.665 2.895-.665l1.705-5.636Z" fill="#AABCFF"/><path d="M223.441 181.017s-3.03 19.202-4.38 20.227c0 0 1.68.1 4.27.275 3.415.22 8.411.565 13.227.945 4.815.38 9.366.785 12.076 1.15 0 0 2.555-11.351 3.03-20.552 0 0-23.257-1.97-28.223-2.045Z" fill="#FF3F08"/><path d="M264.556 225.842s1.71-.32 2.245 0c.535.32-1.87 2.455-1.87 2.455l-.375-2.455Z" fill="#1E294A"/><path d="M220.75 133.901s-1.76 2.616-1.87 2.886c0 0 6.251 2.72 8.501 2.455.16-.43 1.85-3.501 2.15-4.136 0 0 .945 4.456 1.59 4.561 0 0 8.641-.585 9.691-.905 0 0 .085-3.636.215-4.411-.01 0-13.626 1.175-20.277-.45Z" fill="#D2E9FE"/><path opacity=".22" d="M230.102 103.073a2.892 2.892 0 0 0 3.15.16l-1.44-1.655h-2.14l.43 1.495Z" fill="#2C60FF"/><path d="M238.432 80.37a2.405 2.405 0 1 0 0-4.81 2.405 2.405 0 0 0 0 4.81Z" fill="#FF3F08"/><path d="M236.632 79.58a.085.085 0 0 1-.06 0 2.497 2.497 0 0 1-.731-3.205c.189-.352.46-.654.791-.88a.105.105 0 0 1 .145 0c.01.01.018.021.023.034a.096.096 0 0 1 0 .081.098.098 0 0 1-.023.035 2.295 2.295 0 0 0-.989 1.856 2.31 2.31 0 0 0 .934 1.884c.019.02.029.045.029.072 0 .028-.01.053-.029.073a.099.099 0 0 1-.09.05ZM226.92 93.967s-2.78 1.76-2.5 3.365l6.091.5v-4.15l-3.581.27" fill="#FF3F08"/><path d="M236.517 92.602c-.54.78-2 3.195-1.675 5.8-.345-2.605 1.135-5 1.675-5.8l.16-.255c.22-.336 2.275-1.72 1.955-3.856-.32-2.135-3-1.125-3-1.125-4.331-.265-7.321-5.5-7.321-5.5a3.133 3.133 0 0 1-2.39 2l-.06.21c-1.566 5.665-.661 8.5.655 9.97a4.579 4.579 0 0 0 3.13 1.5c.375.8 0 4.251 0 4.251l-.8 2.001s6.036 3.26 5.966-2.076c0-.665 0-1.285.055-1.865.035-.44.09-.855.16-1.25.1-.604.253-1.198.455-1.775.26-.78.607-1.528 1.035-2.23Z" fill="#AABCFF"/><path opacity=".32" d="M236.922 92.072Z" fill="#AABCFF"/><path d="m242.373 90.966-.225-.1c-.905-.38-1.72-.65-2.175-1.16a1.538 1.538 0 0 1-.39-1.08c0-5.4-.43-8.23-3.796-9.671-3.365-1.44-8.271-.43-9.771 4.725h.115l-.035.066-.08-.066-.065.23a3.12 3.12 0 0 0 2.39-2s3.001 5.236 7.321 5.5c0 0 2.726-1.064 3.001 1.126.235 1.94-1.25 3.14-1.796 3.68l-.085.12-.03.046a10.935 10.935 0 0 0-1.23 2.5c-.196.58-.348 1.173-.455 1.775-.082.496-.13.997-.145 1.5l10.766.5c2.116-4.415-1.735-6.946-3.315-7.69Z" fill="#1E294A"/><path opacity=".32" d="M235.052 96.602c.106-.602.258-1.196.455-1.775a10.756 10.756 0 0 0-.455 1.775ZM236.922 92.072Z" fill="#AABCFF"/><path d="m242.373 90.966-.225-.1c-.905-.38-1.72-.65-2.175-1.16a1.538 1.538 0 0 1-.39-1.08c0-5.4-.43-8.23-3.796-9.671-3.365-1.44-8.271-.43-9.771 4.725h.115l-.035.066-.08-.066-.065.23a3.12 3.12 0 0 0 2.39-2s3.151 5.34 7.501 5.61c0 0 2.566-1.174 2.831 1.001.235 1.94-1.251 3.14-1.796 3.68l-.085.12-.03.046a10.935 10.935 0 0 0-1.23 2.5c-.196.58-.348 1.173-.455 1.775-.082.496-.13.997-.145 1.5l10.766.5c2.106-4.4-1.745-6.93-3.325-7.676Z" fill="#FF3F08"/><path opacity=".32" d="M235.052 96.602c.106-.602.258-1.196.455-1.775a10.756 10.756 0 0 0-.455 1.775Z" fill="#AABCFF"/><path d="M232.313 90.809c.802-.803 1.073-1.833.604-2.302-.468-.469-1.499-.198-2.302.605-.802.802-1.073 1.833-.604 2.302.468.468 1.499.198 2.302-.605Z" fill="#2C60FF"/><path d="M228.606 85.926c-.055.105-2.725 5.13-.695 4.97" stroke="#1E294A" stroke-width=".105" stroke-miterlimit="10" stroke-linecap="round"/><path d="M225.186 87.49a12.906 12.906 0 0 0-.06 3.081.919.919 0 0 0 .76-.085c.55-.375.475-1.44-.16-2.38a3.604 3.604 0 0 0-.54-.615Z" fill="#2C60FF"/><path d="M236.017 89.556s.5-1.175 1.55-1.12" stroke="#1E294A" stroke-width=".105" stroke-miterlimit="10" stroke-linecap="round"/><path d="M242.628 169.69a14.623 14.623 0 0 0-2.256 3.126c-.755 1.56-3.88 5.195-4.37 7.081-.49 1.885-1.615 10.791-.8 11.546.815.755 1.415 0 1.545-.5.13-.5 1.025-7.536 1.025-7.536s-.125 7.811-.05 8.566a.877.877 0 0 0 1.165.783.875.875 0 0 0 .425-.323c.525-.77.38-2.275.38-2.275s.175 1.21 1 1c.826-.21 1.181-2.04 1.181-2.04a.596.596 0 0 0 .335.398.601.601 0 0 0 .52-.013c.625-.31 3.045-7.291 3.345-8.001.3-.71.585-1.77.455-4.501a21.468 21.468 0 0 1 1.75-8.911l-5.65 1.6Z" fill="#AABCFF"/><path d="M241.278 182.237c-.313.27-.511.649-.555 1.06-.155.805-1.035 7.271-1.035 7.271M236.108 179.587a27.932 27.932 0 0 0-.55 2.87M238.226 181.497l-.37 1.925M244.098 181.627a4.357 4.357 0 0 0-1 2c-.185 1.1-1.16 5.546-1.16 5.546" stroke="#1E294A" stroke-width=".22" stroke-miterlimit="10" stroke-linecap="round"/><path d="M236.882 88.971s.43 1.39-.37 1.925" stroke="#1E294A" stroke-width=".105" stroke-miterlimit="10" stroke-linecap="round"/><path d="M240.518 167.555c-.055.23-.455 2.045.595 3.396 1.12 1.44 7.076 1.68 7.076 1.68.19-.295 0-2.251.11-3.176-3.981.175-6.566-1.11-7.781-1.9Z" fill="#2C60FF"/><path d="M230.797 147.253s-.5 27.038 2.375 34.569" stroke="#fff" stroke-width=".215" stroke-miterlimit="10" stroke-linecap="round"/><path d="m218.92 237.983.14 3.871 8.501.46 1.1-5.891a33.62 33.62 0 0 1-9.741 1.56Z" fill="#AABCFF"/><path d="m227.761 241.824-9.291.03c1.371 9.001-5.745 5.925-11.606 8.441a10.055 10.055 0 0 0-5.381 5.04l22.083-.065 7.386-.025-3.191-13.421Z" fill="#398CFF"/><path d="M223.565 255.27h.011l-.006-.01-.005.01ZM200.728 258.011l21.002.025 1.85-2.766-22.082.065a8.146 8.146 0 0 0-.77 2.676Z" fill="#1E294A"/><path d="m223.575 255.27 1.32 3.001 6.776-.045-.71-2.981-7.386.025Z" fill="#1E294A"/><path d="m218.63 244.354 9.781.205" stroke="#1E294A" stroke-width=".505" stroke-miterlimit="10"/><path d="M226.217 245.854c0 .17 1 9.406 1 9.406" stroke="#1E294A" stroke-width=".505" stroke-miterlimit="10" stroke-linecap="round"/><path d="m225.899 243.268-.005.001a.55.55 0 0 0-.486.607l.229 2.082a.55.55 0 0 0 .607.487l.005-.001a.55.55 0 0 0 .487-.606l-.23-2.083a.55.55 0 0 0-.607-.487Z" fill="#93B9FF"/><path d="m256.92 236.788 1.96 3.501 8.061-3.591-2.86-8.181c-1.875 1.85-3.496 6.326-7.161 8.271Z" fill="#AABCFF"/><path d="m267.29 236.663-9.046 3.246c4.451 8.3-3.555 7.765-8.401 12.246a10.397 10.397 0 0 0-3.5 6.781l21.502-7.706 7.191-2.58-7.746-11.987Z" fill="#398CFF"/><path d="m267.855 251.23.011-.005-.011-.005v.01ZM246.519 261.806l20.502-7.236.85-3.34-21.502 7.706a8.369 8.369 0 0 0 .15 2.87Z" fill="#1E294A"/><path d="m267.866 251.225 2.325 2.47 6.591-2.39-1.725-2.66-7.191 2.58Z" fill="#1E294A"/><path d="m259.266 242.289 9.611-3.186M267.181 241.124l4.235 8.826" stroke="#1E294A" stroke-width=".505" stroke-miterlimit="10"/><path d="M266.743 238.955a.57.57 0 1 0-1.026.497l.944 1.949a.57.57 0 0 0 1.026-.497l-.944-1.949Z" fill="#93B9FF"/><path d="m248.319 169.455.05-.455c19.767-56.631-11.352-66.782-11.352-66.782s-8.256-1.681-16.001 0c-7.746 1.68-12.822.265-15.547-1.761-2.37-1.77-9.366-9.616-16.002-13.341a34.732 34.732 0 0 0-10.456 4.865c28.658 34.694 45.005 25.503 45.005 25.503 0 1.656-4.701 16.397-4.701 16.397 13.622 2.621 21.903.5 21.903.5-.91 6.411-1.5 28.369-1.5 28.369-.055 1.605.8 4.82.795 4.835 1.22.76 3.805 2.045 7.806 1.87Z" fill="#398CFF"/><path d="M237.678 120.61a25.89 25.89 0 0 1 3.24 13.741c0 .415.625.415.64 0a26.565 26.565 0 0 0-3.325-14.066c-.2-.36-.755-.035-.555.325Z" fill="#1E294A"/><path d="M235.707 99.227s-3.186 1.765-3.891 2.351c0 0 .795 2.5.5 3.205 0 0 4.576-1.5 4.866-2.24.235-.535-1.045-2.836-1.475-3.316ZM228.391 98.852s3 2.14 3.42 2.726c0 0-1.5 2.67-1.71 3.205 0 0-3-2.5-3.205-3l1.495-2.93ZM266.826 225.812s-.21.235-.5.535c-1.636 1.875-5.501 5.611-12.662 8.761 1.055 2 1.84 3.34 2.175 3.555 0 0 10.792-5.93 12.557-9.886.01 0-.875-2.375-1.57-2.965Z" fill="#fff"/><path d="M246.963 95.297a.106.106 0 0 1-.064-.02.114.114 0 0 1-.041-.055 7.414 7.414 0 0 0-4.205-4.756 9.341 9.341 0 0 0-3.051-.8.106.106 0 0 1-.041-.01.11.11 0 0 1-.054-.063.12.12 0 0 1-.005-.042.115.115 0 0 1 .036-.071.109.109 0 0 1 .074-.029 9.43 9.43 0 0 1 3.121.815 7.632 7.632 0 0 1 4.33 4.916.095.095 0 0 1-.006.08.108.108 0 0 1-.027.032.097.097 0 0 1-.037.018l-.03-.015Z" fill="#FF3F08"/><path d="M231.726 233.698h-.075c-6.386 1.08-15.502.77-15.502.77l.27 4.17a32.42 32.42 0 0 0 3.151.455 30.85 30.85 0 0 0 9.076-.44 21.075 21.075 0 0 0 4.44-1.35c.855-.535 1.656-4.33 1.656-4.33-.987.312-1.995.555-3.016.725Z" fill="#fff"/><path d="M130.33 227.597s-2.935 5.931-5.706 7.371l-2.33 2.88 10.921 7.316 1.605-2.825s3.636-7.061 5.446-7.686l-9.936-7.056Z" fill="#AABCFF"/><path d="M124.679 243.229c2.44 2.27 8.091 9.806 8.811 11.746.675 1.815 2.945 5.756 10.196 7.351 1.89-3.615-.025-7.211-1.105-8.181-1.08-.97-2.605-6.446-2.605-6.446a2.994 2.994 0 0 0-.61-2.55 26.91 26.91 0 0 0-3.216-2.545c-1.55-1-3.655.61-3.655.61s-5.101-4.001-6.321-4.656c-1.22-.655-1-3.935-1.66-4.105-.66-.17-1.665 1-1.665 1l-1 1.325c.41 1.985 1.265 4.991 2.83 6.451Z" fill="#2C60FF"/><path d="M133.505 254.975c-.72-1.94-6.371-9.476-8.811-11.746-1.566-1.46-2.421-4.466-2.836-6.436l-6.546 8.596 25.218 18.842c1.771.555 3.001-1.605 3.001-1.605.06-.1.115-.2.165-.3-7.261-1.595-9.531-5.536-10.191-7.351Z" fill="#1E294A"/><path d="M123.629 234.753c0 1.635.17 4.11 1.15 4.85 1.5 1.131 9.321 6.896 9.321 6.896a21.5 21.5 0 0 0 1.5 3.766c.72 1.165 2.256 2.945 6.116 2.47" stroke="#fff" stroke-width=".22" stroke-miterlimit="10"/><path d="M138.976 250.875a1.885 1.885 0 1 0 0-3.77 1.885 1.885 0 0 0 0 3.77Z" fill="#D2E9FE"/><path d="M85.435 186.637c-2 0-3.656 1.366-3.656 3.051s1.636 3.045 3.656 3.045h37.634v-6.096H85.435Z" fill="#AABCFF"/><path d="M74.048 153.048s4.39 8.091 7.046 8.206c2.655.115 4.65-7.87 4.65-7.87l-11.696-.336Z" fill="#2C60FF"/><path d="M108.937 223.937s-2.935 5.93-5.71 7.376l-2.326 2.885 10.917 7.316 1.61-2.816s3.63-7.065 5.445-7.691l-9.936-7.07Z" fill="#AABCFF"/><path d="M103.281 239.568c2.441 2.271 8.096 9.812 8.816 11.752.67 1.81 2.941 5.75 10.197 7.346a7.28 7.28 0 0 0-1.106-8.176c-1.11-1-2.605-6.431-2.605-6.431a2.994 2.994 0 0 0-.61-2.55 27.714 27.714 0 0 0-3.215-2.551c-1.555-1-3.661.61-3.661.61s-5.095-4-6.315-4.655c-1.221-.655-1.001-3.936-1.666-4.101-.665-.165-1.66 1.001-1.66 1.001l-1 1.325c.405 1.965 1.265 4.975 2.825 6.43Z" fill="#2C60FF"/><path d="M112.098 251.32c-.72-1.94-6.376-9.501-8.816-11.752-1.56-1.455-2.42-4.465-2.835-6.435l-6.531 8.596 25.218 18.847c1.775.555 3-1.61 3-1.61.06-.1.115-.2.165-.3-7.261-1.596-9.531-5.536-10.201-7.346Z" fill="#1E294A"/><path d="M102.237 231.097c0 1.636.165 4.111 1.15 4.846 1.501 1.13 9.322 6.896 9.322 6.896.38 1.301.882 2.564 1.5 3.77.72 1.16 2.255 2.941 6.115 2.466" stroke="#fff" stroke-width=".22" stroke-miterlimit="10"/><path d="M117.582 247.219a1.885 1.885 0 1 0 .001-3.77 1.885 1.885 0 0 0-.001 3.77Z" fill="#D2E9FE"/><path d="M83.069 158.519s-3.45 6.116-2 11.656c1.45 5.541 6.87 16.352 13.026 17.237h27.378s-18.182 32.589-18.902 35.42c0 0 19.457 10.501 23.113 10.586l1.22-2.501s19.067 8.256 21.893 8.646c0 0 1.5-58.006.775-59.006 0 0 3.67-6.431-1.295-11.032-4.966-4.6-65.208-11.006-65.208-11.006Z" fill="#398CFF"/><path d="M166.764 159.764s3.795-.425 5.72-.62c1.556-.155 13.787 1.315 16.462 1.72.73.11 1.045.425.5 1.056-3.095 1.065-13.501 2-20.872 1.315l-1.81-3.471Z" fill="#AABCFF"/><path d="M149.507 180.527c-3.095 6.81-6.126 13.666-9.001 20.567-2.96 7.026-5.836 14.082-9.101 21.002-1.81 3.826-3.71 7.616-5.746 11.327a.083.083 0 0 0-.009.062.078.078 0 0 0 .037.05.08.08 0 0 0 .062.01.082.082 0 0 0 .05-.037c7.266-13.232 12.597-27.338 18.638-41.14a797.831 797.831 0 0 1 5.25-11.736c.045-.1-.095-.185-.14-.085l-.04-.02Z" fill="#F4F1F0"/><path d="M145.736 231.348c-.15-.206-.34-.38-.559-.512a1.93 1.93 0 0 0-2.156.096 1.944 1.944 0 0 0-.415 2.711l3.851 5.245c.757.289 1.536.516 2.33.68 0 0 .04-1.46.1-3.925l-3.151-4.295Z" fill="#D2E9FE"/><path d="M123.07 212.13a3.325 3.325 0 1 0 0-6.65 3.325 3.325 0 0 0 0 6.65ZM144.492 180.957a3.326 3.326 0 1 0 0-6.652 3.326 3.326 0 0 0 0 6.652ZM98.72 168.7a3.325 3.325 0 1 0 0-6.65 3.325 3.325 0 0 0 0 6.65ZM142.996 228.497a3.326 3.326 0 1 0 0-6.651 3.326 3.326 0 0 0 0 6.651ZM142.442 196.949a3.327 3.327 0 0 1 1.976 3.721 3.331 3.331 0 0 1-3.251 2.679 3.24 3.24 0 0 1-1.396-.31" stroke="#D2E9FE" stroke-width=".445" stroke-miterlimit="10"/><path d="M112.502 123.22a9.97 9.97 0 0 1 2 5.966c-.055 3.435-1.33 8.936-1.33 10.531l-3-12.802 2.33-3.695Z" fill="#1E294A"/><path d="M129.389 106.133s-.555 9.201-5.706 11.971c-1.665.886-5.5.831-7.151.886-1.65.055-4.53 4.045-4.71 6.54 0 0-3.05-6.04-5.501-6.43 0 0 3.661-.385 4.656-2.716l2.77-10.251h15.642Z" fill="#AABCFF"/><path d="m109.578 115.804 2.825.88s1.386-1.55 1.441-3.16c.055-1.61-1.606-5.321 1.11-5.651 1.44 0 .94 1.66.94 1.66s2.16-2 2.715-2c.555 0 6.541 2.831 11.196-1.05 4.656-3.88.225-5.931-1.5-6.321-1.725-.39-4.82.165-7.591-.445-2.77-.61-6.15-.035-7.425 1.786-1.276 1.82-2.631 5.24-2.411 8.065.22 2.826-.33 5.711-1.3 6.236Z" fill="#1E294A"/><path d="M122.834 114.575c1.22-.704 1.868-1.867 1.446-2.596-.421-.73-1.751-.75-2.971-.046-1.22.704-1.867 1.867-1.446 2.596.421.73 1.752.75 2.971.046Z" fill="#2C60FF"/><path d="M113.568 139.482s8.036 12.901 21.173 13.001c13.136.1 16.502.055 18.732 1.001 2.23.945 5.156 2.16 6.266 4.21l-39.735 4.946-12.366-19.233 5.93-3.925Z" fill="#1E294A"/><path d="M105.862 118.52s7.316 2.665 7.096 15.166c-.225 12.717 4.375 23.558 16.406 23.833 12.032.275 23.278-3.16 36.505.72 0 0 3 5.001 3 6.041-1.05 0-13.577 2.55-18.842 4.435-5.266 1.886-30.764 8.536-41.24-2.275 0 0-23.833-3.765-34.749-13.191 0 0 6.43-7.256 8.866-10.642 0 0 14.357-22.002 22.948-24.107" fill="#1E294A"/><path d="M111.742 125.55c.915 4.541 1 9.171 1.215 13.782 0 .105.17.105.165 0-.215-4.626-.3-9.271-1.22-13.822a.084.084 0 0 0-.04-.037.08.08 0 0 0-.055-.005.082.082 0 0 0-.047.03.088.088 0 0 0-.018.052Z" fill="#2C60FF"/><path d="M113.128 139.742a32.627 32.627 0 0 0 2.785 9.161c1.35 2.8 3.28 5.596 6.101 7.066 1.76.92 3.84 1.275 5.795 1.5 2.444.241 4.905.254 7.351.04 4.676-.345 9.331-.865 14.002-.965a59.572 59.572 0 0 1 16.712 1.83.087.087 0 0 0 .054-.015.087.087 0 0 0 .033-.047.086.086 0 0 0-.042-.098c-9.146-2.46-18.503-1.935-27.839-1.12-4.795.42-9.691.805-14.366-.61-3.231-1-5.501-3.626-7.076-6.501a31.36 31.36 0 0 1-3.35-10.296c0-.105-.18-.06-.16.045v.01Z" fill="#F4F1F0"/><path d="M98.167 177.141a1.798 1.798 0 0 0 1.055-.891 1.791 1.791 0 0 0-2.175-2.509 20.586 20.586 0 0 1-8.201 1.15 11.888 11.888 0 0 1-5.096-1.6 10.668 10.668 0 0 1-2.335-1.89 38.585 38.585 0 0 0 2.535 6 16.16 16.16 0 0 0 4.406 1.065c.605.06 1.22.09 1.855.09a25.463 25.463 0 0 0 7.956-1.415ZM139.646 193.693a1.784 1.784 0 0 1-1.775-1.575c-.34-2.78-1.725-4.751-4.125-5.851a10.09 10.09 0 0 0-3.656-.875 1.794 1.794 0 1 1 0-3.585 13.64 13.64 0 0 1 5.151 1.2c2.5 1.14 5.565 3.57 6.185 8.681a1.793 1.793 0 0 1-1.56 2l-.22.005ZM128.735 217.821c1.463.226 2.885.671 4.215 1.32l-1.675 3.17a11.521 11.521 0 0 0-3.895-1.05 8.896 8.896 0 0 0-7.306 2.626 1.793 1.793 0 0 1-2.619.066 1.786 1.786 0 0 1-.329-2.041c.108-.22.26-.416.448-.576a12.496 12.496 0 0 1 10.281-3.64c.3.045.595.08.88.125ZM149.383 213.771c-2.376-1.041-5.541-1.446-9.297.385a1.91 1.91 0 0 0-.29.175 1.789 1.789 0 0 0 .564 3.168c.432.123.895.079 1.297-.123a7.711 7.711 0 0 1 4.395-.845 7.402 7.402 0 0 1 3.245 1.28c.025-1.325.055-2.675.086-4.04ZM108.078 186.322a1.882 1.882 0 0 1-.29-.025 1.776 1.776 0 0 1-1.179-.714 1.779 1.779 0 0 1-.322-1.341 13.085 13.085 0 0 1 7.771-10.241 17.2 17.2 0 0 1 6.231-1.5h.035a1.797 1.797 0 0 1 1.238 3.017c-.313.336-.744.54-1.203.568-1.7.106-3.367.525-4.915 1.235a9.533 9.533 0 0 0-5.616 7.501 1.793 1.793 0 0 1-1.75 1.5Z" fill="#D2E9FE"/><path d="M177.35 160.659s7.956.35 10.851.79M167.854 163.49h4.546c.74 0 5.921 0 10.376-.44a39.967 39.967 0 0 0 6.681-1.1" stroke="#1E294A" stroke-width=".19" stroke-miterlimit="10" stroke-linecap="round"/><path d="m313.646 161.539-22.873 71.864M297.595 232.298l22.092-49.771M289.538 141.852l-1.04 91.616-14.552-33.919" stroke="#1E294A" stroke-width=".52" stroke-miterlimit="10" stroke-linecap="round"/><path d="m301.265 235.573 5.391-9.166h-28.388l5.39 9.166s-7.056 1.135-6.901 11.156c.155 10.021 5.791 10.001 10.072 10.001h11.261c4.285 0 9.916 0 10.076-10.001.16-10.001-6.901-11.156-6.901-11.156Z" fill="#93B9FF"/><path d="M113.958 110.184s.375-1.321 1.385-1.321" stroke="#1E294A" stroke-width=".125" stroke-miterlimit="10" stroke-linecap="round"/><path d="M114.273 109.498c.172.111.318.258.427.43.108.173.178.368.204.571" stroke="#1E294A" stroke-width=".125" stroke-miterlimit="10" stroke-linecap="round"/></svg>