<svg viewBox="0 0 400 300" fill="none" xmlns="http://www.w3.org/2000/svg"><path d="m259.89 97.177-50.489 14.965a.75.75 0 0 0-.506.933l10.532 35.532a.75.75 0 0 0 .932.506l50.489-14.966a.75.75 0 0 0 .506-.932l-10.532-35.532a.75.75 0 0 0-.932-.506Z" fill="#FBC623"/><path d="m264 108.25 9.6-9.12a2.26 2.26 0 0 1 3.73 1l7 23.87a2.272 2.272 0 0 1-1.366 2.747 2.272 2.272 0 0 1-1.104.133l-12.67-.88-5.19-17.75Z" fill="#FBC623"/><path d="m253.12 119.85-19.82-6.24a.43.43 0 0 0-.54.52l5.13 20.19a.435.435 0 0 0 .304.3.447.447 0 0 0 .416-.1l14.67-14a.441.441 0 0 0 .088-.375.436.436 0 0 0-.248-.295Z" fill="#FEF7E4"/><path d="M141.75 81.08a8.101 8.101 0 0 1 8.1 8.09v57.4a8.104 8.104 0 0 1-8.1 8.09H86.64" fill="#13286A"/><path d="M143.17 154.66H81.31a1.385 1.385 0 0 1-1.032-.452 1.388 1.388 0 0 1-.358-1.068l6.26-66.56h61.87l-4.88 68.08Z" fill="#E0E2E4"/><path d="M131.08 149H75.65a5.601 5.601 0 0 1-4.293-2.094 5.598 5.598 0 0 1-1.108-4.646l11.58-57.91a5.53 5.53 0 0 1 5.4-4.49h55.431a5.58 5.58 0 0 1 5.39 6.73l-11.57 57.94a5.541 5.541 0 0 1-5.4 4.47Z" fill="#E0E2E4"/><path d="M97 86.58a6.07 6.07 0 1 1 6.07-6.07M116 86.58a6.074 6.074 0 0 1-5.608-3.747 6.067 6.067 0 0 1 4.423-8.276 6.074 6.074 0 0 1 6.232 2.58 6.07 6.07 0 0 1 1.023 3.373M134.79 86.58a6.074 6.074 0 0 1-5.608-3.747 6.067 6.067 0 0 1 4.424-8.276 6.071 6.071 0 0 1 7.254 5.953" stroke="#26417F" stroke-width=".5" stroke-miterlimit="10"/><path d="M242.91 150.15c2-3.14 4.79-1 3.23 3.18-1.88 4.58-3.75 8.68-3.75 8.68s-2 4.64-3.19 6.92c-6.06 18.34-10 28.55-19.76 27.34-9.44-3.53-21-13.08-21-13.08l14.44-11.41h6.34s6.56-10.78 7.09-12.53c-1.36-1.94-2.66-13.12-2.85-14.37-.19-1.25 2.54-1.59 3.89 1.47a33.05 33.05 0 0 1 2.11 5.34h.07c.12-.24 1.54-3.12 4.25-8.84.61-1.76 3.62-1 3.3.78 1.19-3.3 5.3-2 3.79 1.41-.14.3-.28.61-.43 1 1.37-2.74 4.94-1.5 3.5 1.75-.26.63-.63 1.47-1.03 2.36Z" fill="#FFDFD4"/><path d="M151.08 181.19a31.645 31.645 0 0 1-19-5.51c-.38-.26-.75-.53-1.12-.81 3.26-10.68 19.24-29 44.8-28.15 24.54.77 37.16 25.06 37.16 25.06l-14.44 11.41-1.18-1.78 4.65 32s-11 0-31.37.27v-.27c1.45 0 3.08 0 4.66-.09a3.81 3.81 0 0 0 2.1-.54c1.29-.9.71-2.58-1.09-2.68 1.14 0 2.35 0 3.54-.07 4.16 0 3.31-4 .32-4 .63 0 1.23-.06 1.76-.1 4.06-.33 2.55-4.39.15-4.19 2.07-.51 1.17-3.66-.59-3.87-1.9 0-10.26 1-9.42.67.84-.33 3.32-1.3 4.52-2.52 2.35-2.35-.26-3.83-1.57-3.12l-9.87 5.33-15.39-6.43 1.38-10.39v-.22Z" fill="#61D3BA"/><path d="M184.89 124.49a12.548 12.548 0 0 1-23.16 7.65c1.47.68 5.71.38 6.31-2.75-4.13-1.44-2.6-7.07 1.22-5.42 5.5-.28 7.24-5.17 7.79-8 0 .24.29 4.12 6.94 4.79.491 1.19.794 2.448.9 3.73ZM176.25 210.06c1.8.1 2.38 1.78 1.09 2.68a3.81 3.81 0 0 1-2.1.54c-1.58.06-3.21.08-4.66.09-2.75 0-4.88-.05-4.88-.05s-4.22-.35-7.93-.8a32.565 32.565 0 0 1-5-.85c-4-1.1-7.29-2-10.12-2.91-13.2-4-15.22-6.27-16.1-14.3-.65-9.26 5.53-18.78 5.53-18.78a31.636 31.636 0 0 0 19 5.51v.22l-1.38 10.39 15.39 6.38 9.87-5.33c1.31-.71 3.92.77 1.57 3.12-1.2 1.22-3.69 2.15-4.52 2.52-.83.37 7.52-.67 9.42-.67 1.76.21 2.66 3.36.59 3.87 2.4-.2 3.91 3.86-.15 4.19-.53 0-1.13.08-1.76.1 3 0 3.84 4.05-.32 4-1.19.02-2.4.07-3.54.08Z" fill="#FFDFD4"/><path d="M184 120.75c-6.65-.67-6.93-4.55-6.94-4.79.133-.66.216-1.328.25-2a12.592 12.592 0 0 1 6.69 6.79Z" fill="#13286A"/><path d="M177.3 113.93c-.033.672-.116 1.34-.25 2-.55 2.84-2.29 7.73-7.79 8-3.82-1.65-5.35 4-1.22 5.42-.6 3.13-4.84 3.43-6.31 2.75a12.562 12.562 0 0 1 7.783-18.88 12.562 12.562 0 0 1 7.787.67v.04Z" fill="#13286A"/><path d="M170.58 213.37v.27h-1.64c-3 .05-6.23.09-9.54.05-5.15-.08-10.65-.16-16.59-.34l-.16-4.61c2.83.87 6.17 1.81 10.12 2.91 1.643.413 3.314.697 5 .85 3.71.45 7.93.8 7.93.8s2.13.08 4.88.07Z" fill="#61D3BA"/><path d="M139 144c-6-2.2-2.34-14.34 20-13.4 0 .02-8.86 17.48-20 13.4Z" fill="#13286A"/><path d="M177.3 113.93a12.658 12.658 0 0 0-17.637 12.721 12.663 12.663 0 0 0 11.268 11.488 12.667 12.667 0 0 0 8.307-2.015 12.668 12.668 0 0 0 5.133-6.835 12.665 12.665 0 0 0-.381-8.539 12.53 12.53 0 0 0-6.69-6.82ZM159.65 168.18s-3.06 9.55-4.18 12.74c-1 .08-2.56.24-4.39.27a31.645 31.645 0 0 1-19-5.51c-.38-.26-.75-.53-1.12-.81 3.26-10.68 19.24-29 44.8-28.15 24.54.77 37.16 25.06 37.16 25.06l-14.44 11.41-1.18-1.78-6.05-9.23" stroke="#26417F" stroke-width=".25" stroke-miterlimit="10"/><path d="m197.3 181.41 4.65 32s-11 0-31.37.27h-1.64c-3 .05-6.23.09-9.54.05-5.15-.08-10.65-.16-16.59-.34l-.16-4.61" stroke="#26417F" stroke-width=".25" stroke-miterlimit="10"/><path d="M181.64 201.75c-3.07.58-10.92.41-10.92.41M151.08 181.41l-1.38 10.39 15.39 6.38 9.87-5.33c1.31-.71 3.92.77 1.57 3.12-1.2 1.22-3.69 2.15-4.52 2.52-.83.37 7.52-.67 9.42-.67 1.76.21 2.66 3.36.59 3.87M179.93 206c-4.73.15-11.57-.23-11.57-.23" stroke="#26417F" stroke-width=".25" stroke-miterlimit="10"/><path d="M181.64 201.75c.123-.04.251-.06.38-.06 2.4-.2 3.91 3.86-.15 4.19-.53 0-1.13.08-1.76.1M176.18 210.06h-5.92M179.93 206h.18c3 0 3.84 4.05-.32 4-1.19 0-2.4.06-3.54.07" stroke="#26417F" stroke-width=".25" stroke-miterlimit="10"/><path d="M175.68 210.08h.57c1.8.1 2.38 1.78 1.09 2.68a3.81 3.81 0 0 1-2.1.54c-1.58.06-3.21.08-4.66.09-2.75 0-4.88-.05-4.88-.05s-4.22-.35-7.93-.8a32.565 32.565 0 0 1-5-.85c-4-1.1-7.29-2-10.12-2.91-13.2-4-15.22-6.27-16.1-14.3-.65-9.26 5.53-18.78 5.53-18.78M242.84 150.25l.07-.1c2-3.14 4.79-1 3.23 3.18-1.88 4.58-3.75 8.68-3.75 8.68s-2 4.64-3.19 6.92c-6.06 18.34-10 28.55-19.76 27.34-9.44-3.53-21-13.08-21-13.08" stroke="#26417F" stroke-width=".25" stroke-miterlimit="10"/><path d="M212.92 171.78h6.34s6.56-10.78 7.09-12.53c-1.36-1.94-2.66-13.12-2.85-14.37-.19-1.25 2.54-1.59 3.89 1.47a33.013 33.013 0 0 1 2.11 5.34l.07.27s3.45 3.58 1 7.87" stroke="#26417F" stroke-width=".25" stroke-miterlimit="10"/><path d="M229.57 151.67c.12-.24 1.54-3.12 4.25-8.84.61-1.76 3.62-1 3.3.78a2.47 2.47 0 0 1-.21.57l-4.13 8.82M240.27 146.46c-1.68 3.83-4.23 9.8-4.23 9.8" stroke="#26417F" stroke-width=".25" stroke-miterlimit="10"/><path d="M237.09 143.64c1.19-3.3 5.3-2 3.79 1.41-.14.3-.28.61-.43 1" stroke="#26417F" stroke-width=".25" stroke-miterlimit="10"/><path d="M240.27 146.46a3.99 3.99 0 0 1 .21-.49c1.37-2.74 4.94-1.5 3.5 1.75-.3.7-.67 1.54-1.07 2.43-1.58 3.61-3.52 8.15-3.52 8.15M184 120.75c-6.65-.67-6.93-4.55-6.94-4.79M177.3 113.93a13.317 13.317 0 0 1-.25 2c-.55 2.84-2.29 7.73-7.79 8-3.82-1.65-5.35 4-1.22 5.42-.6 3.13-4.84 3.43-6.31 2.75M159 130.62s-8.81 17.46-20 13.4c-6.06-2.2-2.37-14.34 20-13.4Z" stroke="#26417F" stroke-width=".25" stroke-miterlimit="10"/><path d="m149 92.72-.5 6.12s7.82 1 7.2 2.48c2.51-.55 4.51-.8 5.64-2.58s-6.77-5.35-12.34-6.02Z" fill="#13286A"/><path d="m161.36 99-.67 6.93s-.51 1.24-8.6 2.24c-5.61.68-13.43.93-13.43.93s-.41-6.17-.42-6.65a59.922 59.922 0 0 0 10.64-.61c4.91-.45 11-.27 12.55-3.14" fill="#61D3BA"/><path d="M81.13 89.48a7.52 7.52 0 1 0 0-15.04 7.52 7.52 0 0 0 0 15.04Z" fill="#3571FA"/><path d="M76.99 82.05h8.44M81.21 86.27v-8.44" stroke="#fff" stroke-miterlimit="10" stroke-linecap="round"/><path d="m79.23 133.77.32-6.19s-14 1.22-20.17-5.81V129s4.62 4.77 19.85 4.77Z" fill="#61D3BA"/><path d="M59.38 121.77s.83-7.25 16.79-8.43c-.1 1.87-1.79 6.36-1.79 6.36s-11.2-.36-12.62 4.16a11.254 11.254 0 0 1-2.38-2.09Z" fill="#13286A"/><path d="M125.894 243.726v-.98h-6.062c.098-.98.126-2.03.14-3.136h5.124v-.966h-10.794v.966h4.62c-.014 1.106-.042 2.156-.14 3.136h-5.348v.98h5.222c-.448 2.716-1.694 4.788-5.39 5.908.238.21.546.616.658.868 3.99-1.288 5.32-3.682 5.782-6.776h6.188Zm-4.144 5.586c-.728 0-.868-.098-.868-.56V244.3h-1.064v4.438c0 1.246.392 1.582 1.848 1.582h2.632c1.344 0 1.666-.574 1.82-2.786-.294-.084-.756-.252-1.008-.448-.084 1.904-.196 2.226-.882 2.226h-2.478Zm6.188-3.668h3.682c-.378 1.022-.98 2.296-1.512 3.262-.756.028-1.456.042-2.058.056l.14 1.022a750.76 750.76 0 0 0 9.45-.406c.266.336.476.658.644.938l.938-.574c-.644-1.036-2.002-2.548-3.29-3.654l-.882.476a21.515 21.515 0 0 1 1.848 1.89c-1.96.084-3.934.154-5.67.21.56-.98 1.162-2.184 1.652-3.22h6.566v-.966h-11.508v.966Zm2.38-3.626v.952h6.622v-.952h-6.622Zm2.688-4.298c-1.078 1.778-3.402 3.794-5.796 4.942.224.21.49.588.602.826 2.38-1.176 4.648-3.094 5.782-4.774 1.302 1.806 3.752 3.668 5.908 4.718.182-.308.434-.672.672-.924-2.198-.91-4.634-2.73-6.104-4.788h-1.064Zm13.818.966-.994.168c1.064 5.824 3.066 9.898 7.728 11.732.154-.28.49-.7.742-.924-4.508-1.596-6.538-5.572-7.476-10.976Zm1.4-.378c.574.938 1.162 2.198 1.386 2.968l.952-.448c-.238-.756-.868-1.974-1.442-2.898l-.896.378Zm4.074.21c-.798 4.998-2.38 9.142-7.294 11.256.196.21.476.602.616.854 5.138-2.296 6.818-6.622 7.742-11.942l-1.064-.168Zm-10.08.098c.644.672 1.4 1.582 1.75 2.184l.798-.672c-.35-.56-1.148-1.442-1.792-2.072l-.756.56Zm1.05 11.55c.21-.266.574-.546 3.038-2.31a5.29 5.29 0 0 1-.336-.882l-2.59 1.778-.294.434.182.98Zm-1.974-8.12v1.008h2.842v-1.008h-2.842Zm1.974 8.12c0-.42 1.008-1.4 1.008-1.4v-6.72h-1.008v5.964c0 .714-.378 1.204-.616 1.414.182.154.49.532.616.742Zm14.952-1.778v-3.906h6.944v3.906h-6.944Zm6.944-8.708v3.78h-6.944v-3.78h6.944Zm-7.994-1.022v11.662h1.05v-.91h6.944v.854h1.092v-11.606h-9.086Zm23.114 3.094h-4.2v-2.562h4.2v2.562Zm1.022-3.472h-6.174v4.368h6.174v-4.368Zm-6.734 7.084c-.28-.322-1.47-1.554-1.904-1.918v-.854h1.75v-.98h-1.75v-2.366c.658-.154 1.274-.35 1.778-.56l-.728-.784c-1.022.462-2.856.868-4.424 1.12.126.238.266.574.322.812.644-.098 1.358-.21 2.044-.35v2.128h-2.282v.98h2.142c-.56 1.596-1.526 3.402-2.408 4.382.168.252.42.658.518.952.714-.854 1.456-2.254 2.03-3.668v6.188h1.008v-5.992c.476.574 1.05 1.344 1.274 1.736l.63-.826Zm4.116 3.808v-1.806h2.786v-.91h-2.786v-1.666h3.094v-.924h-7.168v.924h3.038v1.666h-2.716v.91h2.716v1.806h-3.668v.938h8.106v-.938h-3.402Zm6.16 1.736c1.47-.518 2.422-1.666 2.422-3.178 0-.98-.42-1.61-1.19-1.61-.574 0-1.064.35-1.064 1.008s.476.994 1.05.994c.084 0 .154 0 .238-.014-.07.952-.686 1.61-1.764 2.058l.308.742Zm13.286-12.292c.742.658 1.666 1.582 2.1 2.17l.714-.756c-.448-.56-1.386-1.442-2.128-2.058l-.686.644Zm1.078 11.662c.21-.28.574-.574 2.94-2.408a3.63 3.63 0 0 1-.364-.882l-2.492 1.862-.28.448.196.98Zm-1.988-8.232v1.022h2.716v-1.022h-2.716Zm1.988 8.232c0-.392 1.134-1.204 1.134-1.204v-7.028h-1.008v6.146c0 .616-.42 1.036-.686 1.19.196.21.462.644.56.896Zm4.116-4.578v.756h4.9v-.756h-4.9Zm-1.33-6.944v.798h7.658v-.798h-7.658Zm.336 1.694v.77h6.888v-.77h-6.888Zm-.756 1.75v.798h8.498v-.798h-8.498Zm1.736 5.39v.77h4.942v-.77h-4.942Zm-.742-3.766v6.692h.994v-5.88h4.704v-.812h-5.698Zm5.376 0v5.516c0 .182-.056.238-.252.238-.182.014-.854.014-1.568-.014.126.266.266.658.308.91.994.014 1.624 0 2.016-.154.392-.154.504-.434.504-.966v-5.53h-1.008Zm-2.716-6.174v4.802h1.05v-4.802h-1.05Zm9.31 3.514v.938h2.8c-.756 1.232-1.834 2.17-3.22 2.814.224.196.574.616.7.826 1.61-.84 2.828-2.03 3.668-3.64h1.554c.77 1.442 2.086 2.772 3.444 3.444.168-.252.49-.63.714-.812-1.204-.504-2.366-1.512-3.094-2.632h2.744v-.938h-4.928a12.8 12.8 0 0 0 .56-1.792c1.386-.182 2.688-.42 3.696-.742l-.812-.798c-1.638.532-4.746.854-7.35 1.008.126.238.238.63.28.882a62.275 62.275 0 0 0 3.094-.238 11.254 11.254 0 0 1-.56 1.68h-3.29Zm.196-1.89c-.476-.49-1.456-1.078-2.24-1.442l-.602.742c.798.392 1.764 1.036 2.226 1.512l.616-.812Zm-.588 3.612c-.504-.434-1.512-.98-2.338-1.316l-.588.756c.84.378 1.848.966 2.338 1.414l.588-.854Zm-1.68 7.42a49.22 49.22 0 0 0 1.82-4.256l-.826-.574c-.574 1.484-1.372 3.206-1.932 4.228l.938.602Zm3.78-4.928c-.294 1.092-.868 2.324-1.736 3.038l.756.588c.952-.812 1.484-2.156 1.834-3.346l-.854-.28Zm1.736 3.948c0 .168-.028.21-.224.224a18.79 18.79 0 0 1-1.498-.014c.126.28.266.658.308.924.938 0 1.54 0 1.904-.154.378-.154.476-.448.476-.966v-5.418h-.966v5.404Zm1.582-3.416c.448.938.826 2.17.952 2.996l.84-.322c-.126-.812-.532-2.03-.994-2.968l-.798.294Zm1.736-.336c.812 1.064 1.666 2.52 2.002 3.472l.868-.448c-.35-.966-1.204-2.38-2.072-3.416l-.798.392Zm10.206-5.25h-3.094c.014-.798.028-1.61.028-2.436h-1.022c0 .826 0 1.638-.014 2.436h-1.96v1.022h1.932c-.112 3.5-.532 6.594-2.268 8.428.252.154.63.49.784.714 1.89-2.044 2.366-5.39 2.492-9.142h2.114c-.098 5.362-.224 7.266-.546 7.658-.098.196-.238.238-.462.224-.252 0-.854 0-1.498-.056.182.294.28.742.308 1.05.616.042 1.26.042 1.638-.014.42-.042.672-.168.924-.532.434-.602.532-2.632.644-8.82v-.532Zm2.128 7.924v-7.812h2.716v7.812h-2.716Zm-.98-8.82v10.836h.98v-1.022h2.716v.924h1.036v-10.738h-4.732Z" fill="#9BA2AD"/><path d="M95.77 213.31h47.03M201.98 213.31h75.19" stroke="#26417F" stroke-width=".25" stroke-miterlimit="10"/><path d="m253.07 213.31 13.21-38.9h-53.34l-10.96 38.9" fill="#E0E2E4"/><path d="m253.07 213.31 13.21-38.9h-53.34l-10.96 38.9" stroke="#26417F" stroke-width=".25" stroke-miterlimit="10"/><path d="m159.17 212.38 3.88.5h13.35s.86-.07 1-.5-18.56-1.95-18.23 0Z" fill="#FFDFD4"/><path d="m228.11 85.52 8.59 1.39s-1.75 7.39-2.41 9.58c-4.73-.29-6.88-.66-6.88-.66s.43-4.27.7-10.31Z" fill="#FBC623"/><path d="m252 78.82 6.49 1.11S257.2 88 255 90.11c-4.84.38-5.84-1.26-5.84-1.26A16.696 16.696 0 0 0 252 78.82Z" stroke="#28407D" stroke-width=".25" stroke-miterlimit="10"/><path d="m201.92 88.35-7.27 4.78s4.63 6 6.12 7.76c4.2-2.2 6-3.42 6-3.42s-2.14-3.72-4.85-9.12Z" fill="#4F87FD"/><path d="M215.15 109.57 210 112.7a22.004 22.004 0 0 0 3.92 5 39.31 39.31 0 0 0 4.11-2.83 25.634 25.634 0 0 1-2.88-5.3Z" fill="#61D3BA"/><path d="m96.05 128.59.53-1.81c2.14.194 4.294.137 6.42-.17 4.82-.65 8.79-2.78 10-7.12 1.37-4.71-1-5.93-7.14-5.1l-2.31.31.49-1.69 2.27-.31c5.64-.76 9-3.73 10-7 1.09-3.74-.64-5.17-5.45-4.52a24.68 24.68 0 0 0-5.8 1.56l.52-1.77a26.07 26.07 0 0 1 5.89-1.5c6.09-.82 8.17 1.18 6.8 5.89-1.09 3.78-4 6-7.38 7.3l-.06.24c4.27 0 5.37 2 4.15 6.28-1.39 4.78-5.45 8.16-12.74 9.14a34.074 34.074 0 0 1-6.19.27Z" fill="#13286A"/></svg>