<svg viewBox="0 0 400 300" fill="none" xmlns="http://www.w3.org/2000/svg"><path d="M154.134 247.24v11.97h.924v-11.074h2.016v-.896h-2.94Zm2.786 0v.098a69.737 69.737 0 0 1-1.414 4.536c1.064 1.386 1.512 2.268 1.512 3.136 0 .49-.084.994-.35 1.176-.126.07-.294.112-.49.126-.266 0-.672 0-1.078-.042.168.28.266.672.28.91.392.028.826.028 1.148 0 .294-.042.588-.126.784-.28.434-.322.63-1.05.63-1.862 0-.938-.462-1.932-1.526-3.29.546-1.484 1.078-2.954 1.47-4.186l-.686-.364-.14.042h-.14Zm-11.452 8.302c0-.21.7-.532.7-.532v-.014c1.12-1.372 2.226-3.29 3.094-5.152l-.896-.49c-.728 1.862-1.932 3.822-2.31 4.326-.364.518-.63.882-.91.924.126.266.28.742.322.938Zm0 0c.252-.154.672-.294 3.486-.938a5.369 5.369 0 0 1-.084-.868l-2.996.63-.462.336.056.84Zm-.084-3.36c0-.21.616-.56.616-.56v-.014c.798-1.288 1.61-3.15 2.156-4.9l-1.008-.35c-.392 1.68-1.19 3.5-1.428 3.976s-.448.812-.686.868c.126.28.294.77.35.98Zm0 0c.21-.112.588-.196 2.632-.462 0-.224.028-.602.084-.868l-2.254.224-.49.322.028.784Zm-.294 5.166.238.98c1.092-.406 2.464-.952 3.794-1.456l-.168-.868c-1.442.504-2.884 1.022-3.864 1.344Zm4.494-9.002v.952h4.018v-.952h-4.018Zm.154 2.982v.952h3.598v-.952h-3.598Zm1.442-4.928v5.824c0 2.492-.224 4.704-2.03 6.37.238.14.616.448.784.644 1.946-1.82 2.17-4.298 2.17-7V246.4h-.924Zm-1.946 7.938v.952h4.522v-.952h-4.522Zm11.508-5.376h9.534v2.044h1.064v-3.024h-5.292v-1.596h-1.078v1.596h-5.25v3.024h1.022v-2.044Zm5.306 5.95h4.144v-.966h-4.144v-2.324h3.57v-.98h-8.106v.98h3.472v5.866c-1.148-.434-2.044-1.232-2.576-2.702.14-.588.252-1.204.336-1.862l-1.064-.098c-.308 2.506-1.064 4.494-2.618 5.698.252.154.686.518.854.7.91-.798 1.596-1.834 2.086-3.122 1.274 2.366 3.36 2.87 6.258 2.87h3.248c.042-.308.224-.798.392-1.05-.672.014-3.08.014-3.584.014-.812 0-1.582-.042-2.268-.168v-2.856Zm14.07-1.008v-2.324h3.766v2.324h-3.766Zm-4.438 0c.042-.518.056-1.036.056-1.498v-.826h3.346v2.324h-3.402Zm3.402-5.544v2.24h-3.346v-2.24h3.346Zm4.802 2.24h-3.766v-2.24h3.766v2.24Zm1.022-3.234h-10.192v5.04c0 1.946-.14 4.41-1.68 6.146.224.126.644.476.798.686 1.064-1.19 1.54-2.786 1.75-4.34h3.5v4.13h1.036v-4.13h3.766v2.842c0 .266-.098.35-.378.364-.252 0-1.204.014-2.184-.028.14.28.308.728.35 1.008 1.316.014 2.128 0 2.604-.168.448-.182.63-.49.63-1.162v-10.388Zm3.99 1.134v3.052c0 2.114-.182 5.04-1.904 7.112.266.112.728.434.91.63 1.792-2.17 2.086-5.446 2.086-7.742V248.5h-1.092Zm3.794-1.974c.294.658.658 1.54.812 2.1l1.064-.322c-.168-.546-.532-1.386-.854-2.044l-1.022.266Zm-3.108 1.974v.994h7.714v4.718h1.064V248.5h-8.778Zm0 3.808v.98h8.288v-.98h-8.288Zm20.006-4.62v10.5h1.064v-10.5h-1.064Zm-2.926 3.234v7.35h1.022v-7.35h-1.022Zm3.318 1.134v.994h3.444v-.994h-3.444Zm-4.046-4.648v.98h7.756v-.98h-7.756Zm-.49 10.262v.994h8.54v-.994h-8.54Zm-3.5-10.332c.77.644 1.722 1.554 2.17 2.156l.728-.742c-.462-.574-1.428-1.442-2.198-2.044l-.7.63Zm1.12 11.48c.21-.28.588-.574 2.968-2.45a6.12 6.12 0 0 1-.406-.91l-2.52 1.918-.266.448.224.994Zm-1.848-8.092v1.022h2.59v-1.022h-2.59Zm1.848 8.092c0-.42 1.148-1.498 1.148-1.498v-6.594h-1.022v5.866c0 .742-.504 1.288-.784 1.512.196.168.532.518.658.714Zm15.246-12.39c-.742 2.114-1.974 4.2-3.276 5.558.182.238.49.77.588 1.022a15.87 15.87 0 0 0 1.288-1.638v7.77h.994v-9.38a24.52 24.52 0 0 0 1.386-3.024l-.98-.308Zm9.492 6.888h-3.794v-3.066h3.192v-1.022h-3.192v-2.674h-1.036v2.674h-1.862c.182-.63.336-1.288.462-1.946l-.98-.21c-.322 1.806-.896 3.626-1.722 4.774.266.126.7.378.896.532.378-.588.714-1.316 1.008-2.128h2.198v3.066h-3.99v1.022h3.99v4.83h1.036v-4.83h3.794v-1.022Z" fill="#9BA2AD"/><path d="M296.02 60.98H200v53.23h96.02V60.98Z" stroke="#26417F" stroke-width=".25" stroke-miterlimit="10"/><path d="M275.53 81.76a6.51 6.51 0 1 0 0-13.02 6.51 6.51 0 0 0 0 13.02Z" fill="#FBC623"/><path d="M288.76 96.7a13.244 13.244 0 0 0-13.235-12.876A13.242 13.242 0 0 0 262.29 96.7h26.47Z" fill="#61D3BA"/><path d="M215 77.99h33.01M215 88.56h24M293.61 125.37c7.097 0 12.85-5.753 12.85-12.85 0-7.097-5.753-12.85-12.85-12.85-7.097 0-12.85 5.753-12.85 12.85 0 7.097 5.753 12.85 12.85 12.85Z" stroke="#26417F" stroke-width=".25" stroke-miterlimit="10"/><path d="M210.7 84.73c.68.56.77 2-.35 3.59-2.18 3-4.3 5.63-4.32 5.66-.02.03-2.31 3-3.58 4.46-6.46 10.22-11 17-16.65 17a8.105 8.105 0 0 1-2.89-.57 52.265 52.265 0 0 1-9.41-9.37v-.5a50.769 50.769 0 0 0 9.56 9.6c6.85 2.63 11.54-4.13 19.23-16.3 1.27-1.44 3.56-4.44 3.58-4.47.02-.03.43-.52 1.06-1.35.83-1.06 2-2.63 3.26-4.29 1-1.49 1-2.77.39-3.26-.61-.49-1.25-.2-2 .52l.59-.75a1.37 1.37 0 0 1 1.53.03Z" fill="#26417F"/><path d="M210.54 84.92c.59.49.64 1.77-.39 3.26-1.23 1.66-2.43 3.23-3.26 4.29l-2.36-1.75s2.24-3 4-5.28c.76-.72 1.52-.92 2.01-.52Z" fill="#FFDFD4"/><path d="M210.27 81.8a2.06 2.06 0 0 1-.47 2l-.66.85c-.281.155-.537.35-.76.58.45-.59.87-1.14 1.23-1.59a1.8 1.8 0 0 0 .39-1.74 1.156 1.156 0 0 0-1-.67 1.82 1.82 0 0 0-1.37.57l.38-.5.11-.16a1.76 1.76 0 0 1 .9-.16 1.386 1.386 0 0 1 1.25.82Z" fill="#26417F"/><path d="M198.55 84.08c.14-.13.45-.49 1.18-1.37l3.57-4.29a.998.998 0 0 1 1-.44 1.338 1.338 0 0 1 1.1.78.89.89 0 0 1 0 .68 1.553 1.553 0 0 1-.24.35l-3 3.73-1.59 1.94.2.16c.09-.12.76-1 1.58-2l3-3.71c.106-.11.191-.24.25-.38a1.88 1.88 0 0 1 1.69-1 1.244 1.244 0 0 1 1.05.73 1.776 1.776 0 0 1-.42 1.8l-.36.47c-.126.132-.24.276-.34.43-1.91 2.47-4.83 6.33-4.87 6.37l.2.15c0-.05 3.29-4.34 5.18-6.76l.05-.06a1.824 1.824 0 0 1 1.37-.57 1.153 1.153 0 0 1 1 .67 1.798 1.798 0 0 1-.43 1.78c-.36.45-.78 1-1.23 1.59h-.06c-1.79 2.32-4 5.2-4 5.24l.2.15 2.36 1.75c-.63.83-1 1.33-1.06 1.35-.06.02-2.31 3-3.58 4.47-7.69 12.17-12.38 18.93-19.23 16.3a50.798 50.798 0 0 1-9.56-9.6v-.82l9.79-10.69 4 3.42.09.08.08-.09c.27-.27 6.77-6.69 7.47-7.86v-.06c-.53-1.4.21-8 .46-10.15 0-.39.08-.67.09-.8a.439.439 0 0 1 .48-.4c.57 0 1.53.58 1.81 2.2.313 1.4.497 2.826.55 4.26v.27a4.995 4.995 0 0 1-.7 5.76l.18.17a5.203 5.203 0 0 0 .75-6 .506.506 0 0 0 0-.11l-.06.11Z" fill="#FFDFD4"/><path d="m209.14 84.69-.59.75h-.05l-.17-.16v-.06c.242-.216.515-.395.81-.53ZM208.51 79.25a2.003 2.003 0 0 1-.34 1.89 2.67 2.67 0 0 0-.67.48l.36-.47a1.78 1.78 0 0 0 .42-1.8 1.248 1.248 0 0 0-1.05-.73 1.88 1.88 0 0 0-1.69 1c.085-.17.13-.36.13-.55a2.002 2.002 0 0 1 1.58-.66 1.502 1.502 0 0 1 1.26.84ZM208.5 85.49h.05c-1.78 2.32-4 5.24-4 5.28l-.2-.15s2.21-2.92 4-5.24l.15.11Z" fill="#26417F"/><path d="m208.17 81.14-.11.16-.38.5-.05.06a2.19 2.19 0 0 0-.3.37l-.2-.13.33-.43c.206-.215.445-.394.71-.53Z" fill="#26417F"/><path d="M207.33 82.23c.086-.134.187-.258.3-.37-1.89 2.42-5.14 6.71-5.18 6.76l-.2-.15s3-3.9 4.87-6.37l.21.13Z" fill="#26417F"/><path d="m207.46 81.67-.33.43c.096-.153.207-.297.33-.43ZM205.67 79c0 .19-.045.38-.13.55l-.2-.14c.096-.147.206-.285.33-.41Z" fill="#26417F"/><path d="M205.59 78.66c.045.119.072.243.08.37a2.638 2.638 0 0 0-.33.4.89.89 0 0 0 0-.68 1.334 1.334 0 0 0-1.1-.78.997.997 0 0 0-1 .44l-3.57 4.29c-.73.88-1 1.24-1.18 1.37v-.3c.45-.53 1.93-2.3 4.58-5.5a1.224 1.224 0 0 1 1.18-.54 1.613 1.613 0 0 1 1.34.93ZM205.33 79.46l.2.14a1.24 1.24 0 0 1-.25.38l-3 3.71c-.82 1-1.49 1.83-1.58 2l-.2-.16 1.59-1.94 3-3.73c.1-.12.181-.255.24-.4Z" fill="#26417F"/><path d="M198.54 84.2a5.204 5.204 0 0 1-.75 6l-.18-.17a5.006 5.006 0 0 0 .7-5.76V84l.1.08h.14a.537.537 0 0 1-.01.12Z" fill="#26417F"/><path d="M198.53 84.06c-.08.07-.1 0-.14 0l-.1-.08.08-.1.15-.17c0 .17.01.29.01.35Z" fill="#26417F"/><path d="M198 79.72c.292 1.316.472 2.654.54 4l-.15.17-.08.1a23.51 23.51 0 0 0-.55-4.26c-.28-1.62-1.24-2.2-1.81-2.2a.442.442 0 0 0-.48.4c0 .13 0 .41-.09.8-.25 2.16-1 8.75-.46 10.15v.06c-.7 1.17-7.2 7.59-7.47 7.86l-.08.09-.09-.08-4-3.42.17-.19 3.91 3.35c.76-.76 6.54-6.49 7.33-7.69-.52-1.57.19-7.83.46-10.21.05-.38.08-.66.09-.8a.701.701 0 0 1 .72-.62c.64.09 1.71.77 2.04 2.49ZM188.42 217.12v3h-.13l-30.82.17v-.12l-.06-10.66h.25v-.13l15.41-.09v-3.18h.25v3.24l8.45 4.86c.57.08 6.78.51 6.65 2.91Zm-.23 2.79v-2.79c.12-2.22-6.36-2.62-6.43-2.62h-.05l-8.51-4.9-15.5.09.06 10.41 30.43-.19Z" fill="#26417F"/><path d="M188.17 217.12v2.79l-30.45.17-.06-10.41 15.5-.09 8.51 4.9h.05c.09.02 6.57.42 6.45 2.64Z" fill="#FBC623"/><path d="M185.65 90.67v.08l-.06.06-2.27 2.48-.1-.08-.16.19.09.08-9.79 10.69h-.22v.24l-4-12 .23-.08 3.91 11.57 12.11-13.23c-.74-1.24-10.26-16.76-27.78-17.31v-.25c18.31.62 27.95 17.39 28.04 17.56Z" fill="#26417F"/><path d="m185.39 90.71-12.11 13.23-3.91-11.57-.23.08 4 12v.69l.47 21.58c-.29.35-2.75 3.13-8.41 4.51a34.912 34.912 0 0 1-13.82.21l.45-2.87h.3a1.49 1.49 0 0 0 1-.31 1.084 1.084 0 0 0 .39-1 1.296 1.296 0 0 0-.23-.51c.55.23 1.12.47 1.68.69.408.202.855.314 1.31.33.356.017.708-.085 1-.29a1.462 1.462 0 0 0 .53-1.37 1.837 1.837 0 0 0-.48-1c.12.054.244.1.37.14.319.123.658.191 1 .2.416.017.822-.13 1.13-.41.212-.224.358-.502.421-.804a1.663 1.663 0 0 0-.061-.906 1.737 1.737 0 0 0-.63-.9 1.24 1.24 0 0 0 .9-.74 1.88 1.88 0 0 0-.57-2.34c-.58-.25-2.07-.75-3.52-1.23-1-.34-2.12-.71-2.72-.93a10.375 10.375 0 0 0 3.44-.36c1.43-.56 1.41-1.4 1.33-1.73a1.547 1.547 0 0 0-.563-.833 1.548 1.548 0 0 0-.957-.307l-8.35.64-9.33-7.67 2.37-7.71H142.39v-.08c.83-2.37 3.11-9.51 3.14-9.58l-.24-.07c0 .07-2.26 7-3.11 9.49-1.57.11-8.76.13-16.32-7.39 2.84-9.11 13.93-18.62 31.66-18.07 17.61.48 27.13 15.95 27.87 17.19Z" fill="#61D3BA"/><path d="m183.37 93.29-.17.19-.09-.08.16-.19.1.08ZM171.71 128.68l8.49 77.47h-6.88V206h-.25v.13h-17.66V206l-1.16-70.68.2-3.23 1.21 73.79h24.23l-8.44-77.07.26-.13Z" fill="#26417F"/><path d="m171.48 128.83 8.44 77.07h-24.23l-1.21-73.79V132c1.35.13 2.61.18 3.78.18a30.162 30.162 0 0 0 7.09-.79 19.424 19.424 0 0 0 6.13-2.56Z" fill="#E0E2E3"/><path d="m173.47 105.43.46 21.28h-.12l-.1-.08-.47-21.58s.06.17.23.38ZM173.81 126.72l.09.07a9.865 9.865 0 0 1-2.19 1.89v-.07h-.24v.19a19.423 19.423 0 0 1-6.12 2.59 30.162 30.162 0 0 1-7.09.79c-1.17 0-2.43-.05-3.78-.18a64.992 64.992 0 0 1-17.13-4.3v-.15h-.25v.1c-.91-.35-1.85-.73-2.8-1.13h-.08v-.09h.25v-.08a73.775 73.775 0 0 0 17 5.08c4.575.852 9.274.78 13.82-.21 5.66-1.38 8.12-4.16 8.41-4.51l.11.01Z" fill="#26417F"/><path d="M173.46 105v.44c-.17-.21-.25-.33-.26-.34l.21-.15.05.05Z" fill="#26417F"/><path d="M173.44 104.17v.82l-.21.15v-.69l.22-.23-.01-.05ZM173.41 104.17l-.22.23v-.22l.22-.01ZM173.32 206.02h-.25v.13h.25v-.13Z" fill="#26417F"/><path d="m173.07 206.15.02 3.18-15.41.09-.02-3.27h15.41Z" fill="#FFDFD4"/><path d="M171.7 128.61v.07l-.23.15v-.19l.23-.03ZM167.05 59.55a2.322 2.322 0 0 1-.14 4.64V64a.152.152 0 0 1 0-.06 2.074 2.074 0 0 0 2.155-1.985 2.07 2.07 0 0 0-1.985-2.155c.01-.08-.01-.16-.03-.25Z" fill="#26417F"/><path d="M167.1 59.8a2.072 2.072 0 1 1-.17 4.14 9.58 9.58 0 0 0 .23-3.75 2.57 2.57 0 0 0-.06-.39Z" fill="#FFDFD4"/><path d="M167.16 60.19c.06.424.09.852.09 1.28a9.623 9.623 0 0 1-.32 2.47V64a9.571 9.571 0 0 1-18.4.25V64h-.06a9.354 9.354 0 0 1-.35-2.55c.003-.536.046-1.07.13-1.6h.26a9.308 9.308 0 0 0 1.762 7.32A9.319 9.319 0 0 0 167 61.47c0-.32 0-.64-.05-.95.078-.102.146-.213.2-.33h.01ZM167.16 60.19l-.23-.09a9.332 9.332 0 0 0-9.23-8 9.206 9.206 0 0 0-2 .21 1.01 1.01 0 0 1 0-.11h-.25a.673.673 0 0 1 0 .11h-.16c.002.03.002.06 0 .09a9.359 9.359 0 0 0-6.75 7.16h-.25a9.573 9.573 0 0 1 9.36-7.727 9.567 9.567 0 0 1 9.41 7.667h-.14v.25h.19c.029.145.046.292.05.44Z" fill="#26417F"/><path d="m166.92 60.1.23.09a1.834 1.834 0 0 1-.2.33v-.39l-.03-.03ZM167.05 59.55v.25h-.19v-.25h.19Z" fill="#26417F"/><path d="M167 60.52c0 .31.05.63.05.95a9.321 9.321 0 0 1-2.999 6.918 9.329 9.329 0 0 1-15.511-8.518 5.536 5.536 0 0 0 4.4-1.22c2-1.72 2.5-4.67 2.62-5.81.17 1.28.72 4.26 2 4.93a5.003 5.003 0 0 0 4 .36 3.613 3.613 0 0 0 3.6 3.17 2.182 2.182 0 0 0 1.84-.78Z" fill="#FFDFD4"/><path d="M166.9 60.13v.39a2.175 2.175 0 0 1-1.81.78 3.608 3.608 0 0 1-3.6-3.17 5 5 0 0 1-4-.36c-1.32-.67-1.87-3.65-2-4.93v-.44h.16c.08.7.56 4.48 2 5.2a5.004 5.004 0 0 0 3.91.29l.16-.06V58a3.328 3.328 0 0 0 3.38 3.09 1.779 1.779 0 0 0 1.8-.96ZM166.93 63.94a.151.151 0 0 0 0 .06v-.06Z" fill="#26417F"/><path d="M166.9 60.13a1.781 1.781 0 0 1-1.75.92 3.328 3.328 0 0 1-3.4-3.05v-.17l-.16.06a4.998 4.998 0 0 1-3.91-.29c-1.41-.72-1.89-4.5-2-5.2a9.219 9.219 0 0 1 2-.21 9.332 9.332 0 0 1 9.22 7.94Z" fill="#13286A"/><path d="M160 119.27a1.88 1.88 0 0 1 .57 2.34 1.223 1.223 0 0 1-.9.74 1.62 1.62 0 0 0-.48-.26.997.997 0 0 0 1.15-.59 1.64 1.64 0 0 0-.45-2c-.56-.24-2.05-.74-3.49-1.22a20.227 20.227 0 0 1-3.27-1.19c-.05 0 0-.07 0-.11 0-.04 0-.12.18-.12h.37a10.604 10.604 0 0 0 3.47-.35c.88-.34 1.31-.87 1.18-1.44a1.29 1.29 0 0 0-1.26-.94l-8.45.65-9.5-7.81v-.08l2.38-7.71h.26l-2.37 7.71 9.33 7.67 8.35-.64a1.543 1.543 0 0 1 1.52 1.14c.08.33.1 1.17-1.33 1.73a10.346 10.346 0 0 1-3.44.36c.6.22 1.71.59 2.72.93 1.34.44 2.83.92 3.46 1.19Z" fill="#26417F"/><path d="M159.84 119.49a1.644 1.644 0 0 1 .45 2 .997.997 0 0 1-1.15.59l-.27-.07a60.228 60.228 0 0 1-7.6-3l1.81-1.91c1.054.49 2.148.888 3.27 1.19 1.44.46 2.93.96 3.49 1.2Z" fill="#FFDFD4"/><path d="M160.25 123.25a1.673 1.673 0 0 1-.36 1.71c-.308.28-.714.427-1.13.41a3.008 3.008 0 0 1-1-.2 3.513 3.513 0 0 1-.37-.14 2.279 2.279 0 0 0-.85-.59c.47.19.9.36 1.3.5a1.864 1.864 0 0 0 1.93-.16 1.435 1.435 0 0 0 .29-1.46 1.508 1.508 0 0 0-.91-1c.093.01.187.01.28 0h.24c.289.239.492.565.58.93Z" fill="#26417F"/><path d="M160 123.32a1.442 1.442 0 0 1-.29 1.46 1.86 1.86 0 0 1-1.93.16c-.4-.14-.83-.31-1.3-.5h-.06c-3.26-1.34-7.82-3.65-7.87-3.68l-.11.22 1.53.77-1.42 2.53-.11.22s1.66.79 3.73 1.69l.47.2a1.307 1.307 0 0 1 .66.85.825.825 0 0 1-.3.81 2.006 2.006 0 0 1-2 0c-3.16-1.26-6.52-2.86-6.55-2.87-.03-.01-7-3.83-8.37-5.06-13.33-11-15-12.67-12.72-19.69 2-5.37 2.66-7.68 2.86-8.32 6.49 6.23 12.65 7 15.19 7.08l-2.41 7.66v.08l9.5 7.81 8.45-.65a1.287 1.287 0 0 1 1.26.94c.13.57-.3 1.1-1.18 1.44-1.13.307-2.302.425-3.47.35h-.37c-.14 0-.17.07-.18.12-.01.05 0 .07 0 .11l-1.74 1.95-.1.23a60.128 60.128 0 0 0 7.63 3l.27.07a1.515 1.515 0 0 1 .93 1.02Z" fill="#FFDFD4"/><path d="M159.62 122.35h-.24a1.31 1.31 0 0 1-.28 0l-.27-.07v-.25l.27.07c.187.051.363.136.52.25Z" fill="#26417F"/><path d="M158.87 122v.25a60.037 60.037 0 0 1-7.63-3l.1-.23a60.192 60.192 0 0 0 7.53 2.98ZM157.82 126a1.454 1.454 0 0 1-.53 1.37 1.607 1.607 0 0 1-1 .29 3.207 3.207 0 0 1-1.31-.33c-.56-.22-1.13-.46-1.68-.69a1.671 1.671 0 0 0-.57-.51c.75.32 1.55.66 2.34 1a1.999 1.999 0 0 0 2 .07 1.193 1.193 0 0 0 .43-1.14 1.839 1.839 0 0 0-1.23-1.41c.35.15.69.28 1 .39.277.256.469.591.55.96ZM157.68 209.42v.13h-.25v-.13h.25Z" fill="#26417F"/><path d="m157.66 206.15.02 3.27h-.25l-.02-3.27h.25ZM157.66 206.11h-.25v.04h.25v-.04ZM157.62 73.15v.25c-17.73-.55-28.82 9-31.66 18.07 7.56 7.52 14.75 7.5 16.32 7.39.85-2.44 3.09-9.42 3.11-9.49l.24.07c0 .07-2.31 7.21-3.14 9.58v.08H141.69v-.09l-.24-.07-.05.16c-2.54 0-8.7-.85-15.19-7.08l.06-.2-.24-.07a.273.273 0 0 0 0 .07l-.28-.27v-.07c2.77-9.23 13.97-18.89 31.87-18.33Z" fill="#26417F"/><path d="M157.57 126.06a1.205 1.205 0 0 1-.43 1.14 1.993 1.993 0 0 1-2-.07c-.79-.31-1.59-.65-2.34-1a3.115 3.115 0 0 0-.49-.21c-2-.89-3.68-1.66-3.7-1.67l1.42-2.53c1.64.8 4.26 2.06 6.36 2.91a1.847 1.847 0 0 1 1.18 1.43Z" fill="#FFDFD4"/><path d="M156.49 124.44c.325.129.615.331.85.59-.31-.11-.65-.24-1-.39l.09-.22.06.02Z" fill="#26417F"/><path d="m156.43 124.42-.09.22c-2.1-.85-4.72-2.11-6.36-2.91l-1.53-.77.11-.22c.05.03 4.61 2.34 7.87 3.68ZM155.69 52.25a1.01 1.01 0 0 0 0 .11h-.25a1.01 1.01 0 0 0 0-.11h.25ZM155.46 52.41h.08v.44c-.06-.19-.07-.34-.08-.44ZM155.46 52.41v.43c-.12 1.14-.62 4.09-2.62 5.81a5.542 5.542 0 0 1-4.4 1.22v-.25a5.309 5.309 0 0 0 4.2-1.16c2.18-1.88 2.51-5.39 2.55-6l.27-.05ZM155.45 52.38l-.18.05a.676.676 0 0 0 0-.09l.18.04Z" fill="#26417F"/><path d="M155.28 52.46c0 .61-.37 4.12-2.55 6a5.31 5.31 0 0 1-4.2 1.16 9.357 9.357 0 0 1 6.75-7.16Z" fill="#13286A"/><path d="M154.49 132v.07h-.25l-4.49 73.8h-25.37l13-78.17a65.005 65.005 0 0 0 17.11 4.3Z" fill="#E0E2E3"/><path d="M154.48 132.1v.01l-.12-.01h.12Z" fill="#26417F"/><path d="m154.48 132.11-.2 3.23-.05-3.24h.13l.12.01ZM154.36 132.1h-.13v-.01l.13.01Z" fill="#26417F"/><path d="m154.23 132.1.05 3.24-4.28 70.81h-17V206h-.25v.13h-8.61v-.15l13-78.36.24.09-13 78.17h25.36l4.49-73.78ZM153.57 127.18a1.072 1.072 0 0 1-.39 1 1.49 1.49 0 0 1-1 .31h-.3a3.428 3.428 0 0 1-1-.29c-3.17-1.26-6.54-2.86-6.57-2.88-.29-.16-7-3.85-8.42-5.09l-1.41-1.17v-.27h-.25v.07c-11.92-9.87-13.32-11.72-11.13-18.59 2.1-5.82 2.77-8 2.89-8.44.07.07.13.14.2.2-.2.64-.91 3-2.86 8.32-2.23 7-.61 8.69 12.72 19.69 1.36 1.23 8.3 5 8.37 5.06.07.06 3.39 1.61 6.55 2.87a1.995 1.995 0 0 0 2 0 .824.824 0 0 0 .3-.81 1.297 1.297 0 0 0-.66-.85l.68.29c.141.167.237.366.28.58Z" fill="#26417F"/><path d="m153.34 126.67-.68-.29a4.144 4.144 0 0 0-.47-.2l.08-.23.49.2c.232.125.43.304.58.52ZM152.75 126.14l-.49-.2c.168.053.332.12.49.2Z" fill="#26417F"/><path d="m152.65 126.37-.47-.2c.161.057.318.124.47.2ZM152.26 125.93l-.08.23c-2.07-.9-3.71-1.68-3.73-1.69l.11-.22 3.7 1.68Z" fill="#26417F"/><path d="m151.9 128.52-.45 2.87a73.824 73.824 0 0 1-17-5.08v-7.22l1.41 1.17c1.37 1.24 8.13 4.93 8.42 5.09 0 0 3.4 1.62 6.57 2.88.333.152.687.249 1.05.29Z" fill="#61D3BA"/><path d="M148.61 206.11h-.25v.04h.25v-.04ZM148.61 206.15l-.02 3.27h-.25l.02-3.27h.25Z" fill="#26417F"/><path d="M148.59 209.42h-.25v.13h.25v-.13Z" fill="#26417F"/><path d="m148.59 209.55-.07 10.78h-.12l-30.82-.17v-3c-.13-2.39 6.08-2.82 6.63-2.86l8.45-4.86v-3.24h.34v3.18l15.41.09v.13l.18-.05Zm-.31 10.53.06-10.41-15.5-.09-8.57 4.92c-.06 0-6.54.4-6.42 2.61v2.8l30.43.17ZM148.53 59.62v.25h-.26c0-.08 0-.17.05-.26h.25l-.04.01Z" fill="#26417F"/><path d="M148.51 64.24a2.33 2.33 0 0 1-2.33-2.24 2.452 2.452 0 0 1 .81-1.81 2.002 2.002 0 0 1 1.29-.53c0 .09 0 .18-.05.26-.401.02-.783.18-1.08.45a2.223 2.223 0 0 0-.72 1.63 2.082 2.082 0 0 0 2 2.07l.08.17Z" fill="#26417F"/><path d="M148.51 64v.22l-.06-.22h.06Z" fill="#26417F"/><path d="m148.36 206.15-.02 3.27-15.41-.09.02-3.18h15.41Z" fill="#FFDFD4"/><path d="m148.34 209.67-.06 10.41-30.45-.17v-2.8c-.12-2.21 6.36-2.61 6.42-2.61l8.57-4.92 15.52.09Z" fill="#FBC623"/><path d="M148.23 59.87c-.084.53-.127 1.064-.13 1.6-.001.862.117 1.72.35 2.55a2.08 2.08 0 0 1-2-2.07 2.223 2.223 0 0 1 .72-1.63 1.732 1.732 0 0 1 1.06-.45Z" fill="#FFDFD4"/><path d="M141.68 99.05v.09h-.26l.05-.16.21.07ZM137.39 127.58v.15l-.24-.09v-.1l.24.04ZM134.49 126.31v.08h-.25v-7.5l.25.2v7.22ZM134.49 118.82v.27l-.25-.2v-.07h.25ZM132.95 206.02h-.25v.13h.25v-.13ZM126 91.79l.24.07-.06.2c-.07-.06-.13-.13-.2-.2a.34.34 0 0 1 .02-.07Z" fill="#26417F"/><path d="M288.34 109.3a1.63 1.63 0 0 1 .06-2.31 1.63 1.63 0 0 1 2.31.06l4 4.15a4.083 4.083 0 0 0-.71-4.2l-1.4-1.62a4.077 4.077 0 0 0-7.149 2.363 4.075 4.075 0 0 0 .979 2.957l1.4 1.62a4.074 4.074 0 0 0 4.45 1.18l-3.94-4.2Z" fill="#E0E2E3"/><path d="M288.34 109.3a1.63 1.63 0 0 1 .06-2.31 1.63 1.63 0 0 1 2.31.06l4 4.15a4.083 4.083 0 0 0-.71-4.2l-1.4-1.62a4.077 4.077 0 0 0-7.149 2.363 4.075 4.075 0 0 0 .979 2.957l1.4 1.62a4.074 4.074 0 0 0 4.45 1.18l-3.94-4.2ZM298.89 115.73a1.64 1.64 0 1 1-2.38 2.26l-3.94-4.16a4.05 4.05 0 0 0 .66 4.25l1.4 1.63a4.077 4.077 0 0 0 6.17-5.33l-1.4-1.62a4.06 4.06 0 0 0-4.45-1.17l3.94 4.14Z" fill="#E0E2E3"/><path d="M296.508 114.147 292.669 110a1.018 1.018 0 0 0-1.437-.059 1.017 1.017 0 0 0-.052 1.438l3.838 4.147c.383.413 1.026.44 1.438.059a1.018 1.018 0 0 0 .052-1.438Z" fill="#4F87FD"/><path d="M221.54 166.4s8-5.68 10.41-5.85c2.92-.82 11 1.07 20.62 4.24 2.38.65 10.09 2.07 12.88 1.7 1.78-.23 14.94-6.38 15-4.2.06 2.18-11 7.66-15 7.27-3.89-.55-8.57-1-6.9-5.83s9.15-10.4 10.66-10.56c0-.8-1.05-4.94-2.28-5.78-1.47.23-12.84 8.49-13 14.77-.73 5.05-1.6 8.59 4.44 11.16 6.04 2.57 20.93-.24 24.07-3.58 1.44-1 7.39-8.4-2.4-11.34-8.82-2.23-14.88 3-18.25 3.54-1.6.06-6.12.23-7.86.22-1.67-1-11.42-4.95-11.88-5.71-1.29-.65-5.77-3.59-11.18-3.88-3 .69-9 4.24-9.7 5.89a72.343 72.343 0 0 0 .37 7.94Z" fill="#FBC623"/><path d="m220.21 94.11-3.74 7.89s7.08 2.76 9.25 3.47c2.45-4.06 3.37-6 3.37-6s-3.76-2.15-8.88-5.36Z" fill="#4F87FD"/><path d="m219.39 195.27 4.56-7.41s-6.74-3.51-8.83-4.44c-2.87 3.78-4 5.65-4 5.65s3.53 2.46 8.27 6.2Z" stroke="#61D3BA" stroke-miterlimit="10"/></svg>