<svg viewBox="0 0 400 300" fill="none" xmlns="http://www.w3.org/2000/svg"><path d="M199.081 259.18c58.244 0 105.46-47.216 105.46-105.46 0-58.245-47.216-105.46-105.46-105.46-58.245 0-105.46 47.215-105.46 105.46 0 58.244 47.215 105.46 105.46 105.46Z" fill="#0E79E8" stroke="#000" stroke-width="2.362"/><path d="M199.709 272.072c65.369 0 118.363-52.994 118.363-118.363 0-65.37-52.994-118.361-118.363-118.361S81.348 88.34 81.348 153.709s52.992 118.363 118.361 118.363Z" stroke="#28FDFF" stroke-width="2.291" stroke-miterlimit="10"/><path d="M131.72 84.922a15.528 15.528 0 0 1-8.681 12.927 16.844 16.844 0 0 1 8.798 11.731s2.346-9.385 8.939-12.154a14.636 14.636 0 0 1-9.056-12.504ZM280.108 129.921a8.92 8.92 0 0 1-4.974 7.414 9.634 9.634 0 0 1 5.044 6.734s1.408-5.443 5.137-7.039a8.438 8.438 0 0 1-5.207-7.109Z" fill="#fff"/><path d="M246.524 138.182H268.7c1.051 0 2.059.417 2.802 1.161a3.959 3.959 0 0 1 1.161 2.802v62.287a3.963 3.963 0 0 1-3.963 3.964h-22.176v-70.239.025ZM130.053 138.18h22.401v70.063h-22.401a3.738 3.738 0 0 1-3.738-3.738v-62.563a3.743 3.743 0 0 1 1.086-2.659c.347-.35.761-.627 1.216-.816.455-.19.943-.287 1.436-.287Z" fill="#28FDFF" stroke="#000" stroke-width="2.362" stroke-miterlimit="10"/><path d="M140.94 148.591h11.791M126.541 161.687h12.342M135.722 171.77h16.08M138.331 188.979h5.996M126.541 197.408h7.124M137.579 202.827h14.399M261.325 148.591h11.79M246.926 161.687h12.342M256.082 171.77h16.104M258.716 188.979h5.971M246.926 197.408h7.099M257.962 202.827h14.399" stroke="#000" stroke-width="1.323" stroke-miterlimit="10"/><path d="M234.157 99.323h-11.012v11.916h11.012V99.323Z" fill="#FDE82B" stroke="#000" stroke-width="2.362" stroke-miterlimit="10"/><path d="m195.149 90.82-39.384 24.282a6.87 6.87 0 0 0-3.286 5.87v87.498h94.02v-86.645a6.924 6.924 0 0 0-3.337-5.92L202.6 90.82a7.1 7.1 0 0 0-7.451 0Z" fill="#28FDFF" stroke="#000" stroke-width="2.362" stroke-miterlimit="10"/><path d="M199.741 144.503c5.999 0 10.862-4.863 10.862-10.862s-4.863-10.862-10.862-10.862-10.862 4.863-10.862 10.862 4.863 10.862 10.862 10.862ZM218.429 155.739h-38.18v52.128h38.18v-52.128Z" fill="#FDE82B" stroke="#000" stroke-width="2.362" stroke-miterlimit="10"/><path d="m162.89 121.098 31.407-18.613a8.55 8.55 0 0 1 8.88 0l11.439 7.024M222.243 114.525l7.676 4.717" stroke="#000" stroke-width="2.362" stroke-miterlimit="10"/><path d="M218.203 144.277a15.057 15.057 0 0 1-8.404 12.543 16.247 16.247 0 0 1 8.504 11.338s2.383-9.156 8.655-11.74a14.17 14.17 0 0 1-8.755-12.141Z" fill="#fff"/><path d="M83.795 129.921a9.45 9.45 0 1 0 0-18.897 9.45 9.45 0 0 0 0 18.897ZM310.567 262.205a4.723 4.723 0 0 0 4.724-4.725 4.723 4.723 0 0 0-4.724-4.724 4.723 4.723 0 0 0-4.725 4.724 4.723 4.723 0 0 0 4.725 4.725Z" fill="#28FDFF"/></svg>