<svg viewBox="0 0 400 300" fill="none" xmlns="http://www.w3.org/2000/svg"><path d="M199.083 259.18c58.244 0 105.46-47.216 105.46-105.461 0-58.244-47.216-105.46-105.46-105.46-58.244 0-105.46 47.216-105.46 105.46 0 58.245 47.216 105.461 105.46 105.461Z" fill="#0E79E8" stroke="#000" stroke-width="2.362"/><path d="M199.711 272.072c65.369 0 118.363-52.994 118.363-118.363 0-65.37-52.994-118.361-118.363-118.361S81.35 88.34 81.35 153.709s52.992 118.363 118.361 118.363Z" stroke="#28FDFF" stroke-width="2.291" stroke-miterlimit="10"/><path d="M88.52 122.835a9.45 9.45 0 1 0-.001-18.898 9.45 9.45 0 0 0 0 18.898Z" fill="#28FDFF"/><path d="M169.493 90.08a15.727 15.727 0 0 1-2.606 7.687 15.542 15.542 0 0 1-6.076 5.333 16.878 16.878 0 0 1 5.744 4.902 17.086 17.086 0 0 1 3.056 6.935s2.346-9.47 8.94-12.239a14.756 14.756 0 0 1-6.298-5.016 14.949 14.949 0 0 1-2.76-7.602ZM219 200.065a9.046 9.046 0 0 1-1.492 4.414 8.926 8.926 0 0 1-3.482 3.067 9.653 9.653 0 0 1 3.295 2.813 9.78 9.78 0 0 1 1.75 3.981s1.407-5.492 5.138-7.101a8.466 8.466 0 0 1-3.605-2.847 8.575 8.575 0 0 1-1.604-4.327ZM249.741 83.665a9.001 9.001 0 0 1-1.501 4.408 8.9 8.9 0 0 1-3.496 3.049 9.735 9.735 0 0 1 3.302 2.813 9.855 9.855 0 0 1 1.766 3.98s1.408-5.468 5.138-7.101a8.415 8.415 0 0 1-3.606-2.832 8.527 8.527 0 0 1-1.603-4.317Z" fill="#fff"/><path d="M166.819 121.684h-14.524c-3.474 0-6.289 2.84-6.289 6.344v59.703c0 3.504 2.815 6.345 6.289 6.345h14.524c3.473 0 6.289-2.841 6.289-6.345v-59.703c0-3.504-2.816-6.344-6.289-6.344Z" fill="#28FDFF" stroke="#000" stroke-width="2.362" stroke-miterlimit="10"/><path d="M134.742 133.686h11.333V182.5h-11.333a5.327 5.327 0 0 1-3.783-1.581 5.423 5.423 0 0 1-1.567-3.817v-37.995a5.433 5.433 0 0 1 1.559-3.832 5.309 5.309 0 0 1 3.791-1.589Z" fill="#FDE82B" stroke="#000" stroke-width="2.362" stroke-miterlimit="10"/><path d="M226.699 147.677h-53.804v18.725h53.804v-18.725Z" fill="#28FDFF" stroke="#000" stroke-width="2.362" stroke-miterlimit="10"/><path d="M125.124 150.067h4.341v15.956h-4.341a7.873 7.873 0 0 1-5.591-2.337 8.013 8.013 0 0 1-2.316-5.641c0-2.116.833-4.145 2.316-5.641a7.868 7.868 0 0 1 5.591-2.337Z" fill="#FDE82B" stroke="#000" stroke-width="2.362" stroke-miterlimit="10"/><path d="M233.062 194.1h14.524c3.473 0 6.289-2.841 6.289-6.345v-59.703c0-3.504-2.816-6.344-6.289-6.344h-14.524c-3.473 0-6.289 2.84-6.289 6.344v59.703c0 3.504 2.816 6.345 6.289 6.345Z" fill="#28FDFF" stroke="#000" stroke-width="2.362" stroke-miterlimit="10"/><path d="M265.087 182.524h-11.333V133.71h11.333c1.419 0 2.78.569 3.783 1.581a5.419 5.419 0 0 1 1.567 3.817v37.995a5.42 5.42 0 0 1-1.558 3.832 5.344 5.344 0 0 1-3.792 1.589Z" fill="#FDE82B" stroke="#000" stroke-width="2.362" stroke-miterlimit="10"/><path d="M274.663 166.023h-4.341v-15.955h4.341c2.097 0 4.108.84 5.591 2.337a8.012 8.012 0 0 1 2.315 5.641 8.015 8.015 0 0 1-2.315 5.641 7.872 7.872 0 0 1-5.591 2.336Z" fill="#FDE82B" stroke="#000" stroke-width="2.362" stroke-miterlimit="10"/><path d="M234.976 120.472v28.347M245.025 193.721V176.51M262.086 148.032v17.802M160.954 153.972v32.03M135.681 143.889v13.636" stroke="#000" stroke-width="1.417" stroke-miterlimit="10"/><path d="M308.205 262.205a4.723 4.723 0 0 0 4.724-4.725 4.723 4.723 0 0 0-4.724-4.724 4.724 4.724 0 1 0 0 9.449Z" fill="#28FDFF"/></svg>