<svg viewBox="0 0 400 300" fill="none" xmlns="http://www.w3.org/2000/svg"><path d="M199.083 259.18c58.244 0 105.461-47.216 105.461-105.461 0-58.244-47.217-105.46-105.461-105.46s-105.46 47.216-105.46 105.46c0 58.245 47.216 105.461 105.46 105.461Z" fill="#0E79E8" stroke="#000" stroke-width="2.362"/><path d="M143.58 164.87a16.589 16.589 0 0 1-9.307 13.797 17.932 17.932 0 0 1 9.407 12.543s2.509-10.034 9.583-12.969a15.7 15.7 0 0 1-9.683-13.371ZM288.348 184.16a9.53 9.53 0 0 1-5.343 7.927 10.299 10.299 0 0 1 3.531 2.965 10.288 10.288 0 0 1 1.888 4.209s1.505-5.794 5.492-7.526a8.978 8.978 0 0 1-5.568-7.575Z" fill="#fff"/><path d="M241.541 103.937h-93.694c-5.736 0-10.385 4.65-10.385 10.385v18.338c0 5.735 4.649 10.385 10.385 10.385h93.694c5.735 0 10.385-4.65 10.385-10.385v-18.338c0-5.735-4.65-10.385-10.385-10.385Z" fill="#28FDFF" stroke="#000" stroke-width="2.362" stroke-miterlimit="10"/><path d="M251.45 125.084h4.29a9.683 9.683 0 0 1 9.683 9.683v13.646a9.687 9.687 0 0 1-9.683 9.708h-44.226a9.68 9.68 0 0 0-6.846 2.837 9.679 9.679 0 0 0-2.836 6.846v5.92" stroke="#000" stroke-width="2.362" stroke-miterlimit="10"/><path d="M201.502 221.688a9.659 9.659 0 0 1-9.658-10.184l1.957-37.628h15.502l1.957 37.628a9.647 9.647 0 0 1-.587 3.881 9.647 9.647 0 0 1-5.318 5.551 9.65 9.65 0 0 1-3.853.752Z" fill="#FDE82B" stroke="#000" stroke-width="2.362" stroke-miterlimit="10"/><path d="M197.01 113.222h36.023" stroke="#000" stroke-width="2.362" stroke-miterlimit="10"/><path d="M137.461 119.365h-6.421v9.056h6.421v-9.056Z" fill="#FDE82B" stroke="#000" stroke-width="2.362" stroke-miterlimit="10"/><path d="M199.712 272.072c65.369 0 118.362-52.994 118.362-118.363 0-65.37-52.993-118.361-118.362-118.361-65.37 0-118.362 52.992-118.362 118.361s52.992 118.363 118.362 118.363Z" stroke="#28FDFF" stroke-width="2.291" stroke-miterlimit="10"/><path d="M88.52 122.835a9.45 9.45 0 1 0 0-18.898 9.45 9.45 0 0 0 0 18.898ZM308.205 262.205a4.723 4.723 0 0 0 4.724-4.725 4.723 4.723 0 0 0-4.724-4.724 4.724 4.724 0 1 0 0 9.449Z" fill="#28FDFF"/></svg>