<svg viewBox="0 0 400 300" fill="none" xmlns="http://www.w3.org/2000/svg"><path d="M199.081 259.18c58.244 0 105.46-47.216 105.46-105.46 0-58.245-47.216-105.46-105.46-105.46-58.245 0-105.46 47.215-105.46 105.46 0 58.244 47.215 105.46 105.46 105.46Z" fill="#0E79E8" stroke="#000" stroke-width="2.362"/><path d="M199.709 272.072c65.369 0 118.363-52.994 118.363-118.363 0-65.37-52.994-118.361-118.363-118.361S81.348 88.34 81.348 153.709s52.992 118.363 118.361 118.363Z" stroke="#28FDFF" stroke-width="2.291" stroke-miterlimit="10"/><path d="M88.52 122.835a9.45 9.45 0 1 0-.001-18.898 9.45 9.45 0 0 0 0 18.898Z" fill="#28FDFF"/><path d="M251.785 82.677a8.893 8.893 0 0 1-4.998 7.414 9.71 9.71 0 0 1 5.068 6.733s1.408-5.442 5.138-7.038a8.396 8.396 0 0 1-5.208-7.109ZM240.248 219.685a9.587 9.587 0 0 1-1.582 4.677 9.466 9.466 0 0 1-3.69 3.25 10.246 10.246 0 0 1 3.493 2.981 10.351 10.351 0 0 1 1.853 4.219s1.492-5.82 5.446-7.526a8.958 8.958 0 0 1-3.821-3.016 9.08 9.08 0 0 1-1.699-4.585Z" fill="#fff"/><path d="M252.059 130.415H145.337c-6.592 0-11.935 5.391-11.935 12.041v54.337c0 6.65 5.343 12.042 11.935 12.042h106.722c6.592 0 11.935-5.392 11.935-12.042v-54.337c0-6.65-5.343-12.041-11.935-12.041Z" fill="#28FDFF" stroke="#000" stroke-width="2.362" stroke-miterlimit="10"/><path d="M133.452 146.445h130.444M133.452 192.554h130.444" stroke="#000" stroke-width="1.157" stroke-miterlimit="10"/><path d="M198.574 214.053c24.293 0 43.987-19.868 43.987-44.377 0-24.509-19.694-44.378-43.987-44.378-24.293 0-43.986 19.869-43.986 44.378s19.693 44.377 43.986 44.377Z" fill="#fff" stroke="#000" stroke-width="2.362" stroke-miterlimit="10"/><path d="M198.575 201.559c17.454 0 31.603-14.275 31.603-31.884 0-17.61-14.149-31.885-31.603-31.885-17.455 0-31.604 14.275-31.604 31.885 0 17.609 14.149 31.884 31.604 31.884Z" fill="#fff" stroke="#000" stroke-width="2.362" stroke-miterlimit="10"/><path d="M198.574 188.215c10.148 0 18.375-8.3 18.375-18.539 0-10.238-8.227-18.539-18.375-18.539-10.149 0-18.376 8.301-18.376 18.539 0 10.239 8.227 18.539 18.376 18.539ZM155.11 122.088h7.957c.784 0 1.537.314 2.092.874.555.56.867 1.319.867 2.111v5.243h-13.9v-5.243a2.995 2.995 0 0 1 1.844-2.765 2.915 2.915 0 0 1 1.14-.22ZM234.006 122.088h7.907c.785 0 1.538.314 2.093.874.555.56.866 1.319.866 2.111v5.243h-13.85v-5.243a3.014 3.014 0 0 1 .876-2.12 2.933 2.933 0 0 1 2.108-.865Z" fill="#FDE82B" stroke="#000" stroke-width="2.362" stroke-miterlimit="10"/><path d="M186.067 126.729v-16.005M211.128 126.729v-16.005" stroke="#000" stroke-width="2.362" stroke-miterlimit="10"/><path d="M216.08 96.85H180.1c-2.843 0-5.148 2.325-5.148 5.193v9.307c0 2.868 2.305 5.193 5.148 5.193h35.98c2.842 0 5.147-2.325 5.147-5.193v-9.307c0-2.868-2.305-5.193-5.147-5.193Z" fill="#FDE82B" stroke="#000" stroke-width="2.362" stroke-miterlimit="10"/><path d="M139.667 120.472a15.697 15.697 0 0 1-2.589 7.653 15.524 15.524 0 0 1-6.039 5.317 16.778 16.778 0 0 1 5.714 4.87 16.977 16.977 0 0 1 3.039 6.895s2.486-9.508 8.902-12.167a14.663 14.663 0 0 1-6.281-4.992 14.866 14.866 0 0 1-2.746-7.576Z" fill="#fff"/><path d="M308.205 262.205a4.723 4.723 0 0 0 4.724-4.725 4.723 4.723 0 0 0-4.724-4.724 4.723 4.723 0 0 0-4.725 4.724 4.723 4.723 0 0 0 4.725 4.725Z" fill="#28FDFF"/></svg>