<svg viewBox="0 0 400 300" fill="none" xmlns="http://www.w3.org/2000/svg"><path d="M199.083 259.18c58.244 0 105.46-47.216 105.46-105.461 0-58.244-47.216-105.46-105.46-105.46-58.244 0-105.46 47.216-105.46 105.46 0 58.245 47.216 105.461 105.46 105.461Z" fill="#0E79E8" stroke="#000" stroke-width="2.362"/><path d="M186.615 96.85h57.696a7.05 7.05 0 0 1 7.049 7.049v66.025h-64.745a7.047 7.047 0 0 1-7.049-7.049v-58.951a7.052 7.052 0 0 1 7.049-7.074Z" fill="#28FDFF" stroke="#000" stroke-width="2.362" stroke-miterlimit="10"/><path d="m251.411 149.054 10.862 20.595-13.396.176" fill="#28FDFF"/><path d="m251.411 149.054 10.862 20.595-13.396.176" stroke="#000" stroke-width="2.362" stroke-miterlimit="10"/><path d="M251.41 148.526v12.191" stroke="#000" stroke-width="1.323" stroke-miterlimit="10"/><path d="M145.175 138.969h57.696a7.049 7.049 0 0 1 7.049 7.049v65.924h-64.745a7.047 7.047 0 0 1-7.049-7.049v-58.951a7.047 7.047 0 0 1 7.049-6.973Z" fill="#FDE82B" stroke="#000" stroke-width="2.362" stroke-miterlimit="10"/><path d="m209.946 191.17 10.887 20.596-13.396.175" fill="#FDE82B"/><path d="m209.946 191.17 10.887 20.596-13.396.175" stroke="#000" stroke-width="2.362" stroke-miterlimit="10"/><path d="M209.943 190.644v12.192" stroke="#000" stroke-width="1.323" stroke-miterlimit="10"/><path d="M241.502 173.059a46.933 46.933 0 0 1-23.956 22.828M156.115 134.855a47.063 47.063 0 0 1 19.466-22.376" stroke="#000" stroke-width="2.362" stroke-miterlimit="10"/><path d="M182.683 164.088c-2.169 5.995-5.145 10.885-9.057 14.839-4.039-4.124-7.058-9.141-9.142-14.839h18.199Zm10.204 0v-3.104h-17.645v-7.186h-3.189v7.186h-17.306v3.104h6.251c2.423 6.761 5.74 12.501 10.119 17.136-4.549 3.741-10.119 6.463-16.88 8.418.68.723 1.701 2.254 1.998 3.019 6.846-2.211 12.586-5.145 17.263-9.141 4.678 4.209 10.46 7.27 17.561 9.099.468-.893 1.488-2.339 2.254-3.062-6.889-1.615-12.629-4.507-17.263-8.419 4.422-4.464 7.781-10.077 10.289-17.05h6.548ZM227.018 119.792h-9.717v26.949h-3.965v-26.949h-9.696v-3.28h23.378v3.28Z" fill="#0E79E8"/><path d="M199.711 272.072c65.369 0 118.363-52.994 118.363-118.363 0-65.37-52.994-118.361-118.363-118.361S81.351 88.34 81.351 153.709s52.991 118.363 118.36 118.363Z" stroke="#28FDFF" stroke-width="2.291" stroke-miterlimit="10"/><path d="M86.158 125.197c5.218 0 9.448-4.231 9.448-9.449s-4.23-9.449-9.448-9.449a9.45 9.45 0 0 0 0 18.898Z" fill="#28FDFF"/><path d="M230.968 222.047a9.903 9.903 0 0 1-1.632 4.828 9.784 9.784 0 0 1-3.808 3.354 10.583 10.583 0 0 1 3.604 3.076 10.682 10.682 0 0 1 1.913 4.356s1.54-6.008 5.621-7.769a9.25 9.25 0 0 1-3.944-3.113 9.376 9.376 0 0 1-1.754-4.732ZM144.694 89.764a20.41 20.41 0 0 1-3.39 9.987 20.168 20.168 0 0 1-7.902 6.92 21.982 21.982 0 0 1 7.467 6.369 22.214 22.214 0 0 1 3.979 9.011s3.182-12.428 11.626-15.898a19.1 19.1 0 0 1-8.2-6.505 19.337 19.337 0 0 1-3.58-9.884Z" fill="#fff"/><path d="M303.48 262.205a4.723 4.723 0 0 0 4.725-4.725 4.723 4.723 0 0 0-4.725-4.724 4.723 4.723 0 0 0-4.724 4.724 4.723 4.723 0 0 0 4.724 4.725Z" fill="#28FDFF"/></svg>