<svg viewBox="0 0 400 300" fill="none" xmlns="http://www.w3.org/2000/svg"><path d="M199.885 259.346c58.245 0 105.461-47.216 105.461-105.46 0-58.245-47.216-105.46-105.461-105.46-58.244 0-105.46 47.215-105.46 105.46 0 58.244 47.216 105.46 105.46 105.46Z" fill="#0E79E8" stroke="#000" stroke-width="2.362"/><path d="M199.709 272.072c65.369 0 118.363-52.994 118.363-118.363 0-65.37-52.994-118.361-118.363-118.361S81.348 88.34 81.348 153.709s52.992 118.363 118.361 118.363Z" stroke="#28FDFF" stroke-width="2.291" stroke-miterlimit="10"/><path d="M126.091 99.289a16.656 16.656 0 0 1-2.769 8.153 16.452 16.452 0 0 1-6.456 5.644 17.9 17.9 0 0 1 6.086 5.194 18.089 18.089 0 0 1 3.239 7.349s2.486-10.034 9.498-12.97a15.538 15.538 0 0 1-6.688-5.305 15.736 15.736 0 0 1-2.91-8.065ZM253.029 85.04a9.54 9.54 0 0 1-1.591 4.671 9.421 9.421 0 0 1-3.705 3.23 10.237 10.237 0 0 1 3.492 2.981 10.355 10.355 0 0 1 1.854 4.22s1.492-5.795 5.446-7.526a8.883 8.883 0 0 1-3.811-3.004 9.011 9.011 0 0 1-1.685-4.572Z" fill="#fff"/><path d="M172.713 113.336h49.582c4.226 0 24.343-2.809 30.907 14.776l5.943 22.352-27.078 5.167v68.686h-67.286v-67.732l-25.661-6.422s2.064-12.217 4.327-19.869c2.262-7.651 9.324-16.958 29.266-16.958Z" fill="#28FDFF" stroke="#000" stroke-width="2.362" stroke-miterlimit="10"/><path d="m172.066 113.662 7.733-7.275 17.903 18.062-9.026 8.855-16.61-19.642ZM224.31 113.661l-8.703-7.124-16.933 17.911 9.026 8.855 16.61-19.642Z" fill="#fff" stroke="#000" stroke-width="2.362" stroke-miterlimit="10"/><path d="M179.799 106.387h35.632l-17.033 18.714-18.599-18.714Z" fill="#fff" stroke="#000" stroke-width="2.362" stroke-miterlimit="10" stroke-linejoin="round"/><path d="m164.781 156.585 7.286-43.023s-22.727-2.508-28.62 16.733l-4.327 19.868 25.661 6.422Z" fill="#fff" stroke="#000" stroke-width="2.362" stroke-miterlimit="10"/><path d="m140.562 144.067 24.791 6.271" stroke="#000" stroke-width="1.394" stroke-miterlimit="10"/><path d="m232.514 155.807-6.788-42.496s22.727-2.509 28.645 16.732l4.799 20.295-26.656 5.469Z" fill="#fff" stroke="#000" stroke-width="2.362" stroke-miterlimit="10"/><path d="m257.255 143.716-25.686 5.82" stroke="#000" stroke-width="1.394" stroke-miterlimit="10"/><path d="M171.594 215.662h52.142" stroke="#000" stroke-width="2.362" stroke-miterlimit="10"/><path d="m198.398 125.1-3.68 30.405h7.509l-3.829-30.405Z" fill="#fff" stroke="#000" stroke-width="2.362" stroke-linecap="round" stroke-linejoin="round"/><path d="M83.795 129.921a9.449 9.449 0 0 0 9.45-9.449c0-5.218-4.231-9.449-9.45-9.449a9.45 9.45 0 0 0 0 18.898ZM310.567 262.205a4.723 4.723 0 0 0 4.724-4.725 4.723 4.723 0 0 0-4.724-4.724 4.723 4.723 0 0 0-4.724 4.724 4.723 4.723 0 0 0 4.724 4.725Z" fill="#28FDFF"/></svg>