<svg viewBox="0 0 400 300" fill="none" xmlns="http://www.w3.org/2000/svg"><path d="M199.083 259.18c58.244 0 105.46-47.216 105.46-105.46 0-58.245-47.216-105.46-105.46-105.46-58.244 0-105.46 47.215-105.46 105.46 0 58.244 47.216 105.46 105.46 105.46Z" fill="#0E79E8" stroke="#000" stroke-width="2.362"/><path d="M201.35 210.343c30.688 0 55.565-24.877 55.565-55.565s-24.877-55.566-55.565-55.566-55.565 24.878-55.565 55.566c0 30.688 24.877 55.565 55.565 55.565Z" fill="#29F7FF" stroke="#000" stroke-width="2.362" stroke-miterlimit="10"/><path d="M222.007 146.757c1.565-3.283-1.011-7.029-4.636-6.743l-33.285 2.628c-3.627.287-5.582 4.393-3.519 7.39l18.93 27.486c2.062 2.994 6.591 2.635 8.155-.647l14.355-30.114Z" fill="#FDE82B" stroke="#000" stroke-width="2.362" stroke-miterlimit="10"/><path d="M147.739 167.179c-17.562 15.484-26.512 30.372-21.753 39.22 7.707 14.328 48.45 7.39 91.001-15.499 42.551-22.888 70.798-53.058 63.09-67.386-4.173-7.76-18.035-9.282-36.626-5.412" stroke="#000" stroke-width="2.362"/><path d="M199.711 272.072c65.369 0 118.363-52.994 118.363-118.363 0-65.37-52.994-118.361-118.363-118.361S81.35 88.34 81.35 153.709s52.992 118.363 118.361 118.363Z" stroke="#28FDFF" stroke-width="2.291" stroke-miterlimit="10"/><path d="M244.208 198.425c-.197 2.61-1.154 5.127-2.775 7.297-1.62 2.171-3.848 3.917-6.457 5.064 2.404 1.117 4.494 2.711 6.116 4.662 1.621 1.95 2.731 4.207 3.246 6.599 0 0 2.613-9.064 9.536-11.771-2.663-.985-4.974-2.612-6.68-4.703-1.705-2.09-2.738-4.563-2.986-7.148ZM155.489 89.764a26.74 26.74 0 0 1-4.508 13.134 26.798 26.798 0 0 1-10.493 9.114 29.065 29.065 0 0 1 9.938 8.392 29.013 29.013 0 0 1 5.275 11.879s4.245-16.315 15.496-21.189a25.468 25.468 0 0 1-10.855-8.464 25.4 25.4 0 0 1-4.853-12.866Z" fill="#fff"/><path d="M83.795 129.921a9.449 9.449 0 0 0 9.45-9.449c0-5.218-4.231-9.449-9.45-9.449a9.45 9.45 0 0 0 0 18.898ZM310.567 262.205a4.723 4.723 0 0 0 4.724-4.725 4.723 4.723 0 0 0-4.724-4.724 4.723 4.723 0 0 0-4.724 4.724 4.723 4.723 0 0 0 4.724 4.725Z" fill="#28FDFF"/></svg>