<svg viewBox="0 0 400 300" fill="none" xmlns="http://www.w3.org/2000/svg"><path d="M199.539 258.294c58.038 0 105.087-47.05 105.087-105.088S257.577 48.119 199.539 48.119c-58.038 0-105.087 47.05-105.087 105.087 0 58.038 47.049 105.088 105.087 105.088Z" fill="#0E79E8" stroke="#000" stroke-width="2.354"/><path d="M200.165 271.14c65.138 0 117.944-52.806 117.944-117.944S265.303 35.253 200.165 35.253 82.223 88.058 82.223 153.196 135.027 271.14 200.165 271.14Z" stroke="#28FDFF" stroke-width="2.283" stroke-miterlimit="10"/><path d="M87.015 124.784a9.415 9.415 0 1 0 0-18.83 9.415 9.415 0 1 0 0 18.83Z" fill="#28FDFF"/><path d="M276.708 146.898a9.858 9.858 0 0 1-1.626 4.811 9.747 9.747 0 0 1-3.795 3.342 10.531 10.531 0 0 1 3.591 3.066 10.635 10.635 0 0 1 1.907 4.339s1.534-5.986 5.6-7.74a9.225 9.225 0 0 1-3.929-3.103 9.35 9.35 0 0 1-1.748-4.715ZM123.037 193.623a9.869 9.869 0 0 1-1.627 4.811 9.733 9.733 0 0 1-3.795 3.342 10.533 10.533 0 0 1 3.592 3.065 10.671 10.671 0 0 1 1.907 4.34s1.534-5.986 5.6-7.74a9.219 9.219 0 0 1-3.929-3.103 9.332 9.332 0 0 1-1.748-4.715Z" fill="#fff"/><path d="M198.019 228.015c22.217 0 40.227-21.636 40.227-48.325 0-26.689-18.01-48.324-40.227-48.324-22.217 0-40.227 21.635-40.227 48.324 0 26.689 18.01 48.325 40.227 48.325Z" fill="#fff" stroke="#000" stroke-width="2.354" stroke-miterlimit="10"/><path d="M156.691 176.156s-9.13-10.759-7.672-33.825c1.458-23.066 30.995-53.304 73.14-34.34 0 0 .563 21.053-21.482 33.85-22.044 12.797-40.917 10.423-43.986 34.315Z" fill="#28FDFF" stroke="#000" stroke-width="2.354" stroke-miterlimit="10"/><path d="M207.99 137.893s1.509 10.32 14.193 17.054c12.685 6.734 15.703 21.028 15.703 21.028s10.229-17.08 8.158-34.134c-2.558-20.409-11.994-27.762-23.835-33.851 0 0 2.071 15.558-14.219 29.903ZM172.547 107.216s1.253-22.447 26.008-22.447 23.553 23.22 23.553 23.22a58.151 58.151 0 0 0-24.55-6.14 68.506 68.506 0 0 0-25.011 5.367ZM179.374 183.69c5.974 0 10.818-4.887 10.818-10.914 0-6.028-4.844-10.914-10.818-10.914-5.975 0-10.818 4.886-10.818 10.914 0 6.027 4.843 10.914 10.818 10.914ZM214.845 183.69c5.974 0 10.818-4.887 10.818-10.914 0-6.028-4.844-10.914-10.818-10.914-5.974 0-10.818 4.886-10.818 10.914 0 6.027 4.844 10.914 10.818 10.914ZM197.786 210.701c8.107 0 14.679-2.714 14.679-6.063 0-3.349-6.572-6.063-14.679-6.063s-14.679 2.714-14.679 6.063c0 3.349 6.572 6.063 14.679 6.063Z" fill="#28FDFF" stroke="#000" stroke-width="2.354" stroke-miterlimit="10"/><path d="M171.473 171.95a10.821 10.821 0 0 0 7.64 3.057 10.822 10.822 0 0 0 7.577-3.212" fill="#28FDFF"/><path d="M171.473 171.95a10.821 10.821 0 0 0 7.64 3.057 10.822 10.822 0 0 0 7.577-3.212" stroke="#000" stroke-width="1.153" stroke-miterlimit="10"/><path d="M207.199 171.95a10.871 10.871 0 0 0 7.704 3.1 10.873 10.873 0 0 0 7.64-3.255" fill="#28FDFF"/><path d="M207.199 171.95a10.871 10.871 0 0 0 7.704 3.1 10.873 10.873 0 0 0 7.64-3.255" stroke="#000" stroke-width="1.153" stroke-miterlimit="10"/><path d="M158.15 104.042a20.348 20.348 0 0 1-3.377 9.952 20.095 20.095 0 0 1-7.875 6.895 21.902 21.902 0 0 1 7.441 6.346 22.128 22.128 0 0 1 3.965 8.98s3.171-12.384 11.585-15.842a19.026 19.026 0 0 1-8.171-6.482 19.285 19.285 0 0 1-3.568-9.849Z" fill="#fff"/><path d="M303.569 261.307a4.707 4.707 0 1 0-4.707-4.707 4.705 4.705 0 0 0 4.707 4.707Z" fill="#28FDFF"/></svg>