<svg viewBox="0 0 400 300" fill="none" xmlns="http://www.w3.org/2000/svg"><path d="M199.083 259.18c58.244 0 105.46-47.216 105.46-105.461 0-58.244-47.216-105.46-105.46-105.46-58.244 0-105.46 47.216-105.46 105.46 0 58.245 47.216 105.461 105.46 105.461Z" fill="#0E79E8" stroke="#000" stroke-width="2.362"/><path d="M199.711 272.072c65.369 0 118.363-52.994 118.363-118.363 0-65.37-52.994-118.361-118.363-118.361S81.35 88.34 81.35 153.709s52.992 118.363 118.361 118.363Z" stroke="#28FDFF" stroke-width="2.291" stroke-miterlimit="10"/><path d="M86.157 125.197a9.45 9.45 0 1 0 0-18.899 9.45 9.45 0 0 0 0 18.899Z" fill="#28FDFF"/><path d="M144.657 92.126a15.874 15.874 0 0 1-2.666 7.807 15.875 15.875 0 0 1-6.227 5.413 17.247 17.247 0 0 1 9.013 12.018s2.404-9.615 9.158-12.427a14.993 14.993 0 0 1-9.278-12.811ZM272.161 153.237a9.107 9.107 0 0 1-5.12 7.595 9.958 9.958 0 0 1 5.192 6.898s1.442-5.576 5.264-7.211a8.598 8.598 0 0 1-5.336-7.282Z" fill="#fff"/><path d="M149.459 142.774h100.615a4.414 4.414 0 0 0 3.099-1.363 4.427 4.427 0 0 0 1.227-3.156v-3.461a34.805 34.805 0 0 0-34.804-34.804h-39.708a34.805 34.805 0 0 0-34.804 34.804v3.461a4.438 4.438 0 0 0 2.675 4.16 4.417 4.417 0 0 0 1.7.359Z" fill="#FDE82B" stroke="#000" stroke-width="2.362" stroke-miterlimit="10"/><path d="M243.202 166.353h-85.713c-5.628 0-10.191 4.563-10.191 10.192 0 5.628 4.563 10.191 10.191 10.191h85.713c5.628 0 10.191-4.563 10.191-10.191 0-5.629-4.563-10.192-10.191-10.192Z" fill="#fff" stroke="#000" stroke-width="2.362" stroke-miterlimit="10"/><path d="M147.418 186.928h105.518a3.797 3.797 0 0 1 3.797 3.798v4.591a16.082 16.082 0 0 1-16.08 16.08h-80.929a16.083 16.083 0 0 1-14.856-9.927 16.082 16.082 0 0 1-1.224-6.153v-4.591a3.796 3.796 0 0 1 3.774-3.798Z" fill="#FDE82B" stroke="#000" stroke-width="2.362" stroke-miterlimit="10"/><path d="M148.112 162.916c0 1.058.42 2.073 1.168 2.822a3.994 3.994 0 0 0 2.822 1.168h8.941a5.796 5.796 0 0 1 5.793 5.792v7.476a5.988 5.988 0 0 0 5.985 5.985 5.975 5.975 0 0 0 5.536-3.691 5.98 5.98 0 0 0 .449-2.294v-9.014a4.664 4.664 0 0 1 4.639-4.663 4.665 4.665 0 0 1 4.663 4.663v7.572a4.804 4.804 0 0 0 4.807 4.807 4.804 4.804 0 0 0 4.807-4.807v-7.692a4.66 4.66 0 0 1 4.663-4.663h15.96a5.021 5.021 0 0 1 5.048 5.024v6.513a6.217 6.217 0 0 0 1.815 4.418 6.204 6.204 0 0 0 2.022 1.355 6.214 6.214 0 0 0 2.388.477 6.222 6.222 0 0 0 6.249-6.25v-6.826a4.592 4.592 0 0 1 4.591-4.591h5.793a3.845 3.845 0 1 0-.024-7.691h-94.053a3.994 3.994 0 0 0-4.062 4.11Z" fill="#28FDFF" stroke="#000" stroke-width="2.362" stroke-miterlimit="10"/><path d="M246.399 142.413h-91.89v15.743h91.89v-15.743Z" fill="#0E79E8" stroke="#000" stroke-width="1.276" stroke-miterlimit="10"/><path d="M146.647 142.461v7.692a8.773 8.773 0 0 0 8.774 8.773 8.76 8.76 0 0 0 8.112-5.412 8.766 8.766 0 0 0 .661-3.361h2.259v1.442a7.595 7.595 0 0 0 7.571 7.595 7.594 7.594 0 0 0 7.572-7.595v-1.442h2.932v2.403a6.822 6.822 0 0 0 4.209 6.329 6.814 6.814 0 0 0 2.618.522 6.834 6.834 0 0 0 4.85-1.999 6.832 6.832 0 0 0 2-4.852v-2.403h2.932v1.322a7.428 7.428 0 0 0 7.427 7.427 7.427 7.427 0 0 0 7.451-7.427v-1.322h1.995v1.706c0 1.913.76 3.747 2.112 5.1a7.213 7.213 0 0 0 12.31-5.1v-1.971h2.74v1.25a8.032 8.032 0 0 0 4.95 7.439 8.03 8.03 0 0 0 11.106-7.439v-8.172l-104.581-.505Z" fill="#28FDFF" stroke="#000" stroke-width="2.362" stroke-miterlimit="10"/><path d="M182.44 111.312h9.471M208.208 111.766h9.47M167.294 119.82h20.118M194.745 120.06h11.105M212.462 119.58h20.118M168.544 195.052h20.815M203.949 195.052h30.526" stroke="#000" stroke-width="2.362" stroke-miterlimit="10"/><path d="M303.48 262.205a4.723 4.723 0 0 0 4.725-4.725 4.723 4.723 0 0 0-4.725-4.724 4.723 4.723 0 0 0-4.724 4.724 4.723 4.723 0 0 0 4.724 4.725Z" fill="#28FDFF"/></svg>