<svg viewBox="0 0 400 300" fill="none" xmlns="http://www.w3.org/2000/svg"><path d="M199.083 259.18c58.244 0 105.46-47.216 105.46-105.46 0-58.245-47.216-105.46-105.46-105.46-58.244 0-105.46 47.215-105.46 105.46 0 58.244 47.216 105.46 105.46 105.46Z" fill="#0E79E8" stroke="#000" stroke-width="2.362"/><path d="M199.711 272.072c65.369 0 118.363-52.994 118.363-118.363 0-65.37-52.994-118.361-118.363-118.361S81.351 88.34 81.351 153.709s52.991 118.363 118.36 118.363Z" stroke="#28FDFF" stroke-width="2.291" stroke-miterlimit="10"/><path d="M86.157 125.197a9.45 9.45 0 1 0 0-18.897 9.45 9.45 0 0 0 0 18.897Z" fill="#28FDFF"/><path d="M162.896 197.312h73.387v10.136a7.577 7.577 0 0 0 7.578 7.578h14.546a7.58 7.58 0 0 0 7.578-7.578v-53.539c0-4.926-8.376-26.98-13.115-40.822a13.534 13.534 0 0 0-12.833-9.15h-81.364a11.968 11.968 0 0 0-11.472 8.54l-11.731 39.18a16.167 16.167 0 0 0-.656 4.692v49.785a8.213 8.213 0 0 0 8.211 8.211h11.73a8.225 8.225 0 0 0 3.165-.633 8.218 8.218 0 0 0 5.047-7.672l-.071-8.728Z" fill="#28FDFF" stroke="#000" stroke-width="2.362" stroke-miterlimit="10"/><path d="M147.621 152.032h103.956l-7.249-29.022a8.282 8.282 0 0 0-8-6.24h-73.692a7.812 7.812 0 0 0-7.531 5.842l-7.484 29.42Z" fill="#fff" stroke="#000" stroke-width="2.362" stroke-miterlimit="10"/><path d="M145.794 176.315h32.259s-4.692-13.796-17.619-13.796-14.64 13.796-14.64 13.796ZM254.322 176.315H222.04s4.692-13.796 17.642-13.796c12.951 0 14.64 13.796 14.64 13.796Z" fill="#FDE82B" stroke="#000" stroke-width="2.362" stroke-miterlimit="10"/><path d="M134.908 153.91h-11.003a7.042 7.042 0 0 0-7.039 7.038 7.038 7.038 0 0 0 7.039 7.039h11.167l-.164-14.077ZM266.102 153.91h11.003c1.867 0 3.657.742 4.977 2.061a7.043 7.043 0 0 1 0 9.954 7.038 7.038 0 0 1-4.977 2.062h-11.097l.094-14.077Z" fill="#28FDFF" stroke="#000" stroke-width="2.362" stroke-miterlimit="10"/><path d="M154.874 188.116h89.434" stroke="#28FDFF" stroke-width="1.181" stroke-miterlimit="10"/><path d="M141.969 206.681h11.848M245.039 206.681h11.871M218.48 125.663l-17.197 17.807M226.431 130.683l-8.165 8.586M188.378 175.798h23.766" stroke="#000" stroke-width="2.362" stroke-miterlimit="10"/><path d="M131.72 84.922a15.532 15.532 0 0 1-8.68 12.927 16.85 16.85 0 0 1 8.797 11.731s2.346-9.385 8.939-12.154a14.633 14.633 0 0 1-9.056-12.504ZM223.415 219.685a8.912 8.912 0 0 1-4.974 7.414 9.642 9.642 0 0 1 5.044 6.733s1.408-5.443 5.138-7.038a8.448 8.448 0 0 1-5.208-7.109ZM251.784 82.677a8.89 8.89 0 0 1-4.997 7.414 9.71 9.71 0 0 1 5.068 6.734s1.407-5.444 5.138-7.039a8.399 8.399 0 0 1-5.209-7.109Z" fill="#fff"/><path d="M303.481 262.205a4.723 4.723 0 0 0 4.724-4.724 4.724 4.724 0 1 0-4.724 4.724Z" fill="#28FDFF"/></svg>