<svg viewBox="0 0 400 300" fill="none" xmlns="http://www.w3.org/2000/svg"><path d="M199.083 259.18c58.244 0 105.46-47.216 105.46-105.461 0-58.244-47.216-105.46-105.46-105.46-58.244 0-105.46 47.216-105.46 105.46 0 58.245 47.216 105.461 105.46 105.461Z" fill="#0E79E8" stroke="#000" stroke-width="2.362"/><path d="M199.711 272.072c65.369 0 118.363-52.994 118.363-118.363 0-65.37-52.994-118.361-118.363-118.361S81.351 88.34 81.351 153.709s52.991 118.363 118.36 118.363Z" stroke="#28FDFF" stroke-width="2.291" stroke-miterlimit="10"/><path d="M88.52 122.835a9.45 9.45 0 1 0-.001-18.898 9.45 9.45 0 0 0 0 18.898Z" fill="#28FDFF"/><path d="M132.606 86.631a15.702 15.702 0 0 1-2.595 7.674 15.522 15.522 0 0 1-6.058 5.328 16.837 16.837 0 0 1 5.724 4.885 17.013 17.013 0 0 1 3.046 6.912s2.339-9.438 8.911-12.222a14.615 14.615 0 0 1-6.291-4.99 14.807 14.807 0 0 1-2.737-7.587ZM284.115 172.686a9.014 9.014 0 0 1-1.488 4.399 8.904 8.904 0 0 1-3.47 3.057 9.636 9.636 0 0 1 3.286 2.804 9.763 9.763 0 0 1 1.743 3.968s1.403-5.474 5.121-7.079a8.437 8.437 0 0 1-3.593-2.837 8.552 8.552 0 0 1-1.599-4.312ZM252 73.228a8.997 8.997 0 0 1-1.494 4.406 8.893 8.893 0 0 1-3.488 3.05 9.704 9.704 0 0 1 3.292 2.805 9.807 9.807 0 0 1 1.76 3.968s1.403-5.475 5.099-7.079a8.387 8.387 0 0 1-3.587-2.837A8.497 8.497 0 0 1 252 73.228Z" fill="#fff"/><path d="m201.373 82.797-75.81 76.484 75.81 76.483 75.81-76.483-75.81-76.484Z" fill="#28FDFF" stroke="#000" stroke-width="2.362" stroke-miterlimit="10"/><path d="M201.512 199.867c22.85 0 41.373-18.688 41.373-41.741s-18.523-41.741-41.373-41.741c-22.85 0-41.374 18.688-41.374 41.741s18.524 41.741 41.374 41.741Z" fill="#fff" stroke="#000" stroke-width="2.362" stroke-miterlimit="10"/><path d="M201.507 185.238c14.842 0 26.873-12.138 26.873-27.112 0-14.973-12.031-27.111-26.873-27.111s-26.873 12.138-26.873 27.111c0 14.974 12.031 27.112 26.873 27.112Z" fill="#fff" stroke="#000" stroke-width="2.362" stroke-miterlimit="10"/><path d="m250.156 111.807.608 80.557a2.85 2.85 0 0 0 1.968 2.689c.376.121.773.162 1.166.119a2.825 2.825 0 0 0 1.793-.969 2.874 2.874 0 0 0 .686-1.933c-.211-6.584-.749-34.333-.749-36.952 0-3.28 5.005-9.745 4.023-22.982-.982-13.238-6.572-21.685-9.495-20.529ZM156.559 141.21v-25.46a1.754 1.754 0 0 0-1.004-1.657 1.702 1.702 0 0 0-.657-.16 1.714 1.714 0 0 0-1.219.553 1.761 1.761 0 0 0-.465 1.264v23.596c.013.461-.154.91-.464 1.249-.31.34-.74.543-1.196.568h-.772a1.751 1.751 0 0 1-1.212-.56 1.778 1.778 0 0 1-.472-1.257V115.75a1.754 1.754 0 0 0-1.004-1.657 1.697 1.697 0 0 0-.657-.16 1.739 1.739 0 0 0-1.66 1.817v23.596c.013.461-.154.91-.464 1.249-.31.34-.74.543-1.197.568h-1.076a1.749 1.749 0 0 1-1.211-.56 1.779 1.779 0 0 1-.473-1.257V115.75a1.719 1.719 0 0 0-.449-1.263 1.714 1.714 0 0 0-1.211-.554 1.717 1.717 0 0 0-1.204.561 1.754 1.754 0 0 0-.457 1.256V141.493a4.748 4.748 0 0 0 1.261 3.233 4.66 4.66 0 0 0 3.113 1.486h2.549l-2.105 44.101a4.515 4.515 0 0 0 1.216 3.324c.416.441.916.793 1.472 1.033a4.4 4.4 0 0 0 1.756.362 4.426 4.426 0 0 0 1.76-.362 4.49 4.49 0 0 0 2.429-2.567 4.547 4.547 0 0 0 .278-1.79l-2.105-44.101h2.596a4.521 4.521 0 0 0 3.153-1.448 4.6 4.6 0 0 0 1.221-3.271v-.283h-.07Z" fill="#FDE82B" stroke="#000" stroke-width="1.323" stroke-miterlimit="10"/><path d="M308.205 262.205a4.723 4.723 0 0 0 4.724-4.725 4.723 4.723 0 0 0-4.724-4.724 4.724 4.724 0 1 0 0 9.449Z" fill="#28FDFF"/></svg>