<svg viewBox="0 0 400 300" fill="none" xmlns="http://www.w3.org/2000/svg"><mask id="a" style="mask-type:alpha" maskUnits="userSpaceOnUse" x="85" y="43" width="230" height="215"><path d="M314.7 43H85v214.1h229.7V43Z" fill="#fff"/></mask><g mask="url(#a)"><path fill-rule="evenodd" clip-rule="evenodd" d="M127.4 43.1h-19.3c-12.5 0-22.6 10.1-22.6 22.6v12.2h41.9V43.1Z" fill="#006EFF"/><path d="M241.7 239.7v16.9H85.5V95.5h24.2" stroke="#071F4D"/><path fill-rule="evenodd" clip-rule="evenodd" d="M96.9 245.7h135.5V105.5H96.9v140.2Z" fill="#C7DEFF"/><path fill-rule="evenodd" clip-rule="evenodd" d="M110.7 164.5h135.5v-36.1H110.7v36.1ZM110.7 188.9h135.5v-9H110.7v9ZM110.7 213h135.5v-9H110.7v9Z" fill="#fff"/><path fill-rule="evenodd" clip-rule="evenodd" d="M287.9 215.4V203H149.4v25.3H275c7.1 0 12.9-5.7 12.9-12.9Z" fill="#006EFF"/><path fill-rule="evenodd" clip-rule="evenodd" d="M127.6 63v144.3c0 11.7 9.5 21.2 21.2 21.2 23.5 0 21.2-25.7 21.2-25.7l83.8-.1V64c0-22.1-20.6-20.4-20.6-20.4h-125c10.7 0 19.4 8.7 19.4 19.4Z" fill="#fff"/><path d="M121.9 77.5H93M253.9 110.8V62.9c0-10.7-8.7-19.4-19.4-19.4H107.7" stroke="#071F4D"/><path fill-rule="evenodd" clip-rule="evenodd" d="M221.3 194.2h32.6v-11.6h-32.6v11.6Z" fill="#C7DEFF"/><path d="M253.9 189.1v9.8M211 228.5h62.9M108.1 43.5c10.7 0 19.4 8.7 19.4 19.4v144.3c0 11.7 9.5 21.2 21.2 21.2" stroke="#071F4D"/><path fill-rule="evenodd" clip-rule="evenodd" d="M221.3 182.8h61.3v-61.3h-61.3v61.3Z" fill="#00E4E5"/><path d="M245.9 182.8h-24.6v-61.3h11.1" stroke="#071F4D"/><path fill-rule="evenodd" clip-rule="evenodd" d="M241 182.8h61.3v-61.3H241v61.3Z" fill="#fff"/><path fill-rule="evenodd" clip-rule="evenodd" d="M257 182.7h45.2v-30.8H257v30.8Z" fill="#C7DEFF"/><path d="M302.2 175.6v7.2H241M241 121.5h61.2v10.3" stroke="#071F4D"/><path fill-rule="evenodd" clip-rule="evenodd" d="M296 139.1c.2 0 .4.2.4.4v25.4c0 .2-.2.4-.4.4h-26.2c-7.2 0-13.1-5.9-13.1-13.1 0-7.2 5.9-13.1 13.1-13.1H296Z" fill="#fff"/><path fill-rule="evenodd" clip-rule="evenodd" d="M256.7 152.2v-2.1c0-.6.4-2.4 1.1-3.1 2.1 4.5 6.7 7.7 12 7.7H296c.2 0 .4-.1.4-.3v10.5c0 .2-.2.4-.4.4h-26.2c-7.2 0-13.1-5.9-13.1-13.1Z" fill="#071F4D"/><path d="M286.1 165.3h-16.3c-7.2 0-13.1-5.9-13.1-13.1m0 0c0-7.2 5.9-13.1 13.1-13.1h6.3" stroke="#071F4D"/><path fill-rule="evenodd" clip-rule="evenodd" d="M284.8 139.1c-4.4 1.6-8.8 7.9-8.8 13.1 0 5.2 2.2 9.8 5.8 13.1H296c.2 0 .4-.2.4-.4v-25.4c0-.3-.2-.4-.4-.4h-11.2Z" fill="#071F4D"/><path fill-rule="evenodd" clip-rule="evenodd" d="M296.9 134.4c-9.83 0-17.8 7.97-17.8 17.8 0 9.83 7.97 17.8 17.8 17.8 9.83 0 17.8-7.97 17.8-17.8 0-9.83-7.97-17.8-17.8-17.8Z" fill="#006EFF"/><path d="M283.9 152.2c0-7.1 5.8-12.9 12.9-12.9" stroke="#fff"/><path fill-rule="evenodd" clip-rule="evenodd" d="M147.1 83h88.4V71.8h-88.4V83Z" fill="#006EFF"/><path fill-rule="evenodd" clip-rule="evenodd" d="M147.1 181.6h57v-57h-57v57Z" fill="#00E4E5"/><path d="M216.5 95.4h-69.1M204.9 109.2h-57.5M192.2 173.2h16.7M192.2 162.9h21.9" stroke="#071F4D"/><path fill-rule="evenodd" clip-rule="evenodd" d="m165.8 146.6-5.5 5.5 13.3 13.3 19.7-19.7-5.6-5.5-14.1 14.1-7.8-7.7Z" fill="#fff"/><path d="M190.7 228.5h8.7" stroke="#071F4D"/></g></svg>