<svg viewBox="0 0 400 300" fill="none" xmlns="http://www.w3.org/2000/svg"><mask id="a" style="mask-type:alpha" maskUnits="userSpaceOnUse" x="50" y="65" width="301" height="170"><path d="M350.3 65H50v169.8h300.3V65Z" fill="#fff"/></mask><g mask="url(#a)"><path fill-rule="evenodd" clip-rule="evenodd" d="M58.3 233.2h32.8v-36.8H58.3v36.8Z" fill="#C7DEFF"/><path d="M91.1 224.5v8.8H58.3M82.4 196.2H58.3" stroke="#071F4D"/><path fill-rule="evenodd" clip-rule="evenodd" d="M305.4 182.5s-2.7 12.6 0 17.4c2.7 4.8 8.3 6.7 12.4 4.4 4.2-2.4 5.3-8.1 2.6-12.9-2.7-4.8-15-8.9-15-8.9ZM336 204.7c4.3 2 9.7-.4 12-5.4 2.3-5-1.5-17.3-1.5-17.3s-11.8 5.1-14.1 10.1c-2.3 5-.7 10.6 3.6 12.6Z" fill="#00E4E5"/><path fill-rule="evenodd" clip-rule="evenodd" d="M326.7 174s-10 11.8-10 18.6c0 6.7 4.5 12.2 10 12.2s10-5.5 10-12.3c0-6.8-10-18.5-10-18.5Z" fill="#00E4E5"/><path d="M332.3 181.5c2.3 3.6 4.4 7.8 4.4 10.9M316.7 192.5c0-3.1 2.1-7.2 4.3-10.8" stroke="#071F4D"/><path fill-rule="evenodd" clip-rule="evenodd" d="M343.1 227.3v-9.7h-34v9.7c0 3.7 3 6.6 6.6 6.6h20.9c3.6 0 6.5-2.9 6.5-6.6Z" fill="#071F4D"/><path fill-rule="evenodd" clip-rule="evenodd" d="M350.4 220.8V198H302v22.8c0 5.9 4.8 10.7 10.7 10.7h26.9c5.9 0 10.7-4.8 10.8-10.7Z" fill="#C7DEFF"/><path fill-rule="evenodd" clip-rule="evenodd" d="M331.7 74.2H117.8L87.4 203h213.8l30.5-128.8Z" fill="#fff"/><path fill-rule="evenodd" clip-rule="evenodd" d="M337 74.2h-6.2l-30.6 129.2h6.2L337 74.2Z" fill="#fff"/><path fill-rule="evenodd" clip-rule="evenodd" d="M303.8 203.5h2.4l30.7-129.3h-1.8l-31.3 129.3Z" fill="#C7DEFF"/><path d="m337 74.2-30.6 129.2h-5.9" stroke="#071F4D"/><path fill-rule="evenodd" clip-rule="evenodd" d="M229.9 202.1h-47.6l2 9.6h47.3l-1.7-9.6Z" fill="#C7DEFF"/><path fill-rule="evenodd" clip-rule="evenodd" d="M94.7 172.6 87.4 203h213.1l7.8-30.4H94.7Z" fill="#006EFF"/><path fill-rule="evenodd" clip-rule="evenodd" d="M94.7 172.6 87.4 203h213.1l7.8-30.4H94.7Z" fill="#006EFF"/><path d="M138.5 74.2h193.2l-23.4 98.6M94.5 172.7l11-46.3M104.8 155.4l-2.3 11.5h6.7M316 112.1l1.1-4.5" stroke="#071F4D"/><path fill-rule="evenodd" clip-rule="evenodd" d="M148.3 138.1h97V119h-97v19.1Z" fill="#00E4E5"/><path d="M303.1 80.6h20.3l-4.6 19.6M228.3 234.3c3.6 0 6.3-3.2 5.7-6.8l-4.1-24.1" stroke="#071F4D"/><path fill-rule="evenodd" clip-rule="evenodd" d="M226.2 229.5h-68.9v1.2c0 2 1.6 3.7 3.7 3.7h60.1c2.8 0 5-2.2 5.1-4.9Z" fill="#C7DEFF"/><path d="M180.699 226.8h-19.9c-2.8 0-4.6 3-3.3 5.5m0 0c.6 1.2 1.9 2 3.3 2h57.8M175.9 203.4l3.6 17.6M241.2 234.3h65.1M104.6 234.3h41.3" stroke="#071F4D"/><path d="M206.2 234.3h14.9c3.1 0 5.5-2.8 5-5.9l-4.3-24.9M160.7 226.8h46M62.2 226.1h-9.5c-1.2 0-2.2-1-2.2-2.2v-18.3c0-1.2 1-2.2 2.2-2.2h9.5" stroke="#071F4D"/><path d="M53.4 171.7H68c2.1 0 3.7 1.7 3.7 3.7v16.1M79.1 192v-21.8c0-2.5 2-4.6 4.6-4.6h2.2c2.5 0 4.5-2 4.5-4.5m0 0c0-2.5-2-4.5-4.5-4.5H56.1c-2.4 0-4.3-1.9-4.3-4.3V148M71.2 165.2h-18M64 181.7v10.1" stroke="#C7DEFF"/><path fill-rule="evenodd" clip-rule="evenodd" d="M85.7 120H124c4.3 0 7.7-3.5 7.7-7.7V65.5H94.2c-4.7 0-8.5 4.9-8.5 11V120Z" fill="#C7DEFF"/><path d="M85.7 110.7V73c0-4.1 3.4-7.5 7.5-7.5h38.5M146.2 73.8v-2.5c0-3.2-2-5.8-5.8-5.8-2.8 0-6 1.1-6 5.8v42.4c0 4.7-3.8 8.5-8.5 8.5h-15.6" stroke="#071F4D"/><path d="M119.7 122.3H87c-6.1 0-11.1-5-11.1-11.1m0 0h39M126.1 122.3c-6.1 0-11.1-5-11.1-11.1" stroke="#071F4D"/><path fill-rule="evenodd" clip-rule="evenodd" d="M85.4 122.1h37.2c-6.5-1.8-8-10.5-8-10.5H76.2c.6 8.8 9.2 10.5 9.2 10.5Z" fill="#071F4D"/><path fill-rule="evenodd" clip-rule="evenodd" d="M95.8 102.9h4.8V83.6h-4.8v19.3ZM106.6 102.9h4.8V77.6h-4.8v25.3ZM117.3 102.9h4.8V89.1h-4.8v13.8Z" fill="#fff"/><path d="M273.2 195.9h16.9M261.2 195.9h5" stroke="#fff"/><path d="M62.4 201.9v2.9M62.4 224.5v2.9" stroke="#071F4D"/><path d="m153.6 138.1 9.7-19.1M168.8 138.1l9.7-19.1M184.1 138.1l9.7-19.1M199.4 138.1l9.7-19.1M214.6 138.1l9.8-19.1M229.9 138.1l9.7-19.1" stroke="#fff"/><path d="M148.3 138.1h121.6V119H148.3v19.1Z" stroke="#071F4D"/></g></svg>