<svg viewBox="0 0 400 300" fill="none" xmlns="http://www.w3.org/2000/svg"><mask id="a" style="mask-type:alpha" maskUnits="userSpaceOnUse" x="68" y="60" width="264" height="181"><path d="M331.7 60H68v181h263.7V60Z" fill="#fff"/></mask><g mask="url(#a)"><path fill-rule="evenodd" clip-rule="evenodd" d="M106.9 227.6h152.4V106.9H106.9v120.7ZM283.8 227.6h22.7V106.9h-22.7v120.7Z" fill="#C7DEFF"/><path fill-rule="evenodd" clip-rule="evenodd" d="M163.1 94.9h12.8V73.8h54.5v21.1h12V60.7h-79.3v34.2Z" fill="#006EFF"/><path fill-rule="evenodd" clip-rule="evenodd" d="M176 94.6h8.2V74.2H176v20.4ZM242.5 94.6h6.6V60.5h-6.6v34.1Z" fill="#C7DEFF"/><path d="M163.3 73.3V60.5h67.4M245.2 60.5h7.5V92M230.2 85.6v-12H176v13.8M187.8 77.2v14.5M235.1 60.5h7.3M273.3 108.8v25.3M107.6 94.7h151.7M92.9 108.8v25.3M92.9 225.3v-84.1M273.3 225.3v-84.1M315.3 108.8v25.3M278.1 94.7h22.7M277.9 239.5h22.9M315.3 225.3v-84.1" stroke="#071F4D"/><path fill-rule="evenodd" clip-rule="evenodd" d="M95.5 140.8h175.6v-6.9H95.5v6.9ZM275.6 140.8h37.7v-6.9h-37.7v6.9Z" fill="#071F4D"/><path fill-rule="evenodd" clip-rule="evenodd" d="M155.1 184h43.5v-64.6h-43.5V184Z" fill="#fff"/><path fill-rule="evenodd" clip-rule="evenodd" d="M165.3 175.5h25.3v-56.6h-25.3v56.6Z" fill="#006EFF"/><path fill-rule="evenodd" clip-rule="evenodd" d="M162 175.5h25.3v-56.6H162v56.6Z" fill="#00E4E5"/><path fill-rule="evenodd" clip-rule="evenodd" d="M180.4 154.7c-.5-2.7-2.9-4.7-5.7-4.7-3.2 0-5.8 2.6-5.8 5.8 0 2.3 1.4 4.3 3.3 5.2.8.4 1.6.6 2.5.6h.6c.7-.1 1.4-.3 2-.6 1.9-1 3.2-2.9 3.2-5.2 0-.3-.1-.7-.1-1.1Z" fill="#071F4D"/><path d="m168.3 145.7 1.2 3.3M168.1 151h-2.3" stroke="#fff"/><path fill-rule="evenodd" clip-rule="evenodd" d="M172.4 159.7h4.9v6.7c0 .2 0 .5-.1.7-.3.9-1.2 1.6-2.2 1.6h-.3c-1.3 0-2.3-1.1-2.3-2.4v-6.6Z" fill="#071F4D"/><path fill-rule="evenodd" clip-rule="evenodd" d="m175.9 159.8.7-2-1.5-2.9h5.3c0 .2.1.6.1.9 0 2.3-1.3 4.2-3.2 5.2v5.3l-.1.9h-2.1v-4.9l.2-.7.6-1.8Z" fill="#fff"/><path d="M190.6 172.4v-12.6M190.6 154v2.2" stroke="#071F4D"/><path fill-rule="evenodd" clip-rule="evenodd" d="M199 184h6.5v-64.6H199V184Z" fill="#C7DEFF"/><path fill-rule="evenodd" clip-rule="evenodd" d="M202.7 184h2.8v-64.6h-2.8V184Z" fill="#fff"/><path fill-rule="evenodd" clip-rule="evenodd" d="M198.6 184h5.8v-3.3h-5.8v3.3Z" fill="#fff"/><path d="M193.4 119.4h5.2V184h-43.5v-64.6h3.9M202.4 119.4h3.1V184h-3.1" stroke="#071F4D"/><path d="M92.9 104v-9.3h9.3M92.9 230.2v9.3h9.3M273.3 104v-9.3h-9.4M273.3 230.2v9.3h-9.4M315.3 104v-9.3H306M315.3 230.2v9.3H306" stroke="#071F4D" stroke-width="3"/><path fill-rule="evenodd" clip-rule="evenodd" d="m150.282 178.522 3.228-1.595-5.846-11.834-3.228 1.594 5.846 11.835Z" fill="#C7DEFF"/><path d="m150.2 178.8 2.9-1.4M157.2 160.2l2.5-1.2 2.8 2.1.7 4.9 2.5 5.1-5.1 2.6-3-.7-1.3 2.8M144.2 166.7l8.4-4.2" stroke="#071F4D"/><path fill-rule="evenodd" clip-rule="evenodd" d="m130.2 169.2 8.9 18.1-8.9-18.1Z" fill="#fff"/><path d="m130.2 169.2 8.9 18.1" stroke="#071F4D"/><path fill-rule="evenodd" clip-rule="evenodd" d="m141.675 182.945 5.02-2.483-5.943-12.01-5.019 2.483 5.942 12.01Z" fill="#071F4D"/><path fill-rule="evenodd" clip-rule="evenodd" d="m144.025 180.701 1.255-.62-5.098-10.309-1.255.621 5.098 10.308Z" fill="#fff"/><path d="M68.5 239.5h18.6M321.8 239.5h9.4M259.3 239.5H107.6" stroke="#071F4D"/></g></svg>