<svg viewBox="0 0 400 300" fill="none" xmlns="http://www.w3.org/2000/svg"><path fill-rule="evenodd" clip-rule="evenodd" d="M231.4 83h2.6v-5.2h-2.6V83Z" fill="#071F4D"/><path d="M231.4 83h2.6v-5.2h-2.6V83Z" stroke="#071F4D"/><path fill-rule="evenodd" clip-rule="evenodd" d="M76.099 106.6c-59.6 84.5 11.7 138.1 57.3 91.7 25.4-25.8 40.4-93 46-111.6 10.5-34.9 35.4-20.3 35.9-7.6 3.6.9 10.6 1 12.9-1.3.5-6.9-.3-32.5-30.6-36.2-48.8-5.9-92 23.2-121.5 65Zm149.404-28.9c0-25.2-15.8-33-34-33.8-46.1-2.1-80.7 29.4-96.8 47.9-11.1 12.7-37.3 47.2-24.3 84.5 10.3 29.3 46.8 33.5 75.2 1.1 22.2-25.4 21.1-62.3 29.2-91.9 7.5-27.3 36.9-34.8 44-7.6l6.7-.2Z" fill="#C7DEFF"/><path d="M109.501 213.697c-40.5 13.8-95.4-32.4-47.2-106 35.5-54 85-78.6 133.7-72.2 30.3 4 35.3 27.2 33.9 39.3" stroke="#071F4D"/><path d="M178.6 89.303c.6-1.8 1.1-3.4 1.5-4.7 9-27.7 28.8-20.5 34.2-9.8" stroke="#071F4D"/><path d="M109.501 196.304c-17.4 4-32.4-4.9-39.1-20.2-13.9-31.9 12.4-70.6 23.5-83.3 16-18.4 51.1-51.2 97.1-49.1 17.6.8 33 7.9 34 31.1" stroke="#071F4D"/><path d="M170.3 89.304c1-4.4 2.1-8.6 3.3-12.4 7.5-23.9 39.6-30.1 46.3-2.1" stroke="#071F4D"/><path d="M210.2 83v-5.2h21V83" fill="#fff"/><path d="M210.2 83v-5.2h21V83" stroke="#071F4D"/><path fill-rule="evenodd" clip-rule="evenodd" d="M346.1 258.8h4.3V144.2h-4.3v114.6Z" fill="#C7DEFF"/><path d="M350.5 137.9V259h-6.2" stroke="#071F4D"/><path d="M178 111.5v147.3h-64V92.5h64" fill="#fff"/><path d="M339.9 188.2v70.6H114V92.5h73.4M256.5 92.5H331" stroke="#071F4D"/><path d="M312 209.8v23.7h-17" stroke="#C7DEFF"/><path fill-rule="evenodd" clip-rule="evenodd" d="M179.804 180.7c-3.7 0-8.5 1.6-11.6 4.8-2.5 2.5-4.9 7.5-10.1 17.9-11 22.3-11.9 24.4-13.3 27.8-.8 2-1.2 8 .7 12 1.1 2.4 5.3 9 15.4 9 9.3 0 22.6-.1 37.3-.1.4-3.7 1.6-15 2-19.9 3.7 0 15.8 1.3 20.6 3.9 2 1.1 1 4.1-1.2 6.3h28.3v-19.8c6.6 4.8 10.7 7.7 13.5 9.5 10.5 6.5 19.5 2.9 21.9 1.4 7.1-4.4 24.5-26 24.5-26l-17.1-15.3-17.5 15.3s-19.7-14.8-32.4-23.8c-3.8-2.7-7.5-3-8.9-3h-52.1Z" fill="#006EFF"/><path d="M322 200v42.3h-91.7M140.3 242.3h-10.5V112h121.6" stroke="#071F4D"/><path fill-rule="evenodd" clip-rule="evenodd" d="M134.3 238.6h3.4V115.3h-3.4v123.3Z" fill="#C7DEFF"/><path d="M137.6 237.9V115.8" stroke="#071F4D"/><path d="M246.6 85.7h4.7v13.1h-4.7" fill="#071F4D"/><path d="M246.6 85.7h4.7v13.1h-4.7M212.1 85.7h-20.8v13.1h49.6M216.9 85.7h29.5v13.1" stroke="#071F4D"/><path fill-rule="evenodd" clip-rule="evenodd" d="M224.7 146.9s-6-3.8-7.8-6.7c-2.6 1-10.5 1.2-10.5 1.2s-9.6-1.2-11-1.2c-1.7 3.7-7.7 6.7-7.7 6.7v13.5c0 3.4 3.8 19.6 18.6 19.6s18.3-16.6 18.3-19.5c0-2.9.1-13.6.1-13.6Z" fill="#C7DEFF"/><path fill-rule="evenodd" clip-rule="evenodd" d="M250.6 134.9c-5.69 0-10.3 4.61-10.3 10.3s4.61 10.3 10.3 10.3 10.3-4.61 10.3-10.3-4.61-10.3-10.3-10.3Z" fill="#071F4D"/><path d="M250.6 134.9c-5.69 0-10.3 4.61-10.3 10.3s4.61 10.3 10.3 10.3 10.3-4.61 10.3-10.3-4.61-10.3-10.3-10.3Z" stroke="#071F4D"/><path fill-rule="evenodd" clip-rule="evenodd" d="M162.2 164.2c-3.15 0-5.7 2.55-5.7 5.7 0 3.15 2.55 5.7 5.7 5.7 3.15 0 5.7-2.55 5.7-5.7 0-3.15-2.55-5.7-5.7-5.7Z" fill="#071F4D"/><path d="M162.2 164.2c-3.15 0-5.7 2.55-5.7 5.7 0 3.15 2.55 5.7 5.7 5.7 3.15 0 5.7-2.55 5.7-5.7 0-3.15-2.55-5.7-5.7-5.7Z" stroke="#071F4D"/><path fill-rule="evenodd" clip-rule="evenodd" d="M225.1 238.5c-.2-1.6-1.9-2.8-4.3-3.4-7.6-2-21.1-3.4-21.1-3.4l-1.6 20.6s2.4-.4 4.6 6c1.2 3.6 2.1 6 3.2 7.1 2 2.2 4.9.2 5.2-1.7 2.8 4.4 6.9 1.2 6.6-1 2.8 2.8 6.6 0 5.7-2.4-2-5.6-4.1-11.5-5.3-15.1-1.8-5.6 7.5-.3 7-6.7Z" fill="#C7DEFF"/><path d="m213.6 251.3 3.7 10.5M221.201 242c-.8.1-4.6 0-2.8 4.1M207.8 253.3l3.7 10.5M187.5 163c-2.2 0-6.2-2-6.2-7.3 0-2.6 1.5-4.3 3.9-4.8M224.5 163c2.2 0 6.2-2 6.2-7.3 0-2.6-1.6-4.3-4-4.8M247.9 227.3v11.9" stroke="#071F4D"/><path fill-rule="evenodd" clip-rule="evenodd" d="M193.7 174.9v12.3c0 12 24.7 12.6 24.7 0v-12l-24.7-.3Z" fill="#C7DEFF"/><path d="M224.5 156v-9c-5.8-2.9-7.7-6.9-7.7-6.9s-4.6 1.3-10.3 1.3h-.7c-5.7 0-10.3-1.3-10.3-1.3s-2.2 4.6-7.7 6.9v9M186.497 134.5c-1.1 2.7-2.8 8.9-.5 17.6" stroke="#071F4D"/><path d="M226.1 151.895c4.8-10.2 2.8-17.4-2.3-17.4 2.1-10.3-6.5-13.5-13.9-12.6-7.3.8-14.2 5.3-20.4 2.3-.2 2.1 2.4 4.8 2.4 4.8s-2.9 1.3-8.7.1c.7 2.7 3.9 4 3.9 4M192.6 173.3c3.2 4.1 7.8 7.1 13.4 7.1 5.8 0 10.5-2.9 13.7-7.2M269.7 205.1l3.4 2.5 2.2-1.8M198.2 231l-23.3-2 8.2-20.1" stroke="#071F4D"/><path fill-rule="evenodd" clip-rule="evenodd" d="M306.5 206.604s13.5-14.2 17.8-18.9c1-1.1.8-2.5 0-3.3-2.6-2.8-5.2-.3-12.2 4.8l-6.8 1.2-1.9 1.6 4.6-4.2c2.9-3.1-2-7.7-6-4-2.1 1.9-10.3 9.4-10.3 9.4l14.8 13.4Z" fill="#C7DEFF"/><path d="m312.1 189.3-6.8 1.2 2.4-2.4" stroke="#071F4D"/><path d="m331.7 177.2 9.1.4v-37c9.1-7.9 14.9-19.6 14.9-32.6 0-21.8-16.2-39.8-37.1-42.7" fill="#fff"/><path d="m331.7 177.2 9.1.4v-37c9.1-7.9 14.9-19.6 14.9-32.6 0-21.8-16.2-39.8-37.1-42.7" stroke="#071F4D"/><path fill-rule="evenodd" clip-rule="evenodd" d="m284.4 179.7 19.8-7.6-19.8 7.6Z" fill="#fff"/><path d="m284.4 179.7 19.8-7.6" stroke="#071F4D"/><path fill-rule="evenodd" clip-rule="evenodd" d="M331.8 133.3h-56.4v44.3l28.3-10.9 28.1 10.9v-44.3Z" fill="#006EFF"/><path fill-rule="evenodd" clip-rule="evenodd" d="M303.6 64.9c-23.8 0-43.1 19.3-43.1 43.1s19.3 43.1 43.1 43.1 43.1-19.3 43.1-43.1-19.3-43.1-43.1-43.1Z" fill="#00E4E5"/><path d="M261.3 99.6c3.9-19.8 21.4-34.8 42.3-34.8" stroke="#071F4D"/><path fill-rule="evenodd" clip-rule="evenodd" d="m289 101.9-7.4 7.4 17.8 17.8 26.4-26.4-7.4-7.4-19 19-10.4-10.4Z" fill="#fff"/><path d="M201.1 131.5s-6.7-.2-9.1-2.5" stroke="#071F4D"/><path d="M192.9 134.8s-1.7.1-5.7-1.7l5.7 1.7Z" fill="#fff"/><path d="M192.9 134.8s-1.7.1-5.7-1.7M170.3 228.6l4.6.4M301.7 214.8c-4.9 5.7-11.8 13.4-16.7 17.4-8.5 7-20.6 2.4-26.9-2.3-2.6-2-23.6-16.6-23.6-16.6M295.4 196.3l12.4 11.2" stroke="#071F4D"/><path fill-rule="evenodd" clip-rule="evenodd" d="m269.4 211.4 3.7-3.8-3.7 3.8Z" fill="#fff"/><path d="m269.4 211.4 3.7-3.8M121.4 120.1V99.5H142" stroke="#071F4D"/></svg>