<svg viewBox="0 0 400 300" fill="none" xmlns="http://www.w3.org/2000/svg"><path d="M107.779 299.501h250.042c2.193-2.587 7.324-10.131 9.118-13.111 4.065-6.83 6.955-15.838 3.681-23.214-3.532-7.948-12.54-10.29-20.344-10.026-7.803.264-15.89 2.155-23.233-.878-17.493-7.233-19.677-36.475-35.548-47.571-11.777-8.221-27.269-3.657-39.263 4.142-11.993 7.799-22.705 18.669-35.817 23.56-4.146 1.555-8.638 2.481-12.881 1.296-8.312-2.323-13.328-11.778-17.042-20.585-6.47-15.357-11.83-31.377-19.912-45.684-8.082-14.306-19.433-27.068-33.744-31.843-20.157-6.719-43.01 4.583-55.192 24.136-12.18 19.552-14.522 45.665-9.372 68.927 5.15 23.262 17.176 43.908 31.435 61.536a192.883 192.883 0 0 0 8.072 9.315Z" fill="#D2E9FE"/><path d="M238.906 109.839a4.425 4.425 0 0 1 2.274 5.591l-6.191.072-.048-4.199 3.965-1.464Z" fill="#FF3F08"/><path d="M233.694 99.329c.312.216 7.199 5.001 6.09 10.102-1.109 5.102-5.399 3.47-8.941 3.513-3.542.043-5.591-5.413-5.591-5.413l5.716-7.68 2.726-.522Z" fill="#AABCFF"/><path d="M222.196 105.592a3.85 3.85 0 1 0-.002-7.7 3.85 3.85 0 0 0 .002 7.7Z" fill="#FF3F08"/><path d="M235.769 110.453s.345 10.698.148 12.517l-8.734-5.841 7.726-8.365M147.643 116.884c.172.384 5.576 12.56 8.758 14.681 3.182 2.122-10.62 10.261-10.62 10.261s-10.602-15.141-12.934-15.669c-2.333-.528 9.454-11.595 9.454-11.595l5.342 2.322Z" fill="#AABCFF"/><path d="M196.231 141.269s-.341 5.001 2.03 7.199c2.371 2.198 4.204-3.1 4.204-3.1l-6.234-4.099Z" fill="#D2E9FE"/><path d="M193.659 259.447c.192-.394 5.428-13.558 4.967-17.484-.46-3.926 15.334 1.512 15.334 1.512s-5.111 17.512-3.955 19.701c1.157 2.188-15.386 1.257-15.386 1.257l-.96-4.986Z" fill="#AABCFF"/><path d="m227.768 166.998-13.635-4.53 10.313-3.484 3.322 8.014Z" fill="#D2E9FE"/><path d="M221.312 105.736a3.981 3.981 0 0 1-3.979-3.936.115.115 0 0 1 .009-.051.128.128 0 0 1 .121-.083c.034 0 .068.013.093.038.025.024.04.057.041.092a3.709 3.709 0 0 0 3.715 3.671h.057a3.638 3.638 0 0 0 1.358-.274.139.139 0 0 1 .173.077.13.13 0 0 1-.003.102.132.132 0 0 1-.074.071 3.925 3.925 0 0 1-1.439.288l-.072.005Z" fill="#FF3F08"/><path d="m262.154 96.646-5.212 8.509 7.473 10.707 4.367-8.365-6.628-10.851Z" fill="#1E294A"/><path d="M257.96 97.49c0 .399-5.735 9.004-5.735 9.004l4.722-1.291 5.217-8.557-4.204.845Z" fill="#1E294A"/><path d="M260.753 120.373s-.418-5.125-1.623-3.839c-1.036 1.094-9.027 14.878-11.273 18.789a1.143 1.143 0 0 1-1.44.48 23.465 23.465 0 0 1-4.29-2.606l-4.565 8.888 7.065 2.88s5.03-5.342 6.124-7.511l.225.072 9.777-17.153Z" fill="#AABCFF"/><path d="M207.851 145.445c-11.576-4.18-22.398 17.872-30.134 18.271-5.28.273-13.947-23.939-18.948-39.412-7.391 5.721-15.631 13.088-20.114 17.181 5.332 11.408 10.866 21.525 17.614 33.327 2.879 5.005 6.517 10.457 12.204 11.436 2.015.277 4.066.134 6.023-.417a42.714 42.714 0 0 0 8.159-3.125c2.668-1.291 5.279-2.706 7.876-4.127l9.723-5.298c6.719-3.662 13.812-7.679 19.638-12.642.039-.009 1.767-10.213-12.041-15.194Z" fill="#1E294A"/><path d="M216.013 162.357a261.956 261.956 0 0 1 10.429 24.362c1.517 4.103 2.942 8.302 3.235 12.665a39.09 39.09 0 0 1-.48 8.264c-2.448 16.735-7.098 26.588-9.805 43.285 0 0-27.725-3.59-27.601-3.936.125-.345 8.26-22.595 15.061-36.316 3.297-6.661 3.748-12.665-3.514-23.166-7.261-10.501-10.203-15.569-10.203-15.569l22.878-9.589Z" fill="#1E294A"/><path d="M237.421 107.868c.166-.6-.501-1.309-1.489-1.582-.989-.274-1.925-.009-2.091.591-.166.601.5 1.309 1.489 1.583.989.273 1.925.008 2.091-.592Z" fill="#2C60FF"/><path d="M193.836 157.443c2.026-.816 5.601-5.15 5.601-5.15.082-.859-2.016-2.649-3.307-3.666-2.879 2.203-5.62 5.082-8.221 7.736 2.059.734 4.751 1.56 5.927 1.08Z" fill="#FF3F08"/><path d="m285.861 137.416-9.301-6.326s-3.359 1.92-3.935 4.512c-.576 2.591-2.256 7.784-4.319 8.451l6.815 4.996s5.197-.24 6.239-1.612c1.041-1.373 1.204-8.231 4.501-10.021Z" fill="#D2E9FE"/><path d="M275.165 149.049c.408-.024 3.297-.201 5.049-.878-.749.225-2.688-1.752-2.688-1.752-.206.701-2.111 2.385-2.361 2.63Z" fill="#FF3F08"/><path d="M274.42 136.182a116.803 116.803 0 0 0 5.558 3.36l.268-.48-.244-.13c-.298-.163-.567.293-.264.48l.24.135c.297.163.566-.293.268-.48a102.245 102.245 0 0 1-5.557-3.36c-.288-.187-.552.274-.269.48v-.005ZM273.849 138.078c1.6 1.046 3.217 2.075 4.852 3.086l.269-.48-.221-.134c-.293-.178-.557.283-.269.48l.221.134c.293.177.557-.278.269-.48a148.657 148.657 0 0 1-4.857-3.062c-.283-.187-.552.269-.264.48v-.024ZM272.794 140.319a63.61 63.61 0 0 0 5.855 3.84l.269-.48-.36-.154c-.312-.134-.586.322-.269.48l.36.154c.307.134.571-.279.269-.48a63.269 63.269 0 0 1-5.855-3.84c-.279-.206-.543.255-.269.456v.024ZM69.232 130.25a80.162 80.162 0 0 0 3.84-2.735l-.236-.307-.153.124c-.197.154.076.423.268.269l.159-.12c.172-.134-.058-.437-.236-.302a63.8 63.8 0 0 1-3.839 2.735c-.206.135 0 .48.192.332l.005.004Z" fill="#fff"/><path d="m262.154 96.646-5.207 8.557-4.722 1.291" stroke="#fff" stroke-width=".178" stroke-miterlimit="10" stroke-linecap="round"/><path d="m252.225 106.494 8.643 12.55 3.547-3.182-7.473-10.707-4.717 1.339Z" fill="#398CFF"/><path d="m256.942 105.16 6.009 8.61" stroke="#fff" stroke-width=".178" stroke-miterlimit="10" stroke-linecap="round"/><path d="M235.738 147.95s8.356 7.794 13.894 1.003c5.539-6.791 13.616-26.972 14.921-28.843 1.305-1.872-3.47-3.36-3.94-2.189-.47 1.171-10.602 20.123-16.438 24.352 0 0-3.359 0-6.123-3.538-2.285-2.937-2.314 9.215-2.314 9.215Z" fill="#AABCFF"/><path d="M226.303 117.95s-2.64 12.243-30.073 23.319c0 0 3.96 9.153 12.815 13.472 8.854 4.319 18.611 10.309 18.717 12.257 0 0 3.81-12.679 3.335-15.592 0 0 1.253 1.439 2.784-.034s5.663-9.421 5.557-10.971l1.128.725s2.102-7.435 1.541-10.213l-6.076-7.967s-6.167-4.972-9.728-4.996Z" fill="#2C60FF"/><path d="M220.89 128.935a5.928 5.928 0 0 0-2.011-.849c-3.095 2.783-7.477 5.917-13.663 9.119a18.856 18.856 0 0 0 2.879 1.953c.359.226.747.403 1.152.528 2.169.585 4.176-1.968 6.388-1.613 1.032.168 2.045.96 3.024.581.667-.259 1.022-.989 1.19-1.685.101-.714.29-1.414.561-2.083.48-.897 1.44-1.463 1.838-2.399.528-1.238-.216-2.769-1.358-3.552ZM227.766 166.998s.96-3.186 1.853-6.719c-.431.24-.926.339-1.416.284a4.326 4.326 0 0 1-2.26-1.92 16.117 16.117 0 0 0-1.119-1.829 2.11 2.11 0 0 0-1.862-.864c-.96.164-1.492 1.215-1.723 2.17a9.943 9.943 0 0 0-.23 3.239c3.921 2.429 6.7 4.603 6.757 5.639ZM214.895 157.659a6.247 6.247 0 0 0-2.443-4.564c-.749-.518-1.67-.859-2.169-1.622-.408-.624-.48-1.44-.864-2.05a2.624 2.624 0 0 0-2.52-1.055 4.508 4.508 0 0 0-2.51 1.315c-.36.381-.745.738-1.152 1.07a24.719 24.719 0 0 0 5.807 3.988c1.944.96 3.936 1.982 5.86 3.033a1.092 1.092 0 0 1-.009-.115Z" fill="#fff"/><path d="M231.323 119.706s1.92 9.119 3.475 8.941c1.555-.177 1.301-5.634 1.301-5.634s1.919 5.03 3.138 4.799c1.219-.23-1.118-5.524-3.258-7.506l-.106 2.434-2.232-1.522-2.318-1.512Z" fill="#D2E9FE"/><path d="M230.671 130.452a66.278 66.278 0 0 0 8.538 9.862c.062.058.158-.033.096-.096a65.665 65.665 0 0 1-8.519-9.833c-.048-.072-.163 0-.115.067ZM222.352 144.624a48.273 48.273 0 0 0 8.697 6.964c.072.048.139-.067.062-.115a48.45 48.45 0 0 1-8.667-6.945c-.058-.057-.154.034-.092.096Z" fill="#fff"/><path d="M236.074 123.037c.648 4.531 1.161 9.21-.144 13.678 0 .082.105.115.129.034 1.31-4.488.792-9.196.144-13.746 0-.086-.139-.052-.129.034Z" fill="#fff"/><path d="M233.296 98.618c-5.956-.638-8.749 3.36-8.749 3.36-1.848.667-2.544 2.4-2.77 4.166-.916 1.223-1.118 4.29 1.69 7.501-.135.053-1.805.129-1.968.182-3.911 1.325-4.094 5.404-4.094 5.404l12.738-.153c4.669-.053 4.578-5.937 1.722-7.761-2.015-1.291-2.025-3.047-1.862-3.964a1.37 1.37 0 0 1 .533-.859c2.03-1.483 2.688-4.319 2.88-6.162 2.14 1.536 3.359 1.483 3.359 1.483-1.065-2.707-3.115-3.13-3.436-3.192l-.043-.005Z" fill="#FF3F08"/><path d="M239.372 140.43a11.5 11.5 0 0 0 2.27 1.348c.716.387 1.518.59 2.332.591.667-.048 1.262-.567 1.771-.96a11.153 11.153 0 0 0 1.92-2.035 49.825 49.825 0 0 0 3.321-5.188l7.285-12.152 2.232-3.724c.043-.072-.072-.139-.115-.067l-5.328 8.888c-1.828 3.052-3.647 6.109-5.5 9.147-1.171 1.92-2.399 3.988-4.271 5.308a3.046 3.046 0 0 1-1.224.634 3.5 3.5 0 0 1-1.651-.269 10.8 10.8 0 0 1-2.942-1.617c-.067-.053-.163.043-.096.096h-.004Z" fill="#fff"/><path d="m277.486 98.076 2.462-4.146.048 4.112 5.462-3.023-3.94 5.462 3.282.945-4.751 1.157" stroke="#1E294A" stroke-width=".178" stroke-miterlimit="10"/><path d="M209.876 164.925s16.413 29.597 13.836 42.315c-2.577 12.718-10.299 40.588-11.24 42.762M149.77 131.657s15.276 43.558 21.755 45.209c6.479 1.651 31.843-15.641 35.826-23.037" stroke="#fff" stroke-width=".178" stroke-miterlimit="10" stroke-linecap="round"/><path d="M286.793 152.164c.13.393 3.892 6.239 3.892 6.239l13.093-4.468-4.512-6.191-12.473 4.42Z" fill="#FF3F08"/><path d="M312.406 165.904c-.177-.086-9.157-8.845-9.157-8.845l-14.513 4.07 8.495 9.906 15.175-5.131Z" fill="#2C60FF"/><path d="M274.536 159.713s2.88-6.46 3.144-8.096c0 0 4.799 1.723 8.893 1.281 3.306-.36 7.563 1.061 7.563 1.061l-3.407 10.621s-4.291-1.239-6.988-1.018c-1.862.149-7.18-1.195-9.205-3.849Z" fill="#D2E9FE"/><path d="M146.02 106.153a2.678 2.678 0 0 0-1.728-2.102l-6.143 5.054.418 1.824s-1.92-.039-2.678.033L114.7 128.374s1.358 2.649 2.4 2.879c1.041.231 27.562-21.803 27.562-21.803l1.358-3.297Z" fill="#fff" stroke="#070627" stroke-width=".211" stroke-miterlimit="10"/><path d="M118.554 133.068c2.51 1.3 12.766-1.44 15.728-2.4a1.055 1.055 0 0 0 .719-1.008c-.028-2.879.812-13.208 14.456-11.379a1.097 1.097 0 0 0 1.128-.59c.224-.446.274-.96.139-1.44-.864-3.091-2.63-8.24-4.703-10.098l-27.836 22.864s-2.462 2.582.369 4.051Z" fill="#1E294A"/><path d="m129.525 131.911.177-3.11a1.152 1.152 0 1 0-2.303-.091l-.317 3.839c.797-.182 1.694-.432 2.443-.638Z" fill="#fff" stroke="#070627" stroke-width=".211" stroke-miterlimit="10"/><path d="M134.767 130.039s1.031 8.365 1.54 4.699c.509-3.667-1.54-4.699-1.54-4.699Z" stroke="#000" stroke-width=".211" stroke-miterlimit="10"/><path d="M134.839 129.982s-5.5 4.521-3.57 4.559c1.689.034 3.57-4.559 3.57-4.559Z" stroke="#000" stroke-width=".211" stroke-miterlimit="10"/><path d="M185.413 267.116a2.745 2.745 0 0 0-.504 2.764l8.159 1.469 1.171-1.55s1.272 1.545 1.838 2.087l28.172 5.059s1.19-2.837.701-3.816c-.49-.979-35.995-7.131-35.995-7.131l-3.542 1.118Z" fill="#fff" stroke="#070627" stroke-width=".216" stroke-miterlimit="10"/><path d="M225.362 270.773c-.657-2.846-9.752-9.119-12.535-10.774a1.113 1.113 0 0 0-1.292.11c-2.265 1.92-11.038 8.183-18.808-3.787a1.153 1.153 0 0 0-1.228-.48 2.118 2.118 0 0 0-1.248.864c-1.834 2.741-4.771 7.569-4.838 10.424l36.954 6.638s3.739.216 2.995-2.995Z" fill="#1E294A"/><path d="m217.051 262.902-2.592 1.92a1.167 1.167 0 0 0-.45.793 1.167 1.167 0 0 0 .248.877 1.206 1.206 0 0 0 1.685.201l3.278-2.318c-.706-.479-1.517-1.022-2.169-1.473Z" fill="#fff" stroke="#070627" stroke-width=".216" stroke-miterlimit="10"/><path d="M212.015 260.022s5.956-6.397 2.698-4.348c-3.259 2.05-2.698 4.348-2.698 4.348Z" stroke="#000" stroke-width=".216" stroke-miterlimit="10"/><path d="M211.919 260.008s7.304 1.31 6.037-.235c-1.113-1.353-6.037.235-6.037.235Z" stroke="#000" stroke-width=".216" stroke-miterlimit="10"/><path d="m261.683 161.762 10.836-4.689a10.37 10.37 0 0 0 2.654 2.606c1.862 1.33 5.759 3.763 6.019 4.469 0 0 .312 2.654 0 3.186l-7.919 3.715s-2.4-3.839-5.62-4.511c-2.064-.456-5.97-4.776-5.97-4.776Z" fill="#398CFF"/><path d="M281.154 167.33c.312-.533 0-3.187 0-3.187a.46.46 0 0 0-.048-.087c-.67.487-1.38.915-2.122 1.282a18.855 18.855 0 0 1 2.17 1.992Z" fill="#AABCFF"/><path d="m304.403 131.538-10.738 7.158a.668.668 0 0 0-.185.925l4.931 7.396a.668.668 0 0 0 .925.185l10.738-7.159a.668.668 0 0 0 .185-.925l-4.931-7.395a.666.666 0 0 0-.925-.185Z" fill="#D2E9FE"/><path d="m305.003 132.371-9.472 6.314 4.534 6.801 9.472-6.315-4.534-6.8Z" fill="#2C60FF"/><path d="M266.247 162.449a83.953 83.953 0 0 1 5.586-2.669c.077-.033 0-.149-.067-.115a97.598 97.598 0 0 0-5.587 2.673c-.072.039 0 .154.068.111ZM267.053 163.548a75.252 75.252 0 0 0 6.316-3.235c.072-.043 0-.158-.067-.115a77.085 77.085 0 0 1-6.316 3.234c-.077.039 0 .149.067.116ZM267.827 164.642c2.239-1.152 4.479-2.297 6.719-3.436.076-.039 0-.154-.068-.116a1378.198 1378.198 0 0 0-6.719 3.442c-.072.038 0 .153.068.11ZM269.126 165.299c2.24-1.183 4.52-2.303 6.839-3.359.077-.034 0-.149-.067-.115a155.174 155.174 0 0 0-6.839 3.359c-.072.039 0 .154.067.115ZM270.322 166.245a45.988 45.988 0 0 0 4.223-2.145c.072-.044 0-.159-.067-.116a51.976 51.976 0 0 1-4.223 2.146c-.077.038 0 .153.067.115Z" fill="#fff"/><path d="M288.292 172.73c.621-1.501.209-3.097-.92-3.564-1.13-.467-2.548.372-3.169 1.874-.621 1.501-.208 3.097.921 3.564 1.129.467 2.548-.372 3.168-1.874Z" fill="#FF3F08"/><path d="M287.277 182.495c.087-.221 5.044-7.52 5.044-7.52s1.92 6.632 1.814 6.81c-.105.177-5.178 7.3-5.178 7.3l-1.68-6.59Z" fill="#1E294A"/><path d="m257.815 153.608-2.213-7.741-9.109-.619 1.857 8.048 9.465.312Z" fill="#D2E9FE"/><path d="M283.607 160.111a2.212 2.212 0 1 0 0-4.423 2.212 2.212 0 0 0 0 4.423Z" stroke="#1E294A" stroke-width=".134" stroke-miterlimit="10"/><path d="m283.645 156.536 1.176 1.44a.212.212 0 0 1 .039.181.214.214 0 0 1-.116.145l-1.675.782a.202.202 0 0 1-.116.02.207.207 0 0 1-.176-.142.206.206 0 0 1-.005-.118l.48-2.207a.217.217 0 0 1 .393-.101Z" fill="#2C60FF"/><path d="m298.272 162.141 3.753-.038a.06.06 0 0 1 .023.005.052.052 0 0 1 .019.014.054.054 0 0 1 .01.02.045.045 0 0 1 .001.023l-.931 3.086a.052.052 0 0 1-.086 0l-2.827-3.009a.053.053 0 0 1-.031-.069.052.052 0 0 1 .028-.03.053.053 0 0 1 .041-.002Z" fill="#fff"/><path d="M123.619 190.102c-.096-.048-4.977-4.799-4.977-4.799l-7.89 2.217 4.617 5.385 8.25-2.803Z" fill="#2C60FF"/><path d="M115.934 188.053h2.044s.034 0 .024.033l-.504 1.68a.047.047 0 0 1-.01.01.032.032 0 0 1-.014.003.035.035 0 0 1-.014-.003.047.047 0 0 1-.01-.01l-1.536-1.656a.028.028 0 0 1-.017-.015.03.03 0 0 1-.002-.023.034.034 0 0 1 .015-.018.033.033 0 0 1 .024-.001Z" fill="#fff"/><path d="m298.205 167.675 3.58 3.979 5.443-1.901-3.629-3.935-5.394 1.857Z" fill="#AABCFF"/><path d="m320.988 171.654-6.858 10.352 12.123 5.485 5.529-11.542-10.794-4.295ZM67.63 112.589l-6.858 10.347 12.118 5.486 5.528-11.542-10.788-4.291Z" fill="#398CFF"/><path d="m311.739 172.321 4.516 4.953 5.438-1.901-4.555-4.91-5.399 1.858Z" fill="#D2E9FE"/><path d="M311.299 154.535s7.832-7.521 8.36-9.57c0 0 10.218.753 10.971.398 0 0-3.58 8.159-11.518 10.885l-8.893-.178 1.08-1.535Z" fill="#398CFF"/><path d="m305.55 146.837 7.698 3.849-.711 8.317-7.784-4.113.797-8.053Z" fill="#D2E9FE"/><path d="M319.13 156.262a16.897 16.897 0 0 0 3.791-1.886 17.943 17.943 0 0 1-2.951-.988c0 .619-.73 2.131-1.114 2.879l.274-.005Z" fill="#fff"/><path d="M283.803 217.434s5.864-5.635 6.239-7.161c0 0 7.65.567 8.216.303 0 0-2.683 6.095-8.639 8.158l-6.661-.134.845-1.166Z" fill="#398CFF"/><path d="M289.667 218.744a12.943 12.943 0 0 0 2.842-1.411 13.576 13.576 0 0 1-2.213-.744c0 .48-.547 1.598-.83 2.15l.201.005Z" fill="#D2E9FE"/><path d="M278.077 114.73s3.053 10.616 2.697 11.763c0 0 9.292-1.018 10.616-1.018 0 0-2.035-10.525-3.45-11.101l-9.863.356Z" fill="#398CFF"/><path d="M263.477 126.046c-.158 0 6.945-5.792 7.343-6.412 0 0 10.707-.887 11.768-1.415 0 0 .797 1.06 1.281 1.147 0 0-4.689 4.602-5.039 5 0 0-9.469 2.079-15.353 1.68Z" fill="#AABCFF"/><path d="M282.588 118.219h-.043a4.36 4.36 0 0 0-.96 1.703 6.006 6.006 0 0 0 2.198-.48l.101-.1c-.499-.063-1.296-1.123-1.296-1.123Z" fill="#FF3F08"/><path d="m245.366 284.403-86.128-15.396a47.164 47.164 0 0 1-16.965-6.575c-5.342-3.36-6.374-3.993-6.561-4.099a1.655 1.655 0 0 1 .15-3.057 1.66 1.66 0 0 1 1.266.062c.177.082.398.183 6.916 4.291a43.87 43.87 0 0 0 15.775 6.119l86.113 15.391a43.818 43.818 0 0 0 16.917-.273c7.535-1.598 7.775-1.613 7.972-1.627a1.654 1.654 0 0 1 .293 3.297c-.216.033-1.397.259-7.578 1.574a47.257 47.257 0 0 1-18.17.293Zm-109.644-26.065h.052-.052Z" fill="#398CFF"/><path d="M164.891 281.926a6.234 6.234 0 1 0 .002-12.468 6.234 6.234 0 0 0-.002 12.468Z" fill="#398CFF"/><path d="M164.891 279.656a3.964 3.964 0 1 0 0-7.929 3.964 3.964 0 0 0 0 7.929Z" fill="#AABCFF"/><path d="M164.892 278.941a3.249 3.249 0 1 0 0-6.498 3.249 3.249 0 0 0 0 6.498Z" fill="#1E294A"/><path d="M241.244 295.575a6.234 6.234 0 1 0 0-12.468 6.234 6.234 0 0 0 0 12.468Z" fill="#398CFF"/><path d="M241.243 293.305a3.964 3.964 0 1 0 0-7.928 3.965 3.965 0 1 0 0 7.928Z" fill="#AABCFF"/><path d="M241.242 292.59a3.248 3.248 0 1 0 0-6.498 3.25 3.25 0 0 0 0 6.498Z" fill="#1E294A"/><path d="M275.271 106.687c1.479-.577 1.948-2.92 1.047-5.234-.902-2.314-2.832-3.723-4.311-3.147-1.48.576-1.948 2.919-1.047 5.234.902 2.314 2.832 3.723 4.311 3.147Z" fill="#398CFF"/><path d="M265.447 110.517c1.479-.576 1.948-2.919 1.046-5.233-.901-2.315-2.831-3.724-4.31-3.147-1.48.576-1.948 2.919-1.047 5.233.901 2.314 2.831 3.723 4.311 3.147Z" fill="#D2E9FE"/><path d="m262.215 102.175 9.776-3.83 3.287 8.365-9.824 3.835-3.239-8.37Z" fill="#D2E9FE"/><path d="M275.271 106.687c1.479-.577 1.948-2.92 1.047-5.234-.902-2.314-2.832-3.723-4.311-3.147-1.48.576-1.948 2.919-1.047 5.234.902 2.314 2.832 3.723 4.311 3.147Z" fill="#1E294A"/><path d="M274.776 105.417c1.03-.402 1.356-2.034.728-3.647-.628-1.613-1.973-2.595-3.002-2.194-1.03.401-1.356 2.034-.728 3.647.628 1.612 1.972 2.595 3.002 2.194Z" fill="#fff"/><path d="M229.821 108.491s1.09-.543 1.757.062" stroke="#1E294A" stroke-width=".12" stroke-miterlimit="10" stroke-linecap="round"/><path d="M230.732 108.409s.605.542.423.96" stroke="#1E294A" stroke-width=".12" stroke-miterlimit="10" stroke-linecap="round"/><path d="M272.327 107.742a.576.576 0 0 0-.398-.259 1.49 1.49 0 0 0-1.032.292c.26-.223.463-.506.59-.825a.717.717 0 0 0-.312-.878.478.478 0 0 0 .312-.48.48.48 0 0 0-.384-.423.929.929 0 0 0-.412.044 15.963 15.963 0 0 0-3.84 1.387 5.398 5.398 0 0 0-2.62 3.033 8.902 8.902 0 0 1 .125-1.718c.017-.155.063-.304.134-.442.183-.244.438-.424.729-.513.947-.41 1.871-.868 2.77-1.373.267-.125.49-.33.638-.586a.521.521 0 0 0-.288-.71l-4.401 1.349c-.268.077-.508.23-.691.441a1.678 1.678 0 0 0-.403.725c-.082.48-.48 4.079-.48 4.079-.082 2.035-2.04 8.399-2.04 8.399.408.326 3.58 1.829 3.58 1.829a37.702 37.702 0 0 0 4.8-8.951c.173-.63.459-1.224.844-1.752.591-.676 1.186-.849 1.829-1.348.648-.61 1.022-.999.95-1.32Z" fill="#AABCFF"/><path d="M270.768 106.273s-1.79.816-2.443 1.061-2.529 3.422-2.529 3.422M267.509 111.327s1.142-2.203 1.55-2.448l1.833-1.099" stroke="#1E294A" stroke-width=".12" stroke-miterlimit="10" stroke-linecap="round"/><path d="m73.379 122.975-6.897 4.362s.298 2.789 1.872 3.926 4.535 3.748 4.377 5.327l5.28-3.1s1.334-3.532.729-4.636c-.605-1.104-5.121-3.168-5.361-5.879Z" fill="#D2E9FE"/><path d="M78.919 129.746a.149.149 0 0 0 0 .048.16.16 0 0 0 0-.048ZM78.04 133.447c.446-1.164.74-2.38.874-3.619-.067.566-1.92 1.291-1.92 1.291.398.346.97 2.107 1.046 2.328Z" fill="#FF3F08"/><path d="M70.336 131.181a175.075 175.075 0 0 0 3.456-2.342l-.197-.336-.149.106c-.202.144 0 .48.192.336l.153-.106c.202-.144 0-.48-.196-.336a152.499 152.499 0 0 1-3.456 2.342c-.201.14 0 .48.197.336ZM71.527 132.53a46.059 46.059 0 0 0 4.238-2.798l-.235-.302-.207.196c-.182.168.092.442.274.274l.207-.197c.153-.149-.053-.436-.236-.302a46.059 46.059 0 0 1-4.237 2.798.193.193 0 0 0 .05.352c.05.013.102.005.146-.021Z" fill="#fff"/><path d="M26.999 213.45c.624.711 3.537-7.021 15.967-8.25 9.944-.959 16.255 13.055 22.83 16.035 6.575 2.98 12.046-4.463 21.923-1.258 7.506 2.438 17.278 15.876 28.897 14.878 7.103-.6 10.779 6.719 16.941 8.946 6.162 2.227 9.224 5.927 9.224 5.927L26.999 213.45ZM73.552 245.721c.408.297 1.027-4.051 7.338-6.124 5.049-1.661 9.944 4.895 13.707 5.682 3.762.787 5.759-3.71 11.235-3.187 4.175.399 10.808 6.24 16.715 4.377 3.619-1.137 6.379 2.246 9.829 2.683a11.97 11.97 0 0 1 5.486 2.011l-64.31-5.442Z" fill="#93B9FF"/></svg>