<svg viewBox="0 0 400 300" fill="none" xmlns="http://www.w3.org/2000/svg"><mask id="a" style="mask-type:alpha" maskUnits="userSpaceOnUse" x="32" y="32" width="337" height="237"><path d="M368.8 32H32v236.8h336.8V32Z" fill="#fff"/></mask><g mask="url(#a)"><path fill-rule="evenodd" clip-rule="evenodd" d="m167.498 95.698 11.7-20.9-4.3-16.2-13.2-7.4c-1.5-.8-3.3-.3-4.1 1.1l-16.1 28.8c-.8 1.5-.3 3.3 1.1 4.1l20.8 11.7c1.4.8 3.2.3 4.1-1.2Z" fill="#EBEBEB"/><path fill-rule="evenodd" clip-rule="evenodd" d="M170.298 66.8c-.8 1.3-.3 3 1.1 3.8l7.8 4.4-4.4-16.3-4.5 8.1Z" fill="#F5F5F5"/><path fill-rule="evenodd" clip-rule="evenodd" d="M170.6 63.9c.2-.4.1-.9-.3-1.1l-10-5.5c-.4-.2-.9-.1-1.1.3-.2.4-.1.9.3 1.1l10 5.5c.1.1.3.1.4.1.3 0 .6-.1.7-.4ZM167.8 68.6c.2-.4.1-.9-.3-1.1l-9.8-5.4c-.4-.2-.9-.1-1.1.3-.2.4-.1.9.3 1.1l9.8 5.4c.1.1.3.1.4.1.3 0 .5-.1.7-.4ZM172.9 77.7c.2-.4.1-.9-.3-1.1l-17.5-9.7c-.4-.2-.9-.1-1.1.3-.2.4-.1.9.3 1.1l17.5 9.7c.1.1.3.1.4.1.3 0 .5-.1.7-.4ZM170.2 82.6c.2-.4.1-.9-.3-1.1l-17.5-9.7c-.4-.2-.9-.1-1.1.3-.2.4-.1.9.3 1.1l17.5 9.7c.1.1.3.1.4.1.3 0 .6-.2.7-.4ZM167.6 87.4c.2-.4.1-.9-.3-1.1l-17.5-9.7c-.4-.2-.9-.1-1.1.3-.2.4-.1.9.3 1.1l17.5 9.7c.1.1.3.1.4.1.2 0 .5-.2.7-.4ZM164.9 92.2c.2-.4.1-.9-.3-1.1l-17.5-9.7c-.4-.2-.9-.1-1.1.3-.2.4-.1.9.3 1.1l17.5 9.7c.1.1.3.1.4.1.3 0 .5-.1.7-.4Z" fill="#fff"/><path fill-rule="evenodd" clip-rule="evenodd" d="M170.798 77.897c-5.8-2.8-10.5-4.9-10.6-4.8-.1.2 4.6 2.5 10.4 5.3 5.8 2.8 10.5 4.9 10.6 4.8 0-.2-4.6-2.5-10.4-5.3Z" fill="#FAFAFA"/><path fill-rule="evenodd" clip-rule="evenodd" d="M359.9 188.1v12.6h-7.8v-12.6h-5.9l9.8-8.9 9.8 8.9h-5.9ZM319.7 90.8l12.1-10.9 12 10.9h-7.3v15.4H327V90.8h-7.3ZM106.409 123.601l7.924-35.424-44.305-9.911-7.925 35.424 44.306 9.911Z" fill="#EBEBEB"/><path fill-rule="evenodd" clip-rule="evenodd" d="m105.328 120.98 6.92-30.936-41.182-9.212-6.92 30.936 41.182 9.212Z" fill="#F5F5F5"/><path fill-rule="evenodd" clip-rule="evenodd" d="m105.4 121-8.8-16.3-7.5 5.1-6.2-14-18.7 16 41.2 9.2ZM93.598 92.298c-1.8-.4-3.6.7-4 2.5-.4 1.8.7 3.6 2.5 4 1.8.4 3.6-.7 4-2.5.4-1.8-.7-3.6-2.5-4Z" fill="#E0E0E0"/><path fill-rule="evenodd" clip-rule="evenodd" d="M109.8 92.2c-5.1 0-9.3 4.2-9.3 9.3v14.4h219.9v-15.7c-.1-4.4-3.7-8-8.1-8H109.8Z" fill="#E0E0E0"/><path fill-rule="evenodd" clip-rule="evenodd" d="M311.1 100.9c-1.49 0-2.7 1.21-2.7 2.7 0 1.49 1.21 2.7 2.7 2.7 1.49 0 2.7-1.21 2.7-2.7 0-1.49-1.21-2.7-2.7-2.7Z" fill="#03D5B7"/><path fill-rule="evenodd" clip-rule="evenodd" d="M303 100.9c-1.49 0-2.7 1.21-2.7 2.7 0 1.49 1.21 2.7 2.7 2.7 1.49 0 2.7-1.21 2.7-2.7 0-1.49-1.21-2.7-2.7-2.7Z" fill="#FFC412"/><path fill-rule="evenodd" clip-rule="evenodd" d="M295 100.9c1.5 0 2.7 1.2 2.7 2.7 0 1.5-1.2 2.7-2.7 2.7-1.5 0-2.7-1.2-2.7-2.7 0-1.5 1.2-2.7 2.7-2.7Z" fill="#fff"/><path fill-rule="evenodd" clip-rule="evenodd" d="M212.7 58.7c0-7-5.7-12.7-12.7-12.7-7 0-12.7 5.6-12.7 12.6S193 71.3 200 71.3c7 0 12.7-5.6 12.7-12.6Zm-22.4 0c0 5.4 4.3 9.7 9.7 9.7 5.4 0 9.7-4.3 9.7-9.7 0-5.4-4.4-9.7-9.7-9.7-5.3 0-9.7 4.3-9.7 9.7Z" fill="#03D5B7"/><path fill-rule="evenodd" clip-rule="evenodd" d="M321.4 253.3V98.8c0-4.2-3.5-7.7-7.7-7.7H107.9c-4.2 0-7.7 3.5-7.7 7.7v154.4c0 4.2 3.5 7.7 7.7 7.7h205.8c4.2 0 7.7-3.4 7.7-7.6ZM102.3 98.8v154.5c0 3.1 2.5 5.6 5.6 5.6h205.8c3.1 0 5.6-2.5 5.6-5.6V98.8c0-3.1-2.5-5.6-5.6-5.6H107.9c-3.1 0-5.6 2.5-5.6 5.6Z" fill="#142D6E"/><path fill-rule="evenodd" clip-rule="evenodd" d="M230.6 69.7c4.2-.2 7.5-3.9 7.2-8.1-.2-2.1-1.1-3.9-2.6-5.3-1.5-1.3-3.5-2-5.5-1.9-2.1.2-3.9 1.1-5.3 2.6-1.3 1.5-2 3.5-1.9 5.5.2 2.1 1.1 3.9 2.6 5.3 1.4 1.2 3.2 1.9 5.1 1.9h.4Zm-.603-13.3c-1.5.1-2.9.8-3.9 1.9-1 1.1-1.5 2.6-1.4 4.1.1 1.5.8 2.9 1.9 3.9 1.1 1 2.6 1.5 4.1 1.4 3.1-.2 5.5-2.9 5.3-6-.1-1.5-.8-2.9-1.9-3.9-1.1-.9-2.4-1.4-3.8-1.4h-.3Z" fill="#FFC412"/><path fill-rule="evenodd" clip-rule="evenodd" d="M320.2 65.598c0 .4.3.8.7.9l33.5 10.4h.3c.3 0 .6-.1.8-.5.2-.3.3-.7.1-1.1l-11.6-21.9c-.1-.2-.3-.4-.6-.5-.3-.1-.6 0-.8.1l-21.9 11.6c-.3.2-.5.6-.5 1Zm32.5 8.602-10-18.9-18.9 10 28.9 8.9Z" fill="#03D5B7"/><path fill-rule="evenodd" clip-rule="evenodd" d="m344.603 175.403 23.7-10.7c.5-.2.7-.8.5-1.3-.2-.5-.8-.7-1.3-.5l-23.7 10.7c-.5.2-.7.8-.5 1.3.2.4.5.6.9.6.1 0 .2 0 .4-.1ZM42.903 141.503l11.3-23.4c.2-.5 0-1.1-.5-1.3-.5-.2-1.1 0-1.3.5l-11.3 23.4c-.2.5 0 1.1.5 1.3.4.2.8.1 1.1-.1.1-.1.2-.2.2-.4Z" fill="#FFC412"/><path fill-rule="evenodd" clip-rule="evenodd" d="m291.27 78.61 6.126-34.663-43.428-7.674-6.125 34.663 43.427 7.674Z" fill="#EBEBEB"/><path fill-rule="evenodd" clip-rule="evenodd" d="m290.054 76.14 5.359-30.33-40.374-7.135-5.36 30.33 40.375 7.135Z" fill="#03D5B7"/><path fill-rule="evenodd" clip-rule="evenodd" d="m290.1 76.2-9.3-15.4-7 5.2-6.6-13.3L249.7 69l40.4 7.2ZM277.4 48.9c-1.7-.3-3.4.8-3.7 2.6-.3 1.7.8 3.4 2.6 3.7 1.7.3 3.4-.8 3.7-2.6.3-1.8-.9-3.5-2.6-3.7Z" fill="#FF725E"/><path fill-rule="evenodd" clip-rule="evenodd" d="m290.1 76.2-9.3-15.4-7 5.2-6.6-13.3L249.7 69l40.4 7.2ZM277.4 48.9c-1.7-.3-3.4.8-3.7 2.6-.3 1.7.8 3.4 2.6 3.7 1.7.3 3.4-.8 3.7-2.6.3-1.8-.9-3.5-2.6-3.7Z" fill="#00BC9C"/><path fill-rule="evenodd" clip-rule="evenodd" d="m331.302 165.598 6.7-22.9-7.8-14.8-14.4-4.2c-1.6-.4-3.2.4-3.7 2l-9.3 31.5c-.5 1.6.4 3.2 2 3.7l22.8 6.7c1.5.4 3.2-.5 3.7-2Z" fill="#03D5B7"/><path fill-rule="evenodd" clip-rule="evenodd" d="M330.9 144.999c.2-.6.4-1.2.6-1.9.1-.3.2-.7.3-1 .1-.4.2-.7.2-1.1 0-.8-.2-1.6-.7-2.2-.2-.3-.5-.6-.9-.8-.4-.1-.8-.3-1.2-.4-3.2-1-6.8-2-10.5-3.1-1-.2-2.1.1-2.8.8-.4.3-.6.7-.8 1.2-.2.4-.3.9-.4 1.3l-1.5 5.1-.3 1.2c0 .4 0 .8.1 1.2.2.8.7 1.5 1.4 1.9.4.2.7.3 1.1.4l1 .3 1.9.6 5.7 1.7 1.6.4.4.1h.2c.09.05.18.07.27.07.09.02.2.03.33.03.27 0 .56-.03.84-.1.26-.05.51-.15.76-.3.4-.2.7-.5.9-.8l.3-.6c.1-.2.1-.5.2-.7l1-3.3Z" fill="#FAFAFA"/><path fill-rule="evenodd" clip-rule="evenodd" d="M326.3 143.301c-.3-.2-.6-.2-.9 0l-.9.7-2 1.4-.9.6-.1.1-.1-.1-1.1-2-.3-.5c-.1-.1-.2-.3-.3-.4-.2-.2-.5-.3-.8-.2-.1.1-.3.1-.4.2l-1.2.6-1.4.8-2 1.1-.6.3c.1-.1.3-.2.5-.3l2-1.2 1.4-.8.8-.5.4-.2c.1-.1.3-.2.5-.2.4-.1.8 0 1.1.2.1.1.2.3.3.5l.3.5c.38.57.67 1.23 1.05 1.9l.75-.5 2-1.4 1-.7c.5-.3 1.2-.2 1.5.3 0 0 .1.1.1.2l.2.5.4.9.7 1.7c.4 1 .7 1.8.9 2.4.1.3.2.5.2.7-.1-.1-.1 0-.1.1 0 0-.1-.1-.1-.2s-.2-.4-.3-.6l-1-2.4c-.2-.5-.4-1.1-.7-1.7-.1-.3-.3-.6-.4-.9l-.2-.5c-.1-.1-.2-.3-.3-.4Zm-13 2.6c-.1 0-.1.1-.2.1 0 0 .1-.1.2-.1ZM322.596 141.302c-.1 0-.3 0-.4-.1-.1 0-.3-.1-.4-.1-.3-.2-.6-.5-.7-.8-.2-.5-.1-1.1.2-1.6.5-.7 1.6-.9 2.3-.4.4.3.7.8.7 1.3 0 .6-.2 1.1-.7 1.4-.3.2-.7.3-1 .3Z" fill="#FAFAFA"/><path fill-rule="evenodd" clip-rule="evenodd" d="M302.801 157c-.5 1.6.5 3.4 2.2 3.9l22.4 6.6c1.6.5 3.4-.5 3.9-2.2l2.4-8.2-28.5-8.4-2.4 8.3Z" fill="#000" opacity=".2"/><path fill-rule="evenodd" clip-rule="evenodd" d="M327.598 136.8c-.4 1.5.4 3 1.9 3.4l8.5 2.5-7.8-14.8-2.6 8.9Z" fill="#03D5B7"/><path fill-rule="evenodd" clip-rule="evenodd" d="M328.904 141.1c.1.1.2.1.3.1 1.1.5 8 4 8.1 3.8l.7-2.4-8.5-2.5c-.1.1-2.2-.6-2.1-2.5 0 0-.7 2.1 1.5 3.5Z" fill="#000" opacity=".2"/><path fill-rule="evenodd" clip-rule="evenodd" d="M314.897 154.797c-1.3-.3-2.6.5-2.9 1.8-.3 1.3.5 2.6 1.8 2.9.7.2 1.4.2 2 0l.5-1.8-.9-.3-.4 1.3c-.3.1-.6.1-.9 0-.2-.1-.3-.1-.5-.2-.8-.4-1.1-1.2-.7-2 .4-.8 1.3-1.1 2-.7.4.1.8.4 1 .8l.8-.4c-.3-.6-.9-1.1-1.6-1.3 0-.1-.1-.1-.2-.1ZM316.6 160.2l1 .3 1.3-4.4-1-.3-1.3 4.4ZM320.8 157.6l2.4.7.2-.8-3.3-1-1.3 4.4 1 .3.5-1.6 2.1.6.2-.8-2.1-.6.3-1.2Z" fill="#FAFAFA"/><path fill-rule="evenodd" clip-rule="evenodd" d="m141.6 152.9.1-17.3-8.4-8.7-10.9-.1c-1.2 0-2.2.9-2.2 2.1l-.1 23.8c0 1.2.9 2.2 2.1 2.2l17.2.1c1.2 0 2.2-1 2.2-2.1Z" fill="#03D5B7"/><path fill-rule="evenodd" clip-rule="evenodd" d="M133.3 133.5c0 1.1.9 2 2 2h6.4l-8.4-8.7v6.7Z" fill="#FF725E"/><path fill-rule="evenodd" clip-rule="evenodd" d="M133.3 133.5c0 1.1.9 2 2 2h6.4l-8.4-8.7v6.7Z" fill="#00BC9C"/><path fill-rule="evenodd" clip-rule="evenodd" d="M131.9 131c.3 0 .6.3.6.6s-.3.6-.6.6h-8.2c-.3 0-.6-.3-.6-.6s.3-.6.6-.6h8.2ZM132.3 135.6c0-.3-.3-.6-.6-.6h-8.1c-.3 0-.6.3-.6.6s.3.6.6.6h8.1c.3 0 .6-.3.6-.6ZM138.7 139.5c0 .3-.3.6-.6.6h-14.4c-.3 0-.6-.3-.6-.6s.3-.6.6-.6h14.4c.3 0 .6.3.6.6ZM138.7 143.5c0 .3-.3.6-.6.6h-14.4c-.3 0-.6-.3-.6-.6s.3-.6.6-.6h14.4c.3 0 .6.3.6.6ZM138.7 147.5c0 .3-.3.6-.6.6h-14.4c-.3 0-.6-.3-.6-.6s.3-.6.6-.6h14.4c.3 0 .6.3.6.6ZM138.7 151.5c0 .3-.3.6-.6.6h-14.4c-.3 0-.6-.3-.6-.6s.3-.6.6-.6h14.4c.3 0 .6.3.6.6Z" fill="#fff"/><path fill-rule="evenodd" clip-rule="evenodd" d="M281.499 149c0-1.4-1.2-2.6-2.6-2.6h-127.4c-1.4 0-2.6 1.2-2.6 2.6 0 1.4 1.2 2.6 2.6 2.6h127.4c1.4 0 2.5-1.1 2.6-2.6Z" fill="#E0E0E0"/><path fill-rule="evenodd" clip-rule="evenodd" d="M281.299 149c0-1.4-1.2-2.6-2.6-2.6h-127.2c-1.4 0-2.6 1.2-2.6 2.6 0 1.4 1.2 2.6 2.6 2.6h127.3c1.4 0 2.5-1.1 2.5-2.6Z" fill="#03D5B7"/><path fill-rule="evenodd" clip-rule="evenodd" d="m152 140 .2-.3c-.2-.2-.6-.4-1-.4-.9 0-1.6.7-1.6 1.9s.6 1.9 1.6 1.8c.5 0 .8-.2 1.1-.5l-.2-.3c-.3.3-.5.4-.9.4-.8 0-1.2-.6-1.2-1.5s.5-1.5 1.2-1.5c.4 0 .6.2.8.4ZM153.9 143.1c.6 0 1.2-.5 1.2-1.4 0-.9-.6-1.4-1.2-1.4s-1.2.5-1.2 1.4c0 .9.6 1.4 1.2 1.4Zm.1-2.5c-.5 0-.8.4-.8 1.1 0 .6.3 1.1.8 1.1s.8-.5.8-1.1c0-.6-.3-1.1-.8-1.1ZM158.5 140.5c-.2 0-.5.1-.7.4v2h-.4v-1.7c0-.5-.2-.8-.5-.8-.2 0-.5.1-.7.4v2h-.4v-2.5h.4v.4c.2-.3.5-.5.8-.5.4 0 .6.2.7.5.3-.3.6-.5.9-.5.6 0 .8.4.8 1.1v1.7h-.4v-1.7c0-.5-.2-.8-.5-.8ZM160.399 144.2h.4v-1.4c.3.2.5.3.8.3.6 0 1.2-.6 1.2-1.5s-.4-1.4-1.1-1.4c-.3 0-.6.2-.9.4v-.3h-.4v3.9Zm1.2-3.6c-.2 0-.5.1-.8.4v1.5c.3.2.5.3.7.3.6-.1.9-.5.9-1.2 0-.6-.2-1-.8-1ZM164.1 143h.2l-.1-.3h-.1s-.1-.1-.1-.2V139h-.4v3.5c0 .4.1.6.5.5ZM166.2 142.8c-.5 0-.9-.4-.9-1h1.8v-.2c0-.8-.4-1.3-1.1-1.3-.6 0-1.2.5-1.2 1.4 0 .8.6 1.4 1.4 1.5.4 0 .7-.2.9-.3l-.2-.3c-.2.1-.4.2-.7.2Zm-.2-2.2c-.4 0-.8.3-.8.9h1.5c0-.6-.3-.9-.7-.9ZM168.099 140.6h.7v-.3h-.7v-.8h-.3v.8h-.4v.3h.4v1.6c0 .5.1.9.6.8.2 0 .3-.1.5-.1l-.1-.3c-.1.1-.2.1-.3.1-.3 0-.4-.2-.4-.5v-1.6ZM170.6 143.2c.4 0 .7-.2.9-.3l-.2-.3c-.2.1-.4.2-.7.2-.5 0-.9-.4-.9-1h1.8v-.2c0-.8-.4-1.3-1.1-1.3-.6 0-1.2.5-1.2 1.4 0 .8.6 1.4 1.4 1.5Zm-.1-2.6c-.4 0-.8.3-.8.9h1.5c0-.6-.3-.9-.7-.9ZM271.399 139.6c-.3 0-.6.2-.8.4l-.2-.3c.3-.2.6-.4 1-.4.6 0 1 .3 1 .9 0 .5-.3.8-.7.9.4.1.8.4.8.9 0 .7-.5 1-1.2 1-.4.1-.8-.2-1-.4l.2-.3c.2.2.5.4.9.4s.8-.3.8-.7c0-.5-.3-.8-1.2-.8v-.3c.8 0 1-.3 1-.7 0-.4-.2-.6-.6-.6ZM277.5 139.3v3.7h-.4v-2.1c0-.3 0-.7.1-1.1l-.3.8-.7 2h-.3l-.7-2-.3-.8v3.2h-.4v-3.7h.5l.7 2c.1.3.2.5.3.8.1-.3.2-.5.3-.8l.7-2h.5ZM278.7 139.3v3.7h1.1c.8 0 1.4-.4 1.4-1.1 0-.5-.4-.8-.8-.9.3-.1.5-.4.5-.8 0-.6-.6-.9-1.3-.9h-1.1.2Zm1.7 1c0-.5-.3-.6-.9-.6h-.6v1.2h.6c.7 0 .9-.2.9-.6Zm.2 1.6c0-.5-.4-.7-1-.7h-.7v1.4h.7v.1c.7 0 1-.2 1-.8Z" fill="#E0E0E0"/><path fill-rule="evenodd" clip-rule="evenodd" d="M150 135.1h.9v-2.2h1.9v-.7h-1.9v-1.6h2.2v-.7H150v5.2ZM154.2 130.5c.3 0 .5-.2.5-.5s-.2-.5-.5-.5-.5.2-.5.5c0 .2.2.5.5.5ZM153.9 135.1h.8v-3.9h-.8v3.9ZM156.699 135.1c.2 0 .3-.1.4-.1l-.1-.6h-.1c-.1 0-.2-.1-.2-.3v-4.7h-.8v4.7c0 .6.2 1 .8 1ZM160.7 134.2l.3.5c-.4.2-.8.4-1.3.4-1.09 0-1.84-.57-.5-.76-.33-.2-.53-.57-.6-1.04h2.5v-.4c0-1.1-.6-1.8-1.6-1.8-.9 0-1.8.7-1.8 2 0 .12.01.24 1.5 1.24.17.1.37.16.6.16.3 0 .6-.1.9-.3Zm-1.5.14c-1.34.19-.59.76.5.76.5 0 .9-.2 1.3-.4l-.3-.5c-.3.2-.6.3-.9.3-.23 0-.43-.06-.6-.16Zm.2-2.64c-.5 0-.9.4-1 1h1.9c0-.7-.3-1-.9-1ZM162 131.2h.6l.1.5c.4-.3.8-.6 1.3-.6.8 0 1.2.5 1.2 1.5v2.4h-.8v-2.3c0-.7-.2-.9-.7-.9-.4 0-.6.2-.9.5v2.7h-.8v-3.8ZM167.2 135.2c.4 0 .9-.2 1.2-.5l.1.4h.7v-2.3c0-1-.4-1.6-1.4-1.6-.7 0-1.2.2-1.6.5l.3.5c.3-.2.7-.4 1.1-.4.5 0 .7.4.7.8-1.6.1-2.3.6-2.3 1.4 0 .7.5 1.1 1.2 1.2Zm1.1-2.1c-1.1.1-1.5.4-1.5.9 0 .4.3.5.6.5.4 0 .6-.2.9-.5v-.9ZM173.4 131.8c.4-.4.8-.7 1.3-.7.8 0 1.2.5 1.2 1.5v2.4h-.8v-2.3c0-.7-.2-.9-.6-.9-.3 0-.5.2-.9.5v2.7h-.8v-2.3c0-.7-.2-.9-.6-.9-.3 0-.5.2-.9.5v2.7h-.8v-3.8h.5l.1.5c.3-.4.7-.6 1.2-.6.6 0 .9.3 1.1.7ZM180 133.3v-.4c0-1.1-.6-1.8-1.6-1.8-.9 0-1.8.7-1.8 2s.8 2 2 2c.5 0 .9-.2 1.3-.4l-.3-.5c-.3.2-.6.3-.9.3-.7 0-1.1-.5-1.2-1.2h2.5Zm-1.7-1.6c-.5 0-.9.4-1 1h1.9c0-.7-.3-1-.9-1ZM181.2 135.1c.3 0 .5-.3.5-.6 0-.4-.2-.6-.5-.6s-.5.3-.5.6c0 .4.3.6.5.6ZM185.4 135.1h.7v-5.6h-.8v2c-.3-.2-.6-.4-1-.4-.9 0-1.7.7-1.7 2s.6 2 1.6 2.1c.4 0 .8-.2 1.1-.5l.1.4Zm-.2-3c-.3-.3-.6-.3-.8-.3-.5 0-1 .5-1 1.3 0 .9.3 1.4.9 1.4.4-.1.7-.2.9-.5v-1.9ZM188.8 135.1c.9 0 1.8-.7 1.8-2s-.8-2-1.8-2c-.9 0-1.8.7-1.8 2s.8 2 1.8 2Zm0-3.4c-.6 0-1 .5-1 1.4 0 .8.4 1.4 1 1.4.6-.1 1-.6 1-1.4 0-.8-.4-1.4-1-1.4ZM193.099 135.1c.4 0 .8-.2 1.2-.5l-.3-.5c-.2.2-.5.4-.8.4-.7 0-1.1-.6-1.1-1.4 0-.9.5-1.4 1.1-1.4.3 0 .5.1.7.3l.4-.5c-.3-.2-.6-.4-1.1-.4-1 0-1.9.7-1.9 2s.8 2 1.8 2ZM289.5 151.6c.2-.1.2-.4 0-.6l-4.2-4.2c-.1-.2-.4-.2-.6 0-.2.1-.2.4 0 .6l4.2 4.2c.1.1.2.1.3.1.2 0 .3 0 .3-.1Z" fill="#142D6E"/><path fill-rule="evenodd" clip-rule="evenodd" d="m285.4 151.6 4.2-4.2c.2-.1.2-.4 0-.6-.1-.2-.4-.2-.6 0l-4.2 4.2c-.2.1-.2.4 0 .6.1.1.2.1.3.1.1 0 .2 0 .3-.1Z" fill="#142D6E"/><path fill-rule="evenodd" clip-rule="evenodd" d="m141.6 195.3.1-17.3-8.4-8.7-10.9-.1c-1.2 0-2.2.9-2.2 2.1l-.1 23.8c0 1.2.9 2.2 2.1 2.2l17.2.1c1.2 0 2.2-1 2.2-2.1Z" fill="#03D5B7"/><path fill-rule="evenodd" clip-rule="evenodd" d="M133.3 176c0 1.1.9 2 2 2h6.4l-8.4-8.7v6.7Z" fill="#FF725E"/><path fill-rule="evenodd" clip-rule="evenodd" d="M133.3 176c0 1.1.9 2 2 2h6.4l-8.4-8.7v6.7Z" fill="#00BC9C"/><path fill-rule="evenodd" clip-rule="evenodd" d="M131.9 173.4c.3 0 .6.3.6.6s-.3.6-.6.6h-8.2c-.3 0-.6-.3-.6-.6s.3-.6.6-.6h8.2ZM132.3 178c0-.3-.3-.6-.6-.6h-8.1c-.3 0-.6.3-.6.6s.3.6.6.6h8.1c.3 0 .6-.3.6-.6ZM138.7 182c0 .3-.3.6-.6.6h-14.4c-.3 0-.6-.3-.6-.6s.3-.6.6-.6h14.4c.3 0 .6.3.6.6ZM138.7 185.9c0 .3-.3.6-.6.6h-14.4c-.3 0-.6-.3-.6-.6s.3-.6.6-.6h14.4c.3 0 .6.3.6.6ZM138.7 189.9c0 .3-.3.6-.6.6h-14.4c-.3 0-.6-.3-.6-.6s.3-.6.6-.6h14.4c.3 0 .6.3.6.6ZM138.7 193.9c0 .3-.3.6-.6.6h-14.4c-.3 0-.6-.3-.6-.6s.3-.6.6-.6h14.4c.3 0 .6.3.6.6Z" fill="#fff"/><path fill-rule="evenodd" clip-rule="evenodd" d="M281.499 191.5c0-1.4-1.2-2.6-2.6-2.6h-127.4c-1.4 0-2.6 1.2-2.6 2.6 0 1.4 1.2 2.6 2.6 2.6h127.4c1.4 0 2.5-1.2 2.6-2.6Z" fill="#E0E0E0"/><path fill-rule="evenodd" clip-rule="evenodd" d="M232.999 191.5c0-1.4-1.2-2.6-2.6-2.6h-78.9c-1.4 0-2.6 1.2-2.6 2.6 0 1.4 1.2 2.6 2.6 2.6h78.9c1.4 0 2.5-1.2 2.6-2.6Z" fill="#03D5B7"/><path fill-rule="evenodd" clip-rule="evenodd" d="M149.799 185.5h2v-.4h-1.6v-3.3h-.4v3.7ZM153.399 185.5c.6 0 1.2-.5 1.2-1.4 0-.9-.6-1.4-1.2-1.4s-1.2.5-1.2 1.4c0 .9.6 1.4 1.2 1.4Zm0-2.5c-.5 0-.8.4-.8 1.1 0 .6.3 1.1.8 1.1s.8-.5.8-1.1c0-.6-.3-1.1-.8-1.1ZM157.199 183.701c0-.7-.2-1.1-.9-1.1-.5 0-.9.2-1.1.4l.2.3c.2-.1.5-.3.8-.3.5 0 .6.3.6.7-1.2.1-1.7.4-1.7 1 0 .5.4.8.9.8.3 0 .6-.2.9-.4v.3h.3v-1.7Zm-.4.3c-1 .1-1.3.3-1.3.7 0 .3.2.5.5.5s.5-.2.8-.4v-.8ZM160.299 181.4h-.4v1.6c-.3-.2-.5-.3-.8-.3-.6 0-1.2.5-1.2 1.4 0 .9.4 1.4 1.3 1.4.3 0 .6-.2.8-.4v.3h.3v-4Zm-.5 1.9c-.2-.2-.5-.3-.7-.3-.5 0-.8.4-.8 1.1 0 .7.3 1.1.8 1.1.3-.1.5-.2.7-.4v-1.5ZM161.399 182.201c.2 0 .3-.1.3-.3 0-.2-.1-.3-.3-.3-.2 0-.3.1-.3.3 0 .1.1.2.3.3ZM161.199 185.401h.4v-2.7h-.4v2.7ZM162.399 185.301v-2.6h.4v.4c.3-.3.5-.5.9-.5.6 0 .8.4.8 1.1v1.7h-.4v-1.7c0-.5-.2-.8-.5-.8s-.5.1-.8.4v2h-.4ZM166.299 185.1c-.4 0-.5-.1-.5-.3 0-.1.1-.2.2-.3.1.1.3.1.4.1.6 0 1-.3 1-.9 0-.3-.1-.5-.2-.6h.6v-.3h-.9c-.1-.1-.2-.1-.4-.1-.5 0-1 .4-1 1 0 .3.1.6.3.7-.1.1-.3.3-.3.5s.1.3.2.4c-.2.1-.4.4-.4.6 0 .5.5.8 1.1.7.8 0 1.3-.4 1.3-.9 0-.4-.3-.6-.9-.6h-.5Zm.5.3h-.8c-.2.1-.3.3-.3.5 0 .3.3.5.8.5s.9-.3.9-.6-.2-.4-.6-.4Zm-.4-2.5c-.3 0-.6.2-.6.7 0 .4.3.7.6.7.4 0 .6-.3.6-.7 0-.4-.3-.7-.6-.7ZM168.699 185.5c.2 0 .3-.1.3-.3 0-.2-.1-.3-.3-.3-.2 0-.3.1-.3.3 0 .2.1.3.3.3ZM170.599 185.5c.2 0 .3-.1.3-.3 0-.2-.1-.3-.3-.3-.2 0-.3.1-.3.3 0 .2.1.3.3.3ZM172.4 185.5c.2 0 .3-.1.3-.3 0-.2-.1-.3-.3-.3-.2 0-.3.1-.3.3 0 .2.2.3.3.3ZM270.7 184.4c0-.8-.4-1.2-1-1.2-.3 0-.6.1-.8.4 0-1.2.5-1.6 1-1.6.2 0 .4.1.6.3l.1-.1c-.2-.2-.4-.4-.8-.4-.7 0-1.3.6-1.3 2 0 1.2.5 1.8 1.2 1.8.5 0 1-.5 1-1.2Zm-1-.9c-.2 0-.5.1-.8.5 0 .8.3 1.2.8 1.2.4 0 .7-.4.7-.9s-.2-.8-.7-.8ZM272.3 185.5c.7 0 1.1-.6 1.1-1.9 0-1.3-.4-1.9-1.1-1.9-.7 0-1.1.6-1.1 1.9 0 1.3.5 1.9 1.1 1.9Zm.1-3.5c-.4 0-.7.5-.7 1.6s.3 1.6.7 1.6c.4 0 .7-.5.7-1.6s-.3-1.6-.7-1.6ZM277.3 181.8h.5l-1.2 1.4 1.3 2.3h-.5l-1.1-2-.7.8v1.2h-.4v-3.7h.5v1.9l1.6-1.9ZM280.4 183.5c.3-.1.5-.4.5-.8 0-.6-.6-.9-1.3-.9h-1.1.2v3.7h1.1c.8 0 1.4-.4 1.4-1.1 0-.5-.3-.8-.8-.9Zm0-.8c0-.5-.3-.6-.9-.6h-.6v1.2h.6c.7 0 .9-.2.9-.6Zm.2 1.6c0-.5-.4-.7-1-.7h-.7v1.4h.7v.1c.7 0 1-.2 1-.8Z" fill="#E0E0E0"/><path fill-rule="evenodd" clip-rule="evenodd" d="M152.8 174.6h-1.9V173h2.2v-.7H150v5.2h.9v-2.2h1.9v-.7ZM154.2 172.9c.3 0 .5-.2.5-.5s-.2-.5-.5-.5-.5.2-.5.5.2.5.5.5ZM153.9 177.501h.8v-3.9h-.8v3.9ZM156.699 177.5c.2 0 .3-.1.4-.1l-.1-.6h-.1c-.1 0-.2-.1-.2-.3v-4.7h-.8v4.7c0 .6.2 1 .8 1ZM161.1 175.7v-.4c0-1.1-.6-1.8-1.6-1.8-.9 0-1.8.7-1.8 2 0 .13.01.25 1.5 1.24.17.1.37.16.6.16.3 0 .6-.1.9-.3l.3.5c-.4.2-.8.4-1.3.4-1.08 0-1.84-.57-.5-.76-.33-.2-.53-.57-.6-1.04h2.5Zm-1.4 1.8c.5 0 .9-.2 1.3-.4l-.3-.5c-.3.2-.6.3-.9.3-.23 0-.43-.06-.6-.16-1.34.19-.58.76.5.76Zm-.3-3.3c-.5 0-.9.4-1 1h1.9c0-.7-.3-1-.9-1ZM163.7 174.2c-.4 0-.6.2-.9.5v2.7h-.8v-3.8h.6l.1.5c.4-.3.8-.6 1.3-.6.8 0 1.2.5 1.2 1.5v2.4h-.8v-2.3c0-.7-.2-.9-.7-.9ZM169.2 177.5v-2.3c0-1-.4-1.6-1.4-1.6-.7 0-1.2.2-1.6.5l.3.5c.3-.2.7-.4 1.1-.4.5 0 .7.4.7.8-1.6.1-2.3.6-2.3 1.4 0 .7.5 1.1 1.2 1.2.4 0 .9-.2 1.2-.5l.1.4h.7Zm-.9-2c-1.1.1-1.5.4-1.5.9 0 .4.3.5.6.5.4 0 .6-.2.9-.5v-.9ZM171.3 174.7v2.7h-.8v-3.8h.5l.1.5c.3-.4.7-.6 1.2-.6.6 0 .9.3 1.1.7.4-.4.8-.7 1.3-.7.8 0 1.2.5 1.2 1.5v2.4h-.8v-2.3c0-.7-.2-.9-.6-.9-.3 0-.5.2-.9.5v2.7h-.8v-2.3c0-.7-.2-.9-.6-.9-.3 0-.5.2-.9.5ZM180 175.7v-.4c0-1.1-.6-1.8-1.6-1.8-.9 0-1.8.7-1.8 2s.8 2 2 2c.5 0 .9-.2 1.3-.4l-.3-.5c-.3.2-.6.3-.9.3-.7 0-1.1-.5-1.2-1.2h2.5Zm-1.7-1.5c-.5 0-.9.4-1 1h1.9c0-.7-.3-1-.9-1ZM181.2 177.6c.3 0 .5-.3.5-.6 0-.4-.2-.6-.5-.6s-.5.3-.5.6.3.5.5.6ZM185.3 173.3v.6c-.3-.2-.6-.4-1-.4-.9 0-1.7.7-1.7 2s.6 2 1.6 2.1c.4 0 .8-.2 1.1-.5l.1.4h.7v-5.6h-.8v1.4Zm-.1 1.2c-.3-.3-.6-.3-.8-.3-.5 0-1 .5-1 1.3 0 .9.3 1.4.9 1.4.4-.1.7-.2.9-.5v-1.9ZM188.8 177.5c.9 0 1.8-.7 1.8-2s-.8-2-1.8-2c-.9 0-1.8.7-1.8 2s.8 2 1.8 2Zm0-3.4c-.6 0-1 .5-1 1.4 0 .8.4 1.4 1 1.4s1-.6 1-1.4c0-.8-.4-1.4-1-1.4ZM193.999 176.5c-.2.2-.5.4-.8.4-.7 0-1.1-.6-1.1-1.4 0-.9.5-1.4 1.1-1.4.3 0 .5.1.7.3l.4-.5c-.3-.2-.6-.4-1.1-.4-1 0-1.9.7-1.9 2s.8 2 1.8 2c.4 0 .8-.2 1.2-.5l-.3-.5ZM289.5 194c.2-.1.2-.4 0-.6l-4.2-4.2c-.1-.2-.4-.2-.6 0-.2.1-.2.4 0 .6l4.2 4.2c.1.1.2.1.3.1.2 0 .3 0 .3-.1Z" fill="#142D6E"/><path fill-rule="evenodd" clip-rule="evenodd" d="m285.4 194 4.2-4.2c.2-.1.2-.4 0-.6-.1-.2-.4-.2-.6 0l-4.2 4.2c-.2.1-.2.4 0 .6.1.1.2.1.3.1.1 0 .2 0 .3-.1Z" fill="#142D6E"/><path fill-rule="evenodd" clip-rule="evenodd" d="m141.6 237.7.1-17.3-8.4-8.7-10.9-.1c-1.2 0-2.2.9-2.2 2.1l-.1 23.8c0 1.2.9 2.2 2.1 2.2l17.2.1c1.2 0 2.2-.9 2.2-2.1Z" fill="#03D5B7"/><path fill-rule="evenodd" clip-rule="evenodd" d="M133.3 218.4c0 1.1.9 2 2 2h6.4l-8.4-8.7v6.7Z" fill="#FF725E"/><path fill-rule="evenodd" clip-rule="evenodd" d="M133.3 218.4c0 1.1.9 2 2 2h6.4l-8.4-8.7v6.7Z" fill="#00BC9C"/><path fill-rule="evenodd" clip-rule="evenodd" d="M131.9 215.8c.3 0 .6.3.6.6s-.3.6-.6.6h-8.2c-.3 0-.6-.3-.6-.6s.3-.6.6-.6h8.2ZM132.3 220.4c0-.3-.3-.6-.6-.6h-8.1c-.3 0-.6.3-.6.6s.3.6.6.6h8.1c.3 0 .6-.3.6-.6ZM138.7 224.4c0 .3-.3.6-.6.6h-14.4c-.3 0-.6-.3-.6-.6s.3-.6.6-.6h14.4c.3 0 .6.3.6.6ZM138.7 228.3c0 .3-.3.6-.6.6h-14.4c-.3 0-.6-.3-.6-.6s.3-.6.6-.6h14.4c.3 0 .6.3.6.6ZM138.7 232.3c0 .3-.3.6-.6.6h-14.4c-.3 0-.6-.3-.6-.6s.3-.6.6-.6h14.4c.3 0 .6.3.6.6ZM138.7 236.3c0 .3-.3.6-.6.6h-14.4c-.3 0-.6-.3-.6-.6s.3-.6.6-.6h14.4c.3 0 .6.3.6.6Z" fill="#fff"/><path fill-rule="evenodd" clip-rule="evenodd" d="M281.499 233.9c0-1.4-1.2-2.6-2.6-2.6h-127.4c-1.4 0-2.6 1.2-2.6 2.6 0 1.4 1.2 2.6 2.6 2.6h127.4c1.4 0 2.5-1.2 2.6-2.6Z" fill="#E0E0E0"/><path fill-rule="evenodd" clip-rule="evenodd" d="M255.499 233.9c0-1.4-1.2-2.6-2.6-2.6h-101.4c-1.4 0-2.6 1.2-2.6 2.6 0 1.4 1.2 2.6 2.6 2.6h101.4c1.4 0 2.5-1.2 2.6-2.6Z" fill="#03D5B7"/><path fill-rule="evenodd" clip-rule="evenodd" d="M149.799 227.9h2v-.4h-1.6v-3.3h-.4v3.7ZM153.399 227.9c.6 0 1.2-.5 1.2-1.4 0-.9-.6-1.4-1.2-1.4s-1.2.5-1.2 1.4c0 .9.6 1.4 1.2 1.4Zm0-2.5c-.5 0-.8.4-.8 1.1 0 .6.3 1.1.8 1.1s.8-.5.8-1.1c0-.6-.3-1.1-.8-1.1ZM156.799 226.1c-1.2.1-1.7.4-1.7 1 0 .5.4.8.9.8.3 0 .6-.2.9-.4v.3h.3v-1.7c0-.7-.2-1.1-.9-1.1-.5 0-.9.2-1.1.4l.2.3c.2-.1.5-.3.8-.3.5 0 .6.3.6.7Zm0 .3c-1 .1-1.3.3-1.3.7 0 .3.2.5.5.5s.5-.2.8-.4v-.8ZM159.899 224.9v.5c-.3-.2-.5-.3-.8-.3-.6 0-1.2.5-1.2 1.4 0 .9.4 1.4 1.3 1.4.3 0 .6-.2.8-.4v.3h.3v-4h-.4v1.1Zm-.1.8c-.2-.2-.5-.3-.7-.3-.5 0-.8.4-.8 1.1 0 .7.3 1.1.8 1.1.3 0 .5-.2.7-.4v-1.5ZM161.399 224.6c.2 0 .3-.1.3-.3 0-.2-.1-.3-.3-.3-.2 0-.3.1-.3.3 0 .1.1.2.3.3ZM161.199 227.801h.4v-2.7h-.4v2.7ZM162.499 225.1h.3v.4c.3-.3.5-.5.9-.5.6 0 .8.4.8 1.1v1.7h-.4v-1.7c0-.5-.2-.8-.5-.8s-.5.1-.8.4v2h-.4v-2.6h.1ZM165.299 228.4c0 .4.5.7 1.1.7.8 0 1.3-.4 1.3-.9 0-.4-.3-.6-.9-.6h-.5c-.4 0-.5-.1-.5-.3 0-.1.1-.2.2-.3.1.1.3.1.4.1.6 0 1-.3 1-.9 0-.3-.1-.5-.2-.6h.6v-.3h-.9c-.1-.1-.2-.1-.4-.1-.5 0-1 .4-1 1 0 .3.1.6.3.7-.1.1-.3.3-.3.5s.1.3.2.4c-.2.1-.4.4-.4.6Zm1.5-.6h-.8c-.2.1-.3.3-.3.5 0 .3.3.5.8.5s.9-.3.9-.6-.2-.4-.6-.4Zm-.4-2.5c-.3 0-.6.2-.6.7 0 .4.3.7.6.7.4 0 .6-.3.6-.7 0-.4-.3-.7-.6-.7ZM168.699 227.9c.2 0 .3-.1.3-.3 0-.2-.1-.3-.3-.3-.2 0-.3.1-.3.3 0 .2.1.3.3.3ZM170.599 227.9c.2 0 .3-.1.3-.3 0-.2-.1-.3-.3-.3-.2 0-.3.1-.3.3 0 .2.1.3.3.3ZM172.4 227.9c.2 0 .3-.1.3-.3 0-.2-.1-.3-.3-.3-.2 0-.3.1-.3.3 0 .2.2.3.3.3ZM270.499 225.8c0-1.1-.5-1.7-1.2-1.7-.5 0-1 .5-1 1.2 0 .8.4 1.2 1 1.2.4 0 .7-.2.9-.5 0 1.2-.4 1.6-.9 1.6-.2 0-.4-.1-.6-.3l-.4.2c.2.2.5.4.9.4.7 0 1.3-.6 1.3-2.1Zm-1-1.4c-.4 0-.6.4-.6.9s.2.8.7.8c.2 0 .4-.1.7-.5 0-.8-.3-1.2-.8-1.2ZM272.299 227.9c.7 0 1.1-.6 1.1-1.9 0-1.3-.4-1.9-1.1-1.9-.7 0-1.1.6-1.1 1.9 0 1.3.5 1.9 1.1 1.9Zm.1-3.5c-.4 0-.7.5-.7 1.6s.3 1.6.7 1.6c.4 0 .7-.5.7-1.6s-.3-1.6-.7-1.6ZM275.699 226.1l1.6-1.9h.5l-1.2 1.4 1.3 2.3h-.5l-1.1-2-.7.8v1.2h-.4v-3.7h.5v1.9ZM279.8 227.9c.8 0 1.4-.4 1.4-1.1 0-.5-.4-.8-.8-.9.3-.1.5-.4.5-.8 0-.6-.6-.9-1.3-.9h-1.1.2v3.7h1.1Zm.6-2.8c0-.5-.3-.6-.9-.6h-.6v1.2h.6c.7 0 .9-.2.9-.6Zm.2 1.6c0-.5-.4-.7-1-.7h-.7v1.4h.7v.1c.7 0 1-.2 1-.8Z" fill="#E0E0E0"/><path fill-rule="evenodd" clip-rule="evenodd" d="M153.1 214.7H150v5.2h.9v-2.2h1.9v-.7h-1.9v-1.6h2.2v-.7ZM154.2 215.3c.3 0 .5-.2.5-.5s-.2-.5-.5-.5-.5.2-.5.5.2.5.5.5ZM153.9 219.9h.8V216h-.8v3.9ZM156.699 219.9c.2 0 .3-.1.4-.1l-.1-.6h-.1c-.1 0-.2-.1-.2-.3v-4.7h-.8v4.7c0 .7.2 1 .8 1ZM161.1 217.7c0-1.1-.6-1.8-1.6-1.8-.9 0-1.8.7-1.8 2 0 .13.01.25 1.5 1.24.17.1.37.16.6.16.3 0 .6-.1.9-.3l.3.5c-.4.2-.8.4-1.3.4-1.08 0-1.84-.57-.5-.76-.33-.2-.53-.57-.6-1.04h2.5v-.4Zm-1.9 1.44c-1.34.19-.58.76.5.76.5 0 .9-.2 1.3-.4l-.3-.5c-.3.2-.6.3-.9.3-.23 0-.43-.06-.6-.16Zm.2-2.54c-.5 0-.9.4-1 1h1.9c0-.7-.3-1-.9-1ZM164.4 217.5c0-.7-.2-.9-.7-.9-.4 0-.6.2-.9.5v2.7h-.8V216h.6l.1.5c.4-.3.8-.6 1.3-.6.8 0 1.2.5 1.2 1.5v2.4h-.8v-2.3ZM168.5 219.9h.7v-2.3c0-1-.4-1.6-1.4-1.6-.7 0-1.2.2-1.6.5l.3.5c.3-.2.7-.4 1.1-.4.5 0 .7.4.7.8-1.6.1-2.3.6-2.3 1.4 0 .7.5 1.1 1.2 1.2.4 0 .9-.2 1.2-.5l.1.4Zm-.2-2c-1.1.1-1.5.4-1.5.9 0 .4.3.5.6.5.4 0 .6-.2.9-.5v-.9ZM172.3 215.9c.6 0 .9.3 1.1.7.4-.4.8-.7 1.3-.7.8 0 1.2.5 1.2 1.5v2.4h-.8v-2.3c0-.7-.2-.9-.6-.9-.3 0-.5.2-.9.5v2.7h-.8v-2.3c0-.7-.2-.9-.6-.9-.3 0-.5.2-.9.5v2.7h-.8V216h.5l.1.5c.3-.4.7-.6 1.2-.6ZM178.7 219.3c-.7 0-1.1-.5-1.2-1.2h2.5v-.4c0-1.1-.6-1.8-1.6-1.8-.9 0-1.8.7-1.8 2s.8 2 2 2c.5 0 .9-.2 1.3-.4l-.3-.5c-.3.2-.6.3-.9.3Zm-.4-2.7c-.5 0-.9.4-1 1h1.9c0-.7-.3-1-.9-1ZM181.2 220c.3 0 .5-.3.5-.6 0-.4-.2-.6-.5-.6s-.5.3-.5.6.3.5.5.6ZM185.3 215.7v.6c-.3-.2-.6-.4-1-.4-.9 0-1.7.7-1.7 2s.6 2 1.6 2.1c.4 0 .8-.2 1.1-.5l.1.4h.7v-5.6h-.8v1.4Zm-.1 1.2c-.3-.3-.6-.3-.8-.3-.5 0-1 .5-1 1.3 0 .9.3 1.4.9 1.4.4 0 .7-.2.9-.5v-1.9ZM188.8 219.9c.9 0 1.8-.7 1.8-2s-.8-2-1.8-2c-.9 0-1.8.7-1.8 2s.8 2 1.8 2Zm0-3.4c-.6 0-1 .5-1 1.4 0 .8.4 1.4 1 1.4s1-.6 1-1.4c0-.8-.4-1.4-1-1.4ZM194.299 219.4l-.3-.5c-.2.2-.5.4-.8.4-.7 0-1.1-.6-1.1-1.4 0-.9.5-1.4 1.1-1.4.3 0 .5.1.7.3l.4-.5c-.3-.2-.6-.4-1.1-.4-1 0-1.9.7-1.9 2s.8 2 1.8 2c.4 0 .8-.2 1.2-.5ZM289.5 236.4c.2-.1.2-.4 0-.6l-4.2-4.2c-.1-.2-.4-.2-.6 0-.2.1-.2.4 0 .6l4.2 4.2c.1.1.2.1.3.1.2 0 .3 0 .3-.1Z" fill="#142D6E"/><path fill-rule="evenodd" clip-rule="evenodd" d="m285.4 236.4 4.2-4.2c.2-.1.2-.4 0-.6-.1-.2-.4-.2-.6 0l-4.2 4.2c-.2.1-.2.4 0 .6.1.1.2.1.3.1.1 0 .2 0 .3-.1ZM89.5 149.395c.6 0 1-.4 1-1s-.5-1-1-1h-.2c-7.8 0-13.9-3.5-18.6-10.7-.3-.4-.8-.6-1.3-.3-.6.4-15.4 8.6-21.7 14.1-6.5 5.7-13.4 38.3-13.7 39.7v.3l2.5 43.8c.3 5.8-.1 11.7-1.2 17.5l-2.8 14.9c-.1.3 0 .5.2.8.2.3.5.4.8.4l67.201-.4c.6 0 1-.4 1-1s-.4-1-1-1l-66.2.3 2.6-13.7c1.1-5.9 1.5-12 1.2-18l-2.4-43.7c1.9-9.3 8-34.1 13-38.4 5.4-4.6 17.4-11.6 20.6-13.4 5.1 7.2 11.8 10.9 20 10.8Z" fill="#142D6E"/><path fill-rule="evenodd" clip-rule="evenodd" d="m174.8 235.4-10.1 8.8-72.2-14.9-24.6-61.8L38 181.1s22.3 67.3 29.8 74.3 98.2 5.7 98.2 5.7l16.3 1.7s19.5-.8 24.8-2.3c5.3-1.5 5-4 5-4 1-.5 2.8-2.6 2.5-4.3 2.2-2.8 1.9-4 1.9-4l-22.1.1-12.4-2.7c-1-.2-1.7-1.1-1.7-2.1 0-.8.5-1.6 1.2-1.9 2.4-1.2 4.8-2.6 7.1-4.2 3.9-2.7 2.1-7 2.1-7l-15.9 5Z" fill="#fff"/><path fill-rule="evenodd" clip-rule="evenodd" d="m216.396 247.195-21.9.1-12.3-2.6c-.5-.1-.9-.6-.9-1.2 0-.4.2-.8.6-1 2.5-1.2 4.9-2.6 7.2-4.2 3.6-2.5 3.2-6.5 2.4-8.3-.2-.5-.7-.8-1.2-.6l-15.9 5c-.2 0-.3.1-.4.2l-9.8 8.4-71.2-14.7-24.2-61.3c-.1-.29-.3-.5-.6-.6-.3-.1-.5-.1-.8 0l-29.8 13.81c-.4.19-.7.69-.5 1.19.9 2.7 22.4 67.6 30 74.7 7.6 7.1 89.6 6.1 98.9 6l16.1 1.7h.1c.8 0 19.6-.8 25.1-2.4 4.6-1.2 5.5-3.3 5.7-4.4 1.1-.8 2.5-2.7 2.5-4.5 2.1-2.8 2-4.2 1.9-4.6-.1-.2-.3-.5-.5-.6-.1-.1-.3-.1-.5-.1ZM39.2 181.6c7.8 23.4 23.5 67.7 29.2 73 5.9 5.5 72.1 5.8 97.3 5.4.1.1.2.1.2.1h.1l16.2 1.7c1.3-.1 19.5-.9 24.6-2.2 4.3-1.2 4.3-2.9 4.3-2.9-.1-.4.2-.8.5-1 .7-.4 2.1-2.1 2-3.2 0-.3 0-.6.2-.8.9-1.1 1.3-1.9 1.5-2.4H194.2l-12.4-2.7c-1.5-.3-2.5-1.6-2.5-3.1 0-1.2.7-2.3 1.7-2.8 2.4-1.2 4.7-2.6 7-4.1 2.3-1.6 2.2-3.8 2-5l-14.8 4.6-10 8.6c-.2.2-.5.3-.9.2l-72.2-14.9c-.3-.1-.6-.3-.7-.6l-24.2-60.8-28 12.9Z" fill="#142D6E"/><path fill-rule="evenodd" clip-rule="evenodd" d="M48.4 151.303c-23.3 9.9-13.4 39.1-13.4 39.1l15.6 37.3 39-18.1-19.1-39.9s-9.6-23.8-22.1-18.4Z" fill="#fff"/><path fill-rule="evenodd" clip-rule="evenodd" d="M49.697 228.1c.1.2.3.4.6.5.2.1.3.1.4.1h.3l39-18.1c.2-.1.4-.3.5-.6.1-.3.1-.6 0-.8l-19.1-39.9c-.4-.9-6.3-15.3-15.2-18.9-2.8-1.2-5.5-1.2-8.2 0-23.8 10.1-14 40-13.9 40.4l15.6 37.3Zm-.902-75.9c-22.1 9.5-13.2 36.7-12.8 37.9l15.2 36.3 37.1-17.3-18.7-39v-.1c-.1-.1-5.9-14.5-14.1-17.9-1.2-.4-2.3-.6-3.4-.6s-2.2.2-3.3.7ZM214.604 252.901c.5-.1.8-.7.7-1.2-.1-.5-.7-.8-1.2-.7-.1.1-15.7 3.6-28.9 1.1-.6-.1-1.1.3-1.2.8-.1.6.3 1.1.8 1.2 3.6.6 7.4.9 11 .9 9.9 0 18.3-1.9 18.8-2.1ZM212.501 256.905c.5-.1.7-.6.6-1.1-.1-.5-.6-.7-1.1-.6-.1 0-13.1 3.9-24 1.4-.5-.1-1 .2-1.1.7-.1.5.2 1 .7 1.1 2.8.7 5.8.9 8.6.9 8.5 0 15.9-2.2 16.3-2.4Z" fill="#142D6E"/><path fill-rule="evenodd" clip-rule="evenodd" d="M67.499 66.299c-2.2 2.5-3.9 5.4-4.9 8.6-1.3 4.4-1.1 12.1.1 20.2-1.6-.9-3-.7-4.5-.4-9.6 1.8-6.9 15 1.5 17.5.9.4 6.9 2.2 7.8 2.1 1.2 3.3 2.6 6 4.1 8-.3 8.1-.7 17-.5 17.3 5.3 8.7 18.2 19 25.4 17 6.9-2 4.5-21.4 4.4-22.1-.1-1.4-.1-2.8 0-4.2 4.1-1.5 16.3-5.9 18.8-10.7 3.5-7-7.3-48.2-9-52.7-2.1-5.6-4.5-9.9-6.9-11.6-9.7-7-24.6-5.3-34.1 2.5-1 2.8-1.7 5.7-2.2 8.5Z" fill="#fff"/><path fill-rule="evenodd" clip-rule="evenodd" d="M61.7 74.705c-1.1 4.1-1.2 10.9-.1 19-1.2-.3-2.4-.1-3.5.1-4.1.8-6.7 3.7-6.9 7.7-.3 4.5 2.8 10.1 8.2 11.7.8.4 5.4 1.8 7.5 2.1 1.2 3.1 2.5 5.5 3.8 7.4l-.2 4.2c-.5 12.7-.5 12.8-.2 13.3 4.8 7.7 16.1 17.7 24.2 17.7.8 0 1.5-.1 2.2-.2 7-2.1 5.8-18.3 5.2-23.2v-3.5c4.9-1.8 16.2-6 18.7-11 3.8-7.7-7.6-49.7-9-53.5-1.5-4.2-4.1-9.7-7.2-12-9.8-7-25-5.9-35.3 2.6-.1.1-.2.2-.3.4-1 2.7-1.7 5.5-2.2 8.4-2.3 2.6-4 5.6-4.9 8.8Zm-8.405 27.098c-.3 3.5 2.2 8.2 6.7 9.5h.1c1 .4 6.5 2 7.4 2 .4 0 .9.3 1 .6 1.3 3.3 2.6 6 3.9 7.8.1.2.2.4.2.6l-.2 4.6c-.2 5.3-.4 11.3-.3 12.4 5.5 8.8 17.9 18.2 24.1 16.4 4.7-1.3 4.5-13.8 3.7-21v-.1c-.1-1.3-.1-2.7 0-4.3 0-.4.3-.8.7-.9l.6-.2c4.2-1.6 15.5-5.7 17.6-10 3.3-6.5-7.3-47.3-9-51.9-2.1-5.6-4.4-9.5-6.5-11.1-8.9-6.4-23.1-5.3-32.6 2.3-.9 2.6-1.6 5.3-2.1 8.1 0 .2-.1.4-.2.5-2.2 2.5-3.8 5.2-4.7 8.3-1.2 4-1.1 11.3.2 19.8.1.4-.1.7-.4 1-.3.2-.7.2-1 .1-1.3-.7-2.5-.6-3.9-.3-3.2.6-5.1 2.7-5.3 5.8Z" fill="#142D6E"/><path fill-rule="evenodd" clip-rule="evenodd" d="M92 96.804c3.4-.5 1.9-7.7-1.1-7.3-3.6.6-2.2 7.8 1.1 7.3ZM109.802 93.005c3.3-.9 1.7-8.1-1.9-7.1-3 .8-1.4 8 1.9 7.1ZM99.899 115.897c.3-.5.1-1.1-.4-1.4-3.8-2.1-3.8-4.5-3.8-4.6.1-.6-.4-1.1-.9-1.1-.6-.1-1.1.4-1.1.9 0 .1-.2 3.7 4.9 6.5.2.1.3.1.5.1.3 0 .7-.2.8-.4Z" fill="#142D6E"/><path fill-rule="evenodd" clip-rule="evenodd" d="M104.3 105.3s5.1-.7 4.9-3.3c-.2-2.6-5.3-2.1-5.3-2.1l-2.4-15.3 2.8 20.7Z" fill="#fff"/><path fill-rule="evenodd" clip-rule="evenodd" d="M104.104 106.404c.6-.1 6.1-1 5.8-4.4-.1-.8-.4-1.4-1-1.9-1.2-1.1-3.3-1.2-4.5-1.2l-2.2-14.4c0-.5-.6-.9-1.1-.8-.5 0-.9.6-.8 1.1l2.4 15.3c.1.5.6.8 1.1.8 1.1-.1 3.2 0 4 .7.2.1.3.3.3.5.1 1.2-2.8 2-4.1 2.2-.5 0-.9.6-.8 1.1.1.5.5.9 1 .9.1 0 .1 0-.1.1ZM82.295 86.403c3.2-3.6 8.2-3.2 8.3-3.2.6 0 1-.4 1.1-.9.1-.6-.4-1-.9-1.1-.2 0-6.1-.6-10 3.9-.4.4-.3 1 .1 1.4.2.1.5.2.7.2.2 0 .5-.1.7-.3ZM104.503 80.403c.1-.1 3.2-1.5 6.5-.4.6.1 1.2-.1 1.3-.7.1-.6-.2-1.1-.7-1.3-4-1.3-7.7.3-7.9.4-.5.2-.7.8-.5 1.3.2.4.5.6.9.6.1 0 .2 0 .4.1Z" fill="#142D6E"/><path fill-rule="evenodd" clip-rule="evenodd" d="M94.198 104.402c5.4-2.4 7.7-8.7 5.3-14-2.4-5.4-8.7-7.7-14-5.3-2.5 1.2-4.5 3.3-5.5 5.9-1 2.6-.9 5.5.3 8.1 1.7 3.9 5.6 6.2 9.6 6.2 1.4 0 2.9-.3 4.3-.9ZM86.404 86.9c-4.3 2-6.2 7-4.3 11.3 2 4.3 7 6.2 11.3 4.3 4.3-2 6.2-7 4.3-11.3-1.5-3.2-4.6-5.1-7.8-5.1-1.2 0-2.4.2-3.5.8ZM113.904 99.902c4.6-.7 7.6-5.6 6.8-11-.4-2.6-1.6-4.9-3.4-6.5-1.8-1.6-4.1-2.3-6.3-2-2.2.3-4.1 1.7-5.4 3.8-1.2 2.1-1.7 4.6-1.3 7.2.7 5 4.5 8.6 8.6 8.6.3 0 .7-.1 1-.1ZM111.302 82.4c-1.6.2-3.1 1.3-4 2.9-1 1.7-1.4 3.7-1.1 5.8.6 4.3 4 7.4 7.4 6.8 3.4-.5 5.7-4.4 5.1-8.7-.3-2.1-1.3-4-2.7-5.3-1.2-1-2.6-1.6-3.9-1.6-.3 0-.5 0-.8.1Z" fill="#FFC412"/><path fill-rule="evenodd" clip-rule="evenodd" d="M80.1 96.6c.6 0 1-.4 1-1s-.5-1-1-1L67 95c-.6 0-1 .4-1 1s.5 1 1 1l13.1-.4ZM99.595 93.002c.1-.1 2.5-2.1 5.2-.9.5.2 1.1 0 1.3-.5.2-.5 0-1.1-.5-1.3-3.8-1.8-7.2 1.1-7.3 1.2-.4.4-.5 1-.1 1.4.2.2.5.3.8.3.2 0 .4 0 .6-.2Z" fill="#FFC412"/><path fill-rule="evenodd" clip-rule="evenodd" d="M67.9 104.301c5.8-1.2 3.4-23.5 3.4-23.5 6.3-.9 11.2-5.8 12.2-12 0 0 20.6 9.4 31.4-2.3 9-9.7 1.4-31.4-4.1-34.1-3-1.5-6.9.7-8.6 5.1l-.2-.2c-2.5-1.8-5.9-1.3-7.7 1.2-1.9 2.4-3.1 5.3-3.7 8.3 0 0-10.2-.7-18.3.7-1.1.2-2.3.3-3.4.4-1.1.1-2.2.4-3.3.9-4.8 2.2-7.2 7.4-5.9 12.3-.9.1-1.8.4-2.7.8-4.9 2.2-6.6 7.2-5.8 12.7 1.2 10.1 9.1 31.3 16.7 29.7Z" fill="#142D6E"/><path fill-rule="evenodd" clip-rule="evenodd" d="M219.801 84.098c-1.3-1.1-2.9-2.2-4.6-2.1-1.9.1-3.3 1.9-3.7 3.7-.4 1.8-.1 3.7.3 5.6 4.9 0 9.2-.1 14-.1-.4 3.5-.8 7.7-.7 10.3.2 5.1 5 1.7 5 1.7s-.3 3 2.1 3.3c2.4.3 4.4-2.5 4.4-2.5 7.1.3 9-10.2 9-10.2s1.8 2.1 3.5 2.2c1.7.1 7.9-10.1 7.9-10.1-.2-1.2-.9-2.2-1.8-3-1.5-1.2-6.4.9-6.4.9s1.2-1.1-.3-3-5.9 2.1-5.9 2.1c-.6-1.4-2.1-2.1-3.5-1.7-2.5.6-5.2 2.9-5.2 2.9-.6-1.1-1.5-1.9-2.7-2.5-2-1-4.6 3.6-4.6 3.6s-.1.5-.2 1.4c-.8.1-1.5.2-2.3.1-1.7-.2-3-1.5-4.3-2.6Z" fill="#fff"/><path fill-rule="evenodd" clip-rule="evenodd" d="M249.097 80.304c-.4-.6-1-.9-1.7-.9-1.6-.1-3.6 1.2-4.7 2.1-.9-1.1-2.4-1.6-3.9-1.2-1.9.5-3.7 1.7-4.8 2.5-.6-.8-1.5-1.5-2.4-1.9-2.7-1.4-5.4 3.1-5.9 4 0 .1-.1.2-.1.3 0 0 0 .3-.1.7-.5 0-.9.1-1.3 0-1.3-.2-2.5-1.2-3.6-2.2l-.2-.2c-1.4-1.2-3.2-2.5-5.3-2.3-2.5.2-4.1 2.5-4.6 4.5s-.1 4.2.3 6c.1.5.5.8 1 .8 2.6 0 5.1-.1 7.5-.1 1.8-.1 3.5-.1 5.4-.1-.5 4.1-.7 7.3-.6 9.3.1 1.8.7 3 1.8 3.5s2.4.2 3.4-.2c.3 1.2 1.1 2.5 2.8 2.7h.5c2.1 0 3.8-1.7 4.3-2.5 5.7-.1 8.2-6.2 9.1-9.3.8.6 1.8 1.2 2.9 1.3 1.6.2 4.6-3.4 8.9-10.6.1-.2.2-.5.1-.7-.3-1.4-1.1-2.7-2.2-3.6-1.3-1-3.8-.5-5.6.1-.1-.6-.4-1.3-1-2Zm-.796 2.691c.1-.1.4-.5-.4-1.6-.1-.1-.1-.1-.3-.1-1-.1-3 1.4-4.1 2.4-.2.2-.6.3-.9.2-.3-.1-.6-.3-.7-.6-.4-.9-1.4-1.4-2.3-1.2-2.3.5-4.8 2.7-4.8 2.7-.2.2-.5.3-.8.2-.3 0-.6-.2-.7-.5-.5-.9-1.3-1.6-2.2-2-.6-.3-2.2 1.3-3.2 3 0 .2-.1.7-.2 1.2-.1.4-.4.8-.9.9h-.1c-.8.1-1.6.2-2.4.1-1.9-.3-3.3-1.5-4.6-2.7l-.2-.2c-1.1-1-2.5-2-3.8-1.8-1.5.1-2.5 1.6-2.9 2.9-.3 1.4-.1 2.9.2 4.3 2.3 0 4.5 0 6.6-.1 2.2 0 4.3-.1 6.6-.1.3 0 .6.1.7.3.2.2.3.5.2.8-.5 4.6-.8 8.1-.7 10.1 0 .6.1 1.5.6 1.8.6.3 2-.3 2.8-.8 0 .1.2.1.4.1s.3 0 .5.1c.3.2.5.6.5 1 0 .2-.2 2.1 1.2 2.2 1.4.2 3-1.5 3.4-2.1.2-.3.5-.4.9-.4 6.1.3 7.9-9.3 8-9.4.1-.4.3-.7.7-.8.4-.1.8 0 1 .3.4.4 1.7 1.7 2.7 1.9 1-.5 4.3-5.1 6.9-9.3-.3-.8-.7-1.6-1.4-2.1-.6-.5-3.3.1-5.3 1-.4.2-1 0-1.2-.4-.3-.4-.2-1 .2-1.3Z" fill="#142D6E"/><path fill-rule="evenodd" clip-rule="evenodd" d="m246.597 94.397 3.4-10.5c.2-.6-.1-1.1-.6-1.3-.6-.2-1.1.1-1.3.6l-3.4 10.5c-.2.6.1 1.1.6 1.3h.3c.4 0 .8-.3 1-.6ZM237.101 103.901l5.9-21.1c.1-.5-.2-1.1-.7-1.2-.5-.1-1.1.2-1.2.7l-5.9 21.1c-.1.5.2 1.1.7 1.2h.3c.4 0 .8-.3.9-.7ZM230.905 103.304l3.7-19.1c.1-.6-.3-1.1-.8-1.2-.6-.1-1.1.3-1.2.8l-3.7 19.1c-.1.6.3 1.1.8 1.2h.2c.4 0 .9-.4 1-.8Z" fill="#142D6E"/><path fill-rule="evenodd" clip-rule="evenodd" d="m118.798 252.9-11.7-16.8-14.1-2.7-10.6 7.4c-1.1.9-1.4 2.4-.6 3.6l16.2 23.2c.9 1.1 2.4 1.4 3.6.6l16.8-11.7c1.2-.8 1.5-2.4.4-3.6Z" fill="#03D5B7"/><path fill-rule="evenodd" clip-rule="evenodd" d="M97.7 239.9c.8 1.1 2.2 1.3 3.3.6l6.3-4.4-14.1-2.7 4.5 6.5Z" fill="#FF725E"/><path fill-rule="evenodd" clip-rule="evenodd" d="M97.7 239.9c.8 1.1 2.2 1.3 3.3.6l6.3-4.4-14.1-2.7 4.5 6.5Z" fill="#00BC9C"/><path fill-rule="evenodd" clip-rule="evenodd" d="m87.496 245.096 8-5.6c.3-.2.4-.6.2-.9-.2-.3-.6-.4-.9-.2l-8 5.6c-.3.2-.4.6-.2.9.1.2.3.3.5.3s.3 0 .4-.1ZM90.296 248.996l7.8-5.5c.3-.2.4-.6.2-.9-.2-.3-.6-.4-.9-.2l-7.8 5.5c-.3.2-.4.6-.2.9.1.2.3.3.5.3.1 0 .2 0 .4-.1ZM92.996 252.896l14-9.9c.3-.2.4-.6.2-.9-.2-.3-.6-.4-.9-.2l-14 9.9c-.3.2-.4.6-.2.9.1.2.3.3.5.3.1 0 .3-.1.4-.1ZM95.696 256.696l14-9.9c.3-.2.4-.6.2-.9-.2-.3-.6-.4-.9-.2l-14 9.9c-.3.2-.4.6-.2.9.1.2.3.3.5.3s.3 0 .4-.1ZM98.496 260.596l14-9.9c.3-.2.4-.6.2-.9-.2-.3-.6-.4-.9-.2l-14 9.9c-.3.2-.4.6-.2.9.1.2.3.3.5.3.1 0 .2-.1.4-.1ZM101.196 264.396l14-9.9c.3-.2.4-.6.2-.9-.2-.3-.6-.4-.9-.2l-14 9.9c-.3.2-.4.6-.2.9.1.2.3.3.5.3.1 0 .3 0 .4-.1Z" fill="#fff"/><path fill-rule="evenodd" clip-rule="evenodd" d="M357.698 247.6s0-4.8-5.6-4.8c-4.6 0-5.3 4-5.3 4-4.1.3-3.9 5-3.9 5h20c-.5-4.6-5.2-4.2-5.2-4.2Z" fill="#FAFAFA"/><path fill-rule="evenodd" clip-rule="evenodd" d="M336 267.3h-28.9v-46.7h-22l36.4-33.1 36.5 33.1h-22v46.7Z" fill="#FFC412"/><path fill-rule="evenodd" clip-rule="evenodd" d="M359.3 267.8c0-.6-.4-1-1-1h-78.7c-.6 0-1 .4-1 1s.4 1 1 1h78.7c.6 0 1-.4 1-1Z" fill="#142D6E"/></g></svg>