<svg viewBox="0 0 400 300" fill="none" xmlns="http://www.w3.org/2000/svg"><mask id="a" style="mask-type:alpha" maskUnits="userSpaceOnUse" x="33" y="31" width="335" height="239"><path d="M368 31H33v238.9h335V31Z" fill="#fff"/></mask><g mask="url(#a)" fill-rule="evenodd" clip-rule="evenodd"><path d="M63.7 256.904c0 4.7 4.3 4.3 4.3 4.3h153.2c9.3 0 7-6 7-6l.5-11.3c-33.9-6.6-71 7.5-110.4-6.5-39.4-14-54.3 5.4-54.3 5.4s-.3 9.3-.3 14.1Z" fill="#03D5B7"/><path d="M68.2 183.2c-3 0-5.5 2.1-5.5 4.7v69.5c0 2.6 2.5 4.7 5.5 4.7h155.7c3.1 0 5.6-2.1 5.6-4.8v-4.8c.1-17.7.1-22.4 0-23.7v-40.9c0-2.6-2.5-4.7-5.5-4.7H68.2Zm0 2v-.1c-2 0-3.7 1.3-3.7 2.9v69.5c0 1.6 1.7 2.9 3.7 2.9H224c2 0 3.7-1.3 3.7-2.9v-4.8c0-9 .1-22.6 0-23.6v-41c0-1.6-1.7-2.9-3.7-2.9H68.2Z" fill="#142D6E"/><path d="M64 195.5h165v-10.6H64v10.6Z" fill="#142D6E"/><path d="M70 189.4c-.8 0-1.5.7-1.5 1.5s.7 1.6 1.5 1.6 1.6-.7 1.6-1.5c.1-.9-.6-1.6-1.6-1.6Z" fill="#03D5B7"/><path d="M75.6 189.4c-.8 0-1.5.7-1.5 1.5s.7 1.6 1.5 1.6 1.6-.7 1.6-1.5c0-.9-.7-1.6-1.6-1.6Z" fill="#FFC412"/><path d="M80.1 189.902c-.6.7-.6 1.7 0 2.3l.1.1c.6.5 1.5.5 2.1-.1.6-.7.6-1.7 0-2.3-.6-.7-1.6-.6-2.2 0Z" fill="#fff"/><path d="M67 66.5h45.9V31.1H67v35.4Z" fill="#F5F5F5"/><path d="M78.6 48.6c0-9.7-.1-17.6-.1-17.6s-.1 7.9-.1 17.6c0 9.7 0 17.6.1 17.6s.1-7.9.1-17.6Z" fill="#EBEBEB"/><path d="M70.9 62.4h3.5v-4h-3.5v4Z" fill="#FAFAFA"/><path d="M93.6 38.7h5.2v-7.5h-5.2v7.5ZM93.6 66.3h5.2v-7.5h-5.2v7.5ZM33 125.4h75.7V67H33v58.4Z" fill="#EBEBEB"/><path d="M89.8 95.9c0-16.1 0-29.1-.1-29.1 0 0-.1 13-.1 29.1s0 29.1.1 29.1.1-13 .1-29.1Z" fill="#E0E0E0"/><path d="M96.5 118.7h5.8v-6.6h-5.8v6.6Z" fill="#FAFAFA"/><path d="M56.1 79.6h8.6V67.1h-8.6v12.5ZM56.1 125.2h8.6v-12.5h-8.6v12.5ZM144.3 146l1.2 3.9 4.2-1.3 5.2 17.3 4.9-1.5-6.4-21.2-9.1 2.8ZM167.097 143.301c4-.4 6.6-3.8 6-9.1-.6-5.3-3.9-8-7.9-7.6-3.9.4-6.6 3.7-6 9.1.5 5.3 3.8 8 7.9 7.6Zm-1.499-13.596c-1.9.2-3 1.9-2.6 5.6.4 3.7 1.9 5 3.7 4.9 1.8-.2 3-1.9 2.6-5.6-.4-3.7-1.9-5-3.7-4.9ZM216.899 102.597c4.6-3.7 5.2-9.9.3-16.1-4.9-6.2-11.2-7-15.8-3.3-4.6 3.7-5.2 9.9-.3 16.1 4.9 6.2 11.1 6.8 15.8 3.3Zm-12.603-15.795c-2.2 1.7-2.2 4.7 1.2 8.9 3.4 4.2 6.3 4.8 8.4 3.1 2.2-1.6 2.3-4.6-1.1-8.9-3.4-4.3-6.3-4.8-8.5-3.1Z" fill="#E0E0E0"/><path d="M176.8 66.497c4.6-3.7 5.2-9.9.3-16.1-5-6.2-11.2-7-15.8-3.3-4.6 3.7-5.2 9.9-.3 16.1 4.9 6.2 11.1 7 15.8 3.3Zm-12.604-15.795c-2.2 1.7-2.2 4.7 1.2 8.9 3.4 4.2 6.3 4.8 8.5 3.1 2.1-1.6 2.2-4.6-1.2-8.9-3.4-4.3-6.3-4.8-8.5-3.1Z" fill="#F5F5F5"/><path d="m187.7 134.5-.4 3 3.2.5-1.9 13.1 3.7.5 2.4-16.1-7-1ZM151.7 118.6l1.8-4.1-4.4-1.9 7.9-17.9-5.1-2.2-9.7 22 9.5 4.1Z" fill="#E0E0E0"/><path d="M164.899 175.495c4.9-2.5 6.6-8 3.3-14.5-3.3-6.6-8.7-8.4-13.6-6-4.8 2.4-6.6 8-3.3 14.5s8.7 8.4 13.6 6Zm-8.403-16.597c-2.3 1.2-2.9 3.8-.6 8.3 2.3 4.5 4.8 5.6 7 4.4 2.3-1.2 3-3.8.7-8.3-2.3-4.5-4.8-5.6-7.1-4.4ZM129.499 227.596c1 5.4 5.8 8.6 13 7.3 7.2-1.3 10.6-6 9.6-11.4-1-5.3-5.8-8.6-13-7.3-7.2 1.3-10.6 6-9.6 11.4Zm18.197-3.3c-.5-2.5-2.8-3.9-7.8-3-5 .9-6.7 3-6.2 5.5s2.9 3.9 7.8 3c5-.9 6.7-3 6.2-5.5Z" fill="#03D5B7"/><path d="m125.397 178.698 4.2-12.5c.2-.6-.1-1.1-.6-1.3-.6-.2-1.1.1-1.3.6l-4.2 12.5c-.2.6.1 1.1.6 1.3.1.1.2.1.3.1.4 0 .8-.3 1-.7ZM107.499 172.799c3.7-1.9 5.3-6.5 3.4-10.3-.9-1.9-2.5-3.2-4.4-3.9-2-.7-4.1-.5-5.9.4-1.9.9-3.2 2.5-3.9 4.4-.7 2-.5 4.1.4 5.9.9 1.9 2.5 3.2 4.4 3.9.8.3 1.6.4 2.4.4 1.1 0 2.3-.3 3.6-.8Zm-6.101-11.999c-1.4.7-2.4 1.8-2.8 3.3-.5 1.4-.4 3 .3 4.3.7 1.4 1.8 2.4 3.3 2.8 1.4.5 3 .4 4.3-.3 2.8-1.4 3.9-4.8 2.5-7.6-.7-1.4-1.8-2.4-3.3-2.8-.6-.2-1.2-.3-1.8-.3-.9 0-1.7.2-2.5.6ZM103.395 193.995c.4-.4.5-1 .1-1.4l-22.9-26.6c-.4-.4-1-.5-1.4-.1-.4.4-.5 1-.1 1.4l22.9 26.6c.2.2.5.3.8.3.2 0 .4 0 .6-.2Z" fill="#FFC412"/><path d="M315.701 45c-.4 0-.8.2-1 .5-.3.3-.2.8 0 1.1l20.4 28.5c.2.2.5.4.8.4.1 0 .2 0 .3-.1.4-.1.7-.4.8-.8l4-24.5c.1-.5-.3-1-.8-1.1l-24.5-4ZM335.3 72l3.5-21.1-21.1-3.5L335.3 72ZM368 145.6c0-7-5.7-12.7-12.7-12.7-7 0-12.7 5.7-12.7 12.7 0 7 5.7 12.7 12.7 12.7 7 0 12.7-5.7 12.7-12.7Zm-22.4 0c0 5.4 4.3 9.7 9.7 9.7 5.4 0 9.7-4.3 9.7-9.7 0-5.4-4.4-9.7-9.7-9.7-5.3 0-9.7 4.3-9.7 9.7Z" fill="#03D5B7"/><path d="m331.003 104.303 23.7-10.7c.5-.2.7-.8.5-1.3-.2-.5-.8-.7-1.3-.5l-23.7 10.7c-.5.2-.7.8-.5 1.3.2.4.5.6.9.6.2 0 .3-.1.4-.1Z" fill="#FFC412"/><path d="M112.2 208.8c2.4 0 4.3-1.9 4.3-4.3s-1.9-4.3-4.3-4.3H71.9c-2.4 0-4.3 1.9-4.3 4.3s1.9 4.3 4.3 4.3h40.3Z" fill="#fff"/><path d="M117.6 204.5c0-3-2.4-5.4-5.4-5.4H71.9c-3 0-5.4 2.4-5.4 5.4 0 3 2.4 5.4 5.4 5.4h40.3c3 0 5.4-2.4 5.4-5.4Zm-48.9 0c0 1.8 1.4 3.2 3.2 3.2h40.3c1.8 0 3.2-1.4 3.2-3.2 0-1.8-1.4-3.2-3.2-3.2H71.9c-1.8 0-3.2 1.4-3.2 3.2Z" fill="#142D6E"/><path d="M90.1 204.5c0-1.8-1.4-3.2-3.2-3.2h-15c-1.8 0-3.2 1.4-3.2 3.2 0 1.8 1.4 3.2 3.2 3.2h15c1.8 0 3.2-1.4 3.2-3.2Z" fill="#FFC412"/><path d="m132 215.8 9.8-22.6-2.6-31.3 52.4 22.3-24.5 19.6-9.2 21.4-25.9-9.4Z" fill="#E0E0E0"/><path d="M165.5 203.202c.3-.6 0-1.2-.5-1.4l-20.3-8.8c-.6-.3-1.1-.1-1.4.5-.3.6 0 1.2.5 1.4l20.3 8.8c.1.1.3.1.4.1.4 0 .8-.2 1-.6ZM162.1 211.102c.3-.6 0-1.2-.5-1.4l-20.3-8.8c-.6-.3-1.1-.1-1.4.5-.3.6 0 1.2.5 1.4l20.3 8.8c.1.1.3.1.4.1.4 0 .8-.2 1-.6ZM158.7 219c.3-.6 0-1.2-.5-1.4l-20.3-8.8c-.6-.3-1.2 0-1.4.5-.3.6 0 1.2.5 1.4l20.3 8.8c.1.1.3.1.4.1.4 0 .8-.3 1-.6Z" fill="#142D6E"/><path d="m149.2 194.097-1.1-28.4c0-.6-.5-1.1-1.1-1-.6 0-1 .5-1 1.1l1.1 28.4c0 .6.4 1 1 1 .6-.1 1.1-.6 1.1-1.1Z" fill="#142D6E"/><path d="M131.972 215.855c-.777 2.186 4.416 6.028 11.596 8.581 7.179 2.552 13.632 2.851 14.409.665.778-2.186-4.415-6.027-11.595-8.58-7.18-2.553-13.633-2.852-14.41-.666Z" fill="#E0E0E0"/><path d="m161.5 149.6 1.8 6.5 7-1.9 7.9 28.3 8.1-2.2-9.7-34.8-15.1 4.1Z" fill="#03D5B7"/><path d="M176.2 145.3s1.4 3.9 3.3 7.2l-12.4 4.3c-.6.2-1.4.6-1.4 1.3 0 .7.8 1.1 1.5 1.3 2 .5 4.1.5 6.1 0 1-.4 2.1-.5 3.2-.5 1.4.2 2.5 1.2 3.7 1.9 3.1 1.9 6.7 2.3 9.9 1.4 3.1 2.2 5.9 4.1 5.9 4.1s34.9 30.9 39.5 33.8c4.7 2.9 40.1-22.2 40.1-22.2l-13.1-28.3-20.6 23.5-45.3-22.1v.1l-19.3-11.6-11 1.7-6.6 8.5c2.5 1.8 5.3-.3 5.3-.3l4.7-4.5 6.5.4Z" fill="#fff"/><path d="M195.5 167.1h.1c2.6 2.4 34.9 31 39.5 33.8.4.2.8.3 1.4.3 7.4 0 32-17 40-22.6.4-.2.5-.8.3-1.2l-13.3-28.2c-.2-.3-.5-.6-.8-.6-.4-.1-.7 0-.9.3l-20.1 22.9-44.5-21.8c-.1-.1-.2-.1-.3-.1L178 138.5c-.2-.1-.5-.1-.7-.1l-11 1.7c-.2.1-.4.2-.6.4l-6.6 8.5c-.2.3-.2.5-.2.8 0 .3.2.5.4.7 3.1 2.3 6.4-.2 6.5-.3l.1-.1 4.3-4.2 5.4.3c.4 1.1 1.3 3.4 2.5 5.7l-11.3 4c-1.7.6-2.1 1.5-2.1 2.2 0 .6.3 1.7 2.3 2.3 2.1.5 4.4.5 6.6 0 .9-.4 1.9-.5 2.8-.5.9.1 1.7.6 2.5 1.2.2.1.5.3.8.5 3.1 1.9 6.8 2.5 10.3 1.6 2.9 2.1 5.5 3.9 5.5 3.9Zm1.5-1.4c2.8 2.4 34.9 30.8 39.2 33.5 2.5 1.5 21.7-10 38.3-21.7l-12.3-26.1-19.6 22.4c-.3.3-.8.4-1.2.2l-44.8-21.9c-.2 0-.3-.1-.5-.1l-19-11.4-10.2 1.6-5.6 7.2c1.5.4 2.9-.5 3.1-.7l4.6-4.5c.2-.2.5-.3.8-.3l6.5.4c.4 0 .7.3.9.7 0 0 1.4 3.9 3.2 7.1.1.3.2.6.1.8-.1.3-.3.5-.6.6l-12.4 4.3c-.4.1-.6.3-.7.3.1.1.3.2.7.3 1.8.4 3.7.4 5.5 0 1.1-.4 2.3-.6 3.5-.5 1.4.2 2.5.9 3.5 1.6.3.2.5.3.8.5 2.7 1.7 6 2.2 9.1 1.3.3-.1.6 0 .9.1 2.6 1.8 4.9 3.5 5.7 4 .2-.1.4.1.5.3Z" fill="#142D6E"/><path d="m240.2 268.8 29.7-11.1 81-11.5-22.6-94.5-4.7-24.7-24.4-13.8.2.9-20 12.1c-1.2.3-2.1.5-2.8.4-5-.8-6.1-6.8-6.1-6.8s-13.4 15.3-16.2 30c-.5 2.6-14.1 119-14.1 119Z" fill="#fff"/><path d="M269.2 257.904c0 .5.6.9 1.1.8l81-11.5c.3 0 .5-.2.7-.4.1-.2.2-.5.1-.8l-22.6-94.5-4.7-24.7c-.1-.3-.2-.6-.5-.7l-24.4-13.8c-.4-.1-.8-.1-1.1.1-.3.2-.5.6-.4 1v.2l-19.3 11.7c-1.3.3-2 .4-2.3.3-4.3-.7-5.3-5.9-5.3-6-.1-.4-.3-.7-.7-.8-.4-.1-.7 0-1 .3-.6.6-13.7 15.7-16.5 30.5-.5 2.7-13.5 111.4-14.1 117.1l2.5-1.2c5.5-48.2 13.5-113.4 13.9-115.4 2.2-11.7 11.5-24 14.8-28.1.8 2 2.6 5.1 6.4 5.7.7.1 1.8 0 3.2-.4 0 0 .1-.1.2-.1l20-12.1c.1 0 .2-.1.2-.1l22.6 12.8 4.6 24.3 22.3 93.4-79.9 11.3c-.5 0-.9.6-.8 1.1Z" fill="#142D6E"/><path d="M238.097 222.904c7.4-3.7 10-11.9 5-21.9-5-9.9-13.3-12.7-20.6-9-7.3 3.7-10 12-5 21.9 5 9.9 13.2 12.8 20.6 9Zm-12.593-25.101c-3.5 1.7-4.4 5.8-1 12.5 3.4 6.8 7.2 8.4 10.7 6.7 3.4-1.7 4.4-5.7 1-12.5-3.4-6.8-7.2-8.4-10.7-6.7Z" fill="#E0E0E0"/><path d="M220.097 222.904c7.4-3.7 10-12 5-21.9-5-9.9-13.2-12.7-20.6-9-7.3 3.7-10 12-5 21.9 4.9 9.9 13.2 12.7 20.6 9Zm-12.693-25.101c-3.5 1.7-4.4 5.8-1 12.5 3.4 6.8 7.2 8.4 10.7 6.7 3.5-1.7 4.5-5.7 1-12.5-3.4-6.8-7.2-8.4-10.7-6.7Z" fill="#00BC9C"/><path d="m240.6 174.3 1.8 6 6.4-1.9 7.9 26.1 7.4-2.2-9.7-32.1-13.8 4.1Z" fill="#E0E0E0"/><path d="M267.697 208.704c7.4-3.7 10-12 5-21.9-5-9.9-13.3-12.7-20.6-9-7.3 3.7-10 12-5 21.9 5.1 9.8 13.3 12.7 20.6 9Zm-12.593-25.101c-3.5 1.7-4.4 5.8-1 12.5 3.4 6.8 7.2 8.4 10.7 6.7 3.4-1.7 4.5-5.7 1-12.5-3.4-6.8-7.2-8.4-10.7-6.7ZM227 179.4v6.2h6.7v27.3h7.8v-33.5H227ZM258.9 167.6l3.8 5 5.3-4.1 16.5 21.7 6.2-4.7-20.2-26.7-11.6 8.8Z" fill="#00BC9C"/><path d="m241.845 267.621 77.966-39.276-27.174-53.942-77.966 39.276 27.174 53.942Z" fill="#03D5B7"/><path d="m239 221 75.7-38.3-22.1-8.3-77.9 39.3L239 221Z" fill="#03D5B7"/><path d="m214.7 213.7-10.8 8.8 21.8 47.4 16.1-2.3-27.1-53.9Z" fill="#00BC9C"/><path d="m197.6 241.3 11.3-8.2 5.8-19.4-10.8 8.8-6.3 18.8Z" fill="#03D5B7"/><path d="M242.895 252.803c-.5.8-.2 1.9.6 2.4.7.5 2.5-.2 2.5-.2l10.5-5.9s-13.2 9.1-13.4 11c-.2 1.9 1.2 2.8 3.5 1.9 1.7-.7 13.4-8.7 13.4-8.7s-10.3 8.8-10.4 10.7c-.1 1.9 2 1.8 2.9.9.9-.9 10-7.3 10-7.3s-6.6 6.4-6.3 7.9c.3 1.5 1.9 1 3.2.4 1.3-.6 21.8-17.7 21.8-17.7l-.1-.1s72.1-25.4 79.9-38.8c4.2-7-12.1-39.7-22.7-60.6-4.5-8.8-9.4-17.2-14.7-21.6-9.9-8.4-23.1-1.8-24.5 11.1-.8 7.2 3 14.5 3 14.5l7.6 12 15.5 31 1 1.6-52.4 35.7c-2.1-.6-4-.2-6.2.1-3.4.6-6.9 1-10.4 1.1-2.6.1-5.3 0-7.9-.4-.5-.1-1 .2-1.1.7v.2c0 1.1.4 2.6 2.7 3.8 1.4.6 2.8.8 4.3.8 2.4.2 4.3.4 4.3.4s-15.6 10.7-16.6 13.1Z" fill="#fff"/><path d="M242.198 252.396c-.8 1.3-.4 2.9.9 3.7.6.4 1.5.4 2.3.2-1.9 1.6-3.1 3-3.2 3.8-.1 1.2.3 2.2 1.1 2.8.7.5 1.9.9 3.8.1.5-.2 1.9-1.1 3.5-2.1-1.1 1.3-1.9 2.4-1.9 3.1 0 1.1.4 2 1.3 2.4 1 .5 2.4.2 3.3-.7.3-.2 1.4-1.1 2.8-2.1-.6 1-.8 1.7-.7 2.2.2.9.7 1.3 1.1 1.5.4.1.7.2 1.1.2.6 0 1.5-.3 2.2-.5 1.4-.7 18.6-15 22-17.9.1-.1.2-.1.2-.2 7.1-2.6 72.2-26 79.9-39.1 3.6-6.3-6.5-29.1-22.9-61.4-3.9-7.6-9.1-17-14.9-21.9-4.7-4-10.4-5.1-15.7-3-5.7 2.3-9.7 7.9-10.5 14.7-.8 7.4 3 14.7 3.2 15.1l7.6 12 15.5 31 .5.8-51.2 34.9c-2-.5-3.8-.2-5.8.1l-.4.1c-3.3.6-6.8 1-10.2 1.1-2.5.1-5.1 0-7.6-.4-.5-.1-1 0-1.4.3-.4.3-.7.7-.8 1.2v.4c0 1.3.6 3.3 3.4 4.7 1.5.6 3 .9 4.6.9.6 0 1.1.1 1.6.1-4.9 3.4-13.7 9.7-14.7 11.9Zm32.198-18.199c-.5.2-1.1.1-1.3-.4-1.6-.4-3.2-.1-5 .2l-.4.1c-3.5.6-7 1-10.5 1.1-2.7.1-5.4 0-8-.4 0 1.2.8 2.1 2.2 2.8 1.2.5 2.5.7 3.9.7 2.5.2 4.4.4 4.4.4.4 0 .8.3.9.8.1.4-.1.8-.4 1.1-7.5 5.2-15.6 11.3-16.2 12.6 0 0-.1.1-.1.2-.2.3-.1.8.2 1l.1.1c.2 0 .9-.1 1.4-.3l10.4-5.8c.5-.3 1.1-.1 1.3.3.3.5.2 1-.3 1.4-5.8 4-12.4 9.1-12.9 10.4 0 .3 0 .8.3 1 .3.2 1 .2 1.8-.2 1.2-.5 8.5-5.4 13.2-8.6.4-.3 1-.2 1.4.2.4.4.3 1-.1 1.4-4.6 3.9-9.8 8.9-10.1 10 0 .1 0 .3.1.4.2.1.8 0 1.1-.3 1-.9 9.2-6.7 10.1-7.4.4-.3 1-.2 1.3.2.3.4.3 1-.1 1.4-2.5 2.4-5.5 5.8-5.8 6.8.1.1.6.2 1.8-.4 1.1-.6 13.4-10.8 21.2-17.3v-.1c.1-.3.3-.5.6-.6.7-.3 71.8-25.401 79.4-38.401 3.9-6.7-14.9-43.7-22.9-59.5-3.8-7.5-8.9-16.6-14.4-21.3-4.1-3.5-9.1-4.4-13.6-2.6-5 2-8.6 7-9.2 13-.8 6.8 2.9 13.8 2.9 13.9l7.6 12v.1l15.5 31 .9 1.6c.3.5.1 1-.3 1.3l-51.8 35.301c0 .3-.2.7-.6.8Z" fill="#142D6E"/><path d="m240 225.2 62.3-31.7-1.9-3.6L239 221l-22.2-6.6 23.2 10.8Z" fill="#00BC9C"/><path d="M269.998 41.605c-11.4-3.4-25.3.7-31.3 10.7-1.5 2.4-2 7.1-1.8 13 .2 4.6 6.2 45.5 12 50.4 4 3.4 16.6 2.6 20.8 2.4.6 1.3 1.1 2.5 1.6 3.8.2.6 5.5 18.8 12.4 18 7.1-.9 14.6-15.1 16.1-24.8.1-.4-3.6-8.2-7-15.3.6-2.3.7-5.3.6-8.7.8-.2 5.5-4.1 6.2-4.8 6.6-5.3 3.9-18.1-5.3-16.1-1.5.3-2.8.7-3.9 2.1-2-7.6-4.8-14.6-7.6-18-2.1-2.6-4.7-4.5-7.6-5.9-1.5-2.4-3.2-4.7-5.2-6.8Z" fill="#fff"/><path d="M237.898 51.796c-1.9 3.2-2.1 9.1-1.9 13.5.2 3.8 6 45.7 12.4 51.1 4.1 3.5 15.7 2.9 20.8 2.7.5 1.1.9 2.1 1.3 3.1 1.3 4.5 6.1 18.7 12.8 18.7.1 0 .3 0 .6.1 8-1 15.6-16.1 17-25.6.1-.5.1-.7-5.2-11.9l-1.7-3.6c.4-2.1.6-4.8.5-8 1.8-1.1 5.3-4.1 5.9-4.7 4.2-3.5 4.8-9.7 2.9-13.6-1.7-3.6-5.1-5.2-9.1-4.3-1 .2-2.1.5-3.1 1.2-2.1-7.6-4.7-13.7-7.3-16.8-2.1-2.5-4.6-4.5-7.7-6-1.6-2.4-3.3-4.7-5.2-6.7-.2-.2-.3-.3-.5-.3-12.5-3.7-26.4 1.1-32.5 11.1Zm31.806 65.306c.4 0 .7.2.9.6.7 1.4 1.2 2.7 1.6 3.9v.1c2 6.7 6.6 17.8 11.3 17.3 6.2-.8 13.7-13.9 15.2-23.8-.4-1.1-2.8-6.3-5-10.9l-1.9-4c-.1-.2-.1-.4-.1-.7.5-2.2.7-5 .5-8.4 0-.5.3-.9.7-1 .7-.3 5.1-3.8 5.8-4.6l.1-.1c3.5-2.9 4-8 2.4-11.2-1.3-2.7-3.8-3.8-6.9-3.2-1.6.3-2.5.7-3.3 1.7-.2.3-.6.4-1 .4-.4-.1-.7-.4-.8-.7-2.1-8-4.8-14.6-7.4-17.7-1.9-2.3-4.4-4.2-7.3-5.6-.2-.1-.3-.2-.4-.4-1.5-2.3-3.1-4.4-4.9-6.4-11.4-3.2-24.5 1.3-29.9 10.3-1.3 2.2-1.9 6.6-1.6 12.4.3 4.8 6.3 45.2 11.7 49.7 3.5 3 15.1 2.4 19.5 2.2l.8.1Z" fill="#142D6E"/><path d="M265.001 84.8c3.2-.8 1.7-7.8-1.8-6.9-2.9.8-1.4 7.8 1.8 6.9ZM247.705 88.203c3.2-.5 1.9-7.5-1-7.1-3.5.5-2.3 7.5 1 7.1ZM264.899 104.2c5-2.7 4.8-6.2 4.8-6.3 0-.5-.5-.9-1-.9-.6 0-1 .5-1 1 0 .1 0 2.4-3.8 4.4-.5.3-.7.9-.4 1.4.2.3.5.5.9.5.2 0 .3 0 .5-.1Z" fill="#142D6E"/><path d="M255.6 92.1s-4.8 1.5-4 3.9c.8 2.4 5.7 1.1 5.7 1.1l-5.4-19.5 3.7 14.5Z" fill="#fff"/><path d="M250.899 94.2c-.4.7-.4 1.4-.2 2.1.6 1.7 2.3 2.1 3.9 2.1 1.4 0 2.7-.3 2.8-.5.5-.1.8-.7.7-1.2-.1-.5-.7-.8-1.2-.7-1.3.4-4 .6-4.4-.4 0-.1 0-.3.1-.5.5-.9 2.3-1.8 3.3-2.1.5-.2.8-.7.7-1.2l-3.7-14.5c-.1-.5-.7-.8-1.2-.7-.5.1-.8.7-.7 1.2l3.5 13.7c-1.1.4-2.9 1.3-3.6 2.7ZM270.403 71.903c.3-.5.2-1.1-.3-1.4-4.9-3-10.2-.9-10.4-.8-.5.2-.7.8-.5 1.3.2.5.8.7 1.3.5.1-.1 4.6-1.9 8.6.6.1.2.3.2.5.2.3 0 .7-.2.8-.4ZM241.595 76.799c2.7-2 6-1.8 6-1.8.6.1 1.1-.4 1.1-.9.1-.6-.3-1.1-.9-1.1-.2 0-4.1-.3-7.4 2.2-.4.3-.5 1-.2 1.4.2.3.5.4.8.4.2 0 .4 0 .6-.2Z" fill="#142D6E"/><path d="M276.404 82.403c.1-2.7-.9-5.3-2.8-7.3s-4.5-3.1-7.2-3.2c-2.7-.1-5.3.9-7.3 2.8s-3.1 4.5-3.2 7.2c-.2 5.7 4.3 10.4 10 10.5h.2c5.5 0 10.1-4.4 10.3-10Zm-10.504 8c4.5.1 8.4-3.5 8.5-8.1.1-2.2-.8-4.3-2.3-5.9-1.5-1.6-3.6-2.5-5.8-2.6-2.2-.1-4.3.8-5.9 2.3-1.6 1.5-2.5 3.6-2.6 5.8-.1 4.6 3.5 8.4 8.1 8.5Zm-9.1-8.5h1-1Zm1 0h-1 1ZM246.497 95.904c2.1-.5 3.9-2 4.9-4.2.9-2.1 1.1-4.7.5-7.1-1.3-5.1-5.9-8.3-10.2-7.2-2.1.5-3.9 2-4.9 4.2-.9 2.1-1.1 4.7-.5 7.1.6 2.4 2 4.5 3.9 5.9 1.5 1.1 3 1.6 4.6 1.6.6 0 1.2-.1 1.7-.3ZM242.304 79.4c-1.5.4-2.8 1.5-3.6 3.1-.8 1.7-.9 3.7-.4 5.7s1.6 3.7 3.2 4.8c1.5 1.1 3.1 1.4 4.6 1 1.5-.4 2.8-1.5 3.6-3.1.8-1.7.9-3.7.4-5.7-.9-3.6-3.7-6-6.6-6-.4 0-.8.1-1.2.2Z" fill="#FFC412"/><path d="m275.595 80.297 11.81-4.6c.6-.2.79-.8.6-1.3-.21-.5-.81-.8-1.31-.6l-11.8 4.6c-.6.2-.79.8-.6 1.3.1.4.5.6.9.6h.4ZM251.696 85.5c1.9-2.1 4.8-1.2 4.9-1.2.6.2 1.1-.1 1.3-.6.2-.6-.1-1.1-.6-1.3-.2 0-4.2-1.3-7 1.8-.3.4-.3 1 .1 1.4.2.2.5.3.7.3.2 0 .5-.1.6-.4Z" fill="#FFC412"/><path d="M283.003 40.5c-.9 0-1.9.1-2.7.3-.7-4.9-4.9-8.6-9.9-8.7-1.1 0-2.2.1-3.2.5-1.1.3-2.1.7-3.2.9-7.7 1.8-16.6 6.3-16.6 6.3-1.6-2.5-3.8-4.5-6.4-6-2.5-1.5-5.8-.7-7.3 1.9 0 .1-.1.1-.1.2-3.2-3.2-7.5-3.7-9.6-1.2-4.1 4.4-2.7 26.6 9.1 31.8 14.1 6.3 28.9-9.9 28.9-9.9 3.2 5.2 9.5 7.7 15.4 6.1 0 0 6.4 20.8 12 19.7 7.3-1.4 6.3-23.4 3.6-32.8-1.3-5.2-4.8-9-10-9.1ZM351.804 245.998c-.1-.5-.7-.9-1.2-.7-.5.1-.9.7-.7 1.2l1.5 5.2-90.4 12.8c-.5 0-.9.6-.8 1.1.1.5.5.9 1 .9h.1l91.5-13c.3 0 .6-.2.7-.4.1-.2.2-.5.1-.8l-1.8-6.3Z" fill="#142D6E"/><path d="m287.2 267.797 1-12c.1-.6-.4-1.1-.9-1.1-.6-.1-1.1.4-1.1.9l-1 12c0 .6.4 1.1 1 1.1s1-.4 1-.9ZM295.8 265.6l-.8-11.2c-.1-.5-.6-.9-1.1-.9-.5.1-.9.5-.9 1.1l.8 11.2c0 .5.5.9 1 .9.6 0 1-.5 1-1.1Z" fill="#142D6E"/></g></svg>