<svg viewBox="0 0 400 300" fill="none" xmlns="http://www.w3.org/2000/svg"><mask id="a" style="mask-type:alpha" maskUnits="userSpaceOnUse" x="31" y="31" width="338" height="239"><path d="M368.5 31H31v238.6h337.5V31Z" fill="#fff"/></mask><g mask="url(#a)" fill-rule="evenodd" clip-rule="evenodd"><path d="M98 245.4h258.4l12.1-205.8H98v205.8Z" fill="#E0E0E0"/><path d="M191.1 51.1 185.3 31H86.5l.2 20.1 2 194.3h266.1l-2-194.3H191.1Z" fill="#F5F5F5"/><path d="M163.6 41.4H67.7l-.1 21.3h-.1v205.8H326V62.7H169.1l-5.5-21.3Z" fill="#03D5B7"/><path d="M326.505 264.505c-.1-.5-.6-.9-1.2-.8-.5.1-.9.7-.8 1.2l.5 3.1c-.1.2-.1.3-.1.5 0 .6.4 1 1 1h.2c.3 0 .6-.1.8-.5.2-.2.2-.5.2-.8l-.6-3.7ZM322.9 268.5c0-.6-.4-1-1-1h-4c-.6 0-1 .4-1 1s.4 1 1 1h4c.6 0 1-.4 1-1ZM314.9 268.5c0-.6-.4-1-1-1h-4c-.6 0-1 .4-1 1s.4 1 1 1h4c.6 0 1-.4 1-1ZM306.9 268.5c0-.6-.4-1-1-1h-4c-.6 0-1 .4-1 1s.4 1 1 1h4c.6 0 1-.4 1-1ZM298.9 268.5c0-.6-.4-1-1-1h-4c-.6 0-1 .4-1 1s.4 1 1 1h4c.6 0 1-.4 1-1ZM290.9 268.5c0-.6-.4-1-1-1h-4c-.6 0-1 .4-1 1s.4 1 1 1h4c.6 0 1-.4 1-1ZM282.9 268.5c0-.6-.4-1-1-1h-4c-.6 0-1 .4-1 1s.4 1 1 1h4c.6 0 1-.4 1-1ZM274.9 268.5c0-.6-.4-1-1-1h-4c-.6 0-1 .4-1 1s.4 1 1 1h4c.6 0 1-.4 1-1ZM266.9 268.5c0-.6-.4-1-1-1h-4c-.6 0-1 .4-1 1s.4 1 1 1h4c.6 0 1-.4 1-1ZM258.9 268.5c0-.6-.4-1-1-1h-4c-.6 0-1 .4-1 1s.4 1 1 1h4c.6 0 1-.4 1-1ZM250.9 268.5c0-.6-.4-1-1-1h-4c-.6 0-1 .4-1 1s.4 1 1 1h4c.6 0 1-.4 1-1ZM242.9 268.5c0-.6-.4-1-1-1h-4c-.6 0-1 .4-1 1s.4 1 1 1h4c.6 0 1-.4 1-1ZM234.9 268.5c0-.6-.4-1-1-1h-4c-.6 0-1 .4-1 1s.4 1 1 1h4c.6 0 1-.4 1-1ZM226.9 268.5c0-.6-.4-1-1-1h-4c-.6 0-1 .4-1 1s.4 1 1 1h4c.6 0 1-.4 1-1ZM218.9 268.5c0-.6-.4-1-1-1h-4c-.6 0-1 .4-1 1s.4 1 1 1h4c.6 0 1-.4 1-1ZM210.9 268.5c0-.6-.4-1-1-1h-4c-.6 0-1 .4-1 1s.4 1 1 1h4c.6 0 1-.4 1-1ZM202.9 268.5c0-.6-.4-1-1-1h-4c-.6 0-1 .4-1 1s.4 1 1 1h4c.6 0 1-.4 1-1ZM194.9 268.5c0-.6-.4-1-1-1h-4c-.6 0-1 .4-1 1s.4 1 1 1h4c.6 0 1-.4 1-1ZM186.9 268.5c0-.6-.4-1-1-1h-4c-.6 0-1 .4-1 1s.4 1 1 1h4c.6 0 1-.4 1-1ZM178.9 268.5c0-.6-.4-1-1-1h-4c-.6 0-1 .4-1 1s.4 1 1 1h4c.6 0 1-.4 1-1ZM170.9 268.5c0-.6-.4-1-1-1h-4c-.6 0-1 .4-1 1s.4 1 1 1h4c.6 0 1-.4 1-1ZM162.9 268.5c0-.6-.4-1-1-1h-4c-.6 0-1 .4-1 1s.4 1 1 1h4c.6 0 1-.4 1-1ZM154.9 268.5c0-.6-.4-1-1-1h-4c-.6 0-1 .4-1 1s.4 1 1 1h4c.6 0 1-.4 1-1ZM146.9 268.5c0-.6-.4-1-1-1h-4c-.6 0-1 .4-1 1s.4 1 1 1h4c.6 0 1-.4 1-1ZM138.9 268.5c0-.6-.4-1-1-1h-4c-.6 0-1 .4-1 1s.4 1 1 1h4c.6 0 1-.4 1-1ZM130.9 268.5c0-.6-.4-1-1-1h-4c-.6 0-1 .4-1 1s.4 1 1 1h4c.6 0 1-.4 1-1ZM122.9 268.5c0-.6-.4-1-1-1h-4c-.6 0-1 .4-1 1s.4 1 1 1h4c.6 0 1-.4 1-1ZM114.9 268.5c0-.6-.4-1-1-1h-4c-.6 0-1 .4-1 1s.4 1 1 1h4c.6 0 1-.4 1-1ZM106.9 268.5c0-.6-.4-1-1-1h-4c-.6 0-1 .4-1 1s.4 1 1 1h4c.6 0 1-.4 1-1ZM98.9 268.5c0-.6-.4-1-1-1h-4c-.6 0-1 .4-1 1s.4 1 1 1h4c.6 0 1-.4 1-1ZM90.9 268.5c0-.6-.4-1-1-1h-4c-.6 0-1 .4-1 1s.4 1 1 1h4c.6 0 1-.4 1-1ZM82.9 268.5c0-.6-.4-1-1-1h-4c-.6 0-1 .4-1 1s.4 1 1 1h4c.6 0 1-.4 1-1ZM74.9 268.5c0-.6-.4-1-1-1h-4c-.6 0-1 .4-1 1s.4 1 1 1h4c.6 0 1-.4 1-1ZM67.505 267.805c.5-.1.9-.7.8-1.2l-.7-3.9c-.1-.5-.6-.9-1.2-.8-.5.1-.9.7-.8 1.2l.7 3.9c.1.5.5.8 1 .8h.2ZM325.005 261.805c.5-.1.9-.7.8-1.2l-.7-3.9c-.1-.5-.6-.9-1.2-.8-.5.1-.9.7-.8 1.2l.7 3.9c.1.5.5.8 1 .8h.2ZM66.204 259.905c.5-.1.9-.7.8-1.2l-.7-3.9c-.1-.5-.7-.9-1.2-.8-.5.1-.9.7-.8 1.2l.7 3.9c.1.5.5.8 1 .8h.2ZM323.704 253.905c.5-.1.9-.7.8-1.2l-.7-3.9c-.1-.5-.6-.9-1.2-.8-.5.1-.9.7-.8 1.2l.7 3.9c.1.5.5.8 1 .8h.2ZM64.805 252.005c.5-.1.9-.7.8-1.2l-.7-3.9c-.1-.5-.6-.9-1.2-.8-.5.1-.9.7-.8 1.2l.7 3.9c.1.5.5.8 1 .8h.2ZM322.305 246.005c.5-.1.9-.7.8-1.2l-.7-3.9c-.1-.5-.6-.9-1.2-.8-.5.1-.9.7-.8 1.2l.7 3.9c.1.5.5.8 1 .8h.2ZM63.505 244.105c.5-.1.9-.7.8-1.2l-.7-3.9c-.1-.5-.6-.9-1.2-.8-.5.1-.9.7-.8 1.2l.7 3.9c.1.5.5.8 1 .8h.2ZM321.005 238.105c.5-.1.9-.7.8-1.2l-.7-3.9c-.1-.5-.6-.9-1.2-.8-.5.1-.9.7-.8 1.2l.7 3.9c.1.5.5.8 1 .8h.2ZM62.104 236.205c.5-.1.9-.7.8-1.2l-.7-3.9c-.1-.5-.6-.9-1.2-.8-.5.1-.9.7-.8 1.2l.7 3.9c.1.5.5.8 1 .8h.2ZM319.604 230.305c.5-.1.9-.7.8-1.2l-.7-3.9c-.1-.5-.6-.9-1.2-.8-.5.1-.9.7-.8 1.2l.7 3.9c.1.5.5.8 1 .8h.2ZM60.805 228.405c.5-.1.9-.7.8-1.2l-.7-3.9c-.1-.5-.6-.9-1.2-.8-.5.1-.9.7-.8 1.2l.7 3.9c.1.5.5.8 1 .8h.2ZM318.305 222.405c.5-.1.9-.7.8-1.2l-.7-3.9c-.1-.5-.6-.9-1.2-.8-.5.1-.9.7-.8 1.2l.7 3.9c.1.5.5.8 1 .8h.2ZM59.405 220.505c.5-.1.9-.7.8-1.2l-.7-3.9c-.1-.5-.6-.9-1.2-.8-.5.1-.9.7-.8 1.2l.7 3.9c.1.5.5.8 1 .8h.2ZM316.905 214.505c.5-.1.9-.7.8-1.2l-.7-3.9c-.1-.5-.6-.9-1.2-.8-.5.1-.9.7-.8 1.2l.7 3.9c.1.5.5.8 1 .8h.2ZM58.104 212.605c.5-.1.9-.7.8-1.2l-.7-3.9c-.1-.5-.6-.9-1.2-.8-.5.1-.9.7-.8 1.2l.7 3.9c.1.5.5.8 1 .8h.2ZM315.604 206.605c.5-.1.9-.7.8-1.2l-.7-3.9c-.1-.5-.6-.9-1.2-.8-.5.1-.9.7-.8 1.2l.7 3.9c.1.5.5.8 1 .8h.2ZM56.805 204.705c.5-.1.9-.7.8-1.2l-.7-3.9c-.1-.5-.6-.9-1.2-.8-.5.1-.9.7-.8 1.2l.7 3.9c.1.5.5.8 1 .8h.2ZM314.204 198.705c.5-.1.9-.7.8-1.2l-.7-3.9c-.1-.5-.6-.9-1.2-.8-.5.1-.9.7-.8 1.2l.7 3.9c.1.5.5.8 1 .8h.2ZM55.405 196.805c.5-.1.9-.7.8-1.2l-.7-3.9c-.1-.5-.6-.9-1.2-.8-.5.1-.9.7-.8 1.2l.7 3.9c.1.5.5.8 1 .8h.2ZM312.905 190.805c.5-.1.9-.7.8-1.2l-.7-3.9c-.1-.5-.6-.9-1.2-.8-.5.1-.9.7-.8 1.2l.7 3.9c.1.5.5.8 1 .8h.2ZM54.104 188.905c.5-.1.9-.7.8-1.2l-.7-3.9c-.1-.5-.6-.9-1.2-.8-.5.1-.9.7-.8 1.2l.7 3.9c.1.5.5.8 1 .8h.2ZM311.505 182.905c.5-.1.9-.7.8-1.2l-.7-3.9c-.1-.5-.6-.9-1.2-.8-.5.1-.9.7-.8 1.2l.7 3.9c.1.5.5.8 1 .8h.2ZM52.705 181.105c.5-.1.9-.7.8-1.2l-.7-3.9c-.1-.5-.6-.9-1.2-.8-.5.1-.9.7-.8 1.2l.7 3.9c.1.5.5.8 1 .8.1 0 .1-.1.2 0ZM310.204 175.105c.5-.1.9-.7.8-1.2l-.7-3.9c-.1-.5-.6-.9-1.2-.8-.5.1-.9.7-.8 1.2l.7 3.9c.1.5.5.8 1 .8h.2ZM51.405 173.205c.5-.1.9-.7.8-1.2l-.7-3.9c-.1-.5-.6-.9-1.2-.8-.5.1-.9.7-.8 1.2l.7 3.9c.1.5.5.8 1 .8h.2ZM308.805 167.205c.5-.1.9-.7.8-1.2l-.7-3.9c-.1-.5-.6-.9-1.2-.8-.5.1-.9.7-.8 1.2l.7 3.9c.1.5.5.8 1 .8h.2ZM50.005 165.305c.5-.1.9-.7.8-1.2l-.7-3.9c-.1-.5-.6-.9-1.2-.8-.5.1-.9.7-.8 1.2l.7 3.9c.1.5.5.8 1 .8h.2ZM307.505 159.305c.5-.1.9-.7.8-1.2l-.7-3.9c-.1-.5-.6-.9-1.2-.8-.5.1-.9.7-.8 1.2l.7 3.9c.1.5.5.8 1 .8h.2ZM48.705 157.405c.5-.1.9-.7.8-1.2l-.7-3.9c-.1-.5-.6-.9-1.2-.8-.5.1-.9.7-.8 1.2l.7 3.9c.1.5.5.8 1 .8h.2ZM306.104 151.405c.5-.1.9-.7.8-1.2l-.7-3.9c-.1-.5-.6-.9-1.2-.8-.5.1-.9.7-.8 1.2l.7 3.9c.1.5.5.8 1 .8h.2ZM47.305 149.505c.5-.1.9-.7.8-1.2l-.7-3.9c-.1-.5-.6-.9-1.2-.8-.5.1-.9.7-.8 1.2l.7 3.9c.1.5.5.8 1 .8h.2ZM304.805 143.505c.5-.1.9-.7.8-1.2l-.7-3.9c-.1-.5-.6-.9-1.2-.8-.5.1-.9.7-.8 1.2l.7 3.9c.1.5.5.8 1 .8h.2ZM46.005 141.605c.5-.1.9-.7.8-1.2l-.7-3.9c-.1-.5-.6-.9-1.2-.8-.5.1-.9.7-.8 1.2l.7 3.9c.1.5.5.8 1 .8h.2ZM303.405 135.605c.5-.1.9-.7.8-1.2l-.7-3.9c-.1-.5-.6-.9-1.2-.8-.5.1-.9.7-.8 1.2l.7 3.9c.1.5.5.8 1 .8h.2ZM44.604 133.705c.5-.1.9-.7.8-1.2l-.7-3.9c-.1-.5-.6-.9-1.2-.8-.5.1-.9.7-.8 1.2l.7 3.9c.1.5.5.8 1 .8h.2ZM302.104 127.705c.5-.1.9-.7.8-1.2l-.7-3.9c-.1-.5-.6-.9-1.2-.8-.5.1-.9.7-.8 1.2l.7 3.9c.1.5.5.8 1 .8h.2ZM43.305 125.905c.5-.1.9-.7.8-1.2l-.7-3.9c-.1-.5-.6-.9-1.2-.8-.5.1-.9.7-.8 1.2l.7 3.9c.1.5.5.8 1 .8 0 0 .1-.1.2 0ZM300.704 119.905c.5-.1.9-.7.8-1.2l-.7-3.9c-.1-.5-.6-.9-1.2-.8-.5.1-.9.7-.8 1.2l.7 3.9c.1.5.5.8 1 .8h.2ZM42 117.905c.5-.1.9-.7.8-1.2l-.7-3.9c-.1-.5-.6-.9-1.2-.8-.6.1-.9.7-.9 1.2l.7 4c.1.5.5.8 1 .8.1 0 .1 0 .3-.1ZM299.405 112.005c.5-.1.9-.7.8-1.2l-.7-3.9c-.1-.5-.6-.9-1.2-.8-.5.1-.9.7-.8 1.2l.7 3.9c.1.5.5.8 1 .8h.2ZM40.604 110.105c.5-.1.9-.7.8-1.2l-.7-3.9c-.1-.5-.6-.9-1.2-.8-.5.1-.9.7-.8 1.2l.7 3.9c.1.5.5.8 1 .8h.2ZM298.005 104.105c.5-.1.9-.7.8-1.2l-.7-3.9c-.1-.5-.6-.9-1.2-.8-.5.1-.9.7-.8 1.2l.7 3.9c.1.5.5.8 1 .8h.2ZM39.205 102.205c.5-.1.9-.7.8-1.2l-.7-3.9c-.1-.5-.6-.9-1.2-.8-.5.1-.9.7-.8 1.2l.7 3.9c.1.5.5.8 1 .8h.2ZM296.704 96.205c.5-.1.9-.7.8-1.2l-.7-3.9c-.1-.5-.6-.9-1.2-.8-.5.1-.9.7-.8 1.2l.7 3.9c.1.5.5.8 1 .8h.2ZM37.905 94.205c.5-.1.9-.7.8-1.2l-.7-3.9c-.1-.5-.6-.9-1.2-.8-.5.1-.9.7-.8 1.2l.7 4c.1.5.5.8 1 .8 0 0 .1 0 .2-.1ZM295.305 88.305c.5-.1.9-.7.8-1.2l-.7-3.9c-.1-.5-.6-.9-1.2-.8-.5.1-.9.7-.8 1.2l.7 3.9c.1.5.5.8 1 .8h.2ZM36.505 86.405c.5-.1.9-.7.8-1.2l-.7-3.9c-.1-.5-.6-.9-1.2-.8-.5.1-.9.7-.8 1.2l.7 3.9c.1.5.5.8 1 .8h.2ZM294.8 79.8c0-.6-.4-1-1-1h-4c-.6 0-1 .4-1 1s.4 1 1 1h4c.6 0 1-.4 1-1ZM286.8 79.8c0-.6-.4-1-1-1h-4c-.6 0-1 .4-1 1s.4 1 1 1h4c.6 0 1-.4 1-1ZM278.8 79.8c0-.6-.4-1-1-1h-4c-.6 0-1 .4-1 1s.4 1 1 1h4c.6 0 1-.4 1-1ZM270.8 79.8c0-.6-.4-1-1-1h-4c-.6 0-1 .4-1 1s.4 1 1 1h4c.6 0 1-.4 1-1ZM262.8 79.8c0-.6-.4-1-1-1h-4c-.6 0-1 .4-1 1s.4 1 1 1h4c.6 0 1-.4 1-1ZM254.8 79.8c0-.6-.4-1-1-1h-4c-.6 0-1 .4-1 1s.4 1 1 1h4c.6 0 1-.4 1-1ZM246.8 79.8c0-.6-.4-1-1-1h-4c-.6 0-1 .4-1 1s.4 1 1 1h4c.6 0 1-.4 1-1ZM238.8 79.8c0-.6-.4-1-1-1h-4c-.6 0-1 .4-1 1s.4 1 1 1h4c.6 0 1-.4 1-1ZM230.8 79.8c0-.6-.4-1-1-1h-4c-.6 0-1 .4-1 1s.4 1 1 1h4c.6 0 1-.4 1-1ZM222.8 79.8c0-.6-.4-1-1-1h-4c-.6 0-1 .4-1 1s.4 1 1 1h4c.6 0 1-.4 1-1ZM214.8 79.8c0-.6-.4-1-1-1h-4c-.6 0-1 .4-1 1s.4 1 1 1h4c.6 0 1-.4 1-1ZM206.8 79.8c0-.6-.4-1-1-1h-4c-.6 0-1 .4-1 1s.4 1 1 1h4c.6 0 1-.4 1-1ZM198.8 79.8c0-.6-.4-1-1-1h-4c-.6 0-1 .4-1 1s.4 1 1 1h4c.6 0 1-.4 1-1ZM190.8 79.8c0-.6-.4-1-1-1h-4c-.6 0-1 .4-1 1s.4 1 1 1h4c.6 0 1-.4 1-1ZM182.8 79.8c0-.6-.4-1-1-1h-4c-.6 0-1 .4-1 1s.4 1 1 1h4c.6 0 1-.4 1-1ZM174.8 79.8c0-.6-.4-1-1-1h-4c-.6 0-1 .4-1 1s.4 1 1 1h4c.6 0 1-.4 1-1ZM166.8 79.8c0-.6-.4-1-1-1h-4c-.6 0-1 .4-1 1s.4 1 1 1h4c.6 0 1-.4 1-1ZM158.8 79.8c0-.6-.4-1-1-1h-4c-.6 0-1 .4-1 1s.4 1 1 1h4c.6 0 1-.4 1-1ZM150.8 79.8c0-.6-.4-1-1-1h-4c-.6 0-1 .4-1 1s.4 1 1 1h4c.6 0 1-.4 1-1ZM142.8 79.8c0-.6-.4-1-1-1h-4c-.6 0-1 .4-1 1s.4 1 1 1h4c.6 0 1-.4 1-1ZM35.205 78.505c.5-.1.9-.7.8-1.2l-.7-3.9c-.1-.5-.6-.9-1.2-.8-.5.1-.9.7-.8 1.2l.7 3.9c.1.5.5.8 1 .8h.2ZM136.003 77.903c.5-.2.7-.8.5-1.3l-1.7-3.6c-.2-.5-.8-.7-1.3-.5-.5.2-.7.8-.5 1.3l1.7 3.6c.2.4.5.6.9.6.1 0 .3 0 .4-.1ZM132.704 70.604c.5-.2.7-.8.5-1.3l-1.7-3.6c-.2-.5-.8-.7-1.3-.5-.5.2-.7.8-.5 1.3l1.7 3.6c.2.4.5.6.9.6.1 0 .3 0 .4-.1ZM33.905 70.605c.5-.1.9-.7.8-1.2l-.7-3.9c-.1-.5-.6-.9-1.2-.8-.5.1-.9.7-.8 1.2l.6 4c.1.5.5.8 1 .8.1 0 .1 0 .3-.1ZM128.9 59.8c-.2-.4-.5-.6-.9-.6h-1.5c-.6 0-1 .4-1 1s.4 1 1 1h.9l.7 1.7c.2.4.5.6.9.6.1 0 .3-.1.4-.2.5-.2.7-.8.5-1.3l-1-2.2ZM33.3 61.6l-.1-.4h1.2c.6 0 1-.4 1-1s-.4-1-1-1H32c-.3 0-.6.2-.8.4-.2.2-.2.5-.2.8l.3 1.6c.1.5.5.8 1 .8h.2c.5-.1.9-.7.8-1.2ZM123.4 60.2c0-.6-.4-1-1-1h-4c-.6 0-1 .4-1 1s.4 1 1 1h4c.6 0 1-.4 1-1ZM115.4 60.2c0-.6-.4-1-1-1h-4c-.6 0-1 .4-1 1s.4 1 1 1h4c.6 0 1-.4 1-1ZM107.4 60.2c0-.6-.4-1-1-1h-4c-.6 0-1 .4-1 1s.4 1 1 1h4c.6 0 1-.4 1-1ZM99.4 60.2c0-.6-.4-1-1-1h-4c-.6 0-1 .4-1 1s.4 1 1 1h4c.6 0 1-.4 1-1ZM91.4 60.2c0-.6-.4-1-1-1h-4c-.6 0-1 .4-1 1s.4 1 1 1h4c.6 0 1-.4 1-1ZM83.4 60.2c0-.6-.4-1-1-1h-4c-.6 0-1 .4-1 1s.4 1 1 1h4c.6 0 1-.4 1-1ZM75.4 60.2c0-.6-.4-1-1-1h-4c-.6 0-1 .4-1 1s.4 1 1 1h4c.6 0 1-.4 1-1ZM67.4 60.2c0-.6-.4-1-1-1h-4c-.6 0-1 .4-1 1s.4 1 1 1h4c.6 0 1-.4 1-1ZM59.4 60.2c0-.6-.4-1-1-1h-4c-.6 0-1 .4-1 1s.4 1 1 1h4c.6 0 1-.4 1-1ZM51.4 60.2c0-.6-.4-1-1-1h-4c-.6 0-1 .4-1 1s.4 1 1 1h4c.6 0 1-.4 1-1ZM43.4 60.2c0-.6-.4-1-1-1h-4c-.6 0-1 .4-1 1s.4 1 1 1h4c.6 0 1-.4 1-1Z" fill="#00BC9C"/><path d="M264.9 267.8c2-.7.2-6.7-2.1-8.5-2.4-1.8-25.3-11.9-25.3-11.9l.1-7-6.5-31.8-39.9.4 7.6 31.8c0 2.4.1 4.7.2 7 .4 10.5.9 19.2 1.8 19.7 2.3 1.4 62 1 64.1.3Z" fill="#fff"/><path d="M266.801 266.8c.4-2.5-1.4-6.7-3.4-8.3-2.3-1.8-20.7-10-24.9-11.8l.1-6.3v-.2l-6.5-31.8c-.1-.5-.5-.8-1-.8l-39.9.4c-.3 0-.6.2-.8.4-.2.2-.3.5-.2.8l7.6 31.7c0 2.3.1 4.7.2 6.9.7 19.6 1.6 20.2 2.3 20.6 1.2.7 11.8 1.1 31.5 1.1h1.2c11.7 0 30.8-.2 32.3-.7.5-.2 1.3-.6 1.5-2Zm-2.201.1c.1 0 .1-.2.2-.4.3-1.6-1-5.1-2.6-6.4-1.6-1.3-15.9-7.7-25-11.8-.4-.2-.6-.5-.6-.9l.1-6.9-6.3-30.9-37.8.4 7.3 30.6v.2c.1 2.4.1 4.7.2 7 .4 14.3 1 18 1.4 18.9 4.4 1.2 60.3.8 63.1.2Z" fill="#142D6E"/><path d="M262.8 259.3c-2.4-1.8-25.3-11.9-25.3-11.9l.1-7-38.8.4c.3 13.4.9 26 2 26.7 2.3 1.4 62 1 64.1.3 2-.7.2-6.7-2.1-8.5Z" fill="#fff"/><path d="M197.8 240.8c.7 26.5 1.7 27.1 2.5 27.6 1.2.7 11.8 1.1 31.5 1.1h1.2c11.7 0 30.8-.2 32.3-.7.5-.2 1.3-.6 1.5-2 .4-2.5-1.4-6.7-3.4-8.3-2.3-1.8-20.7-10-24.9-11.8l.1-6.3c0-.2-.1-.5-.3-.7-.2-.2-.4-.3-.7-.3l-38.8.4c-.3 0-.5.1-.7.3-.2.2-.3.4-.3.7Zm66.8 26.1c.1 0 .1-.2.2-.4.3-1.6-1-5.1-2.6-6.4-1.6-1.3-15.9-7.7-25-11.8-.4-.2-.6-.5-.6-.9l.1-6-36.8.4c.4 19.6 1.2 24 1.6 24.9 4.4 1.2 60.3.8 63.1.2Z" fill="#142D6E"/><path d="M262.8 259.3c-2.4-1.8-25.3-11.9-25.3-11.9l-38.5.4c.4 10.5.9 19.2 1.8 19.7 2.3 1.4 62 1 64.1.3 2-.7.2-6.7-2.1-8.5Z" fill="#fff"/><path d="M199 246.8c-.3 0-.5.1-.7.3-.2.2-.3.4-.3.7.7 19.6 1.6 20.2 2.3 20.6 1.2.7 11.8 1.1 31.5 1.1h1.1c11.7 0 30.9-.2 32.3-.7.5-.2 1.3-.6 1.5-2 .5-2.5-1.3-6.7-3.3-8.3-2.4-1.8-23.1-11-25.5-12-.1-.1-.3-.1-.4-.1l-38.5.4Zm65.6 20.1c.1 0 .1-.2.2-.4.3-1.6-1-5.1-2.6-6.4-1.6-1.3-15.7-7.7-24.8-11.7l-37.3.4c.4 13.5 1 17.1 1.4 17.9 4.4 1.2 60.3.8 63.1.2Z" fill="#142D6E"/><path d="M206.304 261.099c4.5 0 4.4-7.1-.1-7-4.5 0-4.4 7 .1 7Z" fill="#fff"/><path d="M210.102 260c.8-1.4.8-3.4-.1-4.8-.8-1.3-2.2-2-3.8-2-1.6 0-2.9.8-3.7 2.1-.9 1.4-.8 3.4 0 4.8.8 1.3 2.1 2 3.7 2 1.7 0 3-.8 3.9-2.1Zm-5.997-3.8c-.5.8-.5 2 0 2.8.3.5.9 1.1 2 1.1s1.7-.6 2-1.1c.5-.8.5-2 0-2.8-.2-.5-.8-1.1-1.9-1.1-1.2 0-1.8.6-2.1 1.1Z" fill="#142D6E"/><path d="M180.8 145.605c-8.3 5.9-36.2 40.8-49.6 54.9-3.9 4.1-7.2 3.6-7.2 3.6l-31.3 28.3c41.5 42.5 90.4-43.5 90.4-43.5l13.1 48.7 43.9-.4s-14.2-70.3-22.5-84.4c-7.7-12.9-26.1-15-36.8-7.2Z" fill="#fff"/><path d="M240.7 237.902c.2-.2.3-.5.2-.8-.5-2.9-14.3-70.6-22.6-84.7-3.5-6-9.5-10.2-16.8-11.7-7.6-1.6-15.6-.1-21.4 4-5.1 3.7-17.5 18.1-29.4 32-7.8 9.1-15.1 17.6-20.3 23.1-3.4 3.6-6.2 3.3-6.3 3.3-.3-.1-.6 0-.8.2l-31.3 28.4c-.2.2-.3.4-.3.7 0 .2.1.5.3.7 7.8 8 16.5 12.1 25.8 12.1 1.4 0 2.9-.1 4-.1 29-3.8 54.8-43.8 60.7-53.5l12.5 46.4c.2.4.5.7 1 .7l43.9-.4c.3 0 .6-.2.8-.4Zm-43.7-1.203 41.9-.4c-1.9-9.3-14.6-70.1-22.2-82.9-3.2-5.5-8.8-9.3-15.5-10.7-7.1-1.5-14.5-.1-19.8 3.7-4.9 3.6-17.2 17.9-29.1 31.7-7.8 9.1-15.1 17.6-20.4 23.1-3.3 3.5-6.4 3.9-7.6 3.9l-30.1 27.4c8.4 8.3 17.7 11.8 27.7 10.5 31.4-4 60.1-54 60.4-54.5.2-.4.6-.6 1-.5.4.1.7.3.8.7l12.9 48Z" fill="#142D6E"/><path d="m289.9 178.203-7 .8-31.7 3.7 5.8 39.5s16.2-2.3 31.5-4.8c2.4-.4 4.7-.8 6.9-1.2 10.4-1.8 18.9-3.6 19.3-4.5 1.1-2.5-7.4-61.5-8.4-63.5s-6.5.9-8 3.4-8.4 26.6-8.4 26.6Z" fill="#fff"/><path d="M250.3 181.897c-.2.3-.2.5-.2.8l5.8 39.5c.1.5.5.9 1 .9h.1c.2 0 16.5-2.3 31.6-4.8 2.3-.4 4.7-.8 6.9-1.2 19.3-3.4 19.8-4.3 20.1-5.1.6-1.3-.5-12.2-3.3-32.5-1.6-11.6-4.4-30.5-5.1-31.9-.3-.4-.8-1.2-2.2-1.2-2.4-.1-6.4 2.2-7.7 4.5-1.4 2.4-7 21.8-8.3 26.2l-38 4.4c-.3 0-.5.1-.7.4Zm40.3-3.401c-.1.4-.4.7-.8.7l-7 .8-30.6 3.5 5.5 37.5c3.8-.5 17.6-2.5 30.5-4.6 2.4-.4 4.7-.8 6.9-1.2 14.5-2.5 17.9-3.6 18.6-4 .6-4.5-7.4-59.8-8.4-62.5 0-.1-.2-.1-.4-.1-1.7-.1-5 1.9-6 3.5-1 1.8-5.5 16.8-8.3 26.4Z" fill="#142D6E"/><path d="M175.7 176.602c-18.1 2.1-80.7 53.2-80.7 53.2l-12.1 8.1c.3 7.6 2.9 14.9 7.6 20.8 9.4 12.1 24.2 10.9 34.8 7.8 25.5-7.4 46.1-37.1 55.4-44.3 2.3-1.8 99.7 1.1 99.7 1.1l.5-46.6s-88.2-2.2-105.2-.1Z" fill="#fff"/><path d="M175.8 175.505c-18.3 2.2-78.7 51.4-81.2 53.4l-12.1 8.1c-.2.2-.4.6-.4.9.3 7.8 3 15.2 7.8 21.3 6 7.8 14.2 10.3 22.1 10.3 4.8 0 9.5-.9 13.9-2.1 18.7-5.4 35-23 45.8-34.6 3.9-4.2 7.3-7.9 9.8-9.8 3.8-1.2 61.2.1 99.1 1.2.2 0 .5-.1.7-.3.2-.2.3-.4.3-.7l.5-46.6c0-.5-.5-1-1-1-3.6-.1-88.5-2.1-105.3-.1Zm4.3 45.892c2.3-1.8 69.4 0 99.3.9l.5-44.6c-9.7-.2-88.3-2-104-.1-17.7 2.1-79.6 52.5-80.2 53l-11.7 7.8c.4 7.2 2.9 14 7.4 19.6 9 11.7 23.3 10.5 33.7 7.5 18.2-5.3 34.3-22.6 44.9-34 4.2-4.5 7.5-8.1 10.1-10.1Z" fill="#142D6E"/><path d="M100.4 225.5c-1.6 1.2-3.3 2.3-4.8 3.7-1.5 1.3-3 2.8-4.5 4.2l-2.1 2.1c-.7.7-1.4 1.4-2 2.2 0 .1.1.2.1.1.8-.6 1.5-1.2 2.2-1.9.8-.7 1.6-1.4 2.3-2l4.5-3.9c1.5-1.3 2.9-2.7 4.3-4.1 1.5-1.3 3.3-2.7 4.9-4.1-1.7 1.2-3.3 2.5-4.9 3.7Z" fill="#fff"/><path d="m94.396 232.9 2.4-2.1c.8-.7 1.6-1.5 2.3-2.2.6-.6 1.3-1.3 2-1.9 1.2-1.1 2.6-2.3 4-3.4l.9-.7c.4-.3.5-.8.3-1.2v-.1c-.2-.2-.4-.4-.7-.5-.2 0-.6 0-.8.2-1.1.8-2.1 1.6-3.2 2.4-.5.4-1.1.9-1.7 1.3-.5.4-1 .7-1.5 1.1-1.1.8-2.3 1.7-3.4 2.6-1.6 1.4-3.2 2.9-4.6 4.3l-.5.5c-.6.5-1.1 1.1-1.6 1.6-.8.7-1.5 1.5-2.2 2.4-.3.4-.3.9.1 1.3.2.2.5.3.8.3h.5c0-.1.1-.1.1-.1.8-.6 1.6-1.2 2.3-1.9.6-.6 1.2-1.1 1.8-1.6l.6-.5 2.1-1.8Z" fill="#142D6E"/><path d="M101.5 178.201c9.7-3.6 35.9-17.8 42.5-30.5 3.4-6.7 13.6-36.1 15.1-45.1.1-.3.1-.7.1-1-.1 0 0-.1 0-.2.5-7.4-4.2-18.9-7-20-2.1-.8-12.8-.5-17.8-.4-4.1.1-5.4 1.1-5.7 2.4-3-.7-5.7-1.3-7.1-1.5-3.5-.5-11.7-2.3-12.7.6-.5 1.3 1.8 2.6 1.8 2.6s-3.4-.9-3.9.8c-.5 1.9 2.2 2.9 2.2 2.9s-2.1-.4-2.1 1.2c0 1.1 1.2 1.9 2.9 2.6-.1.1-.1.3-.2.4-.3 4 16.8 6.6 19 8.3.5.4.9.8 1.4 1.2-1.2 12.8-5.1 33-8.2 39.1-1.4 2.8-14.5 15.3-26.8 29.8-4.7 5.5.2 9.1 6.5 6.8Z" fill="#fff"/><path d="M122.304 100.396c2.4.6 5.1 1.4 5.7 1.8.3.2.6.5.9.8-1.2 12.6-5.1 32.3-8.1 38.3-.6 1.2-4 4.9-8.4 9.5-4.9 5.3-11.7 12.5-18.2 20.2-3.2 3.6-2 6.1-1.4 7 1 1.4 2.8 2.1 4.9 2.1 1.2 0 2.6-.3 4.1-.7 9.9-3.7 36.3-17.9 43-31 3.5-6.9 13.6-36.2 15.2-45.2v-.2c.1-.4.2-.7.2-1.2v-.4c.5-7.2-4-19.5-7.6-20.9-1.6-.6-7.8-.7-18.2-.4-2.3 0-5.2.4-6.3 2.2-3.1-.7-5.2-1.1-6.3-1.3-.4 0-.9-.1-1.4-.2-4.7-.8-11.2-1.9-12.4 1.5-.2.6-.1 1.2.1 1.7-1.1.1-2 .6-2.3 1.7-.3 1.2.1 2.1.7 2.8-.3.3-.7.8-.7 1.6 0 1.7 1.7 2.7 2.8 3.2 0 3.1 5.7 4.9 13.7 7.1Zm-11.704-7.2c-.1 1.8 8.5 4.1 12.3 5.2 3.5 1 5.5 1.5 6.4 2.2.5.4.9.8 1.5 1.3.2.2.3.5.3.8-1.2 12.7-5.2 33.2-8.3 39.5-.7 1.4-3.5 4.4-8.8 9.9-5 5.3-11.7 12.5-18.2 20.1-1.6 1.8-2 3.5-1.2 4.6.9 1.2 3.4 1.8 6.6.6 9.3-3.5 35.5-17.6 41.9-30 3.5-6.8 13.5-36.1 15-44.8v-.2c0-.3.1-.5.1-.8v-.4c.5-7.4-4.2-18.2-6.3-19-.5-.2-3.2-.8-17.4-.3-3 .1-4.6.6-4.8 1.6-.1.3-.2.5-.4.6-.2.1-.5.2-.8.1-3.5-.8-5.9-1.3-7-1.5-.4-.1-.9-.1-1.5-.2-2.6-.4-9.5-1.6-10.2.2-.1.2.6 1 1.3 1.4.4.2.6.8.4 1.2-.2.5-.7.7-1.2.6-1.1-.3-2.6-.3-2.7.1-.3 1 1.5 1.7 1.6 1.7.5.2.8.7.6 1.2-.1.5-.6.8-1.1.7-.3.2-.8.2-.9.3v.1c0 .3.6 1 2.3 1.7.3.1.5.4.6.6.1.3 0 .6-.1.9Z" fill="#142D6E"/><path d="M128.801 85c.4.4.8.8 1.3 1 1 .5 2 .8 3 1 2.1.4 4.1.6 6.2.5-2-.5-4-.8-6-1.2-1-.2-2-.4-2.9-.8-.4-.2-.8-.5-1.2-.8-.4-.3-.6-.8-.5-1.3-.2.5-.1 1.1.1 1.6ZM115 86.7c1.3.5 2.8.9 4.2 1.3 1.4.4 2.9.7 4.3 1 1.5.3 2.9.5 4.4.6-1.4-.4-2.9-.8-4.3-1.2l-4.3-1.2c-1.4-.4-2.9-.7-4.3-1.1-1.4-.3-2.9-.7-4.3-1 1.3.6 3 1.1 4.3 1.6ZM120.5 92.2c-1.3-.3-2.6-.7-3.9-1-1.3-.3-2.6-.7-3.9-1.1-1.2-.3-2.5-.8-3.8-1.2 1.2.6 2.4 1.2 3.7 1.7 1.2.5 2.5.9 3.8 1.3 1.3.4 2.7.7 4 .9 1.3.2 2.6.4 4 .4-1.2-.3-2.6-.7-3.9-1ZM116.3 94.8c-2.1-.6-4.1-1.3-6.2-2 3.8 2.3 8 3.6 12.4 3.8-2.1-.6-4.2-1.2-6.2-1.8Z" fill="#263238"/><path d="M81.498 238.5c1.9.1 45.8-33.4 45.8-33.4l-18.1-30.7-24.8-5.1c-12.5 11.7-2.9 69.2-2.9 69.2Z" fill="#fff"/><path d="M85.097 170c.4-.4.4-1 0-1.4-.4-.4-1-.4-1.4 0-12.8 12-3.6 67.7-3.2 70.1.1.4.5.8 1 .8 2 0 26.3-18.3 46.5-33.7.4-.3.6-.9.3-1.3l-18.1-30.7c-.3-.5-.9-.7-1.4-.4-.5.3-.7.9-.4 1.4l17.6 30c-15.6 12-38.5 29-43.7 32.2-1.3-8.6-8.2-56.7 2.8-67Z" fill="#142D6E"/><path d="M80.395 181.004c-5.4 26.4-4 68.9 3.3 73.2 8.4 5 29.5 10.2 42.7 11.8 4.4.9 10.5 1 18.3-4.3 0 0 12 9.5 15.2 6.4 1.3-1.3-.4-3.7-2.7-5.9 3.5 2.5 7.5 4.8 9 3.5 1.4-1.3.5-3.3-1.4-5.4 3.1 2.1 6.1 3.5 7.4 1.9 2-2.4-2.8-6.9-6.5-9.7 3.9 2.6 9.4 5.7 10.7 3.4 2.2-4.1-13.7-13.4-17.8-15-2.7-1.1-8.9-1.3-12.5-1.1-3 .1-6.7.4-9.8.7-5.6-2.1-34.4-11.9-34.9-11.9-1.1-.2-6-26.4-7.9-42.6-2.1-17.9-10.7-16.9-13.1-5Z" fill="#fff"/><path d="M158.103 269.6c1 0 1.8-.3 2.4-.8.5-.5.8-1.1.8-1.8 0-.4-.1-.7-.2-1.1 2.7 1.3 4.6 1.5 5.7.5.8-.7 1.4-1.8.9-3.4 1.9.9 4 1.3 5.3-.3.6-.7.8-1.5.7-2.4-.1-1-.6-2.1-1.6-3.4 2.2.8 3.2.6 3.6.5.7-.2 1.3-.6 1.6-1.2.3-.5.5-1.4.1-2.5-1.8-5-15.4-12.6-18.4-13.8-3-1.2-9.5-1.4-12.9-1.2-2.5.2-5.7.4-9.6.7-5.3-2-30.7-10.6-34.4-11.8-1.2-2.8-5.6-25.7-7.5-41.8-1.1-9.1-3.9-14.4-7.8-14.6h-.2c-3.2 0-5.9 3.6-7.1 9.5-5.3 26-4.2 69.5 3.8 74.3 8.6 5.1 29.6 10.3 43 11.9 4.1.8 10.3 1.2 18.4-4.1 2.4 1.9 9.1 6.8 13.4 6.8Zm-76.706-88.603c-5.4 26.4-3.8 68.2 2.9 72.2 8.1 4.8 29 10.1 42.3 11.6 4.2.8 9.9 1.1 17.6-4.2h.5c.2 0 .4.1.6.2 4.5 3.6 12.1 8.2 13.8 6.5.1-.1.1-.2.1-.4 0-.4-.3-1.6-2.9-4.1-.4-.4-.4-1-.1-1.4.3-.4.9-.5 1.4-.2 5.1 3.7 7.3 4 7.8 3.6 1-.8-.3-2.7-1.5-4-.3-.4-.3-.9 0-1.3s.9-.4 1.3-.2c3.1 2.1 5.4 2.9 6.1 2 .2-.2.3-.5.2-.9-.2-1.6-2.6-4.3-6.6-7.4-.4-.3-.5-.9-.2-1.4.3-.4.9-.5 1.4-.3 6.3 4.2 8.4 4.1 8.9 4 .2-.1.3-.1.3-.2s.2-.3 0-.8c-1.4-3.9-13.6-11.2-17.2-12.6-2.3-.9-8.1-1.3-12.1-1.1-2.5.1-5.8.4-9.7.7-.1 0-.3 0-.4-.1-5.8-2.2-33.9-11.7-34.7-11.9-.8-.1-1.4-.2-4.4-16.1-1.8-9.4-3.4-19.9-4.3-27.3-1.1-9.3-3.9-12.8-5.9-12.8-1.7-.1-4.1 2.4-5.2 7.9ZM101.6 227.5h.2-.2Zm.2 0h-.2.2Z" fill="#142D6E"/><path d="M161.7 249.6c1.5 1.1 7 5.2 9.9 8.5-1.5-2-3.2-3.8-5.1-5.4-1.4-1.2-3-2.4-4.5-3.5s-3.2-2-4.8-3c1.5 1.1 3 2.3 4.5 3.4ZM158.9 256.1c2 1.4 3.9 2.6 5.8 4.1.1.2.2.1.1 0-1.9-1.6-3.6-3.1-5.6-4.5-2-1.4-4.1-2.7-6.1-4 2 1.4 3.9 2.9 5.8 4.4ZM148.699 255.902c3.6 2.6 5.8 4.4 8.7 6.7.2.2.3.1.2 0-2.7-2.6-5.6-4.9-8.8-6.8-.1-.1-.2.1-.1.1Z" fill="#263238"/><path d="M265.3 263.7c0-.6-.4-1-1-1H200c-.6 0-1 .4-1 1s.4 1 1 1h64.3c.6 0 1-.4 1-1Z" fill="#142D6E"/><path d="M244.205 263.905c1.4-6.9 8.6-8.2 8.9-8.3.5-.1.9-.7.8-1.2-.1-.5-.7-.9-1.2-.8-.4.1-8.9 1.6-10.6 9.9-.1.6.3 1.1.8 1.2h.2c.4 0 .9-.4 1.1-.8Z" fill="#142D6E"/><path d="M298.3 151.499c-1.5 2.5-8.4 26.6-8.4 26.6l-7 .8 5.6 38.4c13.2-2.1 25.7-4.5 26.2-5.6 1.1-2.5-7.4-61.5-8.4-63.5s-6.5.8-8 3.3Z" fill="#fff"/><path d="M282.7 177.797c-.3 0-.5.2-.7.4-.2.3-.2.5-.2.8l5.6 38.4c0 .3.2.5.4.7.2.1.4.2.6.2h.2c26.1-4.3 26.6-5.4 27-6.2.6-1.3-.5-12.2-3.3-32.5-1.6-11.6-4.4-30.5-5.1-31.9-.2-.4-.8-1.2-2.2-1.2-2.4-.1-6.4 2.2-7.7 4.4-1.4 2.4-7 21.8-8.3 26.2l-6.3.7Zm7 1.403-5.8.6 5.3 36.4c19.4-3.2 23.6-4.6 24.5-5 .6-4.5-7.4-59.8-8.4-62.5 0-.1-.2-.1-.5-.1h-.1c-1.8 0-5 1.9-5.9 3.5-1 1.8-5.5 16.8-8.3 26.4-.1.4-.4.7-.8.7Z" fill="#142D6E"/><path d="M298.2 151.496c-1.5 2.5-8.4 26.6-8.4 26.6l5.6 38.1c10.4-1.8 18.9-3.6 19.3-4.5 1.1-2.5-7.4-61.5-8.4-63.5s-6.7.7-8.1 3.3Z" fill="#fff"/><path d="M307.1 147.7c-.2-.4-.8-1.2-2.2-1.2h-.1c-2.5 0-6.3 2.2-7.6 4.4-1.6 2.6-7.8 24.4-8.5 26.9v.4l5.6 38.1c0 .3.2.5.4.7.2.1.4.2.6.2h.1c19.3-3.4 19.8-4.3 20.1-5.1.6-1.3-.5-12.2-3.3-32.5-1.6-11.6-4.4-30.5-5.1-31.9Zm-10.9 67.4c13.7-2.4 16.9-3.5 17.6-3.9.6-4.5-7.4-59.8-8.4-62.5 0-.1-.2-.1-.5-.1-1.7 0-5 1.8-5.9 3.4-1.1 1.7-5.5 16.5-8.2 26.2l5.4 36.9Z" fill="#142D6E"/><path d="M307.903 206.804c-.6-4.5-7.5-3.5-6.9 1 .7 4.5 7.6 3.4 6.9-1Z" fill="#fff"/><path d="M307.497 210.602c1.2-.9 1.7-2.4 1.5-4-.2-1.6-1.2-2.8-2.6-3.4-1.6-.6-3.5-.3-4.8.7-1.2.9-1.7 2.4-1.5 4 .2 1.6 1.2 2.8 2.6 3.4.5.2 1.1.3 1.7.3 1.1 0 2.2-.3 3.1-1Zm-4.7-5.102c-.4.4-.9 1-.8 2.1.2 1.1.8 1.6 1.4 1.8.9.4 2 .2 2.8-.4.4-.4.9-1 .8-2.1-.2-1.1-.8-1.6-1.4-1.8-.3-.2-.7-.2-1-.2-.6 0-1.3.2-1.8.6ZM312.004 213.605c.6 0 1-.6.9-1.1l-8.7-63.9c0-.6-.6-1-1.1-.9-.6 0-1 .6-.9 1.1l8.7 63.9c.1.5.5.9 1 .9h.1Z" fill="#142D6E"/><path d="M305.895 163.8c.4-.4.4-1 0-1.4-.4-.4-1-.4-1.4 0-4.6 4.8-9.4 1.4-9.6 1.2-.4-.3-1.1-.2-1.4.2-.3.4-.2 1.1.2 1.4 0 .1 2.4 1.8 5.5 1.8 2 0 4.4-.7 6.7-3.2Z" fill="#142D6E"/><path d="M72.697 130.897c-10.1 7.7-1.1 21.5-1.1 21.5-.9 1.4-.1 3.2-.1 3.2 1.5 4.5 7.2 1.9 7.2 1.9l8.8 15.1s2.7 5 7.7 2.4c1.9-.9 3-1.5 4.2-2.8.1-.1 3.6-3.2-1.6-9.6l-2.3-2.9c2.1-.6 4.1-1.2 6.7-6 4-7.1-3.5-16.6-7.7-22.2-4.2-5.6-11.7-8.3-21.8-.6Z" fill="#fff"/><path d="M86.6 173.197c.8 1.5 2.8 3.7 5.8 3.7 1 0 2.1-.3 3.3-.9 1.9-.8 3.1-1.5 4.5-3 .7-.7 3.9-4.3-1.5-11l-1.3-1.7c1.8-.7 3.7-2 5.9-6 4.1-7.5-3.1-17.1-7.4-22.8l-.4-.6c-2.5-3.2-5.6-5.2-9.2-5.7-4.4-.6-9.2 1-14.2 4.9-9.6 7.4-3.3 19.8-1.7 22.5-.7 1.6 0 3.4.1 3.5.5 1.4 1.4 2.4 2.6 2.9 1.9.7 4 .3 5.2-.1l8.3 14.3Zm8.599-14.601c2-.6 3.7-1.1 6.1-5.5 3.5-6.3-3.2-15.1-7.2-20.4l-.4-.6c-1.5-1.9-4-4.4-7.7-4.9-3.8-.5-8 1-12.6 4.5-9.2 7.1-1 19.9-.9 20.1.2.4.2.8 0 1.2-.5.9 0 2.2 0 2.2.3.9.8 1.4 1.4 1.7 1.7.7 4.3-.4 4.3-.4.5-.2 1.1 0 1.4.4l8.9 15.2c.2.4 2.3 4 6.3 1.9 2-.9 2.9-1.5 3.9-2.6.5-.5 2.5-2.9-1.7-8.1l-2.3-3c-.2-.3-.3-.7-.2-1 .1-.3.4-.6.7-.7Z" fill="#142D6E"/><path d="M102.9 152.2c4.9-2.7 7.9-10.3 7.9-10.3l-12.7-5.7c7.6 8.4 4.8 16 4.8 16ZM61.695 171.202c10.8 5.2 21.5-6.1 21.5-6.1l-4.9-7.3c-7.8 1-7.1-3-6.2-5.1.4-.8 1.3-1.4 1.3-1.4 4.2 3.8 6.2 3.8 7.5 2.1 1.3-1.8-2.6-5.2-2.6-5.2 7.9-4.2 1.3-15.2 1.3-15.2 9.9 3.7 16.4-5.2 16.4-5.2-13.1-14.4-25.3-2.7-25.4-2.6-26.3 7.5-8.9 46-8.9 46Z" fill="#142D6E"/><path d="M75.098 155.42a2.902 2.902 0 0 0-1.564 3.792 2.902 2.902 0 0 0 3.792 1.563 2.902 2.902 0 0 0 1.563-3.792 2.902 2.902 0 0 0-3.791-1.563Z" fill="#FFC412"/><path d="M94.454 132.72a3.999 3.999 0 0 0-2.156 5.23 3.999 3.999 0 0 0 5.23 2.156 3.999 3.999 0 0 0 2.155-5.23 3.999 3.999 0 0 0-5.23-2.156Z" fill="#fff"/><path d="M97.805 140.701c2.4-1 3.5-3.7 2.5-6-1-2.4-3.71-3.5-6-2.5-1.21.5-2 1.4-2.5 2.5s-.5 2.4 0 3.5c.7 1.7 2.4 2.8 4.2 2.8.59 0 1.2-.1 1.8-.3Zm-.5-1.003c1.8-.7 2.6-2.8 1.9-4.5-.7-1.8-2.8-2.6-4.5-1.9-.9.4-1.5 1-1.9 1.9-.3.8-.3 1.7 0 2.6.7 1.8 2.8 2.6 4.5 1.9Z" fill="#142D6E"/><path d="M96.017 133.328a1.002 1.002 0 0 0-.803 1.163c.099.541.622.903 1.163.804.541-.099.903-.622.804-1.164a1.002 1.002 0 0 0-1.164-.803ZM98.996 132.996l1-1.9c.2-.2.1-.6-.2-.7-.2-.2-.6-.1-.7.2l-1 1.9c-.2.2-.1.6.2.7 0 .1.1.1.2.1.2 0 .4-.1.5-.3ZM97.2 132.4v-2.9c0-.3-.2-.5-.5-.5-.3.1-.5.3-.5.6v2.9c0 .3.2.5.5.5s.5-.2.5-.6Z" fill="#142D6E"/><path d="M85.344 139.207a4 4 0 0 0-2.156 5.23 3.997 3.997 0 0 0 5.23 2.156 3.998 3.998 0 0 0 2.156-5.229 3.999 3.999 0 0 0-5.23-2.157Z" fill="#fff"/><path d="M88.7 147.201c1.2-.5 2-1.4 2.5-2.5s.5-2.4 0-3.5c-1-2.4-3.7-3.5-6-2.5-2.4 1-3.5 3.7-2.5 6 .7 1.7 2.4 2.8 4.2 2.8.6 0 1.2-.1 1.8-.3Zm-.504-1.003c.9-.4 1.5-1 1.9-1.9.4-.9.4-1.8 0-2.7-.7-1.8-2.8-2.6-4.5-1.9-1.8.8-2.7 2.8-1.9 4.6.7 1.8 2.8 2.6 4.5 1.9Z" fill="#142D6E"/><path d="M87.715 140.027a1.003 1.003 0 0 0-.804 1.164c.099.541.623.902 1.164.803.54-.099.902-.622.803-1.163a1.003 1.003 0 0 0-1.163-.804ZM82.902 142.502c.1-.3 0-.6-.3-.7l-2.1-.7c-.3-.1-.6 0-.7.3-.1.3 0 .6.3.7l2.1.7h.2c.2 0 .4-.1.5-.3ZM83.8 141.1c.2-.2.2-.6 0-.8l-2-2c-.2-.2-.6-.2-.8 0-.2.2-.2.6 0 .8l2 2c.1.1.3.2.4.2.2 0 .3 0 .4-.2Z" fill="#142D6E"/><path d="M94.6 143.2c1.4-.3 2-1.1 1.7-2.1-.3-1-2.3-.7-2.3-.7l-2.5-3 3.1 5.8Z" fill="#fff"/><path d="M94.2 143.301c0 .2.3.4.5.4 0 0 .1 0 .2-.1 1-.3 1.7-.7 2-1.3.2-.4.3-1 .1-1.5-.3-1.2-1.9-1.2-2.6-1.1l-2.3-2.8c-.2-.3-.6-.3-.8-.1-.3.2-.3.6-.1.8l2.5 3c.1.2.3.2.5.2.6-.1 1.6 0 1.7.3.1.3.1.5 0 .7-.2.4-.7.6-1.3.8-.3.1-.5.4-.4.7ZM83.402 139.2c.1 0 2.6-1.2 2.7-4.4 0-.3-.2-.6-.5-.6-.4-.1-.6.2-.6.5-.1 2.5-2 3.5-2.1 3.5-.3.1-.4.4-.3.7.1.2.3.3.5.3.1 0 .2-.1.3 0ZM95.102 131.2c.2-.2.2-.6 0-.8-.2-.2-.6-.2-.8 0-1.8 1.7-3.8 1-3.9 1-.3-.1-.6 0-.7.3-.1.3 0 .6.3.7.1 0 .6.2 1.5.2 1 0 2.3-.3 3.6-1.4ZM94.303 151.4c.3-.1.5-.4.4-.7-.4-1.1.7-3.1 1.1-3.7.1-.3.1-.6-.2-.8-.3-.1-.6-.1-.8.2-.2.3-1.8 2.8-1.3 4.6 0 .2.3.4.5.4h.3Z" fill="#142D6E"/><path d="m70.1 124.1-1.9 1.4.8.9 2.6-2-1.5-.3Z" fill="#E2A40A"/><path d="M62.1 128.497c.2 18.8 10.8 22.7 10.8 22.7-11.5-12.5-2.8-27.1-2.8-27.1-6.8-.9-8 4.4-8 4.4Z" fill="#FFC412"/><path d="M368.4 206c0-7-5.7-12.7-12.7-12.7-7 0-12.7 5.7-12.7 12.7 0 7 5.7 12.7 12.7 12.7 6.9 0 12.7-5.7 12.7-12.7Zm-22.4.1c0 5.3 4.3 9.7 9.7 9.7 5.4 0 9.7-4.3 9.7-9.7-.1-5.4-4.4-9.7-9.7-9.7-5.3 0-9.7 4.3-9.7 9.7Z" fill="#03D5B7"/><path d="m353.601 71.101 12.8-3.2c.5-.1.8-.7.7-1.2-.1-.5-.7-.8-1.2-.7l-12.8 3.2c-.5.1-.8.7-.7 1.2.1.3.3.5.5.6.3.1.5.2.7.1ZM344.4 61.197c2.1-3.6.9-8.3-2.7-10.5-3.6-2.1-8.3-.9-10.5 2.7-2.2 3.7-1 8.4 2.7 10.6 3.7 2.1 8.3.9 10.5-2.8Zm-11.402-6.8c-1.6 2.7-.7 6.2 2 7.8h.1c2.7 1.6 6.099.7 7.699-2 1.5-2.7.6-6.1-2.1-7.8-2.699-1.6-6.099-.7-7.699 2ZM334.505 128.801c.5.1 1-.2 1.2-.7l10-33.6c.1-.5-.2-1-.7-1.2-.5-.1-1 .2-1.2.7l-10 33.6c-.1.4.1.9.5 1.1.1 0 .1.1.2.1ZM175.395 57.996l8.8-9.9c.4-.4.3-1-.1-1.4-.4-.4-1-.3-1.4.1l-8.8 9.9c-.4.4-.3 1 .1 1.4.2.2.5.3.7.3.3 0 .5-.1.7-.4Z" fill="#FFC412"/><path d="M364.501 264.801c.3-.5.2-1.1-.3-1.4l-16-10.7c-.5-.3-1.1-.2-1.4.3-.3.5-.2 1.1.3 1.4l16 10.7c.2.1.4.2.6.2.3 0 .6-.2.8-.5Z" fill="#03D5B7"/><path d="M256 132.8c-.9.6-1.6 1.5-2.2 2.4-.6 1.2-1.1 2.5-1.3 3.8l-.2.9 9.5 1.9c.2-1.1.6-2.1 1.2-2.8.6-.8 1.8-1.6 3.8-2.6 2.8-1.4 4.8-2.6 5.8-3.8 1-1.1 1.7-2.5 2-3.9.7-3.4-.3-6.4-2.9-9.1-1.9-2-4.7-3.4-8.3-4.1-4.6-1-8.3-.6-11 1.1-2.8 1.8-4.8 4.6-5.6 7.8l9.4 3.2c.6-1.9 1.4-3.2 2.3-3.8 1-.6 2.1-.9 3.2-.6.9.1 1.7.6 2.3 1.3.5.7.6 1.5.4 2.3-.1.9-1 1.8-2.6 2.6-2 1-4 2.1-5.8 3.4ZM249.8 151.2l10.1 2.1 1.8-8.9-10.2-2.1-1.7 8.9Z" fill="#00BC9C"/><path d="M51.1 75.005c-1.5.2-3.1 1-4.6 2.4-2 1.8-3.1 3.6-3.2 5.4-.1 1.9.5 3.7 1.7 5.2l4.6-3.2c-.7-.9-1-1.7-1-2.3 0-.6.3-1.2.8-1.6.3-.3.8-.6 1.3-.6s.9.2 1.2.6c.3.4.4 1.1.3 2.1-.2 1.3-.4 2.5-.4 3.8 0 .6.2 1.2.4 1.8.3.7.8 1.3 1.3 1.9l.4.4 4-3.7c-.4-.4-.8-1-.9-1.8-.1-.5-.1-1.4.1-2.6.3-1.7.4-3 .2-3.9-.2-.8-.5-1.6-1.1-2.2-1.3-1.4-3-2-5.1-1.7ZM58.2 95.9l4.3-3.9-3.5-3.8-4.3 3.9 3.5 3.8Z" fill="#EBEBEB"/><path d="M69.499 216.896s25.8 2.2 30-8.2c0 0 .2-44.5-14.3-40.5 0 0-16.8 5.7-15.7 48.7Z" fill="#fff"/><path d="M100.399 209.1c.1-.1.1-.3.1-.4 0-1.4 0-33.2-9.3-40.3-1.9-1.4-4-1.8-6.3-1.2h-.1c-.7.2-17.5 6.4-16.3 49.6 0 .5.4 1 .9 1 .3 0 2.5.2 5.7.2 8.1 0 22.2-1.1 25.3-8.9Zm-1.897-.601c0-2.7-.3-32.2-8.5-38.5-1.4-1-2.8-1.3-4.5-.9-.7.3-15.9 6.7-15 46.8 4.5.3 24.4.9 28-7.4ZM132.101 161.201c.6-.1.9-.7.7-1.2-3.1-10.4-12.2-16.4-12.6-16.6-.5-.3-1.1-.2-1.4.3-.3.5-.2 1.1.3 1.4 0 0 8.8 5.7 11.7 15.5.2.4.6.7 1 .7.1 0 .2 0 .3-.1Z" fill="#142D6E"/><path d="m31.095 234.8 11.9 33c.11.4.51.7.9.7.51 0 .81-.2 1.01-.6l10.6-22.5c.19-.5 0-1.1-.5-1.3l-22.5-10.6c-.4-.1-.8-.1-1.1.2-.2.1-.2.3-.3.4-.1.2-.1.5-.01.7Zm2.605 1.6L44 264.9l9.1-19.4-19.4-9.1Z" fill="#03D5B7"/></g></svg>