<svg viewBox="0 0 400 300" fill="none" xmlns="http://www.w3.org/2000/svg"><mask id="a" style="mask-type:alpha" maskUnits="userSpaceOnUse" x="31" y="31" width="338" height="238"><path d="M368.1 31H31v238h337.1V31Z" fill="#fff"/></mask><g mask="url(#a)"><path fill-rule="evenodd" clip-rule="evenodd" d="m131.203 267.204 14.1-25.1-5.2-19.5-15.9-8.9c-1.8-.9-3.9-.3-4.9 1.4l-19.4 34.6c-.9 1.8-.3 3.9 1.4 4.9l25 14c1.7.9 3.9.3 4.9-1.4Z" fill="#EBEBEB"/><path fill-rule="evenodd" clip-rule="evenodd" d="M134.6 232.3c-.9 1.6-.3 3.6 1.3 4.5l9.4 5.3-5.3-19.5-5.4 9.7Z" fill="#F5F5F5"/><path fill-rule="evenodd" clip-rule="evenodd" d="M134.903 228.904c.2-.5.1-1-.4-1.3l-12-6.7c-.5-.2-1-.1-1.3.4-.2.5-.1 1 .4 1.3l12 6.7c.2.1.3.1.5.1.4 0 .7-.2.8-.5ZM131.503 234.604c.2-.5.1-1-.4-1.3l-11.7-6.5c-.5-.2-1-.1-1.3.4-.2.5-.1 1 .4 1.3l11.7 6.5c.2.1.3.1.5.1.3 0 .6-.2.8-.5ZM137.603 245.504c.2-.5.1-1.1-.4-1.3l-21.1-11.6c-.5-.2-1-.1-1.3.4-.2.5-.1 1.1.4 1.3l21.1 11.6c.2.1.3.1.5.1.4 0 .7-.2.8-.5ZM134.403 251.304c.2-.5.1-1.1-.4-1.3l-21.1-11.6c-.5-.2-1-.1-1.3.4-.2.5-.1 1.1.4 1.3l21.1 11.6c.2.1.3.1.5.1.4 0 .7-.2.8-.5ZM131.203 257.104c.2-.5.1-1.1-.4-1.3l-21.1-11.6c-.5-.2-1-.1-1.3.4-.2.5-.1 1.1.4 1.3l21.1 11.6c.2.1.3.1.5.1.4 0 .7-.2.8-.5ZM128.003 262.904c.2-.5.1-1.1-.4-1.3l-21.1-11.6c-.5-.2-1-.1-1.3.4-.2.5-.1 1.1.4 1.3l21.1 11.6c.2.1.3.1.5.1.4 0 .7-.2.8-.5Z" fill="#fff"/><path fill-rule="evenodd" clip-rule="evenodd" d="M364.3 52.3c0-7-5.7-12.7-12.7-12.7-7 0-12.7 5.7-12.7 12.7 0 7 5.7 12.7 12.7 12.7 7 0 12.7-5.7 12.7-12.7Zm-22.4.1c0 5.3 4.3 9.7 9.7 9.7 5.4 0 9.7-4.3 9.7-9.7 0-5.4-4.3-9.7-9.7-9.7-5.3 0-9.7 4.3-9.7 9.7Z" fill="#03D5B7"/><path fill-rule="evenodd" clip-rule="evenodd" d="m34.995 197.695 8.8-9.9c.4-.4.3-1-.1-1.4-.4-.4-1-.3-1.4.1l-8.8 9.9c-.4.4-.3 1 .1 1.4.2.2.5.3.7.3.3 0 .6-.1.7-.4Z" fill="#FFC412"/><path fill-rule="evenodd" clip-rule="evenodd" d="M52.2 50.804c-.1-.4-.4-.7-.8-.8-.4-.1-.8.1-1 .4l-19.2 29.4c-.2.3-.2.8 0 1.1.2.2.5.4.8.4h.2l24.3-5.1c.6-.1.9-.7.8-1.2l-5.1-24.2ZM34.2 78.9l20.9-4.4-4.4-21-16.5 25.4Z" fill="#03D5B7"/><path fill-rule="evenodd" clip-rule="evenodd" d="m184.4 211.9-10 11.8h3.9v31.1h12.3v-31.1h3.9l-10.1-11.8ZM45.9 168.7h12.3v-20.9H45.9v20.9Z" fill="#EBEBEB"/><path fill-rule="evenodd" clip-rule="evenodd" d="m62 150-10-11.8L42 150h20ZM163.9 192.2l-10 11.8h3.8v18.7h12.4V204h3.8l-10-11.8Z" fill="#EBEBEB"/><path fill-rule="evenodd" clip-rule="evenodd" d="M273.501 197.401c.5-.2.7-.8.5-1.3-.2-.5-.8-.7-1.3-.5-9.5 4.4-19-1.6-19.1-1.7-.5-.3-1.1-.2-1.4.3-.3.5-.2 1.1.3 1.4.3.2 5.7 3.7 12.7 3.7 2.6 0 5.4-.5 8.3-1.9ZM367.297 188.4c.4-.4.4-1 0-1.4-.4-.4-1-.4-1.4 0-10.7 10.1-32.4 1.8-32.6 1.7-.5-.2-1.1.1-1.3.6-.2.5.1 1.1.6 1.3.6.2 9 3.5 18.2 3.5 5.9 0 12-1.4 16.5-5.7ZM234.501 170.799l-24.1 6.8c-.5.2-.8.7-.7 1.2l7 31c.1.5.5.8 1 .8h.3c.6-.1.9-.7.8-1.2l-6.8-30.1 22.2-6.2 4.3 18.7c.1.5.7.8 1.2.7.5-.1.8-.7.7-1.2l-4.6-19.8c-.1-.2-.3-.5-.5-.6-.3-.1-.5-.2-.8-.1ZM268.798 76.996c-3.7 14.5-6.7 32.1 3.6 40.3 6.3 5.1 12 4.2 15.8 3.7.3 0 .5-.1.8-.1l3.7 11.5c.1.6 3.4 13.5 12.8 14.9h1c9.2 0 12.4-9.8 12.5-10.2v-.6l-7.8-29.1c1.9-.1 5.4-.7 7.6-2.9 1.4-1.4 2-3.2 1.9-5.3.1-.1.1-3.3-2-5.2.6-4 3.1-27.3-16.1-32.4-9.8-2.6-17.8-2.2-23.9 1.4-4.9 2.9-8.3 7.7-9.9 14Zm40.399 29.108c.2-.2.5-.4.8-.4 0 0 5 .1 7.4-2.4 1-1 1.4-2.3 1.3-3.9 0-.1 0-2.8-1.7-4-.3-.2-.5-.6-.4-1 .2-1 4.5-25.7-14.6-30.7-9.3-2.5-16.8-2.1-22.4 1.2-5.6 3.3-8 8.7-9 12.7-2.1 8.2-7.6 29.8 2.9 38.2 5.7 4.5 10.6 3.8 14.3 3.3.6-.1 1.1-.2 1.8-.3.4 0 .8.3 1 .7l4 12.4c0 .2 3.1 12.2 11.1 13.4 7.6.6 10.7-6.8 11.3-8.3l-8-30c-.1-.3 0-.6.2-.9Z" fill="#142D6E"/><path fill-rule="evenodd" clip-rule="evenodd" d="M251.5 103.5s9.3 9.6 18.4 10.5c0 0-6.2-11.7-2.8-27.2l-15.6 16.7ZM293.1 70.302s-3 20.8 11.5 22.2c0 0-3.8 7.6-.6 9.4 3 1.8 6.1.5 10-8 0 0 1.8.3 2.8 1.3 2.7 2.6 6.3 8.3-6.2 11.7l2.7 13s19.6 6 30.8-3.2c0 0 2-69.3-42.5-64.1 0 0-25.8-9.9-36.5 20.2 0 0 15.4 9.4 28-2.5Z" fill="#142D6E"/><path fill-rule="evenodd" clip-rule="evenodd" d="M316.8 101.5c-2.6 0-4.7 2.1-4.7 4.7s2.1 4.7 4.7 4.7 4.7-2.1 4.7-4.7-2.1-4.7-4.7-4.7Z" fill="#FFC412"/><path fill-rule="evenodd" clip-rule="evenodd" d="M270.5 79.2c-3.65 0-6.6 2.95-6.6 6.6 0 3.65 2.95 6.6 6.6 6.6 3.65 0 6.6-2.95 6.6-6.6 0-3.65-2.95-6.6-6.6-6.6Z" fill="#fff"/><path fill-rule="evenodd" clip-rule="evenodd" d="M278.1 85.8c0-4.2-3.4-7.6-7.6-7.6-4.2 0-7.6 3.4-7.6 7.6 0 4.2 3.4 7.6 7.6 7.6 4.1 0 7.5-3.5 7.6-7.6Zm-13.2 0c0 3.1 2.5 5.6 5.6 5.6 3.1 0 5.6-2.5 5.6-5.6 0-3.1-2.6-5.6-5.6-5.6-3.1 0-5.6 2.5-5.6 5.6Z" fill="#142D6E"/><path fill-rule="evenodd" clip-rule="evenodd" d="M267.542 85.834c-.918.199-1.5 1.103-1.301 2.021a1.698 1.698 0 0 0 2.021 1.302 1.7 1.7 0 1 0-.72-3.323ZM265.195 82.496c.4-.4.3-1-.1-1.4l-2.7-2.3c-.4-.4-1-.3-1.4.1-.4.4-.3 1 .1 1.4l2.7 2.3c.2.1.5.2.7.2.2 0 .5-.1.7-.3ZM267.403 81.104c.5-.2.7-.8.5-1.3l-1.8-4.3c-.2-.5-.8-.7-1.3-.5-.5.2-.7.8-.5 1.3l1.8 4.3c.1.4.5.6.9.6.1 0 .2 0 .4-.1Z" fill="#142D6E"/><path fill-rule="evenodd" clip-rule="evenodd" d="M288.4 83.3c-3.65 0-6.6 2.95-6.6 6.6 0 3.65 2.95 6.6 6.6 6.6 3.65 0 6.6-2.95 6.6-6.6 0-3.65-2.95-6.6-6.6-6.6Z" fill="#fff"/><path fill-rule="evenodd" clip-rule="evenodd" d="M296 89.9c0-4.2-3.4-7.6-7.6-7.6-4.2 0-7.6 3.4-7.6 7.6 0 4.2 3.4 7.6 7.6 7.6 4.2 0 7.6-3.4 7.6-7.6Zm-13.2 0c0 3.1 2.5 5.6 5.6 5.6 3.1 0 5.6-2.5 5.6-5.6 0-3.1-2.5-5.6-5.6-5.6-3.1 0-5.6 2.5-5.6 5.6Z" fill="#142D6E"/><path fill-rule="evenodd" clip-rule="evenodd" d="M284.94 89.333a1.7 1.7 0 1 0 2.021 1.302 1.698 1.698 0 0 0-2.021-1.302ZM295.295 86.796l2.7-2.3c.4-.4.5-1 .1-1.4-.4-.4-1-.5-1.4-.1l-2.7 2.3c-.4.4-.5 1-.1 1.4.2.2.5.3.8.3.3 0 .5-.1.6-.2ZM293.2 84.8l1.8-4.3c.3-.5 0-1.1-.5-1.3-.5-.3-1.1 0-1.3.5l-1.8 4.3c-.3.5 0 1.1.5 1.3.1.1.3.1.4.1.3 0 .7-.3.9-.6ZM276.998 84.098l-1.8 5.6c-1.1.4-3.5 1.4-3.3 3.4.1 1 .5 1.8 1.2 2.3.7.5 1.6.8 2.7.8.3 0 .7 0 1.2-.1.5 0 .9-.6.8-1.1 0-.5-.5-.9-1.1-.8-1 .2-1.8.1-2.3-.3-.3-.2-.5-.5-.5-.9s1.3-1.1 2.4-1.4c.3-.1.6-.4.7-.7l2-6.1c.1-.6-.2-1.1-.7-1.3-.6-.2-1.1.1-1.3.6ZM292.799 80.197c.3-.5.2-1.1-.3-1.4-4.5-2.9-8.4-.7-8.6-.6-.5.3-.7.9-.4 1.4.3.5.9.7 1.4.4 0 0 3.1-1.7 6.5.5.1.1.3.2.5.2.3 0 .6-.2.9-.5ZM277.299 77.197c.3-.5.2-1.1-.3-1.4-4.5-2.9-8.4-.7-8.6-.6-.5.3-.7.9-.4 1.4.3.5.9.7 1.4.4.1-.1 3.1-1.7 6.5.5.1.1.3.2.5.2.4 0 .7-.1.9-.5ZM281.001 101.096c.3-.4.2-1.1-.2-1.4-.4-.3-1.1-.2-1.4.2-2.7 3.6-5.5 2-5.8 1.8-.5-.3-1.1-.2-1.4.3-.3.5-.2 1.1.3 1.4.6.4 1.7.8 2.9.8 1.7 0 3.7-.7 5.6-3.1Z" fill="#142D6E"/><path fill-rule="evenodd" clip-rule="evenodd" d="m305 53.6.8-1.9-3.8-.9-2.1 1.3 5.1 1.5Z" fill="#E2A40A"/><path fill-rule="evenodd" clip-rule="evenodd" d="M314.8 93.596s13.6-12.6 2.1-41.1c-.1-.1-5.4-7.4-14.9-1.7 0 0 22.4 16.6 12.8 42.8Z" fill="#FFC412"/><path fill-rule="evenodd" clip-rule="evenodd" d="M294.598 134.096c-1-.1-26.1-2.5-38.5 8.3-4.3 3.7-6.5 8.6-6.7 14.5-.8 26.1.1 43.8.1 44 0 .5.5.9 1 .9.6 0 1.1-.5 1-1-.1-.2-.9-17.8-.1-43.8.1-5.4 2.2-9.7 6-13.1 11.7-10.3 36.8-7.8 37-7.8.6.1 1-.4 1.1-.9 0-.6-.4-1-.9-1.1Z" fill="#142D6E"/><path fill-rule="evenodd" clip-rule="evenodd" d="M227.901 232.896c19.9 12 79.6 35.8 107.6 35.8 3.1 0 5.8-.3 8.2-.8 23.8-6.9 24.2-68.4 24.5-101.5 0-3.5.1-6.6.1-9.2.1-5.6-1.9-10.4-5.9-14-13.1-11.9-43.4-8.6-44.7-8.5-.6.1-1 .5-.9 1.1.1.6.5 1 1.1.9.4 0 30.8-3.3 43.2 8 3.5 3.3 5.3 7.5 5.2 12.5-.1 2.7-.1 5.8-.1 9.2-.2 30.2-.7 93.1-23 99.5-20.3 5.8-89.9-20-114.2-34.7-6.4-3.8-7-5.4-7.1-5.7-.1-.6-.7-.9-1.2-.8-.6.1-.9.7-.8 1.2.2 1 1.3 2.9 8 7Z" fill="#142D6E"/><path fill-rule="evenodd" clip-rule="evenodd" d="M215.201 214.505c-.5 2.4 0 4.6 1.4 6.5 4.4 6 16.6 7.2 17.1 7.3h.1c.5 0 1-.4 1.1-.9.1-.6-.4-1-.9-1.1-.1 0-11.8-1.2-15.7-6.5-1.1-1.4-1.5-3-1.1-4.9.1-.6-.3-1.1-.8-1.2-.6-.1-1.1.3-1.2.8Z" fill="#142D6E"/><path fill-rule="evenodd" clip-rule="evenodd" d="M231.799 222.603c.2-.5-.2-1.1-.7-1.2-.2-.1-11.5-3-14.4-9.1-.9-1.9-.8-3.8.2-6 .2-.5 0-1.1-.5-1.3-.5-.2-1.1 0-1.3.5-1.3 2.7-1.4 5.3-.2 7.7 3.3 7 15.2 10.1 15.7 10.2h.2c.5 0 .9-.3 1-.8Z" fill="#142D6E"/><path fill-rule="evenodd" clip-rule="evenodd" d="M250.104 199c-3-5.4-8.1-8-11.6-7.8-1.7.1-2.9.9-3.4 2.1-.8 2.1 1.6 4.2 4.4 6.6 2.2 2 5.3 4.7 4.5 6.1-.7 1.2-4.3-.9-7.8-2.9-4.2-2.4-9.4-5.4-14.6-6.2-2-.3-4.2-.4-4.7 1-.7 1.9 2 4.4 12.3 11.2l1.3.9c3 2 3.9 3.6 3.7 4.2-.1.2-.5.4-1.1.4-5.4 0-14.9-1.3-15.8-6.2-.1-.5-.7-.9-1.2-.8-.5.1-.9.7-.8 1.2 1.3 7.4 15.1 7.8 17.8 7.8 1.5 0 2.6-.7 3-1.9.3-1.1.2-3.4-4.5-6.5l-1.3-.9c-2.9-2-10.4-6.9-11.4-8.8.3-.1 1-.1 2.4.1 4.7.7 9.8 3.6 13.8 5.9 4.9 2.9 8.8 5.1 10.5 2.3 1.7-2.8-1.8-6-4.9-8.7-1.4-1.2-4.1-3.6-3.8-4.3.2-.6 1.1-.8 1.6-.8 2.3-.2 6.8 1.5 9.7 6.8 4.3 7.6 10.3 11.1 10.6 11.2.1.1.1.1.2.1l75.2 23.7h.3c.4 0 .8-.3 1.1-.5.1-.6-.2-1.1-.7-1.3l-75.1-23.6c-.7-.4-6-3.7-9.7-10.4Z" fill="#142D6E"/><path fill-rule="evenodd" clip-rule="evenodd" d="m271.6 213.3-.3-36.5c0-.6-.5-1-1-1-.6 0-1 .4-1 1l.3 36.5c0 .6.5 1 1 1 .6 0 1-.5 1-1ZM327.004 229.805l8-49.2c.1-.5-.3-1-.8-1.1-.5-.1-1 .3-1.1.8l-8 49.2c-.1.5.3 1 .8 1.1h.2c.5 0 1-.4.9-.8ZM67.3 39.5h174.8v-5.8H67.3v5.8Z" fill="#142D6E"/><path fill-rule="evenodd" clip-rule="evenodd" d="M70.4 35.2c-.7 0-1.4.6-1.4 1.4 0 .8.6 1.4 1.4 1.4.8 0 1.5-.6 1.5-1.4 0-.8-.7-1.4-1.5-1.4Z" fill="#C7C7C7"/><path fill-rule="evenodd" clip-rule="evenodd" d="M76.2 35.1c-.8 0-1.4.6-1.4 1.4 0 .8.6 1.5 1.4 1.5.8 0 1.5-.6 1.5-1.4 0-.8-.6-1.4-1.5-1.5Z" fill="#fff"/><path fill-rule="evenodd" clip-rule="evenodd" d="M82.1 35.1c-.8 0-1.5.6-1.5 1.4 0 .8.6 1.5 1.4 1.5.8 0 1.5-.6 1.5-1.4 0-.8-.6-1.4-1.4-1.5ZM177.4 64.997c-1.6-.8-3.5-1.3-5.3-1.3-6.3 0-11.5 4.9-11.9 11.2-.5-.1-1.1-.1-1.7-.1-5.6-.1-10.2 4.4-10.2 10.1 0 5.3 4.1 9.7 9.4 10.1h57.5c6.6-.2 11.8-5.7 11.6-12.2-.2-5.9-4.6-10.8-10.5-11.5-.4-11.1-9.6-19.8-20.7-19.4-8.2.3-15.4 5.5-18.2 13.1Z" fill="#03D5B7"/><path fill-rule="evenodd" clip-rule="evenodd" d="m187.7 70.6-10 11.8h3.9V95h12.3V82.4h3.9l-10.1-11.8Z" fill="#fff"/><path fill-rule="evenodd" clip-rule="evenodd" d="M154.2 115h67v-4.9h-67v4.9Z" fill="#EBEBEB"/><path fill-rule="evenodd" clip-rule="evenodd" d="M154.8 114.5h1.8v-3.7h-1.8v3.7ZM157.2 114.5h1.8v-3.7h-1.8v3.7ZM159.6 114.5h1.8v-3.7h-1.8v3.7ZM161.9 114.5h1.8v-3.7h-1.8v3.7ZM164.2 114.5h1.8v-3.7h-1.8v3.7ZM166.6 114.5h1.8v-3.7h-1.8v3.7ZM168.9 114.5h1.8v-3.7h-1.8v3.7ZM171.3 114.5h1.8v-3.7h-1.8v3.7ZM173.7 114.5h1.8v-3.7h-1.8v3.7ZM176 114.5h1.8v-3.7H176v3.7ZM178.3 114.5h1.8v-3.7h-1.8v3.7ZM180.7 114.5h1.8v-3.7h-1.8v3.7ZM183.1 114.5h1.8v-3.7h-1.8v3.7ZM185.4 114.5h1.8v-3.7h-1.8v3.7ZM187.7 114.5h1.8v-3.7h-1.8v3.7Z" fill="#03D5B7"/><path fill-rule="evenodd" clip-rule="evenodd" d="M178.1 104.9h2v-.4h-1.6v-3.3h-.4v3.7ZM181.7 104.9c.6 0 1.2-.5 1.2-1.4 0-.9-.5-1.4-1.2-1.4-.6 0-1.2.5-1.2 1.4 0 .9.6 1.4 1.2 1.4Zm0-2.5c-.5 0-.8.4-.8 1.1 0 .6.3 1.1.8 1.1s.8-.5.8-1.1c0-.6-.3-1.1-.8-1.1ZM183.699 102.8c.2-.1.5-.3.8-.3.5 0 .6.3.6.7-1.2.1-1.7.4-1.7 1 0 .4.4.7.9.8.3 0 .6-.2.9-.4v.3h.3v-1.7c0-.7-.2-1.1-.9-1.1-.5 0-.9.2-1.1.4l.2.3Zm1.4.6c-1 .1-1.3.3-1.3.7 0 .3.2.5.5.5s.5-.1.8-.4v-.8ZM188.6 104.8v-4h-.4v1.6c-.3-.2-.5-.3-.8-.3-.6 0-1.2.5-1.2 1.4 0 .9.4 1.4 1.3 1.4.3 0 .6-.2.8-.4v.3h.3Zm-.5-2.1c-.2-.2-.5-.3-.7-.3-.5 0-.8.4-.8 1.1 0 .7.3 1.1.8 1.1.3 0 .5-.2.7-.4v-1.5ZM189.699 101.6c.2 0 .3-.1.3-.3 0-.2-.1-.3-.3-.3-.2 0-.3.1-.3.3 0 .2.1.3.3.3ZM189.5 104.8h.4v-2.7h-.4v2.7ZM191.9 102.3c-.3 0-.5.1-.8.4v2h-.4v-2.6h.4v.4c.3-.3.5-.5.9-.5.6 0 .8.4.8 1.1v1.7h-.4v-1.7c0-.5-.2-.8-.5-.8ZM194.7 102.2c-.5 0-1 .4-1 1 0 .3.2.6.4.7-.1.1-.3.3-.3.5s.1.3.2.4c-.3.1-.4.4-.4.6 0 .4.5.7 1 .7.8 0 1.3-.4 1.3-.9 0-.4-.3-.6-.9-.6h-.5c-.4 0-.5-.1-.5-.3 0-.1.1-.2.2-.3.1.1.3.1.4.1.6 0 1-.3 1-.9 0-.3-.1-.5-.2-.6h.6v-.3h-.9c-.1-.1-.2-.1-.4-.1Zm.4 2.6h-.8c-.2.1-.3.3-.3.5 0 .3.3.5.8.5s.9-.3.9-.6-.2-.4-.6-.4Zm-.4-2.5c-.3 0-.6.2-.6.7 0 .4.3.7.6.7s.6-.3.6-.7c0-.4-.3-.7-.6-.7ZM197 104.9c.2 0 .3-.1.3-.3 0-.2-.1-.3-.3-.3-.2 0-.3.1-.3.3 0 .2.1.3.3.3ZM198.9 104.9c.2 0 .3-.1.3-.3 0-.2-.1-.3-.3-.3-.2 0-.3.1-.3.3 0 .2.1.3.3.3ZM200.7 104.9c.2 0 .3-.1.3-.3 0-.2-.1-.3-.3-.3-.2 0-.3.1-.3.3 0 .2.2.3.3.3Z" fill="#E0E0E0"/><path fill-rule="evenodd" clip-rule="evenodd" d="M242.9 153.2V33.4c0-.6-.4-1-1-1h-175c-.6 0-1 .4-1 1v119.9c0 .6.4 1 1 1h175c.6 0 1-.5 1-1.1Zm-2-.9V34.4h-173v117.9h173Z" fill="#142D6E"/><path fill-rule="evenodd" clip-rule="evenodd" d="m107.399 144.4-20.5 8.5 1.9 4.4 17.6 42 58-24.2-17.6-42.1-36.4 15.2-3-3.8Z" fill="#00BC9C"/><path fill-rule="evenodd" clip-rule="evenodd" d="m109.077 155.714 37.24-5.189-5.189-37.24-37.24 5.189 5.189 37.24Z" fill="#142D6E"/><path fill-rule="evenodd" clip-rule="evenodd" d="M119.399 142c-1.8.2-3.1 1.8-2.9 3.6.2 1.8 1.8 3.1 3.6 2.9 1.8-.2 3.1-1.8 2.9-3.6-.2-1.8-1.8-3.1-3.6-2.9Z" fill="#fff"/><path fill-rule="evenodd" clip-rule="evenodd" d="m120.313 143.682 2.481-.305-1.997-16.278-2.482.305 1.998 16.278ZM129.399 136.005c-1.8.2-3.1 1.8-2.9 3.6.2 1.8 1.8 3.1 3.6 2.9 1.8-.2 3.1-1.8 2.9-3.6-.2-1.7-1.8-3-3.6-2.9Z" fill="#fff"/><path fill-rule="evenodd" clip-rule="evenodd" d="m130.574 139.19 2.483-.294-1.942-16.386-2.483.295 1.942 16.385Z" fill="#fff"/><path fill-rule="evenodd" clip-rule="evenodd" d="m130.8 120.4-12.2 8.4.3 2.2 12.2-8.4-.3-2.2ZM131.3 124.5l-12.2 8.5.3 2.1 12.2-8.4-.3-2.2Z" fill="#fff"/><path fill-rule="evenodd" clip-rule="evenodd" d="m104 150.3-20.5 8.6 2.1 3.8 20.6 36.7 58-24.3-20.6-36.7-36.3 15.2-3.3-3.3Z" fill="#03D5B7"/><path fill-rule="evenodd" clip-rule="evenodd" d="m88.784 136.292 31.583-22.018-18.645-26.743L70.14 109.55l18.644 26.742Z" fill="#FFC727"/><path fill-rule="evenodd" clip-rule="evenodd" d="M115.1 106.8 98.4 102l-1.2 17.3 17.9-12.5Z" fill="#FFC727"/><path fill-rule="evenodd" clip-rule="evenodd" d="M115.1 106.8 98.4 102l-1.2 17.3 17.9-12.5Z" fill="#fff" opacity=".3"/><path fill-rule="evenodd" clip-rule="evenodd" d="m104.299 114.4-13-1.7-2.9 12.7 15.9-11Z" fill="#FFC727"/><path fill-rule="evenodd" clip-rule="evenodd" d="m104.299 114.4-13-1.7-2.9 12.7 15.9-11Z" fill="#fff" opacity=".5"/><path fill-rule="evenodd" clip-rule="evenodd" d="m88.785 136.287 31.582-22.019-5.261-7.547-31.583 22.019 5.262 7.547Z" fill="#FFC727"/><path fill-rule="evenodd" clip-rule="evenodd" d="m88.785 136.287 31.582-22.019-5.261-7.547-31.583 22.019 5.262 7.547Z" fill="#fff" opacity=".5"/><path fill-rule="evenodd" clip-rule="evenodd" d="m97.198 252.7-9.8-41.3-25.1-16-26.1 6.2c-2.8.7-4.6 3.6-3.9 6.4l13.5 57c.7 2.8 3.6 4.6 6.4 3.9l41.2-9.8c2.9-.7 4.6-3.5 3.8-6.4Z" fill="#03D5B7"/><path fill-rule="evenodd" clip-rule="evenodd" d="M66.1 211.4c.6 2.6 3.3 4.3 5.9 3.7l15.4-3.7-25.1-16 3.8 16Z" fill="#FF725E"/><path fill-rule="evenodd" clip-rule="evenodd" d="M66.1 211.4c.6 2.6 3.3 4.3 5.9 3.7l15.4-3.7-25.1-16 3.8 16Z" fill="#00BC9C"/><path fill-rule="evenodd" clip-rule="evenodd" d="m42.4 213.301 19.7-4.7c.5-.1.8-.7.7-1.2-.1-.5-.7-.8-1.2-.7l-19.7 4.7c-.5.1-.8.7-.7 1.2.1.5.5.8 1 .8.1 0 .1 0 .2-.1ZM44.7 222.801l19.2-4.7c.5-.1.8-.7.7-1.2-.1-.5-.7-.8-1.2-.7l-19.2 4.7c-.5.1-.8.7-.7 1.2.1.5.5.8 1 .8.1 0 .2 0 .2-.1ZM47.101 232.301l34.5-8.5c.5-.1.8-.7.7-1.2-.1-.5-.7-.8-1.2-.7l-34.5 8.5c-.5.1-.8.7-.7 1.2.1.5.6.8 1 .8 0 0 .1 0 .2-.1ZM49.4 241.801l34.5-8.5c.5-.1.8-.7.7-1.2-.1-.5-.7-.8-1.2-.7l-34.5 8.5c-.5.1-.8.7-.7 1.2.1.5.6.8 1 .8.1 0 .2 0 .2-.1ZM51.7 251.401l34.5-8.5c.5-.1.8-.7.7-1.2-.1-.5-.7-.8-1.2-.7l-34.5 8.5c-.5.1-.8.7-.7 1.2.1.5.6.8 1 .8.1 0 .2-.1.2-.1ZM54.101 260.901l34.5-8.5c.5-.1.8-.7.7-1.2-.1-.5-.7-.8-1.2-.7l-34.5 8.5c-.5.1-.8.7-.7 1.2.1.5.6.8 1 .8.1 0 .1 0 .2-.1Z" fill="#fff"/><path fill-rule="evenodd" clip-rule="evenodd" d="m104.496 67.7-8.9-27.3-17.9-9.4-17.4 5.6c-1.9.6-2.9 2.6-2.3 4.5l12.3 37.8c.6 1.9 2.6 2.9 4.5 2.3l27.3-8.9c1.9-.6 2.9-2.6 2.4-4.6Z" fill="#EBEBEB"/><path fill-rule="evenodd" clip-rule="evenodd" d="M81 41.6c.6 1.8 2.4 2.7 4.2 2.1l10.2-3.3L77.6 31 81 41.6Z" fill="#F5F5F5"/><path fill-rule="evenodd" clip-rule="evenodd" d="m65.197 44.497 13-4.3c.5-.2.8-.7.6-1.2-.2-.5-.7-.8-1.2-.6l-13 4.3c-.5.2-.8.7-.6 1.2.1.3.5.6.9.6h.3ZM67.297 50.797l12.7-4.2c.5-.2.8-.7.6-1.2-.2-.5-.7-.8-1.2-.6l-12.7 4.2c-.5.2-.8.7-.6 1.2.1.4.5.6.9.6h.3ZM69.397 57.097l22.8-7.6c.5-.2.8-.7.6-1.2-.2-.5-.7-.8-1.2-.6l-22.8 7.6c-.5.2-.8.7-.6 1.2.1.4.5.6.9.6h.3ZM71.597 63.397l22.8-7.6c.5-.2.8-.7.6-1.2-.2-.5-.7-.8-1.2-.6l-22.9 7.6c-.5.2-.8.7-.6 1.2.1.4.5.6.9.6h.4ZM73.597 69.697l22.8-7.6c.5-.2.8-.7.6-1.2-.2-.5-.7-.8-1.2-.6l-22.8 7.6c-.5.2-.8.7-.6 1.2.1.4.5.6.9.6h.3ZM75.797 75.997l22.8-7.6c.5-.2.8-.7.6-1.2-.2-.5-.7-.8-1.2-.6l-22.9 7.6c-.5.2-.8.7-.6 1.2.1.4.5.6.9.6h.4Z" fill="#fff"/><path fill-rule="evenodd" clip-rule="evenodd" d="m231.8 167.6 1.7-13.1c0-.5-.4-1-.9-1.1-.5 0-1 .4-1.1.9l-1.7 13.1c0 .5.4 1 .9 1.1h.1c.4 0 .9-.4 1-.9ZM211.298 173.698c1.6-1.3 2.6-3.1 2.9-5.1.3-2.1-.2-4.1-1.5-5.7-2.6-3.4-7.5-4-10.8-1.4-3.4 2.6-4 7.5-1.4 10.8 1.3 1.6 3.1 2.6 5.1 2.9.3.1.7.1 1 .1 1.6 0 3.3-.6 4.7-1.6Zm-8.3-10.498c-2.5 1.9-2.9 5.5-1 7.9.9 1.2 2.3 2 3.8 2.2 1.5.2 3-.2 4.2-1.1 1.2-.9 2-2.3 2.2-3.8.2-1.5-.2-3-1.1-4.2-1.2-1.5-2.9-2.2-4.6-2.2-1.2 0-2.4.4-3.5 1.2ZM210.295 214.896c.3-.4.2-1.1-.2-1.4l-27.6-21.6c-.4-.3-1.1-.2-1.4.2-.3.4-.2 1.1.2 1.4l27.6 21.6c.2.1.4.2.6.2.3 0 .6-.1.8-.4Z" fill="#FFC412"/></g></svg>