<svg viewBox="0 0 400 300" fill="none" xmlns="http://www.w3.org/2000/svg"><mask id="a" style="mask-type:alpha" maskUnits="userSpaceOnUse" x="33" y="31" width="335" height="238"><path d="M367.1 31H33v237.3h334.1V31Z" fill="#fff"/></mask><g mask="url(#a)" fill-rule="evenodd" clip-rule="evenodd"><path d="M278.9 149.4H367V31h-88.1v118.4Z" fill="#E0E0E0"/><path d="M281.3 147.5h83.1V33.2h-83.1v114.3Z" fill="#F5F5F5"/><path d="M322.9 92.8H356V41.4h-33.1v51.4Z" fill="#fff"/><path d="M340 44.8c-.6 0-1.2.5-1.2 1.2 0 .6.5 1.2 1.2 1.2.6 0 1.2-.5 1.2-1.2s-.6-1.2-1.2-1.2Z" fill="#E0E0E0"/><path d="M289.5 140.6h33.1v-33.4h-33.1v33.4Z" fill="#fff"/><path d="M306.6 110.499c-.6 0-1.2.5-1.2 1.2 0 .6.6 1.2 1.2 1.2s1.2-.5 1.2-1.2-.6-1.3-1.2-1.2Z" fill="#E0E0E0"/><path d="M289 81.5h28.3V41.4H289v40.1Z" fill="#fff"/><path d="M303.2 44.1c-.5 0-1 .4-1 1 0 .5.4 1 1 1 .5 0 1-.4 1-1s-.5-1-1-1Z" fill="#E0E0E0"/><path d="m328.747 128.04 30.208-3.41-1.896-16.794-30.208 3.411 1.896 16.793Z" fill="#fff"/><path d="M342.3 111.7c-.61 0-1.1.49-1.1 1.1 0 .61.49 1.1 1.1 1.1.61 0 1.1-.49 1.1-1.1 0-.61-.49-1.1-1.1-1.1ZM331.205 119.105l23.3-3c.6-.1 1-.6.9-1.1-.1-.6-.6-1-1.1-.9l-23.3 3c-.6.1-1 .6-.9 1.1.1.5.5.9 1 .9h.1ZM331.605 124.205l23.3-3c.6-.1 1-.6.9-1.1-.1-.6-.6-1-1.1-.9l-23.3 3c-.6.1-1 .6-.9 1.1.1.5.5.9 1 .9h.1ZM353 50.5c0-.6-.4-1-1-1h-26c-.6 0-1 .4-1 1s.4 1 1 1h26c.5 0 1-.4 1-1ZM353 57.7c0-.6-.4-1-1-1h-26c-.6 0-1 .4-1 1s.4 1 1 1h26c.5 0 1-.4 1-1ZM353 64.2c0-.6-.4-1-1-1h-26c-.6 0-1 .4-1 1s.4 1 1 1h26c.5 0 1-.4 1-1Z" fill="#E0E0E0"/><path d="m80.4 122.1-.1-4.7-2.8-.6c-.3-1-.7-1.9-1.2-2.8l1.5-2.4-3.4-3.3-2.4 1.6c-.9-.5-1.9-.9-2.9-1.1l-.7-2.8-4.7.1-.6 2.8c-1 .3-1.9.7-2.8 1.2l-2.4-1.4-3.3 3.4 1.6 2.4c-.5.9-.9 1.9-1.1 2.9l-2.8.6.1 4.8 2.8.6c.3 1 .7 1.9 1.2 2.8l-1.5 2.4 3.4 3.3 2.4-1.6c.9.5 1.9.9 2.9 1.1l.7 2.7 4.7-.1.6-2.8c1-.3 1.9-.7 2.8-1.2l2.4 1.5 3.3-3.4-1.6-2.4c.5-.9.9-1.9 1.1-2.9l2.8-.7Zm-17.403 1.499c2 1.9 5.2 1.9 7.2-.1 1.9-2 1.9-5.2-.1-7.2-2.1-2-5.3-1.9-7.2.1-1.9 2-1.9 5.2.1 7.2ZM68 50c-.4-1.4-1-2.7-1.7-3.9l2-3.4-4.7-4.5-3.3 2.2c-1.3-.7-2.6-1.2-4-1.5l-.9-3.8-6.5.1-.8 3.8c-1.4.4-2.7 1-4 1.7l-3.4-2-4.5 4.7 2.1 3.3c-.6 1.3-1.2 2.6-1.5 4l-3.8.9.3 6.4 3.8.8c.4 1.4 1 2.7 1.7 3.9l-2 3.3 4.7 4.5 3.3-2.2c1.3.7 2.6 1.3 4 1.6l.9 3.8 6.5-.1.8-3.8c1.4-.4 2.7-1 3.9-1.7l3.3 2.1 4.5-4.7-2.2-3.3c.7-1.3 1.3-2.6 1.6-4l3.8-.9-.1-6.5L68 50Zm-20.204 9.296c2.8 2.7 7.2 2.6 9.9-.2 2.7-2.8 2.6-7.2-.2-9.9-2.7-2.7-7.2-2.6-9.9.2-2.7 2.8-2.6 7.2.2 9.9ZM228.5 69.4l-1.6-2.4c.5-.9.9-1.9 1.1-2.9l2.8-.7-.1-4.7-2.8-.6c-.3-1-.7-1.9-1.2-2.8l1.5-2.4-3.4-3.3-2.4 1.6c-.9-.5-1.9-.9-2.9-1.1l-.7-2.8-4.7.1-.6 2.8c-1 .3-1.9.7-2.8 1.2l-2.4-1.5-3.3 3.4 1.6 2.4c-.5.9-.8 1.9-1.1 2.9l-2.8.7.1 4.7 2.8.6c.3 1 .7 1.9 1.2 2.8l-1.5 2.4 3.4 3.3 2.4-1.6c.9.5 1.9.9 2.9 1.1l.7 2.8 4.7-.1.6-2.8c1-.3 1.9-.7 2.8-1.2l2.4 1.5 3.3-3.4Zm-15.103-4.503c2 1.9 5.2 1.9 7.2-.1 1.9-2 1.9-5.2-.1-7.2-2.1-1.9-5.3-1.9-7.2.1-1.9 2-1.9 5.2.1 7.2ZM191.4 181.4c-.5.9-.9 1.9-1.1 2.9l-2.8.7.1 4.7 2.8.6c.3 1 .7 1.9 1.2 2.8l-1.5 2.4 3.4 3.3 2.4-1.6c.9.5 1.9.9 2.9 1.1l.7 2.8 4.7-.1.6-2.8c1-.3 1.9-.7 2.8-1.2l2.4 1.5 3.3-3.4-1.6-2.4c.5-.9.9-1.9 1.1-2.9l2.8-.7-.1-4.7-2.8-.6c-.3-1-.7-1.9-1.2-2.8l1.5-2.4-3.4-3.3-2.4 1.6c-.9-.5-1.9-.9-2.9-1.1l-.7-2.8-4.7.1-.6 2.8c-1 .3-1.9.7-2.8 1.2l-2.4-1.5-3.3 3.4 1.6 2.4Zm6.697 9.197c2 2 5.2 1.9 7.2-.1 1.9-2 1.9-5.2-.1-7.2-2-1.9-5.2-1.9-7.2.1-1.9 2-1.9 5.2.1 7.2ZM66.9 174.9l-1.6-1.1-2.2 2.3 1.1 1.6c-.4.6-.6 1.2-.8 1.9l-1.9.5.1 3.2 1.9.4c.2.7.4 1.3.8 1.9l-1 1.6 2.3 2.2 1.6-1c.6.4 1.2.6 1.9.8l.5 1.9 3.2-.1.4-1.9c.7-.2 1.3-.4 1.9-.8l1.6 1 2.2-2.3-1.1-1.6c.4-.6.6-1.2.8-1.9l1.9-.5-.1-3.2-1.9-.4c-.2-.7-.4-1.3-.8-1.9l1-1.6-2.3-2.2-1.6 1.1c-.6-.4-1.2-.6-1.9-.8l-.5-1.9-3.2.1-.4 1.9c-.7.2-1.3.4-1.9.8Zm1.797 9.097c1.4 1.3 3.5 1.3 4.8-.1 1.3-1.4 1.3-3.5-.1-4.8-1.4-1.3-3.5-1.3-4.8.1-1.3 1.4-1.3 3.5.1 4.8ZM99.4 184.3l-3-1.8-4 4.2 1.9 2.9c-.6 1.1-1.1 2.3-1.4 3.5l-3.4.8.1 5.8 3.4.7c.3 1.2.8 2.4 1.5 3.5l-1.8 3 4.2 4 2.9-1.9c1.1.6 2.3 1.1 3.5 1.4l.8 3.4 5.8-.1.7-3.4c1.2-.3 2.4-.8 3.5-1.5l3 1.8 4-4.2-1.9-2.9c.6-1.1 1.1-2.3 1.4-3.5l3.4-.8-.1-5.8-3.4-.7c-.3-1.2-.8-2.4-1.5-3.5l1.8-3-4.2-4-2.9 1.9c-1.1-.6-2.3-1.1-3.5-1.4l-.8-3.4-5.8.1-.7 3.4c-1.2.3-2.4.8-3.5 1.5Zm3.301 16.499c2.5 2.4 6.4 2.3 8.8-.2 2.4-2.5 2.3-6.4-.2-8.8-2.5-2.3-6.5-2.3-8.8.2-2.4 2.5-2.3 6.4.2 8.8Z" fill="#F5F5F5"/><path d="M288.2 106.9c-6.4 0-11.6.1-11.6.2s5.2.2 11.6.2c6.4 0 11.6-.1 11.6-.2s-5.2-.2-11.6-.2ZM288.2 110.6c-6.4 0-11.6.1-11.6.2s5.2.2 11.6.2c6.4 0 11.6-.1 11.6-.2s-5.2-.2-11.6-.2ZM288.2 114.301c-6.4 0-11.6.1-11.6.2s5.2.2 11.6.2c6.4 0 11.6-.1 11.6-.2 0-.2-5.2-.3-11.6-.2ZM288.2 117.9c-6.4 0-11.6.1-11.6.2s5.2.2 11.6.2c6.4 0 11.6-.1 11.6-.2s-5.2-.2-11.6-.2ZM288.2 121.6c-6.4 0-11.6.1-11.6.2s5.2.2 11.6.2c6.4 0 11.6-.1 11.6-.2s-5.2-.2-11.6-.2ZM288.2 125.3c-6.4 0-11.6.1-11.6.2s5.2.2 11.6.2c6.4 0 11.6-.1 11.6-.2s-5.2-.2-11.6-.2ZM288.2 129.001c-6.4 0-11.6.1-11.6.2s5.2.2 11.6.2c6.4 0 11.6-.1 11.6-.2 0-.2-5.2-.3-11.6-.2Z" fill="#E0E0E0"/><path d="M112.5 165.2h23.2l8.1 13.6c1.1 1.8 2.9 2.9 5 2.9h.1c2.1 0 3.9-1 5-2.7l9.1-13.8h73.1c5.6 0 10.1-4.6 10.1-10.1V83.9c0-5.6-4.6-10.1-10.1-10.1H112.5c-5.6 0-10.1 4.6-10.1 10.1v71.2c0 5.6 4.6 10.1 10.1 10.1Zm50-2h73.6c4.4 0 8.1-3.6 8.1-8.1V83.9c0-4.4-3.6-8.1-8.1-8.1H112.5v.1c-4.4 0-8.1 3.6-8.1 8.1v71.2c0 4.4 3.6 8.1 8.1 8.1h23.8c.4 0 .7.2.9.5l8.4 14.1c.7 1.2 1.9 1.9 3.3 1.9s2.6-.6 3.4-1.8l9.4-14.3c.2-.3.5-.5.8-.5Z" fill="#142D6E"/><path d="M249.2 140.7V69.5c-.1-5-4.1-9.1-9.1-9.1H116.5c-5 0-9.1 4.1-9.1 9.1v71.2c0 5 4.1 9.1 9.1 9.1h23.8l8.4 14.1c1.9 3.1 6.4 3.2 8.4.2l9.4-14.3h73.6c5 0 9.1-4.1 9.1-9.1Z" fill="#03D5B7"/><path d="M141.6 100.7c-2.04 0-3.7 1.66-3.7 3.7s1.66 3.7 3.7 3.7 3.7-1.66 3.7-3.7-1.66-3.7-3.7-3.7ZM156.4 100.7c-2.04 0-3.7 1.66-3.7 3.7s1.66 3.7 3.7 3.7 3.7-1.66 3.7-3.7-1.66-3.7-3.7-3.7ZM171.2 100.7c-2.04 0-3.7 1.66-3.7 3.7s1.66 3.7 3.7 3.7 3.7-1.66 3.7-3.7-1.66-3.7-3.7-3.7ZM186 100.7c-2.04 0-3.7 1.66-3.7 3.7s1.66 3.7 3.7 3.7 3.7-1.66 3.7-3.7-1.66-3.7-3.7-3.7ZM200.8 100.7c-2.04 0-3.7 1.66-3.7 3.7s1.66 3.7 3.7 3.7 3.7-1.66 3.7-3.7-1.66-3.7-3.7-3.7ZM215.6 100.7c-2.04 0-3.7 1.66-3.7 3.7s1.66 3.7 3.7 3.7 3.7-1.66 3.7-3.7-1.66-3.7-3.7-3.7Z" fill="#142D6E"/><path d="M93.6 94.2c0-7-5.7-12.7-12.7-12.7-7 0-12.7 5.7-12.7 12.7 0 7 5.7 12.7 12.7 12.7 7 0 12.7-5.7 12.7-12.7Zm-22.4.1c0 5.4 4.3 9.7 9.7 9.7 5.4 0 9.7-4.3 9.7-9.7 0-5.4-4.4-9.7-9.7-9.7-5.3 0-9.7 4.3-9.7 9.7ZM58.4 234.4c0-7-5.7-12.7-12.7-12.7-7 0-12.7 5.7-12.7 12.7 0 7 5.7 12.7 12.7 12.7 7 0 12.7-5.7 12.7-12.7Zm-22.4.1c0 5.4 4.3 9.7 9.7 9.7 5.3 0 9.7-4.3 9.7-9.7 0-5.4-4.4-9.7-9.7-9.7-5.3 0-9.7 4.3-9.7 9.7Z" fill="#03D5B7"/><path d="m260.095 67.595 8.8-9.9c.4-.4.3-1-.1-1.4-.4-.4-1-.3-1.4.1l-8.8 9.9c-.4.4-.3 1 .1 1.4.2.2.5.3.7.3.3 0 .5-.1.7-.4ZM249.601 60.3c2.1-.2 4-1.1 5.3-2.6 1.3-1.5 2-3.5 1.9-5.5-.2-2.1-1.1-3.9-2.6-5.3-1.5-1.3-3.5-2-5.5-1.9-4.2.2-7.5 3.9-7.2 8.1.2 4.1 3.6 7.2 7.6 7.2.2 0 .3-.1.5 0Zm-.803-13.4c-3.1.2-5.5 2.9-5.3 6 .2 3.1 2.9 5.5 6 5.3 1.5-.1 2.9-.8 3.9-1.9 1-1.1 1.5-2.6 1.4-4.1-.1-1.5-.8-2.9-1.9-3.9-1.1-.9-2.4-1.4-3.8-1.4h-.3ZM98.997 163.098c.5-.2.8-.8.6-1.3l-10.7-33.4c-.2-.5-.8-.8-1.3-.6-.5.2-.8.8-.6 1.3l10.6 33.4c.2.4.6.7 1 .7.1 0 .2 0 .4-.1Z" fill="#FFC412"/><path d="M86.102 228.7c-.2 0-.4.1-.6.2l-33.8 22.8c-.4.2-.6.7-.4 1.1.2.4.6.7 1 .7l145.7.3c.5 0 1-.4.9-1 0-.5-.4-1-1-1l-142.4-.3 30.9-20.8h25.7c.6 0 1-.4 1-1s-.4-1-1-1h-26Z" fill="#142D6E"/><path d="m52.3 263.2 169.2.1c.5 0 1-.5 1-1 0-.6-.4-1-1-1l-168.2-.1v-8.7c0-.6-.4-1-1-1s-1 .4-1 1v9.7c0 .6.4 1 1 1Z" fill="#142D6E"/><path d="M98.9 208.7H76.7l3.6 29.9c4.9 2.6 10.1 2.3 15.4 0l3.2-29.9Z" fill="#FDFEFF"/><path d="M75.9 208c-.1.2-.2.5-.2.8l3.6 29.9c0 .4.2.6.5.8 2.5 1.3 5.1 1.9 7.8 1.9s5.5-.6 8.4-1.9c.3-.1.6-.4.6-.8l3.2-29.9c0-.3-.1-.6-.3-.8-.1-.2-.4-.3-.7-.3H76.6c-.2 0-.5.1-.7.3Zm18.8 30 3.1-28.3h-20l3.4 28.3c4.1 2 8.6 2 13.5 0Z" fill="#142D6E"/><path d="M75.7 206.801v3.9c8.4 1.5 16.4 1.6 24.1 0v-3.9l-2.4.1-.6-2.1-16.8-2.1c-.5-.1-.9.2-1 .6l-1.2 3.5h-2.1Z" fill="#FDFEFF"/><path d="m98.1 205.797-.4-1.4c-.1-.4-.4-.7-.8-.7l-16.8-2.1c-.9-.1-1.8.4-2.1 1.3l-1 2.9h-1.4c-.6 0-1 .4-1 1v3.9c0 .5.3.9.8 1 4.4.8 8.6 1.2 12.7 1.2s8.1-.4 11.7-1.2c.5-.1.8-.5.8-1v-3.9c0-.3-.1-.5-.3-.7-.2-.2-.4-.3-.7-.3h-1.5Zm-1.6 1.403-.5-1.5-16.1-2-1.2 3.5c-.1.4-.5.7-.9.7h-1.1v2c7.8 1.3 15.3 1.3 22.1 0v-2h-1.3c-.4 0-.8-.3-1-.7Z" fill="#142D6E"/><path d="M98.4 219.6c-7 .8-14 .8-21 0l.9 9.1c6.8.8 13.2.9 19 0l1.1-9.1Z" fill="#FDFEFF"/><path d="m76.3 219.6.9 9.1c.1.5.4.8.9.9 3.8.5 7.2.7 10.4.7s6.2-.2 8.9-.7c.4-.1.7-.5.8-.9l1.1-9.1c0-.3-.1-.6-.3-.8-.2-.2-.5-.3-.8-.3-6.9.8-13.9.8-20.8 0-.3 0-.6.1-.8.3-.2.2-.3.5-.3.8Zm20.1 8.2.9-7.1c-6.2.6-12.5.6-18.8 0l.7 7.1c6.6.7 12.2.7 17.2 0Z" fill="#142D6E"/><path d="m85.796 225.1.6 1.3c.4.9 1.5 1.4 2.5 1.1l-2.3-5c-.9.5-1.2 1.6-.8 2.6ZM89.3 227.202c.9-.5 1.2-1.6.8-2.6l-.6-1.3c-.5-.8-1.6-1.3-2.5-1l2.3 4.9Z" fill="#03D5B7"/><path d="M108.396 176c-.6 2.6 5.1 64.7 5.3 66.2.4 2.4 2.4 5.4 6.9 5.2 3.9-.1 57.6 0 71.1 0 1.8 0 2.9-1.5 3.1-3.3l-66.4-3.9-15.7-67.6s-3.7.8-4.3 3.4Z" fill="#00BC9C"/><path d="m111.1 174.695 5.8 67c.1 1.1 1 1.9 2.1 2l75.9.3-14.6-14.5-49.3-.3-5.3-52.5c-.1-.7-.6-1.3-1.3-1.4l-11-2.6c-1-.2-2.1.5-2.3 1.5v.5Z" fill="#03D5B7"/><path d="m173.7 242.3-8.9-11.6h-4.2l6 11.6h7.1ZM119.1 235.904l10.1-8-4.4-49c0-.4-.3-.7-.7-.8l-9.4-1.3c-.5-.1-.9.3-1 .7v.2l5.4 58.2ZM131.7 242.3l7.4-11.6h-4.2l-10.4 11.6h7.2ZM140.4 242.3l3.9-11.6h-4.2l-6.7 11.6h7ZM149.1 242.3l.4-11.6h-4.2l-3.3 11.6h7.1ZM157.1 242.3l-2.6-11.6h-4.2l-.3 11.6h7.1ZM165.4 242.3l-5.7-11.6h-4.2l2.9 11.6h7Z" fill="#fff"/><path d="M174.5 232.8c0-.3-.2-.5-.5-.5h-43.3c-.3 0-.5.2-.5.5s.2.5.5.5H174c.3 0 .5-.2.5-.5ZM173.3 235.9c0-.3-.2-.5-.5-.5h-43.3c-.3 0-.5.2-.5.5s.2.5.5.5h43.3c.3 0 .5-.2.5-.5ZM173.5 239c0-.3-.2-.5-.5-.5h-46.2c-.3 0-.5.2-.5.5s.2.5.5.5H173c.2 0 .5-.2.5-.5Z" fill="#03D5B7"/><path d="M271.4 261.701c-.6 0-1 .4-1 1s.4 1 1 1h54.8c.6 0 1-.4 1-.9 0-.6 2.3-57.2.8-76.1-1.2-14.7-13.2-28.8-23.2-31.6-.5-.1-1.1.2-1.2.7-.1.5.2 1.1.7 1.2 9.4 2.6 20.6 15.9 21.7 29.8 1.3 17.4-.5 67.3-.8 74.9h-53.8Z" fill="#142D6E"/><path d="M268.803 90.195c-1.8 1.7-3.4 5.4-4.4 10.1-.9 3.9-5.5 38.9-1.9 44.3 2.5 3.8 13 6.1 16.5 6.9.2 1.2.3 2.4.4 3.5.1.5.1 16.8 6 17.7 6.1 1 15.6-8.9 19.1-16.6.2-.3-1.1-7.5-2.2-14.2 1-1.8 1.8-4.2 2.5-7 .7 0 5.5-2.1 6.2-2.5 6.7-2.9 7.5-14-.6-14.5-1.3-.1-2.5-.1-3.7.8.1-6.8-.5-13.1-2-16.6-1.1-2.6-2.8-4.8-4.9-6.6-.7-2.3-1.6-4.6-2.7-6.8-8.6-5.4-21-5.3-28.3 1.5Z" fill="#fff"/><path d="M263.297 100.205c-.8 3.2-5.8 39.1-1.8 45.1 2.3 3.4 10 5.6 16.5 7.1.1 1 .2 1.9.3 2.7.1 4.2.7 17.7 6.8 18.7.3.1.7.1 1 .1 6.9 0 15.9-10.1 19-17.2.2-.4.3-.5-1.5-11l-.6-3.4c.9-1.7 1.6-3.8 2.3-6.4 1.8-.5 5.3-2.1 5.9-2.4 4.4-1.9 6.4-7 5.7-10.7-.6-3.4-3-5.6-6.6-5.8-.9-.1-1.8-.1-2.7.2 0-6.7-.7-12.2-2.1-15.4-1.1-2.6-2.7-4.9-4.9-6.8-.7-2.3-1.6-4.6-2.7-6.7-.1-.2-.2-.3-.4-.4-9.4-5.9-22.1-5.3-29.5 1.6-2.3 2.2-3.8 7-4.7 10.7Zm41.407 33.591c.7-.1 5-1.9 5.8-2.4 0 0 .1 0 .1-.1 3.5-1.5 5.1-5.5 4.5-8.5-.3-1.4-1.2-3.9-4.8-4.1-1.3-.1-2.2 0-3 .6-.3.2-.7.2-1 .1-.3-.1-.5-.5-.5-.9.2-7-.5-13.1-1.9-16.2-1-2.4-2.6-4.5-4.6-6.3-.1-.1-.2-.3-.3-.5-.7-2.2-1.5-4.3-2.5-6.4-8.8-4.9-20.5-4.3-27 1.8-1.6 1.5-3 4.9-4.2 9.7-1.2 5.2-5.3 38.7-2.1 43.5 2.2 3.3 12.2 5.6 15.5 6.3l.5.1c.4.1.7.4.8.8.2 1.3.4 2.5.4 3.6v.1c.1 7.7 1.7 16.2 5.1 16.7 5.2.8 14.3-8.1 17.9-15.9-.1-1-.9-5.8-1.6-10.1l-.6-3.7c0-.2 0-.5.1-.6.9-1.6 1.7-3.9 2.4-6.8.1-.4.5-.8 1-.8Z" fill="#142D6E"/><path d="M282.704 123.1c2.9.1 3.3-6 .2-6.1-2.5 0-3 6.1-.2 6.1ZM267.704 121.901c2.8.3 3.4-5.8.9-6.1-3-.4-3.7 5.7-.9 6.1ZM283.9 136.301c.3-.5.2-1.1-.3-1.4-.5-.3-1.1-.2-1.4.3 0 0-1 1.6-4.6 1.2-.5 0-1 .4-1.1.9 0 .5.4 1 .9 1.1.5.1 1 .1 1.4.1 3.9 0 5.2-2.2 5.1-2.2Z" fill="#142D6E"/><path d="M273.298 126.9s-4.3.1-4.2 2.3c.1 2.2 4.4 2.2 4.4 2.2l.2-17.3-.4 12.8Z" fill="#fff"/><path d="M272.4 126c-1 .1-2.6.4-3.5 1.4-.5.5-.7 1.1-.7 1.8.1 3 4.8 3.2 5.4 3.2.5 0 1-.5.9-1 0-.5-.4-1-1-1-1.2-.1-3.4-.5-3.4-1.3 0-.1 0-.2.1-.3.5-.6 2.1-.9 3.1-.9.6 0 1-.5 1-1l.4-12.8c0-.5-.4-1-1-1-.5 0-1 .4-1 1l-.3 11.9ZM289.605 114.904c.4-.4.5-1 .1-1.4-3.3-3.7-8.3-3.1-8.5-3.1-.6.1-1 .5-.9 1.1.1.6.5 1 1.1.9 0 0 4.1-.4 6.8 2.5.2.2.4.3.7.3.3 0 .5-.1.7-.3ZM265.496 111.704c2.4-1.5 5.2-1 5.2-1 .6.1 1.1-.3 1.2-.8.1-.6-.3-1.1-.8-1.2-.2 0-3.5-.7-6.6 1.2-.4.3-.6.9-.3 1.4.2.3.6.5.9.5.2 0 .4-.1.4-.1Z" fill="#142D6E"/><path d="M292.902 123.801c.7-2.3.5-4.7-.6-6.8-1.2-2.1-3-3.7-5.3-4.4-2.3-.7-4.7-.5-6.8.6-2.1 1.2-3.7 3-4.4 5.3-1.4 4.7 1.2 9.7 5.9 11.2.8.3 1.7.4 2.6.4 3.8 0 7.4-2.5 8.6-6.3ZM281.099 115c-1.6.9-2.8 2.3-3.4 4.1-1.1 3.7.9 7.5 4.6 8.7 1.8.5 3.6.4 5.3-.5 1.6-.9 2.8-2.3 3.4-4.1.6-1.8.4-3.6-.5-5.3-.9-1.7-2.3-2.8-4.1-3.4-.7-.2-1.4-.3-2.1-.3-1.1 0-2.2.3-3.2.8ZM272.298 119.902c.1-4.6-3-8.4-6.9-8.5-1.9-.1-3.7.8-5.1 2.4-1.3 1.6-2 3.6-2.1 5.8-.1 4.6 3 8.4 6.9 8.5h.1c3.8 0 7-3.6 7.1-8.2Zm-10.501-4.802c-1 1.2-1.6 2.8-1.7 4.5-.1 3.5 2.1 6.4 4.9 6.5 2.8 0 5.1-2.7 5.2-6.2.1-3.5-2-6.4-4.9-6.5-1.3 0-2.5.6-3.5 1.7Z" fill="#FFC412"/><path d="M303.405 120.904c.6-.1 1-.5.9-1.1-.1-.6-.5-1-1.1-.9l-10.8 1.1c-.6.1-1 .6-.9 1.1.1.5.5.9 1 .9l10.9-1.1ZM277.301 120.603c.3-.5.2-1.1-.3-1.4-.1-.1-3.2-2.1-6.3-.2-.5.3-.6.9-.3 1.4.3.5.9.6 1.4.3 2-1.2 4.1.1 4.2.2.2.1.4.2.6.2.3 0 .6-.2.7-.5Z" fill="#FFC412"/><path d="M303.402 126.801c6.4.6 10.7-17.8 10.6-26.2.1-4.6-1.8-8.5-6.1-9.9-.8-.2-1.6-.4-2.3-.4.5-4.2-2-8.2-6.1-9.5-.9-.3-1.9-.4-2.8-.4-1 0-1.9.1-2.8 0-6.8-.3-15.1 1.3-15.1 1.3-.8-2.4-2.1-4.6-3.9-6.4-1.7-1.8-4.6-1.9-6.5-.2-.1 0-.1.1-.2.2-1.9-3.4-5.3-4.8-7.6-3.3-4.2 2.9-8.2 21.5.2 28.6 10.1 8.5 26.1-1.4 26.1-1.4 1.4 5.1 6 8.6 11.3 8.6 0 0 .4 18.6 5.2 19ZM254.405 194.702c.3-.6.1-1.2-.5-1.5-.6-.3-1.2-.1-1.5.5-3 6.2-15.9 21.7-18.8 25.2-6-2.5-42.8-17.3-68.8-12.6-12.9 2.3-20.9 6.1-23.8 11.3-1.81 3.1-.91 5.6-.91 5.7.1.4.5.7 1 .7.11 0 .2-.1.41.1.6-.2.9-.8.7-1.4 0-.1-.5-1.8.8-4 1.8-3.1 7.2-7.4 22.2-10.1 27.1-5 67.9 12.5 68.3 12.7.4.2 1 .1 1.3-.3.7-.8 16.1-19.1 19.6-26.3ZM250.002 239.401l20.6-24.7c.4-.5.4-1.2-.1-1.6-.5-.4-1.2-.4-1.6.1l-20.6 24.8c-.4.5-.4 1.2.1 1.6.2.2.4.3.7.3.4 0 .7-.2.9-.5Z" fill="#142D6E"/><path d="M256.005 268.201c14.29 0 26.7-13.8 34.6-25.3 9.89-14.5 16.69-31.1 19.39-40.8.1-.6-.19-1.2-.8-1.4-.59-.1-1.2.2-1.4.8-6.39 22.5-28.09 64.5-51.89 64.5-.3 0-23.1.7-46.4-9.8-.6-.2-1.2 0-1.5.6-.2.6 0 1.2.6 1.5 20.7 9.4 41.2 10 46.2 10 .69 0 1.09 0 1.2-.1Z" fill="#142D6E"/><path d="M249.703 237.301c-2.5-1.3-62.2-32.7-86.4-23.7-26.4 9.8-30.6 13.7-29.2 17.8.1.4.5 1 1.3 1.4 3.6 1.5 14.5-3.5 16.7-4.5.5-.3.8-.9.5-1.5-.3-.5-.9-.8-1.5-.5-7 3.3-14.1 5.4-15 4.4-1-2.9 7.3-7.4 27.8-15 23.2-8.6 84 23.3 84.6 23.6.1.1.3.1.5.1.4 0 .8-.3 1.2-.6.3-.5 0-1.2-.5-1.5Z" fill="#142D6E"/><path d="M142.6 243.203c.2-5.5 11.9-16.1 16.4-19.7.5-.4.6-1.1.2-1.6-.4-.5-1.1-.6-1.6-.2-1.7 1.4-16.9 13.8-17.2 21.4 0 1.5.5 2.7 1.5 3.7 0 .1.1.1.1.1.1.1.8.5 1.8.5.2 0 .5 0 .7-.1 2.3-.5 4.8-2.8 7.3-6.9.3-.5.1-1.2-.4-1.5-.5-.3-1.2-.1-1.5.4-3.5 5.8-6 6.1-6.6 5.8-.5-.5-.7-1.1-.7-1.9Z" fill="#142D6E"/><path d="M166.303 225.999c.5-.3.7-1 .4-1.5-.3-.5-1-.7-1.5-.4-.5.3-13.1 7.9-15.6 17.2-1.9 7.4.5 9.9 1.7 10.6.6.4 1.3.6 2 .6 1.1 0 2.2-.4 3.2-1.4.5-.4.5-1.1.1-1.6s-1.1-.5-1.6-.1c-.9.8-1.9 1.1-2.6.6-1.1-.7-2-3.3-.7-8.1 2.3-8.4 14.5-15.8 14.6-15.9Z" fill="#142D6E"/><path d="M159.698 252.999c-.4-.1-1.6-1-1.8-6-.4-9.2 13.7-17.2 13.8-17.3.5-.3.7-1 .4-1.5-.3-.5-1-.7-1.5-.4-.6.3-15.4 8.7-14.9 19.3.2 4.7 1.3 7.3 3.3 8 .3.1.7.2 1 .2 1.9 0 3.6-1.7 4.1-2.3.4-.5.4-1.2-.1-1.6-.5-.4-1.2-.4-1.6.1-.8 1-2 1.7-2.7 1.5Z" fill="#142D6E"/><path d="M184.403 247.101c6.1 3.3 23.6 11 24.3 11.3.1.1.2.1.4.1.4 0 .8-.3 1.2-.7.2-.6 0-1.3-.6-1.5-.2 0-18.1-7.9-24.2-11.2-6.9-3.7-10.3-2.5-12.9-.6-1.5 1.1-2.3 3.2-3.1 5.3-.6 1.7-1.5 3.9-2.4 4.1-.8.2-1.2 0-1.4-.2-.4-.4-1.3-1.8-.6-6.8.7-5 9.2-11.6 12.4-13.7.5-.4.6-1.1.3-1.6-.4-.5-1.1-.6-1.6-.3s-12.4 8.3-13.4 15.3c-.6 4.5-.1 7.4 1.4 8.8.6.5 1.7 1.1 3.4.7 2.1-.5 3-2.9 4-5.5.6-1.7 1.4-3.6 2.3-4.3 1.9-1.4 4.4-2.5 10.5.8ZM350.503 262.8l12.3-99.8c.1-.3-.1-.6-.2-.8-.1-.2-.4-.3-.7-.3h-6c-.5 0-.9.4-1 .9l-12.3 99.8c-.1.3.1.6.2.8.1.2.4.3.7.3h6c.5 0 .9-.3 1-.9Zm-1.903-1.1 12-97.8h-4l-12 97.8h4Z" fill="#142D6E"/><path d="M355.8 163.9c.6 0 1-.4 1-1s-.5-1-1-1l-38.8.8c-.6 0-1 .4-1 1s.5 1 1 1l38.8-.8ZM345.1 262.7c0-.6-.4-1-1-1h-18.3c-.6 0-1 .4-1 1s.4 1 1 1h18.3c.6 0 1-.4 1-1ZM306.697 231.104c.4 0 .7-.3.8-.6.6-1.5 14.6-38.5 6.9-51.9-1.6-2.6-3.9-4.2-6.9-4.7-11.9-1.9-23.9 10.4-31.9 21.1-3 4-5.2 7.5-6.6 9.8-2.8 4.5-2.6 4.8-2.4 5.3 8.9 19 27.7 21.2 36 21.2 2.4 0 3.9-.2 4.1-.2Zm-.997-2.002c1.8-4.8 13.6-38 6.8-49.7-1.2-2.2-3-3.4-5.4-3.8-17.3-2.6-36.8 30-38.6 33.9 10.1 21 33.2 19.9 37.2 19.6ZM279.404 164.997c.5-.2.8-.8.6-1.3-.2-.5-.8-.8-1.3-.6-.6.2-14.2 5-28.3 25-.1.1-.2.2-.2.3-.1.3-1.4 6.7 10.8 10.7h.3c.5 0 .9-.3 1-.5.2-.6-.1-1.1-.6-1.3-9.3-3.1-9.6-7.4-9.5-8.2 13.7-19.3 27.1-24.1 27.2-24.1Z" fill="#142D6E"/><path d="M256.7 230c4.2-45.1 22.1-63.9 22.3-64.1.4-.4.4-1 0-1.4-.4-.4-1-.4-1.4 0-.7.8-18.5 19.5-22.9 65.4 0 .6.4 1 1 1.1.5 0 1-.4 1-1Z" fill="#142D6E"/><path d="M80.9 94.3h45.5V48.8H80.9v45.5Z" fill="#fff"/><path d="M127.4 94.3V48.8c0-.6-.4-1-1-1H80.9c-.6 0-1 .4-1 1v45.5c0 .6.4 1 1 1h45.5c.6 0 1-.5 1-1Zm-2-1V49.8H81.9v43.5h43.5Z" fill="#142D6E"/><path d="M116.4 83.7c.4-.4.4-1 0-1.4l-24-23c-.4-.4-1-.4-1.4 0-.4.4-.4 1 0 1.4l24 23c.2.2.5.3.7.3.2 0 .5-.1.7-.3Z" fill="#FFC412"/><path d="m92.4 83.7 24-23c.4-.4.4-1 0-1.4-.4-.4-1-.4-1.4 0l-24 23c-.4.4-.4 1 0 1.4.2.2.4.3.7.3.2 0 .5-.1.7-.3Z" fill="#FFC412"/><path d="M89 167.6c.4-.4.4-1 0-1.4l-10-10c-.4-.4-1-.4-1.4 0-.4.4-.4 1 0 1.4l10 10c.2.2.4.3.7.3.3 0 .6-.1.7-.3ZM330.605 155.201c-.1.4.1.8.5 1 .2.1.3.1.5.1.3 0 .5-.1.7-.3l26.9-22.4c.3-.3.5-.7.3-1.1-.2-.4-.5-.7-.9-.7l-24.7-2.2c-.2-.1-.5 0-.7.2-.2.2-.4.4-.4.7l-2.2 24.7Zm2.195-2.301 23.2-19.4-21.3-1.9-1.9 21.3Z" fill="#03D5B7"/></g></svg>