<svg viewBox="0 0 400 300" fill="none" xmlns="http://www.w3.org/2000/svg"><mask id="a" style="mask-type:alpha" maskUnits="userSpaceOnUse" x="35" y="32" width="331" height="237"><path d="M366 32H35v236.7h331V32Z" fill="#fff"/></mask><g mask="url(#a)" fill-rule="evenodd" clip-rule="evenodd"><path d="M352.6 142.6s-3.7-6.7-7.9-6.7-9.4 5.1-9.4 5.1-2.5-9.4-10.1-9.4-12.6 13.6-12.6 13.6h50.2c-4.2-6.2-10.2-2.6-10.2-2.6ZM361.1 44.3c-3.6-.6-7.6 2.6-7.6 2.6s-1.6-6.9-7.3-6.9c-5.7 0-12.8 10.4-12.8 10.4h32s-.7-5.5-4.3-6.1ZM80.3 165.4c-3.6-.6-7.6 2.6-7.6 2.6s-1.7-6.9-7.3-6.9c-5.7 0-12.8 10.4-12.8 10.4h32s-.6-5.5-4.3-6.1ZM84.8 122.703s-3.6-7.1-8.2-7.1-10.5 5.4-10.5 5.4-4.4-15.3-13.5-14.1c-9.1 1.2-17.6 20.2-17.6 20.2h62.2c-3.1-9.2-12.4-4.4-12.4-4.4ZM99.5 83.597s-4.2-10.7-12-10.5c-7.9.2-15.1 14-15.1 14h42.1c-2.9-13.3-15-3.5-15-3.5ZM349.8 223.899s-3-7.7-8.7-7.6c-5.7.1-10.9 10.1-10.9 10.1h30.5c-2-9.6-10.9-2.5-10.9-2.5ZM279 76.6c-.1 0-.3.1-.3.2-1.1 2.4-2 4.8-2.6 7.3-.4 1.5-.6 3-.8 4.6 0 .3-.1.6-.1.9v.3H287c.2-4.6 1.2-9.1 2.9-13.3H279ZM275.2 93.5v.4c.1 1.3.2 2.7.5 4.1.5 2.9 1.5 5.6 2.7 8.2.1.1.2.2.3.2h10.8c0-.1 0-.2-.1-.1-.6-1.7-1.1-3.5-1.5-5.3-.3-1.5-.5-3-.7-4.5-.1-.9-.1-1.9-.2-2.8 0-.2 0-.2-.2-.2h-11.6ZM327.5 118.1c1.6-1.2 3.1-2.6 4.5-4.1 1.1-1.3 2.1-2.6 3-4v-.2h-10.9c-.1 0-.3.1-.3.2-1 2-2.2 4-3.5 5.8-2.3 3.2-5.2 6.1-8.5 8.3l-.3.2.3.2h.3l.4-.1c1.5-.3 3-.6 4.5-1 1.9-.5 3.7-1.2 5.4-2.1 1.8-.9 3.5-2 5.1-3.2ZM324.1 88.9c-.1-1.4-.3-2.8-.6-4.2-.5-2.7-1.3-5.3-2.4-7.8 0-.2-.1-.2-.2-.2H309v13.2h15.2c0-.4 0-.7-.1-1ZM308.9 93.5v12.8h12.2c.1 0 .3-.1.3-.2.9-2.1 1.5-4.3 2-6.5.2-1 .4-2 .5-3 .1-.7.1-1.5.2-2.2v-.9h-15.2ZM294.1 76.7c-.2 0-.3.1-.3.2-.9 2.1-1.6 4.3-2.1 6.5-.2 1.2-.4 2.3-.6 3.4-.2.7-.2 1.5-.3 2.2-.1.3-.1.7-.1 1h14.9V76.7h-11.5ZM305.4 93.4h-14.7v.1c.1.8.1 1.6.2 2.4.1 1.2.3 2.4.5 3.6.4 2.3 1.1 4.5 2 6.7.1.1.2.2.3.2h11.9V93.7c0-.2 0-.2-.2-.3ZM340.3 89.8c-.1-1.6-.3-3.2-.6-4.7-.6-2.9-1.6-5.7-2.9-8.3-.1-.2-.2-.2-.3-.2h-11.6c1.7 4.3 2.7 8.8 2.9 13.4h12.5v-.2ZM325.3 106.4h11.6c.1 0 .2 0 .2-.1.1-.4.3-.8.5-1.2 1.5-3.4 2.4-7.1 2.7-10.8v-.9H328c-.1 0-.1 0-.1.1-.1.4-.1.7-.1 1.1-.2 3.6-.9 7.2-2.1 10.6l-.4 1.2ZM311.3 59.5l.1.1c.8.6 1.6 1.1 2.3 1.7 1.5 1.1 2.9 2.4 4.2 3.8 2.1 2.4 4 5.1 5.4 8 .1.1.2.2.3.2h11.1c-5.3-7.9-13.8-13-23.4-14.1.1.1.1.1.1.2l-.1.1ZM290.8 109.6h-10.3v.1c.7 1.1 1.5 2.2 2.4 3.3 1.2 1.4 2.5 2.7 3.9 3.9 3.7 3.2 8.1 5.4 12.8 6.6 1.2.3 2.4.5 3.6.7h.3c-.1 0-.1 0-.1-.1-1.5-1-2.9-2.2-4.2-3.4-3.4-3.1-6.1-6.8-8.1-10.9-.1-.1-.2-.2-.3-.2ZM301.8 60.6c.5-.4 1-.8 1.5-1.1l-.3-.1.1-.1c-9.4 1.4-16.9 6.1-22.4 13.9h10.5c.1 0 .2 0 .2-.1.1-.2.2-.3.3-.5 1.4-2.7 3.2-5.2 5.2-7.4 1.5-1.7 3.1-3.2 4.9-4.6ZM309 109.8v11.7c2.1-1.4 4-3.1 5.7-4.9 1.9-2.1 3.6-4.3 5-6.8H309ZM295.3 109.8c2.5 4.5 6 8.5 10.3 11.4v-11.4h-10.3ZM314.8 67.2c-1.7-1.9-3.7-3.5-5.8-4.9v10.9h10.3c-1.3-2.1-2.8-4.2-4.5-6ZM295.7 73.3h9.9V62.7c-4.1 2.7-7.5 6.3-9.9 10.6Z" fill="#EBEBEB"/><path d="M53.5 56.2h94.9v-13H53.5v13Z" fill="#fff"/><path d="M148.7 42.9H53.2v13.6h95.5V42.9Zm-.6 13V43.5H53.8v12.4h94.3Z" fill="#C7C7C7"/><path d="M135.4 56.2h13v-13h-13v13Z" fill="#FFC727"/><path d="m143.8 50.2-.9-1.1c-.1.3-.3.6-.6.8-.2.1-.3.2-.5.3l.8 1.1 2.2 2.9 1.2-.9-2.2-3.1Z" fill="#fff"/><path d="M139.103 45.802c-1.4 1.1-1.7 3.2-.6 4.6 1 1.3 2.7 1.6 4.1.9.2-.1.3-.2.5-.3.3-.2.5-.4.7-.7.8-1.1.7-2.7-.1-3.9-1.1-1.4-3.2-1.7-4.6-.6Zm3.799 2c-.4-1-1.5-1.5-2.5-1.1-1 .4-1.5 1.5-1.1 2.5.4 1 1.5 1.5 2.5 1.1.2-.1.4-.2.5-.3.6-.5.9-1.5.6-2.2Z" fill="#fff"/><path d="M78.5 53.7h.7v-7.9h-.7v7.9ZM60.3 51.8l.8-2 .8 2h.6l1.8-4.2h-.7l-1.4 3.5-.7-1.7.7-1.8h-.6l-.5 1.4-.5-1.4H60l.7 1.8-.7 1.7-1.4-3.4h-.7l1.8 4.1h.6ZM64.4 47.7l1.8 4.1h.6l.8-2 .9 2h.5l1.8-4.2h-.7l-1.4 3.5-.7-1.7.8-1.8h-.6l-.6 1.4-.5-1.4h-.6l.7 1.8-.7 1.7-1.4-3.4h-.7ZM76.6 47.6l-1.4 3.5-.7-1.7.7-1.7h-.5l-.5 1.3-.6-1.3H73l.8 1.7-.7 1.7-1.5-3.4H71l1.7 4.1h.6l.8-2 .8 2h.6l1.8-4.2h-.7ZM142.9 64.3l-13.7-13.9V70l4.7-3.7 2.9 7.1 2.9-1.2-2.9-7 6.1-.9ZM127.799 47.299c.5-.3.7-.9.4-1.4l-3.1-5.5c-.3-.5-.9-.7-1.4-.4-.5.3-.7.9-.4 1.4l3.1 5.5c.2.3.5.5.9.5.2 0 .3 0 .5-.1ZM124.905 50.205c.1-.6-.3-1.1-.8-1.2l-6-1.2c-.6-.1-1.1.3-1.2.8-.1.6.3 1.1.8 1.2l6 1.2h.2c.5 0 .9-.3 1-.8ZM120.796 59.296l4.9-4c.4-.3.4-1 .1-1.4-.3-.4-1-.4-1.4-.1l-4.9 4c-.4.3-.4 1-.1 1.4.2.3.5.4.8.4.2 0 .4-.1.6-.3ZM133.196 47.296l3.5-3.8c.3-.4.3-1-.1-1.4-.4-.3-1-.3-1.4.1l-3.5 3.8c-.3.4-.3 1 .1 1.4.2.2.5.3.7.3.3 0 .5-.2.7-.4ZM141.198 52.597c.2-.5-.2-1.1-.7-1.2l-6.2-1.6c-.5-.2-1.1.2-1.2.7-.2.5.2 1.1.7 1.2l6.2 1.6h.2c.4 0 .8-.3 1-.7Z" fill="#142D6E"/><path d="M280.9 51.8c0-7-5.7-12.7-12.7-12.7-7 0-12.7 5.7-12.7 12.7 0 7 5.7 12.7 12.7 12.7 7 0 12.7-5.7 12.7-12.7Zm-22.4 0c0 5.4 4.3 9.7 9.7 9.7 5.4 0 9.7-4.3 9.7-9.7 0-5.4-4.4-9.7-9.7-9.7-5.3 0-9.7 4.3-9.7 9.7Z" fill="#03D5B7"/><path d="M340.895 193.395c.4-.3.5-1 .1-1.4l-8.5-10.1c-.3-.4-1-.5-1.4-.1-.4.3-.5 1-.1 1.4l8.5 10.1c.2.3.5.4.8.4.2 0 .5-.1.6-.3ZM360.8 172.299c.1-2-.5-4-1.8-5.6-1.3-1.6-3.2-2.5-5.2-2.7-2.1-.1-4 .5-5.6 1.8-1.6 1.3-2.5 3.2-2.7 5.2-.3 4.2 2.8 7.9 7 8.3h.7c3.9 0 7.3-3.1 7.6-7Zm-11.205-5.099c-1.2 1-1.9 2.3-2 3.8-.1 1.5.3 3 1.3 4.1 1 1.2 2.3 1.9 3.8 2 3.1.3 5.9-2 6.1-5.2.1-1.5-.3-3-1.3-4.1-1-1.2-2.3-1.9-3.8-2-.2.1-.4.1-.5.1-1.3 0-2.6.5-3.6 1.3ZM330.505 157.404l34.6-5.7c.5 0 .9-.6.8-1.1 0-.5-.6-.9-1.1-.8l-34.6 5.7c-.5 0-.9.6-.8 1.1.1.5.5.8 1 .8h.1Z" fill="#FFC412"/><path d="M108.4 108.6c.4-.4.4-1 0-1.4l-10-10c-.4-.4-1-.4-1.4 0-.4.4-.4 1 0 1.4l10 10c.2.2.4.3.7.3.3 0 .5-.1.7-.3ZM183.704 144.9c-33.3 10.3-54.3 30.7-55.2 31.5-3.9 3.9-4 10.2-.1 14.1 3.9 3.9 10.2 4 14.1.1.2-.2 18.3-17.8 47.1-26.7 8-2.5 15.9-4 23.9-4.7l-4.5-8.7c-1.4-2.6-.9-6 1.4-8.1l3.1-3c-11 .7-21.1 2.8-29.8 5.5ZM218.202 174c-38.5 1.6-64.4 29.5-65.5 30.7-3.7 4.1-3.4 10.4.6 14.1 4.1 3.7 10.4 3.5 14.1-.6.2-.2 17.7-18.8 43.2-23.3l12.5-16.8-2.1-4.2c-.9 0-1.8 0-2.8.1ZM185.503 241.1c2 2.2 4.7 3.3 7.4 3.3 2.4 0 4.8-.9 6.7-2.6 1.3-1.2 9.3-7.8 20.6-8.3l-17-16.6c-7.3 2.8-13.2 6.6-17 10.1-4.1 3.7-4.4 10.1-.7 14.1ZM237.3 126.2l-.4.4-9.4 8.4 5 10.6c24.4 2.6 48.1 14.1 70.8 34.4 1.8 1.6 4.1 2.5 6.3 2.5 2.9.1 5.7-1 7.8-3.3 3.8-4.1 3.4-10.4-.7-14.1-28-25-55.3-35.8-79.4-38.9ZM240.4 162.2c1.1 2.4.8 5.3-.9 7.4l-8.8 11.1c16.1 2.4 31.8 11.1 46.8 26 1.9 1.9 4.3 2.8 6.7 2.9a9.959 9.959 0 0 0 7.4-17c-16.2-16.2-33.3-26.4-51.3-30.5l.1.1ZM221.2 199.598l21.4 22.2c1.8 1.9 2.4 4.6 1.6 6.9l.3.3c4.2 3.6 10.5 3.2 14.1-1 3.6-4.2 3.1-10.5-1-14.1-12.4-10.7-25-14.4-36.4-14.3ZM220.9 262.6c8 .3 14.7-6 15-14 .1-2.3-.4-4.4-1.3-6.4l-15 20.3c.4.1.9.1 1.3.1ZM207.1 262.1c0 2.4.6 4.6 1.6 6.6l14.5-21c-.6-.1-1.1-.1-1.6-.1-8 0-14.5 6.5-14.5 14.5Z" fill="#03D5B7"/><path d="m241.804 80.698.2-1.3c1-7.1-.5-13.5-4.3-18.5-4.7-6.2-12.8-10.1-24-11.6-21.8-2.9-29.1 22.3-30.2 26.5-3 1-4.3 4.3-4.3 4.4-1 2.2-1.1 4.3-.3 6.3 1.4 3.5 5.3 5.6 7 6.4l-8 30c-.2.6-2.9 10.9 7.6 14.3 1.7.4 3.9.8 6 .8 1.5 0 3-.2 4.2-.7.3-.1.5-.2.8-.3 5.1-2.3 8.8-7.4 9.5-13.2l.7-5.3c3.3 1.7 7.1 2.8 15.9.3 14.4-4.2 17.4-25.4 19.2-38.1Zm-61.107 5.003c1.5 3.7 6.6 5.6 6.7 5.7.5.2.7.7.6 1.2l-8.2 30.8c-.1.4-2.6 9 6.2 11.8 3.7.9 6.9 1 9 .2.2-.1.4-.2.7-.3 4.5-2.1 7.7-6.5 8.3-11.7l.9-6.7c0-.3.2-.6.5-.8.3-.2.6-.1.9 0 3.5 1.9 6.5 3.5 15.7.8 13.2-3.8 16.1-24.3 17.8-36.5l.2-1.3c.9-6.6-.4-12.4-3.9-17-4.4-5.8-12-9.4-22.6-10.8-22-2.9-28.1 25.3-28.2 25.6-.1.4-.4.7-.8.8-2.3.5-3.5 3.4-3.5 3.4-.8 1.7-.9 3.3-.3 4.8Z" fill="#142D6E"/><path d="M225.199 116.7c9.8 2.9 23.4-3 23.4-3l-9-23.8c-1.1 20.6-14.5 26.8-14.4 26.8ZM198.5 79.802c15.6 4.7 21.3-18 21.3-18 7.9 17.7 27.8 14.5 27.8 14.5 1.8-35.5-29-36.2-29.3-36.2-43.6-24.3-70.9 47.9-70.9 47.9 7.2 20.6 35.6 19.8 35.6 19.8l3.1-15.8c-11.4-8.7-5.3-13.1-1.4-14.6 1.4-.5 3.4-.1 3.4-.1.5 10.4 3.2 13.1 7 12.5 4.1-.6 3.4-10 3.4-10Z" fill="#142D6E"/><path d="M178.228 87.831a5.202 5.202 0 0 0 2.826 6.79 5.202 5.202 0 0 0 6.789-2.826 5.202 5.202 0 0 0-2.826-6.79 5.202 5.202 0 0 0-6.789 2.826Z" fill="#FFC412"/><path d="M229.75 84.69a7.302 7.302 0 0 0 3.967 9.532 7.303 7.303 0 0 0 9.532-3.967 7.304 7.304 0 0 0-3.967-9.531 7.303 7.303 0 0 0-9.532 3.967Z" fill="#fff"/><path d="M233.405 79.795c-2.1.8-3.7 2.4-4.5 4.5-.9 2.11-.9 4.3 0 6.4.8 2.11 2.4 3.7 4.5 4.51 1 .39 2.1.59 3.2.59 1 0 2.09-.19 3.2-.59 2.1-.81 3.7-2.4 4.5-4.51.9-2.1.9-4.29 0-6.4-.8-2.1-2.4-3.7-4.5-4.5-2.1-.9-4.3-.9-6.4 0Zm.695 1.805c-1.6.7-2.8 1.9-3.4 3.4-.6 1.6-.6 3.3 0 4.9.7 1.6 1.9 2.8 3.4 3.4 1.6.6 3.3.6 4.9 0 1.6-.7 2.8-1.9 3.4-3.4 1.3-3.2-.2-6.9-3.4-8.3-.8-.3-1.6-.5-2.5-.5-.8 0-1.7.2-2.4.5Z" fill="#142D6E"/><path d="M235.816 89.823a1.9 1.9 0 1 0 3.126 2.159 1.9 1.9 0 0 0-3.126-2.16ZM244.797 86.797l3.7-1.3c.5-.2.8-.8.6-1.3-.2-.5-.8-.8-1.3-.6l-3.7 1.3c-.5.2-.8.8-.6 1.3.1.4.5.7.9.7.1 0 .2 0 .4-.1ZM243.2 83.9l3.7-3.7c.4-.4.4-1 0-1.4-.4-.4-1-.4-1.4 0l-3.7 3.7c-.4.4-.4 1 0 1.4.2.2.4.3.7.3.3 0 .5-.1.7-.3Z" fill="#142D6E"/><path d="M209.619 81.335a7.302 7.302 0 0 0 3.967 9.532 7.302 7.302 0 0 0 9.531-3.967 7.302 7.302 0 0 0-3.967-9.532 7.302 7.302 0 0 0-9.531 3.967Z" fill="#fff"/><path d="M219.499 91.795c2.1-.8 3.7-2.4 4.5-4.5.9-2.1.9-4.3 0-6.4-.8-2.1-2.4-3.7-4.5-4.5-2.1-.9-4.3-.9-6.4 0-2.1.8-3.7 2.4-4.5 4.5-1.8 4.3.2 9.1 4.5 10.9 1 .4 2.1.6 3.2.6s2.2-.2 3.2-.6ZM213.902 78.2c-1.6.7-2.8 1.9-3.4 3.4-1.3 3.2.2 6.9 3.4 8.3 1.6.6 3.3.6 4.9 0 1.6-.7 2.8-1.9 3.4-3.4.6-1.6.6-3.3 0-4.9-.7-1.6-1.9-2.8-3.4-3.4-.8-.3-1.6-.5-2.5-.5-.8 0-1.7.2-2.4.5Z" fill="#142D6E"/><path d="M216.366 86.304a1.899 1.899 0 1 0 3.127 2.159 1.9 1.9 0 1 0-3.127-2.16ZM211.802 78.201c.4-.2.6-.8.4-1.3l-1.8-3.5c-.2-.4-.8-.6-1.3-.4-.4.2-.6.8-.4 1.3l1.8 3.5c.2.4.5.6.9.6.2 0 .3-.1.4-.2ZM215.7 76.8v-5.2c0-.5-.4-1-1-1s-1 .4-1 1v5.2c0 .5.4 1 1 1 .5 0 1-.5 1-1ZM227.801 90.005c0 .4.1.7.4.9 1 .7 2.2 2.1 1.9 2.6-.2.4-.5.7-.9.8-.6.1-1.6-.1-2.6-.7-.5-.3-1.1-.2-1.4.3-.3.5-.2 1.1.3 1.4 1.2.7 2.2 1 3.2 1 .4 0 .7-.1 1.1 0 .9-.3 1.6-.9 2.1-1.8 1-1.9-1-4-2-4.8l.5-6.6c.1-.6-.4-1.1-.9-1.1-.6-.1-1.1.3-1.1.9l-.6 7.1ZM225.897 72.295c.4-.4.5-1 .1-1.4-.4-.4-1-.5-1.4-.1-3.3 3.1-6.9 1.9-7.1 1.8-.5-.2-1.1.1-1.3.6-.2.5.1 1.1.6 1.3 0 0 1.1.4 2.6.4 1.7 0 4.2-.5 6.5-2.6ZM243.203 78.403c0-.5-.4-1-1-1-4.6-.2-6.2-3.6-6.3-3.8-.2-.5-.8-.7-1.3-.5-.5.2-.7.8-.5 1.3.1.2 2.2 4.7 8.1 5 .5 0 1-.4 1-1ZM216.099 104.001c1.1-1.8 4.9-3 6.3-3.3.6-.1.9-.7.8-1.2-.1-.6-.7-.9-1.2-.8-.6.1-5.9 1.3-7.6 4.3-.3.5-.1 1.1.4 1.4.2.1.3.1.5.1.4 0 .7-.2.8-.5Z" fill="#142D6E"/><path d="m218.9 38-4.3-.6v2.2l5.9.7-1.6-2.3Z" fill="#E2A40A"/><path d="M202.903 33.403c-24 24.6-15.3 43.3-15.3 43.3 1.2-31.1 31.3-38.7 31.3-38.7-7.4-9.9-15.9-4.6-16-4.6Z" fill="#FFC412"/><path d="M108.503 204.6c.4 0 .7-.2.8-.5 9.4-15.9 29.1-46.8 36.2-50 8.5-3.7 19.1-1.5 32.5 7 .5.8 1.5 2.6 1 3.9-.5 1.2-2.2 1.8-3.6 2-.5.1-.9.7-.8 1.2.1.5.7.9 1.2.8 2.8-.5 4.5-1.6 5.2-3.3 1.1-2.8-1.3-5.9-1.4-6-.1-.1-.2-.1-.3-.2-14.1-8.9-25.4-11.3-34.6-7.2-9.5 4.2-36 48.9-37.1 50.8-.2.5-.1 1.1.4 1.4.2.1.3.1.5.1Z" fill="#142D6E"/><path d="M156.101 159.801c8.2 2.5 21.2 8.1 21.1 12.3 0 1.2-.4 2-1.1 2.5-1.9 1.5-6.1.6-7.5.2-.5-.1-1 .2-1.2.7-.1.5.2 1 .7 1.2.2 0 2.5.7 4.9.7 1.6 0 3.2-.3 4.2-1.2 1.2-.9 1.9-2.3 1.9-4.1.1-7.1-20.2-13.5-22.5-14.2-.5-.1-1 .2-1.2.7-.1.5.2 1 .7 1.2Z" fill="#142D6E"/><path d="M172.597 181.497c-.1 1.3-.5 2.1-1.1 2.5-1.1.6-2.8 0-3.4-.3-.4-.3-1-.1-1.3.4-.3.4-.1 1 .4 1.3.2.1 1.6.8 3.2.8.7 0 1.4-.1 2.1-.5 1.3-.7 2-2 2.2-4 .6-6.2-18.2-12.6-22-13.8-.6-.2-1.1.1-1.3.6-.2.6.1 1.1.6 1.3 8.7 2.8 20.9 8.3 20.6 11.7Z" fill="#142D6E"/><path d="M171.2 187.601c-.2-5-15.8-8.7-20.6-9.7-.5-.1-1.1.2-1.2.8-.1.6.3 1.1.8 1.2 9 1.9 18.9 5.4 19 7.8 0 .1 0 .3-.2.5-2.1 2.2-12.8 3-19 2.9-.5 0-1 .5-1 1s.4 1 1 1h.5c3.2 0 16.8-.2 19.9-3.5.7-.7.8-1.5.8-2Z" fill="#142D6E"/><path d="M178.499 125.999c.5.1 1.1-.3 1.2-.8.1-.5-.3-1.1-.8-1.2-25.9-5.9-39.7-6.4-49.2-1.6-9.7 4.9-14.8 15.1-22.4 30.5-2.8 5.5-5.9 11.7-9.6 18.6-26.5 48.7-19.7 80.3-10.2 86.4 3.6 2.3 8.2 3.8 13.4 3.8 7.4 0 16-3.1 24.4-11.7 12.5-13.4 28.1-54.9 28.8-56.7.2-.5-.1-1.1-.6-1.3-.5-.2-1.1.1-1.3.6-.2.4-16.2 42.9-28.4 56-13 13.9-27 12.8-35 7.7-8.7-5.6-14.7-36.8 10.8-83.8 3.8-6.9 6.9-13.2 9.6-18.7 15.3-31 19.4-39.3 69.3-27.8Z" fill="#142D6E"/><path d="M122.295 181.495c.5 0 .9-.6.8-1.1 0-.5-.6-.9-1.1-.8-.2.1-15 2.3-22.7-8.3-.3-.4-1-.5-1.4-.2-.4.3-.5 1-.2 1.4 5.9 8.1 15.3 9.4 20.6 9.4 2.3 0 3.8-.2 4-.4ZM269.001 190.899c-.6.1-.9.7-.8 1.2 8 35.9 20.9 60.3 34.6 65.2 1.8.7 3.6 1 5.4 1 3.7 0 7.5-1.4 11.2-4.3 20.9-16.2-11.2-73.7-12.6-76.1-.3-.5-.9-.7-1.4-.4-.5.3-.7.9-.4 1.4.3.5 32.7 58.4 13.1 73.5-4.8 3.8-9.7 4.8-14.6 3-12.8-4.6-25.6-29-33.3-63.7-.1-.6-.7-.9-1.2-.8Z" fill="#142D6E"/><path d="M247.4 159.197c3.4-6.6 12.3-12.6 20.4-11 10.7 2.2 38.3 50 48 68.2.2.3.5.5.9.5.2 0 .3 0 .6-.1.5-.3.7-.9.4-1.4-1.5-2.7-35.6-66.5-49.4-69.2-9-1.7-18.9 4.8-22.6 12.1-2.3 4.6-1.9 8.9 1.2 11.8.4.3 1 .3 1.4-.1.3-.4.3-1-.1-1.4-3.3-3-1.9-7.2-.8-9.4Z" fill="#142D6E"/><path d="M247.904 172.501c.8-4.7 10.7-12.1 14.5-14.6.5-.3.6-.9.3-1.4-.3-.5-.9-.6-1.4-.3-.6.3-14.3 9.4-15.4 15.9-.3 1.3 0 2.4.7 3.4.1.1 2 2.7 4.9 2.7.5 0 1.1-.4 1.1-1s-.4-1-1-1c-1.9 0-3.3-1.8-3.3-1.8-.4-.5-.5-1.1-.4-1.9Z" fill="#142D6E"/><path d="M254.704 186.695c.3-.5 0-1.1-.5-1.3-2.3-.9-3.5-2.1-3.6-3.7-.4-5.5 11.8-14.2 16.6-17.1.4-.3.6-.9.3-1.4-.3-.4-.9-.6-1.4-.3-1.8 1.2-18.1 11.3-17.5 19 .2 2.3 1.9 4.1 4.9 5.4.1.1.3.1.4.1.4 0 .8-.3.8-.7Z" fill="#142D6E"/><path d="M273.299 171.199c-.2-.5-.8-.7-1.3-.4-2.5 1.2-24.2 12.6-20.7 21.9.7 1.8 2 2.9 3.7 3.5.7.2 1.5.3 2.4.3 6.5 0 15.4-6 15.7-6.3.5-.3.6-.9.3-1.4-.3-.5-.9-.6-1.4-.3-3 2.1-12 7.1-16.5 5.7-1.2-.3-1.9-1.1-2.4-2.3-2.4-6.4 13.5-16.2 19.8-19.4.5-.2.7-.8.4-1.3ZM132.905 259.405l6-31.7c.1-.6-.3-1.1-.8-1.2-.6-.1-1.1.3-1.2.8l-6 31.7c-.1.6.3 1.1.8 1.2h.2c.5 0 .9-.3 1-.8ZM230.005 135.404c.3-.4.1-1-.4-1.3-7.7-4.1-25.3-6.7-26-6.8-.5-.1-1 .3-1.1.8-.1.5.3 1 .8 1.1.2.1 18 2.7 25.4 6.6.2.1.3.1.5.1.4 0 .7-.2.8-.5Z" fill="#142D6E"/><path d="M49.096 197.303c-.5-.2-1.1 0-1.3.5l-10.1 22.7c-.2.4-.1.8.2 1.1.2.2.4.3.7.3.1 0 .3 0 .4-.1l32.8-12.6c.3-.1.6-.5.6-.9s-.2-.7-.6-.9l-22.7-10.1ZM40.5 219.1l28.3-10.9-19.6-8.7-8.7 19.6Z" fill="#03D5B7"/></g></svg>