<svg viewBox="0 0 400 300" fill="none" xmlns="http://www.w3.org/2000/svg"><path d="M199.081 259.18c58.244 0 105.46-47.216 105.46-105.46 0-58.245-47.216-105.46-105.46-105.46-58.245 0-105.46 47.215-105.46 105.46 0 58.244 47.215 105.46 105.46 105.46Z" fill="#0E79E8" stroke="#000" stroke-width="2.362"/><path d="M199.709 272.072c65.369 0 118.363-52.994 118.363-118.363 0-65.37-52.994-118.361-118.363-118.361S81.348 88.34 81.348 153.709s52.992 118.363 118.361 118.363Z" stroke="#28FDFF" stroke-width="2.291" stroke-miterlimit="10"/><path d="M266.278 196.063a9.503 9.503 0 0 1-5.318 7.902 10.309 10.309 0 0 1 5.394 7.199s1.505-5.794 5.493-7.525a9.042 9.042 0 0 1-3.848-3.006 9.047 9.047 0 0 1-1.721-4.57ZM162.739 75.59a15.17 15.17 0 0 1-2.427 7.298 14.581 14.581 0 0 1-5.65 5.063 15.797 15.797 0 0 1 5.351 4.662 16.372 16.372 0 0 1 2.84 6.6s2.286-9.064 8.344-11.772a13.788 13.788 0 0 1-5.845-4.702 14.388 14.388 0 0 1-2.613-7.148Z" fill="#fff"/><path d="M185.161 111.023h-24.308a8.555 8.555 0 0 0-8.554 8.555v24.307a8.554 8.554 0 0 0 8.554 8.554h24.308a8.554 8.554 0 0 0 8.554-8.554v-24.307a8.555 8.555 0 0 0-8.554-8.555Z" fill="#FDE82B" stroke="#000" stroke-width="2.362" stroke-miterlimit="10"/><path d="M240.274 111.023h-26.716a7.35 7.35 0 0 0-7.35 7.351v26.716a7.35 7.35 0 0 0 7.35 7.349h26.716a7.35 7.35 0 0 0 7.35-7.349v-26.716a7.35 7.35 0 0 0-7.35-7.351ZM186.842 162.349h-27.669a6.874 6.874 0 0 0-6.874 6.873v27.669a6.875 6.875 0 0 0 6.874 6.874h27.669a6.874 6.874 0 0 0 6.873-6.874v-27.669a6.873 6.873 0 0 0-6.873-6.873Z" fill="#28FDFF" stroke="#000" stroke-width="2.362" stroke-miterlimit="10"/><path d="M239.922 162.349h-26.013a7.701 7.701 0 0 0-7.701 7.701v26.013a7.701 7.701 0 0 0 7.701 7.702h26.013a7.702 7.702 0 0 0 7.702-7.702V170.05a7.701 7.701 0 0 0-7.702-7.701Z" fill="#FDE82B" stroke="#000" stroke-width="2.362" stroke-miterlimit="10"/><path d="M83.795 129.921a9.45 9.45 0 1 0 0-18.897 9.45 9.45 0 0 0 0 18.897ZM310.567 262.205a4.723 4.723 0 0 0 4.724-4.725 4.723 4.723 0 0 0-4.724-4.724 4.723 4.723 0 0 0-4.724 4.724 4.723 4.723 0 0 0 4.724 4.725Z" fill="#28FDFF"/></svg>