<svg viewBox="0 0 400 300" fill="none" xmlns="http://www.w3.org/2000/svg"><path d="M83.795 129.921a9.449 9.449 0 0 0 9.45-9.449c0-5.218-4.231-9.449-9.45-9.449a9.45 9.45 0 0 0 0 18.898ZM310.567 262.205a4.723 4.723 0 0 0 4.724-4.725 4.723 4.723 0 0 0-4.724-4.724 4.723 4.723 0 0 0-4.724 4.724 4.723 4.723 0 0 0 4.724 4.725Z" fill="#28FDFF"/><path d="M199.081 259.18c58.244 0 105.46-47.216 105.46-105.46 0-58.245-47.216-105.46-105.46-105.46-58.245 0-105.46 47.215-105.46 105.46 0 58.244 47.215 105.46 105.46 105.46Z" fill="#0E79E8" stroke="#000" stroke-width="2.362"/><path d="M199.709 272.072c65.369 0 118.363-52.994 118.363-118.363 0-65.37-52.994-118.361-118.363-118.361S81.348 88.34 81.348 153.709s52.992 118.363 118.361 118.363Z" stroke="#28FDFF" stroke-width="2.291" stroke-miterlimit="10"/><path d="M266.279 196.063a9.513 9.513 0 0 1-5.318 7.902 10.305 10.305 0 0 1 5.393 7.199s1.505-5.794 5.494-7.525a9.03 9.03 0 0 1-5.569-7.576ZM162.739 75.59a15.16 15.16 0 0 1-2.428 7.298 14.574 14.574 0 0 1-5.65 5.063 15.79 15.79 0 0 1 5.352 4.662 16.386 16.386 0 0 1 2.84 6.6s2.286-9.064 8.344-11.772a13.782 13.782 0 0 1-5.845-4.702 14.378 14.378 0 0 1-2.613-7.148Z" fill="#fff"/><path d="M216.078 113.386c-3.543-13.229-18.339-9.397-23.852-4.949-12.372-8.983-23.356 0-24.24 7.187-.707 5.749 3.998 17.025 6.439 21.945-30.905 17.556-37.032 56.167-36.233 73.278 11.615 9.958 25.965 4.919 31.688 1.155 1.263 2.395 6.893 7.186 19.316 7.186 12.423 0 23.019-4.791 26.765-7.186 10.907 9.24 23.65 3.85 28.658 0-.808-49.896-25.502-70.412-37.748-74.433 3.661-5.647 10.99-17.527 9.207-24.183Z" fill="#FDE82B" stroke="#000" stroke-width="2.362"/><path d="M216.862 202.15c4.993 3.549 17.321 8.519 26.693 0m-73.48 10.649c-.113-2.58-.133-6.316.054-10.649l-.054 10.649Zm5.324-41.532c-3.496 9.323-4.867 21.503-5.27 30.883l5.27-30.883Zm40.468 41.532c.426-2.666.827-6.403.995-10.649l-.995 10.649Zm-4.26-41.532c4.768 8.343 5.644 20.995 5.255 30.883l-5.255-30.883Zm-72.415 28.753c4.295 2.839 16.497 7.241 30.937 2.13l-30.937-2.13Zm30.937 2.13c7.035 4.614 26.23 11.075 46.733 0h-46.733ZM204.151 103.84V92.126m-25.558 13.844V92.126v13.844Z" stroke="#000" stroke-width="2.362"/><path d="M250.071 165.606c-11.624 0-18.224 5.891-21.425 11.782-3.694-4.909-9.605-11.782-20.194-11.782-9.604 0-19.209 7.854-19.209 18.163 0 5.4 3.448 11.782 5.664 13.991l33.739 33.872c34.723-34.608 39.402-37.799 39.402-46.635 0-6.628-3.448-19.391-17.977-19.391Z" fill="#29F7FF" stroke="#000" stroke-width="2.362"/><path d="m229.71 222.047 24.493-24.493m-7.454-25.558c4.969.71 14.696 4.898 13.844 15.974l-13.844-15.974Z" stroke="#000" stroke-width="2.362"/></svg>