<svg viewBox="0 0 400 300" fill="none" xmlns="http://www.w3.org/2000/svg"><path d="M199.083 259.18c58.244 0 105.46-47.216 105.46-105.46 0-58.245-47.216-105.46-105.46-105.46-58.244 0-105.46 47.215-105.46 105.46 0 58.244 47.216 105.46 105.46 105.46Z" fill="#0E79E8" stroke="#000" stroke-width="2.362"/><path d="M199.711 272.072c65.369 0 118.363-52.994 118.363-118.363 0-65.37-52.994-118.361-118.363-118.361S81.35 88.34 81.35 153.709s52.992 118.363 118.361 118.363Z" stroke="#28FDFF" stroke-width="2.291" stroke-miterlimit="10"/><path d="M185.733 85.04a14.981 14.981 0 0 1-8.372 12.468 16.186 16.186 0 0 1 8.485 11.314s2.263-9.051 8.622-11.722a14.16 14.16 0 0 1-8.735-12.06ZM250.339 167.114a8.593 8.593 0 0 1-4.797 7.151 9.307 9.307 0 0 1 4.865 6.495s1.358-5.25 4.956-6.789a8.149 8.149 0 0 1-5.024-6.857ZM258.528 89.476a8.58 8.58 0 0 1-4.82 7.15 9.365 9.365 0 0 1 4.888 6.495s1.357-5.25 4.955-6.789a8.104 8.104 0 0 1-5.023-6.856Z" fill="#fff"/><path d="M270.361 119.391a35.481 35.481 0 0 0-35.075-1.765l-72.864 35.188 14.482 29.983 74.019-35.731c7.4-3.575 15.976-12.288 19.438-27.675Z" fill="#28FDFF" stroke="#000" stroke-width="2.362" stroke-miterlimit="10"/><path d="m254.525 114.276 9.458 19.574a33.934 33.934 0 0 0 6.427-14.46 29.177 29.177 0 0 0-15.885-5.114Z" fill="#fff" stroke="#000" stroke-width="1.299" stroke-miterlimit="10"/><path d="M240.653 145.301c6.237 0 11.292-5.056 11.292-11.292 0-6.237-5.055-11.292-11.292-11.292-6.236 0-11.291 5.055-11.291 11.292 0 6.236 5.055 11.292 11.291 11.292Z" fill="#FDE82B" stroke="#000" stroke-width="2.362" stroke-miterlimit="10"/><path d="M214.088 127.807s-18.103 3.033-34.373-4.91c-16.271-7.943-24.462-11.541-35.098-6.404l17.605 36.432s52.183-25.005 51.866-25.118Z" fill="#28FDFF" stroke="#000" stroke-width="2.362" stroke-miterlimit="10"/><path d="m144.578 116.611 17.639 36.538-9.577 4.624-15.594-32.3a4.685 4.685 0 0 1 2.182-6.254l5.339-2.578.011-.03Z" fill="#fff" stroke="#000" stroke-width="2.362" stroke-miterlimit="10"/><path d="M228.569 157.95s-13.577 12.378-17.537 29.961c-3.96 17.582-6.177 26.34-16.813 31.476l-17.583-36.432s52.047-25.344 51.933-25.005Z" fill="#28FDFF" stroke="#000" stroke-width="2.362" stroke-miterlimit="10"/><path d="m182.45 219.615-15.544-32.198 9.578-4.624 17.64 36.538-5.217 2.519a4.812 4.812 0 0 1-3.693.224 4.821 4.821 0 0 1-2.764-2.459ZM142.454 137.02l34.433 71.323-8.885 4.29a5.435 5.435 0 0 1-5.975-.838 5.432 5.432 0 0 1-1.277-1.692l-29.71-61.542a5.423 5.423 0 0 1 .837-5.976 5.426 5.426 0 0 1 1.692-1.276l8.885-4.289Z" fill="#fff" stroke="#000" stroke-width="2.362" stroke-miterlimit="10"/><path d="m176.985 150.94 10.162 21.051a13.94 13.94 0 0 1-6.492 18.613l-17.016 8.215-22.283-46.157 17.015-8.215a13.932 13.932 0 0 1 10.652-.608 13.934 13.934 0 0 1 7.962 7.101Z" fill="#FDE82B" stroke="#000" stroke-width="2.362" stroke-miterlimit="10"/><path d="m182.339 161.48 48.312-21.792M251.627 128.713l7.468-3.394M148.281 167.001l29.485-12.717M156.585 183.09l29.486-12.695" stroke="#000" stroke-width="2.362" stroke-miterlimit="10"/><path d="M139.48 186.439a8.581 8.581 0 0 1-4.888 7.151 9.371 9.371 0 0 1 4.888 6.494s1.358-5.25 4.933-6.788a8.098 8.098 0 0 1-4.933-6.857Z" fill="#fff"/><path d="M83.795 129.922c5.219 0 9.45-4.231 9.45-9.449a9.449 9.449 0 0 0-9.45-9.449 9.45 9.45 0 0 0 0 18.898ZM310.567 262.205a4.723 4.723 0 0 0 4.724-4.725 4.723 4.723 0 0 0-4.724-4.724 4.723 4.723 0 0 0-4.724 4.724 4.723 4.723 0 0 0 4.724 4.725Z" fill="#28FDFF"/></svg>