<svg viewBox="0 0 400 300" fill="none" xmlns="http://www.w3.org/2000/svg"><path d="M96.797 160.239c9.312-5.931 26.065-17.923 20.666-32.524-15.995-43.231.389-73.09 29.139-76.35 59.895-6.78 48.901 83.482 136.704 56.93 61.387-18.566 104.205 33.867 61.618 69.414-30.649 25.581-62.049 63.152-62.049 63.152l-118.608-.429c-24.158-34.425-65.996-30.123-83.826-40.288-22.283-12.701 7.363-34.182 16.352-39.905" fill="#E9F3FD"/><path d="M204.085 240.25H133.37a9.171 9.171 0 0 1-9.167-9.169V82.601a9.167 9.167 0 0 1 9.158-9.177h70.724a9.164 9.164 0 0 1 8.474 5.666 9.18 9.18 0 0 1 .695 3.512V231.08a9.165 9.165 0 0 1-2.686 6.483 9.165 9.165 0 0 1-6.483 2.686Z" fill="#fff"/><path d="M204.085 73.435h-70.713a9.169 9.169 0 0 0-9.169 9.169V231.08a9.169 9.169 0 0 0 9.169 9.168h70.713a9.169 9.169 0 0 0 9.169-9.168V82.604a9.169 9.169 0 0 0-9.169-9.17Z" stroke="#010344" stroke-width=".231" stroke-miterlimit="10"/><path d="M210.043 85.305h-82.625v138.129h82.625V85.305Z" fill="#CBE3F7"/><path d="M170.084 79.928a1.338 1.338 0 1 1-2.675.002 1.338 1.338 0 0 1 2.675-.002Z" fill="#010344"/><path d="M168.73 235.982a4.447 4.447 0 1 0 .002-8.894 4.447 4.447 0 0 0-.002 8.894Z" stroke="#010344" stroke-width=".231" stroke-miterlimit="10"/><g clip-path="url(#a)"><path fill-rule="evenodd" clip-rule="evenodd" d="M106.281 217.7c-9.224 5.577 3.336 23.212 3.336 23.212l-10.703 7.904c-4.15-1.964-6.477-4.328-7.747-6.58l-7.49 8.442c-5.197-.231-10.673-1.954-13.185-6.874-.796-1.558-.863-3.587-.929-5.586-.086-2.606-.17-5.158-1.867-6.538-1.382-1.123-3.386-1.594-5.095-1.894-.898-.156-6.014-1.042-6.69-.156 3.449-4.505-2.652-1.647-2.652-1.647-2.033-.687-2.899-4.626-3.564-7.65-.266-1.211-.5-2.276-.764-2.926-.574-1.433-5.856-11.109-7.533-10.498 7.259-2.648 15.07-.821 21.258 3.538 2.639 1.86 4.35 4.415 5.822 7.243.153.294.434.992.78 1.856.936 2.328 2.356 5.863 3.08 5.957 1.05.142 11.24 5.911 17.58 9.548.109-.589.23-.928.23-.928.792-2.191-1.942-5.767-1.942-5.767-7.84-7.095-1.227-13.865-1.227-13.865 2.856-2.911 1.174-8.108-.923-10.795-.8-1.026-2.082-1.798-3.377-2.577-2.146-1.292-4.327-2.604-4.412-5.132-.047-1.4.706-2.605 1.466-3.824.403-.647.81-1.297 1.099-1.982 1.347-3.192-.206-6.65-2.593-8.871-.497-.463-1.037-.899-1.578-1.336-1.522-1.228-3.047-2.458-3.605-4.288-.757-2.479.694-5.227 2.867-6.631 2.173-1.405 4.883-1.696 7.467-1.59 4.618.19 9.298 1.61 12.758 4.685 4.936 4.399 6.625 11.504 6.334 18.11l-.001.016c-.214 4.939-.366 8.456 3.274 12.082.422.421.866.832 1.312 1.245 2.267 2.101 4.568 4.233 4.12 7.682-.35 2.706-2.659 5.054-4.906 6.415Z" fill="#C7E5FA"/><mask id="b" style="mask-type:alpha" maskUnits="userSpaceOnUse" x="41" y="167" width="71" height="84"><path fill-rule="evenodd" clip-rule="evenodd" d="M106.281 217.7c-9.224 5.577 3.336 23.212 3.336 23.212l-10.703 7.904c-4.15-1.964-6.477-4.328-7.747-6.58l-7.49 8.442c-5.197-.231-10.673-1.954-13.185-6.874-.796-1.558-.863-3.587-.929-5.586-.086-2.606-.17-5.158-1.867-6.538-1.382-1.123-3.386-1.594-5.095-1.894-.898-.156-6.014-1.042-6.69-.156 3.449-4.505-2.652-1.647-2.652-1.647-2.033-.687-2.899-4.626-3.564-7.65-.266-1.211-.5-2.276-.764-2.926-.574-1.433-5.856-11.109-7.533-10.498 7.259-2.648 15.07-.821 21.258 3.538 2.639 1.86 4.35 4.415 5.822 7.243.153.294.434.992.78 1.856.936 2.328 2.356 5.863 3.08 5.957 1.05.142 11.24 5.911 17.58 9.548.109-.589.23-.928.23-.928.792-2.191-1.942-5.767-1.942-5.767-7.84-7.095-1.227-13.865-1.227-13.865 2.856-2.911 1.174-8.108-.923-10.795-.8-1.026-2.082-1.798-3.377-2.577-2.146-1.292-4.327-2.604-4.412-5.132-.047-1.4.706-2.605 1.466-3.824.403-.647.81-1.297 1.099-1.982 1.347-3.192-.206-6.65-2.593-8.871-.497-.463-1.037-.899-1.578-1.336-1.522-1.228-3.047-2.458-3.605-4.288-.757-2.479.694-5.227 2.867-6.631 2.173-1.405 4.883-1.696 7.467-1.59 4.618.19 9.298 1.61 12.758 4.685 4.936 4.399 6.625 11.504 6.334 18.11l-.001.016c-.214 4.939-.366 8.456 3.274 12.082.422.421.866.832 1.312 1.245 2.267 2.101 4.568 4.233 4.12 7.682-.35 2.706-2.659 5.054-4.906 6.415Z" fill="#C7E5FA"/></mask><g mask="url(#b)" stroke="#fff" stroke-width=".173" stroke-miterlimit="10"><path d="M71.906 164.43c1.008 3.921 3.635 6.41 6.811 8.689 2.002 1.439 4.478 2.699 5.95 4.74 2.124 2.946.691 5.665.993 9.022.173 1.87.845 3.759 2.21 5.049 5.508 5.213 8.604 9.397 7.773 17.401-1.171 11.287-1.845 24.202 8.844 31.583M41.398 206.916c7.17 1.485 13.609 5.81 17.53 12.018 1.77 2.8 2.325 6.271 5.09 8.304 2.826 2.076 6.556 2.463 9.744 3.72 5.864 2.307 9.856 8.205 11.87 13.992"/></g></g><path d="m187.028 142.399-5.739 22.956h-32.111v4.316h3.635a4.044 4.044 0 1 0 7.151 0h12.737a4.044 4.044 0 1 0 7.151 0h4.805l5.739-22.944h9.155v-4.328h-12.523Z" fill="#E8F3FD" stroke="#241614" stroke-width=".231" stroke-miterlimit="10"/><path d="m164.7 139.963 7.681-11.99-3.988 1.14v-7.434h-7.388v7.434l-3.988-1.14 7.683 11.99Z" fill="#0CC3CD" stroke="#241614" stroke-width=".173" stroke-miterlimit="10"/><path d="M183.292 144.558h-37.185v4.097h36.228l.957-4.097Z" fill="#FA6765" stroke="#241614" stroke-width=".231" stroke-miterlimit="10"/><path d="m179.007 162.889 2.869-12.273h-32.888l2.869 12.273h27.15Z" fill="#2E55E4" stroke="#241614" stroke-width=".231" stroke-miterlimit="10"/><path d="M221.622 68.734c3.416 3.825 7.381 7.381 11.951 9.776 4.191 2.186 9.056 3.314 13.706 2.456 2.025-.373 4.339-1.587 4.366-3.646.026-1.97-2.059-3.244-3.921-3.857a23.56 23.56 0 0 0-10.61-.923c-3.541.503-7.414 2.307-8.27 5.785-.662 2.694.757 5.49 2.621 7.543a17.943 17.943 0 0 0 11.281 5.73c9.751 1.026 7.774-9.59-2.101-8.293-1.831.23-3.709.554-5.289 1.509-1.58.955-2.812 2.706-2.634 4.544.099 1.026.613 1.963 1.199 2.81a16.234 16.234 0 0 0 7.965 6.052c1.755.609 4.288.533 4.802-1.255.296-1.035-.343-2.15-1.222-2.768-2.307-1.614-6.064.063-6.401 2.851-.461 3.82 4.044 4.826 6.906 4.83" stroke="#000" stroke-width=".231" stroke-miterlimit="10"/><path opacity=".55" d="M214.441 143.728h-13.113a1.73 1.73 0 0 0-1.73 1.73v13.113c0 .956.775 1.73 1.73 1.73h13.113a1.73 1.73 0 0 0 1.73-1.73v-13.113a1.73 1.73 0 0 0-1.73-1.73Z" fill="#C7DCFA"/><path d="M268.841 240.838s15.558-18.409 16.585-18.668c.659-.168 1.688-4.825 1.983-5.607.771-2.035 1.726-3.903 3.363-5.377 3.841-3.46 8.996-5.319 14.119-4.113-1.185-.279-3.985 6.706-4.258 7.723-.438 1.615-.23 6.634-2.076 7.515 0 0-4.364-1.444-1.663 1.329-.53-.545-3.921.461-4.516.645-1.133.342-2.454.824-3.299 1.694-1.845 1.896.037 5.863-.922 8.442-1.308 3.536-2.752 5.854-6.256 6.431l-13.06-.014Z" fill="#C7E5FA"/><path d="M304.892 207.082a18.657 18.657 0 0 0-10.915 9.559c-.974 2.041-1.07 4.438-2.782 6.037-1.712 1.598-4.242 2.198-6.302 3.307-3.787 2.039-6.717 10.786-7.612 14.871" stroke="#fff" stroke-width=".173" stroke-miterlimit="10"/><path d="M26 240.847h308.724" stroke="#000" stroke-width=".231" stroke-miterlimit="10"/><path d="m219.159 234.781.913-8.902-6.911.277-.002 9.181 6-.556Z" fill="#F4CFD7"/><path d="m219.157 234.781-.094 5.614-3.246-.537-.205-.868-.856.972-8.86-1.465.291-1.76 5.218-.874.38-1.05 7.372-.032Z" fill="#2E55E6"/><path d="m212.213 237.281-.939-1.891-1.4 2.166-1.405-1.587-.929 1.617-.628-.969" stroke="#000" stroke-width=".231" stroke-miterlimit="10"/><path d="m271.761 231.747-2.853-8.479-6.178 3.114 3.802 8.357 5.229-2.992Z" fill="#F4CFD7"/><path d="m271.76 231.747 2.24 5.149-3.176.858-.547-.706-.376 1.236-8.673 2.339-.463-1.72 4.387-2.96-.088-1.112 6.696-3.084Z" fill="#2E55E6"/><path d="m266.478 236.901-1.638-1.334-.378 2.552-1.938-.863-.173 1.859-.973-.625" stroke="#000" stroke-width=".231" stroke-miterlimit="10"/><path d="M259.741 155.573s3.057 4.917-2.721 9.457l2.05 3.054s8.551-6.175 9.418-8.454l-8.747-4.057Z" fill="#F4CFD7"/><path d="M266.134 209.442s6.576-1.928 1.958-6.643c-1.123-1.153-2.134-2.892-1.931-4.549.314-2.537 2.672-3.337 4.584-4.463 2.715-1.596 3.16-3.711 3.785-6.673.837-3.961 2.92-7.914 6.516-9.769 2.515-1.296 5.513-1.423 8.279-.83 1.548.33 3.112.923 4.184 2.076 1.073 1.153 1.513 3.017.692 4.369-.821 1.351-2.537 1.785-3.921 2.537-1.756.953-3.204 2.768-2.89 4.862.191 1.299 1.003 2.575.632 3.834-.692 2.383-4.115 2.09-5.792 3.382-1.677 1.291-3.442 4.096-2.201 6.258 0 0 2.888 5.021-2.842 8.031 0 0-2.163 1.703-2.03 3.117 0 0 .54 5.838-7.441 7.381l-1.582-12.92Z" fill="#C7E5FA"/><path d="M296.595 176.466c-1.195 2.168-3.133 3.246-5.363 4.113-1.405.547-3.066.923-4.249 1.901-1.709 1.423-1.271 3.254-1.965 5.196-.388 1.082-1.075 2.1-2.076 2.658-4.06 2.249-6.535 4.258-7.262 9.129-1.029 6.87-2.592 14.629-10.061 17.372" stroke="#fff" stroke-width=".173" stroke-miterlimit="10"/><path d="M243.038 186.569c1.059 15.519 19.754 43.1 19.754 43.1l8.627-3.368s-2.68-19.309-7.15-29.636c-3.642-8.389-2.768-22.208-5.363-31.303-.602-2.097-1.262-3.892-2.023-5.246l-2.791-.489-11.337-1.981a257.928 257.928 0 0 0 .283 28.923Z" fill="#003FC6"/><path d="M254.922 161.297c-.627 8.251-20.82 26.245-22.815 37.322-1.995 11.076-10.149 32.542-10.149 32.542l-11.395-1.631s.067-31.882 9.644-50.841c7.015-13.883 16.753-22.944 16.753-22.944l17.962 5.552Z" fill="#2E55E4"/><path d="m261.888 159.798 15.194.435a1.142 1.142 0 0 0 1.174-1.109l.591-20.615a1.142 1.142 0 0 0-1.109-1.174l-15.195-.435a1.142 1.142 0 0 0-1.174 1.108l-.59 20.616a1.142 1.142 0 0 0 1.109 1.174Z" fill="#E8F3FD" stroke="#000" stroke-width=".231" stroke-miterlimit="10"/><path d="m275.445 137.27 2.076.06a1.342 1.342 0 0 1 1.307 1.383l-.578 20.209a1.349 1.349 0 0 1-1.384 1.306l-2.076-.06.655-22.898Z" fill="#2E55E6"/><path d="m279.289 156.422-2.668-.076.099-3.433 2.667.076a.762.762 0 0 1 .739.783l-.054 1.906a.761.761 0 0 1-.783.744Z" fill="#2E55E6"/><path d="M296.632 235.812a.362.362 0 0 0 .369-.349l.964-33.774a6.385 6.385 0 0 0-6.193-6.56l-2.498-.071a5.672 5.672 0 0 1-5.502-5.825l.812-28.337a6.387 6.387 0 0 0-6.195-6.558.362.362 0 0 0-.368.347.357.357 0 0 0 .347.368 5.678 5.678 0 0 1 5.499 5.822l-.812 28.338a6.39 6.39 0 0 0 6.196 6.56l2.498.071a5.668 5.668 0 0 1 5.496 5.825l-.964 33.773a.359.359 0 0 0 .351.37Z" fill="#2E55E6"/><path d="m299.398 236.322-5.534-.158.12-4.197a1.338 1.338 0 0 1 1.378-1.301l2.857.082a1.341 1.341 0 0 1 1.301 1.378l-.12 4.196h-.002Z" fill="#2E55E6"/><path d="M241.549 119.388c-3.691.385-5.32-2.201-4.844-5.176.216-1.32.569-2.731 1.462-3.758.814-.943 1.914-1.582 3.16-1.614 2.611-.053 4.775 2.265 4.83 5.176a5.238 5.238 0 0 1-4.608 5.372Z" fill="#F4CFD7"/><path d="m242.325 117.551-3.124-.149-.204 4.272 3.125.149.203-4.272Z" fill="#F4CFD7"/><path d="M239.201 113.231c.156-.103.207-.302.114-.443-.094-.142-.296-.173-.453-.07-.156.104-.207.302-.114.444.094.141.296.172.453.069ZM237.134 115.151a7.36 7.36 0 0 1 .296-2.111c.057-.198.378-.149.32.051a7.043 7.043 0 0 0-.286 2.03c.003.203-.327.235-.33.03Z" fill="#000"/><path d="m199.312 101.202 8.472 8.996c.805.854-.521 2.106-1.326 1.25l-8.475-8.996c-.401-.426-.957-1.681-.625-1.993.332-.311 1.55.316 1.954.743Z" fill="#2E55E6"/><path d="m203.433 106.475-3.219-.092a1.153 1.153 0 0 0-1.186 1.12l-.094 3.286a1.154 1.154 0 0 0 1.12 1.186l3.219.092a1.153 1.153 0 0 0 1.185-1.12l.094-3.286a1.154 1.154 0 0 0-1.119-1.186Z" fill="#F4CFD7"/><path d="m202.091 107.691.123-4.258s.777-.764 1.354.106l-.12 4.191" fill="#F4CFD7"/><path d="m202.091 107.691.123-4.258s.777-.764 1.354.106l-.12 4.191" stroke="#000" stroke-width=".231" stroke-miterlimit="10"/><path d="m203.358 110.7-3.415-.098-.132 4.607 3.415.098.132-4.607Z" fill="#F4CFD7"/><path d="M268.117 160.993c.789-2.353 1.041-4.936 1.347-7.381.858-6.83.441-14.071-2.839-20.285-2.537-4.802-6.775-8.304-11.803-10.271-.923-.425-3.818-1.038-4.86-1.204-15.028-2.755-19.791 1.291-26.107 6.015-13.429 10.05-18.386.143-19.528-13.826l-7.22.155c-.863 11.563-3.721 42.343 16.608 41.87 3.285-.076 5.665-.74 7.926-1.453 1.96 5.647 1.635 7.476 4.228 12.038 12.573-2.802 20.99-5.254 34.694-4.108-.625-1.993-.895-3.612-1.153-6.152 0 .09.196 4.51.735 4.641 2.252.552 5.917-.376 7.977-.034" fill="#0CC3CD"/><mask id="c" style="mask-type:alpha" maskUnits="userSpaceOnUse" x="196" y="114" width="74" height="53"><path d="M268.117 160.993c.789-2.353 1.041-4.936 1.347-7.381.858-6.83.441-14.071-2.839-20.285-2.537-4.802-6.775-8.304-11.803-10.271-.923-.425-3.818-1.038-4.86-1.204-15.028-2.755-19.791 1.291-26.107 6.015-13.429 10.05-18.386.143-19.528-13.826l-7.22.155c-.863 11.563-3.721 42.343 16.608 41.87 3.285-.076 5.665-.74 7.926-1.453 1.96 5.647 1.635 7.476 4.228 12.038 12.573-2.802 20.99-5.254 34.694-4.108-.625-1.993-.895-3.612-1.153-6.152 0 .09.196 4.51.735 4.641 2.252.552 5.917-.376 7.977-.034" fill="#0CC3CD"/></mask><g mask="url(#c)" fill="#21DFE3"><path d="M198.276 115.85a.992.992 0 1 0 0-1.984.992.992 0 0 0 0 1.984ZM206.375 116.08a.992.992 0 1 0 0-1.984.992.992 0 0 0 0 1.984ZM214.473 116.311a.992.992 0 1 0 0-1.984.992.992 0 0 0 0 1.984ZM222.572 116.544a.992.992 0 1 0 0-1.984.992.992 0 0 0 0 1.984ZM230.671 116.775a.992.992 0 1 0-.001-1.983.992.992 0 0 0 .001 1.983ZM238.769 117.005a.992.992 0 1 0 0-1.984.992.992 0 0 0 0 1.984ZM246.868 117.238a.992.992 0 1 0 0-1.984.992.992 0 0 0 0 1.984ZM254.967 117.469a.992.992 0 1 0 0-1.984.992.992 0 0 0 0 1.984ZM263.066 117.702a.992.992 0 1 0-.001-1.983.992.992 0 0 0 .001 1.983ZM198.077 122.786a.992.992 0 1 0 0-1.984.992.992 0 0 0 0 1.984ZM206.176 123.016a.992.992 0 1 0 0-1.983.992.992 0 0 0 0 1.983ZM214.275 123.249a.992.992 0 1 0 0-1.984.992.992 0 0 0 0 1.984ZM222.373 123.48a.992.992 0 1 0 0-1.984.992.992 0 0 0 0 1.984ZM230.472 123.711a.992.992 0 1 0 0-1.984.992.992 0 0 0 0 1.984ZM238.57 123.944a.992.992 0 1 0 0-1.984.992.992 0 0 0 0 1.984ZM246.67 124.174a.992.992 0 1 0-.001-1.983.992.992 0 0 0 .001 1.983ZM254.769 124.405a.992.992 0 1 0 0-1.985.992.992 0 0 0 0 1.985ZM262.867 124.638a.992.992 0 1 0 0-1.984.992.992 0 0 0 0 1.984ZM197.88 129.722a.992.992 0 1 0-.001-1.983.992.992 0 0 0 .001 1.983ZM205.979 129.953a.993.993 0 0 0 0-1.984.992.992 0 1 0 0 1.984ZM214.076 130.186a.992.992 0 1 0 0-1.985.992.992 0 0 0 0 1.985ZM222.175 130.416a.992.992 0 1 0 0-1.984.992.992 0 0 0 0 1.984ZM230.274 130.649a.992.992 0 1 0 0-1.984.992.992 0 0 0 0 1.984ZM238.372 130.88a.992.992 0 1 0 0-1.984.992.992 0 0 0 0 1.984ZM246.471 131.11a.992.992 0 1 0 0-1.984.992.992 0 0 0 0 1.984ZM254.57 131.344a.992.992 0 1 0-.001-1.983.992.992 0 0 0 .001 1.983ZM262.668 131.574a.992.992 0 1 0 0-1.984.992.992 0 0 0 0 1.984ZM270.768 131.807a.992.992 0 1 0 0-1.984.992.992 0 0 0 0 1.984ZM197.681 136.658a.992.992 0 1 0 0-1.984.992.992 0 0 0 0 1.984ZM205.78 136.891a.992.992 0 1 0 0-1.984.992.992 0 0 0 0 1.984ZM213.878 137.121a.992.992 0 1 0 0-1.983.992.992 0 0 0 0 1.983ZM221.976 137.352a.992.992 0 1 0 0-1.984.992.992 0 0 0 0 1.984ZM230.075 137.585a.992.992 0 1 0 0-1.984.992.992 0 0 0 0 1.984ZM238.174 137.816a.992.992 0 1 0-.001-1.983.992.992 0 0 0 .001 1.983ZM246.273 138.049a.992.992 0 1 0 0-1.984.992.992 0 0 0 0 1.984ZM254.371 138.279a.992.992 0 1 0 0-1.983.992.992 0 0 0 0 1.983ZM262.47 138.51a.992.992 0 1 0 0-1.983.992.992 0 0 0 0 1.983ZM270.569 138.743a.992.992 0 1 0 0-1.984.992.992 0 0 0 0 1.984ZM197.478 143.742a.992.992 0 1 0 0-1.985.992.992 0 0 0 0 1.985ZM205.577 143.972a.992.992 0 1 0 0-1.984.992.992 0 0 0 0 1.984ZM213.675 144.205a.992.992 0 1 0 0-1.984.992.992 0 0 0 0 1.984ZM221.774 144.436a.992.992 0 1 0-.001-1.983.992.992 0 0 0 .001 1.983ZM229.872 144.666a.992.992 0 1 0 0-1.983.992.992 0 0 0 0 1.983ZM237.971 144.9a.992.992 0 1 0 0-1.984.992.992 0 0 0 0 1.984ZM246.07 145.13a.991.991 0 1 0 0-1.983.991.991 0 0 0 0 1.983ZM254.169 145.363a.992.992 0 1 0 0-1.984.992.992 0 0 0 0 1.984ZM262.268 145.594a.992.992 0 1 0 0-1.984.992.992 0 0 0 0 1.984ZM270.366 145.825a.992.992 0 1 0 0-1.985.992.992 0 0 0 0 1.985ZM197.279 150.678a.992.992 0 1 0 0-1.984.992.992 0 0 0 0 1.984ZM205.379 150.911a.992.992 0 1 0-.001-1.983.992.992 0 0 0 .001 1.983ZM213.477 151.141a.992.992 0 1 0 0-1.985.992.992 0 0 0 0 1.985ZM221.576 151.372a.992.992 0 1 0 0-1.984.992.992 0 0 0 0 1.984ZM229.674 151.605a.992.992 0 1 0 0-1.984.992.992 0 0 0 0 1.984ZM237.772 151.836a.992.992 0 1 0 0-1.984.992.992 0 0 0 0 1.984ZM245.871 152.068a.992.992 0 1 0 0-1.983.992.992 0 0 0 0 1.983ZM253.97 152.299a.992.992 0 1 0 0-1.983.992.992 0 0 0 0 1.983ZM262.07 152.53a.992.992 0 1 0-.001-1.983.992.992 0 0 0 .001 1.983ZM270.17 152.763a.992.992 0 1 0-.001-1.983.992.992 0 0 0 .001 1.983ZM197.081 157.616a.992.992 0 1 0 0-1.984.992.992 0 0 0 0 1.984ZM205.18 157.847a.992.992 0 1 0 0-1.984.992.992 0 0 0 0 1.984ZM213.278 158.077a.992.992 0 1 0 0-1.983.992.992 0 0 0 0 1.983ZM221.377 158.31a.992.992 0 1 0 0-1.984.992.992 0 0 0 0 1.984ZM229.476 158.541a.992.992 0 1 0 0-1.984.992.992 0 0 0 0 1.984ZM237.574 158.772a.992.992 0 1 0 0-1.984.992.992 0 0 0 0 1.984ZM245.673 159.005a.992.992 0 1 0 0-1.984.992.992 0 0 0 0 1.984ZM253.772 159.235a.992.992 0 1 0 0-1.984.992.992 0 0 0 0 1.984ZM261.871 159.468a.992.992 0 1 0 0-1.984.992.992 0 0 0 0 1.984ZM269.971 159.699a.992.992 0 1 0 0-1.984.992.992 0 0 0 0 1.984ZM196.882 164.552a.992.992 0 1 0 0-1.984.992.992 0 0 0 0 1.984ZM204.982 164.783a.992.992 0 1 0 0-1.984.992.992 0 0 0 0 1.984ZM213.08 165.016a.992.992 0 1 0 0-1.984.992.992 0 0 0 0 1.984ZM221.179 165.246a.992.992 0 1 0 0-1.983.992.992 0 0 0 0 1.983ZM229.277 165.477a.992.992 0 1 0 0-1.983.992.992 0 0 0 0 1.983ZM237.376 165.71a.992.992 0 1 0 0-1.985.992.992 0 0 0 0 1.985ZM245.475 165.941a.992.992 0 1 0 0-1.984.992.992 0 0 0 0 1.984ZM253.574 166.172a.992.992 0 1 0 0-1.984.992.992 0 0 0 0 1.984ZM261.675 166.405a.992.992 0 1 0 0-1.985.992.992 0 0 0 0 1.985ZM269.773 166.635a.992.992 0 1 0 0-1.984.992.992 0 0 0 0 1.984Z"/></g><path d="m196.915 116.763 7.957-.09" stroke="#000" stroke-width=".231" stroke-miterlimit="10"/><path d="M267.16 157.962s1.185-8.131 1.026-12.153" stroke="#fff" stroke-width=".231" stroke-miterlimit="10"/><path d="M249.388 111.352c4.258 11.406 16.46 4.498 15.618 13.84-1.204 13.346-24.533 7.536-22.623-5.815 1.909-13.351 7.005-8.025 7.005-8.025ZM239.945 110.648a7.32 7.32 0 0 1-2.399-.087c1.384-2.162 3.711-3.507 6.242-3.313a6.352 6.352 0 0 1 2.715.856c-2.003 1.278-4.175 2.263-6.558 2.544Z" fill="#000"/><path d="M250.076 115.997c-2.999-.608-6.034-2.366-7.887-4.818a10.67 10.67 0 0 1-1.614-3.326 6.362 6.362 0 0 1 3.211-.605c3.833.298 6.675 4.002 6.345 8.279-.011.159-.037.314-.055.47Z" fill="#000"/><path d="M242.171 117.808c1.428 1.359 2.902 1.137 3.786.108.819-.957.742-2.749-.762-3.16a3.988 3.988 0 0 0-1.875 0 5.557 5.557 0 0 0-.922.796c-.561.616-1.032 1.49-.227 2.256Z" fill="#F4CFD7"/><path d="M243.247 116.51a1.843 1.843 0 0 1 2.247-.496c.209.103.078.443-.13.339a1.487 1.487 0 0 0-1.824.369c-.148.187-.443-.026-.293-.212Z" fill="#000"/><path d="M221.64 154.608s11.958-2.911 15.206-9.688" stroke="#000" stroke-width=".231" stroke-miterlimit="10"/><path d="M229.904 126.594s4.316-3.13 8.816-2.899" stroke="#fff" stroke-width=".231" stroke-miterlimit="10"/><path d="M260.382 162.532s-2.62-9.195-1.137-15.822M254.921 162.241s-.582 3.765-10.544 16.211M234.693 174.067a5.017 5.017 0 0 0 4.337-5.619 5.228 5.228 0 0 0-.206-.899l-9.78 1.261c-.018.308-.007.617.03.923a5.013 5.013 0 0 0 5.619 4.334ZM210.682 224.724l12.762 2.41M260.515 226.149l10.361-3.418M277.567 127.328s6.175 6.839 5.201 14.435" stroke="#000" stroke-width=".231" stroke-miterlimit="10"/><defs><clipPath id="a"><path fill="#fff" transform="translate(41.563 167.203)" d="M0 0h69.514v73.664H0z"/></clipPath></defs></svg>