<svg viewBox="0 0 400 300" fill="none" xmlns="http://www.w3.org/2000/svg"><path d="M313.772 123.273H169.729V227.03h144.043V123.273Z" fill="#CBE3F7" stroke="#241614" stroke-width=".589" stroke-miterlimit="10"/><path d="M313.773 80.657H168.472v7.084h145.301v-7.084Z" fill="#FA6765" stroke="#241614" stroke-width=".589" stroke-miterlimit="10"/><path d="M299.487 130.392h-45.785v89.713h45.785v-89.713Z" fill="#fff"/><path d="M313.773 72H168.472v8.657h145.301V72Z" fill="#F2F6FC"/><path d="M321.636 216.315H162.497v11.961h159.139v-11.961Z" fill="#F2F6FC" stroke="#241614" stroke-width=".589" stroke-miterlimit="10"/><path d="M258.696 126.159v28.526l28.994-28.526h-28.994ZM294.494 132.346l-28.557 29.966h28.557v-29.966ZM258.857 171.408V203.9l28.733-32.492h-28.733ZM294.332 178.457l-28.299 34.13h28.299v-34.13ZM144.487 109.394v22.296a2.502 2.502 0 0 0 .893 1.908 15.014 15.014 0 0 0 7.843 3.462c5.463.654 9.613-2.024 11.425-3.476a2.46 2.46 0 0 0 .919-1.928v-22.262h-21.08Z" fill="#12C1CB"/><path d="M165.567 109.394v22.296c.001.364.081.724.236 1.053.154.33.378.622.657.855a15.014 15.014 0 0 0 7.843 3.462c5.461.654 9.611-2.024 11.425-3.476a2.47 2.47 0 0 0 .917-1.928v-22.262h-21.078Z" fill="#EDEFEF"/><path d="M186.456 109.394v22.296a2.494 2.494 0 0 0 .895 1.908 15 15 0 0 0 7.84 3.462c5.463.654 9.613-2.024 11.426-3.476a2.472 2.472 0 0 0 .919-1.928v-22.262h-21.08Z" fill="#12C1CB"/><path d="M207.536 109.394v22.296a2.502 2.502 0 0 0 .893 1.908 15.014 15.014 0 0 0 7.843 3.462c5.462.654 9.613-2.024 11.425-3.476a2.46 2.46 0 0 0 .919-1.928v-22.262h-21.08Z" fill="#EDEFEF"/><path d="M228.616 109.394v22.296a2.487 2.487 0 0 0 .893 1.908 15.014 15.014 0 0 0 7.842 3.462c5.461.654 9.611-2.024 11.426-3.476a2.464 2.464 0 0 0 .917-1.928v-22.262h-21.078Z" fill="#12C1CB"/><path d="M249.694 109.394v22.296a2.48 2.48 0 0 0 .895 1.908 15.004 15.004 0 0 0 7.841 3.462c5.462.654 9.613-2.024 11.425-3.476a2.46 2.46 0 0 0 .919-1.928v-22.262h-21.08Z" fill="#EDEFEF"/><path d="M270.584 109.394v22.296a2.503 2.503 0 0 0 .894 1.908 15.01 15.01 0 0 0 7.842 3.462c5.461.654 9.613-2.024 11.425-3.476a2.464 2.464 0 0 0 .92-1.928v-22.262h-21.081Z" fill="#12C1CB"/><path d="M291.664 109.394v22.296c.001.364.081.724.236 1.053.154.33.378.622.657.855a15.014 15.014 0 0 0 7.843 3.462c5.461.654 9.611-2.024 11.425-3.476a2.467 2.467 0 0 0 .917-1.928v-22.262h-21.078Z" fill="#EDEFEF"/><path d="m196.478 86.653-9.767 22.741h20.825l6.038-22.777-17.096.036Z" fill="#1FE5E5"/><path d="m213.574 86.617-6.038 22.777h21.08l3.708-22.817-18.75.04Z" fill="#fff"/><path d="M159.585 86.73c-5.034 7.555-10.067 15.109-15.098 22.664h21.08l10.84-22.7-16.822.035Z" fill="#1FE5E5"/><path d="m176.407 86.693-10.84 22.701h21.144l9.767-22.74-20.071.04ZM249.694 86.543v22.851h20.89l-3.041-22.889-17.849.038ZM286.229 86.467l5.435 22.927h21.078l-7.656-22.967-18.857.04Z" fill="#fff"/><path d="m320.529 86.395-15.443.032 7.657 22.967h21.08l-13.294-22.999ZM232.324 86.577l-3.708 22.817h21.078v-22.85l-17.37.033ZM267.543 86.505l3.041 22.889h21.08l-5.435-22.927-18.686.038Z" fill="#1FE5E5"/><path d="m218.807 225.674.779-.986M219.518 225.89l.78-.986" stroke="#fff" stroke-width=".218" stroke-miterlimit="10" stroke-linecap="round"/><path d="m218.144 155.537-8.742-9.864-9.101 9.864h-8.25v17.481h34.673v-17.481h-8.58Zm-8.772-6.958 6.166 6.958H202.95l6.422-6.958Z" fill="#FA6765" stroke="#241614" stroke-width=".589" stroke-miterlimit="10"/><path d="M203.064 164.537v.404c0 .481-.06.912-.18 1.292-.12.381-.293.705-.518.972-.226.266-.497.47-.813.61a2.545 2.545 0 0 1-1.055.211c-.378 0-.725-.07-1.041-.211a2.341 2.341 0 0 1-.818-.61 2.862 2.862 0 0 1-.532-.972 4.097 4.097 0 0 1-.189-1.292v-.404c0-.48.062-.91.185-1.287.126-.381.303-.705.532-.972.228-.269.499-.474.813-.615a2.526 2.526 0 0 1 1.041-.211c.39 0 .741.07 1.055.211.316.141.587.346.813.615.228.267.403.591.523.972.123.377.184.807.184 1.287Zm-.839.404v-.413c0-.381-.039-.717-.119-1.01a2.11 2.11 0 0 0-.338-.739 1.45 1.45 0 0 0-.549-.452 1.662 1.662 0 0 0-.73-.154 1.63 1.63 0 0 0-.716.154 1.508 1.508 0 0 0-.545.452c-.149.2-.265.446-.347.739a3.754 3.754 0 0 0-.123 1.01v.413c0 .384.041.724.123 1.02.082.293.199.54.351.743.156.199.339.35.55.452.214.103.452.154.716.154.275 0 .52-.051.734-.154.214-.102.394-.253.54-.452.15-.203.263-.45.339-.743.076-.296.114-.636.114-1.02Zm4.469.488h-1.709v-.69h1.709c.331 0 .599-.052.805-.158a.987.987 0 0 0 .448-.439c.096-.188.145-.402.145-.642 0-.22-.049-.426-.145-.62a1.072 1.072 0 0 0-.448-.465c-.206-.121-.474-.181-.805-.181h-1.511v5.704h-.849v-6.398h2.36c.484 0 .892.084 1.226.251.334.167.588.398.761.694.173.293.259.628.259 1.006 0 .41-.086.76-.259 1.051-.173.29-.427.511-.761.663-.334.149-.742.224-1.226.224Zm7.383 1.82v.689h-3.388v-.689h3.388Zm-3.217-5.709v6.398h-.848v-6.398h.848Zm2.769 2.751v.69h-2.94v-.69h2.94Zm.404-2.751v.694h-3.344v-.694h3.344Zm6.016 0v6.398h-.852l-3.221-4.935v4.935h-.849v-6.398h.849l3.234 4.948v-4.948h.839Z" fill="#fff"/><path d="M312.742 109.394v22.296a2.495 2.495 0 0 0 .895 1.908 15.007 15.007 0 0 0 7.841 3.462c5.463.654 9.613-2.024 11.425-3.476a2.46 2.46 0 0 0 .919-1.928v-22.262h-21.08Z" fill="#12C1CB"/><path d="m184.869 172.512 3.711 2.148c.386.224.442 1.093.541 1.503.135.525.226 1.06.27 1.6.066 1.016-.152 2.212-1.337 2.4-.241.038-.913-.114-1.009-.4l-.941-2.82-2.497-2.029-16.892-11.878-9.725-5.147 4.721-7.146s9.164 7.176 23.158 21.767" fill="#F4CFD7"/><path d="M186.238 177.063s.514 2.984-.921 2.6c0 0-1.199-.2-.43-3.772" fill="#F4CFD7"/><path d="M186.238 177.063s.514 2.984-.921 2.6c0 0-1.199-.2-.43-3.772" stroke="#000" stroke-width=".589" stroke-miterlimit="10"/><g clip-path="url(#a)"><path fill-rule="evenodd" clip-rule="evenodd" d="M319.716 217.329c5.159 3.122-4.1 11.817-4.1 11.817l8.204 5.584c6.706-3.18 4.908-8.226 4.908-8.226-.442-1.222 1.085-3.222 1.085-3.222 4.385-3.961.687-7.761.687-7.761-1.593-1.63-.667-4.52.521-6.044.448-.573 1.164-1.004 1.888-1.44 1.2-.723 2.421-1.459 2.468-2.873.026-.784-.394-1.459-.819-2.141-.226-.362-.453-.726-.615-1.109-.748-1.786.114-3.722 1.45-4.966.275-.256.574-.498.873-.741.852-.69 1.707-1.382 2.025-2.407.429-1.384-.386-2.925-1.599-3.711s-2.729-.948-4.174-.888c-2.584.106-5.207.9-7.135 2.621-2.762 2.462-3.705 6.438-3.543 10.136.122 2.772.208 4.739-1.83 6.771-.235.235-.483.464-.731.695-1.27 1.178-2.557 2.373-2.306 4.305.196 1.524 1.486 2.838 2.743 3.6Zm22.199.998c-1.039.44-13.449 13.157-13.449 13.157l10.414 6.733c3.601-1.177 7.111-3.453 7.911-7.399.26-1.252-.09-2.695-.435-4.114-.449-1.844-.887-3.649.035-4.948.743-1.057 2.058-1.779 3.197-2.323.593-.282 4.01-1.902 4.657-1.414-3.296-2.49 1.541-1.674 1.541-1.674 1.295-.88 1.134-3.824 1.011-6.08-.05-.897-.093-1.686-.036-2.192.124-1.118 1.944-8.945 3.239-8.843-5.609-.442-10.734 2.364-14.225 6.634-1.488 1.821-2.193 3.947-2.675 6.221-.05.237-.111.784-.186 1.46-.203 1.818-.51 4.575-.999 4.782Z" fill="#C7E5FA"/><mask id="b" style="mask-type:alpha" maskUnits="userSpaceOnUse" x="315" y="189" width="45" height="50"><path fill-rule="evenodd" clip-rule="evenodd" d="M319.716 217.329c5.159 3.122-4.1 11.817-4.1 11.817l8.204 5.584c6.706-3.18 4.908-8.226 4.908-8.226-.442-1.222 1.085-3.222 1.085-3.222 4.385-3.961.687-7.761.687-7.761-1.593-1.63-.667-4.52.521-6.044.448-.573 1.164-1.004 1.888-1.44 1.2-.723 2.421-1.459 2.468-2.873.026-.784-.394-1.459-.819-2.141-.226-.362-.453-.726-.615-1.109-.748-1.786.114-3.722 1.45-4.966.275-.256.574-.498.873-.741.852-.69 1.707-1.382 2.025-2.407.429-1.384-.386-2.925-1.599-3.711s-2.729-.948-4.174-.888c-2.584.106-5.207.9-7.135 2.621-2.762 2.462-3.705 6.438-3.543 10.136.122 2.772.208 4.739-1.83 6.771-.235.235-.483.464-.731.695-1.27 1.178-2.557 2.373-2.306 4.305.196 1.524 1.486 2.838 2.743 3.6Zm22.199.998c-1.039.44-13.449 13.157-13.449 13.157l10.414 6.733c3.601-1.177 7.111-3.453 7.911-7.399.26-1.252-.09-2.695-.435-4.114-.449-1.844-.887-3.649.035-4.948.743-1.057 2.058-1.779 3.197-2.323.593-.282 4.01-1.902 4.657-1.414-3.296-2.49 1.541-1.674 1.541-1.674 1.295-.88 1.134-3.824 1.011-6.08-.05-.897-.093-1.686-.036-2.192.124-1.118 1.944-8.945 3.239-8.843-5.609-.442-10.734 2.364-14.225 6.634-1.488 1.821-2.193 3.947-2.675 6.221-.05.237-.111.784-.186 1.46-.203 1.818-.51 4.575-.999 4.782Z" fill="#C7E5FA"/></mask><g mask="url(#b)" stroke="#fff" stroke-width=".441" stroke-miterlimit="10"><path d="M341.771 177.937c-.679 2.646-2.449 4.326-4.595 5.864-1.349.97-3.018 1.822-4.011 3.2-1.432 1.986-.461 3.821-.669 6.085-.118 1.26-.569 2.536-1.491 3.4-3.712 3.518-5.794 6.342-5.239 11.741.8 7.614 1.251 16.327-5.962 21.307M360 199.226c-4.741 2.444-8.42 6.738-9.962 11.863-.696 2.312-.4 4.858-1.955 6.824-1.578 2-4.118 3-6.112 4.513-3.662 2.768-5.315 7.684-5.595 12.142"/></g></g><path d="m33.51 228.91 317.097-.684" stroke="#000" stroke-width=".589" stroke-miterlimit="10"/><path d="M88.33 129.95c9.623 0 17.424-7.807 17.424-17.438 0-9.632-7.8-17.44-17.424-17.44-9.623 0-17.423 7.808-17.423 17.44 0 9.631 7.8 17.438 17.423 17.438Z" fill="#00E9EB"/><path d="m78.652 112.71 7.097 5.507 12.258-11.829" stroke="#fff" stroke-width="7.651" stroke-miterlimit="10" stroke-linecap="round"/><g clip-path="url(#c)"><path fill-rule="evenodd" clip-rule="evenodd" d="M68.778 214.197c-6.218 3.766 4.944 14.245 4.944 14.245l-9.883 6.75c-2.012-.953-3.389-2.045-4.322-3.148l-4.022 4.536c-3.503-.156-7.193-1.318-8.887-4.638-.536-1.05-.58-2.418-.624-3.766-.057-1.76-.113-3.484-1.259-4.416-.933-.756-2.284-1.076-3.434-1.275-.6-.106-4.049-.706-4.504-.106 2.324-3.04-1.789-1.112-1.789-1.112-1.373-.464-1.959-3.133-2.407-5.176-.178-.811-.334-1.523-.51-1.96-.388-.966-3.948-7.495-5.079-7.082 4.893-1.785 10.158-.553 14.33 2.388 1.779 1.254 2.928 2.978 3.927 4.886.1.196.286.658.516 1.232.629 1.571 1.593 3.977 2.081 4.04.62.08 5.946 3.064 10.132 5.453.288-1.48-1.372-3.653-1.372-3.653-5.285-4.788-.825-9.356-.825-9.356 1.918-1.964.803-5.445-.63-7.283-.539-.692-1.403-1.212-2.276-1.738-1.446-.871-2.917-1.757-2.975-3.462-.031-.944.476-1.757.988-2.579.272-.437.546-.876.74-1.339.91-2.154-.137-4.485-1.748-5.985-.34-.321-.71-.621-1.082-.922-1.019-.825-2.037-1.649-2.41-2.878-.51-1.676.471-3.53 1.934-4.476 1.462-.946 3.29-1.142 5.033-1.072 3.103.128 6.266 1.086 8.592 3.162 3.327 2.968 4.47 7.761 4.27 12.217-.154 3.334-.26 5.714 2.198 8.164.284.283.584.561.884.84 1.528 1.417 3.079 2.855 2.776 5.183-.235 1.824-1.792 3.41-3.306 4.326Z" fill="#C7E5FA"/><mask id="d" style="mask-type:alpha" maskUnits="userSpaceOnUse" x="27" y="180" width="47" height="57"><path fill-rule="evenodd" clip-rule="evenodd" d="M68.778 214.197c-6.218 3.766 4.944 14.245 4.944 14.245l-9.883 6.75c-2.012-.953-3.389-2.045-4.322-3.148l-4.022 4.536c-3.503-.156-7.193-1.318-8.887-4.638-.536-1.05-.58-2.418-.624-3.766-.057-1.76-.113-3.484-1.259-4.416-.933-.756-2.284-1.076-3.434-1.275-.6-.106-4.049-.706-4.504-.106 2.324-3.04-1.789-1.112-1.789-1.112-1.373-.464-1.959-3.133-2.407-5.176-.178-.811-.334-1.523-.51-1.96-.388-.966-3.948-7.495-5.079-7.082 4.893-1.785 10.158-.553 14.33 2.388 1.779 1.254 2.928 2.978 3.927 4.886.1.196.286.658.516 1.232.629 1.571 1.593 3.977 2.081 4.04.62.08 5.946 3.064 10.132 5.453.288-1.48-1.372-3.653-1.372-3.653-5.285-4.788-.825-9.356-.825-9.356 1.918-1.964.803-5.445-.63-7.283-.539-.692-1.403-1.212-2.276-1.738-1.446-.871-2.917-1.757-2.975-3.462-.031-.944.476-1.757.988-2.579.272-.437.546-.876.74-1.339.91-2.154-.137-4.485-1.748-5.985-.34-.321-.71-.621-1.082-.922-1.019-.825-2.037-1.649-2.41-2.878-.51-1.676.471-3.53 1.934-4.476 1.462-.946 3.29-1.142 5.033-1.072 3.103.128 6.266 1.086 8.592 3.162 3.327 2.968 4.47 7.761 4.27 12.217-.154 3.334-.26 5.714 2.198 8.164.284.283.584.561.884.84 1.528 1.417 3.079 2.855 2.776 5.183-.235 1.824-1.792 3.41-3.306 4.326Z" fill="#C7E5FA"/></mask><g mask="url(#d)" stroke="#fff" stroke-width=".441" stroke-miterlimit="10"><path d="M47.569 178.383c.679 2.646 2.45 4.326 4.595 5.864 1.349.97 3.017 1.822 4.01 3.2 1.433 1.988.46 3.823.67 6.085.118 1.262.57 2.538 1.488 3.4 3.715 3.518 5.795 6.34 5.242 11.741-.79 7.614-1.251 16.327 5.96 21.307M27 207.05a18.439 18.439 0 0 1 11.823 8.107c1.199 1.89 1.566 4.232 3.433 5.6 1.902 1.4 4.417 1.662 6.567 2.509 3.953 1.562 6.642 5.536 7.993 9.44"/></g></g><path d="M91.412 127.776c5.81 22.621 22.526 26.713 22.526 26.713l9.16-9.432-14.089-1.304-15.915-18.442-2.468-2.534-.671-3.2c-.07-.328-.783-.58-1.051-.568-1.317.052-1.706 1.332-1.763 2.448a10.36 10.36 0 0 0 .092 1.8c.056.46 0 1.418.4 1.71l3.78 2.815" fill="#F4CFD7"/><path d="M90.486 122.633s-.181-3.324 1.333-2.712c0 0 1.287.366 0 4.174" fill="#F4CFD7"/><path d="M90.486 122.633s-.181-3.324 1.333-2.712c0 0 1.287.366 0 4.174" stroke="#000" stroke-width=".589" stroke-miterlimit="10"/><path d="M154.339 149.29c.339-2.16-4.949-4.788-11.813-5.868-6.863-1.081-12.702-.206-13.042 1.955-.339 2.16 4.949 4.787 11.813 5.868 6.863 1.081 12.702.205 13.042-1.955Z" fill="#EDCFD6"/><path d="M137.861 181.473H83.623a48.217 48.217 0 0 0 4.645-1.6c2.428-.964 4.494-3.538 9.663-1.666 2.773.486 3.055-1.944 4.572-3.122 1.872-1.455 3.52-.554 5.017.694 1.497 1.248 3.297 2.706 4.869 2.29 1.573-.416 3.197-5.263 5.469-6.599 2.024-1.18 4.42-.764 7.118 1.942 2.697 2.705 4.715 6.475 12.885 8.061Z" fill="#C5E3F8"/><path d="M143.678 139.454c-1.894.832-3.291.138-3.821-1.136-.489-1.186.2-2.878 1.843-2.774a4.287 4.287 0 0 1 1.872.616c.256.329.474.686.649 1.064.352.772.524 1.762-.543 2.23Z" fill="#F4CFD7"/><path d="M144.254 141.322c3.544 1.574 6.066-.362 6.594-3.37.237-1.334.367-2.8-.172-4.074-.492-1.172-1.373-2.144-2.61-2.576-2.597-.906-5.547.6-6.594 3.37a5.22 5.22 0 0 0 2.788 6.65" fill="#F4CFD7"/><path d="M143.037 137.866a1.97 1.97 0 0 0-2.078-1.212c-.244.032-.23.4.016.368a1.583 1.583 0 0 1 1.694.95c.088.222.456.116.368-.106ZM142.878 136.378c.12.105.273.164.432.166.432-.05.859-.53 1.171-.78a9.592 9.592 0 0 1 1.998-1.292c.953-.438 5.615-.07 5.916-1.638.44-2.29-3.083-1.1-4.319-1.532-2.598-.906-6.546.256-6.936 4.26-.02.082.649.3.717.326.256.089.506.193.75.312.092.054.182.114.267.178" fill="#000"/><path d="M141.912 133.418c1.243-.424 1.183-.576 2.597-.642.508-2.85-3.73-7.631-9.443-6.101-2.597.692-3.522 3.199-3.614 3.377-2.318-1.136-5.523-1.536-7.671-.614-3.137 1.346-2.696 4.724-.068 6.652 2.875 2.11 7.393 2.626 11.018 1.904 5.732-1.146 5.289-6.172 5.794-6.16.666.014 1.157 1.06 1.383 1.584" fill="#000"/><path d="m142.843 143.437 3.173.882 1.259-4.153-3.173-.882-1.259 4.153Z" fill="#F4CFD7"/><path d="M146.319 132.49a12.757 12.757 0 0 0-1.131-2.022c-1.64-2.429-5.127-5.999-10.83-4.423" stroke="#000" stroke-width=".589" stroke-miterlimit="10"/><path d="M148.374 136.868a.356.356 0 0 1-.476-.082.319.319 0 0 1 .038-.462.356.356 0 0 1 .476.082.327.327 0 0 1 .044.363.327.327 0 0 1-.082.099ZM149.686 139.07c.25-.68.394-1.394.428-2.118 0-.21-.326-.268-.336-.058a6.909 6.909 0 0 1-.399 2.036c-.072.2.245.334.317.14" fill="#030047"/><path d="m145.976 145.329-3.749-1.202.595-1.949 3.749 1.202-.595 1.949Z" fill="#0CC3CD"/><path d="m95.77 126.379-5.292 3.437s8.219 33.774 33.331 28.581l2.066 16.764 29.14-.831 2.356-12.152s18.043 7.926 24.111 13.989l5.371-4.789s-10.578-15.709-28.207-24.037c0 0-19.414-7.525-34.15-3.588 0 0-15.653 3.638-28.727-17.374Z" fill="#12C1CB"/><path d="m123.103 153.231 2.772 21.93M158.556 155.987l-3.541 18.343" stroke="#000" stroke-width=".589" stroke-miterlimit="10"/><path d="M104.801 149.195s2.583 4.094 8.466 3.434M150.435 147.341s6.926 1.586 9.054 4.324" stroke="#fff" stroke-width=".589" stroke-miterlimit="10"/><path d="m184.004 215.635 10.118 9.597 2.624-2.348-7.235-13.301" fill="#F4CFD7"/><path d="m192.232 224.544 2.826 3.776 11.895-8.563s-3.743-1.938-8.98 2l-1.185-.898-4.556 3.685Z" fill="#000"/><path d="m102.953 209.161-13.066 4.864.95 3.392 15.119-1.458" fill="#F4CFD7"/><path d="m91.328 212.633-4.632.876 2.442 14.461s3.384-2.51 2.154-8.955l1.326-.668-1.29-5.714Z" fill="#000"/><path d="M103.716 158.037s5.549 4.687 10.634 3.721" stroke="#000" stroke-width=".589" stroke-miterlimit="10"/><path d="M155.015 174.329c7.657 12.184 25.828 21.461 40.886 42.86l-6.548 5.095c-7.033-7.799-7.125-7.799-15.645-12.299-.999-.528-2.01-1.044-3.025-1.556-13.47-6.775-34.528-17.983-42.498-33.282l26.83-.818Z" fill="#2E55E4"/><path d="m93.392 210.311.7 4.174.083.506.811 4.834s32.797-8.386 43.681-20.049c8.792-9.415 8.899-25.134 8.899-25.134l-21.691.52c-2.588 8.253-1.962 9.039-2.771 16.798-.58 5.56-5.685 8.42-8.065 10.2-5.485 4.122-21.647 8.135-21.647 8.135" fill="#003FC6"/><path d="M138.667 199.776s-7.555-1.306-9.859 7.199M171.851 191.574s-1.181 7.828 8.908 8.13" stroke="#fff" stroke-width=".589" stroke-miterlimit="10"/><path d="M147.566 174.642s.947 10.025-6.406 21.98M95.764 209.685l1.672 9.474M187.7 220.457l6.906-5.068M131.044 98.468c2.959 3.316 6.394 6.4 10.352 8.476 3.631 1.896 7.845 2.874 11.873 2.13 1.755-.324 3.759-1.376 3.783-3.162.022-1.708-1.785-2.812-3.397-3.344a20.397 20.397 0 0 0-9.191-.8c-3.068.436-6.422 2-7.164 5.016-.573 2.336.656 4.76 2.27 6.539a15.538 15.538 0 0 0 9.773 4.968c8.446.89 6.734-8.313-1.82-7.189-1.587.2-3.213.48-4.582 1.307-1.369.828-2.436 2.346-2.282 3.94.086.89.532 1.702 1.039 2.436a14.058 14.058 0 0 0 6.908 5.256c1.52.528 3.714.462 4.16-1.088.255-.898-.298-1.864-1.059-2.4-1.998-1.4-5.253.054-5.545 2.472-.4 3.312 3.503 4.184 5.982 4.188" stroke="#000" stroke-width=".589" stroke-miterlimit="10"/><path d="M355.602 172.488h-54.237a48.196 48.196 0 0 0 4.644-1.6c2.43-.962 4.496-3.538 9.665-1.664 2.771.486 3.055-1.944 4.569-3.122 1.873-1.458 3.521-.556 5.02.694 1.498 1.25 3.295 2.704 4.869 2.288 1.575-.416 3.197-5.262 5.469-6.6 2.022-1.178 4.42-.762 7.115 1.942 2.696 2.704 4.72 6.462 12.886 8.062Z" fill="#2E55E4"/><defs><clipPath id="a"><path fill="#fff" transform="translate(316 188.388)" d="M0 0h44v40H0z"/></clipPath><clipPath id="c"><path fill="#fff" transform="translate(27 179.388)" d="M0 0h47v49H0z"/></clipPath></defs></svg>