<svg viewBox="0 0 400 300" fill="none" xmlns="http://www.w3.org/2000/svg"><path d="m236.705 170.033 3.958 5.251 4.048-2.352-4.004-7.424-4.002 4.525Z" fill="#EFD1D8"/><path d="M240.145 175.598c.693 3.006-2.759 4.049-1.156 6.842l6.58-3.942 3.163-1.899-3.649-4.813-4.938 3.812Z" fill="#000"/><path d="M241.338 179.335c-.7-.227-1.419-.39-2.148-.488-.162-.023-.148.217.014.231.706.097 1.402.256 2.081.476.159.053.21-.178.053-.231M241.466 178.569l-1.85-.34c-.16-.027-.155.213 0 .243l1.85.338c.159.03.155-.213 0-.232" fill="#fff"/><path d="m194.292 233.33-31.444-119.337c-.266-1.075.266-2.136 1.332-2.406.534-.255 1.332 0 1.597.27l143.316 118.005c.797.537.797 1.868.266 2.673a1.474 1.474 0 0 1-1.332.795H194.292ZM319.757 107.864c.266-1.063-.268-2.139-1.334-2.393-.531-.27-1.063 0-1.595.254l-77.253 53.289 55.409 45.547 24.773-96.697ZM137.284 229.862c-.798.537-1.064 1.868-.532 2.673.266.525 1.066.795 1.6.795h45.284l-7.727-30.1-38.625 26.632Z" fill="#ECF4FD"/><g clip-path="url(#a)"><path fill-rule="evenodd" clip-rule="evenodd" d="M74.66 218.353c-6.57 3.979 5.232 15.058 5.232 15.058l-10.466 7.131c-2.127-1.005-3.584-2.157-4.572-3.32l-4.261 4.797c-3.706-.164-7.611-1.392-9.406-4.901-.562-1.108-.61-2.552-.656-3.974-.061-1.864-.121-3.69-1.337-4.676-.984-.8-2.416-1.137-3.634-1.35-.634-.113-4.282-.745-4.765-.113 2.46-3.212-1.894-1.175-1.894-1.175-1.452-.49-2.072-3.313-2.545-5.472-.188-.858-.354-1.612-.54-2.072-.41-1.015-4.177-7.924-5.375-7.489 5.18-1.887 10.752-.585 15.165 2.527 1.892 1.325 3.112 3.147 4.162 5.165.108.209.306.702.552 1.314.667 1.661 1.685 4.192 2.202 4.258.654.083 6.283 3.233 10.711 5.757.304-1.57-1.453-3.863-1.453-3.863-5.593-5.063-.877-9.891-.877-9.891 2.03-2.076.842-5.759-.665-7.702-.568-.731-1.482-1.281-2.405-1.838-1.528-.921-3.084-1.858-3.144-3.66-.033-.997.503-1.857 1.044-2.725.289-.462.578-.927.785-1.416.959-2.277-.148-4.744-1.85-6.328a21.325 21.325 0 0 0-1.118-.945c-1.09-.879-2.181-1.761-2.581-3.066-.541-1.764.504-3.729 2.046-4.731 1.542-1.001 3.468-1.209 5.318-1.132 3.294.134 6.64 1.146 9.1 3.341 3.521 3.137 4.726 8.205 4.517 12.917v.008c-.152 3.519-.261 6.035 2.336 8.623.3.299.617.593.935.887 1.617 1.499 3.258 3.02 2.94 5.48-.25 1.929-1.896 3.605-3.5 4.576Z" fill="#CDE5F9"/><mask id="b" style="mask-type:alpha" maskUnits="userSpaceOnUse" x="30" y="182" width="50" height="61"><path fill-rule="evenodd" clip-rule="evenodd" d="M74.66 218.353c-6.57 3.979 5.232 15.058 5.232 15.058l-10.466 7.131c-2.127-1.005-3.584-2.157-4.572-3.32l-4.261 4.797c-3.706-.164-7.611-1.392-9.406-4.901-.562-1.108-.61-2.552-.656-3.974-.061-1.864-.121-3.69-1.337-4.676-.984-.8-2.416-1.137-3.634-1.35-.634-.113-4.282-.745-4.765-.113 2.46-3.212-1.894-1.175-1.894-1.175-1.452-.49-2.072-3.313-2.545-5.472-.188-.858-.354-1.612-.54-2.072-.41-1.015-4.177-7.924-5.375-7.489 5.18-1.887 10.752-.585 15.165 2.527 1.892 1.325 3.112 3.147 4.162 5.165.108.209.306.702.552 1.314.667 1.661 1.685 4.192 2.202 4.258.654.083 6.283 3.233 10.711 5.757.304-1.57-1.453-3.863-1.453-3.863-5.593-5.063-.877-9.891-.877-9.891 2.03-2.076.842-5.759-.665-7.702-.568-.731-1.482-1.281-2.405-1.838-1.528-.921-3.084-1.858-3.144-3.66-.033-.997.503-1.857 1.044-2.725.289-.462.578-.927.785-1.416.959-2.277-.148-4.744-1.85-6.328a21.325 21.325 0 0 0-1.118-.945c-1.09-.879-2.181-1.761-2.581-3.066-.541-1.764.504-3.729 2.046-4.731 1.542-1.001 3.468-1.209 5.318-1.132 3.294.134 6.64 1.146 9.1 3.341 3.521 3.137 4.726 8.205 4.517 12.917v.008c-.152 3.519-.261 6.035 2.336 8.623.3.299.617.593.935.887 1.617 1.499 3.258 3.02 2.94 5.48-.25 1.929-1.896 3.605-3.5 4.576Z" fill="#CDE5F9"/></mask><g mask="url(#b)" stroke="#fff" stroke-width=".173" stroke-miterlimit="10"><path d="M52.212 180.488c.721 2.796 2.594 4.571 4.855 6.199 1.43 1.024 3.193 1.926 4.245 3.38 1.515 2.102.486 4.042.708 6.435.124 1.334.603 2.682 1.576 3.602 3.931 3.718 6.137 6.705 5.55 12.413-.835 8.051-1.323 17.262 6.309 22.527M30.45 210.793a19.509 19.509 0 0 1 12.511 8.573c1.263 1.997 1.658 4.476 3.633 5.923 2.013 1.478 4.675 1.757 6.95 2.654 4.182 1.649 7.028 5.852 8.466 9.979"/></g></g><g clip-path="url(#c)"><path fill-rule="evenodd" clip-rule="evenodd" d="M327.378 222.142c5.461 3.292-4.339 12.485-4.339 12.485l8.684 5.919c7.102-3.359 5.19-8.693 5.19-8.693-.462-1.293 1.156-3.408 1.156-3.408 4.641-4.199.726-8.206.726-8.206-1.683-1.722-.705-4.774.553-6.388.473-.608 1.232-1.064 1.999-1.526 1.269-.764 2.56-1.541 2.609-3.036.029-.834-.422-1.557-.875-2.283-.236-.378-.473-.757-.642-1.152-.798-1.889.123-3.936 1.535-5.251.293-.272.611-.529.93-.786.901-.727 1.805-1.456 2.136-2.541.449-1.468-.411-3.101-1.697-3.931-1.285-.83-2.89-1.001-4.418-.938-2.733.113-5.508.954-7.549 2.774-2.923 2.603-3.919 6.807-3.75 10.716v.001c.129 2.929.221 5.017-1.936 7.167-.25.249-.514.494-.778.739-1.34 1.242-2.7 2.503-2.438 4.544.208 1.6 1.575 2.989 2.904 3.794Zm23.493 1.041c-1.1.467-14.233 13.911-14.233 13.911l11.024 7.119c3.81-1.244 7.521-3.662 8.372-7.824.27-1.319-.1-2.839-.463-4.336-.475-1.953-.94-3.867.038-5.243.795-1.117 2.185-1.882 3.391-2.458l.006-.002c.645-.306 4.232-2.007 4.924-1.491-3.501-2.634 1.618-1.769 1.618-1.769 1.37-.931 1.2-4.047 1.069-6.432-.052-.948-.097-1.78-.038-2.314.132-1.182 2.058-9.457 3.429-9.35-5.935-.467-11.354 2.499-15.054 7.014-1.574 1.924-2.321 4.174-2.83 6.578-.053.251-.117.829-.197 1.544-.214 1.922-.539 4.835-1.056 5.053Z" fill="#CDE5F9"/><mask id="d" style="mask-type:alpha" maskUnits="userSpaceOnUse" x="323" y="192" width="48" height="53"><path fill-rule="evenodd" clip-rule="evenodd" d="M327.378 222.142c5.461 3.292-4.339 12.485-4.339 12.485l8.684 5.919c7.102-3.359 5.19-8.693 5.19-8.693-.462-1.293 1.156-3.408 1.156-3.408 4.641-4.199.726-8.206.726-8.206-1.683-1.722-.705-4.774.553-6.388.473-.608 1.232-1.064 1.999-1.526 1.269-.764 2.56-1.541 2.609-3.036.029-.834-.422-1.557-.875-2.283-.236-.378-.473-.757-.642-1.152-.798-1.889.123-3.936 1.535-5.251.293-.272.611-.529.93-.786.901-.727 1.805-1.456 2.136-2.541.449-1.468-.411-3.101-1.697-3.931-1.285-.83-2.89-1.001-4.418-.938-2.733.113-5.508.954-7.549 2.774-2.923 2.603-3.919 6.807-3.75 10.716v.001c.129 2.929.221 5.017-1.936 7.167-.25.249-.514.494-.778.739-1.34 1.242-2.7 2.503-2.438 4.544.208 1.6 1.575 2.989 2.904 3.794Zm23.493 1.041c-1.1.467-14.233 13.911-14.233 13.911l11.024 7.119c3.81-1.244 7.521-3.662 8.372-7.824.27-1.319-.1-2.839-.463-4.336-.475-1.953-.94-3.867.038-5.243.795-1.117 2.185-1.882 3.391-2.458l.006-.002c.645-.306 4.232-2.007 4.924-1.491-3.501-2.634 1.618-1.769 1.618-1.769 1.37-.931 1.2-4.047 1.069-6.432-.052-.948-.097-1.78-.038-2.314.132-1.182 2.058-9.457 3.429-9.35-5.935-.467-11.354 2.499-15.054 7.014-1.574 1.924-2.321 4.174-2.83 6.578-.053.251-.117.829-.197 1.544-.214 1.922-.539 4.835-1.056 5.053Z" fill="#CDE5F9"/></mask><g mask="url(#d)" stroke="#fff" stroke-width=".173" stroke-miterlimit="10"><path d="M350.719 180.488c-.722 2.795-2.594 4.571-4.856 6.199-1.426 1.024-3.193 1.926-4.242 3.38-1.517 2.101-.488 4.041-.71 6.434-.125 1.334-.603 2.682-1.577 3.602-3.93 3.718-6.136 6.705-5.549 12.414.835 8.051 1.325 17.262-6.309 22.526M370.008 202.994a21.075 21.075 0 0 0-10.543 12.543c-.737 2.443-.432 5.137-2.067 7.213-1.672 2.12-4.358 3.182-6.474 4.775-3.875 2.924-5.625 8.122-5.925 12.836"/></g></g><path d="m258.759 105.492-6.185-1.722a514.035 514.035 0 0 1-2.984-7.533c-.814-2.097-1.644-4.187-2.421-6.298-.925-2.506-1.69-5.006-2.946-7.378-.441-.835-1.045-1.607-2.009-1.834-1.211-.284-2.543-.416-3.773-.578-.659-.085-1.526-.314-2.146-.016-.49.232-1.091.756-.992 1.364.162 1.008 1.709 1.605 2.493 1.943.462.196.925.37 1.387.534.183.062 1.69.439 1.702.538l1.304 10.217c.779 6.102.296 12.196 3.93 17.498 3.552 5.184 9.1 8.273 15.408 6.219 12.201-3.974-2.775-12.947-2.775-12.947" fill="#EFD1D8"/><path d="M271.133 125.84c-3.128-.192-8.675.181-11.722-.057-14.836-1.388-28.385-1.092-29.594 12.242-1.427 15.798 5.845 33.603 5.845 33.603l10.635-2.041s-1.248-24.046-1.674-29.056l16.152 5.614c5.612 1.949 10.932.312 16.908-.925 1.945-.393 3.237-2.807 5.122-3.403-2.01-3.112-11.672-15.981-11.672-15.981" fill="#1AB7B7"/><mask id="e" style="mask-type:alpha" maskUnits="userSpaceOnUse" x="229" y="125" width="54" height="47"><path d="M271.133 125.84c-3.128-.192-8.675.181-11.722-.057-14.836-1.388-28.385-1.092-29.594 12.242-1.427 15.798 5.845 33.603 5.845 33.603l10.635-2.041s-1.248-24.046-1.674-29.056l16.152 5.614c5.612 1.949 10.932.312 16.908-.925 1.945-.393 3.237-2.807 5.122-3.403-2.01-3.112-11.672-15.981-11.672-15.981" fill="#1AB7B7"/></mask><g mask="url(#e)" stroke="#fff" stroke-width=".116" stroke-miterlimit="10"><path d="m229.109 77.962 75.015 50.473M226.72 81.514l75.013 50.472M224.33 85.063l75.014 50.474M221.941 88.614l75.015 50.475M219.55 92.165l75.015 50.475M217.162 95.717l75.015 50.472M214.774 99.268l75.013 50.472M212.383 102.819l75.015 50.472M209.994 106.368l75.013 50.475M207.604 109.92l75.015 50.474M205.215 113.471l75.015 50.475M202.828 117.022l75.012 50.475M200.437 120.574l75.015 50.472M198.048 124.125l75.015 50.472M195.658 127.674l75.014 50.474M193.27 131.225l75.014 50.475M190.88 134.777l75.013 50.474M188.49 138.328l75.015 50.474M186.102 141.879l75.015 50.472M183.711 145.43l75.015 50.473"/></g><path d="m224.74 199.378 7.042-9.586s3.7 3.75 2.067 7.757c-2.067 5.07-9.105 1.829-9.105 1.829M215.348 192.962a1.489 1.489 0 0 1-.921 1.377 1.484 1.484 0 0 1-1.625-.323 1.487 1.487 0 0 1 .226-2.294 1.492 1.492 0 0 1 2.32 1.24Z" fill="#CBE1F8"/><path d="M286.668 213.696c.155-.39.144-.811.232-1.218.425-2.229 1.45-4.3 2.966-5.988a12.577 12.577 0 0 1 10.83-4.14 12.585 12.585 0 0 1 9.618 6.475c1.967 3.699 2.097 7.502.361 11.329a12.21 12.21 0 0 1-5.388 5.757 12.349 12.349 0 0 1-7.724 1.417 12.212 12.212 0 0 1-6.294-2.756 12.423 12.423 0 0 1-4.298-6.984 14.777 14.777 0 0 1-.231-1.45c0-.056.019-.125-.065-.148l-.007-2.294Zm9.979-6.339a2.627 2.627 0 0 0 3.108 2.614 2.63 2.63 0 0 0 2.085-2.044 2.623 2.623 0 0 0-2.55-3.16 2.643 2.643 0 0 0-2.643 2.59Zm2.624 17.555a2.623 2.623 0 0 0 2.578-3.143 2.626 2.626 0 0 0-5.202.533 2.643 2.643 0 0 0 2.624 2.61Zm-6.409-16.415a2.613 2.613 0 1 0-.055 5.222 2.613 2.613 0 0 0 .055-5.222Zm10.241 2.638c.018 1.417 1.206 2.615 2.578 2.594a2.62 2.62 0 0 0 .094-5.237c-1.535.016-2.691 1.156-2.672 2.643Zm-10.245 10.034a2.616 2.616 0 1 0-1.07-5.041 2.608 2.608 0 0 0-1.446 1.433 2.62 2.62 0 0 0 .612 2.887 2.623 2.623 0 0 0 1.904.721Zm12.827 0a2.63 2.63 0 0 0 1.904-.729 2.626 2.626 0 0 0 .803-1.874 2.607 2.607 0 0 0-.785-1.881 2.621 2.621 0 0 0-1.896-.748 2.648 2.648 0 0 0-2.606 2.441c-.051 1.566 1.038 2.745 2.58 2.791Zm-8.439-6.326a2.021 2.021 0 0 0 2.433 1.965 2.02 2.02 0 0 0 1.454-2.769 2.03 2.03 0 0 0-1.878-1.235 2.033 2.033 0 0 0-2.009 2.039Z" fill="#EA706A"/><path d="M314.805 218.561s-1.463 9.14-10.02 10.844" stroke="#221715" stroke-width=".231" stroke-miterlimit="10"/><path d="m256.648 178.22 3.959 5.251 4.048-2.352-4.004-7.424-4.003 4.525Z" fill="#EFD1D8"/><path d="M257.645 135.047c-3.769 1.457-7.63 2.865-11.253 4.659-7.168 3.542-11.588 8.152-8.89 16.129 4.855 14.376 18.496 27.051 18.496 27.051l8.955-6.012s-10.538-20.512-12.89-24.739l17.005-1.496c5.908-.524 20.007-2.423 25.001-5.879.809-.553 4.353-4.069 4.353-8.416 0-10.252-1.01-10.152-1.69-10.913-.374-1.311-23.814 3.214-23.814 3.214" fill="#58C1CC"/><mask id="f" style="mask-type:alpha" maskUnits="userSpaceOnUse" x="236" y="125" width="63" height="58"><path d="M257.645 135.047c-3.769 1.457-7.63 2.865-11.253 4.659-7.168 3.542-11.588 8.152-8.89 16.129 4.855 14.376 18.496 27.051 18.496 27.051l8.955-6.012s-10.538-20.512-12.89-24.739l17.005-1.496c5.908-.524 20.007-2.423 25.001-5.879.809-.553 4.353-4.069 4.353-8.416 0-10.252-1.01-10.152-1.69-10.913-.374-1.311-23.814 3.214-23.814 3.214" fill="#58C1CC"/></mask><g mask="url(#f)" stroke="#fff" stroke-width=".116" stroke-miterlimit="10"><path d="m244.03 75.548 75.012 50.475M241.64 79.1l75.014 50.474M239.25 82.65l75.015 50.475M236.862 86.202l75.013 50.475M234.472 89.754l75.014 50.472M232.083 93.305l75.013 50.472M229.693 96.854l75.015 50.475M227.304 100.405l75.015 50.475M224.914 103.957l75.015 50.474M222.525 107.508l75.015 50.475M220.137 111.059l75.012 50.473M217.747 114.61l75.014 50.473M215.358 118.162l75.015 50.472M212.967 121.711l75.015 50.475M210.579 125.262l75.014 50.475M208.191 128.814l75.012 50.474M205.8 132.365l75.015 50.475M203.412 135.916l75.014 50.472M201.021 139.467l75.015 50.473M198.633 143.019l75.015 50.472"/></g><path d="M260.089 183.785c.693 3.006-2.759 4.049-1.157 6.844l6.581-3.945 3.162-1.895-3.648-4.816-4.938 3.812Z" fill="#000"/><path d="M261.283 187.531a12.44 12.44 0 0 0-2.148-.488c-.162-.021-.148.22.014.231.706.098 1.402.258 2.08.479.158.051.208-.181.051-.231M261.409 186.756l-1.849-.337c-.162-.031-.158.212 0 .231l1.849.337c.162.03.155-.21 0-.231Z" fill="#fff"/><path d="m265.096 187.871.419-1.186-6.58 3.944.443.687 5.718-3.445Z" fill="#000"/><path d="M250.804 137.727s-20.245 5.333-12.254 20.894" stroke="#000" stroke-width=".231" stroke-miterlimit="10"/><path opacity=".48" d="M230.735 61.59h-29.951a2.59 2.59 0 0 0-2.582 2.58v38.46a2.588 2.588 0 0 0 2.582 2.591h22.247l10.286-10.284v-30.75a2.587 2.587 0 0 0-2.582-2.58" fill="#A5C3EF"/><path d="M238.385 91.656h-9.509c-.358 0-.463.088-.463.449.014 3.17 0 6.34 0 9.51 0 .131-.043.275.056.393l10.286-10.287c-.12-.097-.261-.055-.393-.055" fill="#58C1CC"/><path d="M238.385 91.657h-9.509c-.358 0-.463.087-.463.448.014 3.17 0 6.34 0 9.51 0 .131-.043.275.056.393l10.286-10.287c-.097-.106-.238-.064-.37-.064Z" stroke="#221715" stroke-width=".231" stroke-miterlimit="10"/><path d="M236.196 58.377h-29.95a2.592 2.592 0 0 0-2.583 2.582v38.457a2.591 2.591 0 0 0 2.583 2.583h22.246c-.099-.118-.055-.262-.055-.394v-9.509c0-.36.092-.462.462-.449 3.17.014 6.34 0 9.51 0 .132 0 .273-.044.393.054V60.95a2.594 2.594 0 0 0-2.583-2.583" fill="#3458DF"/><path d="M236.196 58.377h-29.95a2.592 2.592 0 0 0-2.583 2.582v38.457a2.593 2.593 0 0 0 2.583 2.582h22.246c-.099-.118-.055-.261-.055-.393v-9.51c0-.36.092-.462.462-.448 3.17.014 6.34 0 9.51 0 .132 0 .273-.044.393.053V60.95a2.59 2.59 0 0 0-2.606-2.573Z" stroke="#221715" stroke-width=".231" stroke-miterlimit="10"/><path d="m206.257 74.809-.728 3.255c-.164.728-.34 1.457-.484 2.19-.05.26-.168.319-.411.319-.823 0-.826.011-1.006-.793-.322-1.43-.643-2.863-.962-4.296-.032-.141-.076-.28-.122-.449-.141.164-.088.317-.088.463v4.695c0 .31-.088.391-.391.389-1.008 0-1.008 0-1.008-.999v-6.085c0-.317.076-.43.407-.412.503.032 1.007.032 1.51 0 .335-.028.377.157.425.395.298 1.494.598 2.987.902 4.479.014.062.035.122.072.261.132-.311.218-.64.256-.975.266-1.265.53-2.53.772-3.797.056-.287.169-.374.463-.36.515.025 1.033.016 1.551 0 .231 0 .31.062.31.298v6.862c0 .247-.081.324-.328.33-1.054.03-1.055.04-1.055-1.021v-4.745h-.073M209.836 76.797v-3.348c0-.28.074-.379.365-.372.694.02 1.415 0 2.123 0 1.387.011 2.155.76 2.194 2.13.039 1.403-.722 2.258-2.081 2.346a5.793 5.793 0 0 1-.775 0c-.254-.018-.323.074-.319.322.017.776 0 1.55.012 2.328 0 .259-.062.349-.338.353-1.156.014-1.156.024-1.156-1.123v-2.636h-.025Zm1.521-1.468v.897c0 .09-.023.187.095.231.407.201 1.357-.13 1.471-.566.231-.9.097-1.774-1.117-1.704-.333.018-.511.055-.463.439.016.231.016.463 0 .694M219.355 76.711c.925.308 1.221.77 1.219 1.804 0 .999-.463 1.725-1.267 1.984a3.452 3.452 0 0 1-1.894.092 1.936 1.936 0 0 1-1.427-1.993c.014-.162.074-.213.232-.203h.286a2.48 2.48 0 0 1 .81.023c.307.11.131.476.212.721a.718.718 0 0 0 .775.574.696.696 0 0 0 .733-.62 2.48 2.48 0 0 0 .034-.893c-.101-.693-.353-.952-1.049-.925-.532.019-.366-.316-.393-.582-.028-.266.03-.442.384-.425.534.023.799-.216.91-.738a2.064 2.064 0 0 0 0-.814.694.694 0 0 0-1.366-.046c-.065.217.03.54-.162.636-.192.094-.504.044-.763.046-.573 0-.573 0-.478-.59.141-.86.61-1.345 1.468-1.533a3.22 3.22 0 0 1 1.535.042 1.604 1.604 0 0 1 1.237 1.5c.097.925-.187 1.478-1.031 1.943" fill="#FEFEFE"/><path d="M211.332 75.329a5.019 5.019 0 0 0 0-.694c-.056-.384.122-.42.462-.44 1.214-.068 1.353.806 1.117 1.705-.113.437-1.064.767-1.471.566-.117-.055-.094-.152-.094-.23v-.898" fill="#EA706A"/><path d="m203.973 82.926-6.409-.02c-.622 0-.534.069-.534-.549V71.13c0-.335.074-.432.42-.43 2.176.014 4.354 0 6.532 0h20.471c.361 0 .481.076.479.462-.014 3.76-.014 7.52 0 11.279 0 .388-.121.462-.484.462-6.646-.01-13.292-.01-19.939 0-.178 0-.354.014-.529.023h-.007Zm2.291-8.117h.074v4.749c0 1.06 0 1.052 1.054 1.021.248 0 .331-.083.329-.33v-6.862c0-.231-.084-.303-.31-.299-.518.014-1.036.024-1.552 0-.286-.013-.4.074-.462.361-.231 1.267-.506 2.543-.772 3.797a3.51 3.51 0 0 1-.257.975c-.037-.139-.058-.199-.072-.261l-.901-4.478c-.049-.232-.09-.424-.426-.396-.502.032-1.007.032-1.509 0-.331-.018-.41.095-.407.412.014 2.027 0 4.057 0 6.085 0 1.003 0 .992 1.008.999.303 0 .395-.079.39-.389-.013-1.565 0-3.13 0-4.695 0-.14-.053-.292.088-.463.047.169.09.308.123.449l.962 4.296c.18.804.182.795 1.005.793.232 0 .361-.058.412-.32.143-.732.319-1.46.483-2.189l.728-3.255h.012Zm3.568 1.988v2.652c0 1.156 0 1.137 1.156 1.121.275 0 .342-.092.337-.351-.016-.777 0-1.552-.011-2.328 0-.25.064-.34.319-.322.258.017.516.017.774 0 1.371-.088 2.132-.943 2.081-2.347-.039-1.368-.809-2.12-2.194-2.129-.708 0-1.417.012-2.123 0-.291 0-.367.09-.365.372.014 1.115 0 2.231 0 3.348l.026-.016Zm9.493-.07c.844-.462 1.128-1.017 1.031-1.942a1.604 1.604 0 0 0-1.237-1.5 3.22 3.22 0 0 0-1.535-.042c-.858.188-1.327.673-1.468 1.533-.095.59-.095.592.478.59.259 0 .553.06.763-.046.211-.107.097-.419.162-.636a.692.692 0 0 1 .703-.553.693.693 0 0 1 .664.599c.053.269.053.545 0 .814-.111.522-.377.76-.911.737-.354-.016-.417.134-.384.426.032.291-.139.6.393.583.693-.026.948.23 1.05.924.042.297.031.6-.035.893a.697.697 0 0 1-.733.62.72.72 0 0 1-.775-.574c-.081-.245.095-.61-.212-.721a2.483 2.483 0 0 0-.81-.023h-.286c-.148 0-.208.041-.231.203a1.934 1.934 0 0 0 1.426 1.993 3.45 3.45 0 0 0 1.894-.093c.811-.258 1.267-.984 1.267-1.983 0-1.034-.303-1.496-1.219-1.804" fill="#EA706A"/><path d="M218.278 60.51h11.44M231.756 60.51h2.458M235.292 92.61l-5.043 5.141" stroke="#fff" stroke-width=".231" stroke-miterlimit="10"/><path d="m211.205 56-8.324.035s-1.456-.053-1.387 1.868l.03 7.276" stroke="#221715" stroke-width=".231" stroke-miterlimit="10"/><path d="M246.075 66.42a1.878 1.878 0 0 1-1.461 1.478 1.87 1.87 0 1 1 1.461-1.478ZM193.08 73.777a.929.929 0 0 1-.726.722.923.923 0 0 1-1.105-.899.923.923 0 0 1 1.089-.919.936.936 0 0 1 .742 1.096ZM194.773 85.315a1.703 1.703 0 0 1-1.33 1.351 1.707 1.707 0 1 1 1.33-1.351ZM182.457 90.977l-3.614.263 2.035 3 1.579-3.263ZM253.322 76.81l.261 3.617 2.999-2.035-3.26-1.581Z" fill="#3458DD"/><path d="M284.606 84.912c1.436 1.288 2.869 1.031 3.699 0 .773-.96.65-2.707-.832-3.066a3.89 3.89 0 0 0-1.831.056 5.412 5.412 0 0 0-.879.802c-.531.615-.968 1.482-.161 2.208" fill="#EFD1D8"/><path d="M283.554 86.475c-3.584.477-5.256-2.002-4.856-4.924.174-1.295.479-2.682 1.323-3.711.77-.946 1.829-1.6 3.045-1.658 2.543-.125 4.728 2.08 4.855 4.922a5.12 5.12 0 0 1-4.367 5.37Z" fill="#EFD1D8"/><path d="M285.62 83.62a1.817 1.817 0 0 1 2.183-.546c.208.095.09.43-.118.336a1.46 1.46 0 0 0-1.771.409c-.141.18-.435-.019-.294-.199Z" fill="#000"/><path d="m281.193 84.571-.079 4.18 3.056.057.079-4.179-3.056-.058Z" fill="#EFD1D8"/><path d="M281.193 81.232a.335.335 0 0 0 .338.167.329.329 0 0 0 .277-.255.331.331 0 0 0-.328-.407.331.331 0 0 0-.187.06.305.305 0 0 0-.09.084.319.319 0 0 0-.01.35ZM279.411 82.903a7.191 7.191 0 0 1 .231-2.08c.051-.197.366-.158.315.039a6.787 6.787 0 0 0-.231 1.99c0 .2-.315.231-.322.042" fill="#010344"/><path d="M279.614 79.326c1.156.125 5.406-.936 5.549 1.496.037.62-.16 1.358.462 1.487a.726.726 0 0 0 .78-.525 4.09 4.09 0 0 1 1.532.231c.978-3.93-.712-5.424-1.803-5.37 0 0-2.402-4.59-4.349-2.313 0 0-3.699-2.883-5.304.925-1.604 3.808 3.133 4.07 3.133 4.07Z" fill="#000"/><path d="M280.334 86.031a5.207 5.207 0 0 0 4.188.37" stroke="#000" stroke-width=".231" stroke-miterlimit="10"/><path d="M272.641 92.08c-.047 2.26 4.115 4.18 9.294 4.286 5.179.107 9.417-1.639 9.463-3.9.046-2.261-4.115-4.18-9.294-4.287-5.179-.106-9.417 1.64-9.463 3.9Z" fill="#EFD1D8"/><path d="M281.681 94.19a4.144 4.144 0 0 1-2.004-.802c-1.482-1.22-1.286-3.6-.904-5.17 0 0-11.154 1.304-19.48 12.58-1.299 1.762-2.578 1.771-6.164 1.674-.497-.014-.693 2.46-.86 4.127-.279 2.664.352 11.591.502 12.996 0 0 8.381 2.178 13.036-2.753l1.509 9.292a21.958 21.958 0 0 0 8.324 3.822c1.332.303 2.69.487 4.055.55 3.387.16 6.936-.083 10.268-1.112 2.643-.814 6.152-1.494 8.402-3.161l.155-8.813c7.033.051 12.871-5.286 12.871-5.286-2.749-22.54-24.739-23.41-24.739-23.41 0 .047 0 .091.019.135.231 1.665.256 3.468-1.429 4.777-.976.756-2.398.737-3.561.555Z" fill="#3458DF"/><path d="m264.285 108.928 3.061 17.433" stroke="#000" stroke-width=".231" stroke-miterlimit="10"/><path d="M297.035 140.894c16.543-13.347 13.614-28.743 13.614-28.743l-14.277-.669 2.564 9.179-4.578 19.768-1.168 3.006-2.395 1.762c-.245.18-.185.867-.074 1.087.541 1.07 1.746.91 2.691.536.504-.209.989-.46 1.45-.751.361-.22 1.172-.541 1.267-.976l.906-4.197" fill="#EFD1D8"/><path d="M311.398 112.134s-7.736 7.831-14.522 6.243l-7.475-10.511 13.641-5.704 6.876 3.482 1.48 6.49Z" fill="#3458DF"/><path d="M290.825 104.787s6.012 8.871 6.051 13.599c0 0 5.616 1.781 14.522-6.242" stroke="#000" stroke-width=".231" stroke-miterlimit="10"/><path d="M298.212 93.74s6.271 4.083 7.325 7.153M256.221 118.555s4.571.123 7.033-2.007" stroke="#fff" stroke-width=".231" stroke-miterlimit="10"/><path d="M252.154 108.838s5.602 1.699 8.27-.185M252.212 112.976s5.602 1.699 8.27-.185M263.254 173.695l-9.951 6.43" stroke="#000" stroke-width=".231" stroke-miterlimit="10"/><path d="M293.33 143.266s-2.89 1.089-2.775-.423c0 0-.037-1.241 3.699-1.156" fill="#EFD1D8"/><path d="M293.33 143.266s-2.89 1.089-2.775-.423c0 0-.037-1.241 3.699-1.156" stroke="#000" stroke-width=".231" stroke-miterlimit="10"/><path d="M239.269 83.285s-3.082.18-2.359 1.514c0 0 .463 1.156 3.845-.444" fill="#EFD1D8"/><path d="M239.269 83.285s-3.082.18-2.359 1.514c0 0 .463 1.156 3.845-.444M304.665 116.994s-.744-5.805-3.553-7.47M308.216 114.803s-.742-5.806-3.551-7.471M239.382 123.154s-8.323.296-9.745 7.398M309.872 128.25s-.974 5.271-5.207 8.732M14 234h371" stroke="#000" stroke-width=".231" stroke-miterlimit="10"/><path d="M145.887 231.416a1.48 1.48 0 1 1-2.96.003 1.48 1.48 0 0 1 2.96-.003Z" fill="#fff"/><path d="m91.792 224.524-.774 1.479 12.677 5.688s1.107-1.214-.384-2.113l-11.519-5.054Z" fill="#060000"/><path d="m91.31 225.408-.6 1.289 4.072 1.89.598-1.29-4.07-1.889ZM137.85 229.518l-.423 1.618 13.641 2.701s.809-1.429-.846-1.973l-12.372-2.346Z" fill="#060000"/><path d="M144.104 226.096s.463 2.774 2.245 4.236" stroke="#060000" stroke-width=".231" stroke-miterlimit="10"/><path d="m137.563 230.452-.295 1.391 4.39.931.295-1.391-4.39-.931Z" fill="#060000"/><path d="M145.887 222.336a1.477 1.477 0 0 1-.913 1.369 1.472 1.472 0 0 1-1.613-.32 1.48 1.48 0 1 1 2.526-1.049ZM99.089 220.452a4.418 4.418 0 0 0-.201.599c-.356 1.32-.789 4.624 2.427 8.002l-9.523-4.529 3.348-7.45 4.374 1.718-.525 1.875" fill="#fff"/><path d="M98.652 222.591s-.178 2.8 1.242 4.624" stroke="#060000" stroke-width=".231" stroke-miterlimit="10"/><path d="M144.051 223.913a4.281 4.281 0 0 0-.062.629c-.051 1.364.268 4.694 4.161 7.255l-10.293-2.279 1.598-8.014 4.647.694-.09 1.946" fill="#fff"/><path d="m116.279 158.514-26.58 60.144 14.777 5.2 23.955-52.102-12.152-13.242Z" fill="#1AB7B7"/><path d="M179.092 173.658c.354-.164 4.215.215 4.215.215 1.523.814 3.119 1.559 4.582 2.474.324.201.345.479.278.83-.073.414-.23.807-.463 1.156-.654.909-1.838.694-2.739.324l-3.355-1.376-3.931-.178 1.413-3.445Z" fill="#EFD1D8"/><path d="M127.009 149.176c-3.355 1.052-6.624 3.084-8.786 5.875-6.804 8.767-.331 18.647 6.166 24.922 3.325 3.206 6.689 6.381 10.189 9.398 2.056 1.771 4.775 4.511 7.609 5.84-1.461 1.043-7.535 31.088-7.535 31.088l13.706 1.374 7.436-27.135s4.263-14.036-12.437-26.82" fill="#58C1CC"/><path d="M159.313 124.606c-.575.122-1.141.286-1.692.492a5.754 5.754 0 0 0-1.2.581c-.636.43-.788 1.179-1.44 1.588-.59.37-1.325.499-1.947.821a2.89 2.89 0 0 0-.694.476c-.215.208-.351.462-.557.68a5.897 5.897 0 0 1-.548.462c-.301.231-.805.65-1.262.569l12.76 6.894-3.42-12.563Z" fill="#000"/><path d="M158.515 132.15c-1.801.395-2.872-.493-3.08-1.746-.192-1.156.735-2.559 2.139-2.157a3.706 3.706 0 0 1 1.496.909c.154.347.269.71.344 1.082.153.763.107 1.69-.908 1.912" fill="#EFD1D8"/><path d="M158.654 133.946c2.759 2.081 5.318.814 6.37-1.801.462-1.156.869-2.46.652-3.711-.197-1.156-.768-2.194-1.753-2.816-2.062-1.306-4.915-.499-6.369 1.801a4.897 4.897 0 0 0 1.1 6.527Z" fill="#EFD1D8"/><path d="M158.282 130.596a1.733 1.733 0 0 0-1.559-1.482c-.217-.018-.277.315-.06.333a1.388 1.388 0 0 1 1.279 1.177c.032.217.372.19.34-.028Z" fill="#000"/><path d="m158.917 132.063-1.904 3.515 2.571 1.393 1.905-3.514-2.572-1.394Z" fill="#EFD1D8"/><path d="M163.094 130.698a.314.314 0 0 1-.184.046.31.31 0 0 1-.177-.066.305.305 0 0 1-.109-.155.313.313 0 0 1-.002-.189.32.32 0 0 1 .594-.045.302.302 0 0 1-.122.409ZM163.808 132.934c.35-.569.615-1.186.786-1.831.048-.188-.232-.303-.28-.116a6.574 6.574 0 0 1-.754 1.762c-.102.162.146.347.248.185ZM159.065 127.799l7.08 2.943c-.053-.037.261-.997.284-1.082.484-1.753-.242-3.864-1.78-4.786-1.91-1.14-4.763-1.619-6.451-.021-.187.18-2.439 2.761-2.259 2.86l2.669 1.23.457-1.144Z" fill="#000"/><path d="M166.92 123.658a2.33 2.33 0 0 1-1.44 2.155 2.331 2.331 0 0 1-3.181-1.7 2.335 2.335 0 1 1 4.621-.455Z" fill="#000"/><path d="M115.321 160.678s-1.123 9.896 9.064 19.295" stroke="#000" stroke-width=".231" stroke-miterlimit="10"/><path d="M128.433 162.033c1.1 8.289 6.302 15.172 12.321 20.668 2.397 2.192 5.227 3.889 6.705 6.878 3.366 6.786-.343 16.053-1.85 23.051-.999 4.674-2.001 9.347-3.006 14.021" stroke="#fff" stroke-width=".231" stroke-miterlimit="10"/><path d="m172.26 166.953-7.775-.753c2.497-4.259 4.18-9.154 3.961-14.143-.442-10.083-9.052-16.397-18.143-18.675-8.275-2.081-18.363 2.53-25.687 7.059-1.926 1.191-15.419 11.012-15.63 10.867l33.632 22.272c1.618 5.713 2.349 10.422 10.434 10.422l17.391 1.679a9.402 9.402 0 0 0 10.243-8.418v-.083a9.404 9.404 0 0 0-8.426-10.227Z" fill="#3458DF"/><path d="m164.485 166.193-2.71-14.892M176.494 172.347s3.29 7.887-2.624 10.493M149.068 136.346s-6.705-1.399-11.218 2.278" stroke="#fff" stroke-width=".231" stroke-miterlimit="10"/><g opacity=".32" fill="#fff"><path opacity=".32" d="M119.494 130.462h-1.258v.314h1.258v-.314ZM192.13 130.776h-2.594v-.314h2.594v.314Zm-5.188 0h-2.594v-.314h2.594v.314Zm-5.189 0h-2.594v-.314h2.594v.314Zm-5.188 0h-2.585v-.314h2.594l-.009.314Zm-5.188 0h-2.594v-.314h2.594v.314Zm-5.188 0h-2.595v-.314h2.595v.314Zm-5.189 0h-2.594v-.314H161v.314Zm-5.188 0h-2.594v-.314h2.594v.314Zm-5.188 0h-2.594v-.314h2.598l-.004.314Zm-5.188 0h-2.595v-.314h2.595v.314Zm-5.189 0h-2.594v-.314h2.594v.314Zm-5.188 0h-2.594v-.314h2.594v.314Zm-5.188 0h-2.594v-.314h2.594v.314Zm-5.188 0h-2.595v-.314h2.595v.314ZM195.979 130.462h-1.257v.314h1.257v-.314ZM111.994 137.407h-1.258v.315h1.258v-.315ZM192.215 137.722h-2.513v-.315h2.506l.007.315Zm-5.012 0h-2.509v-.315h2.509v.315Zm-5.015 0h-2.506v-.315h2.506v.315Zm-5.015 0h-2.499v-.315h2.506l-.007.315Zm-5.013 0h-2.508v-.315h2.508v.315Zm-5.014 0h-2.507v-.315h2.507v.315Zm-5.013 0h-2.509v-.315h2.509v.315Zm-5.015 0h-2.506v-.315h2.506v.315Zm-5.015 0h-2.506v-.315h2.506v.315Zm-5.012 0h-2.506v-.315h2.506v.315Zm-5.015 0h-2.506v-.315h2.504l.002.315Zm-5.013 0h-2.506v-.315h2.506v.315Zm-5.014 0h-2.507v-.315h2.507v.315Zm-5.013 0h-2.509v-.315h2.518l-.009.315Zm-5.015 0h-2.506v-.315h2.506v.315Zm-5.012 0H114.5v-.315h2.509v.315ZM195.979 137.407h-1.257v.315h1.257v-.315ZM111.994 144.762h-1.258v.314h1.258v-.314ZM192.215 145.076h-2.513v-.319h2.506l.007.319Zm-5.012 0h-2.509v-.319h2.509v.319Zm-5.015 0h-2.506v-.319h2.506v.319Zm-5.015 0h-2.499v-.319h2.506l-.007.319Zm-5.013 0h-2.508v-.319h2.508v.319Zm-5.014 0h-2.507v-.319h2.507v.319Zm-5.013 0h-2.509v-.319h2.509v.319Zm-5.015 0h-2.506v-.319h2.506v.319Zm-5.015 0h-2.506v-.319h2.506v.319Zm-5.012 0h-2.506v-.319h2.506v.319Zm-5.015 0h-2.506v-.319h2.504l.002.319Zm-5.013 0h-2.506v-.319h2.506v.319Zm-5.014 0h-2.507v-.319h2.507v.319Zm-5.013 0h-2.509v-.319h2.518l-.009.319Zm-5.015 0h-2.506v-.319h2.506v.319Zm-5.012 0H114.5v-.319h2.509v.319ZM195.979 144.762h-1.257v.314h1.257v-.314ZM111.994 152.119h-1.258v.314h1.258v-.314ZM192.215 152.433h-2.513v-.314h2.506l.007.314Zm-5.012 0h-2.509v-.314h2.509v.314Zm-5.015 0h-2.506v-.314h2.506v.314Zm-5.015 0h-2.499v-.314h2.506l-.007.314Zm-5.013 0h-2.508v-.314h2.508v.314Zm-5.014 0h-2.507v-.314h2.507v.314Zm-5.013 0h-2.509v-.314h2.509v.314Zm-5.015 0h-2.506v-.314h2.506v.314Zm-5.015 0h-2.506v-.314h2.506v.314Zm-5.012 0h-2.506v-.314h2.506v.314Zm-5.015 0h-2.506v-.314h2.504l.002.314Zm-5.013 0h-2.506v-.314h2.506v.314Zm-5.014 0h-2.507v-.314h2.507v.314Zm-5.013 0h-2.509v-.314h2.518l-.009.314Zm-5.015 0h-2.506v-.314h2.506v.314Zm-5.012 0H114.5v-.314h2.509v.314ZM195.979 152.119h-1.257v.314h1.257v-.314ZM111.994 159.473h-1.258v.315h1.258v-.315ZM192.215 159.786h-2.513v-.315h2.506l.007.315Zm-5.012 0h-2.509v-.315h2.509v.315Zm-5.015 0h-2.506v-.315h2.506v.315Zm-5.015 0h-2.499v-.315h2.506l-.007.315Zm-5.013 0h-2.508v-.315h2.508v.315Zm-5.014 0h-2.507v-.315h2.507v.315Zm-5.013 0h-2.509v-.315h2.509v.315Zm-5.015 0h-2.506v-.315h2.506v.315Zm-5.015 0h-2.506v-.315h2.506v.315Zm-5.012 0h-2.506v-.315h2.506v.315Zm-5.017 0h-2.504v-.315h2.504v.315Zm-5.013 0h-2.504v-.315h2.506l-.002.315Zm-5.015 0h-2.504v-.315h2.507l-.003.315Zm-5.001 0h-2.518v-.315h2.518v.315Zm-5.015 0h-2.515v-.315h2.506l.009.315Zm-5.012 0H114.5v-.315h2.509l.009.315ZM195.979 159.473h-1.257v.315h1.257v-.315ZM111.994 166.83h-1.258v.315h1.258v-.315ZM192.215 167.145h-2.513v-.315h2.506l.007.315Zm-5.012 0h-2.509v-.315h2.509v.315Zm-5.015 0h-2.506v-.315h2.506v.315Zm-5.015 0h-2.499v-.315h2.506l-.007.315Zm-5.013 0h-2.508v-.315h2.508v.315Zm-5.014 0h-2.507v-.315h2.507v.315Zm-5.013 0h-2.509v-.315h2.509v.315Zm-5.015 0h-2.506v-.315h2.506v.315Zm-5.015 0h-2.506v-.315h2.506v.315Zm-5.012 0h-2.506v-.315h2.506v.315Zm-5.015 0h-2.506v-.315h2.504l.002.315Zm-5.013 0h-2.506v-.315h2.506v.315Zm-5.014 0h-2.507v-.315h2.507v.315Zm-5.013 0h-2.509v-.315h2.518l-.009.315Zm-5.015 0h-2.506v-.315h2.506v.315Zm-5.012 0H114.5v-.315h2.509v.315ZM195.979 166.83h-1.257v.315h1.257v-.315ZM119.494 173.198h-1.258v.314h1.258v-.314ZM192.13 173.512h-2.594v-.316h2.594v.316Zm-5.188 0h-2.594v-.316h2.594v.316Zm-5.189 0h-2.594v-.316h2.594v.316Zm-5.188 0h-2.585v-.316h2.594l-.009.316Zm-5.188 0h-2.594v-.316h2.594v.316Zm-5.188 0h-2.595v-.316h2.595v.316Zm-5.189 0h-2.594v-.316H161v.316Zm-5.188 0h-2.594v-.316h2.594v.316Zm-5.188 0h-2.594v-.316h2.598l-.004.316Zm-5.188 0h-2.595v-.316h2.595v.316Zm-5.189 0h-2.594v-.316h2.594v.316Zm-5.188 0h-2.594v-.316h2.594v.316Zm-5.188 0h-2.594v-.316h2.594v.316Zm-5.188 0h-2.595v-.316h2.595v.316ZM195.979 173.198h-1.257v.314h1.257v-.314ZM111.994 180.141h-1.258v.314h1.258v-.314ZM192.215 180.458h-2.513v-.326h2.506l.007.326Zm-5.012 0h-2.509v-.326h2.509v.326Zm-5.015 0h-2.506v-.326h2.506v.326Zm-5.015 0h-2.499v-.326h2.506l-.007.326Zm-5.013 0h-2.508v-.326h2.508v.326Zm-5.014 0h-2.507v-.326h2.507v.326Zm-5.013 0h-2.509v-.326h2.509v.326Zm-5.015 0h-2.506v-.326h2.506v.326Zm-5.015 0h-2.506v-.326h2.506v.326Zm-5.012 0h-2.506v-.326h2.506v.326Zm-5.015 0h-2.506v-.326h2.504l.002.326Zm-5.013 0h-2.506v-.326h2.506v.326Zm-5.014 0h-2.507v-.326h2.507v.326Zm-5.013 0h-2.509v-.326h2.518l-.009.326Zm-5.015 0h-2.506v-.326h2.506v.326Zm-5.012 0H114.5v-.326h2.509v.326ZM195.979 180.141h-1.257v.314h1.257v-.314ZM111.994 187.498h-1.258v.314h1.258v-.314ZM192.215 187.812h-2.513v-.314h2.506l.007.314Zm-5.012 0h-2.509v-.314h2.509v.314Zm-5.015 0h-2.506v-.314h2.506v.314Zm-5.015 0h-2.499v-.314h2.506l-.007.314Zm-5.013 0h-2.508v-.314h2.508v.314Zm-5.014 0h-2.507v-.314h2.507v.314Zm-5.013 0h-2.509v-.314h2.509v.314Zm-5.015 0h-2.506v-.314h2.506v.314Zm-5.015 0h-2.506v-.314h2.506v.314Zm-5.012 0h-2.506v-.314h2.506v.314Zm-5.015 0h-2.506v-.314h2.504l.002.314Zm-5.013 0h-2.506v-.314h2.506v.314Zm-5.014 0h-2.507v-.314h2.507v.314Zm-5.013 0h-2.509v-.314h2.518l-.009.314Zm-5.015 0h-2.506v-.314h2.506v.314Zm-5.012 0H114.5v-.314h2.509v.314ZM195.979 187.498h-1.257v.314h1.257v-.314ZM111.994 194.853h-1.258v.314h1.258v-.314ZM192.215 195.16h-2.513v-.314h2.506l.007.314Zm-5.012 0h-2.509v-.314h2.509v.314Zm-5.015 0h-2.506v-.314h2.506v.314Zm-5.015 0h-2.499v-.314h2.506l-.007.314Zm-5.013 0h-2.508v-.314h2.508v.314Zm-5.014 0h-2.507v-.314h2.507v.314Zm-5.013 0h-2.509v-.314h2.509v.314Zm-5.015 0h-2.506v-.314h2.506v.314Zm-5.015 0h-2.506v-.314h2.506v.314Zm-5.012 0h-2.506v-.314h2.506v.314Zm-5.017 0h-2.504v-.314h2.504v.314Zm-5.013 0h-2.504v-.314h2.506l-.002.314Zm-5.015 0h-2.504v-.314h2.507l-.003.314Zm-5.001 0h-2.518v-.314h2.518v.314Zm-5.015 0h-2.515v-.314h2.506l.009.314Zm-5.012 0H114.5v-.314h2.509l.009.314ZM195.979 194.853h-1.257v.314h1.257v-.314ZM111.994 202.21h-1.258v.314h1.258v-.314ZM192.215 202.524h-2.513v-.314h2.506l.007.314Zm-5.012 0h-2.509v-.314h2.509v.314Zm-5.015 0h-2.506v-.314h2.506v.314Zm-5.015 0h-2.499v-.314h2.506l-.007.314Zm-5.013 0h-2.508v-.314h2.508v.314Zm-5.014 0h-2.507v-.314h2.507v.314Zm-5.013 0h-2.509v-.314h2.509v.314Zm-5.015 0h-2.506v-.314h2.506v.314Zm-5.015 0h-2.506v-.314h2.506v.314Zm-5.012 0h-2.506v-.314h2.506v.314Zm-5.015 0h-2.506v-.314h2.504l.002.314Zm-5.013 0h-2.506v-.314h2.506v.314Zm-5.014 0h-2.507v-.314h2.507v.314Zm-5.013 0h-2.509v-.314h2.518l-.009.314Zm-5.015 0h-2.506v-.314h2.506v.314Zm-5.012 0H114.5v-.314h2.509v.314ZM195.979 202.21h-1.257v.314h1.257v-.314ZM111.994 209.566h-1.258v.315h1.258v-.315ZM192.215 209.881h-2.513v-.315h2.506l.007.315Zm-5.012 0h-2.509v-.315h2.509v.315Zm-5.015 0h-2.506v-.315h2.506v.315Zm-5.015 0h-2.499v-.315h2.506l-.007.315Zm-5.013 0h-2.508v-.315h2.508v.315Zm-5.014 0h-2.507v-.315h2.507v.315Zm-5.013 0h-2.509v-.315h2.509v.315Zm-5.015 0h-2.506v-.315h2.506v.315Zm-5.015 0h-2.506v-.315h2.506v.315Zm-5.012 0h-2.506v-.315h2.506v.315Zm-5.015 0h-2.506v-.315h2.504l.002.315Zm-5.013 0h-2.506v-.315h2.506v.315Zm-5.014 0h-2.507v-.315h2.507v.315Zm-5.013 0h-2.509v-.315h2.518l-.009.315Zm-5.015 0h-2.506v-.315h2.506v.315Zm-5.012 0H114.5v-.315h2.509v.315ZM195.979 209.566h-1.257v.315h1.257v-.315Z"/></g><path d="m138.576 157.324 4.042 16.256" stroke="#000" stroke-width=".231" stroke-miterlimit="10"/><path d="m112.151 201.558-9.576 18.725" stroke="#221715" stroke-width=".231" stroke-miterlimit="10"/><path d="M173.116 164.542s8.723 1.734 9.091 6.268M157.406 191.186s3.737 3.635 1.85 10.372" stroke="#000" stroke-width=".231" stroke-miterlimit="10"/><g opacity=".49" fill="#A5C3EF"><path opacity=".49" d="M212.852 164.41c-2.151-.099-4.301-.201-6.453-.291-.245 0-.347-.06-.31-.329.037-.268.025-.587.048-.878 0-.153-.032-.213-.191-.231-.805-.033-1.619-.067-2.412-.111-.148 0-.185.048-.187.185 0 .335-.037.672-.042 1.01 0 .157-.055.201-.213.19a12.166 12.166 0 0 0-.975-.044c-.185 0-.215-.077-.201-.232.023-.314.023-.628.048-.943.012-.162-.025-.231-.203-.231a135.18 135.18 0 0 1-2.379-.109c-.16 0-.206.042-.208.197 0 .335-.035.673-.042 1.01 0 .139-.044.19-.19.178a17.136 17.136 0 0 0-1.01-.046c-.164 0-.204-.065-.19-.217.021-.259.026-.521.037-.782.051-1.114-.15-1.445-1.137-1.866l-4.564-.21c-.985.347-1.205.652-1.256 1.741 0 .217-.037.435-.025.652.016.273-.056.37-.358.344-.782-.062-1.563-.083-2.347-.115-.913-.035-1.512.506-1.554 1.417-.319 6.887-.634 13.775-.946 20.663-.039.883.463 1.482 1.355 1.549.847.062 1.695.074 2.544.127.263.019.212-.143.219-.287.097-2.106.201-4.214.282-6.321 0-.303.104-.34.373-.326 6.258.293 12.516.579 18.774.858.272.012.36.065.344.363-.111 2.097-.194 4.194-.301 6.291-.013.252.044.333.306.338.76.016 1.521.067 2.279.097 1.02.041 1.603-.486 1.649-1.496.308-6.835.621-13.668.939-20.501.046-1.015-.486-1.593-1.501-1.639l-.002-.005Zm-7.165 8.074a5.578 5.578 0 0 1-1.83 3.898 5.563 5.563 0 0 1-4.062 1.428 5.552 5.552 0 0 1-2.124-.559 5.568 5.568 0 0 1-3.103-5.422c.21-3.054 2.876-5.414 5.868-5.195 3.105.231 5.456 2.846 5.251 5.85Zm4.108 1.759a82.887 82.887 0 0 0-.109 2.34c0 .192-.074.231-.252.231-.77-.044-1.541-.08-2.312-.106-.171 0-.245-.039-.231-.231a79.62 79.62 0 0 0 .109-2.34c0-.187.062-.231.245-.231.4.03.802.039 1.202.057.4.019.738.042 1.108.049.168 0 .252.032.231.231h.009Zm.243-5.533a80.15 80.15 0 0 0-.106 2.313c0 .164-.051.231-.232.231-.79-.045-1.582-.081-2.374-.109-.155 0-.204-.053-.192-.21.028-.412.039-.826.058-1.237.016-.359.044-.715.046-1.073 0-.199.042-.28.271-.264.756.051 1.516.081 2.275.107.189 0 .263.046.249.259"/><path opacity=".49" d="M207.714 182.273a1359.34 1359.34 0 0 1-7.986-.358c-2.668-.127-5.389-.243-8.092-.375-.231-.011-.319.019-.328.28-.155 3.565-.324 7.128-.481 10.691-.044.98.492 1.556 1.468 1.602 4.529.206 9.061.398 13.59.634a1.512 1.512 0 0 0 1.156-.391 1.495 1.495 0 0 0 .483-1.119c.137-3.542.313-7.084.484-10.636 0-.247-.04-.326-.303-.337"/></g><path d="m189.726 159.296 4.562.21c.989.421 1.19.752 1.139 1.866 0 .261-.016.523-.039.782-.011.152.026.215.19.217.337 0 .675.021 1.01.046.146 0 .187-.039.192-.178 0-.337.035-.675.039-1.01 0-.155.049-.206.211-.197.79.042 1.583.078 2.379.109.178 0 .215.078.203.231-.025.315-.025.629-.051.943 0 .16.019.232.202.232.326 0 .654.018.978.044.154 0 .21-.033.212-.19 0-.338.033-.675.04-1.01 0-.137.039-.192.189-.185.802.044 1.619.078 2.412.111.159 0 .203.067.189.219-.023.292 0 .59-.048.879-.049.289.067.319.312.328 2.15.09 4.303.192 6.453.291 1.015.047 1.544.625 1.498 1.64l-.925 20.501c-.046 1.01-.629 1.537-1.648 1.496-.761-.03-1.522-.081-2.282-.097-.259 0-.317-.086-.306-.338.107-2.097.192-4.194.303-6.291.017-.298-.071-.352-.346-.363-6.257-.278-12.514-.564-18.772-.858-.268-.014-.363.023-.375.326-.078 2.106-.182 4.215-.279 6.321 0 .144.041.305-.232.287-.846-.053-1.694-.065-2.543-.127-.883-.067-1.387-.666-1.355-1.549.309-6.889.623-13.776.944-20.663.041-.911.642-1.452 1.556-1.417.781.032 1.565.053 2.344.115.305.026.375-.072.361-.344a5.668 5.668 0 0 1 .025-.652c.049-1.092.268-1.388 1.256-1.741l.002.016Zm13.618 11.819c.206-3.006-2.146-5.621-5.253-5.849-2.99-.232-5.655 2.141-5.866 5.195a5.572 5.572 0 0 0 7.402 5.675 5.561 5.561 0 0 0 3.194-2.888 5.57 5.57 0 0 0 .523-2.133Zm2.761 1.475c-.4-.018-.803-.028-1.203-.06-.182-.014-.231.037-.247.231a101.38 101.38 0 0 1-.106 2.342c-.012.197.06.232.231.232.77.027 1.541.063 2.312.106.178 0 .247-.03.254-.231.025-.782.06-1.562.106-2.34.014-.204-.071-.231-.231-.231-.367 0-.735-.033-1.105-.049h-.011Zm-1.23-4.277c-.019.411-.031.825-.061 1.237 0 .157.04.203.195.21.79.03 1.583.065 2.374.109.176 0 .231-.056.231-.231.03-.77.06-1.54.109-2.312.014-.213-.06-.252-.25-.259a69.363 69.363 0 0 1-2.277-.107c-.231-.014-.268.065-.268.264 0 .358-.03.714-.047 1.073" fill="#3458DF"/><path d="M203.637 171.115a5.84 5.84 0 0 1-6.182 5.489 5.846 5.846 0 0 1-5.489-6.182c.231-3.207 3.019-5.683 6.159-5.452 3.26.231 5.729 2.987 5.512 6.138v.007Zm-8.751-.434a2.92 2.92 0 0 0 4.892 2.251 2.916 2.916 0 0 0-.751-4.795 2.921 2.921 0 0 0-3.878 1.433c-.16.349-.249.727-.263 1.111Z" fill="#EA706A"/><path d="M206.17 172.477c.416.018.83.046 1.246.053.189 0 .284.037.27.266a82.973 82.973 0 0 0-.12 2.638c0 .215-.086.259-.287.25-.864-.051-1.731-.091-2.601-.12-.192 0-.275-.044-.261-.266.054-.879.094-1.758.12-2.638 0-.208.072-.266.278-.25.451.037.904.046 1.355.067ZM204.77 168.202c.019-.405.049-.807.051-1.209 0-.231.049-.315.305-.299.853.058 1.709.093 2.564.121.213 0 .296.053.282.291-.055.867-.09 1.734-.122 2.601 0 .185-.056.257-.254.247-.89-.05-1.782-.091-2.676-.122-.173 0-.231-.06-.217-.231.033-.463.046-.925.067-1.387" fill="#EFD853"/><path d="M197.376 180.558c2.661.122 5.318.247 7.986.358.261.012.312.09.3.338-.168 3.542-.344 7.084-.48 10.635a1.494 1.494 0 0 1-.484 1.119 1.495 1.495 0 0 1-1.156.391c-4.529-.231-9.061-.428-13.592-.634-.974-.046-1.512-.622-1.469-1.602.16-3.563.329-7.126.481-10.691.012-.261.102-.291.331-.28 2.693.131 5.39.256 8.092.375" fill="#3458DF"/><path d="M194.632 170.727a3.122 3.122 0 1 1 5.951 1.43 3.121 3.121 0 0 1-2.964 1.807 3.151 3.151 0 0 1-2.987-3.237Zm3.057 1.683a1.555 1.555 0 1 0-1.503-1.619 1.57 1.57 0 0 0 1.503 1.619Z" fill="#010101"/><path d="M197.734 172.502a1.688 1.688 0 0 1-1.517-1.111 1.692 1.692 0 1 1 3.281-.507 1.704 1.704 0 0 1-1.764 1.618Z" fill="#FEFEFE"/><path d="m196.937 191.612 6.61.339M196.26 191.612l-1.688-.091" stroke="#FEFEFE" stroke-width=".231" stroke-miterlimit="10"/><path d="M182.624 176.923s2.619 1.635 1.346 2.46c0 0-.962.781-3.163-2.231" fill="#EFD1D8"/><path d="M182.624 176.923s2.619 1.635 1.346 2.46c0 0-.962.781-3.163-2.231M208.017 161.122l3.267.093s2.215-.111 2.261 1.35l-.134 4.68" stroke="#000" stroke-width=".231" stroke-miterlimit="10"/><path d="M212.366 196.476v7.669l-5.718-4.259 5.718-3.41Z" fill="#EBF4FD"/><path d="M157.676 133.043a5.213 5.213 0 0 0 3.628 2.122" stroke="#000" stroke-width=".231" stroke-miterlimit="10"/><defs><clipPath id="a"><path fill="#fff" transform="translate(30 182)" d="M0 0h50v52H0z"/></clipPath><clipPath id="c"><path fill="#fff" transform="translate(323 192)" d="M0 0h47v42H0z"/></clipPath></defs></svg>