<svg viewBox="0 0 400 300" fill="none" xmlns="http://www.w3.org/2000/svg"><path d="M76.897 244.091s75.304-39.828 42.918-72.143c-20.221-20.178-37.094-50.097-38.8-77.909-1.596-26 21.865-46.748 49.391-46.645 21.105.071 37.573 10.328 51.005 24.655 11.211 11.958 30.736 50.824 52.909 45.117 4.775-1.226 8.178-4.999 11.959-7.972 17.353-13.644 25.154 9.398 25.352 21.683.226 14.074-2.889 28.266-6.275 41.916-2.012 8.099-17.631 71.293-23.268 71.293l-165.191.005Z" fill="#ECF4FD"/><path d="M108.604 89.744c8.421-8.421 8.421-22.075 0-30.496-8.422-8.421-22.075-8.421-30.496 0s-8.421 22.075 0 30.496 22.074 8.421 30.496 0Z" fill="#57E6EA"/><path d="m81.38 74.742 8.781 6.811 15.172-14.63" stroke="#fff" stroke-width="3.533" stroke-miterlimit="10" stroke-linecap="round"/><g clip-path="url(#a)"><path fill-rule="evenodd" clip-rule="evenodd" d="M76.694 225.574c-7.689 4.656 6.126 17.612 6.126 17.612l-12.233 8.342c-2.488-1.178-4.191-2.526-5.346-3.889l-4.979 5.606c-4.335-.193-8.904-1.631-11-5.735-.663-1.298-.718-2.991-.773-4.657-.07-2.175-.14-4.306-1.558-5.459-1.153-.935-2.824-1.329-4.251-1.579-.74-.13-5.01-.87-5.575-.13 2.879-3.756-2.212-1.373-2.212-1.373-1.699-.576-2.424-3.875-2.979-6.401-.22-1.003-.413-1.883-.63-2.424-.479-1.193-4.884-9.268-6.284-8.757 6.047-2.21 12.57-.685 17.734 2.954 2.2 1.55 3.629 3.681 4.857 6.04.126.244.358.819.644 1.531.783 1.945 1.977 4.914 2.574 4.992.768.1 7.356 3.788 12.535 6.741.35-1.824-1.707-4.521-1.707-4.521-6.542-5.922-1.025-11.567-1.025-11.567 2.376-2.43.998-6.735-.777-9.007-.668-.855-1.736-1.498-2.816-2.148-1.79-1.077-3.611-2.173-3.682-4.283-.04-1.168.588-2.173 1.222-3.189.337-.54.675-1.083.917-1.654 1.125-2.664-.169-5.547-2.161-7.401-.412-.383-.86-.745-1.31-1.107-1.272-1.028-2.548-2.059-3.014-3.584-.63-2.063.579-4.362 2.391-5.534 1.813-1.171 4.075-1.413 6.23-1.323 3.848.157 7.765 1.342 10.643 3.905 4.118 3.672 5.526 9.6 5.284 15.109-.193 4.115-.324 7.064 2.718 10.094.351.351.721.694 1.093 1.038 1.89 1.752 3.81 3.531 3.437 6.409-.288 2.256-2.217 4.216-4.093 5.349Z" fill="#CDE5F9"/><mask id="b" style="mask-type:alpha" maskUnits="userSpaceOnUse" x="25" y="183" width="58" height="71"><path fill-rule="evenodd" clip-rule="evenodd" d="M76.694 225.574c-7.689 4.656 6.126 17.612 6.126 17.612l-12.233 8.342c-2.488-1.178-4.191-2.526-5.346-3.889l-4.979 5.606c-4.335-.193-8.904-1.631-11-5.735-.663-1.298-.718-2.991-.773-4.657-.07-2.175-.14-4.306-1.558-5.459-1.153-.935-2.824-1.329-4.251-1.579-.74-.13-5.01-.87-5.575-.13 2.879-3.756-2.212-1.373-2.212-1.373-1.699-.576-2.424-3.875-2.979-6.401-.22-1.003-.413-1.883-.63-2.424-.479-1.193-4.884-9.268-6.284-8.757 6.047-2.21 12.57-.685 17.734 2.954 2.2 1.55 3.629 3.681 4.857 6.04.126.244.358.819.644 1.531.783 1.945 1.977 4.914 2.574 4.992.768.1 7.356 3.788 12.535 6.741.35-1.824-1.707-4.521-1.707-4.521-6.542-5.922-1.025-11.567-1.025-11.567 2.376-2.43.998-6.735-.777-9.007-.668-.855-1.736-1.498-2.816-2.148-1.79-1.077-3.611-2.173-3.682-4.283-.04-1.168.588-2.173 1.222-3.189.337-.54.675-1.083.917-1.654 1.125-2.664-.169-5.547-2.161-7.401-.412-.383-.86-.745-1.31-1.107-1.272-1.028-2.548-2.059-3.014-3.584-.63-2.063.579-4.362 2.391-5.534 1.813-1.171 4.075-1.413 6.23-1.323 3.848.157 7.765 1.342 10.643 3.905 4.118 3.672 5.526 9.6 5.284 15.109-.193 4.115-.324 7.064 2.718 10.094.351.351.721.694 1.093 1.038 1.89 1.752 3.81 3.531 3.437 6.409-.288 2.256-2.217 4.216-4.093 5.349Z" fill="#CDE5F9"/></mask><g mask="url(#b)" stroke="#fff" stroke-width=".204" stroke-miterlimit="10"><path d="M50.45 181.292c.842 3.261 3.032 5.348 5.682 7.251 1.67 1.198 3.735 2.25 4.963 3.954 1.772 2.447.571 4.727.816 7.524.144 1.56.703 3.136 1.842 4.212 4.596 4.349 7.178 7.841 6.485 14.519-.975 9.415-1.549 20.189 7.38 26.345M25 216.736a22.817 22.817 0 0 1 14.63 10.026c1.476 2.335 1.938 5.232 4.248 6.925 2.354 1.729 5.466 2.055 8.127 3.104 4.892 1.93 8.222 6.844 9.901 11.687"/></g></g><g clip-path="url(#c)"><path fill-rule="evenodd" clip-rule="evenodd" d="M302.25 230.996c6.384 3.862-5.074 14.612-5.074 14.612l10.159 6.909c8.306-3.931 6.072-10.168 6.072-10.168-.56-1.511 1.343-3.987 1.343-3.987 5.427-4.912.85-9.594.85-9.594-1.97-2.017-.829-5.591.645-7.475.553-.708 1.44-1.241 2.335-1.78 1.486-.894 2.996-1.804 3.054-3.552.034-.972-.49-1.813-1.017-2.659-.278-.445-.556-.892-.755-1.361-.924-2.207.141-4.601 1.794-6.14.342-.318.714-.619 1.086-.921 1.054-.852 2.111-1.707 2.499-2.971.524-1.709-.484-3.631-1.984-4.59-1.501-.96-3.376-1.161-5.164-1.087-3.197.13-6.442 1.114-8.831 3.242-3.416 3.044-4.582 7.961-4.384 12.532l.001.008c.149 3.415.256 5.857-2.265 8.366-.292.292-.6.577-.909.864-1.568 1.454-3.158 2.928-2.85 5.314.242 1.872 1.84 3.498 3.395 4.438Zm27.473 1.229c-1.286.546-16.645 16.269-16.645 16.269l12.891 8.325c4.449-1.454 8.787-4.256 9.785-9.149.314-1.543-.118-3.32-.544-5.071-.556-2.284-1.1-4.522.043-6.132.93-1.307 2.558-2.201 3.969-2.873.733-.35 4.962-2.353 5.764-1.747-4.077-3.08 1.903-2.071 1.903-2.071 1.604-1.096 1.404-4.74 1.251-7.527-.061-1.106-.114-2.076-.044-2.701.152-1.383 2.405-11.059 4.008-10.934-6.941-.546-13.282 2.922-17.603 8.203-1.843 2.258-2.716 4.881-3.311 7.694-.061.291-.136.961-.229 1.791-.25 2.247-.631 5.667-1.238 5.923Z" fill="#CDE5F9"/><mask id="d" style="mask-type:alpha" maskUnits="userSpaceOnUse" x="297" y="196" width="56" height="61"><path fill-rule="evenodd" clip-rule="evenodd" d="M302.25 230.996c6.384 3.862-5.074 14.612-5.074 14.612l10.159 6.909c8.306-3.931 6.072-10.168 6.072-10.168-.56-1.511 1.343-3.987 1.343-3.987 5.427-4.912.85-9.594.85-9.594-1.97-2.017-.829-5.591.645-7.475.553-.708 1.44-1.241 2.335-1.78 1.486-.894 2.996-1.804 3.054-3.552.034-.972-.49-1.813-1.017-2.659-.278-.445-.556-.892-.755-1.361-.924-2.207.141-4.601 1.794-6.14.342-.318.714-.619 1.086-.921 1.054-.852 2.111-1.707 2.499-2.971.524-1.709-.484-3.631-1.984-4.59-1.501-.96-3.376-1.161-5.164-1.087-3.197.13-6.442 1.114-8.831 3.242-3.416 3.044-4.582 7.961-4.384 12.532l.001.008c.149 3.415.256 5.857-2.265 8.366-.292.292-.6.577-.909.864-1.568 1.454-3.158 2.928-2.85 5.314.242 1.872 1.84 3.498 3.395 4.438Zm27.473 1.229c-1.286.546-16.645 16.269-16.645 16.269l12.891 8.325c4.449-1.454 8.787-4.256 9.785-9.149.314-1.543-.118-3.32-.544-5.071-.556-2.284-1.1-4.522.043-6.132.93-1.307 2.558-2.201 3.969-2.873.733-.35 4.962-2.353 5.764-1.747-4.077-3.08 1.903-2.071 1.903-2.071 1.604-1.096 1.404-4.74 1.251-7.527-.061-1.106-.114-2.076-.044-2.701.152-1.383 2.405-11.059 4.008-10.934-6.941-.546-13.282 2.922-17.603 8.203-1.843 2.258-2.716 4.881-3.311 7.694-.061.291-.136.961-.229 1.791-.25 2.247-.631 5.667-1.238 5.923Z" fill="#CDE5F9"/></mask><g mask="url(#d)" stroke="#fff" stroke-width=".204" stroke-miterlimit="10"><path d="M329.546 182.292c-.843 3.261-3.033 5.348-5.683 7.251-1.672 1.198-3.735 2.25-4.963 3.954-1.775 2.447-.571 4.727-.829 7.524-.147 1.56-.707 3.136-1.843 4.212-4.596 4.349-7.18 7.841-6.487 14.519.978 9.415 1.549 20.189-7.377 26.345M352.104 208.614a24.647 24.647 0 0 0-12.328 14.677c-.862 2.856-.506 6.007-2.419 8.425-1.954 2.479-5.096 3.721-7.564 5.583-4.534 3.422-6.58 9.513-6.931 15.011"/></g></g><path d="M155.171 49.762a1.585 1.585 0 0 1-.973 1.46 1.581 1.581 0 0 1-2.155-1.149 1.576 1.576 0 0 1 .671-1.621 1.58 1.58 0 0 1 2.457 1.31ZM165.116 49.762a1.586 1.586 0 0 1-.974 1.46 1.58 1.58 0 1 1 .974-1.46ZM175.063 49.762a1.576 1.576 0 0 1-1.885 1.551 1.576 1.576 0 0 1-1.242-1.24 1.584 1.584 0 0 1 .671-1.621 1.58 1.58 0 0 1 2.456 1.31ZM185.009 49.762a1.585 1.585 0 0 1-.973 1.46 1.581 1.581 0 0 1-2.155-1.149 1.576 1.576 0 0 1 .671-1.621 1.58 1.58 0 0 1 2.457 1.31ZM194.956 49.762a1.585 1.585 0 0 1-.973 1.46 1.581 1.581 0 0 1-2.066-2.061 1.582 1.582 0 0 1 2.575-.514c.296.295.463.696.464 1.115ZM204.9 49.762a1.585 1.585 0 0 1-.973 1.46 1.581 1.581 0 0 1-2.155-1.149 1.576 1.576 0 0 1 .671-1.621 1.58 1.58 0 0 1 2.457 1.31ZM155.171 59.462a1.583 1.583 0 0 1-.975 1.459 1.578 1.578 0 1 1 .975-1.459ZM165.116 59.462a1.577 1.577 0 0 1-.976 1.46 1.577 1.577 0 0 1-2.061-2.066 1.572 1.572 0 0 1 1.46-.973 1.572 1.572 0 0 1 1.457.975c.08.192.12.397.12.604ZM175.063 59.462a1.575 1.575 0 0 1-.974 1.459 1.581 1.581 0 0 1-2.153-1.15 1.583 1.583 0 0 1 .671-1.622 1.58 1.58 0 0 1 2.456 1.313ZM185.009 59.462a1.583 1.583 0 0 1-.975 1.459 1.579 1.579 0 1 1 .975-1.459ZM194.956 59.462a1.576 1.576 0 0 1-.975 1.459 1.581 1.581 0 0 1-2.153-1.15 1.575 1.575 0 0 1 .671-1.622 1.58 1.58 0 0 1 2.457 1.313ZM204.9 59.462a1.583 1.583 0 0 1-.975 1.459 1.578 1.578 0 1 1 .975-1.459ZM155.171 69.15a1.583 1.583 0 0 1-.975 1.46 1.577 1.577 0 0 1-2.153-1.151 1.575 1.575 0 0 1 .671-1.621 1.58 1.58 0 0 1 2.457 1.313ZM165.116 69.15a1.577 1.577 0 0 1-.976 1.46 1.577 1.577 0 0 1-2.061-2.065 1.572 1.572 0 0 1 1.46-.973 1.572 1.572 0 0 1 1.457.975c.08.191.12.397.12.604ZM175.063 69.15a1.575 1.575 0 0 1-.974 1.46 1.58 1.58 0 0 1-2.064-2.063 1.581 1.581 0 0 1 2.576-.513c.296.296.462.698.462 1.117ZM185.009 69.15a1.583 1.583 0 0 1-.975 1.46 1.578 1.578 0 1 1 .975-1.46ZM194.956 69.15a1.576 1.576 0 0 1-.975 1.46 1.58 1.58 0 0 1-2.153-1.151 1.575 1.575 0 0 1 .671-1.621 1.579 1.579 0 0 1 2.457 1.313ZM204.9 69.15a1.583 1.583 0 0 1-.975 1.46 1.577 1.577 0 0 1-2.153-1.151 1.575 1.575 0 0 1 .671-1.621 1.58 1.58 0 0 1 2.457 1.313ZM155.171 78.843a1.583 1.583 0 0 1-.975 1.459 1.577 1.577 0 0 1-2.153-1.15 1.575 1.575 0 0 1 .671-1.622 1.58 1.58 0 0 1 2.457 1.313ZM165.116 78.843a1.577 1.577 0 0 1-.976 1.46 1.577 1.577 0 0 1-2.061-2.066 1.572 1.572 0 0 1 1.46-.973 1.572 1.572 0 0 1 1.457.975c.08.192.12.397.12.604ZM175.063 78.843a1.575 1.575 0 0 1-.974 1.459 1.58 1.58 0 0 1-2.064-2.063 1.581 1.581 0 0 1 2.919 0c.079.191.12.397.119.604ZM185.009 78.843a1.583 1.583 0 0 1-.975 1.459 1.578 1.578 0 1 1-.604-3.038 1.573 1.573 0 0 1 1.459.974c.08.192.12.398.12.605ZM194.956 78.843a1.576 1.576 0 0 1-.975 1.459 1.58 1.58 0 0 1-2.153-1.15 1.575 1.575 0 0 1 .671-1.622 1.58 1.58 0 0 1 2.457 1.313ZM204.9 78.843a1.583 1.583 0 0 1-.975 1.459 1.577 1.577 0 0 1-2.153-1.15 1.575 1.575 0 0 1 .671-1.622 1.58 1.58 0 0 1 2.457 1.313ZM155.171 88.53a1.585 1.585 0 0 1-.973 1.46 1.58 1.58 0 1 1 .973-1.46ZM165.116 88.53a1.582 1.582 0 0 1-2.696 1.12 1.58 1.58 0 1 1 2.696-1.12ZM175.063 88.53a1.576 1.576 0 0 1-1.885 1.552 1.576 1.576 0 0 1-1.242-1.24 1.584 1.584 0 0 1 .671-1.622 1.578 1.578 0 0 1 2.456 1.31ZM185.009 88.53a1.585 1.585 0 0 1-.973 1.46 1.58 1.58 0 1 1 .973-1.46ZM194.956 88.53a1.585 1.585 0 0 1-.973 1.46 1.58 1.58 0 1 1 .973-1.46ZM204.9 88.53a1.585 1.585 0 0 1-.973 1.46 1.58 1.58 0 1 1 .973-1.46ZM155.171 98.22a1.585 1.585 0 0 1-.973 1.46 1.581 1.581 0 0 1-2.155-1.15 1.576 1.576 0 0 1 .671-1.621 1.58 1.58 0 0 1 2.457 1.31ZM165.116 98.22a1.586 1.586 0 0 1-.974 1.46 1.58 1.58 0 1 1 .974-1.46ZM175.063 98.22a1.576 1.576 0 0 1-1.885 1.55 1.576 1.576 0 0 1-1.242-1.24 1.584 1.584 0 0 1 .671-1.621 1.58 1.58 0 0 1 2.456 1.31ZM185.009 98.22a1.585 1.585 0 0 1-.973 1.46 1.581 1.581 0 0 1-2.155-1.15 1.576 1.576 0 0 1 .671-1.621 1.58 1.58 0 0 1 2.457 1.31ZM194.956 98.22a1.585 1.585 0 0 1-.973 1.46 1.581 1.581 0 0 1-2.066-2.062 1.582 1.582 0 0 1 2.575-.514c.296.296.463.697.464 1.115ZM204.9 98.22a1.585 1.585 0 0 1-.973 1.46 1.581 1.581 0 0 1-2.155-1.15 1.576 1.576 0 0 1 .671-1.621 1.58 1.58 0 0 1 2.457 1.31Z" fill="#fff"/><path d="M91.852 98.684c7.195 27.967 27.881 33.014 27.881 33.014l11.341-11.649-17.435-1.611-19.705-22.806-3.052-3.126s-.832-3.949-.832-3.954c-.084-.405-.967-.718-1.301-.704-1.631.065-2.11 1.647-2.175 3.027-.026.74.013 1.482.114 2.216.068.568 0 1.753.492 2.114l4.672 3.479Z" fill="#EFD1D8"/><path d="M90.708 92.327s-.226-4.11 1.65-3.351c0 0 1.592.448 0 5.164" fill="#EFD1D8"/><path d="M90.708 92.327s-.226-4.11 1.65-3.351c0 0 1.592.448 0 5.164" stroke="#000" stroke-width=".272" stroke-miterlimit="10"/><path d="m207.678 153.153 5.05 2.922c.521.302.597 1.487.733 2.044.185.717.308 1.449.367 2.188.09 1.378-.206 2.989-1.815 3.261-.332.052-1.242-.155-1.376-.543l-1.28-3.83-3.394-2.761-22.98-16.142-13.228-7.009 6.414-9.709s12.464 9.752 31.498 29.579" fill="#EFD1D8"/><path d="M209.55 159.339s.696 4.058-1.255 3.534c0 0-1.631-.272-.585-5.129" fill="#EFD1D8"/><path d="M209.55 159.339s.696 4.058-1.255 3.534c0 0-1.631-.272-.585-5.129" stroke="#000" stroke-width=".272" stroke-miterlimit="10"/><path d="M169.726 125.29c.42-2.671-6.125-5.919-14.619-7.255-8.493-1.336-15.719-.255-16.139 2.416-.42 2.671 6.124 5.919 14.618 7.255 8.494 1.336 15.72.254 16.14-2.416ZM248.949 143.852a9.535 9.535 0 0 0-2.145-1.117l2.854 1.631-.709-.519" fill="#E9D1D7"/><g clip-path="url(#e)"><path opacity=".41" d="M79.134 243.561v3.688h161.688l47.468-30.619v-3.343l-49.601 30.274H79.134Z" fill="#79A4E2"/></g><path d="m79.594 243.477 77.083-30.112 131.304.006-49.319 30.106H79.594Z" fill="#EBF4FD"/><path d="m287.674 213.458-49.039 29.932H80.051l76.628-29.932h130.995Zm.617-.171h-131.65l-77.5 30.277h159.54l49.61-30.277Z" fill="#000"/><path d="m153.872 220.576-31.118 12.823h116.634l20.642-12.823H153.872Z" fill="#58C1CC"/><path d="m322.874 167.485-34.583 45.802H156.642l47.003-45.802h119.229Z" fill="#ECF3FB"/><path d="m322.874 167.485-34.583 45.802H156.642l47.003-45.802h119.229Z" stroke="#000" stroke-width=".272" stroke-miterlimit="10"/><path d="m313.822 170.743-29.658 39.282H166.153l40.312-39.282h107.357Z" fill="#58C1CC" stroke="#221715" stroke-width=".272" stroke-miterlimit="10"/><path d="m228.543 173.401 32.009 34.309h-21.819l-29.987-34.309h19.797Z" fill="#ECF3FB"/><path opacity=".41" d="M322.873 167.485v3.258l-34.583 45.889v-3.345l34.583-45.802Z" fill="#79A4E2"/><path d="M292.767 133.177h-67.132a59.763 59.763 0 0 0 5.749-1.973c3.006-1.191 5.563-4.374 11.958-2.058 3.433.598 3.784-2.405 5.656-3.859 2.319-1.802 4.349-.688 6.213.856 1.865 1.544 4.077 3.346 6.026 2.829 1.949-.516 3.952-6.507 6.768-8.154 2.503-1.456 5.471-.943 8.808 2.403 3.338 3.346 5.841 7.977 15.946 9.95" fill="#3458DD"/><path d="M239.858 173.401h-5.819l30.136 34.309h7.091l-31.408-34.309Z" fill="#ECF3FB"/><path d="m235.667 219.736.965-1.22M236.547 220.005l.965-1.22" stroke="#fff" stroke-width=".098" stroke-miterlimit="10" stroke-linecap="round"/><path d="M149.339 165.082H82.207a60.036 60.036 0 0 0 5.748-1.97c3.006-1.193 5.564-4.376 11.96-2.06 3.432.6 3.782-2.403 5.655-3.86 2.318-1.802 4.349-.687 6.213.859 1.865 1.546 4.077 3.343 6.026 2.829 1.949-.513 3.952-6.506 6.767-8.153 2.504-1.46 5.471-.943 8.809 2.4 3.338 3.343 5.841 7.979 15.946 9.95" fill="#CBE3F7"/><path d="M247.878 156.249c0 2.014-1.767 3.648-3.947 3.648-2.179 0-3.943-1.631-3.943-3.648 0-2.017 1.766-3.65 3.943-3.65s3.947 1.631 3.947 3.65Z" fill="#EA706A"/><path d="M156.524 113.127c-2.343 1.027-4.077.171-4.726-1.408-.606-1.465.244-3.555 2.28-3.427a5.33 5.33 0 0 1 2.316.761c.321.406.594.847.815 1.315.435.954.647 2.174-.674 2.759" fill="#EFD1D8"/><path d="M157.25 115.437c4.387 1.946 7.505-.446 8.168-4.169.293-1.647.454-3.46-.215-5.036a5.523 5.523 0 0 0-3.229-3.183c-3.204-1.123-6.865.745-8.154 4.167l-.013.032a6.456 6.456 0 0 0 3.457 8.189" fill="#EFD1D8"/><path d="M155.744 111.162a2.444 2.444 0 0 0-2.571-1.498c-.302.038-.272.492.016.454a1.96 1.96 0 0 1 2.098 1.177c.109.272.566.141.457-.133ZM155.538 109.322c.15.132.343.205.543.206.544-.062 1.06-.655 1.446-.965.757-.633 1.59-1.17 2.479-1.598 1.182-.543 6.95-.087 7.322-2.025.544-2.832-3.805-1.358-5.346-1.902-3.204-1.123-8.099.313-8.58 5.265-.028.1.801.372.886.405.316.109.625.237.926.383.115.066.226.14.332.22" fill="#000"/><path d="M154.349 105.663c1.541-.524 1.465-.714 3.212-.793.625-3.534-4.62-9.437-11.687-7.545-3.204.856-4.348 3.965-4.473 4.177-2.868-1.405-6.833-1.902-9.491-.761-3.884 1.664-3.338 5.841-.084 8.227 3.557 2.607 9.159 3.245 13.633 2.351 7.096-1.416 6.547-7.629 7.183-7.61.815.019 1.43 1.31 1.71 1.96" fill="#000"/><path d="m155.502 118.051 3.927 1.09 1.558-5.134-3.925-1.092-1.56 5.136Z" fill="#EFD1D8"/><path d="M159.805 104.508a15.43 15.43 0 0 0-1.4-2.5c-2.03-3.006-6.343-7.417-13.402-5.471" stroke="#000" stroke-width=".272" stroke-miterlimit="10"/><path d="M162.346 109.928a.434.434 0 0 1-.581-.101.389.389 0 0 1-.056-.448.417.417 0 0 1 .102-.123.442.442 0 0 1 .315-.066.445.445 0 0 1 .275.167.404.404 0 0 1 .098.296.397.397 0 0 1-.147.275M163.971 112.651c.314-.84.497-1.722.544-2.617 0-.272-.403-.335-.416-.074a8.482 8.482 0 0 1-.508 2.52c-.087.239.307.41.394.171" fill="#010344"/><path d="M42 244h332" stroke="#000" stroke-width=".272" stroke-miterlimit="10"/><path d="m159.381 120.392-4.639-1.487.736-2.411 4.64 1.484-.737 2.414Z" fill="#58C1CC"/><path d="M97.248 96.96 90.7 101.21s10.168 41.76 41.247 35.332l2.558 20.73 36.063-1.03 2.917-15.025s22.33 9.801 29.839 17.3l6.646-5.925s-13.092-19.414-34.906-29.718c0 0-24.026-9.303-42.264-4.435 0 .005-19.373 4.503-35.552-21.477Z" fill="#58BFCA"/><path d="m131.073 130.162 3.43 27.117M174.951 133.568l-4.384 22.681" stroke="#000" stroke-width=".272" stroke-miterlimit="10"/><path d="M108.425 125.172s3.197 5.067 10.478 4.246M164.898 122.873s8.572 1.962 11.206 5.346" stroke="#fff" stroke-width=".272" stroke-miterlimit="10"/><path d="m206.444 207.323 12.521 11.867 3.248-2.903-8.955-16.449" fill="#EFD1D8"/><path d="m216.631 218.339 3.495 4.667 14.723-10.6s-4.62-2.392-11.114 2.484l-1.467-1.109-5.637 4.558Z" fill="#000"/><path d="m106.138 199.319-16.172 6.012 1.174 4.194 18.713-1.802" fill="#EFD1D8"/><path d="m91.757 203.611-5.73 1.087 3.02 17.881s4.19-3.101 2.666-11.073l1.63-.815-1.586-7.08Z" fill="#000"/><path d="M107.083 136.104s6.865 5.794 13.16 4.601" stroke="#000" stroke-width=".272" stroke-miterlimit="10"/><path d="M170.568 156.249c9.477 15.065 31.963 26.538 50.599 52.999l-8.105 6.306c-8.697-9.649-8.816-9.646-19.359-15.221a205.9 205.9 0 0 0-3.745-1.921c-16.669-8.38-42.731-22.235-52.597-41.155l33.207-1.008Z" fill="#3458DD"/><path d="m94.303 200.738.867 5.164.1.625 1.006 5.98s40.59-10.372 54.073-24.796c10.872-11.64 11.013-31.076 11.013-31.076l-26.845.644c-3.201 10.206-2.427 11.176-3.43 20.784-.717 6.873-7.036 10.409-9.977 12.616-6.795 5.096-26.793 10.056-26.793 10.056" fill="#0A42BF"/><path d="M150.349 187.711s-9.35-1.614-12.201 8.915M191.39 177.571s-1.463 9.681 11.023 10.056" stroke="#fff" stroke-width=".272" stroke-miterlimit="10"/><path d="M161.349 156.635s1.175 12.396-7.928 27.179M97.24 199.966l2.07 11.714M211.016 213.287l8.548-6.268" stroke="#000" stroke-width=".272" stroke-miterlimit="10"/><defs><clipPath id="a"><path fill="#fff" transform="translate(25 184)" d="M0 0h58v60H0z"/></clipPath><clipPath id="c"><path fill="#fff" transform="translate(297 196)" d="M0 0h55v48H0z"/></clipPath><clipPath id="e"><path fill="#fff" transform="translate(79 213)" d="M0 0h209v31H0z"/></clipPath></defs></svg>