<svg viewBox="0 0 400 300" fill="none" xmlns="http://www.w3.org/2000/svg"><path d="M70.938 162.206c8.86-5.641 24.8-17.051 19.66-30.944-15.215-41.13.372-69.538 27.723-72.633 56.985-6.45 46.525 79.411 130.064 54.16 58.403-17.663 99.14 32.221 58.624 66.038-29.176 24.337-59.051 60.08-59.051 60.08l-112.827-.406c-22.979-32.759-62.784-28.659-79.75-38.326-21.199-12.086 7.007-32.521 15.565-37.967" fill="#ECF4FD"/><g clip-path="url(#a)"><path fill-rule="evenodd" clip-rule="evenodd" d="M104.213 223.175c-6.27 3.794 2.269 15.782 2.269 15.782l-7.268 5.38c-2.829-1.339-4.413-2.951-5.276-4.484L88.83 245.6c-3.538-.156-7.26-1.327-8.97-4.672-.54-1.057-.585-2.436-.629-3.794-.057-1.773-.114-3.51-1.27-4.448-.94-.76-2.3-1.084-3.464-1.287-.604-.109-4.082-.71-4.543-.109 2.345-3.06-1.802-1.118-1.802-1.118-1.384-.469-1.975-3.157-2.427-5.216-.18-.818-.338-1.536-.515-1.976-.39-.974-3.98-7.551-5.12-7.136 4.933-1.8 10.23-.557 14.452 2.406 1.79 1.266 2.957 3.002 3.957 4.925.113.209.32.719.573 1.345.64 1.582 1.581 3.904 2.065 3.966.715.092 7.645 4.016 11.956 6.488.073-.399.156-.628.156-.628.527-1.483-1.32-3.913-1.32-3.913-5.318-4.825-.833-9.429-.833-9.429 1.936-1.979.812-5.488-.633-7.34-.544-.696-1.415-1.221-2.295-1.75-1.46-.878-2.943-1.771-3-3.489-.033-.96.481-1.785 1-2.616.273-.438.548-.878.744-1.341.915-2.172-.14-4.522-1.765-6.034a20.111 20.111 0 0 0-1.073-.908c-1.033-.834-2.07-1.671-2.45-2.912-.514-1.683.473-3.559 1.95-4.512 1.478-.952 3.32-1.15 5.076-1.079 3.134.13 6.33 1.095 8.675 3.185 3.356 2.991 4.503 7.827 4.305 12.312-.15 3.359-.253 5.757 2.224 8.226.287.285.588.565.89.845 1.543 1.428 3.108 2.879 2.804 5.223-.238 1.839-1.807 3.438-3.335 4.361Z" fill="#CDE5F9"/><mask id="b" style="mask-type:alpha" maskUnits="userSpaceOnUse" x="60" y="189" width="48" height="57"><path fill-rule="evenodd" clip-rule="evenodd" d="M104.213 223.175c-6.27 3.794 2.269 15.782 2.269 15.782l-7.268 5.38c-2.829-1.339-4.413-2.951-5.276-4.484L88.83 245.6c-3.538-.156-7.26-1.327-8.97-4.672-.54-1.057-.585-2.436-.629-3.794-.057-1.773-.114-3.51-1.27-4.448-.94-.76-2.3-1.084-3.464-1.287-.604-.109-4.082-.71-4.543-.109 2.345-3.06-1.802-1.118-1.802-1.118-1.384-.469-1.975-3.157-2.427-5.216-.18-.818-.338-1.536-.515-1.976-.39-.974-3.98-7.551-5.12-7.136 4.933-1.8 10.23-.557 14.452 2.406 1.79 1.266 2.957 3.002 3.957 4.925.113.209.32.719.573 1.345.64 1.582 1.581 3.904 2.065 3.966.715.092 7.645 4.016 11.956 6.488.073-.399.156-.628.156-.628.527-1.483-1.32-3.913-1.32-3.913-5.318-4.825-.833-9.429-.833-9.429 1.936-1.979.812-5.488-.633-7.34-.544-.696-1.415-1.221-2.295-1.75-1.46-.878-2.943-1.771-3-3.489-.033-.96.481-1.785 1-2.616.273-.438.548-.878.744-1.341.915-2.172-.14-4.522-1.765-6.034a20.111 20.111 0 0 0-1.073-.908c-1.033-.834-2.07-1.671-2.45-2.912-.514-1.683.473-3.559 1.95-4.512 1.478-.952 3.32-1.15 5.076-1.079 3.134.13 6.33 1.095 8.675 3.185 3.356 2.991 4.503 7.827 4.305 12.312-.15 3.359-.253 5.757 2.224 8.226.287.285.588.565.89.845 1.543 1.428 3.108 2.879 2.804 5.223-.238 1.839-1.807 3.438-3.335 4.361Z" fill="#CDE5F9"/></mask><g mask="url(#b)" stroke="#fff" stroke-width=".198" stroke-miterlimit="10"><path d="M80.842 186.96c.686 2.665 2.472 4.356 4.633 5.907 1.358.979 3.041 1.847 4.044 3.224 1.443 2 .464 3.852.675 6.131.119 1.272.575 2.557 1.501 3.43 3.747 3.543 5.852 6.387 5.277 11.83-.791 7.672-1.264 16.452 6.01 21.47M60.1 215.844a18.61 18.61 0 0 1 11.924 8.178c1.203 1.905 1.583 4.266 3.462 5.643 1.878 1.377 4.456 1.676 6.624 2.533 3.987 1.583 6.699 5.577 8.068 9.498"/></g></g><g clip-path="url(#c)"><path fill-rule="evenodd" clip-rule="evenodd" d="M277.411 224.104c5.728 5.522-10.658 15.251-10.658 15.251l10.88 8.34c9.556-2.124 8.706-9.139 8.706-9.139-.211-1.702 2.34-3.828 2.34-3.828 6.802-3.826 3.148-9.777 3.148-9.777-1.573-2.562.464-6.002 2.435-7.617.741-.608 1.789-.953 2.847-1.301 1.754-.578 3.538-1.166 4.012-2.976.262-.999-.081-1.989-.428-2.99-.185-.531-.37-1.065-.466-1.605-.451-2.517 1.232-4.752 3.313-5.963.432-.251.891-.476 1.35-.702 1.297-.637 2.598-1.276 3.299-2.498.95-1.654.356-3.868-.979-5.242-1.335-1.375-3.237-2.026-5.115-2.374-3.351-.618-6.963-.362-9.946 1.287-4.272 2.359-6.646 7.197-7.519 11.999-.639 3.596-1.116 6.16-4.332 8.178-.375.235-.764.461-1.154.686-1.973 1.142-3.973 2.3-4.215 4.854-.19 2.003 1.089 4.071 2.482 5.417Zm32.759-.201c-7.484.852-22.469 18.133-22.469 18.133l10.442 7.574c4.202-.812 14.302-6.727 15.753-11.033.46-1.363.269-3.023.081-4.658-.246-2.132-.486-4.22.731-5.549.992-1.079 2.565-1.705 3.921-2.153.704-.235 4.762-1.572 5.419-.934-3.351-3.242 1.96-1.659 1.96-1.659 1.575-.807 1.805-4.132 1.981-6.677.069-1.01.131-1.896.264-2.454.298-1.235 3.43-9.749 4.867-9.453-6.236-1.277-12.373 1.15-16.884 5.445-1.923 1.831-3.01 4.116-3.868 6.596-.087.254-.227.854-.4 1.599-.474 2.037-1.199 5.156-1.798 5.223Z" fill="#CDE5F9"/><mask id="d" style="mask-type:alpha" maskUnits="userSpaceOnUse" x="266" y="191" width="68" height="59"><path fill-rule="evenodd" clip-rule="evenodd" d="M277.411 224.104c5.728 5.522-10.658 15.251-10.658 15.251l10.88 8.34c9.556-2.124 8.706-9.139 8.706-9.139-.211-1.702 2.34-3.828 2.34-3.828 6.802-3.826 3.148-9.777 3.148-9.777-1.573-2.562.464-6.002 2.435-7.617.741-.608 1.789-.953 2.847-1.301 1.754-.578 3.538-1.166 4.012-2.976.262-.999-.081-1.989-.428-2.99-.185-.531-.37-1.065-.466-1.605-.451-2.517 1.232-4.752 3.313-5.963.432-.251.891-.476 1.35-.702 1.297-.637 2.598-1.276 3.299-2.498.95-1.654.356-3.868-.979-5.242-1.335-1.375-3.237-2.026-5.115-2.374-3.351-.618-6.963-.362-9.946 1.287-4.272 2.359-6.646 7.197-7.519 11.999-.639 3.596-1.116 6.16-4.332 8.178-.375.235-.764.461-1.154.686-1.973 1.142-3.973 2.3-4.215 4.854-.19 2.003 1.089 4.071 2.482 5.417Zm32.759-.201c-7.484.852-22.469 18.133-22.469 18.133l10.442 7.574c4.202-.812 14.302-6.727 15.753-11.033.46-1.363.269-3.023.081-4.658-.246-2.132-.486-4.22.731-5.549.992-1.079 2.565-1.705 3.921-2.153.704-.235 4.762-1.572 5.419-.934-3.351-3.242 1.96-1.659 1.96-1.659 1.575-.807 1.805-4.132 1.981-6.677.069-1.01.131-1.896.264-2.454.298-1.235 3.43-9.749 4.867-9.453-6.236-1.277-12.373 1.15-16.884 5.445-1.923 1.831-3.01 4.116-3.868 6.596-.087.254-.227.854-.4 1.599-.474 2.037-1.199 5.156-1.798 5.223Z" fill="#CDE5F9"/></mask><g mask="url(#d)" stroke="#fff" stroke-width=".198" stroke-miterlimit="10"><path d="M310.853 191.384c-1.364 2.654-3.662 4.018-6.332 5.142-1.675.707-3.661 1.211-5.054 2.438-2.013 1.773-1.42 3.957-2.19 6.332-.43 1.319-1.224 2.567-2.417 3.274-4.815 2.852-7.727 5.355-8.442 11.252-1.003 8.315-5.105 20.314-14.012 23.889M333.109 205.04a22.507 22.507 0 0 0-12.824 11.896c-1.103 2.493-1.137 5.387-3.142 7.371-2.05 2.026-5.039 2.796-7.482 4.203-4.485 2.59-10.914 11.006-11.856 15.961"/></g></g><path d="M30 238.896h293.709" stroke="#000" stroke-width=".264" stroke-miterlimit="10"/><path d="M273.212 89.528a1.738 1.738 0 0 1-2.095 1.681 1.74 1.74 0 0 1 .354-3.446 1.756 1.756 0 0 1 1.741 1.765ZM284.178 89.528a1.74 1.74 0 0 1-3.446.303 1.737 1.737 0 0 1 1.707-2.068 1.747 1.747 0 0 1 1.61 1.093c.087.214.13.442.129.672ZM295.144 89.528a1.738 1.738 0 1 1-1.069-1.627 1.76 1.76 0 0 1 .941.956c.087.213.13.44.128.67ZM306.112 89.528a1.74 1.74 0 1 1-1.739-1.765 1.756 1.756 0 0 1 1.235.522 1.75 1.75 0 0 1 .504 1.243ZM317.079 89.528a1.746 1.746 0 0 1-1.092 1.592 1.74 1.74 0 0 1-2.255-2.29 1.744 1.744 0 0 1 1.608-1.067 1.756 1.756 0 0 1 1.611 1.093c.086.214.13.442.128.672ZM328.046 89.528a1.738 1.738 0 0 1-1.092 1.592 1.74 1.74 0 0 1-2.254-2.29 1.735 1.735 0 0 1 2.843-.545 1.75 1.75 0 0 1 .503 1.243ZM273.212 100.366c-.004.343-.11.677-.305.96a1.74 1.74 0 1 1-1.436-2.725 1.756 1.756 0 0 1 1.741 1.765ZM284.178 100.366a1.745 1.745 0 0 1-1.092 1.587 1.742 1.742 0 0 1-1.885-.394 1.736 1.736 0 0 1 .275-2.667c.285-.19.62-.291.963-.291a1.749 1.749 0 0 1 1.61 1.093c.087.213.13.442.129.672ZM295.144 100.366a1.734 1.734 0 0 1-1.087 1.588 1.743 1.743 0 0 1-1.886-.388 1.744 1.744 0 0 1-.371-1.89 1.734 1.734 0 0 1 1.598-1.073 1.753 1.753 0 0 1 1.739 1.765M306.112 100.366a1.737 1.737 0 0 1-2.977 1.193 1.736 1.736 0 0 1 .275-2.667c.285-.19.62-.291.963-.291a1.758 1.758 0 0 1 1.235.522 1.75 1.75 0 0 1 .504 1.243ZM317.079 100.366a1.749 1.749 0 0 1-1.092 1.592 1.748 1.748 0 0 1-1.89-.394 1.741 1.741 0 0 1 1.913-2.825 1.745 1.745 0 0 1 .941.955c.086.213.13.442.128.672ZM328.046 100.366a1.74 1.74 0 1 1-1.069-1.627 1.76 1.76 0 0 1 .941.955c.086.213.13.442.128.672ZM273.212 111.203a1.738 1.738 0 0 1-2.98 1.199 1.737 1.737 0 0 1-.367-1.894 1.74 1.74 0 0 1 1.606-1.07 1.758 1.758 0 0 1 1.741 1.765ZM284.178 111.203a1.746 1.746 0 0 1-1.092 1.588 1.742 1.742 0 0 1-1.885-.394 1.736 1.736 0 0 1 .275-2.667c.285-.19.62-.292.963-.292a1.746 1.746 0 0 1 1.235.523 1.753 1.753 0 0 1 .504 1.242ZM295.144 111.203a1.737 1.737 0 0 1-3.445.304 1.74 1.74 0 0 1 1.707-2.069 1.75 1.75 0 0 1 1.61 1.094c.087.213.13.441.128.671ZM306.112 111.203a1.738 1.738 0 1 1-1.739-1.765 1.754 1.754 0 0 1 1.739 1.765ZM317.079 111.203a1.743 1.743 0 0 1-2.982 1.199 1.745 1.745 0 0 1-.365-1.896 1.742 1.742 0 0 1 1.608-1.068 1.754 1.754 0 0 1 1.739 1.765ZM328.046 111.203a1.735 1.735 0 0 1-1.092 1.592 1.74 1.74 0 1 1 .023-3.218 1.747 1.747 0 0 1 1.069 1.626ZM273.212 122.041a1.738 1.738 0 0 1-2.98 1.199 1.736 1.736 0 0 1-.367-1.894 1.734 1.734 0 0 1 2.842-.548c.326.331.508.778.505 1.243ZM284.178 122.041a1.737 1.737 0 0 1-2.094 1.676 1.739 1.739 0 0 1 .355-3.441 1.746 1.746 0 0 1 1.235.523 1.743 1.743 0 0 1 .504 1.242ZM295.144 122.041a1.74 1.74 0 0 1-2.977 1.194 1.74 1.74 0 0 1 1.239-2.959 1.75 1.75 0 0 1 1.61 1.094c.087.213.13.441.128.671ZM306.112 122.041a1.74 1.74 0 0 1-2.094 1.676 1.739 1.739 0 0 1 .355-3.441 1.754 1.754 0 0 1 1.739 1.765ZM317.079 122.041a1.743 1.743 0 0 1-2.096 1.681 1.742 1.742 0 0 1 .357-3.446 1.754 1.754 0 0 1 1.739 1.765ZM328.046 122.041a1.735 1.735 0 0 1-1.092 1.592 1.74 1.74 0 1 1 .023-3.218 1.747 1.747 0 0 1 1.069 1.626ZM273.212 132.879a1.738 1.738 0 0 1-2.98 1.199 1.74 1.74 0 1 1 2.475-2.442c.326.331.508.778.505 1.243ZM284.178 132.879a1.737 1.737 0 0 1-2.094 1.676 1.739 1.739 0 0 1 .355-3.441 1.763 1.763 0 0 1 1.235.522 1.747 1.747 0 0 1 .504 1.243ZM295.144 132.879a1.74 1.74 0 0 1-2.977 1.194 1.74 1.74 0 0 1 1.239-2.959 1.767 1.767 0 0 1 1.235.522 1.747 1.747 0 0 1 .503 1.243ZM306.112 132.879a1.74 1.74 0 0 1-2.094 1.676 1.739 1.739 0 0 1 .355-3.441c.23.002.458.049.67.138a1.747 1.747 0 0 1 1.069 1.627ZM317.079 132.879a1.743 1.743 0 0 1-2.096 1.681 1.742 1.742 0 0 1 .357-3.446c.23.002.458.049.67.138a1.764 1.764 0 0 1 .941.956c.086.213.13.441.128.671ZM328.046 132.879a1.735 1.735 0 0 1-1.092 1.592 1.74 1.74 0 1 1 .023-3.219 1.747 1.747 0 0 1 1.069 1.627ZM273.212 143.717a1.75 1.75 0 0 1-.303.962 1.742 1.742 0 1 1-1.438-2.724 1.754 1.754 0 0 1 1.741 1.762ZM284.178 143.717a1.737 1.737 0 0 1-2.092 1.678 1.745 1.745 0 0 1-1.354-1.371 1.74 1.74 0 0 1 1.707-2.069 1.752 1.752 0 0 1 1.739 1.762ZM295.145 143.717a1.737 1.737 0 0 1-2.093 1.678 1.737 1.737 0 0 1-.609-3.149c.285-.19.62-.291.963-.291a1.752 1.752 0 0 1 1.739 1.762ZM306.112 143.717a1.737 1.737 0 0 1-2.092 1.678 1.745 1.745 0 0 1-1.354-1.371 1.74 1.74 0 0 1 1.707-2.069 1.752 1.752 0 0 1 1.739 1.762ZM317.079 143.717a1.74 1.74 0 1 1-1.739-1.762 1.75 1.75 0 0 1 1.739 1.762ZM328.046 143.717a1.74 1.74 0 1 1-1.739-1.762 1.752 1.752 0 0 1 1.739 1.762ZM145.414 246.22a1.734 1.734 0 0 1-1.091 1.592 1.74 1.74 0 1 1-.65-3.357 1.756 1.756 0 0 1 1.741 1.765ZM157.975 254.401a1.597 1.597 0 0 1-1.911 1.568 1.602 1.602 0 0 1-1.256-1.257 1.605 1.605 0 0 1 .682-1.641 1.605 1.605 0 0 1 2.019.2 1.595 1.595 0 0 1 .466 1.13Z" fill="#fff"/><path d="m204.605 65.66 13.152 2.9" stroke="#000" stroke-width=".528" stroke-linecap="round" stroke-linejoin="round"/><path d="m206.503 238.923-60.798-13.402c-6.422-1.414-10.535-7.915-9.139-14.416L167.75 65.546c1.396-6.514 7.791-10.685 14.212-9.27l60.801 13.402c6.418 1.416 10.531 7.914 9.136 14.415l-31.184 145.559c-1.396 6.514-7.783 10.685-14.212 9.271Z" stroke="#000" stroke-width=".264" stroke-miterlimit="10"/><path d="m235.548 72.39-4.029-.89c-1.055 3.12-4.2 5.048-7.363 4.349l-28.493-6.28c-3.166-.696-5.248-3.777-4.918-7.054l-4.031-.89c-7.651-1.685-15.302 3.454-17.019 11.422l-28.258 131.982c-1.707 7.968 3.165 15.867 10.816 17.555l48.808 10.762c7.65 1.688 15.301-3.451 17.019-11.421l28.279-131.98c1.707-7.968-3.166-15.87-10.817-17.555" fill="#CDE5F9"/><mask id="e" style="mask-type:alpha" maskUnits="userSpaceOnUse" x="141" y="61" width="106" height="173"><path d="m235.548 72.39-4.029-.89c-1.055 3.12-4.2 5.048-7.363 4.349l-28.493-6.28c-3.166-.696-5.248-3.777-4.918-7.054l-4.031-.89c-7.651-1.685-15.302 3.454-17.019 11.422l-28.258 131.982c-1.707 7.968 3.165 15.867 10.816 17.555l48.808 10.762c7.65 1.688 15.301-3.451 17.019-11.421l28.279-131.98c1.707-7.968-3.166-15.87-10.817-17.555" fill="#CDE5F9"/></mask><g mask="url(#e)"><path d="M234.433 138.285a69.702 69.702 0 0 0-17.243-8.205c-9.861-3.162-22.773-4.815-35.432.846a46.416 46.416 0 0 0-12.913 8.726l-4.473 3.162-24.579-5.915-1.627 4.405s13.872 11.039 22.448 13.339c2.177.586 4.604 1.272 6.94.96 4.346-.576 7.375-.592 10.999-2.814 1.246-.765 6.182-5.531 7.6-7.659l3.42 13.063 25.828-1.669 1.389-11.107c1.002.042 2.528 1.109 3.459 1.522 1.119.495 2.235.999 3.367 1.471 2.723 1.138 5.531 2.339 8.416 3.048.576.15 4.23 1.067 4.506.547l2.603-7.483.719-3.1-5.427-3.137Z" fill="#58C1CC"/><mask id="f" style="mask-type:alpha" maskUnits="userSpaceOnUse" x="138" y="127" width="102" height="32"><path d="M234.433 138.285a69.702 69.702 0 0 0-17.243-8.205c-9.861-3.162-22.773-4.815-35.432.846a46.416 46.416 0 0 0-12.913 8.726l-4.473 3.162-24.579-5.915-1.627 4.405s13.872 11.039 22.448 13.339c2.177.586 4.604 1.272 6.94.96 4.346-.576 7.375-.592 10.999-2.814 1.246-.765 6.182-5.531 7.6-7.659l3.42 13.063 25.828-1.669 1.389-11.107c1.002.042 2.528 1.109 3.459 1.522 1.119.495 2.235.999 3.367 1.471 2.723 1.138 5.531 2.339 8.416 3.048.576.15 4.23 1.067 4.506.547l2.603-7.483.719-3.1-5.427-3.137Z" fill="#58C1CC"/></mask><g mask="url(#f)" fill="#69DDE2"><path d="M144.79 131.814a1.155 1.155 0 1 0 0-2.31 1.155 1.155 0 0 0 0 2.31ZM154.225 131.814a1.155 1.155 0 1 0 0-2.31 1.155 1.155 0 0 0 0 2.31ZM163.656 131.814a1.155 1.155 0 1 0 0-2.31 1.155 1.155 0 0 0 0 2.31ZM173.091 131.814a1.155 1.155 0 1 0 0-2.31 1.155 1.155 0 0 0 0 2.31ZM182.523 131.814a1.155 1.155 0 1 0-.001-2.311 1.155 1.155 0 0 0 .001 2.311ZM191.957 131.814a1.155 1.155 0 1 0 0-2.31 1.155 1.155 0 0 0 0 2.31ZM201.389 131.814a1.155 1.155 0 1 0 0-2.31 1.155 1.155 0 0 0 0 2.31ZM210.824 131.814a1.155 1.155 0 1 0 0-2.31 1.155 1.155 0 0 0 0 2.31ZM220.256 131.814a1.155 1.155 0 1 0-.001-2.31 1.155 1.155 0 0 0 .001 2.31ZM229.69 131.814a1.155 1.155 0 1 0 0-2.31 1.155 1.155 0 0 0 0 2.31ZM239.125 131.814a1.155 1.155 0 1 0 0-2.31 1.155 1.155 0 0 0 0 2.31ZM144.79 139.896a1.155 1.155 0 1 0 0-2.31 1.155 1.155 0 0 0 0 2.31ZM154.225 139.896a1.155 1.155 0 1 0 0-2.31 1.155 1.155 0 0 0 0 2.31ZM163.656 139.896a1.155 1.155 0 1 0 0-2.31 1.155 1.155 0 0 0 0 2.31ZM173.091 139.896a1.155 1.155 0 1 0 0-2.31 1.155 1.155 0 0 0 0 2.31ZM182.523 139.896a1.155 1.155 0 1 0-.001-2.311 1.155 1.155 0 0 0 .001 2.311ZM191.957 139.896a1.155 1.155 0 1 0 0-2.31 1.155 1.155 0 0 0 0 2.31ZM201.389 139.896a1.155 1.155 0 1 0 0-2.31 1.155 1.155 0 0 0 0 2.31ZM210.824 139.896a1.155 1.155 0 1 0 0-2.31 1.155 1.155 0 0 0 0 2.31ZM220.256 139.896a1.155 1.155 0 1 0-.001-2.31 1.155 1.155 0 0 0 .001 2.31ZM229.69 139.896a1.155 1.155 0 1 0 0-2.31 1.155 1.155 0 0 0 0 2.31ZM239.125 139.896a1.155 1.155 0 1 0 0-2.31 1.155 1.155 0 0 0 0 2.31ZM144.79 147.974a1.155 1.155 0 1 0 0-2.31 1.155 1.155 0 0 0 0 2.31ZM154.225 147.974a1.155 1.155 0 1 0 0-2.31 1.155 1.155 0 0 0 0 2.31ZM163.656 147.974a1.155 1.155 0 1 0 0-2.31 1.155 1.155 0 0 0 0 2.31ZM173.091 147.974a1.155 1.155 0 1 0 0-2.31 1.155 1.155 0 0 0 0 2.31ZM182.523 147.974a1.155 1.155 0 1 0-.001-2.311 1.155 1.155 0 0 0 .001 2.311ZM191.957 147.974a1.155 1.155 0 1 0 0-2.31 1.155 1.155 0 0 0 0 2.31ZM201.389 147.974a1.155 1.155 0 1 0 0-2.31 1.155 1.155 0 0 0 0 2.31ZM210.824 147.974a1.155 1.155 0 1 0 0-2.31 1.155 1.155 0 0 0 0 2.31ZM220.256 147.974a1.155 1.155 0 1 0-.001-2.31 1.155 1.155 0 0 0 .001 2.31ZM229.69 147.974a1.155 1.155 0 1 0 0-2.31 1.155 1.155 0 0 0 0 2.31ZM239.125 147.974a1.155 1.155 0 1 0 0-2.31 1.155 1.155 0 0 0 0 2.31ZM144.79 156.055a1.155 1.155 0 1 0 0-2.31 1.155 1.155 0 0 0 0 2.31ZM154.225 156.055a1.155 1.155 0 1 0 0-2.31 1.155 1.155 0 0 0 0 2.31ZM163.656 156.055a1.155 1.155 0 1 0 0-2.31 1.155 1.155 0 0 0 0 2.31ZM173.091 156.055a1.155 1.155 0 1 0 0-2.31 1.155 1.155 0 0 0 0 2.31ZM182.523 156.055a1.155 1.155 0 1 0-.001-2.311 1.155 1.155 0 0 0 .001 2.311ZM191.957 156.055a1.155 1.155 0 1 0 0-2.31 1.155 1.155 0 0 0 0 2.31ZM201.389 156.055a1.155 1.155 0 1 0 0-2.31 1.155 1.155 0 0 0 0 2.31ZM210.824 156.055a1.155 1.155 0 1 0 0-2.31 1.155 1.155 0 0 0 0 2.31ZM220.256 156.055a1.155 1.155 0 1 0-.001-2.31 1.155 1.155 0 0 0 .001 2.31ZM229.69 156.055a1.155 1.155 0 1 0 0-2.31 1.155 1.155 0 0 0 0 2.31ZM239.125 156.055a1.155 1.155 0 1 0 0-2.31 1.155 1.155 0 0 0 0 2.31Z"/></g><path d="m241.119 205.962-2.098 4.372-.251.531-2.414 5.075s-34.668-17.695-37.413-35.839c-2.421-15.909-.628-27.859-.628-27.859l13.963 2.226c6.354 2.976 7.704 11.513 6.152 20.349-1.112 6.322-.621 12.477 1.435 15.21 4.737 6.318 21.254 15.935 21.254 15.935Z" fill="#0A42BF"/></g><path d="M161.028 229.22c-1.763 2.583-4.929.729-5.908 3.852l11.062 3.254 1.086-6.042-6.24-1.064Z" fill="#000"/><path d="M190.162 155.74c-3.364 16.182-21.752 47.525-29.762 73.623l8.719 2.541c4.438-11.211 8.833-20.122 16.182-28.353.862-.976 1.741-1.923 2.626-2.879 11.751-12.652 25.116-24.599 27.579-44.272l-25.344-.66Z" fill="#3458DD"/><path d="M159.057 232.685a12.525 12.525 0 0 0-1.116-1.952c-.094-.137-.263.042-.169.179.414.595.774 1.225 1.077 1.884.071.162.279.042.208-.111ZM159.717 232.252c-.338-.537-.678-1.073-1.018-1.607-.088-.143-.264.03-.176.169l1.015 1.608c.101.14.267-.03.179-.17Z" fill="#fff"/><path d="M198.963 123.222c1.851 1.302 3.481.801 4.307-.514.765-1.223.377-3.253-1.396-3.448a4.514 4.514 0 0 0-2.121.325c-.342.316-.647.67-.911 1.054-.533.784-.917 1.854.121 2.583Z" fill="#EFD1D8"/><path d="M197.957 125.187c-4.1 1.058-6.393-1.591-6.344-5.042.019-1.533.182-3.189 1.018-4.503a4.946 4.946 0 0 1 3.309-2.352c2.947-.505 5.787 1.756 6.344 5.042v.033a6.004 6.004 0 0 1-4.327 6.822Z" fill="#EFD1D8"/><path d="M199.961 121.579a2.121 2.121 0 0 1 2.463-.94c.253.081.166.488-.091.407a1.705 1.705 0 0 0-2.001.725c-.137.228-.508.036-.371-.192ZM200.446 119.956a.733.733 0 0 1-.498.101c-.449-.14-.804-.758-1.087-1.1a10.346 10.346 0 0 0-1.871-1.828c-.927-.677-5.969-1.178-5.969-2.984 0-2.635 3.513-.618 4.919-.855 2.947-.505 6.923 1.565 6.506 6.096 0 .098-.754.209-.832.225a7.488 7.488 0 0 0-.863.198 3.42 3.42 0 0 0-.305.147Z" fill="#000"/><path d="M202.072 116.852c-1.239-.719-1.142-.875-2.635-1.226.046-3.27 5.531-7.76 11.319-4.939 2.602 1.279 3.097 4.259 3.159 4.47 2.703-.81 6.2-.628 8.302.82 3.068 2.111 1.907 5.784-1.301 7.414-3.494 1.786-8.423 1.471-12.132-.042-5.876-2.398-4.373-7.902-4.926-7.99-.699-.117-1.438.953-1.786 1.493Z" fill="#000"/><path d="m198.539 122.946-3.563.361.492 4.871 3.564-.36-.493-4.872Z" fill="#EFD1D8"/><path d="M197.567 114.946a14.42 14.42 0 0 1 1.627-2.027c2.248-2.385 6.695-5.671 12.45-2.801" stroke="#000" stroke-width=".325" stroke-miterlimit="10"/><path d="M195 119.419c.159-.143.183-.376.053-.52-.13-.144-.364-.146-.523-.003-.159.143-.183.376-.053.52.13.145.364.146.523.003ZM192.628 121.615a8.418 8.418 0 0 1-.023-2.44c.033-.237.404-.234.371 0a8.09 8.09 0 0 0 .02 2.346c.036.231-.332.322-.368.094Z" fill="#010344"/><path d="M140.74 137.859s-9.942-7.932-11.524-2.964c0 0-2.573 3.641 10.027 6.419l1.497-3.455Z" fill="#EFD1D8"/><path d="M217.19 130.08a69.702 69.702 0 0 1 17.243 8.205l-2.401 13.173c-2.885-.709-5.693-1.91-8.416-3.048-1.132-.472-2.248-.976-3.367-1.471-.931-.413-2.457-1.48-3.459-1.522l-1.389 11.107-25.828 1.669-3.42-13.063c-1.418 2.128-6.354 6.894-7.6 7.659-3.624 2.222-6.653 2.238-10.999 2.814-2.336.312-4.763-.374-6.94-.96-8.576-2.3-22.448-13.339-22.448-13.339l1.627-4.405 24.579 5.915 4.473-3.162a46.416 46.416 0 0 1 12.913-8.726c12.659-5.661 25.571-4.008 35.432-.846Z" fill="#58C1CC"/><mask id="g" style="mask-type:alpha" maskUnits="userSpaceOnUse" x="138" y="127" width="102" height="32"><path d="M234.433 138.285a69.702 69.702 0 0 0-17.243-8.205c-9.861-3.162-22.773-4.815-35.432.846a46.416 46.416 0 0 0-12.913 8.726l-4.473 3.162-24.579-5.915-1.627 4.405s13.872 11.039 22.448 13.339c2.177.586 4.604 1.272 6.94.96 4.346-.576 7.375-.592 10.999-2.814 1.246-.765 6.182-5.531 7.6-7.659l3.42 13.063 25.828-1.669 1.389-11.107c1.002.042 2.528 1.109 3.459 1.522 1.119.495 2.235.999 3.367 1.471 2.723 1.138 5.531 2.339 8.416 3.048.576.15 4.23 1.067 4.506.547l2.603-7.483.719-3.1-5.427-3.137Z" fill="#58C1CC"/></mask><g mask="url(#g)" fill="#69DDE2"><path d="M144.79 131.814a1.155 1.155 0 1 0 0-2.31 1.155 1.155 0 0 0 0 2.31ZM154.225 131.814a1.155 1.155 0 1 0 0-2.31 1.155 1.155 0 0 0 0 2.31ZM163.656 131.814a1.155 1.155 0 1 0 0-2.31 1.155 1.155 0 0 0 0 2.31ZM173.091 131.814a1.155 1.155 0 1 0 0-2.31 1.155 1.155 0 0 0 0 2.31ZM182.523 131.814a1.155 1.155 0 1 0-.001-2.311 1.155 1.155 0 0 0 .001 2.311ZM191.957 131.814a1.155 1.155 0 1 0 0-2.31 1.155 1.155 0 0 0 0 2.31ZM201.389 131.814a1.155 1.155 0 1 0 0-2.31 1.155 1.155 0 0 0 0 2.31ZM210.824 131.814a1.155 1.155 0 1 0 0-2.31 1.155 1.155 0 0 0 0 2.31ZM220.256 131.814a1.155 1.155 0 1 0-.001-2.31 1.155 1.155 0 0 0 .001 2.31ZM229.69 131.814a1.155 1.155 0 1 0 0-2.31 1.155 1.155 0 0 0 0 2.31ZM239.125 131.814a1.155 1.155 0 1 0 0-2.31 1.155 1.155 0 0 0 0 2.31ZM144.79 139.896a1.155 1.155 0 1 0 0-2.31 1.155 1.155 0 0 0 0 2.31ZM154.225 139.896a1.155 1.155 0 1 0 0-2.31 1.155 1.155 0 0 0 0 2.31ZM163.656 139.896a1.155 1.155 0 1 0 0-2.31 1.155 1.155 0 0 0 0 2.31ZM173.091 139.896a1.155 1.155 0 1 0 0-2.31 1.155 1.155 0 0 0 0 2.31ZM182.523 139.896a1.155 1.155 0 1 0-.001-2.311 1.155 1.155 0 0 0 .001 2.311ZM191.957 139.896a1.155 1.155 0 1 0 0-2.31 1.155 1.155 0 0 0 0 2.31ZM201.389 139.896a1.155 1.155 0 1 0 0-2.31 1.155 1.155 0 0 0 0 2.31ZM210.824 139.896a1.155 1.155 0 1 0 0-2.31 1.155 1.155 0 0 0 0 2.31ZM220.256 139.896a1.155 1.155 0 1 0-.001-2.31 1.155 1.155 0 0 0 .001 2.31ZM229.69 139.896a1.155 1.155 0 1 0 0-2.31 1.155 1.155 0 0 0 0 2.31ZM239.125 139.896a1.155 1.155 0 1 0 0-2.31 1.155 1.155 0 0 0 0 2.31ZM144.79 147.974a1.155 1.155 0 1 0 0-2.31 1.155 1.155 0 0 0 0 2.31ZM154.225 147.974a1.155 1.155 0 1 0 0-2.31 1.155 1.155 0 0 0 0 2.31ZM163.656 147.974a1.155 1.155 0 1 0 0-2.31 1.155 1.155 0 0 0 0 2.31ZM173.091 147.974a1.155 1.155 0 1 0 0-2.31 1.155 1.155 0 0 0 0 2.31ZM182.523 147.974a1.155 1.155 0 1 0-.001-2.311 1.155 1.155 0 0 0 .001 2.311ZM191.957 147.974a1.155 1.155 0 1 0 0-2.31 1.155 1.155 0 0 0 0 2.31ZM201.389 147.974a1.155 1.155 0 1 0 0-2.31 1.155 1.155 0 0 0 0 2.31ZM210.824 147.974a1.155 1.155 0 1 0 0-2.31 1.155 1.155 0 0 0 0 2.31ZM220.256 147.974a1.155 1.155 0 1 0-.001-2.31 1.155 1.155 0 0 0 .001 2.31ZM229.69 147.974a1.155 1.155 0 1 0 0-2.31 1.155 1.155 0 0 0 0 2.31ZM144.79 156.055a1.155 1.155 0 1 0 0-2.31 1.155 1.155 0 0 0 0 2.31ZM154.225 156.055a1.155 1.155 0 1 0 0-2.31 1.155 1.155 0 0 0 0 2.31ZM163.656 156.055a1.155 1.155 0 1 0 0-2.31 1.155 1.155 0 0 0 0 2.31ZM173.091 156.055a1.155 1.155 0 1 0 0-2.31 1.155 1.155 0 0 0 0 2.31ZM182.523 156.055a1.155 1.155 0 1 0-.001-2.311 1.155 1.155 0 0 0 .001 2.311ZM191.957 156.055a1.155 1.155 0 1 0 0-2.31 1.155 1.155 0 0 0 0 2.31ZM201.389 156.055a1.155 1.155 0 1 0 0-2.31 1.155 1.155 0 0 0 0 2.31ZM210.824 156.055a1.155 1.155 0 1 0 0-2.31 1.155 1.155 0 0 0 0 2.31ZM220.256 156.055a1.155 1.155 0 1 0-.001-2.31 1.155 1.155 0 0 0 .001 2.31ZM229.69 156.055a1.155 1.155 0 1 0 0-2.31 1.155 1.155 0 0 0 0 2.31ZM239.125 156.055a1.155 1.155 0 1 0 0-2.31 1.155 1.155 0 0 0 0 2.31Z"/></g><path d="M137.317 136.545s-2.108-2.512-.55-2.928c0 0 1.23-.472 2.463 3.295" fill="#EFD1D8"/><path d="M137.317 136.545s-2.108-2.512-.55-2.928c0 0 1.23-.472 2.463 3.295" stroke="#000" stroke-width=".325" stroke-miterlimit="10"/><path d="m199.141 125.508-4.218.426.235 2.33 4.218-.426-.235-2.33Z" fill="#58C1CC"/><path d="m170.068 229.542-8.956-2.54" stroke="#000" stroke-width=".325" stroke-miterlimit="10"/><path d="m192.745 163.122 9.942-1.37M197.703 162.438c-1.783 11.712-9.5 23.242-15.811 32.859-3.433 5.235-6.432 10.792-9.318 16.342-2.665 5.127-5.641 10.544-6.946 16.218" stroke="#fff" stroke-width=".325" stroke-miterlimit="10"/><path d="M210.557 172.498s-3.747 8.426-9.47 13.888" stroke="#000" stroke-width=".325" stroke-miterlimit="10"/><path d="M160.615 154.656s4.746-5.566 10.459-.036c-.006 0-3.692 2.258-10.459.036Z" fill="#3458DD"/><path d="m185.197 141.096 4.37 17.11M217.626 139.714l-1.932 16.719" stroke="#000" stroke-width=".325" stroke-miterlimit="10"/><path d="M221.739 118.827a4.885 4.885 0 0 1-4.269 3.299" stroke="#fff" stroke-width=".325" stroke-miterlimit="10"/><path d="M164.312 158.589s8.277 3.39 14.176-1.43" stroke="#221715" stroke-width=".264" stroke-miterlimit="10"/><path d="m176.693 69.891 8.424 1.858M176.155 71.918l6.387 1.408M175.672 74.173l5.116 1.127" stroke="#000" stroke-width=".528" stroke-linecap="round" stroke-linejoin="round"/><path d="M239.05 221.231s-1.72 10.909-11.79 12.943" stroke="#221715" stroke-width=".264" stroke-miterlimit="10"/><path opacity=".44" d="M295.509 88.15h-55.184a4.968 4.968 0 0 0-4.933 5.013v28.203a4.957 4.957 0 0 0 1.427 3.529 4.973 4.973 0 0 0 3.506 1.483h54.084a4.97 4.97 0 0 0 4.934-5.012V92.007a3.838 3.838 0 0 0-3.834-3.857Z" fill="#79A4E2"/><path d="M290.552 121.999h-56.229a3.874 3.874 0 0 1-3.854-3.91V87.702a3.89 3.89 0 0 1 1.117-2.753 3.88 3.88 0 0 1 2.737-1.157h56.229a3.882 3.882 0 0 1 3.857 3.91v30.387a3.916 3.916 0 0 1-.285 1.489 3.89 3.89 0 0 1-3.572 2.421Z" fill="#EBF4FD"/><path d="M241.934 91.092a2.901 2.901 0 1 1-2.902-2.941 2.915 2.915 0 0 1 2.688 1.82c.144.357.217.737.214 1.121Z" fill="#467EF6"/><path d="M250.018 115.686a1.725 1.725 0 0 1-2.079 1.668 1.732 1.732 0 0 1-1.345-1.363 1.731 1.731 0 0 1 1.696-2.057 1.741 1.741 0 0 1 1.728 1.752ZM257.325 115.686a1.732 1.732 0 0 1-1.084 1.58 1.73 1.73 0 0 1-2.341-1.277 1.73 1.73 0 0 1 1.7-2.055 1.74 1.74 0 0 1 1.725 1.752ZM264.641 115.686a1.73 1.73 0 0 1-1.083 1.58 1.733 1.733 0 0 1-1.876-.391 1.725 1.725 0 0 1-.362-1.881 1.73 1.73 0 0 1 1.596-1.06 1.743 1.743 0 0 1 1.725 1.752Z" fill="#EFD853"/><path d="M248.95 98.205h-11.746a.614.614 0 0 1-.606-.615v-.306a.613.613 0 0 1 .606-.614h11.759a.615.615 0 0 1 .607.614v.296a.617.617 0 0 1-.607.615M260.185 103.252h-23.161a.426.426 0 0 1-.169-.035.451.451 0 0 1-.271-.411v-.214a.424.424 0 0 1 .032-.169.467.467 0 0 1 .095-.145.457.457 0 0 1 .313-.132h23.161a.443.443 0 0 1 .438.446v.214a.44.44 0 0 1-.438.446ZM264.641 100.73h-27.617a.444.444 0 0 1-.44-.446v-.214a.43.43 0 0 1 .127-.314.444.444 0 0 1 .313-.132h27.617a.45.45 0 0 1 .313.132.442.442 0 0 1 .128.314v.214a.451.451 0 0 1-.128.314.453.453 0 0 1-.313.132ZM264.459 106.183h-27.757a.119.119 0 0 1-.119-.119v-.058c0-.031.013-.061.035-.084a.121.121 0 0 1 .084-.034h27.757a.117.117 0 0 1 .116.118v.058a.12.12 0 0 1-.116.119ZM264.459 108.199h-27.757a.123.123 0 0 1-.119-.122v-.058a.12.12 0 0 1 .035-.084.122.122 0 0 1 .084-.035h27.757a.12.12 0 0 1 .116.119v.058a.12.12 0 0 1-.033.085.112.112 0 0 1-.038.026.115.115 0 0 1-.045.011ZM246.385 110.697h-9.683a.119.119 0 0 1-.119-.119v-.058c0-.032.013-.062.035-.085a.12.12 0 0 1 .084-.036h9.683c.031 0 .061.014.084.036a.122.122 0 0 1 .034.085v.058a.115.115 0 0 1-.035.084.118.118 0 0 1-.083.035Z" fill="#467EF6"/><path opacity=".55" d="M302.383 110.399h-24.459a2.177 2.177 0 0 1-2.152-2.185v-24.8a2.174 2.174 0 0 1 2.152-2.183h24.459a2.176 2.176 0 0 1 2.153 2.184v24.799a2.176 2.176 0 0 1-2.153 2.185Z" fill="#CCDDF8"/><path d="M298.741 106.937h-24.462a2.172 2.172 0 0 1-2.153-2.184v-24.8a2.175 2.175 0 0 1 2.153-2.184h24.462a2.176 2.176 0 0 1 2.153 2.185v24.799a2.174 2.174 0 0 1-2.153 2.184Z" fill="#EA706A"/><path d="M293.462 75.65h4.799s4.448-.474 4.683 3.087v5.94" stroke="#000" stroke-width=".264" stroke-miterlimit="10"/><path d="M119.075 142.981c12.625 0 22.86-10.235 22.86-22.86 0-12.626-10.235-22.86-22.86-22.86s-22.86 10.234-22.86 22.86c0 12.625 10.235 22.86 22.86 22.86Z" fill="#57E6EA"/><path d="m106.379 119.802 9.311 7.22 16.082-15.507" stroke="#fff" stroke-width="3.43" stroke-miterlimit="10" stroke-linecap="round"/><path d="M285.982 91.678a4.768 4.768 0 0 1-3.575-2.332 4.656 4.656 0 0 1-.559-3.388 4.753 4.753 0 0 1 5.986-3.589 4.748 4.748 0 0 1-.839 9.28.1.1 0 0 0 .038.046c.017.01.037.016.057.015a7.39 7.39 0 0 1 6.704 5.838c.212 1.09.253 2.206.121 3.308a1.915 1.915 0 0 1-1.846 1.665H281.154a2 2 0 0 1-2.039-1.514 1.373 1.373 0 0 1-.056-.291c-.036-1.49-.079-2.983.528-4.395 1.077-2.487 2.944-3.998 5.604-4.535.256-.042.519-.076.791-.108Zm.528 9.498h5.382a.645.645 0 0 0 .715-.726v-1.272a6.257 6.257 0 0 0-.285-1.897 6.11 6.11 0 0 0-9.954-2.644 6.105 6.105 0 0 0-1.897 3.53c-.077.739-.102 1.481-.074 2.222 0 .552.23.792.792.792l5.321-.005Zm3.39-14.247a3.394 3.394 0 1 0-3.398 3.398 3.362 3.362 0 0 0 3.146-2.1c.168-.416.251-.86.244-1.309l.008.011Z" fill="#fff"/><defs><clipPath id="a"><path fill="#fff" transform="translate(60 187)" d="M0 0h48v52H0z"/></clipPath><clipPath id="c"><path fill="#fff" transform="translate(267 191)" d="M0 0h66v48H0z"/></clipPath></defs></svg>